<svg xmlns="http://www.w3.org/2000/svg" data-laicon-version="13.0" viewBox="0 0 20 20" fill="black"><g transform="translate(-2 -2)">
  <path d="M21.43 8.54a.463.463 0 0 0-.41-.24c-.03 0-.06 0-.09.02h-8.26a.46.46 0 0 0-.36.17c0-.08.01-.17.01-.25 0-.79-.24-1.5-.68-2.03.33-.32.61-.73.73-1.09.28-.84-.26-1.54-.41-1.67a.318.318 0 0 0-.34-.02L9.36 4.71c-.9-.1-2.15 0-3.14 1.04-1.26 1.3-.89 2.9-.67 3.53.04.11.11.19.21.24l.1.03c.16.5.48.93.95 1.28-1.86-.25-2.76.02-3.25.92-.46.84-.29 2.09-.25 2.35-.07.26-.33 1.55.59 2.02.02.01.05.02.07.03-.14.1-.25.23-.32.39l-.12.27c-.28.6-.62 1.34-.84 1.91-.13.32-.15.69-.07.98.19.64.77.95 1.21 1.02.1.01.2.02.3.02.71 0 1.28-.39 1.51-1.06.04-.11.08-.24.1-.34 1.2-.07 3.05-.45 4.39-1.09.29-.14.71-.37 1-.58h.21c1.01-.02 1.63.2 2.5.64.65.33 1.24.77 1.73 1.32.25.27.55.44.89.5.66.11 1.29-.22 1.57-.8.24-.5.47-1.01.7-1.52.06-.14.13-.29.2-.43.11-.24.23-.48.33-.73.29-.71.19-1.4-.3-1.99a1.85 1.85 0 0 0-1.22-.67c-.66-.08-1.24.14-1.69.65-.2.22-.33.48-.43.86-.03.13-.09.35-.14.5-.11-.04-.24-.09-.31-.11-.76-.29-1.78-.47-2.27-.51-.25-.84-.38-1.26-.58-1.67.22 0 .44-.02.66-.04l.25-.02c1.36-.08 2.1-.64 2.59-1.98.53 0 1.38-.2 1.69-1.06h2.79a.5.5 0 0 0 .41-.24l.7-1.36c.09-.14.09-.32 0-.46l.02-.01Zm-15.2 6.42s0-.04.04-.07c.24-.22.74-.96.17-1.67a.435.435 0 0 1-.06-.07c.35.06.77.14.99.19.05.01.11.03.16.04h.04c.31.68.57 1.23 1 2.63h-.03c-.82.27-1.84.6-3.1.1.29-.16.64-.48.79-1.15Zm6.02-5.94.71 1.37c.08.14.22.23.39.24-.04.22-.12.39-.35.49-.45.2-1.49.13-2 0-.06-.02-.12-.03-.18-.05.58-.39 1-1.01 1.21-1.47.09-.21.16-.42.21-.63 0 .01.01.03.02.04l-.01.01Z"/>
</g></svg>