<svg xmlns="http://www.w3.org/2000/svg" data-laicon-version="5.0" viewBox="0 0 20 20" fill="black"><g transform="translate(-2 -2)">
  <path d="M16.892 3.1493c2.183 0 3.958 1.776 3.958 3.959v9.783c0 2.183-1.775 3.959-3.958 3.959H7.108c-2.183 0-3.958-1.776-3.958-3.959v-9.792c0-2.177 1.772-3.95 3.95-3.95ZM12 8.0693c-2.167 0-3.931 1.764-3.931 3.931s1.764 3.93 3.931 3.93 3.931-1.763 3.931-3.93c0-2.167-1.764-3.931-3.931-3.931Zm.0005.9995c1.616 0 2.93 1.315 2.93 2.931s-1.314 2.931-2.93 2.931c-1.617 0-2.931-1.315-2.931-2.931s1.314-2.931 2.931-2.931Zm0 1.236c-.352 0-.678.107-.948.29-.27.183-.486.441-.614.745-.086.203-.133.426-.133.66 0 .936.758 1.695 1.695 1.695.936 0 1.694-.759 1.694-1.695 0-.234-.047-.457-.133-.66a1.6937 1.6937 0 0 0-.614-.745c-.27-.183-.596-.29-.947-.29ZM7.285 6.7483a.8353.8353 0 0 0-.591 1.426c.163.164.377.245.591.245.214 0 .427-.081.59-.245a.8335.8335 0 0 0 0-1.181.8314.8314 0 0 0-.59-.245Z"/>
</g></svg>