<svg xmlns="http://www.w3.org/2000/svg" data-laicon-version="5.0" viewBox="0 0 20 20" fill="black"><g transform="translate(-2 -2)">
  <path d="M17.0051 7.5104c2.8013.0978 4.9928 2.448 4.895 5.2493-.0978 2.8012-2.448 4.9928-5.2492 4.895a5.0565 5.0565 0 0 1-3.2122-1.2944.65.65 0 1 1 .8686-.9672 3.7567 3.7567 0 0 0 2.389.9623c2.0837.0728 3.8318-1.5574 3.9046-3.6411.0728-2.0837-1.5574-3.832-3.6412-3.9047-1.5537-.0542-2.9732.7984-3.5974 2.1334-.2117.4527-.5359 1.2636-.6782 1.6896l-.0404.1268c-.9936 3.1992-2.1806 4.2436-4.4117 4.8017-.3436.086-1.1206.1205-1.4811.0563.4306-.0997 1.1397-.3664 1.481-.622 1.3538-1.0161 2.202-1.7668 3.0706-4.3164l.098-.2992c.1265-.427.5236-1.4301.7842-1.9874.8468-1.811 2.75-2.9543 4.8204-2.882ZM8.7003 6.3758c.1869.0867 2.8072 1.6036 2.8072 1.6036.1227.0848.1227.2767 0 .3446a430.68 430.68 0 0 0-1.278.7316l-.3425.1964-.9873.5664-.1465.0841-.0529.0304c-.1664.084-.339 0-.339-.163V9.049c0-.1587-.0579-.2011-.1782-.2347H7.0678c-2.0128 0-3.671 1.6964-3.671 3.7388 0 2.0397 1.6566 3.6682 3.671 3.7605.3604.0176.8423-.058 1.4457-.2266-.9638.5766-1.8652.8348-2.7043.7746-2.271-.1459-3.6693-1.7635-3.7125-4.3085 0-2.6821 2.1185-4.9185 4.7561-5.0341l.215-.0047 1.1153.0047c.1188-.0451.1781-.1293.1781-.2525v-.6977c0-.193.1523-.2796.3391-.193Zm8.0875 6.8439a.6754.6754 0 1 1 0 1.3507.6754.6754 0 0 1 0-1.3507Zm-9.1514-2.6374a.25.25 0 0 1 .25.25v1.087h1.104a.25.25 0 0 1 .25.25v.7915a.25.25 0 0 1-.25.25h-1.104v1.086a.25.25 0 0 1-.25.25h-.8098a.25.25 0 0 1-.25-.25v-1.086H5.4717a.25.25 0 0 1-.25-.25v-.7916a.25.25 0 0 1 .25-.25h1.105v-1.0869a.25.25 0 0 1 .25-.25Zm7.8007 1.3111a.6754.6754 0 1 1 0 1.3507.6754.6754 0 0 1 0-1.3507Zm2.7014 0a.6754.6754 0 1 1 0 1.3507.6754.6754 0 0 1 0-1.3507Zm-1.3507-1.3381a.6754.6754 0 1 1 0 1.3507.6754.6754 0 0 1 0-1.3507Z"/>
</g></svg>