<svg xmlns="http://www.w3.org/2000/svg" data-laicon-version="5.0" viewBox="0 0 20 20" fill="black"><g transform="translate(-2 -2)">
  <path d="M14.977 2.9021c.36 0 .651.291.651.651v.424H18.7c.634 0 1.151.517 1.151 1.151v14.819c0 .634-.517 1.151-1.151 1.151H5.3c-.634 0-1.151-.517-1.151-1.151V5.1281c0-.634.517-1.151 1.151-1.151h3.314v-.424c0-.36.291-.651.651-.651Zm1.247 11.566H8.019v.699h8.205v-.699Zm-1.188-4.11h-.378c-.153.001-.175.022-.175.176-.001.872.001 1.743-.002 2.615 0 .081.018.147.087.194h.541c.069-.048.084-.115.083-.196-.003-.392-.001-.785-.001-1.177v-.136c.053.018.094.027.129.046.292.147.584.294.874.446.059.03.102.048.137.048.054 0 .089-.04.135-.129.073-.14.148-.277.222-.417.005-.02.011-.032 0-.064-.01-.033-.118-.096-.185-.124-.402-.163-.807-.321-1.213-.476-.07-.026-.104-.055-.101-.136.006-.172.003-.346.001-.518 0-.122-.029-.151-.154-.152Zm-1.544-.03c-.044 0-.087.035-.163.106-.442.412-.91.79-1.449 1.067-.234.12-.476.223-.714.333-.105.048-.134.103-.086.193.064.12.134.239.205.356.026.042.059.064.099.064.02 0 .043-.006.067-.017l.324-.148c.188-.089.374-.181.578-.28.003.052.006.083.006.115.001.35 0 .699.001 1.049.001.131.031.159.16.161.06.001.121.001.181.001l.0935-.0001.0935-.0009c.138-.002.161-.025.162-.166 0-.501.001-1.002-.002-1.503 0-.076.026-.123.085-.171.258-.208.511-.422.763-.637.099-.084.095-.147-.002-.229-.077-.064-.155-.128-.233-.192-.08-.067-.125-.101-.169-.101Zm-4.917.182c-.102 0-.122.039-.152.177-.07.32-.138.64-.222.955-.11.415-.265.814-.465 1.195-.067.129-.05.178.083.245l.31.154c.06.031.104.048.14.048.056 0 .091-.042.14-.138.213-.418.369-.859.479-1.314.09-.373.227-1.058.242-1.127.014-.069-.055-.134-.134-.146-.113-.017-.227-.034-.342-.044a.8347.8347 0 0 0-.079-.005Zm1.319-.021c-.024 0-.049.007-.079.019-.112.049-.225.093-.337.142-.107.048-.119.093-.08.206.147.424.297.847.43 1.276.1.318.174.645.257.968.017.069.048.125.114.125.01 0 .02-.001.031-.003.162-.036.322-.077.479-.127.044-.015.093-.065.092-.127-.003-.022-.004-.043-.009-.065-.176-.803-.443-1.575-.782-2.324-.028-.062-.067-.09-.116-.09Zm.421-.214c-.008 0-.017.002-.027.005-.028.011-.059.024-.088.037-.134.064-.137.08-.077.213.056.12.114.241.151.367.043.13.064.187.121.187.041 0 .101-.028.202-.08.057-.03.072-.062.07-.094-.002-.032-.263-.582-.284-.604-.017-.017-.041-.031-.068-.031Zm.435-.176c-.009 0-.019.002-.029.008-.069.033-.107.052-.166.077-.067.029-.068.078-.045.133.075.183.209.498.229.545.019.04.061.062.089.062.004 0 .008 0 .012-.001.067-.019.133-.056.191-.096a.0729.0729 0 0 0 .029-.089 24.548 24.548 0 0 0-.247-.572c-.01-.024-.026-.067-.063-.067Zm3.577-5.896H9.915v.851h4.412v-.851Z"/>
</g></svg>