<svg xmlns="http://www.w3.org/2000/svg" data-laicon-version="5.0" viewBox="0 0 20 20" fill="black"><g transform="translate(-2 -2)">
  <path d="M19.8526 4.411c1.036 0 1.878.843 1.878 1.878v11.422c0 1.035-.842 1.878-1.878 1.878H4.1466c-1.035 0-1.878-.843-1.878-1.878V6.289c0-1.035.843-1.878 1.878-1.878Zm-4.656 6.422h-.8c-.055 0-.093.056-.072.107l1.245 3.035-.454 1.142c-.02.051.017.107.072.107h.801c.053 0 .1-.033.12-.082l1.668-4.203a.0776.0776 0 0 0-.072-.106h-.8c-.054 0-.101.032-.121.082l-.721 1.817-.746-1.819a.1294.1294 0 0 0-.12-.08Zm-3.415-.088c-.821 0-1.498.721-1.498 1.654 0 .935.677 1.656 1.498 1.656.42 0 .727-.145.934-.383v.217c0 .043.034.078.077.078h.785c.043 0 .078-.035.078-.078V10.91c0-.043-.035-.077-.078-.077h-.785c-.043 0-.077.034-.077.077v.218c-.207-.238-.514-.383-.934-.383Zm-3.385-1.166h-1.513c-.082 0-.148.067-.148.148v4.092c0 .081.066.148.148.148h.707c.082 0 .148-.067.148-.148v-1.231h.658c.865 0 1.535-.671 1.535-1.504 0-.834-.67-1.505-1.535-1.505Zm3.5731 2.0558c.432 0 .746.295.746.765 0 .47-.314.764-.746.764-.433 0-.746-.294-.746-.764 0-.47.313-.765.746-.765Zm-3.5734-1.1153c.307 0 .533.244.533.564 0 .32-.226.564-.533.564h-.658v-1.128Z"/>
</g></svg>