<svg xmlns="http://www.w3.org/2000/svg" data-laicon-version="5.0" viewBox="0 0 20 20" fill="black"><g transform="translate(-2 -2)">
  <path d="M20.7167 11.2002c.442 0 .8.358.8.8v3.72c0 2.646-2.153 4.799-4.8 4.799h-7.439c-1.934 0-3.594-1.155-4.353-2.806l1.249-1.25c.337 1.406 1.596 2.457 3.104 2.457h7.439c1.765 0 3.2-1.436 3.2-3.2v-3.72c0-.442.358-.8.8-.8Zm-7.7194-7.7201c.442 0 .8.359.8.8 0 .442-.358.8-.8.8h-3.72c-1.764 0-3.2 1.436-3.2 3.2v4.275l3.534-3.535 2.617 2.618 6.092-6.093-1.434-1.434h4v4l-1.434-1.434-7.224 7.224-2.617-2.617-1.878 1.878-1.656 1.655-1.535 1.536-.693.693a.8256.8256 0 0 1-.27.177.7988.7988 0 0 1-.296.057.798.798 0 0 1-.566-.234c-.312-.313-.312-.819 0-1.131l1.761-1.761v-5.874c0-2.646 2.152-4.8 4.799-4.8Z"/>
</g></svg>