<svg xmlns="http://www.w3.org/2000/svg" data-laicon-version="5.0" viewBox="0 0 20 20" fill="black"><g transform="translate(-2 -2)">
  <path d="M20.3341 14.623v6.657h-6.656v-6.657h6.656Zm-7.5061.1499v4.796h-4.86v1.711H6.669v-1.711h-.845c-.524 0-.95-.427-.95-.95v-3.846h7.954Zm6.2071 1.1502h-4.057v4.056h4.057v-4.056Zm-2.1984 2.8394v.699h-1.341v-.699h1.341Zm1.6799-.9522v1.651h-1.14v-.699h.44v-.952h.7Zm-1.0057-1.3694v2.015h-2.015v-2.015h2.015Zm-9.4249-.155c-.442 0-.8.358-.8.8 0 .442.358.8.8.8.442 0 .8-.358.8-.8 0-.442-.358-.8-.8-.8Zm8.7249.854h-.615v.616h.615v-.616Zm1.7053-.699v.755h-.7v-.699l.01-.001.65-.052.04-.003Zm.6098-10.2832v2.221h1.471v1.301h-1.471v4.094H4.874v-4.094H3.403v-1.301h1.471v-2.221h14.252Zm-.9501-3.4378c.524 0 .95.427.95.951v1.487H4.8739V3.671c0-.524.426-.951.95-.951Z"/>
</g></svg>