<svg xmlns="http://www.w3.org/2000/svg" data-laicon-version="5.0" viewBox="0 0 20 20" fill="black"><g transform="translate(-2 -2)">
  <path d="M16.5938 3.279c2.013 0 3.65 1.637 3.65 3.65v7.567c0 2.013-1.637 3.65-3.65 3.65h-9.074l-2.311 2.324a.8506.8506 0 0 1-.602.251c-.11 0-.22-.022-.326-.065a.8473.8473 0 0 1-.525-.786V6.929c0-2.013 1.637-3.65 3.65-3.65Zm-2.495 9.05h-4.197v1h4.197v-1Zm.262-3.969c-.552 0-1 .448-1 1s.448 1 1 1 1-.448 1-1-.448-1-1-1Zm-4.722 0c-.552 0-1 .448-1 1s.448 1 1 1c.553 0 1-.448 1-1s-.447-1-1-1Z"/>
</g></svg>