<svg xmlns="http://www.w3.org/2000/svg" data-laicon-version="13.0" viewBox="0 0 20 20" fill="black"><g transform="translate(-2 -2)">
  <path d="M21.265 4.422a1 1 0 1 0-1.285-1.533l-6.05 5.073-2.497-2.975a1 1 0 0 0-1.409-.123l-7.666 6.433a1 1 0 0 0 1.286 1.532l6.9-5.79 2.496 2.974a1 1 0 0 0 1.409.124l6.817-5.715ZM7.984 12.251h6.753L17.2 15.34l2.463-3.088h2.32l-3.623 4.546 3.554 4.46h-2.313L17.2 18.255l-2.402 3.004h-2.312l3.553-4.46-2.183-2.736H8.13a1.28 1.28 0 0 0-1.269 1.172v.95h5.517l-1.46 1.811H6.861v3.255H5.05v-5.918a3.09 3.09 0 0 1 2.92-3.08h.014Z"/>
</g></svg>