<svg xmlns="http://www.w3.org/2000/svg" data-laicon-version="16.17" viewBox="0 0 20 20" fill="black"><g transform="translate(-2 -2)">
  <path d="M2.35 6.233c0-1.17.949-2.12 2.12-2.12h15.06c1.17 0 2.12.95 2.12 2.12v11.534c0 1.17-.95 2.12-2.12 2.12H4.47a2.12 2.12 0 0 1-2.12-2.12V6.233Zm9.606 8.048H8.57v-6.25a.481.481 0 0 0-.481-.481H6.782a.481.481 0 0 0-.481.481v8.038c0 .265.215.481.488.481h5.167a.481.481 0 0 0 .482-.481v-1.306a.481.481 0 0 0-.482-.482Zm1.536-4.367a.236.236 0 0 0 0 .428c1.152.537 1.69 1.074 2.227 2.227a.236.236 0 0 0 .428 0c.538-1.152 1.074-1.69 2.227-2.228a.236.236 0 0 0 0-.427c-1.152-.538-1.69-1.074-2.227-2.227a.236.236 0 0 0-.427 0c-.538 1.152-1.075 1.69-2.228 2.227Z"/>
</g></svg>