<svg xmlns="http://www.w3.org/2000/svg" data-laicon-version="15.6" viewBox="0 0 20 20" fill="black"><g transform="translate(-2 -2)">
  <path d="M2.492 5.11A3.11 3.11 0 0 1 5.602 2h8.858a3.11 3.11 0 0 1 3.111 3.11v2.48h-4.587c-.902 0-1.634.732-1.634 1.634v4.658a.088.088 0 0 1-.14.07L9.264 12.49H5.603a3.11 3.11 0 0 1-3.11-3.11V5.11Z"/>
  <path d="M6.429 13.79v3.131a3.11 3.11 0 0 0 3.11 3.11h2.303v.59a1.379 1.379 0 0 0 2.24 1.077l2.083-1.666h2.232a3.11 3.11 0 0 0 3.11-3.11V12a3.11 3.11 0 0 0-3.11-3.11h-5.413a.334.334 0 0 0-.334.334v4.658a1.388 1.388 0 0 1-2.222 1.11L8.83 13.79h-2.4Z"/>
</g></svg>