<svg xmlns="http://www.w3.org/2000/svg" data-laicon-version="5.0" viewBox="0 0 20 20" fill="black"><g transform="translate(-2 -2)">
  <path d="m18.0744 14.1966 3.378 1.5907a.6437.6437 0 0 1 .3703.565.6448.6448 0 0 1-.3376.5858l-9.1726 4.9835a.6477.6477 0 0 1-.3078.0784.6506.6506 0 0 1-.3078-.0784L2.5252 16.938a.644.644 0 0 1-.3378-.5819.6462.6462 0 0 1 .3637-.566l1.9779-.9591.685.3862.6842.3843 5.8582 3.2985a.4973.4973 0 0 0 .4955-.005c1.9332-1.1388 3.5368-2.4326 4.8643-3.7224.1668-.1609.3307-.3217.4875-.4826.1609-.1648.3188-.3296.4707-.4935Zm-.2825-9.542.0735.0297a615.148 615.148 0 0 0 2.0349.8218l.4197.168c.3965.1584.72.2863.9412.3715a.65.65 0 0 1 .3654.3595.6508.6508 0 0 1-.01.5103c-.3922.8609-.9939 2.1745-1.9332 3.663a25.9791 25.9791 0 0 1-2.5677 3.1673 27.2545 27.2545 0 0 1-.4776.4896c-.1608.1608-.3197.3207-.4895.4815-1.132 1.0714-2.4674 2.1348-4.0223 3.09-.0457.0288-.0874.0586-.133.0864l-.1808-.1003-4.8266-2.7176-.3038-.1708-.3813-.2145-.6851-.3852.008-.004-3.1208-1.7813a.644.644 0 0 1-.3258-.5441.6505.6505 0 0 1 .298-.56c1.7227-1.1012 2.95-2.0653 3.9647-3.102l1.2422-.401 1.0972-.3536 7.0993-2.2876.9562-.3079.9572-.3088ZM10.5984 2.318a.6472.6472 0 0 1 .8013-.27c.3068.126 2.0543.842 3.8833 1.5876.3535.143.7149.291 1.0763.4379l-.4031.13-.552.1778-.9543.3068v.001L9.7306 6.2103h-.001l-.989.3187-.5411.1747-.5024.1609c.2085-.272.413-.557.6156-.851.7218-1.0673 1.5579-2.4614 2.2857-3.6956Z"/>
</g></svg>