<svg xmlns="http://www.w3.org/2000/svg" data-laicon-version="5.0" viewBox="0 0 20 20" fill="black"><g transform="translate(-2 -2)">
  <path d="M8.205 16.1363c1.0138.94 2.4187 1.461 3.7942 1.4896 1.2671.0263 2.4035-.5002 3.005-.8522.353-.1733.4305-.1158.4601.0473.0358.1643.0553.7668.0585 1.8073v.677c-.0011.4052-.004.8592-.0088 1.3618-.9214.7643-1.991 1.1826-3.2086 1.2551-2.1269.0764-3.3294-.9107-3.472-1.012-.099-.0703-2.3977-2.2874-3.778-3.6603l-.312-.3118c-.4368-.4387-.7223-.737-.711-.7553.0206-.0332.6677-.051 1.9412-.0534h.6501c.4647.0007.9918.003 1.5814.0069ZM20.6702 8.481c.8619 1.1256 1.2799 2.2987 1.2542 3.5192-.0386 1.8308-.5523 2.3934-.8788 2.9722-.1756.1929-.355.388-.5362.5837l-.3645.3916a136.322 136.322 0 0 1-2.7236 2.8258l-.394.3942c-.4857.4828-.8038.7854-.841.7996-.0633-.1374-.0788-.9688-.0466-2.494.3392.2607.6333.3911.8824.3911.247 0 .482-.138.7046-.414.119-.2053.1528-.4432.1014-.7139-.0887-.2514-.4978-.7272-1.227-1.4275l.196-.3745c.4191-.8122.787-1.649.787-2.9011 0-1.3748-.4898-2.447-.983-3.2018-.0784-.0793-.197-.1789-.2274-.2886-.0331-.0417.7088-.064 2.2256-.067l.9511.0004c.3452.0008.7185.0023 1.1198.0046Zm-8.666-.225c2.0983 0 3.7992 1.701 3.7992 3.7992 0 2.0981-1.701 3.799-3.7991 3.799-2.0982 0-3.7991-1.7009-3.7991-3.799 0-2.0982 1.7009-3.7991 3.799-3.7991ZM7.8013 4.0278c.0327.0209.0509 1.0643.0546 3.1302l.0006 1.1182c-.9.9934-1.4483 2.3113-1.4483 3.7574 0 1.1334.2915 2.216.8988 3.0404.0856.1163.1488.2684.2453.3915-.0507.0365-.6269.0563-1.7285.0594l-.6324.0001c-.53-.001-1.149-.005-1.8572-.0118-.8888-1.062-1.3072-2.3135-1.2552-3.7546.0897-2.197 1.1934-3.112 1.8827-3.8495l.5229-.5313c1.6779-1.713 3.2417-3.3788 3.3167-3.35ZM12.19 2.0785c1.6832.0429 2.7045.8395 2.9093.947.1313.0587 1.8272 1.7267 3.1806 3.0778l.3592.3591c.7536.755 1.3272 1.338 1.3272 1.352 0 .0236-1.123.0367-3.369.0392l-.857.0005c-1.0548-.8588-2.2839-1.4115-3.7395-1.4115-1.1966 0-2.3643.4297-3.1307.9618-.1796.1371-.2973.1956-.3392.2153-.0465-.0497-.062-1.4825-.0465-4.2985C9.598 2.437 10.8331 2.0228 12.19 2.0785Z"/>
</g></svg>