<svg xmlns="http://www.w3.org/2000/svg" data-laicon-version="5.0" viewBox="0 0 20 20" fill="black"><g transform="translate(-2 -2)">
  <path d="M20.4072 4.756c-2.052-2.052-5.343-2.094-7.467-.162l1.132 1.132c1.466-1.265 3.822-1.221 5.204.161 1.488 1.489 1.488 3.913 0 5.403l-7.276 7.276-7.277-7.276c-1.488-1.49-1.488-3.914 0-5.403.722-.722 1.682-1.119 2.703-1.119 1.02 0 1.98.397 2.702 1.119l1.872 1.873 1.133-1.134-1.131-1.132-.002.002-.741-.74c-2.114-2.113-5.553-2.114-7.666 0-2.113 2.113-2.113 5.552 0 7.665l8.407 8.408 8.407-8.408c2.112-2.113 2.112-5.552 0-7.665"/>
</g></svg>