<svg xmlns="http://www.w3.org/2000/svg" data-laicon-version="5.0" viewBox="0 0 20 20" fill="black"><g transform="translate(-2 -2)">
  <path d="M11.9998 2.75c5.101 0 9.25 4.149 9.25 9.25s-4.149 9.25-9.25 9.25c-5.1 0-9.25-4.149-9.25-9.25s4.15-9.25 9.25-9.25Zm-4.199 7.873h-1.92l-.051.289c-.063.359-.095.724-.095 1.088 0 3.454 2.811 6.265 6.265 6.265 2.173 0 4.159-1.101 5.314-2.945l-.594-.371c-1.025 1.638-2.79 2.616-4.72 2.616-2.754 0-5.04-2.012-5.482-4.643h1.158v-.699h-1.23c-.002-.075-.011-.148-.011-.223 0-.226.014-.453.041-.678h1.325v-.699Zm4.199-4.888c-2.173 0-4.159 1.101-5.313 2.945l.593.371c1.026-1.638 2.79-2.616 4.72-2.616 2.593 0 4.779 1.783 5.393 4.188h-.28c-.759 0-1.377.617-1.377 1.377s.618 1.377 1.377 1.377h1.008l.05-.29c.063-.358.094-.724.094-1.087 0-3.454-2.81-6.265-6.265-6.265Zm5.524 5.5873a5.6231 5.6231 0 0 1 0 1.355h-.411a.6775.6775 0 0 1-.677-.677c0-.373.303-.678.677-.678Z"/>
</g></svg>