<svg xmlns="http://www.w3.org/2000/svg" data-laicon-version="5.0" viewBox="0 0 20 20" fill="black"><g transform="translate(-2 -2)">
  <path d="M17.2563 2.1394c.1266-.2091.4428-.1747.541.0481l1.46 3.2901s-.3673.7815-2.4556 1.4482c-2.1355.6824-3.7957-.221-3.7957-.221l3.0917 6.9465c1.3333 2.9945-.0127 6.5016-3.0063 7.834-2.9946 1.3333-6.5016-.0128-7.834-3.0074-1.3333-2.9936.0128-6.5006 3.0074-7.834a5.9025 5.9025 0 0 1 2.1727-.5036L7.772 4.1413a.5161.5161 0 0 1 .2395-.6725c.6235-.3161 1.837-.8208 3.08-.7344 1.785.1227 3.4305 1.0466 4.973.4045.6303-.2631.9896-.6637 1.1919-.9995Zm-4.587 13.0376c-.49-1.0996-1.7782-1.5944-2.8788-1.1045-1.0996.49-1.5945 1.779-1.1055 2.8787.4899 1.1006 1.779 1.5955 2.8797 1.1055 1.1006-.49 1.5954-1.779 1.1045-2.8797Z"/>
</g></svg>