<svg xmlns="http://www.w3.org/2000/svg" data-laicon-version="17.5" viewBox="0 0 20 20" fill="black"><g transform="translate(-2 -2)">
  <path d="M5.7 4.75A3.15 3.15 0 0 0 2.55 7.9V18c0 .635.515 1.15 1.15 1.15h16.6A1.15 1.15 0 0 0 21.45 18V7.9a3.15 3.15 0 0 0-3.15-3.15H5.7ZM7.6 9.8a.3.3 0 0 1 .3-.3h.7a.3.3 0 0 1 .3.3v1.55h1.55a.3.3 0 0 1 .3.3v.7a.3.3 0 0 1-.3.3H8.9v1.55a.3.3 0 0 1-.3.3h-.7a.3.3 0 0 1-.3-.3v-1.55H6.05a.3.3 0 0 1-.3-.3v-.7a.3.3 0 0 1 .3-.3H7.6V9.8Zm6.25 4.7a1.25 1.25 0 1 1 0-2.5 1.25 1.25 0 0 1 0 2.5ZM17 12a1.25 1.25 0 1 1 0-2.5 1.25 1.25 0 0 1 0 2.5Z"/>
</g></svg>