<svg xmlns="http://www.w3.org/2000/svg" data-laicon-version="9.0" viewBox="0 0 20 20" fill="black"><g transform="translate(-2 -2)">
  <path d="M9.677 5.878A2.325 2.325 0 0 1 12 3.556a2.325 2.325 0 0 1 2.323 2.322v.004H9.677v-.004zm8.756.004h-2.81v-.004A3.627 3.627 0 0 0 12 2.255a3.627 3.627 0 0 0-3.623 3.623v.004h-2.81c-.634 0-1.15.517-1.15 1.15v10.205h15.166V7.032c0-.633-.515-1.15-1.15-1.15zM4.417 18.237v2.357c0 .634.515 1.151 1.15 1.151h12.866c.634 0 1.15-.517 1.15-1.15v-2.358H4.417z"/>
</g></svg>