<svg xmlns="http://www.w3.org/2000/svg" data-laicon-version="5.0" viewBox="0 0 20 20" fill="black"><g transform="translate(-2 -2)">
  <path d="M17.7 2C20.0748 2 22 3.9252 22 6.3v11.4c0 2.3748-1.9252 4.3-4.3 4.3H6.3C3.9252 22 2 20.0748 2 17.7V6.3C2 3.9252 3.9252 2 6.3 2h11.4Zm-5.8298 3.213c-3.6554 0-7.2146 2.4266-7.2146 5.9171 0 2.9893 2.6563 5.4 6.1042 5.85.6538.1336.6904.3807.6904.6761.0198.305-.1298.8844-.1501 1.1562-.0167.4216.3416.328.6215.2234.3018-.1047 1.605-.9024 2.316-1.3796.702-.5832 5.1336-3.1216 5.016-6.52 0-3.0396-2.9717-5.9232-7.3834-5.9232Zm-4.144 4.3478c.0803.0192.1205.0663.1205.1414v2.5159h1.386c.0943 0 .1414.04.1414.1202v.5315c-.0144.0944-.0615.1416-.1414.1416H7.1949c-.0943-.0113-.1414-.0584-.1414-.1416V9.702c.0108-.0942.058-.1412.1414-.1412h.5313Zm2.7668-.0002c.1233.0182.1233.1413.1205.1415l.0002 1.4807.0006.4113.0003.2002.0008.5412.0003.1502.0006.384c0 .118-.0856.1376-.1142.1409l-.5404.0007s-.1414-.0169-.1414-.1416V9.7019c.0132-.0942.0603-.1413.1414-.1413h.5313Zm1.273.0002c.0983.0144.125.0774.1362.0916l1.2822 1.7337.1464.198V9.7022c0-.0625.0302-.1052.0906-.1282l.051-.0135h.5105c.061 0 .1034.0303.1273.0907l.0144.051v3.1676c0 .062-.0303.1046-.0907.1278l-.051.0138h-.5104c-.0336 0-.062-.0089-.0852-.0264l-.031-.033-1.4541-1.963v1.881c0 .0651-.0303.1083-.0907.1296l-.051.0118h-.5094c-.0668 0-.1104-.0302-.1308-.0905l-.0109-.0508V9.702c.009-.0753.041-.1205.096-.1356l.0457-.0056h.5148Zm5.039 0c.0943.0182.1415.0653.1415.1414v.5383c-.0257.0754-.0728.1131-.1414.1131h-1.386v.5355h1.386c.0845.0098.1316.057.1414.1416v.5103c-.0146.0944-.0617.1416-.1414.1416h-1.386v.5356h1.386c.0841.0103.1313.0575.1414.1415v.5101c-.012.0944-.0592.1416-.1415.1416h-2.0376c-.0943-.008-.1414-.0552-.1414-.1416V9.7022c.0131-.0944.0603-.1416.1414-.1414h2.0376Z"/>
</g></svg>