<svg xmlns="http://www.w3.org/2000/svg" data-laicon-version="5.0" viewBox="0 0 20 20" fill="black"><g transform="translate(-2 -2)">
  <path d="M14.7749 4.4082c.572.039.748.408.763.621-.078 1.439-.238 4.795-.136 6.949.121 2.568.182 4.576.088 5.999.249-.006.802-.015.802-.015.12 0 .293.024.438.143.144.118.256.388.252.6-.004.235-.116.505-.262.627-.161.136-.354.156-.455.156l-.303-.001c-.458 0-2.007.008-2.719.102l-.182.004-.105-.002c-.23-.034-.608-.222-.643-.727-.017-.226.058-.49.178-.629.2-.231.456-.237.485-.237.164.004.372.009.586.009l.1107-.0007c.1039-.0012.1873-.004.2533-.0063.025-.2607.055-.7626.0576-1.6805l-.0003-.3416c-.0042-1.0182-.0396-2.473-.1383-4.5389-.067-1.399-.052-2.453-.022-3.149-.415.422-1.006.934-1.714 1.302-.019.011-.157.091-.348.091-.176 0-.429-.065-.634-.379-.226-.349-.123-.64-.042-.783.101-.181.256-.292.315-.333a8.373 8.373 0 0 0 1.141-.903c.947-.898 1.272-1.657 1.378-2.136l.042-.125c.07-.282.267-.438.326-.479.125-.086.308-.137.488-.137Zm3.6841.8428c.804.015 1.399.265 1.822.766.275.324.461.739.552 1.233.087.47.089 1.001.004 1.582-.179 1.231-.623 2.403-1.052 3.538-.253.67-.506 1.339-.695 1.985-.303 1.041-.321 2.29-.281 2.934.411-.012 1.525-.047 1.525-.047.247 0 .665.154.686.729.021.637-.449.82-.615.834l-.353.005c-.573.009-1.733.027-2.232.043l-.023.001c-.117 0-.239-.031-.318-.08-.053-.035-.173-.132-.212-.333-.019-.095-.033-.285-.038-.562l-.005-.136c-.021-.578-.076-2.108.274-3.62.182-.79.585-1.769.851-2.417.094-.229.152-.369.189-.47.452-1.202.705-2.243.722-2.65.013-.305.033-.766-.067-1.146-.099-.374-.278-.547-.58-.565l-.132-.004c-.675 0-.822.318-1.026.758-.057.124-.113.242-.178.351-.031.053-.16.232-.476.301l-.019.0017-.0835.0076-.0195.0017c-.119 0-.345-.025-.496-.118-.339-.211-.379-.476-.38-.656-.002-.18.069-.398.09-.46.01-.04.126-.47.483-.9.344-.414.984-.907 2.083-.907Zm-8.1477.8669c.217 0 .417.083.58.24.197.188.236.41.235.562-.004.171-.064.346-.159.457-.042.051-.229.243-.283.288-.384.349-.723.817-1.004 1.387-.23.464-.421.996-.568 1.584-.127.506-.199.971-.239 1.305.074-.011.151-.016.231-.016.476.016.864.232 1.157.645.369.52.559 1.317.565 2.371.005.914-.082 1.406-.177 1.801-.181.758-.474 1.311-.872 1.643-.354.295-.694.326-.824.326l-.067-.003c-.066-.002-.422-.029-.803-.34-.502-.406-.808-1.096-.912-2.051-.085-.784-.131-1.347-.029-3.008.075-1.218.241-2.325.494-3.289.207-.795.476-1.503.797-2.105.538-1.004 1.083-1.444 1.293-1.588.061-.042.163-.1.248-.138a.8424.8424 0 0 1 .337-.071Zm-6.6085-.2117c.483 0 1.295.167 2.004.638.557.369 1.234 1.042 1.291 2.155.027.547-.052 1.081-.237 1.587-.146.402-.358.789-.633 1.151-.16.211-.338.408-.529.588.337.208.608.534.79.953.202.468.229.89.229.894.058.809-.013 1.546-.211 2.189-.162.526-.406.988-.729 1.374-.54.653-1.115.875-1.179.899-.213.093-.608.2-.941.223h-.01a.813.813 0 0 1-.275-.048c-.177-.106-.261-.253-.263-.437l-.006-.545c-.0079-.7432-.0205-1.8683-.0226-2.8991v-.6034c.0019-.6819.0103-1.2708.0306-1.6035.0298-.4826.0402-1.7853.0422-3.0917l-.0001-1.183a404.7091 404.7091 0 0 0-.0061-1.6463c-.001-.176.058-.301.084-.346.16-.209.361-.241.441-.245Zm5.2765 7.6917c-.11.031-.189.201-.22.305-.082.268-.085.456-.095 1.079-.023 1.295.182 1.798.303 1.981.008-.018.016-.035.024-.056.093-.231.205-.731.215-1.798.009-.834-.089-1.23-.173-1.416-.022-.048-.041-.079-.054-.095Zm-4.4325-.4637-.016 3.273c.007-.009.014-.018.02-.026.424-.575.504-1.361.497-1.919-.007-.493-.103-1.101-.501-1.328Zm.075-5.497-.044 3.355c.064-.065.13-.138.196-.219.449-.553.664-1.203.638-1.932-.018-.512-.21-.88-.569-1.097a1.3407 1.3407 0 0 0-.221-.107Z"/>
</g></svg>