<svg xmlns="http://www.w3.org/2000/svg" data-laicon-version="13.0" viewBox="0 0 20 20" fill="black"><g transform="translate(-2 -2)">
  <path d="M11.463 7.32a10.407 10.407 0 0 0-2.413 6.536v.335c-3.847-1.233-6.643-4.814-6.7-9.058a.65.65 0 0 1 .542-.65A9.71 9.71 0 0 1 4.5 4.35a9.622 9.622 0 0 1 6.964 2.97Z"/>
  <path d="M9.85 13.867c.071-5.268 4.364-9.517 9.649-9.517a9.71 9.71 0 0 1 1.606.133.65.65 0 0 1 .543.65c-.061 4.532-3.246 8.309-7.5 9.277l.002 5.24h-4.3v-5.783Zm-7.5-4.849a10.49 10.49 0 0 0 4.3 4.96v5.672h-4.3V9.018Z"/>
  <path d="M17.35 13.978v5.672h4.3V9.016a10.488 10.488 0 0 1-4.3 4.962Z"/>
</g></svg>