<svg xmlns="http://www.w3.org/2000/svg" data-laicon-version="13.0" viewBox="0 0 20 20" fill="black"><g transform="translate(-2 -2)">
  <path d="M6.315 4.63c3.111-3.038 8.245-3.038 11.357 0l.008.008c3.195 3.233 3.315 8.42.204 11.674l-.007.008-4.93 4.986a.642.642 0 0 1-.098.082 1.52 1.52 0 0 1-.843.26c-.284 0-.617-.087-.868-.342l-4.93-4.986c-3.213-3.25-3.104-8.55.107-11.69Zm8.676 4.453a.798.798 0 1 0-1.596 0 .798.798 0 0 0 1.596 0Zm-5.185.798a.798.798 0 1 0 0-1.596.798.798 0 0 0 0 1.596Zm5.05 2.216a.648.648 0 0 0-1.125-.643c-.13.226-.384.475-.72.67-.336.192-.699.3-1.011.3-.633 0-1.353-.447-1.766-1.025a.648.648 0 0 0-1.055.753c.584.818 1.659 1.568 2.82 1.568.586 0 1.17-.192 1.658-.473.486-.28.93-.678 1.2-1.15Z"/>
</g></svg>