<svg xmlns="http://www.w3.org/2000/svg" data-laicon-version="16.2" viewBox="0 0 20 20" fill="black"><g transform="translate(-2 -2)">
  <path d="M18.726 10.38a6.531 6.531 0 0 0-.488-1.35l2.468-1.428c-.077-.141-.141-.283-.218-.424-.078-.142-.18-.27-.258-.399l-2.468 1.427a5.865 5.865 0 0 0-.926-1.092l2.546-1.466c-2.97-3.382-8.01-4.32-12.06-1.98-4.05 2.34-5.76 7.174-4.307 11.443l2.545-1.466c.116.463.27.913.489 1.35L3.58 16.422c.077.142.142.283.219.424.077.142.18.27.257.399l2.469-1.427a5.9 5.9 0 0 0 .925 1.093l-2.545 1.465c2.97 3.382 8.01 4.32 12.06 1.98 4.05-2.34 5.76-7.174 4.307-11.442l-2.546 1.465ZM3.915 13.001C3.529 9.814 5.033 6.535 7.99 4.825s6.545-1.376 9.116.553l-1.389.797c-2.082-1.273-4.757-1.44-7.02-.129C6.435 7.358 5.24 9.75 5.303 12.192l-1.388.797v.013Zm11.635.322a.298.298 0 0 1-.231.501l-2.186-.064-1.028 1.928a.3.3 0 0 1-.553-.064l-.604-2.096-2.148-.385a.297.297 0 0 1-.115-.54l1.8-1.222-.296-2.16c-.039-.27.27-.437.476-.283l1.723 1.337 1.967-.951a.3.3 0 0 1 .411.373l-.746 2.057 1.518 1.569h.012Zm.707 5.837c-2.957 1.71-6.544 1.375-9.115-.553l1.388-.797c2.083 1.273 4.758 1.44 7.02.128 2.263-1.311 3.459-3.703 3.395-6.145l1.388-.798c.386 3.189-1.118 6.468-4.075 8.165Z"/>
</g></svg>