<svg xmlns="http://www.w3.org/2000/svg" data-laicon-version="5.0" viewBox="0 0 20 20" fill="black"><g transform="translate(-2 -2)">
  <path d="M4.9449 4.6355c.419-1.265 1.693-2.023 3.033-1.804.841.139 1.498.606 1.956 1.39.568-.089 1.091-.141 2.06-.155.985.015 1.511.067 2.079.157.458-.784 1.115-1.251 1.957-1.389 1.334-.22 2.612.538 3.031 1.806.204.619.22 1.285.05 1.985.948.85 2.886 2.806 2.743 6.373-.16 3.975-4.134 8.21-9.804 8.21-.033.001-.067.001-.103 0-5.669 0-9.644-4.244-9.801-8.219-.141-3.566 1.798-5.52 2.748-6.37-.169-.702-.152-1.368.051-1.984Zm7.114 7.182c-1.142 0-2.068 1.137-2.068 2.539 0 1.402.926 2.539 2.068 2.539 1.141 0 2.067-1.137 2.067-2.539 0-1.402-.926-2.539-2.067-2.539Zm-.0007.6543c.29 0 .663.005.723.257.04.167-.129.492-.353.707v.625l.663.817c.139.172.113.424-.059.563a.3983.3983 0 0 1-.562-.059l-.28-.345-.406.789a.3997.3997 0 0 1-.356.218.395.395 0 0 1-.182-.045c-.197-.1-.274-.342-.173-.538l.555-1.081v-.944c-.223-.214-.393-.54-.353-.707.059-.252.432-.257.722-.257Zm1.2107-2.1343a.6005.6005 0 0 0 0 1.201.6005.6005 0 0 0 0-1.201Zm-2.451 0a.6.6 0 0 0-.6.601c0 .331.268.6.6.6a.6005.6005 0 0 0 0-1.201Zm5.822-6.513c-.446 0-.751.254-.944.515-.104.142-.185.284-.217.393 0 0 .435.164 1.222.587.787.423 1.176.714 1.176.714.009-.014.015-.032.023-.048.277-.499.329-1.526-.559-1.976-.261-.132-.495-.185-.701-.185Zm-9.168.037c-.209 0-.447.055-.714.19-.765.388-.841 1.185-.677 1.708.032.102.07.198.117.274 0 0 .391-.289 1.178-.712.787-.423 1.221-.589 1.221-.589-.025-.086-.08-.195-.152-.307-.179-.275-.496-.564-.973-.564Z"/>
</g></svg>