<svg xmlns="http://www.w3.org/2000/svg" data-laicon-version="5.0" viewBox="0 0 20 20" fill="black"><g transform="translate(-2 -2)">
  <path d="M3.633 2c.4016 1.0247 1.0129 2.2647 2.0857 3.5717.3987.4268 1.001 1.04 1.6333 1.6744l.3468.3472a342.448 342.448 0 0 0 2.4291 2.3983c.8567.8534 1.5786 2.0764 1.6185 4.087.0045.512.0075 1.1468.009 1.9043l.0008.591.0002.3128v.6602c0 .1138 0 .2296-.0002.3473l-.0008.7291A1627.2816 1627.2816 0 0 1 11.7464 22c-3.3585-3.358-5.2008-5.2372-5.5268-5.6376-1.3019-1.4225-2.5865-3.6088-2.5865-5.3097V9.2292c1.4753 1.4842 2.641 2.656 3.4972 3.5151l.3065.3076.4054.4064.692.692c.1714.1708.2835.2818.3364.333 0-.3805-.211-.8382-.633-1.3732-1.0969-1.1075-1.8224-1.8428-2.1765-2.2059-.4959-.4644-1.2464-1.341-1.4429-1.7516-.5426-.9263-.809-2.0703-.927-3.3257-.0481-.689-.0645-1.4784-.068-2.1636l-.0003-.5831C3.625 2.5363 3.633 2.1265 3.633 2Zm16.734 0c0 .3093.0477 2.3111-.0582 3.827-.118 1.2553-.3844 2.3993-.927 3.3256-.1965.4106-.947 1.2872-1.443 1.7516-.354.3631-1.0795 1.0984-2.1764 2.2059-.422.535-.633.9927-.633 1.3732l.0599-.0586c.062-.061.1541-.1524.2765-.2745l.8199-.82c.0876-.088.1801-.1807.2775-.2783l.3065-.3076a4343.765 4343.765 0 0 0 3.4972-3.515v1.8234c0 1.7009-1.2846 3.8872-2.5865 5.3097-.298.3661-1.8636 1.9683-4.6967 4.8067l-.546.5467a1237.5 1237.5 0 0 1-.2842.2842c-.005-1.4043-.0081-2.6533-.0094-3.747v-1.9804c.0013-.8866.0044-1.618.0095-2.194.0399-2.0106.7618-3.2336 1.6185-4.087 0 0 1.0992-1.073 2.2554-2.225l.5205-.5205c.6324-.6344 1.2346-1.2476 1.6333-1.6744C19.3541 4.2647 19.9654 3.0247 20.367 2Z"/>
</g></svg>