<svg xmlns="http://www.w3.org/2000/svg" data-laicon-version="5.0" viewBox="0 0 20 20" fill="black"><g transform="translate(-2 -2)">
  <path d="M17.8341 14.7145c2.0083 0 3.6423 1.635 3.6423 3.6432 0 1.9444-1.5303 3.5366-3.4491 3.6372L17.834 22h-5.1713c-2.0082 0-3.6422-1.633-3.6422-3.6423 0-1.9434 1.5303-3.5373 3.4491-3.6381l.1931-.0051h5.1713ZM10.2991 2c1.8736 0 3.4102 1.4742 3.5106 3.3233l.0052.1926V5.79h2.5964a.9896.9896 0 0 1 .9766.828l.012.111.3722 7.1601h-5.109c-2.4642 0-4.4686 2.0044-4.4686 4.4685 0 .7682.2036 1.4864.5485 2.1171l.1358.2324H3.4772c-.2615 0-.5152-.108-.694-.2965a.9616.9616 0 0 1-.2575-.5785l-.0021-.1301.6736-12.973a.9913.9913 0 0 1 .8774-.9328l.1112-.0062h2.5973V5.516C6.7831 3.5776 8.3598 2 10.2991 2Zm7.0723 15.9359h-.5122l-.0292.033v.3694h-.9652l-.5842-.0126-.033.0262V18.8l.029.034.5882-.0126h.453c-.2733.1366-.581.239-.9938.3585l-.2155.0614.3869.3898c.0204.0214.0379.034.0544.034.0117 0 .0253-.0048.0457-.0126a4.2636 4.2636 0 0 0 .42-.1385l.2012-.0841v.2479c-.1148.011-.233.0203-.3588.029l-.1953.0128-.0292.0379.1808.52.038.0136c.659-.106 1.1839-.1973 1.6825-.2984.035-.0065.0553-.0197.0653-.0471l.0067-.0326.0204-.2187c.2897.2605.6386.453 1.0624.5706a.0576.0576 0 0 0 .0517-.0106l.0193-.0186.4034-.5074c-.3781-.068-.6882-.1681-.9526-.3159a5.625 5.625 0 0 0 .2758-.205l.1431-.1138v-.0418l-.3275-.2304h.1555l.592.0126.0291-.0301v-.449l-.0291-.0292-.592.0126h-1.0576v-.3733l-.0292-.0291Zm-2.7023-1.113-.7057.0126h-1.6029l-.7057-.0126-.033.0262.0039.7174v.9691l-.0214 1.532h.6464v-.3568h1.7924v.3568h.6678l-.0213-1.5942v-.907l.0126-.7173-.033-.0262Zm2.383 2.1366c.1098.2012.239.3869.3946.555l-.3311.0549-.3319.0453v-.4783c.0924-.0593.1808-.1137.2683-.1769Zm-3.0088-1.5904v1.809H12.251v-1.809h1.7924Zm4.029-1.0245-.3441.2605-.0039.038c.113.0685.2123.1354.2918.2002l.0727.0641-.0457.0078-.3693.0515c-.038-.1232-.071-.265-.0978-.4241l-.0247-.165-.0292-.0281-.5492.0243-.0253.034c.0279.1542.058.3007.091.4385l.052.2001-.626.0661-.0292.0292.0797.4627.0379.0165.7086-.1215c.1643.3305.3995.5745.7854.7174.1682.0632.3276.0797.4783.0797.277 0 .5083-.1011.588-.524.0066-.0386.0033-.062-.02-.0851l-.0305-.0237-.4277-.2741c-.0505.2809-.072.345-.1682.345-.1874 0-.362-.0714-.511-.2344l-.0722-.0892.2518-.033.6882-.0847.0418-.0456-.071-.4248-.0505-.0292-.4744.0846.2722-.1935-.0039-.0418c-.0816-.0758-.1753-.1445-.2933-.218l-.1266-.0755-.0457-.0049Zm-1.8012-.0087-.038.0048c-.2332.3675-.5444.685-.9272.9395l-.1974.122.349.311c.0214.0215.0418.0302.0632.0302.0204 0 .0408-.0087.071-.0262l.0946-.0614.0939-.065-.0204.6513h.5793v-1.1208c.0979-.0979.1901-.1996.2779-.3038l.1284-.158-.0038-.0466-.4705-.277Zm-2.602-7.3683h-.972v1.4766h.972V8.9676Zm-5.7691 0h-.972v1.4766H7.9V8.9676Zm2.399-5.703c-1.1905 0-2.1686.9276-2.248 2.0974l-.0052.1539V5.79h4.5054V5.516c0-1.2413-1.01-2.2513-2.2522-2.2513Z"/>
</g></svg>