<svg xmlns="http://www.w3.org/2000/svg" data-laicon-version="5.0" viewBox="0 0 20 20" fill="black"><g transform="translate(-2 -2)">
  <path d="M21.07 8.1465v11.045c0 .634-.516 1.15-1.15 1.15H4.08c-.634 0-1.15-.516-1.15-1.15V8.1465h18.14Zm-10.571 3.626v4.701l4.071-2.35h-.001l-1.209-.699-2.861-1.652Zm9.4209-8.1319c.634 0 1.15.517 1.15 1.15v2.356h-1.478l-3.506-3.506ZM4.2365 3.6405l.65.651.651.65 2.205 2.205h-4.813v-2.355c0-.634.517-1.151 1.151-1.151h.156Zm5.2177-.0001.65.651.651.65 2.205 2.205h-3.804l-2.855-2.855-.651-.651h3.804Zm5.2177 0 .65.651.651.65 2.205 2.205h-3.804l-2.855-2.855-.651-.651h3.804Z"/>
</g></svg>