<svg xmlns="http://www.w3.org/2000/svg" data-laicon-version="15.4" viewBox="0 0 20 20" fill="black"><g transform="translate(-2 -2)">
  <path d="M3.35 8A4.65 4.65 0 0 1 8 3.35h8A4.65 4.65 0 0 1 20.65 8v8A4.65 4.65 0 0 1 16 20.65H8A4.65 4.65 0 0 1 3.35 16V8Zm12.715 2.281-1 1-.002 4.183a.5.5 0 0 0 1 0l.002-5.183ZM8.436 8.16a.504.504 0 0 0-.462.31.495.495 0 0 0 .109.544l3.918 3.917 3.917-3.918a.495.495 0 0 0 .11-.544.503.503 0 0 0-.654-.27.517.517 0 0 0-.164.108l-3.209 3.21-3.21-3.21a.517.517 0 0 0-.355-.147Zm.002 7.805a.5.5 0 0 0 .5-.5v-4.183l-1.002-1 .002 5.183a.5.5 0 0 0 .5.5Z"/>
</g></svg>