<svg xmlns="http://www.w3.org/2000/svg" data-laicon-version="5.0" viewBox="0 0 20 20" fill="black"><g transform="translate(-2 -2)">
  <path d="M7.4353 5.2586c2.504-1.69 5.853-1.928 8.64-.318 2.787 1.609 4.255 4.627 4.044 7.639 1.703 1.984 2.252 3.755 1.538 4.993-.557.962-1.691 1.372-3.137 1.372-.607 0-1.27-.074-1.967-.209-1.352.911-2.944 1.411-4.567 1.411-1.382 0-2.781-.352-4.061-1.091-2.789-1.611-4.256-4.63-4.043-7.645-.077-.089-.159-.176-.231-.265-1.522-1.87-1.986-3.547-1.307-4.723.714-1.237 2.525-1.649 5.091-1.164Zm-1.336 1.13c-1.34-.106-2.312.133-2.63.684a.9048.9048 0 0 0-.104.273c-.134.572.158 1.396.823 2.357.148.213.308.43.491.655.01.011.018.023.028.035.149.18.329.383.524.592.732.788 1.804 1.759 3.327 2.8.094.065.192.127.287.192.172.114.341.227.525.342.304.193.619.385.955.58.333.192.653.366.968.532 2.061 1.087 3.739 1.641 4.967 1.923.281.063.545.119.777.157l.044.006c.283.046.551.079.804.1.221.018.434.031.631.031.466 0 .856-.058 1.179-.158.007-.002.014-.003.021-.005.079-.025.148-.056.218-.087.08-.035.155-.074.223-.116.042-.027.085-.053.122-.084.103-.081.191-.171.252-.275.317-.551.037-1.511-.723-2.619-.178.604-.422 1.2-.751 1.769-.116.202-.252.382-.382.57-.223.004-.48-.006-.77-.033-.23-.023-.48-.056-.751-.103-1.545-.267-3.718-.966-6.329-2.474-2.612-1.507-4.304-3.041-5.308-4.244-.175-.211-.329-.41-.464-.598-.172-.244-.312-.464-.42-.663.095-.204.195-.407.309-.605.329-.569.723-1.077 1.157-1.534Z"/>
</g></svg>