<svg xmlns="http://www.w3.org/2000/svg" data-laicon-version="5.0" viewBox="0 0 20 20" fill="black"><g transform="translate(-2 -2)">
  <path d="M20.7261 3.327c-.182-.182-.51-.398-1.044-.398-.794 0-1.833.506-2.586 1.259l-2.666 2.666-8.851-2.371c-.379-.102-.811.01-1.095.296l-.785.784a.6513.6513 0 0 0-.186.541c.025.2.141.375.314.478l6.632 3.937c-.627.808-2.03 2.585-3.08 3.683l-2.409-1.066c-.414-.162-.902-.058-1.214.256l-.583.583a.6514.6514 0 0 0-.189.512c.015.19.113.363.267.475l3.414 2.47 2.427 3.369c.112.155.285.253.476.267.017.002.034.003.052.003.171 0 .337-.068.46-.191l.581-.582c.315-.316.419-.785.251-1.232l-1.061-2.39c1.1-1.051 2.874-2.453 3.684-3.081l3.936 6.633a.65.65 0 0 0 .479.313c.2.031.399-.043.54-.186l.786-.786c.284-.285.397-.702.295-1.092l-2.371-8.852 2.666-2.667c1.079-1.08 1.715-2.776.86-3.631"/>
</g></svg>