<svg xmlns="http://www.w3.org/2000/svg" data-laicon-version="5.0" viewBox="0 0 20 20" fill="black"><g transform="translate(-2 -2)">
  <path d="M12.6506 2.875v2.369h5.019c2.049 0 3.717 1.668 3.717 3.718v8.907c0 1.782-1.438 3.242-3.207 3.256h-.048c-1.566 0-2.491-.592-3.385-1.163-.811-.518-1.577-1.006-2.747-1.006s-1.935.488-2.745 1.006c-.906.578-1.883 1.152-3.433 1.163-1.769-.014-3.208-1.473-3.208-3.253V8.957c0-2.047 1.668-3.713 3.718-3.713h5.018V2.875h1.301Zm2.832 10.504c-.248-.122-.547-.027-.673.22-.492.972-1.596 1.6-2.811 1.6-1.212 0-2.316-.628-2.81-1.599-.124-.246-.427-.344-.672-.219-.246.125-.345.426-.219.672.662 1.304 2.116 2.146 3.701 2.146 1.588 0 3.041-.842 3.704-2.147a.5011.5011 0 0 0-.22-.673Zm-5.782-4.847h-1v1.306h-1.307v1h1.307v1.307h1v-1.307h1.305v-1h-1.305V8.532Zm5.178.071c-.957 0-1.735.778-1.735 1.735 0 .957.778 1.736 1.735 1.736.957 0 1.737-.779 1.737-1.736s-.78-1.735-1.737-1.735Zm.0006 1c.406 0 .736.33.736.735 0 .406-.33.736-.736.736-.406 0-.736-.33-.736-.736 0-.405.33-.735.736-.735Z"/>
</g></svg>