<svg xmlns="http://www.w3.org/2000/svg" data-laicon-version="5.0" viewBox="0 0 20 20" fill="black"><g transform="translate(-2 -2)">
  <path d="M20.74 5.6682c.313-.313.313-.819 0-1.131-.312-.313-.818-.313-1.131 0l-7.992 7.994-2.362-2.361a.7985.7985 0 0 0-1.131 0c-.312.312-.312.818 0 1.131l3.493 3.494 6.893-6.896c.768 1.222 1.19 2.646 1.19 4.101 0 4.246-3.454 7.7-7.7 7.7s-7.7-3.454-7.7-7.7 3.454-7.7 7.7-7.7c1.354 0 2.686.356 3.851 1.03.381.222.871.091 1.092-.292.222-.382.091-.872-.292-1.093-1.408-.814-3.016-1.245-4.651-1.245-5.128 0-9.3 4.172-9.3 9.3 0 5.128 4.172 9.3 9.3 9.3 5.128 0 9.3-4.172 9.3-9.3 0-1.878-.577-3.719-1.633-5.259l1.073-1.073Z"/>
</g></svg>