<svg xmlns="http://www.w3.org/2000/svg" data-laicon-version="18.14" viewBox="0 0 20 20" fill="black"><g transform="translate(-2 -2)">
  <path d="M12.007 2.72c2.49 0 4.865.504 7.026 1.416.788.332 1.251 1.11 1.251 1.925v6.026a8.256 8.256 0 0 1-2.424 5.852c-1.32 1.321-3.212 2.361-4.971 3.178-.56.26-1.205.26-1.764 0-1.759-.817-3.65-1.857-4.97-3.178a8.252 8.252 0 0 1-2.426-5.852V6.06c0-.815.464-1.593 1.251-1.925a18.028 18.028 0 0 1 7.027-1.416Zm.352 5.3a.404.404 0 0 0-.718 0l-.846 1.66-1.839.292a.403.403 0 0 0-.223.682l1.318 1.318-.291 1.84a.403.403 0 0 0 .58.421l1.66-.845 1.66.845a.403.403 0 0 0 .581-.421l-.29-1.84 1.316-1.318a.403.403 0 0 0-.222-.682l-1.84-.291-.846-1.66Z"/>
</g></svg>