<svg xmlns="http://www.w3.org/2000/svg" data-laicon-version="5.0" viewBox="0 0 20 20" fill="black"><g transform="translate(-2 -2)">
  <path d="M6.414 15.2383v4.861h-1.6v-4.861h1.6Zm4.54-2.901v7.762h-1.6v-7.762h1.6Zm4.54.825v6.937h-1.6v-6.937h1.6Zm4.54-3.74v10.677h-1.6V9.4223h1.6Zm.1599-5.2363c.284.339.24.843-.098 1.128l-6.859 5.753-2.672-3.184-5.631 4.726a.805.805 0 0 1-.515.187.799.799 0 0 1-.613-.285c-.283-.339-.24-.844.098-1.128l6.859-5.754 2.672 3.185 5.631-4.727c.338-.282.844-.24 1.128.099Z"/>
</g></svg>