<svg xmlns="http://www.w3.org/2000/svg" data-laicon-version="5.0" viewBox="0 0 20 20" fill="black"><g transform="translate(-2 -2)">
  <path d="M10.1962 3.0993c2.6914-.684 4.4269 1.0723 4.8208 1.7117 3.9354-.6634 5.0323 2.7334 4.9577 3.9486-.1215 1.4288.243 1.7114 1.0207 2.6572 2.0026 2.4954.5305 5.4074-.2944 6.3021-1.0018 1.2661-3.5004 3.0827-8.426 3.3197-4.952.1674-8.5786-2.157-9.7274-4.4369-1.4057-2.5801.3661-4.9935.5516-5.2342l.0154-.0197c.3318-3.6497 3.1344-4.2881 3.8046-4.383.2324-1.1529.875-3.0673 3.277-3.8655Zm2.9567 5.6293a.676.676 0 1 0 0 1.352.676.676 0 0 0 0-1.352Zm2.2676 0a.676.676 0 1 0 0 1.352.676.676 0 0 0 0-1.352Z"/>
</g></svg>