<svg xmlns="http://www.w3.org/2000/svg" data-laicon-version="9.0" viewBox="0 0 20 20" fill="black"><g transform="translate(-2 -2)">
  <path d="M9.682 5.994A2.32 2.32 0 0 1 12 3.678a2.32 2.32 0 0 1 2.319 2.316v.281H9.681v-.28zm-1.15 5.07V9.545h1v1.52h-1zm5.935 0v-1.52h1v1.52h-1zm4.838-3.823a1.02 1.02 0 0 0-1.017-.966h-2.67v-.28a3.622 3.622 0 0 0-3.619-3.618 3.622 3.622 0 0 0-3.617 3.617v.281h-2.67c-.542 0-.989.424-1.018.966l-.692 13.347a.984.984 0 0 0 .98 1.034h14.035a.984.984 0 0 0 .981-1.034l-.692-13.347z"/>
</g></svg>