<svg xmlns="http://www.w3.org/2000/svg" data-laicon-version="5.0" viewBox="0 0 20 20" fill="black"><g transform="translate(-2 -2)">
  <path d="M11.9999 2c2.1616 0 4.1926.8412 5.7205 2.368 3.167 3.1671 3.167 8.5198 0 11.6878-2.3172 2.3153-5.2327 5.4276-5.2615 5.4583L12.0028 22l-.4552-.486c-.0298-.0306-2.951-3.143-5.2682-5.4582-3.167-3.168-3.167-8.5207 0-11.6877C7.8064 2.842 9.8374 2 12 2Zm0 4.8476c-1.4808 0-2.6946 1.0236-2.7983 2.6801-.0365.5983.1306 1.623.4437 2.3412.36.8278.9631 1.3387.9631 1.862 0 .6571-.9859 1.3086-2.0383 1.9558l-.5583.3422c1.5682 1.594 3.2141 3.3265 3.991 4.1475.775-.821 2.419-2.5534 3.9852-4.1465-1.232-.7606-2.5976-1.526-2.5976-2.299 0-.5233.603-1.0342.9632-1.862.313-.7183.481-1.743.4436-2.3412C14.6945 7.8712 13.4797 6.8476 12 6.8476Z"/>
</g></svg>