<svg xmlns="http://www.w3.org/2000/svg" data-laicon-version="13.0" viewBox="0 0 20 20" fill="black"><g transform="translate(-2 -2)">
  <path d="M10.878 2.676a2.215 2.215 0 0 1 2.237 0l6.32 3.688.006.004c.192.116.362.256.508.414l-3.216 1.869-4.328-2.526-.004-.002a.814.814 0 0 0-.81 0L7.264 8.649 4.052 6.776c.148-.16.322-.302.516-.413l6.31-3.687Z"/>
  <path d="M3.548 7.64a2.313 2.313 0 0 0-.098.67v7.379c0 .797.418 1.542 1.108 1.946l6.32 3.689c.69.404 1.547.404 2.237 0l6.319-3.689a2.262 2.262 0 0 0 1.116-1.946V8.304a2.29 2.29 0 0 0-.097-.658l-2.891 1.68-2.299 1.343v3.28a.827.827 0 0 1-.41.711l-2.452 1.428a.815.815 0 0 1-.81 0l-.003-.002L9.14 14.66a.819.819 0 0 1-.41-.711v-3.277l-1.65-.976a.5.5 0 0 1-.12-.067l-3.411-1.99Z"/>
  <path d="M11.996 7.044 8.247 9.232l1.235.721a.5.5 0 0 1 .248.432v3.462l2.266 1.32 2.267-1.32v-3.462a.5.5 0 0 1 .146-.353l.007-.007a.5.5 0 0 1 .102-.079l1.225-.715-3.747-2.187Z"/>
</g></svg>