<svg xmlns="http://www.w3.org/2000/svg" data-laicon-version="5.0" viewBox="0 0 20 20" fill="black"><g transform="translate(-2 -2)">
  <path d="M11.5298 2.9808c.28-.202.658-.205.938-.001l.91.656-1.361.991-.015-.011-7.327 5.329v9.627h14.65v-9.672l-6.199-4.473 1.362-.99 6.105 4.405c.209.15.332.392.332.648v10.382c0 .717-.583 1.3-1.3 1.3h-15.25c-.717 0-1.3-.583-1.3-1.3V9.5368c0-.256.122-.496.33-.647ZM9.1162 14.9502c.434 0 .785.352.785.786 0 .434-.351.785-.785.785a.7846.7846 0 0 1-.786-.785c0-.434.351-.786.786-.786Zm5.9443.1357a.65.65 0 0 1 .65.65c0 .36-.291.651-.65.651h-3.47c-.359 0-.65-.291-.65-.651a.65.65 0 0 1 .65-.65Zm-5.9443-3.1777c.434 0 .785.352.785.785 0 .435-.351.786-.785.786a.7848.7848 0 0 1-.786-.786c0-.433.351-.785.786-.785Zm5.9442.1352c.359 0 .651.291.651.65 0 .359-.292.65-.651.65h-3.47a.65.65 0 1 1 0-1.3Z"/>
</g></svg>