<svg xmlns="http://www.w3.org/2000/svg" data-laicon-version="5.0" viewBox="0 0 20 20" fill="black"><g transform="translate(-2 -2)">
  <path d="M18.577 3.318c.634 0 1.151.516 1.151 1.15v14.785l-2.066 1.429-1.416-.98-1.415.98-1.416-.98-1.415.98-1.415-.98-1.416.98-1.415-.98-1.416.98-2.066-1.429V4.468c0-.634.517-1.15 1.151-1.15ZM12.92 13.59H8.201v1h4.719v-1Zm2.948 0h-1.769v1h1.769v-1Zm-2.948-2.654H8.201v1h4.719v-1Zm2.949 0H14.1v1h1.769v-1ZM12.92 8.282H8.201v1h4.719v-1Zm2.948 0h-1.769v1h1.769v-1Z"/>
</g></svg>