<svg xmlns="http://www.w3.org/2000/svg" data-laicon-version="5.0" viewBox="0 0 20 20" fill="black"><g transform="translate(-2 -2)">
  <path d="M16.462 4.188v2.421h1V4.188h2.905c.542 0 .983.442.983.985v13.656c0 .542-.441.983-.983.983H3.633c-.542 0-.983-.441-.983-.983V5.173c0-.543.441-.985.983-.985h12.829Zm1 11.977h-1v2.33h1v-2.33Zm0-3.954h-1v2.331h1v-2.331Zm-4.647-2.44c-.556-.555-1.458-.555-2.014 0l-1.224 1.224-1.224-1.224c-.556-.555-1.458-.555-2.014 0-.269.27-.418.628-.417 1.008 0 .381.148.738.417 1.006.269.269.627.418 1.007.418h1.023L6.762 13.81l.707.707 2.108-2.107 2.108 2.107.707-.707-1.607-1.607h1.023c.38 0 .738-.149 1.007-.418.269-.269.417-.626.417-1.007 0-.38-.148-.737-.417-1.007Zm-5.4688.5832c.109 0 .217.042.3.124l.724.725h-1.024a.4176.4176 0 0 1-.3-.126.4175.4175 0 0 1-.124-.298c0-.113.044-.221.124-.301a.4275.4275 0 0 1 .3-.124Zm4.1622.1236c.165-.164.435-.164.599 0 .081.08.125.187.125.3 0 .113-.044.22-.125.3a.4184.4184 0 0 1-.299.125h-1.025ZM17.462 8.245h-1v2.33h1v-2.33Z"/>
</g></svg>