<svg xmlns="http://www.w3.org/2000/svg" data-laicon-version="5.0" viewBox="0 0 20 20" fill="black"><g transform="translate(-2 -2)">
  <path d="M12 2.7505c5.101 0 9.25 4.149 9.25 9.25 0 3.38-1.829 6.335-4.544 7.949h3.667v1.301H12c-5.101 0-9.25-4.15-9.25-9.25 0-5.101 4.149-9.25 9.25-9.25Zm0 11.354c-.621 0-1.125.504-1.125 1.125s.504 1.125 1.125 1.125 1.125-.504 1.125-1.125-.504-1.125-1.125-1.125Zm-3.229-3.229c-.622 0-1.125.503-1.125 1.125 0 .621.503 1.125 1.125 1.125.621 0 1.125-.504 1.125-1.125 0-.622-.504-1.125-1.125-1.125Zm6.458 0c-.621 0-1.125.503-1.125 1.125 0 .621.504 1.125 1.125 1.125.622 0 1.125-.504 1.125-1.125 0-.622-.503-1.125-1.125-1.125ZM12 7.6455c-.621 0-1.125.504-1.125 1.125s.504 1.125 1.125 1.125 1.125-.504 1.125-1.125-.504-1.125-1.125-1.125Z"/>
</g></svg>