<svg xmlns="http://www.w3.org/2000/svg" data-laicon-version="5.0" viewBox="0 0 20 20" fill="black"><g transform="translate(-2 -2)">
  <path d="M5.9472 12.811 15.2432 22H7.3899c-.4646 0-.698-.2002-.8866-.3946l-3.863-3.875-.0438-.044c-.3656-.357-.5143-.9893 0-1.5135l.0149-.015.1191-.1194.0484-.0486.19-.1905.2568-.2577.2085-.2092.6515-.6537.3128-.3138.1675-.168.3574-.3587 1.0239-1.0272ZM22 8.7202v7.8535c0 .413-.1582.6433-.3299.8219l-.1087.1086-.0529.0527-.1603.1598-.1045.1042-.2507.2499-3.0495 3.04-.2131.2124-.044.044c-.357.3655-.9893.5142-1.5135 0l-.0336-.0336-.1008-.1005-.0486-.0484-.1905-.1899-.3586-.3574-.2241-.2234-.1233-.1229-.269-.268-2.0133-2.0068L22 8.7202ZM7.827 2.5628l.0934.0931.2802.2792.0784.0782.1793.1787.325.324.254.2531 2.1516 2.1445L2 15.2097V7.3562c0-.413.1582-.6433.3299-.8218l.1087-.1087.0529-.0527.1603-.1597.1045-.1042.2507-.25L4.354 4.5163l.3655-.3643.9817-.9786.2506-.25.1046-.1041.2131-.2125.044-.0439c.357-.3656.9893-.5143 1.5135 0ZM16.6073 2c.4646 0 .698.2002.8866.3946l3.863 3.875.0438.044c.3656.357.5143.9893 0 1.5135l-.015.015-.119.1194-.0485.0486-.1898.1905-.257.2577-.2084.2092-.6516.6537-.3127.3138-.1675.168-.3575.3587-1.0238 1.0272L8.7537 2h7.8535Z"/>
</g></svg>