<svg xmlns="http://www.w3.org/2000/svg" data-laicon-version="11.1" viewBox="0 0 20 20" fill="black"><g transform="translate(-2 -2)">
  <path d="M4.65 4A2.65 2.65 0 0 0 2 6.65v9.469A3.87 3.87 0 0 0 5.841 20a5.8 5.8 0 0 0 3.535-1.113l.6-.38.017-.012a3.46 3.46 0 0 1 2.008-.665 3.47 3.47 0 0 1 2.042.682l.017.013.303.195A6.08 6.08 0 0 0 18.168 20h.002A3.89 3.89 0 0 0 22 16.11V6.65A2.65 2.65 0 0 0 19.35 4H4.65Zm8 1.3v2h-1.3v-2h1.3Zm3.85 5.2a1 1 0 1 1 0-2 1 1 0 0 1 0 2Zm-2 2a1 1 0 1 1 0-2 1 1 0 0 1 0 2Zm2 2a1 1 0 1 1 0-2 1 1 0 0 1 0 2Zm3-3a1 1 0 1 1-2 0 1 1 0 0 1 2 0Zm-11.35-.65H10v1.3H8.15V14h-1.3v-1.85H5v-1.3h1.85V9h1.3v1.85Z"/>
</g></svg>