<svg xmlns="http://www.w3.org/2000/svg" data-laicon-version="16.8" viewBox="0 0 20 20" fill="black"><g transform="translate(-2 -2)">
  <path d="M18.988 5.505H13.84l1.562-1.562-.92-.919-1.832 1.833v4.945h7.732l-.004-2.888V6.91a1.423 1.423 0 0 0-.405-.986 1.392 1.392 0 0 0-.985-.42Zm1.395 5.597H12.65v8.477h6.349c.373 0 .729-.153.989-.418a1.42 1.42 0 0 0 .404-.99v-.003l-.009-7.066ZM11.35 19.58v-8.478H3.616l.014 7.069c.001.368.145.724.404.989s.613.417.986.42h6.33ZM3.614 9.802h7.736V4.857L9.518 3.024l-.92.92 1.562 1.56H4.998a1.392 1.392 0 0 0-.985.42 1.423 1.423 0 0 0-.405.986l.006 2.892Z"/>
</g></svg>