<svg xmlns="http://www.w3.org/2000/svg" data-laicon-version="5.0" viewBox="0 0 20 20" fill="black"><g transform="translate(-2 -2)">
  <path d="M20.1853 3.4942a.7.7 0 0 1 .7.7V16.813a.7.7 0 0 1-.7.7H5.8815l-2.7668 3.0014V4.1942a.7.7 0 0 1 .7-.7h16.3706ZM8.1805 9.5584c-.5716 0-1.035.4634-1.035 1.035 0 .5717.4634 1.035 1.035 1.035.5716 0 1.035-.4633 1.035-1.035 0-.5716-.4634-1.035-1.035-1.035Zm3.8295 0c-.5716 0-1.035.4634-1.035 1.035 0 .5717.4634 1.035 1.035 1.035.5716 0 1.035-.4633 1.035-1.035 0-.5716-.4634-1.035-1.035-1.035Zm3.8233 0c-.5716 0-1.035.4634-1.035 1.035 0 .5717.4634 1.035 1.035 1.035.5716 0 1.035-.4633 1.035-1.035 0-.5716-.4634-1.035-1.035-1.035Z"/>
</g></svg>