<svg xmlns="http://www.w3.org/2000/svg" data-laicon-version="5.0" viewBox="0 0 20 20" fill="black"><g transform="translate(-2 -2)">
  <path d="m20.3735 2-.613 7.39h2.344l-1.386 8.218L11.1445 22v-2.914l-5.735.85-3.514-10.793h2.657l-1.105-4.155L20.3735 2Zm-14.289 9.566c-.045-.002-.082.036-.079.078l.035.842c.002.039.035.07.074.071l.968.02c.016 0 .03.014.03.03l-.011 2.639c0 .044.038.078.082.074l.903-.062c.04-.003.07-.035.07-.074l-.016-2.568c0-.015.013-.029.029-.029l.89.01c.04-.001.072-.032.074-.071l.022-.801a.0741.0741 0 0 0-.073-.079Zm4.932.078c-1.143 0-1.818.76-1.818 1.799 0 1.111.779 1.796 1.835 1.762.974-.031 1.719-.738 1.719-1.809 0-.987-.765-1.752-1.736-1.752Zm3.591.096c-1.01 0-1.615.669-1.615 1.654 0 .942.738 1.637 1.654 1.6.87-.035 1.551-.695 1.551-1.65 0-.952-.696-1.604-1.59-1.604Zm1.942.07c-.041 0-.075.033-.074.073l-.032 2.814c.001.042.038.075.081.072l.768-.035c.04-.003.07-.035.069-.073l.003-1.245c-.001-.028.037-.04.054-.017l.858 1.238a.079.079 0 0 0 .068.031l.652-.021a.072.072 0 0 0 .067-.066l.108-2.65c.003-.042-.032-.079-.076-.079l-.712-.006c-.041 0-.073.03-.075.068l-.015 1.358c-.001.029-.04.038-.055.015l-.94-1.418a.0786.0786 0 0 0-.064-.033Zm-5.5332.7855c.449.005.761.305.763.815.003.508-.301.84-.751.858-.45.017-.773-.304-.774-.837-.001-.533.314-.841.762-.836Zm3.6044.0173c.429 0 .69.283.69.746 0 .449-.269.757-.675.775-.406.018-.699-.28-.704-.755-.005-.474.273-.766.689-.766Zm2.8658-4.1118c-.004-.816-.658-.999-1.27-.958-.499.029-1.136.073-1.634.104-.055.003-.099.044-.099.092-.007 1.103-.014 2.204-.022 3.306 0 .048.044.088.098.089.529.014 1.017.028 1.547.041.685.008 1.403-.134 1.446-.993.024-.45-.156-.687-.472-.825-.011-.004-.016-.014-.016-.025a.0274.0274 0 0 1 .013-.026c.26-.193.411-.498.409-.805Zm-3.41-.816c-.743.048-1.487.097-2.229.147a.095.095 0 0 0-.087.092c-.009 1.013-.016 2.028-.025 3.043a.086.086 0 0 0 .085.087c.744.021 1.488.043 2.233.063.052.001.096-.035.096-.084.002-.246.003-.381.005-.658 0-.055-.043-.1-.095-.101-.583-.006-.865-.01-1.412-.016a.0238.0238 0 0 1-.022-.026l.001-.2434V9.856c.001-.013.011-.024.024-.024.473-.002.728-.003 1.228-.004.052 0 .095-.046.095-.102l.005-.685c0-.057-.042-.102-.094-.1l-.435.0156c-.2587.0093-.4773.017-.792.0284-.013 0-.023-.01-.023-.024.001-.137.001-.204.002-.338 0-.014.011-.025.024-.025.547-.028.828-.041 1.411-.07.052-.002.096-.049.096-.103.001-.279.002-.413.004-.659 0-.048-.043-.083-.095-.081Zm-2.626.18c-.277.019-.465.029-.731.047-.037.002-.07.031-.079.069-.145.6-.288 1.136-.431 1.737-.003.016-.016.121-.019.121-.004 0-.017-.105-.021-.12-.134-.581-.27-1.097-.408-1.677-.009-.036-.039-.06-.074-.058-.275.02-.437.03-.701.049-.033.002-.063.029-.071.068-.135.564-.27 1.064-.408 1.627-.004.015-.014.12-.018.12-.004-.001-.015-.105-.018-.12-.118-.544-.237-1.023-.348-1.569-.008-.037-.036-.061-.067-.059-.229.016-.485.028-.705.043-.041.002-.082.035-.064.113.203.879.445 1.755.645 2.635.009.036.035.062.066.062.278.008.539.009.832.017.031.001.06-.024.07-.06.126-.492.268-.918.396-1.409.004-.015.016-.086.02-.086.003 0 .015.071.018.085.123.499.257.934.381 1.432.009.037.039.062.074.063.31.009.522.014.848.023.036 0 .069-.024.078-.059.278-.996.539-1.995.815-2.99a.0798.0798 0 0 0-.014-.075.0751.0751 0 0 0-.066-.029Zm4.6091 1.9397c.259 0 .386.084.386.291 0 .121-.045.282-.389.277-.243-.004-.366-.006-.604-.009a.0263.0263 0 0 1-.026-.028c.001-.191.001-.297.003-.498 0-.015.012-.028.026-.028.0595 0 .1118-.0002.1606-.0006l.28-.0032Zm-.0497-1.4446c.324-.014.363.12.363.255 0 .184-.124.286-.369.294a231.284 231.284 0 0 0-.1467.0048l-.2518.008-.1445.0042c-.015.001-.026-.012-.026-.027.001-.193.002-.302.003-.486 0-.015.011-.027.026-.028.215-.01.326-.015.546-.025Z"/>
</g></svg>