<svg xmlns="http://www.w3.org/2000/svg" data-laicon-version="13.0" viewBox="0 0 20 20" fill="black"><g transform="translate(-2 -2)">
  <path d="M19.882 3.632H6.124v2h12.758v8.71a5.058 5.058 0 0 1-5.061 5.062h-3.642a5.058 5.058 0 0 1-5.061-5.062V3.65h-2v10.692a7.058 7.058 0 0 0 7.061 7.062h3.642a7.058 7.058 0 0 0 7.061-7.062v-9.71a1 1 0 0 0-1-1Z"/>
  <path d="m11.997 10.4-1.085-1.88H9.656v.825l1.042 1.805H9.634v1.5h1.612v.528H9.634v1.5h1.612v.936h1.5v-.936h1.62v-1.5h-1.62v-.528h1.62v-1.5h-1.07l1.04-1.796v-.833h-1.25l-1.09 1.881V10.4Z"/>
</g></svg>