<svg xmlns="http://www.w3.org/2000/svg" data-laicon-version="5.0" viewBox="0 0 20 20" fill="black"><g transform="translate(-2 -2)">
  <path d="M21.4504 12.8348v6.248c0 .639-.521 1.159-1.159 1.159H3.7094c-.639 0-1.16-.52-1.16-1.159v-6.248l.651.149.65.148 6.33 1.442v.921c0 .277.224.5.5.5h2.639c.276 0 .5-.223.5-.5v-.921l6.33-1.442.65-.148.651-.149Zm-8.6304.5202v1.64h-1.639v-1.64h1.639Zm1.826-9.597c.639 0 1.16.52 1.16 1.159v.945h4.485c.639 0 1.159.521 1.159 1.159v4.789l-.65.148-.651.148-6.33 1.443v-.694c0-.276-.223-.5-.5-.5h-2.638c-.277 0-.5.224-.5.5v.694l-6.33-1.443-.651-.148-.65-.148V7.021c0-.638.52-1.159 1.159-1.159h4.485v-.945c0-.639.521-1.159 1.16-1.159Zm-.141 1.301h-5.01v.804h5.01v-.804Z"/>
</g></svg>