<svg xmlns="http://www.w3.org/2000/svg" data-laicon-version="16.12" viewBox="0 0 20 20" fill="black"><g transform="translate(-2 -2)">
  <path d="M12 5.9c-1.1 0-2 .9-2 2s.9 2 2 2 2-.9 2-2-.9-2-2-2Zm5.3-.1c-.1 0-.3 0-.4-.1-1.3-1.1-3.1-1.8-4.9-1.8-1.8 0-3.6.6-4.9 1.8-.3.2-.6.2-.9-.1-.2-.3-.2-.6.1-.9 1.5-1.3 3.6-2 5.7-2s4.2.7 5.7 2c.3.3.3.6.1.9-.2.1-.3.2-.5.2ZM6.6 18.5c-.1 0-.3 0-.4-.1-2-1.7-3.1-4.1-3.1-6.8V11c0-.3.3-.6.6-.6s.6.3.6.6v.6c0 2.3 1 4.4 2.7 5.8.3.2.3.6.1.9-.2.1-.3.2-.5.2Zm10.8 0c-.2 0-.3-.1-.5-.2-.2-.3-.2-.6.1-.9 1.7-1.4 2.7-3.5 2.7-5.8V11c0-.3.3-.6.6-.6s.6.3.6.6v.6c0 2.7-1.1 5.1-3.1 6.8-.1.1-.3.1-.4.1Z"/>
  <path d="M20.9 7.7c.3-.2.4-.6.2-.8-.2-.3-.6-.4-.8-.2l-6.1 4.1c-1.3.9-2.9.9-4.2 0L3.8 6.7c-.2-.2-.6-.1-.8.2-.2.2-.1.6.2.8l6.1 4.1c.2.1.3.2.5.3l-1.1 8.5c0 .2 0 .4.1.5.1.1.3.2.5.2h5.5c.2 0 .3-.1.5-.2.1-.1.2-.3.1-.5l-1-8.5.6-.3 5.9-4.1Z"/>
</g></svg>