<svg xmlns="http://www.w3.org/2000/svg" data-laicon-version="17.4" viewBox="0 0 20 20" fill="black"><g transform="translate(-2 -2)">
  <path d="M11.457 2.6a9.399 9.399 0 0 0-9.4 9.4 9.4 9.4 0 0 0 9.4 9.4h9.4V12c0-5.192-4.207-9.4-9.4-9.4Zm-.792 13.945L6.79 12.54a1.024 1.024 0 0 1-.155-1.222l1.43-2.498c.183-.318.523-.516.889-.516h5.059c.368 0 .705.195.888.516l1.43 2.498c.227.397.164.895-.154 1.223l-1.826 1.898a1.025 1.025 0 0 1-1.471-1.427l1.29-1.347-.753-1.314H9.546l-.753 1.314 3.34 3.453a1.025 1.025 0 0 1-.734 1.739h.003c-.268 0-.536-.104-.737-.312Z"/>
</g></svg>