<svg xmlns="http://www.w3.org/2000/svg" data-laicon-version="16.5" viewBox="0 0 20 20" fill="black"><g transform="translate(-2 -2)">
  <path d="M2.1 12a4.966 4.966 0 0 1 4.967-4.967h9.866A4.966 4.966 0 0 1 21.9 12v4.967H7.067A4.966 4.966 0 0 1 2.1 12Zm4.35 2.468h2.69a.749.749 0 1 0 0-1.499H7.199v-2.686a.749.749 0 1 0-1.499 0v3.436c0 .414.337.75.75.75Zm7.457-4.793a.747.747 0 0 0-1.045.173L11.75 11.4l-1.112-1.552a.749.749 0 0 0-1.217.871l1.409 1.964-.43.599a.747.747 0 0 0 .607 1.184.75.75 0 0 0 .61-.312l2.464-3.436a.747.747 0 0 0-.173-1.045l-.001.002Zm3.192-.142h-1.76a.75.75 0 0 0-.75.75v3.436a.75.75 0 0 0 1.5 0v-2.687h1.01a.433.433 0 0 1 0 .865.75.75 0 0 0 0 1.499 1.931 1.931 0 0 0 0-3.86v-.003Z"/>
</g></svg>