<svg xmlns="http://www.w3.org/2000/svg" data-laicon-version="15.4" viewBox="0 0 20 20" fill="black"><g transform="translate(-2 -2)">
  <path d="M18.09 7.52c-.67-.37-1.42-.72-2.22-1.03l1.07-3.41c.08-.25.03-.51-.12-.72-.15-.21-.39-.33-.65-.33h-3.91c-.42 0-.79.27-.91.67l-.74 2.36c-2.6-.43-5.27-.43-5.57.62l-1.19 3.8v.06c-.2.96 1.28 2.01 4.37 3.14l-2.58 8.24c-.08.25-.03.51.12.72.15.21.4.33.65.33h3.91c.42 0 .79-.27.91-.67l2.25-7.18c1.16.22 2.39.39 3.42.39 1.2 0 2.11-.23 2.29-.89l.96-3.88c.06-.23.24-.94-2.06-2.22h.01Zm-5.84-4.55h3.72l-1 3.19c-.61-.21-1.23-.4-1.86-.56-.49-.14-1.02-.27-1.57-.38l.71-2.25ZM4.8 9.79s.05-.03.08-.04c.04-.01.07-.03.12-.04.06-.02.14-.03.22-.04.06 0 .13-.02.2-.03.1-.01.22-.02.33-.02.09 0 .18 0 .28-.01h.44c.12 0 .23 0 .35.01.17 0 .36.03.55.04.14.01.27.02.42.04.21.02.45.06.68.09.16.02.31.04.47.07.03 0 .07.01.11.02l-.59 1.88c-2.47-.91-3.5-1.67-3.69-1.98 0 0 .03.01.03 0Zm5.51 11.23H6.59l3.42-10.95c.1.02.18.03.28.06 1 .22 1.99.48 2.97.79.07.02.13.04.2.07l-3.14 10.03h-.01Zm3.45-7.82.6-1.91c.05.02.11.04.16.06.33.12.63.24.91.36.04.02.09.04.13.05 1.62.69 2.5 1.31 2.67 1.62-.3.19-1.66.33-4.47-.18Z"/>
</g></svg>