<svg xmlns="http://www.w3.org/2000/svg" data-laicon-version="15.0" viewBox="0 0 20 20" fill="black"><g transform="translate(-2 -2)">
  <path d="M6.461 4.84v14.3197h13.254V4.84H6.4609Zm-1.5-.2494c0-.6912.5606-1.2506 1.251-1.2506h13.752c.6903 0 1.251.5594 1.251 1.2506V19.409c0 .6912-.5607 1.2506-1.251 1.2506H6.212c-.6905 0-1.251-.5595-1.251-1.2506V4.5906Z"/>
  <path d="M11.5216 9.1174a.7228.7228 0 0 1 .0009.036v.2342l-.0985.1306a1.2832 1.2832 0 0 0-.03.1079 1.1576 1.1576 0 0 0-.0248.1406c-.0027.026-.0027.04-.0027.044.0107.0685.0256.1117.0362.1364a.1704.1704 0 0 0 .02.0361l.0172.01.1712.0995.0937.1744c.2203.4098.3747.6675.5121.8864.132.1472.2106.3147.2581.444.0625.1701.0992.3517.1147.5221.0153.168.0127.3564-.0247.5368-.0306.1478-.1159.4463-.3932.6408l-.0036.0026-2.3879 1.6527-.0081.0053c-.1196.0779-.2816.2126-.4056.3581-.061.0715-.1003.1312-.1219.174a.2923.2923 0 0 0-.0112.0248v.2146h7.7089v-.2172a.2791.2791 0 0 0-.012-.0274c-.0212-.043-.0597-.1025-.1191-.1734-.1211-.1446-.2792-.2775-.3958-.3535l-.0081-.0053-2.3917-1.6553c-.2727-.1913-.3622-.4821-.3957-.634-.04-.1807-.0447-.3687-.032-.5352.0128-.169.046-.3478.1025-.5146.0436-.1286.1174-.2992.2454-.45.139-.2211.2948-.4803.5183-.8963l.0936-.1741.1709-.0995.0224-.0128.0085-.0048.0026-.0016c-.0011.0007-.0005.0006.0018-.002a.143.143 0 0 0 .0205-.035c.0098-.0216.0238-.0603.0339-.1223a.4025.4025 0 0 0-.003-.0342 1.0711 1.0711 0 0 0-.0276-.1367 1.2648 1.2648 0 0 0-.0369-.118l-.1044-.1387v-.234c0-.0138.0004-.026.0009-.036-.0102-.9021-.7862-1.612-1.5436-1.612-.7685 0-1.5617.7209-1.5722 1.612Zm-1.3967-.1238c.0777-1.613 1.4724-2.8881 2.9689-2.8881 1.5054 0 2.8612 1.2824 2.9401 2.8827.0045.0113.0083.0213.0115.0296.0309.0805.0609.1735.0864.2702.0438.1665.1029.449.0639.7169-.0565.3853-.2027.6758-.3847.8854a1.4108 1.4108 0 0 1-.2086.1963 15.0561 15.0561 0 0 1-.5166.8779l-.0465.0735-.0212.0201-.0016.0046a.7319.7319 0 0 0-.0325.1715.6222.6222 0 0 0-.0017.0294l2.2064 1.5271c.2226.1464.4827.3672.6959.6216.1942.2319.4578.6188.4578 1.0786v1.6384H7.8335v-1.6384c0-.465.272-.8538.4675-1.0831.216-.2535.4781-.4726.6979-.6171l2.1983-1.5215a.6466.6466 0 0 0-.0017-.0228c-.0061-.0669-.0201-.1267-.0347-.1663-.0001-.0002.0001.0002 0 0l-.0328-.029-.0548-.0866c-.1451-.2291-.3033-.4883-.5191-.8825a1.3891 1.3891 0 0 1-.2083-.204c-.174-.21-.3106-.496-.3657-.8724-.0373-.2565.0114-.531.0509-.6996a2.6136 2.6136 0 0 1 .0939-.3124Zm-.0006.2074-.0001-.0017.0001.0017Zm-7.4441 5.4971H6.361v1.5H2.6802v-1.5Zm0-6.7861H6.361v1.5H2.6802v-1.5Z"/>
</g></svg>