<svg xmlns="http://www.w3.org/2000/svg" data-laicon-version="15.0" viewBox="0 0 20 20" fill="black"><g transform="translate(-2 -2)">
  <path d="M14.3063 9.7694c0-.6488.526-1.1748 1.1748-1.1748s1.1748.526 1.1748 1.1748-.526 1.1748-1.1748 1.1748-1.1748-.526-1.1748-1.1748Zm-2.0705-.1855 3.6378 5.6715H8.5981l3.6377-5.6715Z"/>
  <path d="M6.0498 4.85v14.3H19.274V4.85H6.0498Zm-1.5-.25c0-.6903.5597-1.25 1.25-1.25H19.524c.6903 0 1.25.5597 1.25 1.25v14.8c0 .6903-.5597 1.25-1.25 1.25H5.7998c-.6905 0-1.25-.5598-1.25-1.25V4.6Z"/>
  <path d="M2.4512 14.7043h2.8484v1.5H2.4512v-1.5Zm0-6.7882h2.8484v1.5H2.4512v-1.5Z"/>
</g></svg>