<svg xmlns="http://www.w3.org/2000/svg" data-laicon-version="15.0" viewBox="0 0 20 20" fill="black"><g transform="translate(-2 -2)">
  <path d="M11.25 21.8335v-10.667h1.5v10.667h-1.5Z"/>
  <path d="M11.9999 9.4411c.9525 0 1.725.7725 1.725 1.7249 0 .9534-.7724 1.726-1.725 1.726-.9525 0-1.725-.7726-1.725-1.726 0-.9524.7726-1.7249 1.725-1.7249Z"/>
  <path d="M14.2 16.1181v-1.7104c1.0361-.7047 1.7165-1.8933 1.7165-3.2412 0-2.1629-1.7533-3.917-3.917-3.917-2.1626 0-3.916 1.754-3.916 3.917 0 1.3481.6805 2.5367 1.7165 3.2414v1.7104c-1.8952-.8433-3.2165-2.743-3.2165-4.9518 0-2.991 2.4246-5.417 5.416-5.417 2.9923 0 5.417 2.426 5.417 5.417 0 2.2087-1.3212 4.1082-3.2165 4.9516Z"/>
  <path d="M14.2 19.6376v-1.561c2.9284-.9316 5.05-3.6733 5.05-6.9101 0-4.0038-3.2462-7.25-7.25-7.25s-7.25 3.2462-7.25 7.25c0 3.2368 2.1216 5.9785 5.05 6.9101v1.561c-3.7674-.9758-6.55-4.3987-6.55-8.4711 0-4.8322 3.9178-8.75 8.75-8.75s8.75 3.9178 8.75 8.75c0 4.0724-2.7826 7.4953-6.55 8.4711Z"/>
</g></svg>