<svg xmlns="http://www.w3.org/2000/svg" data-laicon-version="15.0" viewBox="0 0 20 20" fill="black"><g transform="translate(-2 -2)">
  <path d="m11.394 11.6359 7.8305-7.8293 1.0606 1.0608-7.8306 7.8293-1.0605-1.0608Z"/>
  <path d="M19.3577 4.722h-4.4378v-1.5h5.9378v5.926h-1.5V4.722ZM4.75 6.2533V19.008c0 .1142.0403.1772.0873.2196a.3356.3356 0 0 0 .2153.0832h12.5511c.159 0 .2507-.0521.2951-.0923.0474-.0429.0531-.0797.0531-.0923v-7.9591h1.5v7.9591c0 .966-.8416 1.6846-1.8482 1.6846H5.0526c-.8482 0-1.8026-.6493-1.8026-1.8028V6.2136c0-.494.2865-.9017.5555-1.1498.2781-.2565.695-.4906 1.1698-.4906h7.9551v1.5H4.9792a.1774.1774 0 0 0-.0408.0142.4567.4567 0 0 0-.116.079.3877.3877 0 0 0-.0724.0869Zm-.0073.0146.0007-.0017-.0007.0017Z"/>
</g></svg>