<svg xmlns="http://www.w3.org/2000/svg" data-laicon-version="15.0" viewBox="0 0 20 20" fill="black"><g transform="translate(-2 -2)">
  <path d="M16.9998 18.2001c-.3-.8-.8-1.3-1.3-1.7.1-.2.2-.3.3-.5.5-.2.9-.8.9-1.7v-.1c0-.7 0-1.5-.5-2-.1-.1-.2-.2-.3-.2-.7-1.7-2.2-2.7-4.1-2.7-1.9 0-3.4 1-4.1 2.7-.1.1-.2.1-.3.2-.6.5-.6 1.4-.6 2.1v.1c0 .8.4 1.4 1 1.6.1.1.2.3.3.5-.5.3-1 .9-1.3 1.7-.3.6-.3 2.4-.3 3 0 .4.3.7.8.7h9.1c.4 0 .7-.3.8-.7-.1-.6-.1-2.4-.4-3Zm-4.2 2.2h-1.5v-.3h1.5v.3Zm1.4 0v-1.1c0-.4-.3-.8-.8-.8h-3c-.4 0-.8.3-.8.8v1.1h-1.4c0-.7.1-1.5.2-1.7.4-1 1.4-1.4 1.4-1.4.3-.1.5-.4.5-.7 0-.3-.2-.6-.5-.7-.2-.1-.5-.5-.6-.8-.1-.3-.3-.4-.6-.5 0 0-.1-.1-.1-.3v-.1c0-.2 0-.7.1-.9.3-.1.5-.2.6-.5.2-.8.9-2.1 2.8-2.1s2.6 1.3 2.8 2.1c.1.3.3.5.6.5.1.2.1.7.1.9v.1c0 .2 0 .2-.1.3-.3 0-.5.2-.6.5-.1.3-.4.7-.6.8-.3.1-.5.4-.5.7 0 .3.2.6.5.7 0 0 1 .3 1.4 1.4.1.2.1.9.2 1.7h-1.6Z"/>
  <path d="M5.7001 14.3c0-.4 0-.9.1-1.4h-2.2c0-.7.1-1.3.1-1.5.4-.9 1.3-1.2 1.3-1.3.4-.1.6-.4.6-.7 0-.3-.2-.6-.5-.7-.2-.1-.4-.4-.5-.7-.1-.3-.4-.5-.6-.5V6.4c.3-.1.5-.2.5-.5.2-.7.9-1.9 2.6-1.9 1.7 0 2.4 1.2 2.6 1.9.1.3.3.4.5.5v1.1c-.3 0-.5.2-.6.5.1.2-.1.5-.3.6.8-.4 1.6-.6 2.4-.6.1-.2.1-.4.1-.7v-.1c0-.6 0-1.4-.5-1.9-.1-.1-.2-.2-.3-.2-.6-1.7-2-2.7-3.9-2.7s-3.2 1-3.9 2.6c-.1.1-.2.1-.3.2-.5.5-.5 1.3-.5 2v.1c0 .8.4 1.4.9 1.6.1.1.2.2.3.4-.4.3-.9.8-1.2 1.6-.2.6-.3 2.2-.3 2.8 0 .4.3.7.8.7h2.8v-.1Zm15.9-3.5c-.3-.7-.8-1.2-1.2-1.6.1-.1.2-.3.3-.4.5-.2.9-.8.9-1.6 0-.6 0-1.4-.5-1.9-.1-.2-.2-.2-.3-.3-.7-1.6-2.1-2.6-3.9-2.6-1.8 0-3.3 1-4 2.6-.1.1-.2.1-.3.2-.5.5-.5 1.3-.5 1.9v.1c0 .3.1.5.1.7.9 0 1.7.2 2.4.6-.2-.1-.3-.4-.4-.6-.1-.2-.3-.4-.6-.5v-1c.3-.1.5-.2.5-.5.2-.7.9-1.9 2.6-1.9 1.8 0 2.4 1.2 2.6 1.9.1.3.3.4.5.5v1.1c-.3 0-.5.2-.6.5-.1.3-.4.7-.5.7-.3.1-.5.4-.5.7 0 .3.2.6.5.7 0 0 .9.3 1.3 1.3.1.2.1.8.1 1.5h-2.2c.1.5.1 1 .1 1.4v.1h2.8c.4 0 .7-.3.8-.7.3-.7.3-2.3 0-2.9Z"/>
</g></svg>