<svg xmlns="http://www.w3.org/2000/svg" data-laicon-version="15.0" viewBox="0 0 20 20" fill="black"><g transform="translate(-2 -2)">
  <path d="M12.1 14.4001c-2.8 0-5.1-2.1-5.1-4.8 0-2.7 2.3-4.8 5.1-4.8s5.1 2.2 5.1 4.8c0 2.6-2.3 4.8-5.1 4.8Zm0-8.1c-2 0-3.6 1.5-3.6 3.3 0 1.8 1.6 3.3 3.6 3.3s3.6-1.5 3.6-3.3c0-1.8-1.6-3.3-3.6-3.3Z"/>
  <path d="M19.9 21.2H4.3c-.4 0-.8-.3-.8-.8 0-2.2.1-4 1.7-4.9.1-.5.3-.9.7-1.2-.2-.3-.4-.8-.5-1.3-1.2-.4-1.4-1.9-1.4-3 0-1.4.2-2.2.7-2.7.2-.2.4-.3.7-.4.8-2.9 3.3-4.5 6.7-4.5 3.5 0 5.9 1.6 6.7 4.5.3.1.5.2.7.4.5.5.7 1.4.7 2.7 0 1.1-.2 2.5-1.4 3-.1.4-.3.9-.6 1.4.4.3.6.7.7 1.2 1.9 1 1.8 3.1 1.7 4.9.1.4-.3.7-.7.7ZM5 19.7h14.2c0-1.7-.2-2.6-1.2-2.9-.3-.1-.5-.4-.5-.8 0-.3-.2-.6-.5-.6s-.6-.3-.7-.6c-.1-.3.1-.7.4-.8.2-.1.6-1 .7-1.7.1-.3.3-.6.6-.6.2 0 .6-.1.6-1.7 0-1.4-.3-1.7-.3-1.7-.4.1-.8-.2-.9-.6v-.1c-.5-2.5-2.3-3.8-5.3-3.8-3.8 0-5 2.1-5.4 3.8-.1.5-.5.8-.8.8-.1 0-.4.3-.4 1.7 0 1.6.4 1.6.6 1.7.3 0 .6.3.6.6.1.7.4 1.3.9 1.8.3.2.4.5.3.8-.1.3-.4.5-.7.5-.3 0-.5.2-.5.5s-.1.7-.5.8c-.8.3-1.1 1-1.2 2.9Z"/>
  <path d="M16.7998 20.4h-1.5v-1.3c0-.1-.1-.2-.2-.2h-6.1c-.1 0-.2.1-.2.2v1.3h-1.6v-1.3c0-1 .8-1.8 1.8-1.8h6c1 0 1.8.8 1.8 1.8v1.3Zm-2.763-12.851-1.1891.9145.9754 1.2683 1.189-.9144-.9753-1.2683Z"/>
</g></svg>