<svg xmlns="http://www.w3.org/2000/svg" data-laicon-version="16.11" viewBox="0 0 20 20" fill="black"><g transform="translate(-2 -2)">
  <path d="M5.25 12a6.75 6.75 0 1 1 13.34 1.467c-.074.334-.245.817-.532 1.197-.275.366-.61.586-1.058.586a.75.75 0 0 1-.75-.75V9a.75.75 0 0 0-1.469-.214 4.25 4.25 0 1 0 .066 6.37A2.251 2.251 0 0 0 17 16.75c1.053 0 1.79-.564 2.256-1.183.456-.605.695-1.307.799-1.776A8.25 8.25 0 1 0 12 20.25a.75.75 0 0 0 0-1.5A6.75 6.75 0 0 1 5.25 12Zm9.5 0a2.75 2.75 0 1 1-5.5 0 2.75 2.75 0 0 1 5.5 0Z"/>
</g></svg>