<svg xmlns="http://www.w3.org/2000/svg" data-laicon-version="15.0" viewBox="0 0 20 20" fill="black"><g transform="translate(-2 -2)">
  <path d="m16.0477 13.352-2.9737 8.0445a.7501.7501 0 0 1-1.4083-.0036L8.792 13.4937l1.4097-.5128 2.1745 5.9773 2.2645-6.1263 1.407.5201Z"/>
  <path d="M14.6593 6.9204a8.8926 8.8926 0 0 0-.5201-1.5904c.9307-.7758 2.1487-1.1741 3.5403-.9134 1.4217.2664 2.4054 1.2324 2.9225 2.413.5117 1.1684.5868 2.5772.2121 3.8684-.7578 2.6114-3.3967 4.1153-5.5778 3.5249-.6671-.1806-1.2436-.5433-1.7094-1.026.3079-.4286.5693-.9031.7776-1.4126.3467.5071.8122.8522 1.3237.9907 1.2972.3511 3.1872-.5716 3.7453-2.495.2833-.9763.2163-2.0226-.1455-2.8486-.3566-.814-.9781-1.3818-1.8247-1.5404-1.0909-.2044-2.0629.2063-2.744 1.0294Z"/>
  <path d="M4.967 5.7887c-.4755 1.1013-.5585 2.4886-.1845 3.7816.7406 2.5599 3.2357 3.8149 4.9826 3.3409 1.6975-.4606 2.9861-2.6624 2.4566-5.2858-.5308-2.6297-2.4876-4.3482-4.8118-3.9134-1.1412.2134-1.9727.9873-2.443 2.0767Zm-1.3772-.5945C4.2176 3.7398 5.41 2.56 7.134 2.2375c3.4061-.6371 5.9267 1.9637 6.558 5.0912.6325 3.1337-.8389 6.2988-3.5342 7.0301-2.6459.718-5.8809-1.1382-6.8163-4.3717-.464-1.6037-.3746-3.3503.2482-4.7929Z"/>
  <path d="M5.643 5.927c.689-1.312 1.732-1.5662 2.2482-1.6525l.2306 1.381c-.31.0517-.8409.1637-1.2393.9224-.234.4458-.2686 1.0975-.1525 1.695l-1.3743.267c-.1493-.7683-.1502-1.7797.2873-2.6128Z"/>
</g></svg>