<svg xmlns="http://www.w3.org/2000/svg" data-laicon-version="15.0" viewBox="0 0 20 20" fill="black"><g transform="translate(-2 -2)">
  <path d="M8.246 17.2249C9.5367 18.449 11.2806 19.2 13.1999 19.2c3.9764 0 7.2-3.2235 7.2-7.2s-3.2236-7.2-7.2-7.2c-1.9193 0-3.6633.751-4.954 1.975L7.1144 5.6435C8.6948 4.1298 10.8387 3.2 13.1999 3.2c4.8601 0 8.8 3.9398 8.8 8.8 0 4.8601-3.9399 8.7999-8.8 8.7999-2.3612 0-4.5051-.9298-6.0856-2.4433l1.1317-1.1317Z"/>
  <path d="M13.2 11.3999a.6.6 0 1 0 0 1.2.6.6 0 0 0 0-1.2Zm-2.2.6c0-1.215.985-2.2 2.2-2.2 1.2151 0 2.2.985 2.2 2.2 0 1.215-.9849 2.2-2.2 2.2-1.215 0-2.2-.985-2.2-2.2ZM9.3999 10.3h-5.5V8.7h5.5v1.6ZM7.5 12.8H2v-1.6h5.5v1.6Z"/>
  <path d="m13.6079 10.5367 2.8501-2.625 1.0839 1.1768-2.85 2.625-1.084-1.1768ZM9.3999 15.3h-5.5v-1.6h5.5v1.6Z"/>
</g></svg>