<svg xmlns="http://www.w3.org/2000/svg" data-laicon-version="15.0" viewBox="0 0 20 20" fill="black"><g transform="translate(-2 -2)">
  <path d="M17.9999 5.65h-15.31v-1.5H18v1.5Zm-8.01 12.092h-7.3v-1.5h7.3v1.5Zm-7.3-6.046h11v-1.5h-11v1.5Zm9.73 5.404a2.7509 2.7509 0 0 1 1.3137-2.3456 2.7508 2.7508 0 0 1 2.6863-.1044V9.147c0-1.056 1.303-1.553 2.007-.767l2.802 3.132-1.118 1-2.191-2.449V17.1a2.7502 2.7502 0 0 1-2.75 2.75 2.75 2.75 0 0 1-2.75-2.75Zm2.75-1.25a1.2499 1.2499 0 0 0 0 2.5 1.25 1.25 0 1 0 0-2.5Z"/>
</g></svg>