<svg xmlns="http://www.w3.org/2000/svg" data-laicon-version="15.0" viewBox="0 0 20 20" fill="black"><g transform="translate(-2 -2)">
  <path d="M12 4.25c-4.2802 0-7.75 3.4698-7.75 7.75s3.4698 7.75 7.75 7.75 7.75-3.4698 7.75-7.75S16.2802 4.25 12 4.25ZM2.75 12c0-5.1086 4.1414-9.25 9.25-9.25s9.25 4.1414 9.25 9.25-4.1414 9.25-9.25 9.25S2.75 17.1086 2.75 12Z"/>
  <path d="M6.9484 7.2916a.75.75 0 0 1 1.0529.1284c.2946.3764.5575.7795.7844 1.2056a.75.75 0 0 1-1.324.705 6.7417 6.7417 0 0 0-.6416-.9861.75.75 0 0 1 .1283-1.0529Zm1.8754 3.4213a.75.75 0 0 1 .8464.6392 8.3477 8.3477 0 0 1 .0753 1.4355.75.75 0 0 1-1.4992-.0507 6.8417 6.8417 0 0 0-.0617-1.1776.75.75 0 0 1 .6393-.8464Zm-.0868 3.9022a.75.75 0 0 1 .4138.9766 8.2397 8.2397 0 0 1-.6541 1.281.75.75 0 1 1-1.2714-.796 6.7417 6.7417 0 0 0 .535-1.0478.7499.7499 0 0 1 .9767-.4138Zm8.2502-7.2552a.75.75 0 0 1 .1415 1.0512 6.7464 6.7464 0 0 0-.5503.8456.75.75 0 1 1-1.315-.7216 8.246 8.246 0 0 1 .6726-1.0338.75.75 0 0 1 1.0512-.1414Zm-1.8323 3.4443a.75.75 0 0 1 .6496.8384 6.856 6.856 0 0 0-.0529 1.0101.75.75 0 1 1-1.4997.0322 8.37 8.37 0 0 1 .0645-1.231.7501.7501 0 0 1 .8385-.6497Zm.1353 3.9007a.75.75 0 0 1 .9817.4016c.1307.3117.2843.6119.4588.8985a.7501.7501 0 0 1-1.2812.7801 8.2408 8.2408 0 0 1-.5609-1.0984.7501.7501 0 0 1 .4016-.9818Z"/>
</g></svg>