<svg xmlns="http://www.w3.org/2000/svg" data-laicon-version="15.0" viewBox="0 0 20 20" fill="black"><g transform="translate(-2 -2)">
  <path d="M12 5.7501c-3.7278 0-6.75 3.0221-6.75 6.75v4.0164a5.65 5.65 0 0 1-.9488 3.134l-.177.2656a.75.75 0 0 1-1.0401.208.75.75 0 0 1-.208-1.04l.177-.2656a4.15 4.15 0 0 0 .697-2.302v-4.0164c0-4.5563 3.6936-8.25 8.2499-8.25a.75.75 0 0 1 .75.75.75.75 0 0 1-.75.75Zm7.5 6a.75.75 0 0 1 .75.75v4.0164a5.6494 5.6494 0 0 1-.9489 3.134l-.177.2656a.75.75 0 0 1-1.0401.208.75.75 0 0 1-.208-1.04l.1771-.2656a4.1505 4.1505 0 0 0 .6969-2.302v-4.0164a.75.75 0 0 1 .75-.75Z"/>
  <path d="M6.75 12.5002a.75.75 0 0 1 .75-.75h9a.75.75 0 0 1 .75.75v2.5c0 2.8995-2.3506 5.25-5.2501 5.25-2.8994 0-5.2499-2.3505-5.2499-5.25v-2.5Zm1.5.75v1.75c0 2.0711 1.679 3.75 3.7499 3.75 2.0711 0 3.7501-1.6789 3.7501-3.75v-1.75h-7.5ZM16.5322 3.5725a.3333.3333 0 0 0-.6644 0l-.0133.1597a1.6667 1.6667 0 0 1-1.5225 1.5225l-.1597.0133a.3333.3333 0 0 0 0 .6644l.1597.0133a1.6667 1.6667 0 0 1 1.5225 1.5225l.0133.1597a.3333.3333 0 0 0 .6644 0l.0133-.1597a1.6667 1.6667 0 0 1 1.5225-1.5225l.1597-.0133a.3333.3333 0 0 0 0-.6644l-.1597-.0133a1.6667 1.6667 0 0 1-1.5225-1.5225l-.0133-.1597Zm2.9167 3.907a.25.25 0 0 0-.4983 0l-.01.1197a1.25 1.25 0 0 1-1.1419 1.142l-.1197.0099a.25.25 0 0 0 0 .4983l.1197.01a1.25 1.25 0 0 1 1.1419 1.1419l.01.1198a.25.25 0 0 0 .4983 0l.0099-.1198a1.25 1.25 0 0 1 1.1419-1.142l.1198-.01a.25.25 0 0 0 0-.4982l-.1198-.01a1.25 1.25 0 0 1-1.1419-1.1418l-.0099-.1198Z"/>
</g></svg>