<svg xmlns="http://www.w3.org/2000/svg" data-laicon-version="15.0" viewBox="0 0 20 20" fill="black"><g transform="translate(-2 -2)">
  <path d="M18.9998 16.8h-1.7v-1.5h1.7c.1 0 .2001-.1.2001-.2V9.6c0-.1-.1001-.2-.2001-.2h-1.7V7.9h1.7c.9 0 1.7001.8 1.7001 1.7v5.5c0 .9-.8001 1.7-1.7001 1.7Z"/>
  <path d="M16.3999 21.3999h-9.3c-.9 0-1.7-.8-1.7-1.7v-6.5h1.6v6.5c0 .1.1.2.2.2h9.2c.1 0 .2-.1.2-.2v-12h1.4v12c0 .9-.7 1.7-1.6 1.7Z"/>
  <path d="M7.3999 13.7999c-2.8 0-4-2.1-4-4.2 0-1.2.7-2.4 1.8-2.9.5-2 2.1-3.5 4-3.9 1.9-.4 3.9.3 5.1 1.8.4-.1.9-.2 1.4-.1 1.7.2 2.3 1.8 2.3 3.2v.8h-4.1c-1.9 0-2.4 1.1-3 2.4-.5 1.3-1.2 2.9-3.5 2.9Zm2.9-9.7c-.3 0-.5 0-.8.1-1.5.3-2.7 1.6-2.9 3.1l-.1.5-.4.1c-.8.3-1.3 1-1.3 1.7 0 .4.1 2.7 2.5 2.7 1.3 0 1.6-.7 2.2-2 .7-1.4 1.5-3.3 4.4-3.3h2.5c-.1-.5-.4-1-1-1.1-.4-.1-1 .1-1.1.2l-.6.3-.4-.5c-.6-1.2-1.8-1.8-3-1.8ZM11 15.5H9.5v2.2H11v-2.2Z"/>
  <path d="M14 11.4h-1.5v6.4H14v-6.4Z"/>
</g></svg>