<svg xmlns="http://www.w3.org/2000/svg" data-laicon-version="16.13" viewBox="0 0 20 20" fill="black"><g transform="translate(-2 -2)">
  <path d="M19.95 5.699c0-2.41-2.662-3.868-4.692-2.57L12 5.21 8.742 3.129c-2.03-1.298-4.692.16-4.692 2.57v9.424a2.75 2.75 0 0 0 1.236 2.296l5.31 3.503a2.55 2.55 0 0 0 2.808 0l5.31-3.503a2.75 2.75 0 0 0 1.236-2.296V5.7Zm-3.884-1.306c1.031-.66 2.384.081 2.384 1.306v9.424c0 .42-.211.813-.562 1.044l-5.138 3.39V6.51l3.316-2.118ZM11.25 6.51v13.046l-5.138-3.39a1.25 1.25 0 0 1-.562-1.044V5.7c0-1.225 1.353-1.966 2.385-1.306L11.25 6.51Z"/>
</g></svg>