<svg xmlns="http://www.w3.org/2000/svg" data-laicon-version="16.9" viewBox="0 0 20 20" fill="black"><g transform="translate(-2 -2)">
  <path d="M18.021 6.718A6.974 6.974 0 0 0 5.025 10.24v4.588c0 1.141-.348 2.2-.945 3.076a.75.75 0 0 0 .62 1.172h.963L4.27 20.47l1.06 1.06 15.5-15.5-1.06-1.06-1.749 1.748ZM7.163 17.576h-1.2a6.953 6.953 0 0 0 .563-2.748V10.24a5.474 5.474 0 0 1 10.389-2.415l-9.752 9.751Zm11.812-7.336a7.14 7.14 0 0 0-.005-.25l-1.495 1.496v3.341c0 .976.2 1.905.562 2.75h-6.652l-1.5 1.5h1.365v2.013h1.5v-2.014h6.55a.75.75 0 0 0 .62-1.172 5.445 5.445 0 0 1-.945-3.076V10.24Z"/>
</g></svg>