<svg xmlns="http://www.w3.org/2000/svg" data-laicon-version="15.0" viewBox="0 0 20 20" fill="black"><g transform="translate(-2 -2)">
  <path d="M6.5388 11.6453c-1.6806 0-3.043 1.3624-3.043 3.043s1.3624 3.043 3.043 3.043 3.043-1.3624 3.043-3.043-1.3624-3.043-3.043-3.043Zm-4.5349 3.043c0-2.5045 2.0304-4.5349 4.535-4.5349 2.5045 0 4.5349 2.0304 4.5349 4.5349 0 2.5046-2.0304 4.5349-4.535 4.5349-2.5045 0-4.5349-2.0303-4.5349-4.5349Zm15.4573-3.043c-1.6806 0-3.043 1.3624-3.043 3.043s1.3624 3.043 3.043 3.043 3.043-1.3624 3.043-3.043-1.3624-3.043-3.043-3.043Zm-4.5349 3.043c0-2.5045 2.0303-4.5349 4.5349-4.5349 2.5046 0 4.5349 2.0304 4.5349 4.5349 0 2.5046-2.0303 4.5349-4.5349 4.5349-2.5046 0-4.5349-2.0303-4.5349-4.5349Z"/>
  <path d="M12.123 5.5227a.746.746 0 0 1 .7459-.746h1.778l3.5147 9.6565a.746.746 0 0 1-1.402.5103l-3.1574-8.6748h-.7333a.7459.7459 0 0 1-.7459-.746Z"/>
  <path d="M8.2352 7.846h6.8556a.746.746 0 0 1 0 1.492h-5.811l-2.0402 5.6054a.746.746 0 0 1-1.402-.5103l2.3976-6.587Z"/>
</g></svg>