<svg xmlns="http://www.w3.org/2000/svg" data-laicon-version="15.0" viewBox="0 0 20 20" fill="black"><g transform="translate(-2 -2)">
  <path d="M3.8701 4.6799c0-1.1322.9178-2.05 2.05-2.05h11.02c1.1322 0 2.05.9178 2.05 2.05v8.9199h-1.5v-8.92a.5498.5498 0 0 0-.55-.55h-11.02a.55.55 0 0 0-.55.55v13.79a.55.55 0 0 0 .55.55h5.73v1.5h-5.73c-1.1322 0-2.05-.9178-2.05-2.05v-13.79Z"/>
  <path d="M14.6292 8.809H8.2349v-1.5h6.3943v1.5Zm0 3.5189H8.2349v-1.5h6.3943v1.5ZM13.8486 16c.0945.057.2352.1214.4281.1837.493.159 1.2083.2663 2.0232.2663.8149 0 1.5302-.1073 2.0232-.2663.1929-.0623.3336-.1267.4281-.1837-.0945-.057-.2352-.1214-.4281-.1837-.493-.159-1.2083-.2663-2.0232-.2663-.8149 0-1.5302.1073-2.0232.2663-.1929.0623-.3336.1267-.4281.1837Zm.0904-1.2305c.629-.203 1.4637-.3195 2.3609-.3195s1.7318.1165 2.3609.3195c.3114.1004.6033.2318.829.4039.2173.1658.4601.4399.4601.8266s-.2428.6608-.4601.8266c-.2257.1721-.5176.3035-.829.4039-.6291.203-1.4637.3195-2.3609.3195s-1.7319-.1165-2.3609-.3195c-.3114-.1004-.6033-.2318-.829-.4039-.2173-.1658-.4601-.4399-.4601-.8266s.2428-.6608.4601-.8266c.2257-.1721.5176-.3035.829-.4039Z"/>
  <path d="M13.7499 19.5298a.475.475 0 0 0 .0271.0221c.0881.0672.2502.1513.4997.2318.493.159 1.2083.2663 2.0232.2663.8149 0 1.5302-.1073 2.0232-.2663.2495-.0805.4116-.1646.4996-.2318a.477.477 0 0 0 .0272-.0221V16h1.1v3.6c0 .3867-.2428.6608-.4601.8266-.2257.1721-.5176.3035-.829.404-.6291.2029-1.4637.3194-2.3609.3194s-1.7319-.1165-2.3609-.3194c-.3114-.1005-.6033-.2319-.829-.404-.2173-.1658-.4601-.4399-.4601-.8266V16h1.1v3.5298Zm5.1241-.0247a.0168.0168 0 0 1-.003.004.0168.0168 0 0 1 .003-.004Zm-5.1452.004a.0168.0168 0 0 1-.003-.004.0168.0168 0 0 1 .003.004Z"/>
  <path d="M14.2767 17.9837c.493.159 1.2083.2663 2.0232.2663.8149 0 1.5302-.1073 2.0232-.2663.2495-.0805.4116-.1646.4996-.2318a.3223.3223 0 0 0 .0483-.0428c-.0064.0102-.0211.04-.0211.0909h1.1c0 .3867-.2428.6608-.4601.8266-.2257.1721-.5176.3035-.829.4039-.6291.203-1.4637.3195-2.3609.3195s-1.7319-.1165-2.3609-.3195c-.3114-.1004-.6033-.2318-.829-.4039-.2173-.1658-.4601-.4399-.4601-.8266h1.1c0-.0509-.0147-.0807-.0211-.0909a.3324.3324 0 0 0 .0482.0428c.0881.0672.2502.1513.4997.2318Zm-.5509-.2786a.015.015 0 0 1 .003.004.0168.0168 0 0 1-.003-.004Zm5.1482 0a.0168.0168 0 0 1-.003.004.015.015 0 0 1 .003-.004Z"/>
</g></svg>