<svg xmlns="http://www.w3.org/2000/svg" data-laicon-version="17.5" viewBox="0 0 20 20" fill="black"><g transform="translate(-2 -2)">
  <path d="M3.75 4.68c0-.684.554-1.238 1.238-1.238h14.024c.684 0 1.238.554 1.238 1.237v13.936c0 .492-.292.938-.743 1.135l-1.387.605a1.238 1.238 0 0 1-.99 0l-1.38-.602-1.38.602a1.238 1.238 0 0 1-.99 0L12 19.753l-1.38.602a1.238 1.238 0 0 1-.99 0l-1.38-.602-1.38.602a1.238 1.238 0 0 1-.99 0l-1.387-.605a1.238 1.238 0 0 1-.743-1.135V4.68Zm1.5.262v13.502l1.125.49 1.38-.602c.316-.137.674-.137.99 0l1.38.603 1.38-.603c.316-.137.674-.137.99 0l1.38.603 1.38-.603c.316-.137.674-.137.99 0l1.38.603 1.125-.491V4.942H5.25Z"/>
  <path d="M15.4 9.75H8.6v-1.5h6.8v1.5Zm0 3.85-6.8-.002v-1.5l6.8.002v1.5Z"/>
</g></svg>