<svg xmlns="http://www.w3.org/2000/svg" data-laicon-version="15.0" viewBox="0 0 20 20" fill="black"><g transform="translate(-2 -2)">
  <path d="M9.9033 9.2472V7.6901h1.5v1.5571h-1.5Zm2.0493 0V7.6901h1.5v1.5571h-1.5ZM9.9033 16.46v-1.5511h1.5V16.46h-1.5Zm2.0493 0v-1.5511h1.5V16.46h-1.5Z"/>
  <path d="M9.19 8.4972h3.4954c1.196 0 2.1655.9695 2.1655 2.1654s-.9696 2.1655-2.1655 2.1655h-2.0319v-1.5h2.0319a.6656.6656 0 0 0 0-1.331H9.1899v-1.5Z"/>
  <path d="M10.6535 11.3281h2.5272c1.196 0 2.1655.9694 2.1655 2.1654s-.9697 2.1654-2.1655 2.1654H9.1899v-1.5h3.9908a.6655.6655 0 1 0 0-1.3308h-2.5272v-1.5Z"/>
  <path d="M9.9033 14.9089V9.2472h1.5v5.6617h-1.5Z"/>
  <path d="M11.9999 4.15c-4.3354 0-7.85 3.5146-7.85 7.85s3.5146 7.85 7.85 7.85 7.85-3.5146 7.85-7.85-3.5146-7.85-7.85-7.85ZM2.6499 12c0-5.1638 4.1861-9.35 9.35-9.35s9.35 4.1862 9.35 9.35c0 5.1639-4.1861 9.35-9.35 9.35s-9.35-4.1861-9.35-9.35Z"/>
</g></svg>