<svg xmlns="http://www.w3.org/2000/svg" data-laicon-version="15.0" viewBox="0 0 20 20" fill="black"><g transform="translate(-2 -2)">
  <path d="M9.5792 9.498h-4.4v-1.5h4.4v1.5Zm0 2.966h-4.4v-1.5h4.4v1.5Zm0 2.967h-4.4v-1.5h4.4v1.5Zm9.2148-5.933h-4.4v-1.5h4.4v1.5Zm0 2.966h-4.4v-1.5h4.4v1.5Zm0 2.967h-4.4v-1.5h4.4v1.5Z"/>
  <path d="M11.2491 6.849c0-1.4527 1.1397-2.68 2.607-2.68h6.082c.9723 0 1.712.8114 1.712 1.75v11.5208c0 .9381-.7382 1.75-1.712 1.75h-6.365c-.2892 0-.553.1014-.7597.2205a1.897 1.897 0 0 0-.232.1571 1.5544 1.5544 0 0 0-.05.0417.7476.7476 0 0 1-.5323.2217h-.001a.7502.7502 0 0 1-.7036-.4901.749.749 0 0 1-.0454-.2988V6.8489Zm1.5 10.9642a2.8574 2.8574 0 0 1 .824-.1234h6.365c.0902 0 .212-.084.212-.25V5.9188c0-.1654-.1223-.25-.212-.25h-6.082c-.5847 0-1.107.5007-1.107 1.18v10.9644Z"/>
  <path d="M4.067 5.669c-.0897 0-.212.0846-.212.25v11.5209c0 .1655.1223.25.212.25h6.361c.2792.0007.5568.0422.824.1234V6.919c0-.7181-.5531-1.25-1.174-1.25H4.067Zm7.935 13.4119v.0001c-.5266.5341-.5265.5342-.5263.5344l.0004.0004.0006.0006.0012.0011.0017.0017.0007.0007-.0083-.0076a1.2135 1.2135 0 0 0-.0536-.045 1.8817 1.8817 0 0 0-.2315-.157c-.2063-.1189-.4698-.2203-.7589-.2203H4.067c-.9723 0-1.712-.8114-1.712-1.75V5.919c0-.9385.7397-1.75 1.712-1.75h6.011c1.5031 0 2.674 1.2582 2.674 2.75v12.1619h-.75Z"/>
</g></svg>