<svg xmlns="http://www.w3.org/2000/svg" data-laicon-version="15.0" viewBox="0 0 20 20" fill="black"><g transform="translate(-2 -2)">
  <path d="M19.0999 4.4999c0-.8837-.7163-1.6-1.6-1.6h-11.25c-1.2979 0-2.35 1.0521-2.35 2.35V18.75c0 1.2978 1.0521 2.35 2.35 2.35h9.1062a4.6717 4.6717 0 0 1-1.2356-1.5H6.2499a.85.85 0 0 1 0-1.7h7.3706a4.7086 4.7086 0 0 1-.0206-.4401c0-.3646.042-.7195.1214-1.0599H6.2499c-.2996 0-.5863.0561-.85.1584V5.2499a.85.85 0 0 1 .85-.85h11.25a.1.1 0 0 1 .1.1v8.3551a4.6918 4.6918 0 0 1 .65-.0451c.2903 0 .5744.0266.85.0775V4.4999Z"/>
  <path d="M18.25 21.21c-2.0711 0-3.75-1.679-3.75-3.75 0-2.0711 1.6789-3.75 3.75-3.75S22 15.3889 22 17.46c0 2.071-1.6789 3.75-3.75 3.75Zm-.4227-4.394v2.8138h.9V16.816l1.0599 1.06.6364-.6364-2.1463-2.1464-2.1464 2.1464.6364.6364 1.06-1.06Z"/>
</g></svg>