<svg xmlns="http://www.w3.org/2000/svg" data-laicon-version="15.0" viewBox="0 0 20 20" fill="black"><g transform="translate(-2 -2)">
  <path d="M4.75 3.25h-1.5v17.5h1.5V3.25Zm4 0h-1.5v1.5h1.5v-1.5Zm4 0h-1.5v1.5h1.5v-1.5Zm4 0h-1.5v1.5h1.5v-1.5Zm4 0h-1.5v1.5h1.5v-1.5Zm-8 4h-1.5v1.5h1.5v-1.5Zm8 0h-1.5v1.5h1.5v-1.5Zm-12 3.9844h-1.5v1.5h1.5v-1.5Zm4 0h-1.5v1.5h1.5v-1.5Zm4 0h-1.5v1.5h1.5v-1.5Zm4 0h-1.5v1.5h1.5v-1.5Zm-8 4.0156h-1.5v1.5h1.5v-1.5Zm8 0h-1.5v1.5h1.5v-1.5Zm-12 4h-1.5v1.5h1.5v-1.5Zm4 0h-1.5v1.5h1.5v-1.5Zm4 0h-1.5v1.5h1.5v-1.5Zm4 0h-1.5v1.5h1.5v-1.5Z"/>
</g></svg>