<svg xmlns="http://www.w3.org/2000/svg" data-laicon-version="15.0" viewBox="0 0 20 20" fill="black"><g transform="translate(-2 -2)">
  <path d="M4.7422 3.25h-1.5v1.5h1.5v-1.5Zm4 0h-1.5v1.5h1.5v-1.5Zm4.0155 0h-1.5v8h-8v1.5h8v8h1.5v-8h8v-1.5h-8v-8Zm3.9845 0h-1.5v1.5h1.5v-1.5Zm4 0h-1.5v1.5h1.5v-1.5Zm-15.9844 4h-1.5v1.5h1.5v-1.5Zm15.9844 0h-1.5v1.5h1.5v-1.5Zm-15.9844 8h-1.5v1.5h1.5v-1.5Zm15.9844 0h-1.5v1.5h1.5v-1.5Zm-16 4h-1.5v1.5h1.5v-1.5Zm4 0h-1.5v1.5h1.5v-1.5Zm8 0h-1.5v1.5h1.5v-1.5Zm4 0h-1.5v1.5h1.5v-1.5Z"/>
</g></svg>