<svg xmlns="http://www.w3.org/2000/svg" data-laicon-version="15.0" viewBox="0 0 20 20" fill="black"><g transform="translate(-2 -2)">
  <path d="M4.75 3.25h-1.5v1.5h1.5v-1.5Zm4 0h-1.5v1.5h1.5v-1.5Zm4.0001 0H11.25v1.5h1.5001v-1.5Zm4 0H15.25v1.5h1.5001v-1.5Zm3.9999 0h-1.5v16h-16v1.5h17.5V3.25Zm-16 4h-1.5v1.5h1.5v-1.5Zm8.0001 0H11.25v1.5h1.5001v-1.5ZM4.75 11.2656h-1.5v1.5h1.5v-1.5Zm4 0h-1.5v1.5h1.5v-1.5Z"/>
  <path d="M12.7501 11.2656H11.25v1.5h1.5001v-1.5Zm4 0H15.25v1.5h1.5001v-1.5ZM4.75 15.25h-1.5v1.5h1.5v-1.5Zm8.0001 0H11.25v1.5h1.5001v-1.5Z"/>
</g></svg>