<svg xmlns="http://www.w3.org/2000/svg" data-laicon-version="15.0" viewBox="0 0 20 20" fill="black"><g transform="translate(-2 -2)">
  <path d="M4.75 3.25h-1.5v1.5h1.5v-1.5Zm4 0h-1.5v1.5h1.5v-1.5Zm3.9844 0h-1.5v1.5h1.5v-1.5Zm4.0156 0h-1.5v1.5h1.5v-1.5Zm4 0h-1.5v1.5h1.5v-1.5Zm-15.9844 4h-1.5v1.5h1.5v-1.5Zm7.9844 0h-1.5v1.5h1.5v-1.5Zm8 0h-1.5v1.5h1.5v-1.5Zm-16 4h-1.5v1.5h1.5v-1.5Zm4 0h-1.5v1.5h1.5v-1.5Zm3.9844 0h-1.5v1.5h1.5v-1.5Zm4.0156 0h-1.5v1.5h1.5v-1.5Zm4 0h-1.5v1.5h1.5v-1.5Zm-15.9844 4h-1.5v1.5h1.5v-1.5Zm7.9844 0h-1.5v1.5h1.5v-1.5Zm8 0h-1.5v1.5h1.5v-1.5Zm-16 4h-1.5v1.5h1.5v-1.5Zm4 0h-1.5v1.5h1.5v-1.5Zm3.9844 0h-1.5v1.5h1.5v-1.5Zm4.0156 0h-1.5v1.5h1.5v-1.5Zm4 0h-1.5v1.5h1.5v-1.5Z"/>
</g></svg>