<svg xmlns="http://www.w3.org/2000/svg" data-laicon-version="15.0" viewBox="0 0 20 20" fill="black"><g transform="translate(-2 -2)">
  <path d="M3.25 20.75h1.5v-16h16v-1.5H3.25v17.5Z"/>
  <path d="M11.25 8.75h1.5001v-1.5H11.25v1.5Zm-4 3.9844h1.5v-1.5h-1.5v1.5Zm4 0h1.5001v-1.5H11.25v1.5Zm5.5001 0v-1.5H15.25v1.5h1.5001Zm-4 4.0156v-1.5H11.25v1.5h1.5001Zm-5.5001 4h1.5v-1.5h-1.5v1.5Zm5.5001 0v-1.5H11.25v1.5h1.5001Zm2.4999 0h1.5001v-1.5H15.25v1.5Zm4 0h1.5v-1.5h-1.5v1.5Zm0-8.0156h1.5v-1.5h-1.5v1.5Zm0 2.5156v1.5h1.5v-1.5h-1.5Zm0-6.5h1.5v-1.5h-1.5v1.5Z"/>
</g></svg>