<svg xmlns="http://www.w3.org/2000/svg" data-laicon-version="15.0" viewBox="0 0 20 20" fill="black"><g transform="translate(-2 -2)">
  <path d="M6.6139 3.9664A1.7632 1.7632 0 0 1 7.8606 3.45h8.2784c.4677 0 .9161.186 1.2467.5165l3.2059 3.206a1.763 1.763 0 0 1 .5165 1.2466l.0007 10.3678c0 .9738-.7894 1.7632-1.7632 1.7632H4.6548c-.9738 0-1.7632-.7893-1.7632-1.7631V8.4191c0-.4676.1857-.916.5164-1.2468l3.2059-3.2059Zm1.2467.9836a.2632.2632 0 0 0-.186.077l-3.206 3.206a.2631.2631 0 0 0-.077.186v10.368c0 .1452.1178.2631.2632.2631h14.6908a.2632.2632 0 0 0 .2632-.2632l-.0007-10.3677a.2634.2634 0 0 0-.0771-.1861l-3.2059-3.206a.2633.2633 0 0 0-.1861-.077H7.8606Z"/>
  <path d="M20.3588 8.7493H3.6416v-1.5h16.7172v1.5Z"/>
</g></svg>