<svg xmlns="http://www.w3.org/2000/svg" data-laicon-version="15.0" viewBox="0 0 20 20" fill="black"><g transform="translate(-2 -2)">
  <path d="M11.1001 3.4c.5-.3 1.2-.3 1.8 0l3.1 1.8c.5.3.9.9.9 1.5v3.6c0 .6-.3 1.2-.9 1.5l-3.1 1.8c-.5.3-1.2.3-1.7 0l-3.2-1.8c-.5-.3-.9-.9-.9-1.5V6.7c0-.6.3-1.2.9-1.5l3.1-1.8Zm1 1.3h-.2l-2.5 1.4 2.6 1.5.1-.1 2.5-1.4-2.5-1.4Zm3.3 2.7-2.5 1.4c-.1 0-.1.1-.1.2v3l2.5-1.4c.1 0 .1-.1.1-.2v-3Zm-4.1 4.6V9l-2.7-1.6v2.9c0 .1 0 .2.1.2l2.6 1.5Z"/>
  <path d="M15.3002 10.5c.5-.3 1.2-.3 1.7 0l3.1 1.8c.5.3.9.9.9 1.5v3.6c0 .6-.3 1.2-.9 1.5l-3.1 1.9c-.5.3-1.2.3-1.8 0l-3.1-1.8c-.5-.3-.9-.9-.9-1.5v-3.6c0-.6.3-1.2.9-1.5l3.2-1.9Zm1 1.3h-.2l-2.5 1.4 2.6 1.5.1-.1 2.5-1.4-2.5-1.4Zm3.2 2.8-2.5 1.4c-.1 0-.1.1-.1.2v2.9l2.5-1.4c.1 0 .1-.1.1-.2v-2.9Zm-4.1 4.5v-3l-2.6-1.5v2.9c0 .1 0 .2.1.2l2.5 1.4Z"/>
  <path d="M7 10.5c.5-.3 1.2-.3 1.7 0l3.1 1.8c.5.3.9.9.9 1.5v3.6c0 .6-.3 1.2-.9 1.5l-3.1 1.8c-.5.3-1.2.3-1.8 0l-3-1.7c-.6-.3-.9-.9-.9-1.6v-3.6c0-.6.3-1.2.9-1.5L7 10.5Zm1 1.3h-.2l-2.5 1.4 2.6 1.5.1-.1 2.5-1.4L8 11.8Zm3.3 2.8L8.7 16c-.1 0-.1.1-.1.2v2.9l2.5-1.4c.1 0 .1-.1.1-.2v-2.9h.1Zm-4.2 4.5v-3l-2.6-1.5v2.9c0 .1 0 .2.1.2l2.5 1.4Z"/>
</g></svg>