<svg xmlns="http://www.w3.org/2000/svg" data-laicon-version="16.12" viewBox="0 0 20 20" fill="black"><g transform="translate(-2 -2)">
  <path d="M4.25 7A2.75 2.75 0 0 1 7 4.25h1v1.5H7c-.69 0-1.25.56-1.25 1.25v3.498c0 .577-.217 1.104-.575 1.502.358.399.575.925.575 1.502V17c0 .69.56 1.25 1.25 1.25h.5v1.5H7A2.75 2.75 0 0 1 4.25 17v-3.498a.75.75 0 0 0-.746-.75l-.508-.002v-1.5l.508-.002a.75.75 0 0 0 .746-.75V7Zm15.5 0A2.75 2.75 0 0 0 17 4.25h-1v1.5h1c.69 0 1.25.56 1.25 1.25v3.498c0 .577.218 1.104.575 1.502a2.242 2.242 0 0 0-.575 1.502V17c0 .69-.56 1.25-1.25 1.25h-.5v1.5h.5A2.75 2.75 0 0 0 19.75 17v-3.498a.75.75 0 0 1 .746-.75l.508-.002v-1.5l-.508-.002a.75.75 0 0 1-.746-.75V7Zm-8.5 3.2v7h1.5v-7h-1.5ZM12 7.1a1 1 0 1 0 0 2 1 1 0 0 0 0-2Z"/>
</g></svg>