<svg xmlns="http://www.w3.org/2000/svg" data-laicon-version="15.0" viewBox="0 0 20 20" fill="black"><g transform="translate(-2 -2)">
  <path d="M4.4032 5.7014a5.9465 5.9465 0 0 0-.0004.073v12.3553c0 .064.0009.1187.0026.1659.0612.0027.1338.0039.2212.0039l14.9667.0001a2.9732 2.9732 0 0 0 .0041-.1699V5.7745a4.24 4.24 0 0 0-.0006-.0742H4.6266c-.086 0-.159.0002-.2233.001Zm15.1781-.1902.0004.0014-.0004-.0014ZM4.6228 4.2003h15.0798c.3934 0 .8715.101 1.1638.5494.2284.3504.231.7789.231 1.0248v12.3552c0 .2596-.008.6751-.2036 1.0272-.1121.2018-.2811.3778-.5129.4947-.2211.1116-.4568.148-.6783.148l-15.076-.0001c-.2171 0-.4402-.0059-.64-.0405-.204-.0354-.4615-.1132-.6797-.3179-.2233-.2095-.3153-.4669-.3574-.6789-.04-.2016-.0467-.4237-.0467-.6325V5.7745c0-.2057.0061-.4286.049-.6285.0466-.2179.1532-.4858.4132-.6843.2346-.1791.498-.2245.6714-.2427.1775-.0187.3867-.0187.5864-.0187Z"/>
  <path d="M20.3474 10.15H3.6528v-1.5h16.6946v1.5ZM6.8799 6.51h-1.5v1.5h1.5v-1.5Zm2.2901 0h-1.5v1.5h1.5v-1.5Z"/>
</g></svg>