<svg xmlns="http://www.w3.org/2000/svg" data-laicon-version="16.17" viewBox="0 0 20 20" fill="black"><g transform="translate(-2 -2)">
  <path d="M5.38 6.51h1.5v1.5h-1.5v-1.5Zm2.29 0h1.5v1.5h-1.5v-1.5Z"/>
  <path d="M4.402 10.15v7.98c0 .064.001.118.003.166.061.002.134.003.221.003H14.75v1.5H4.626c-.217 0-.44-.005-.64-.04a1.292 1.292 0 0 1-.68-.318 1.238 1.238 0 0 1-.357-.679 3.32 3.32 0 0 1-.047-.633V5.774c0-.205.006-.428.05-.628.046-.218.152-.486.413-.684a1.31 1.31 0 0 1 .67-.243c.178-.019.388-.019.587-.019h15.08c.393 0 .872.101 1.164.55.228.35.231.778.231 1.024V13.5h-1.5v-3.35H4.402Zm0-4.376V8.65h15.195V5.7H4.626l-.224.001v.073Z"/>
  <path d="m21.843 15.53-1.751 1.752 1.751 1.751-1.06 1.06-1.752-1.75-1.75 1.75-1.061-1.06 1.75-1.751-1.75-1.751 1.06-1.06 1.751 1.75 1.752-1.751 1.06 1.06Z"/>
</g></svg>