<svg xmlns="http://www.w3.org/2000/svg" data-laicon-version="16.16" viewBox="0 0 20 20" fill="black"><g transform="translate(-2 -2)">
  <path d="M5.38 6.51h1.5v1.5h-1.5v-1.5Zm2.29 0h1.5v1.5h-1.5v-1.5Z"/>
  <path d="M4.403 10.15v7.98c0 .064 0 .118.002.166.062.002.134.003.222.003H15v1.5H4.627c-.217 0-.44-.005-.64-.04a1.293 1.293 0 0 1-.68-.318 1.237 1.237 0 0 1-.357-.679 3.319 3.319 0 0 1-.047-.632V5.774c0-.205.006-.428.049-.628.046-.218.153-.486.413-.684a1.31 1.31 0 0 1 .671-.243c.178-.019.387-.019.587-.019h15.08c.393 0 .871.101 1.163.55.229.35.232.779.232 1.024V13.5h-1.5v-3.35H4.402Zm0-4.376V8.65h15.195V5.774l-.001-.074H4.627l-.224.001v.073Z"/>
  <path d="m19.23 16.97.774.774 1.06-1.06-2.584-2.585-2.584 2.585 1.06 1.06.774-.773v2.749h1.5v-2.75Z"/>
</g></svg>