<svg xmlns="http://www.w3.org/2000/svg" data-laicon-version="15.0" viewBox="0 0 20 20" fill="black"><g transform="translate(-2 -2)">
  <path d="M5.0249 16.4203h14.6479v1.5H5.0249v-1.5Z"/>
  <path d="M12.4465 3.9559c-.6939-.0158-1.2649.5424-1.2649 1.2365v6.1963a.7501.7501 0 0 1-.3982.6624l-5.058 2.6861a.25.25 0 0 0-.1326.2208v2.2075c0 1.1272-.174 2.1584-.3718 2.9893l13.3073.0006a.1034.1034 0 0 0 .0658-.0212.0858.0858 0 0 0 .031-.0502l.0004-.0014c.1448-.6302.3784-1.8235.3784-2.917v-2.2053a.25.25 0 0 0-.1333-.2211l-4.8154-2.5412a.7498.7498 0 0 1-.4-.6633v-6.193c0-.7715-.5743-1.3478-1.1587-1.3847l-.05-.0011Zm6.0818 17.6995-14.1494-.0006c-.3815 0-.6206-.2122-.7294-.363a.7501.7501 0 0 1-.111-.6514c.2529-.8552.5543-2.0947.5543-3.4749V14.958c0-.6472.3573-1.2419.9291-1.5456l4.6597-2.4746V5.1924c0-1.5358 1.2634-2.7708 2.7986-2.7361l.0628.0014a.755.755 0 0 1 .0228.0008c1.4845.0784 2.5894 1.414 2.5894 2.8833v5.7407l4.4154 2.3301a1.75 1.75 0 0 1 .9333 1.5477v2.2053c0 1.2659-.2644 2.5912-.4166 3.253-.1674.7318-.8159 1.2368-1.559 1.2368Z"/>
</g></svg>