<svg xmlns="http://www.w3.org/2000/svg" data-laicon-version="15.0" viewBox="0 0 20 20" fill="black"><g transform="translate(-2 -2)">
  <path d="M15.5501 3.825a.0735.0735 0 0 0-.0699.046.072.072 0 0 0-.0051.029c0 .043.032.075.075.075h3.44c.457 0 .825.368.825.825a.8236.8236 0 0 1-.509.7627.8229.8229 0 0 1-.316.0622h-4.265v-.75h4.265a.0727.0727 0 0 0 .0698-.046.074.074 0 0 0 .0052-.029.0739.0739 0 0 0-.0214-.0536.073.073 0 0 0-.0536-.0213h-3.44a.823.823 0 0 1-.825-.825c0-.457.368-.825.825-.825h4.265v.75h-4.265Zm-11.365-.74H8.36a.823.823 0 0 1 .696 1.27.823.823 0 0 1-.696 1.27H4.185v-2.54Zm4.212 1.65a.8452.8452 0 0 1-.037 0v-.01H5.12v-.75h3.24a.8616.8616 0 0 1 .037.001.0731.0731 0 0 0 .038-.066.0731.0731 0 0 0-.075-.075H4.935v1.04H8.36a.0728.0728 0 0 0 .075-.075.0731.0731 0 0 0-.038-.066v.001Zm6.128-1.65h-5.09v.75h2.17v1.79h.75v-1.79h2.17v-.75Zm-1.544 7.358c.344.457.664.952.957 1.485 1.533-1.753 3.591-2.548 5.832-2.548v1.5c-1.973 0-3.686.726-4.926 2.305a6.6293 6.6293 0 0 0-.19.254c.84 2.082 1.326 4.6349 1.326 7.7009h-1.5c0-2.304-.288-4.2599-.785-5.9059-.592 1.5-.945 3.4449-.945 5.9059h-1.5c0-2.46-.353-4.4059-.945-5.9059-.497 1.646-.785 3.6019-.785 5.9059h-1.5c0-3.066.486-5.6189 1.327-7.6999a6.8862 6.8862 0 0 0-.19-.255c-1.24-1.58-2.954-2.305-4.927-2.305v-1.5c2.24 0 4.299.795 5.832 2.548.293-.533.613-1.028.957-1.485-1.915-2.005-4.394-2.873-6.789-2.873v-1.5c2.718 0 5.558.975 7.77 3.23 2.212-2.255 5.052-3.23 7.77-3.23v1.5c-2.395 0-4.874.868-6.789 2.873Zm-1.94 2.864h.001a11.067 11.067 0 0 1 .958 2.226c.258-.826.579-1.566.958-2.226-.288-.609-.61-1.162-.958-1.662-.349.5-.67 1.052-.959 1.662Z"/>
</g></svg>