<svg xmlns="http://www.w3.org/2000/svg" data-laicon-version="15.0" viewBox="0 0 20 20" fill="black"><g transform="translate(-2 -2)">
  <path d="M15 21.6499H9v-1.5h6v1.5ZM12.0501 4.25c-3.1478 0-5.7 2.5522-5.7 5.7 0 2.2428 1.2951 4.1849 3.1817 5.1154l.4183.2062V17.65h4.2v-2.3784l.4182-.2062c1.8867-.9305 3.1818-2.8726 3.1818-5.1154 0-3.1478-2.5522-5.7-5.7-5.7Zm-7.2 5.7c0-3.9762 3.2238-7.2 7.2-7.2s7.2 3.2238 7.2 7.2c0 2.6659-1.449 4.9929-3.6 6.2369V18.3c0 .4692-.3808.85-.85.85h-5.5a.8503.8503 0 0 1-.85-.85v-2.1131c-2.151-1.244-3.6-3.571-3.6-6.2369Z"/>
</g></svg>