<svg xmlns="http://www.w3.org/2000/svg" data-laicon-version="15.0" viewBox="0 0 20 20" fill="black"><g transform="translate(-2 -2)">
  <path d="M4.6968 5.3422V18.85h14.6065V5.3422H4.6968Zm-1.5-.1897c0-.7236.5865-1.3103 1.3103-1.3103H19.493c.7236 0 1.3103.5866 1.3103 1.3103v13.8873c0 .7237-.5867 1.3102-1.3103 1.3102H4.507c-.7234 0-1.3102-.5864-1.3102-1.3102V5.1525Z"/>
  <path d="M3.9468 7.304h16.1064v1.5H3.9468v-1.5ZM8.268 2.3v2.1923h-1.5V2.3h1.5Zm8.9639 0v2.1923h-1.5V2.3h1.5ZM17.77 16h-1.5v1.5h1.5V16Z"/>
</g></svg>