<svg xmlns="http://www.w3.org/2000/svg" data-laicon-version="15.0" viewBox="0 0 20 20" fill="black"><g transform="translate(-2 -2)">
  <path d="M4.75 5.7363V19.148h14.5V5.7363H4.75Zm-1.5-.25c0-.6892.5608-1.25 1.25-1.25h15c.6892 0 1.25.5608 1.25 1.25V19.398c0 .6892-.5608 1.25-1.25 1.25h-15c-.6892 0-1.25-.5608-1.25-1.25V5.4863Z"/>
  <path d="M8.2744 2.102v2.8843h-1.5V2.102h1.5Zm8.8291 0v2.8843h-1.5V2.102h1.5Zm-5.9281 11.5476 4.0061-4.006 1.0606 1.0606-5.0667 5.0668-3.4171-3.4172 1.0607-1.0606 2.3564 2.3564Z"/>
</g></svg>