<svg xmlns="http://www.w3.org/2000/svg" data-laicon-version="15.3" viewBox="0 0 20 20" fill="black"><g transform="translate(-2 -2)">
  <path d="M12 8.321a4.07 4.07 0 0 0-4.066 4.067A4.07 4.07 0 0 0 12 16.455a4.07 4.07 0 0 0 4.067-4.067A4.07 4.07 0 0 0 12 8.321Zm-2.566 4.067A2.57 2.57 0 0 1 12 9.821a2.57 2.57 0 0 1 2.566 2.567A2.57 2.57 0 0 1 12 14.955a2.57 2.57 0 0 1-2.566-2.567Z"/>
  <path d="M9.589 2.993c-.415 0-.804.203-1.042.543L7.684 4.77H5.1a2.05 2.05 0 0 0-2.05 2.05v11.138a2.05 2.05 0 0 0 2.05 2.05h13.8a2.05 2.05 0 0 0 2.05-2.05V6.806a2.05 2.05 0 0 0-2.06-2.05l-2.576.012-.928-1.258a1.272 1.272 0 0 0-1.024-.517H9.59ZM8.465 6.27l1.243-1.776h4.54l1.312 1.778 3.338-.015a.55.55 0 0 1 .552.55v11.15a.55.55 0 0 1-.55.55H5.1a.55.55 0 0 1-.55-.55V6.82a.55.55 0 0 1 .55-.55h3.365Z"/>
</g></svg>