<svg xmlns="http://www.w3.org/2000/svg" data-laicon-version="15.3" viewBox="0 0 20 20" fill="black"><g transform="translate(-2 -2)">
  <path d="M14.986 8.883A4.5 4.5 0 0 0 7.503 12.1H7.15a.35.35 0 0 0-.28.56l1.1 1.466a.35.35 0 0 0 .56 0l1.1-1.467a.35.35 0 0 0-.28-.56h-.346a3 3 0 0 1 4.918-2.154l1.064-1.063ZM14.65 12.4h.346a3 3 0 0 1-4.918 2.153l-1.064 1.064a4.5 4.5 0 0 0 7.483-3.217h.353a.35.35 0 0 0 .28-.56l-1.1-1.467a.35.35 0 0 0-.56 0l-1.1 1.467a.35.35 0 0 0 .28.56Z"/>
  <path d="M9.589 2.993c-.415 0-.804.203-1.042.543L7.684 4.77H5.1a2.05 2.05 0 0 0-2.05 2.05v11.138a2.05 2.05 0 0 0 2.05 2.05h13.8a2.05 2.05 0 0 0 2.05-2.05V6.806a2.05 2.05 0 0 0-2.06-2.05l-2.576.012-.928-1.258a1.272 1.272 0 0 0-1.024-.517H9.59ZM8.465 6.27l1.242-1.776h4.54l1.312 1.778 3.339-.015a.55.55 0 0 1 .552.55v11.15a.55.55 0 0 1-.55.55H5.1a.55.55 0 0 1-.55-.55V6.82a.55.55 0 0 1 .55-.55h3.365Z"/>
</g></svg>