<svg xmlns="http://www.w3.org/2000/svg" data-laicon-version="15.0" viewBox="0 0 20 20" fill="black"><g transform="translate(-2 -2)">
  <path d="M8.4998 17.9c.9 0 1.6.7 1.6 1.6 0 .9-.7 1.6-1.6 1.6-.9 0-1.6-.7-1.6-1.6 0-.9.7-1.6 1.6-1.6Zm9 0c.9 0 1.6.7 1.6 1.6 0 .9-.7 1.6-1.6 1.6-.9 0-1.6-.7-1.6-1.6 0-.9.7-1.6 1.6-1.6ZM6.3996 15.8h.0001l-1.7-8.8c0-.6.5-1 1.2-1h14.7c.3 0 .7 0 .9.3.2.3.1.7.1.9l-1.6 8.6c-.1.9-.8.9-1.2.9h-11.2c-.4 0-1.1 0-1.2-.9Zm12.2001-.6 1.5-7.7h-13.8l1.5 7.7h10.8Z"/>
  <path d="m5.5997 11.7-1.4-7.4h-2V2.8h2.5c.4 0 .7.3.7.6l1.5 8-1.3.3Z"/>
</g></svg>