<svg xmlns="http://www.w3.org/2000/svg" data-laicon-version="15.0" viewBox="0 0 20 20" fill="black"><g transform="translate(-2 -2)">
  <path d="M3.3755 3.0504a.75.75 0 0 1 .75 0l4.361 2.5179h7.0462l4.361-2.5179a.75.75 0 0 1 1.125.6496v8.3408c0 4.9756-4.0335 9.0091-9.0091 9.0091-4.9755 0-9.0091-4.0335-9.0091-9.0091V3.6999a.75.75 0 0 1 .375-.6495Zm1.125 1.9486v7.0418c0 4.1472 3.362 7.5091 7.5091 7.5091 4.1472 0 7.5091-3.3619 7.5091-7.5091V4.999l-3.41 1.9688a.7498.7498 0 0 1-.375.1004H8.2855a.75.75 0 0 1-.375-.1004l-3.41-1.9688Z"/>
  <path d="M12.7096 13.1017v2.136h-1.4v-2.136h1.4Z"/>
  <path d="m9.81 15.6995 1.8499-1.068.7 1.2124-1.8498 1.068-.7-1.2124Z"/>
  <path d="m13.5096 16.9119-1.8499-1.068.7-1.2124 1.8499 1.068-.7 1.2124ZM9.0718 10.1227c-.618 0-1.1192.5011-1.1192 1.1192s.5011 1.1191 1.1192 1.1191c.618 0 1.1191-.501 1.1191-1.1191s-.501-1.1192-1.119-1.1192Zm5.876 0c-.6181 0-1.1192.5011-1.1192 1.1192s.5011 1.1191 1.1192 1.1191c.618 0 1.1191-.501 1.1191-1.1191s-.5011-1.1192-1.1191-1.1192Z"/>
</g></svg>