<svg xmlns="http://www.w3.org/2000/svg" data-laicon-version="15.0" viewBox="0 0 20 20" fill="black"><g transform="translate(-2 -2)">
  <path d="M4.8999 4.8v14.3h14.3V4.8h-14.3Zm-1.5-.2c0-.7.6-1.2 1.2-1.2h14.8c.7 0 1.2.6 1.2 1.2v14.8c0 .7-.6 1.2-1.2 1.2h-14.8c-.7 0-1.2-.6-1.2-1.2V4.6Z"/>
  <path d="M9.3 14.9c1.3 0 2.2-.7 2.6-1.8v-.2l-.1-.1-1.1-.3h-.2l-.1.1c-.1.2-.2.4-.4.5-.2.1-.4.2-.6.2-.4 0-.7-.1-.9-.4-.2-.2-.3-.6-.3-1s.1-.8.3-1c.2-.2.5-.4.9-.4s.7.2.9.5l.1.1h.1l1.1-.3c.1 0 .1 0 .1-.1v-.2c-.2-.5-.5-.9-.9-1.1-.4-.3-.9-.4-1.5-.4-.8 0-1.5.3-2 .8s-.8 1.2-.8 2.1c0 .8.3 1.6.8 2.1.5.6 1.2.9 2 .9Zm3.6-.8c.5.5 1.2.8 2 .8 1.3 0 2.2-.7 2.6-1.8v-.2l-.1-.1-1.1-.3h-.2l-.1.1c-.1.2-.2.4-.4.5-.2.1-.4.2-.6.2-.4 0-.7-.1-.9-.4-.2-.2-.3-.6-.3-1s.1-.8.3-1c.2-.2.5-.4.9-.4s.7.2.9.5l.1.1h.1l1.1-.3c.1 0 .1 0 .1-.1v-.2c-.2-.5-.5-.9-.9-1.1-.4-.3-.9-.4-1.5-.4-.8 0-1.5.3-2 .8s-.8 1.2-.8 2.1c0 1 .3 1.7.8 2.2Z"/>
</g></svg>