<svg xmlns="http://www.w3.org/2000/svg" data-laicon-version="15.0" viewBox="0 0 20 20" fill="black"><g transform="translate(-2 -2)">
  <path d="M10.4089 8.9948c-1.2692 1.2692-1.2692 3.327 0 4.5962.273.273.5825.4873.9128.6428l.7489-.7489a1.095 1.095 0 0 0 .2808-.4783 1.7411 1.7411 0 0 1-.8818-.4763c-.6834-.6834-.6834-1.7914 0-2.4748l1.4142-1.4143c.6834-.6834 1.7914-.6834 2.4749 0 .6834.6834.6834 1.7915 0 2.4749l-.3633.3633a3.9175 3.9175 0 0 1 .1204 2.0009l1.3035-1.3035c1.2692-1.2692 1.2692-3.327 0-4.5962-1.2692-1.2692-3.327-1.2692-4.5962 0l-1.4142 1.4142Z"/>
  <path d="M11.6486 10.9934a1.741 1.741 0 0 1 .8819.4763c.6834.6834.6834 1.7914 0 2.4748l-1.4142 1.4143c-.6834.6834-1.7914.6834-2.4748 0-.6834-.6835-.6834-1.7915 0-2.4749l.3632-.3633a3.9176 3.9176 0 0 1-.1204-2.0009l-1.3035 1.3035c-1.2692 1.2692-1.2692 3.327 0 4.5962 1.2692 1.2692 3.327 1.2692 4.5962 0l1.4142-1.4142c1.2692-1.2692 1.2692-3.327 0-4.5962a3.2443 3.2443 0 0 0-.9128-.6429l-.7489.749a1.0943 1.0943 0 0 0-.2809.4783Z"/>
  <path d="M11.9999 4.15c-4.3354 0-7.85 3.5146-7.85 7.85 0 4.3355 3.5146 7.85 7.85 7.85 4.3355 0 7.85-3.5145 7.85-7.85 0-4.3354-3.5145-7.85-7.85-7.85ZM2.6499 12c0-5.1638 4.1861-9.35 9.35-9.35s9.35 4.1862 9.35 9.35c0 5.1639-4.1861 9.35-9.35 9.35s-9.35-4.1861-9.35-9.35Z"/>
</g></svg>