<svg xmlns="http://www.w3.org/2000/svg" data-laicon-version="15.0" viewBox="0 0 20 20" fill="black"><g transform="translate(-2 -2)">
  <path d="M11.6265 3.8021v8.555h8.5653l-.0809.8738c-.4068 4.3925-4.1006 7.9043-8.6155 7.9043-4.7787 0-8.6526-3.8739-8.6526-8.6526 0-4.5617 3.693-8.382 7.9369-8.6308l.8468-.0497Zm-1.6 1.7577c-3.0293.6158-5.5837 3.5088-5.5837 6.9228 0 3.8951 3.1575 7.0526 7.0526 7.0526 3.3619 0 6.1857-2.4058 6.886-5.5781h-8.3549V5.5598Z"/>
  <path d="m12.4956 2.8217.8414.0554c4.0357.266 7.4331 3.8066 7.8062 7.8145l.0803.8626h-8.7279V2.8217ZM14.0745 4.57v5.4054h5.3576C18.827 7.341 16.6446 5.1186 14.0745 4.57Z"/>
</g></svg>