<svg xmlns="http://www.w3.org/2000/svg" data-laicon-version="15.0" viewBox="0 0 20 20" fill="black"><g transform="translate(-2 -2)">
  <path d="M21.05 18.48H2.8477V5.9313h1.5V16.98H21.05v1.5Z"/>
  <path d="M15.8616 5.533c-.6628 0-1.2.5374-1.2 1.2 0 .6628.5372 1.2 1.2 1.2.6627 0 1.2-.5372 1.2-1.2 0-.6626-.5373-1.2-1.2-1.2Zm-6.8115.5792c-.6627 0-1.2.5373-1.2 1.2s.5373 1.2 1.2 1.2 1.2-.5373 1.2-1.2-.5373-1.2-1.2-1.2Zm-1.188 6.2602c-.6627 0-1.2.5372-1.2 1.2 0 .6627.5373 1.2 1.2 1.2s1.2-.5373 1.2-1.2c0-.6628-.5373-1.2-1.2-1.2Zm5.1577-2.0796c-.6627 0-1.2.5373-1.2 1.2s.5373 1.2 1.2 1.2c.6628 0 1.2-.5373 1.2-1.2s-.5372-1.2-1.2-1.2Zm5.3672 2.5026c-.6627 0-1.2.5373-1.2 1.2s.5373 1.2 1.2 1.2 1.2-.5373 1.2-1.2-.5373-1.2-1.2-1.2Z"/>
</g></svg>