<svg xmlns="http://www.w3.org/2000/svg" data-laicon-version="15.0" viewBox="0 0 20 20" fill="black"><g transform="translate(-2 -2)">
  <path d="M6.7105 6.4843c-1.2338 1.2453-1.959 3.0843-1.959 5.4505 0 2.7431 1.5738 5.1847 2.7832 6.6492.6432-.845 1.6738-1.6823 3.2307-1.6829h.0017l2.2888-.0098h.0032c3.413 0 6.1909-2.7776 6.1909-6.1904 0-1.9125-.6968-3.4351-1.8952-4.4882C16.1466 5.151 14.3621 4.51 12.1011 4.51c-2.339 0-4.1576.7299-5.3906 1.9743ZM5.6449 5.4286C7.2127 3.8463 9.444 3.01 12.1011 3.01c2.5373 0 4.7022.7213 6.2439 2.076 1.5515 1.3633 2.405 3.3111 2.405 5.6149 0 4.2408-3.4487 7.6895-7.6892 7.6904h-.0017l-2.2888.0098h-.0032c-1.272 0-2.0301.9191-2.4624 1.7718l-.4837.9541-.7321-.78c-1.228-1.3083-3.8374-4.5239-3.8374-8.4122 0-2.6762.8265-4.9247 2.3934-6.5062Z"/>
  <path d="M7.2998 13.8158v-5.32h1.4v5.32h-1.4Z"/>
  <path d="M10.8671 11.8557H8v-1.4h2.8671v1.4Z"/>
  <path d="M10.167 13.8158v-5.32h1.4v5.32h-1.4Zm2.375 0v-3.6046h1.4v3.6046h-1.4ZM13.2498 8.4134a.74.74 0 1 0 0 1.4801.74.74 0 0 0 0-1.48Zm2.5025 3.9686a.7499.7499 0 1 0 0 1.4998.7499.7499 0 0 0 0-1.4998ZM15.0522 12.0673V8.5134h1.4v3.5539h-1.4Z"/>
</g></svg>