<svg xmlns="http://www.w3.org/2000/svg" data-laicon-version="15.0" viewBox="0 0 20 20" fill="black"><g transform="translate(-2 -2)">
  <path d="M20.6418 4.302a1.0876 1.0876 0 0 0-.6635-1.035 1.0884 1.0884 0 0 0-1.4384.6086 1.0881 1.0881 0 0 0 1.772 1.1743c.203-.197.3213-.4652.3299-.7479Z"/>
  <path d="M16.9662 4.302c0 .242.034.477.096.699H5.1172a.25.25 0 0 0-.25.25v11.568c0 .131.102.24.23.25l.02-.001h1.656a.7502.7502 0 0 1 .75.75v.72l1.124-1.123a.7493.7493 0 0 1 .632-.347h9.387a.25.25 0 0 0 .25-.25V6.81a2.584 2.584 0 0 0 1.5-.068v10.076a1.75 1.75 0 0 1-1.75 1.75h-9.051l-2.311 2.311a.7497.7497 0 0 1-.817.1623.75.75 0 0 1-.463-.6923v-1.781h-.868a1.7504 1.7504 0 0 1-1.6528-1.0703 1.7497 1.7497 0 0 1-.1372-.6787V5.251a1.752 1.752 0 0 1 1.751-1.75h11.976a2.5786 2.5786 0 0 0-.127.801Z"/>
</g></svg>