<svg xmlns="http://www.w3.org/2000/svg" data-laicon-version="15.0" viewBox="0 0 20 20" fill="black"><g transform="translate(-2 -2)">
  <path d="M17.7602 8.098V5.081a1.58 1.58 0 0 0-1.58-1.58H4.9462a1.58 1.58 0 0 0-1.579 1.58v9.591a1.5801 1.5801 0 0 0 1.58 1.579h.623V17.6a.75.75 0 0 0 1.28.53l1.328-1.327v1.11c0 .794.644 1.44 1.441 1.44h6.154l1.527 1.527a.7498.7498 0 0 0 .8169.1623.75.75 0 0 0 .4631-.6923v-.998h.395a1.441 1.441 0 0 0 1.0189-.4214 1.4406 1.4406 0 0 0 .4221-1.0186V9.538a1.4398 1.4398 0 0 0-1.44-1.44h-1.217.001ZM4.8662 5.081a.08.08 0 0 1 .08-.08h11.234a.08.08 0 0 1 .08.08v9.591a.0793.0793 0 0 1-.08.079h-7.782a.75.75 0 0 0-.625.335l-.703.703v-.288a.7503.7503 0 0 0-.75-.75h-1.374a.0787.0787 0 0 1-.079-.079V5.081h-.001Zm4.811 11.17h6.502a1.58 1.58 0 0 0 1.58-1.579V9.598h1.156v8.254h-1.085a.75.75 0 0 0-.747.69l-.366-.366a.7505.7505 0 0 0-.617-.323h-6.422v-1.602h-.001Z"/>
</g></svg>