<svg xmlns="http://www.w3.org/2000/svg" data-laicon-version="15.0" viewBox="0 0 20 20" fill="black"><g transform="translate(-2 -2)">
  <path d="M19.5449 3.1728c-.6562 0-1.188.532-1.188 1.188 0 .656.5319 1.188 1.188 1.188.656 0 1.188-.532 1.188-1.188 0-.6562-.5319-1.188-1.188-1.188ZM6.5899 7.2734c-1.138 1.1486-1.8101 2.8476-1.8101 5.0413 0 2.5076 1.423 4.7467 2.54 6.1116.6083-.778 1.5707-1.5361 3.0108-1.5366h.0017l2.1319-.0091h.0032c3.1511 0 5.7158-2.5644 5.7158-5.7153 0-1.7683-.6437-3.1721-1.748-4.1424-1.1141-.979-2.7634-1.5734-4.8602-1.5734-2.168 0-3.848.6762-4.9851 1.824ZM5.5243 6.2177c1.472-1.4855 3.5646-2.2682 6.0507-2.2682 2.3731 0 4.4029.6746 5.8504 1.9466 1.4574 1.2806 2.2578 3.1097 2.2578 5.2692 0 3.9789-3.2356 7.2144-7.2141 7.2153h-.0017l-2.1319.0091h-.0032c-1.155-.0001-1.848.8333-2.2481 1.6224l-.4838.954-.732-.78c-1.1452-1.2202-3.5886-4.2282-3.5886-7.8714 0-2.5037.7734-4.6123 2.2445-6.097Z"/>
</g></svg>