<svg xmlns="http://www.w3.org/2000/svg" data-laicon-version="15.0" viewBox="0 0 20 20" fill="black"><g transform="translate(-2 -2)">
  <path d="M2.5498 11.4724c0-4.6874 4.3327-8.3153 9.45-8.3153 5.1173 0 9.45 3.6279 9.45 8.3153 0 4.6873-4.3327 8.3152-9.45 8.3152-1.324 0-2.5807-.246-3.7235-.6793l-2.8045 1.6329a.7498.7498 0 0 1-1.1155-.7811l.5419-3.0091c-1.4466-1.45-2.3484-3.3617-2.3484-5.4786Zm9.45-6.8153c-4.4925 0-7.95 3.1463-7.95 6.8153 0 1.7861.8096 3.4264 2.1633 4.661a.75.75 0 0 1 .2327.6871l-.3255 1.8074 1.7173-.9999a.7503.7503 0 0 1 .6687-.043c1.0563.4453 2.2381.7026 3.4935.7026 4.4925 0 7.95-3.1464 7.95-6.8152 0-3.669-3.4575-6.8153-7.95-6.8153Z"/>
  <path d="M8.2173 10.384c-.6011 0-1.0884.4872-1.0884 1.0884 0 .6011.4873 1.0884 1.0884 1.0884s1.0884-.4873 1.0884-1.0884c0-.6012-.4873-1.0884-1.0884-1.0884Zm3.7827 0c-.6011 0-1.0884.4872-1.0884 1.0884 0 .6011.4873 1.0884 1.0884 1.0884s1.0884-.4873 1.0884-1.0884c0-.6012-.4873-1.0884-1.0884-1.0884Zm3.7827 0c-.6011 0-1.0884.4872-1.0884 1.0884 0 .6011.4873 1.0884 1.0884 1.0884s1.0884-.4873 1.0884-1.0884c0-.6012-.4873-1.0884-1.0884-1.0884Z"/>
</g></svg>