<svg xmlns="http://www.w3.org/2000/svg" data-laicon-version="15.0" viewBox="0 0 20 20" fill="black"><g transform="translate(-2 -2)">
  <path d="m10.7362 12.0876 3.6472-3.6473L15.444 9.501l-4.7078 4.7079-3.1888-3.1888L8.608 9.9594l2.1282 2.1282Z"/>
  <path d="M6.709 6.4844C5.4752 7.7295 4.75 9.5686 4.75 11.9348c0 2.7431 1.5739 5.1846 2.7832 6.6491.6433-.8449 1.6739-1.6822 3.2307-1.6828h.0017l2.2888-.0098h.0032c3.413 0 6.1909-2.7776 6.1909-6.1904 0-1.9125-.6968-3.4351-1.8952-4.4882C16.1451 5.151 14.3606 4.51 12.0996 4.51c-2.339 0-4.1575.7299-5.3906 1.9744ZM5.6435 5.4285C7.2112 3.8463 9.4425 3.01 12.0996 3.01c2.5373 0 4.7023.7213 6.2439 2.076 1.5515 1.3633 2.405 3.3112 2.405 5.6149 0 4.2408-3.4487 7.6895-7.6892 7.6904h-.0017l-2.2888.0098h-.0032c-1.2719 0-2.03.9191-2.4624 1.7717l-.4837.9542-.732-.78C5.8594 19.0386 3.25 15.8231 3.25 11.9348c0-2.6762.8265-4.9247 2.3935-6.5062Z"/>
</g></svg>