<svg xmlns="http://www.w3.org/2000/svg" data-laicon-version="15.0" viewBox="0 0 20 20" fill="black"><g transform="translate(-2 -2)">
  <path d="M9.4899 9.0146c-.987.996-1.5754 2.4746-1.5754 4.3962 0 2.1387 1.1886 4.0598 2.1589 5.2655.552-.6718 1.4062-1.3067 2.6621-1.3072h.0017l1.8846-.0081h.0032c2.7381 0 4.9669-2.2286 4.9669-4.9665 0-1.5408-.5601-2.7574-1.516-3.5973-.9658-.8487-2.402-1.3696-4.24-1.3696-1.8985 0-3.3599.5918-4.346 1.587ZM8.4244 7.959c1.3208-1.333 3.195-2.0313 5.4115-2.0313 2.1143 0 3.931.6012 5.2301 1.7428 1.3091 1.1503 2.0259 2.7921 2.0259 4.7241 0 3.5659-2.8996 6.4656-6.4652 6.4665h-.0017l-1.8846.0081h-.0032c-.9709 0-1.5611.6983-1.9102 1.3868l-.4837.9541-.7321-.78c-1.015-1.0813-3.1966-3.7625-3.1966-7.0192 0-2.2316.6898-4.1197 2.0098-5.452v.0001Z"/>
  <path d="M9.4303 4.43h.0001c-1.615 0-2.868.4577-3.706 1.194-.8282.7278-1.3162 1.783-1.3162 3.128 0 1.9039 1.2394 3.5276 2.9571 4.101l-.4748 1.4228c-2.3101-.771-3.9823-2.9537-3.9823-5.5238 0-1.7362.6448-3.2168 1.8261-4.2548C5.9057 3.4679 7.539 2.93 9.4303 2.93c2.7174 0 4.8527 1.1778 5.926 3.317l-1.3407.6726C13.2411 5.376 11.6863 4.43 9.4303 4.43Z"/>
</g></svg>