<svg xmlns="http://www.w3.org/2000/svg" data-laicon-version="15.0" viewBox="0 0 20 20" fill="black"><g transform="translate(-2 -2)">
  <path d="M19.4782 13.039V5.251a1.75 1.75 0 0 0-1.75-1.75h-13.55a1.75 1.75 0 0 0-1.75 1.75v11.568a1.7497 1.7497 0 0 0 1.1083 1.6275c.2169.0855.4486.1268.6817.1215h.867v1.781a.75.75 0 0 0 1.28.53l2.311-2.311h5.262v-1.5h-5.598a.7504.7504 0 0 0-.633.347l-1.123 1.123v-.72a.7502.7502 0 0 0-.75-.75h-1.675a.25.25 0 0 1-.23-.249V5.251a.25.25 0 0 1 .25-.25h13.549a.2501.2501 0 0 1 .25.25v7.788h1.5Zm-1.49 5.549v2.55h1.5v-2.55h2.55v-1.5h-2.55v-2.55h-1.5v2.55h-2.55v1.5h2.55Z"/>
  <path d="M7.49 10.088a.9499.9499 0 0 0-.95.95.9501.9501 0 1 0 .95-.95Zm3.539 0a.9498.9498 0 0 0-.95.95.95.95 0 1 0 .95-.95Zm2.589.95a.9487.9487 0 0 1 .0724-.3635.9489.9489 0 0 1 .5141-.5142.9505.9505 0 0 1 1.0353.206.9489.9489 0 0 1 .2782.6717.9499.9499 0 1 1-1.9 0Z"/>
</g></svg>