<svg xmlns="http://www.w3.org/2000/svg" data-laicon-version="15.0" viewBox="0 0 20 20" fill="black"><g transform="translate(-2 -2)">
  <path d="M5.3411 5.3412C7.0769 3.6054 9.3907 2.65 11.839 2.65c2.4483 0 4.7621.9554 6.4979 2.6912 2.8967 2.8967 3.5202 7.2789 1.6022 10.8398l1.2768 4.0958a.75.75 0 0 1-.9356.9403l-4.1093-1.2583a9.2108 9.2108 0 0 1-4.3426 1.0905c-2.4493 0-4.7522-.9561-6.4873-2.6912-1.7361-1.7361-2.6912-4.0501-2.6912-6.5084 0-2.4598.956-4.7618 2.6894-6.5067l.0018-.0018ZM6.4026 6.401C4.947 7.8668 4.15 9.7893 4.15 11.8497c0 2.0622.7982 3.9941 2.2519 5.4478 1.4546 1.4546 3.3765 2.2518 5.4266 2.2518 1.366 0 2.7041-.3655 3.8793-1.0495a.7503.7503 0 0 1 .5969-.0689l3.0565.936-.9503-3.0481a.7503.7503 0 0 1 .0689-.6024c1.7709-3.022 1.2908-6.8202-1.2035-9.3145-1.4539-1.454-3.386-2.2519-5.4372-2.2519-2.0507 0-3.9825.7976-5.4364 2.251Z"/>
  <path d="M8.4001 10.95c-.5787 0-1.05.4713-1.05 1.05s.4713 1.05 1.05 1.05 1.05-.4713 1.05-1.05-.4713-1.05-1.05-1.05ZM12.0002 10.95c-.5787 0-1.05.4713-1.05 1.05s.4713 1.05 1.05 1.05 1.05-.4713 1.05-1.05c0-.5781-.461-1.05-1.05-1.05Zm3.5497 0c-.5786 0-1.0499.4713-1.0499 1.05s.4713 1.05 1.0499 1.05c.5787 0 1.0501-.4713 1.0501-1.05s-.4714-1.05-1.0501-1.05Z"/>
</g></svg>