<svg xmlns="http://www.w3.org/2000/svg" data-laicon-version="15.0" viewBox="0 0 20 20" fill="black"><g transform="translate(-2 -2)">
  <path d="m10.6998 8.15 4.04 2.3299c.19.11.3.3.3.52 0 .22-.11.41-.3.52l-4.04 2.33a.6015.6015 0 0 1-.5992-.0018.6022.6022 0 0 1-.3008-.5182v-4.66c0-.3.22-.54.5-.6h.1c.11 0 .21.03.3.08Zm.6 3.6199 1.34-.77v-.01l-1.34-.77v1.55Z"/>
  <path d="M18.6701 18.57h-9.05l-2.31 2.31c-.22.21-.54.28-.82.16a.7397.7397 0 0 1-.46-.69v-1.78h-.91c-.97 0-1.75-.78-1.75-1.75V5.25c0-.97.78-1.75 1.75-1.75h13.55c.97 0 1.75.78 1.75 1.75v11.57c0 .97-.78 1.75-1.75 1.75Zm0-13.57h-13.55c-.14 0-.25.11-.25.25v11.57c0 .13.1.25.23.25h1.68c.41 0 .75.34.75.75v.72l1.12-1.12c.13-.21.36-.35.63-.35h9.39c.14 0 .25-.11.25-.25V5.25c0-.14-.11-.25-.25-.25Z"/>
</g></svg>