<svg xmlns="http://www.w3.org/2000/svg" data-laicon-version="15.0" viewBox="0 0 20 20" fill="black"><g transform="translate(-2 -2)">
  <path d="M8.453 10.088a.9499.9499 0 0 0-.95.95.9501.9501 0 1 0 .95-.95Zm3.5369 0a.9498.9498 0 0 0-.95.95.95.95 0 1 0 .95-.95Zm2.589.95a.9498.9498 0 0 1 .95-.95.95.95 0 1 1-.95.95Z"/>
  <path d="M18.7658 18.568h-9.052l-2.31 2.311a.7501.7501 0 0 1-1.281-.53v-1.781h-.867a1.7491 1.7491 0 0 1-1.2624-.4982 1.7509 1.7509 0 0 1-.5266-1.2508V5.251c0-.966.784-1.75 1.75-1.75h13.549c.966 0 1.75.784 1.75 1.75v11.567a1.75 1.75 0 0 1-1.75 1.75Zm-13.8-13.317v11.568c0 .131.103.24.231.25l.02-.001h1.656a.7502.7502 0 0 1 .75.75v.72l1.123-1.123a.7507.7507 0 0 1 .633-.347h9.387a.25.25 0 0 0 .25-.25V5.251a.2499.2499 0 0 0-.25-.25h-13.55a.25.25 0 0 0-.25.25Z"/>
</g></svg>