<svg xmlns="http://www.w3.org/2000/svg" data-laicon-version="15.0" viewBox="0 0 20 20" fill="black"><g transform="translate(-2 -2)">
  <path d="M5.1167 5.001h13.549c.1378 0 .25.1122.25.25v11.567c0 .1378-.1122.25-.25.25h-9.387a.7494.7494 0 0 0-.6326.3469l-1.1234 1.1234v-.7203a.75.75 0 0 0-.75-.75h-1.656l-.0195.0002a.2504.2504 0 0 1-.2305-.2492V5.251c0-.1378.1122-.25.25-.25Zm4.4977 13.567h9.0513c.9663 0 1.75-.7838 1.75-1.75V5.251c0-.9662-.7837-1.75-1.75-1.75H5.1167c-.9662 0-1.75.7838-1.75 1.75v11.568c0 .9662.7838 1.75 1.75 1.75a.8424.8424 0 0 0 .039-.001h.867v1.781a.75.75 0 0 0 1.2803.5303l2.3114-2.3113Z"/>
</g></svg>