<svg xmlns="http://www.w3.org/2000/svg" data-laicon-version="15.0" viewBox="0 0 20 20" fill="black"><g transform="translate(-2 -2)">
  <path d="M7.2964 10.3922c-.5523 0-1 .4478-1 1s.4477 1 1 1 1-.4477 1-1-.4478-1-1-1ZM10.6943 10.3922c-.5523 0-1 .4478-1 1s.4477 1 1 1 1-.4477 1-1-.4478-1-1-1ZM14.0923 10.3922c-.5523 0-1 .4478-1 1s.4477 1 1 1 1-.4477 1-1-.4477-1-1-1Z"/>
  <path d="M5.736 6.936c-1.1739 1.1848-1.8659 2.9364-1.8659 5.1947 0 2.5835 1.4652 4.8905 2.6161 6.2974.628-.8017 1.6208-1.5821 3.105-1.5825h.0011l3.1158-.0098.0048 1.5-3.1182.0098h-.0024c-1.2034 0-1.9274.8567-2.3477 1.6711l-.4882.9458-.7264-.7779c-1.1856-1.2696-3.66-4.342-3.66-8.0539 0-2.5683.7933-4.7293 2.3004-6.2504 1.5078-1.5219 3.6524-2.3248 6.2025-2.3248 2.4342 0 4.5144.6917 5.9971 1.994 1.4926 1.3109 2.313 3.1836 2.313 5.3961v.4464h-1.5v-.4464c0-1.821-.6635-3.2684-1.8029-4.2691-1.1493-1.0094-2.8491-1.621-5.0072-1.621-2.232 0-3.9639.6964-5.137 1.8805Z"/>
  <path d="M21.9982 17.7095h-7.5963v-1.5h7.5963v1.5Z"/>
  <path d="M17.4497 20.7577v-7.5963h1.5v7.5963h-1.5Z"/>
</g></svg>