<svg xmlns="http://www.w3.org/2000/svg" data-laicon-version="15.0" viewBox="0 0 20 20" fill="black"><g transform="translate(-2 -2)">
  <path d="M5.2168 5.001h13.549c.1378 0 .25.1122.25.25v11.567c0 .1378-.1122.25-.25.25h-9.387a.7494.7494 0 0 0-.6326.3469l-1.1234 1.1234v-.7203a.75.75 0 0 0-.75-.75h-1.656l-.0195.0002a.2504.2504 0 0 1-.2305-.2492V5.251c0-.1378.1122-.25.25-.25Zm4.4977 13.567h9.0513c.9663 0 1.75-.7838 1.75-1.75V5.251c0-.9662-.7837-1.75-1.75-1.75H5.2168c-.9662 0-1.75.7838-1.75 1.75v11.568c0 .9662.7838 1.75 1.75 1.75a.8428.8428 0 0 0 .039-.001h.867v1.781a.75.75 0 0 0 1.2803.5303l2.3114-2.3113Z"/>
  <path d="m14.0039 6.2302 2.9057 2.9057-6.2689 6.269-2.868-.0362-.0378-2.8682 6.269-6.2703Zm.0001 2.1214-4.761 4.7619.0103.7738.7739.0097 4.7611-4.761-.7843-.7844Z"/>
</g></svg>