<svg xmlns="http://www.w3.org/2000/svg" data-laicon-version="15.7" viewBox="0 0 20 20" fill="black"><g transform="translate(-2 -2)">
  <path d="M10 3.45c-2.412 0-4.367.848-5.717 2.278C2.94 7.151 2.25 9.095 2.25 11.2c0 3.59 2.035 6.567 4.069 7.824.69.426 1.389-.14 1.442-.738.06-.66.339-1.053.673-1.297a1.73 1.73 0 0 1 .198-.125c.81 2.643 2.678 4.094 3.421 4.586.691.457 1.408-.115 1.458-.724.04-.486.182-.806.343-.991.147-.169.347-.273.646-.273h1.143a6.076 6.076 0 0 0 6.107-6.107c0-1.573-.503-2.944-1.445-3.991-.83-.922-1.964-1.554-3.303-1.873a6.23 6.23 0 0 0-1.607-2.192c-1.36-1.194-3.245-1.85-5.395-1.85ZM3.75 11.2c0-1.78.581-3.337 1.624-4.442C6.411 5.659 7.956 4.95 10 4.95c1.85 0 3.364.561 4.405 1.476 1.033.907 1.645 2.2 1.645 3.774 0 1.59-.575 2.803-1.44 3.621-.873.825-2.083 1.286-3.41 1.286H9.7c-.689 0-1.485.185-2.15.67a3.056 3.056 0 0 0-1.096 1.489C5.062 16.072 3.75 13.845 3.75 11.2Zm13.733-1.99c.7.28 1.272.674 1.707 1.157.67.744 1.06 1.746 1.06 2.988a4.576 4.576 0 0 1-4.607 4.607H14.5c-.713 0-1.332.277-1.777.788a2.747 2.747 0 0 0-.522.928 7.104 7.104 0 0 1-2.076-3.07H11.2c1.673 0 3.263-.584 4.44-1.697 1.184-1.118 1.91-2.734 1.91-4.711 0-.339-.023-.669-.067-.99Z"/>
</g></svg>