<svg xmlns="http://www.w3.org/2000/svg" data-laicon-version="15.0" viewBox="0 0 20 20" fill="black"><g transform="translate(-2 -2)">
  <path d="M16.1211 13.574h-8v-1.5h8v1.5Zm-.007-3.635h-7.993v-1.5h7.993v1.5Z"/>
  <path d="M5.2168 5.001a.2504.2504 0 0 0-.25.25v11.568c0 .1313.1018.2393.2305.2493a.6301.6301 0 0 1 .0195-.0003h1.656a.75.75 0 0 1 .75.75v.7204l1.1234-1.1234a.7493.7493 0 0 1 .6326-.347h9.387c.1378 0 .25-.1122.25-.25V5.251a.2504.2504 0 0 0-.25-.25H5.2168Zm4.4977 13.567L7.403 20.8793a.75.75 0 0 1-1.2803-.5303v-1.781h-.867a.7231.7231 0 0 1-.039.001c-.9662 0-1.75-.7838-1.75-1.75V5.251c0-.9662.7838-1.75 1.75-1.75h13.549c.9662 0 1.75.7838 1.75 1.75v11.567c0 .9662-.7838 1.75-1.75 1.75H9.7145Z"/>
</g></svg>