<svg xmlns="http://www.w3.org/2000/svg" data-laicon-version="15.0" viewBox="0 0 20 20" fill="black"><g transform="translate(-2 -2)">
  <path d="M10.2999 9.9c-.5 0-.9.4-.9.9s.4.9.9.9.9-.4.9-.9-.4-.9-.9-.9Zm2.2001.9c0-.5.4-.9.9-.9.51 0 .8999.4.8999.9s-.3999.9-.8999.9-.9-.4-.9-.9Zm4.0001-.9c-.5 0-.9.4-.9.9s.4.9.9.9.9-.4.9-.9-.4-.9-.9-.9Z"/>
  <path d="m21.7199 18.28-1.11-3.55c1.67-3.15 1.1-7.04-1.44-9.58-1.54-1.54-3.59-2.39-5.76-2.39S9.19 3.61 7.64 5.15C6.1 6.7 5.25 8.75 5.25 10.92c0 2.17.85 4.24 2.39 5.78 1.53 1.53 3.58 2.38 5.76 2.38 1.33 0 2.6399-.33 3.8199-.95l3.57 1.1c.07.02.1501.03.2201.03.2 0 .3899-.08.5299-.22.2-.2.27-.49.18-.75v-.01ZM19.08 14.87l.7799 2.5-2.51-.77c-.2-.06-.4199-.04-.5999.07-1.02.59-2.18.91-3.36.91-1.78 0-3.44-.69-4.7-1.94-1.26-1.26-1.95-2.93-1.95-4.72 0-1.79.69-3.44 1.95-4.71 1.26-1.26 2.93-1.95 4.7-1.95s3.45.69 4.7 1.95c2.14 2.14 2.57 5.46 1.04 8.06-.11.18-.13.4-.07.6h.02Z"/>
  <path d="M5.8298 19.27a4.1258 4.1258 0 0 0 2.0801.57c.5564-.0014 1.093-.1112 1.59-.32.5999.27 1.2299.47 1.8799.62-.98.77-2.2 1.2-3.47 1.2-.89 0-1.77-.21-2.55-.61l-2.26.69c-.27.08-.55.01-.75-.19-.19-.19-.26-.48-.18-.75l.7-2.25c-.76-1.5-.8-3.22-.17-4.72.28-.66.69-1.28 1.22-1.81.0065-.0129.017-.0217.0291-.0316a.262.262 0 0 0 .0209-.0184c.05.67.18 1.32.36 1.94-.09.16-.18.33-.25.5-.49 1.17-.43 2.53.25 3.68.11.19.13.4.07.61l-.37 1.1899 1.2-.3699c.2-.06.42-.03.6.07Zm2.0801.57h.0099-.02.0101Z"/>
</g></svg>