<svg xmlns="http://www.w3.org/2000/svg" data-laicon-version="15.0" viewBox="0 0 20 20" fill="black"><g transform="translate(-2 -2)">
  <path d="M10.5542 9.8214a.9215.9215 0 0 1-.0123-.035l.7071-.7007c.097-.089.1511-.2227.1664-.3477.0151-.1231-.0044-.2648-.0892-.3604l-.9217-1.0724-.0013-.0015c-.3254-.3643-.945-.3571-1.3017-.0037l-.5953.6012c-.1235.1225-.2179.3328-.2595.6039-.042.2738-.0318.6185.0633 1.0199.1903.8032.7207 1.8372 1.861 2.9986l.0017.0016c1.1668 1.1322 2.1737 1.6907 2.9732 1.908.7979.2168 1.3966.0947 1.7313-.1481a.1091.1091 0 0 0 .0127-.0109l.6617-.6743.0058-.0071c.1672-.2054.2166-.4519.1933-.6723-.023-.2179-.1182-.4216-.2557-.5422l-1.1054-.9307c-.0395-.0365-.0911-.0581-.1402-.0705a.5783.5783 0 0 0-.1655-.0151c-.11.0052-.2392.0406-.3257.1263l-.7679.7683a.7137.7137 0 0 1-.0762-.0276c-.0823-.0343-.1993-.0937-.3418-.1816-.2845-.1755-.665-.4609-1.0653-.8754-.4435-.4665-.6894-.8306-.8238-1.0752-.0673-.1223-.1067-.2148-.129-.2754Z"/>
  <path d="M6.709 6.4843C5.4752 7.7296 4.75 9.5686 4.75 11.9348c0 2.7431 1.5739 5.1847 2.7832 6.6492.6433-.845 1.6739-1.6823 3.2307-1.6829h.0017l2.2888-.0098h.0032c3.413 0 6.1909-2.7776 6.1909-6.1904 0-1.9125-.6968-3.4351-1.8952-4.4882C16.1451 5.151 14.3606 4.51 12.0996 4.51c-2.339 0-4.1575.7299-5.3906 1.9743ZM5.6435 5.4286C7.2112 3.8463 9.4425 3.01 12.0996 3.01c2.5373 0 4.7023.7213 6.2439 2.076 1.5515 1.3633 2.405 3.3111 2.405 5.6149 0 4.2408-3.4487 7.6895-7.6892 7.6904h-.0017l-2.2888.0098h-.0032c-1.2719 0-2.03.9191-2.4624 1.7718l-.4837.9541-.732-.78C5.8594 19.0387 3.25 15.8231 3.25 11.9348c0-2.6762.8265-4.9247 2.3935-6.5062Z"/>
</g></svg>