<svg xmlns="http://www.w3.org/2000/svg" data-laicon-version="15.0" viewBox="0 0 20 20" fill="black"><g transform="translate(-2 -2)">
  <path d="M3.9002 12.1199c0 2.63 1.53 4.97 2.63 6.3v.02c.8-1.03 1.87-1.6 3.09-1.6H12.7v1.51H9.62c-1.22 0-1.93.91-2.32 1.67l-.48.95-.73-.78c-1.1-1.18-3.68-4.31-3.68-8.07 0-5.21 3.53-8.57 8.5001-8.57 4.97 0 8.2999 2.97 8.2999 7.39 0 .0813-.0052.16-.0103.2375a3.4116 3.4116 0 0 0-.0097.2225h-1.5c.01-.15.01-.31.01-.46 0-3.63-2.42-5.89-6.8-5.89s-7 2.64-7 7.07Z"/>
  <path d="M7.3003 12.3999c.5523 0 1-.4477 1-1s-.4477-1-1-1-1 .4477-1 1 .4477 1 1 1Zm13.83 3.28-1.06-1.06-1.75 1.75-1.75-1.75-1.06 1.06 1.75 1.75-1.75 1.75 1.06 1.06 1.75-1.75 1.75 1.75 1.06-1.06-1.75-1.75 1.75-1.75Zm-9.4301-4.28c0 .5523-.4477 1-1 1s-1-.4477-1-1 .4477-1 1-1 1 .4477 1 1Zm2.3999 1c.5523 0 1-.4477 1-1s-.4477-1-1-1-1 .4477-1 1 .4477 1 1 1Z"/>
</g></svg>