<svg xmlns="http://www.w3.org/2000/svg" data-laicon-version="15.0" viewBox="0 0 20 20" fill="black"><g transform="translate(-2 -2)">
  <path d="M6.709 6.4843C5.4752 7.7296 4.75 9.5686 4.75 11.9348c0 2.7431 1.5739 5.1847 2.7832 6.6492.6433-.845 1.6739-1.6823 3.2307-1.6829h.0017l2.2888-.0098h.0032c3.413 0 6.1909-2.7776 6.1909-6.1904 0-1.9125-.6968-3.4351-1.8951-4.4882C16.1451 5.151 14.3606 4.51 12.0996 4.51c-2.339 0-4.1575.7299-5.3906 1.9743ZM5.6435 5.4286C7.2112 3.8463 9.4425 3.01 12.0996 3.01c2.5373 0 4.7023.7213 6.2439 2.076 1.5515 1.3633 2.405 3.3111 2.405 5.6149 0 4.2408-3.4487 7.6895-7.6892 7.6904h-.0017l-2.2888.0098h-.0032c-1.2719 0-2.03.9191-2.4624 1.7718l-.4837.9541-.732-.78C5.8594 19.0387 3.25 15.8231 3.25 11.9348c0-2.6762.8265-4.9247 2.3935-6.5062Z"/>
  <path d="M11.1475 18.0615v-14h1.5v14h-1.5Z"/>
  <path d="M19.6054 12.01H4v-1.5h15.6054v1.5Z"/>
</g></svg>