<svg xmlns="http://www.w3.org/2000/svg" data-laicon-version="15.0" viewBox="0 0 20 20" fill="black"><g transform="translate(-2 -2)">
  <path d="M8.334 10.1255c-.5523 0-1 .4478-1 1 0 .5523.4477 1 1 1s1-.4476 1-1c0-.5523-.4477-1-1-1ZM11.8721 10.1255c-.5523 0-1 .4478-1 1 0 .5523.4477 1 1 1s1-.4476 1-1c0-.5523-.4477-1-1-1ZM15.4102 10.1255c-.5523 0-1 .4478-1 1 0 .5523.4477 1 1 1s1-.4476 1-1c0-.5523-.4477-1-1-1Z"/>
  <path d="M6.6675 6.4443c-1.2338 1.2453-1.959 3.0842-1.959 5.4505 0 2.7431 1.5739 5.1846 2.7832 6.6491.6433-.8449 1.6738-1.6822 3.2307-1.6828h.0017l2.2888-.0098h.0032c3.413 0 6.1909-2.7776 6.1909-6.1904 0-1.9126-.6968-3.4352-1.8952-4.4882C16.1036 5.111 14.3191 4.47 12.0581 4.47c-2.339 0-4.1575.7298-5.3906 1.9743ZM5.602 5.3886C7.1697 3.8063 9.401 2.97 12.058 2.97c2.5373 0 4.7022.7213 6.2439 2.076 1.5515 1.3633 2.405 3.3111 2.405 5.6149 0 4.2408-3.4487 7.6895-7.6892 7.6904h-.0017l-2.2888.0098h-.0032c-1.2719 0-2.03.9191-2.4624 1.7717l-.4837.9542-.732-.78c-1.228-1.3084-3.8375-4.5239-3.8375-8.4122 0-2.6763.8265-4.9247 2.3935-6.5062Z"/>
</g></svg>