<svg xmlns="http://www.w3.org/2000/svg" data-laicon-version="15.0" viewBox="0 0 20 20" fill="black"><g transform="translate(-2 -2)">
  <path d="m13.9999 16.9-.7-.7c-.7-.8-1.9-2.3-1.9-4.3 0-2.8 1.8-4.6 4.6-4.6 2.7 0 4.5 1.6 4.5 4 0 2.2-1.8 4-4 4h-1.1c-.1 0-.5 0-.9.7l-.5.9Zm2-8.2c-2 0-3.2 1.2-3.2 3.2 0 1 .5 2 1 2.7.4-.4 1-.6 1.5-.6h1.1c1.5 0 2.6-1.2 2.6-2.6.1-1.7-1.1-2.7-3-2.7Zm-4.3998-3.5h-2.5v1.2h2.5V5.2Z"/>
  <path d="m15.5999 16.6-.8 1.5v.9c0 .4-.3.8-.8.8h-7.4c-.4 0-.8-.3-.8-.8V5c0-.4.3-.8.8-.8h7.4c.4 0 .8.3.8.8v1.1c.4 0 .8-.1 1.2-.1h.3V5c0-1.2-1-2.2-2.2-2.2h-7.5c-1.2 0-2.2 1-2.2 2.2v14c0 1.2 1 2.2001 2.2 2.2001h7.4c1.2 0 2.2-1.0001 2.2-2.2001v-2.4h-.6Zm2.0002-5.6c-.3 0-.5.2-.5.5s.2.5.5.5.5-.2.5-.5-.2-.5-.5-.5Z"/>
  <path d="M15.8999 11c-.3 0-.5.2-.5.5s.2.5.5.5.5-.2.5-.5-.2-.5-.5-.5Zm-1.6001 1.1a.5.5 0 1 0-.0001-1.0001.5.5 0 0 0 .0001 1.0001Z"/>
</g></svg>