<svg xmlns="http://www.w3.org/2000/svg" data-laicon-version="15.0" viewBox="0 0 20 20" fill="black"><g transform="translate(-2 -2)">
  <path d="M12.0034 4.1401c-4.3409 0-7.8598 3.519-7.8598 7.8599 0 4.3409 3.519 7.8598 7.8598 7.8598 4.3409 0 7.8598-3.5189 7.8598-7.8598 0-4.3409-3.5189-7.8599-7.8598-7.8599ZM2.6436 12c0-5.1693 4.1905-9.3599 9.3598-9.3599S21.3632 6.8307 21.3632 12s-4.1905 9.3598-9.3598 9.3598S2.6436 17.1693 2.6436 12Z"/>
  <path d="m11.1698 13.2222 4.0355-4.0354 1.0606 1.0606-5.0961 5.0962-3.436-3.4359 1.0607-1.0606 2.3753 2.3751Z"/>
</g></svg>