<svg xmlns="http://www.w3.org/2000/svg" data-laicon-version="15.0" viewBox="0 0 20 20" fill="black"><g transform="translate(-2 -2)">
  <path d="m8.2117 5.031-3.113 3.0003-2.1373-2.025 1.0317-1.0888 1.0967 1.039 2.081-2.0056 1.041 1.08ZM20.5 6.95h-10v-1.5h10v1.5ZM8.2117 11.021l-3.113 3.0003-2.1373-2.0249 1.0317-1.0889 1.0967 1.0391 2.081-2.0057 1.041 1.0801ZM20.5 12.851h-10v-1.5h10v1.5ZM8.2116 17.049l-3.113 2.9992-2.1372-2.0249 1.0317-1.0888 1.0968 1.0391 2.081-2.0048 1.0407 1.0802ZM20.5 18.7549h-10v-1.5h10v1.5Z"/>
</g></svg>