<svg xmlns="http://www.w3.org/2000/svg" data-laicon-version="15.0" viewBox="0 0 20 20" fill="black"><g transform="translate(-2 -2)">
  <path d="m11.1699 15.3441-3.436-3.436 1.06-1.061 2.376 2.376 4.035-4.036 1.061 1.06-5.096 5.097Z"/>
  <path d="M11.9998 20.95c-1.676 0-3.338-.101-4.941-.3-1.943-.239-3.469-1.765-3.71-3.709-.199-1.608-.3-3.271-.3-4.941 0-1.671.101-3.334.3-4.941.241-1.945 1.767-3.471 3.71-3.709 3.197-.397 6.685-.398 9.882 0 1.943.238 3.47 1.764 3.71 3.709.199 1.612.3 3.274.3 4.941 0 1.667-.101 3.329-.3 4.94-.24 1.945-1.767 3.471-3.71 3.71-1.603.2-3.265.3-4.941.3Zm0-16.4c-1.618 0-3.219.097-4.757.288-1.26.155-2.249 1.144-2.406 2.405-.191 1.547-.288 3.147-.288 4.757 0 1.609.097 3.21.288 4.757.157 1.261 1.146 2.25 2.406 2.405 3.085.383 6.43.383 9.514 0a2.7616 2.7616 0 0 0 2.406-2.405c.191-1.551.288-3.151.288-4.757 0-1.606-.097-3.207-.288-4.757a2.7595 2.7595 0 0 0-2.406-2.404c-1.538-.192-3.139-.289-4.757-.289Z"/>
</g></svg>