<svg xmlns="http://www.w3.org/2000/svg" data-laicon-version="15.0" viewBox="0 0 20 20" fill="black"><g transform="translate(-2 -2)">
  <path d="M11.9999 4.15c-4.3354 0-7.85 3.5145-7.85 7.85 0 4.3354 3.5146 7.85 7.85 7.85s7.85-3.5146 7.85-7.85c0-4.3355-3.5146-7.85-7.85-7.85ZM2.6499 12c0-5.1639 4.1861-9.35 9.35-9.35s9.35 4.1861 9.35 9.35-4.1861 9.35-9.35 9.35-9.35-4.1861-9.35-9.35Z"/>
  <path d="m12.0039 12.3886-2.3976-2.3658-1.0536 1.0677 3.4535 3.4077 3.4395-3.4089-1.0559-1.0654-2.3859 2.3647Z"/>
</g></svg>