<svg xmlns="http://www.w3.org/2000/svg" data-laicon-version="15.0" viewBox="0 0 20 20" fill="black"><g transform="translate(-2 -2)">
  <path d="M11.9999 4.15c-4.3354 0-7.85 3.5145-7.85 7.85 0 4.3354 3.5146 7.85 7.85 7.85s7.85-3.5146 7.85-7.85c0-4.3355-3.5146-7.85-7.85-7.85ZM2.6499 12c0-5.1639 4.1861-9.35 9.35-9.35s9.35 4.1861 9.35 9.35-4.1861 9.35-9.35 9.35-9.35-4.1861-9.35-9.35Z"/>
  <path d="m11.6115 12.004 2.3658-2.3976-1.0677-1.0535-3.4076 3.4534 3.4088 3.4395 1.0654-1.0559-2.3647-2.3859Z"/>
</g></svg>