<svg xmlns="http://www.w3.org/2000/svg" data-laicon-version="15.0" viewBox="0 0 20 20" fill="black"><g transform="translate(-2 -2)">
  <path d="M7.5918 5.2501C6.2985 5.2501 5.25 6.2986 5.25 7.592c0 1.2934 1.0485 2.3418 2.3418 2.3418 1.2933 0 2.3418-1.0484 2.3418-2.3418 0-1.2933-1.0485-2.3418-2.3418-2.3418ZM3.75 7.592c0-2.1217 1.72-3.8418 3.8418-3.8418 2.1218 0 3.8418 1.72 3.8418 3.8418 0 2.1218-1.72 3.8418-3.8418 3.8418-2.1218 0-3.8418-1.72-3.8418-3.8418Zm12.6582-2.3419c-1.2933 0-2.3418 1.0485-2.3418 2.3418 0 1.2934 1.0485 2.3418 2.3418 2.3418 1.2933 0 2.3418-1.0484 2.3418-2.3418 0-1.2933-1.0485-2.3418-2.3418-2.3418ZM12.5664 7.592c0-2.1217 1.72-3.8418 3.8418-3.8418 2.1218 0 3.8418 1.72 3.8418 3.8418 0 2.1218-1.72 3.8418-3.8418 3.8418-2.1218 0-3.8418-1.72-3.8418-3.8418Zm-4.9746 6.4743c-1.2933 0-2.3418 1.0485-2.3418 2.3418 0 1.2933 1.0485 2.3418 2.3418 2.3418 1.2933 0 2.3418-1.0485 2.3418-2.3418 0-1.2933-1.0485-2.3418-2.3418-2.3418ZM3.75 16.4081c0-2.1218 1.72-3.8418 3.8418-3.8418 2.1218 0 3.8418 1.72 3.8418 3.8418 0 2.1218-1.72 3.8418-3.8418 3.8418-2.1218 0-3.8418-1.72-3.8418-3.8418Zm12.6582-2.3418c-1.2933 0-2.3418 1.0485-2.3418 2.3418 0 1.2933 1.0485 2.3418 2.3418 2.3418 1.2933 0 2.3418-1.0485 2.3418-2.3418 0-1.2933-1.0485-2.3418-2.3418-2.3418Zm-3.8418 2.3418c0-2.1218 1.72-3.8418 3.8418-3.8418 2.1218 0 3.8418 1.72 3.8418 3.8418 0 2.1218-1.72 3.8418-3.8418 3.8418-2.1218 0-3.8418-1.72-3.8418-3.8418Z"/>
</g></svg>