<svg xmlns="http://www.w3.org/2000/svg" data-laicon-version="15.0" viewBox="0 0 20 20" fill="black"><g transform="translate(-2 -2)">
  <path d="M12 4.5c-4.1421 0-7.5 3.3579-7.5 7.5s3.3579 7.5 7.5 7.5 7.5-3.3579 7.5-7.5-3.3579-7.5-7.5-7.5ZM3 12c0-4.9706 4.0294-9 9-9s9 4.0294 9 9-4.0294 9-9 9-9-4.0294-9-9Z"/>
  <path d="M11.1598 10.9502c-.41 0-.78.11-1.1.31l.11-1.14h2.41c.12 0 .2-.08.2-.2v-.81c0-.12-.08-.2-.2-.2h-3.22c-.12 0-.19.07-.2.19l-.27 2.99c-.01.1.04.19.13.23l.46.22c.08.04.17.04.25-.02.4-.3.72-.43 1.12-.43.58 0 .94.34.94.89s-.36.85-.93.85c-.48 0-.84-.25-1.01-.7-.04-.11-.13-.16-.25-.13l-.78.19c-.06.02-.11.05-.13.1-.02.05-.03.1 0 .15.31 1.03 1.15 1.65 2.24 1.65 1.29 0 2.19-.86 2.19-2.1 0-1.24-.78-2.04-1.93-2.04h-.03ZM7.29 13.5903c-.43 0-.75.31-.75.73s.32.73.75.73.75-.31.75-.73-.32-.73-.75-.73Zm9.01-.8402 1.36 1.94c.04.07.05.14.02.2-.03.06-.09.09-.17.09h-.95c-.09 0-.16-.03-.21-.1l-.83-1.24-.84 1.23c-.06.08-.13.11-.21.11h-.89c-.08 0-.14-.03-.17-.09-.03-.05-.02-.12.02-.19l1.36-1.94-1.28-1.83c-.04-.07-.05-.14-.02-.2.03-.06.09-.09.17-.09h.95c.09 0 .16.03.21.1l.75 1.12.76-1.11c.06-.08.13-.11.21-.11h.89c.08 0 .14.03.17.09.03.05.02.12-.02.19l-1.28 1.83Z"/>
</g></svg>