<svg xmlns="http://www.w3.org/2000/svg" data-laicon-version="15.0" viewBox="0 0 20 20" fill="black"><g transform="translate(-2 -2)">
  <path d="M12 4.5c-4.1421 0-7.5 3.3579-7.5 7.5s3.3579 7.5 7.5 7.5 7.5-3.3579 7.5-7.5-3.3579-7.5-7.5-7.5ZM3 12c0-4.9706 4.0294-9 9-9s9 4.0294 9 9-4.0294 9-9 9-9-4.0294-9-9Z"/>
  <path d="M9.63 13.82h2.05v.01c.12 0 .21.09.21.21v.86c0 .12-.09.21-.21.21h-4.1c-.12 0-.21-.09-.21-.21v-.28c0-.07.02-.14.07-.2l1.54-1.74c1.07-1.2 1.33-1.62 1.33-2.14 0-.41-.31-.67-.81-.67-.45 0-.78.26-.96.75-.04.12-.13.17-.25.14l-.87-.24c-.08-.02-.13-.06-.14-.1a.765.765 0 0 0-.0036-.0137c-.0102-.0378-.023-.0852.0036-.1563.34-1.07 1.2-1.71 2.29-1.71 1.28 0 2.14.76 2.14 1.88 0 .93-.39 1.61-1.74 3.04l-.34.36Zm5.7802-1.08 1.45 2.07-.02.01c.04.07.05.14.02.2-.03.06-.09.09-.17.09h-1.01c-.08 0-.16-.04-.21-.11l-.89-1.32-.89 1.31c-.06.07-.14.11-.22.11h-.94c-.08 0-.14-.03-.17-.09s-.02-.13.02-.2l1.45-2.07-1.36-1.95c-.04-.07-.05-.14-.02-.2.03-.06.09-.09.17-.09h1.01c.08 0 .15.04.21.11l.81 1.19.81-1.19c.06-.07.14-.11.22-.11h.94c.08 0 .14.03.17.09s.02.13-.02.2l-1.36 1.95Z"/>
</g></svg>