<svg xmlns="http://www.w3.org/2000/svg" data-laicon-version="15.0" viewBox="0 0 20 20" fill="black"><g transform="translate(-2 -2)">
  <path d="M12 4.5c-4.1421 0-7.5 3.3579-7.5 7.5s3.3579 7.5 7.5 7.5 7.5-3.3579 7.5-7.5-3.3579-7.5-7.5-7.5ZM3 12c0-4.9706 4.0294-9 9-9s9 4.0294 9 9-4.0294 9-9 9-9-4.0294-9-9Z"/>
  <path d="M9.679 8.7384c.067-.0652.1383-.0773.2037-.0773h.663c.0551 0 .1101.0177.1515.059.0414.0415.059.0964.059.1515v6.018c0 .0551-.0176.1101-.059.1515-.0414.0414-.0964.059-.1515.059h-.9265c-.055 0-.11-.0176-.1515-.059-.0414-.0414-.059-.0964-.059-.1515v-4.4514l-1.001.396c-.0463.0195-.1014.0273-.1563.0059-.0541-.0212-.091-.0644-.1151-.1122l-.1648-.3122c-.0183-.0427-.028-.0917-.0174-.1428.0108-.0519.0403-.0937.079-.1261l1.646-1.4084Zm1.9739 1.8518c.0368-.0706.1114-.0931.1736-.0931h1.0115c.0948 0 .1645.0435.2141.1056l.0051.0063.8012 1.187.8138-1.1935c.0497-.0621.1195-.1054.2143-.1054h.9435c.0623 0 .1369.0225.1737.0931.0366.0702.0132.1449-.0225.1984l-.0012.0018-1.3624 1.9487 1.4487 2.0695c.0356.0536.059.1283.0224.1985-.0368.0705-.1114.093-.1737.093h-1.0115c-.0948 0-.1644-.0434-.214-.1055l-.0051-.0064-.8862-1.3143-.8988 1.3209c-.0497.0621-.1196.1053-.2144.1053h-.9435c-.0622 0-.1368-.0225-.1736-.093-.0366-.0702-.0132-.1449.0224-.1984l.0013-.0019 1.4474-2.0677-1.3637-1.9505c-.0357-.0535-.059-.1282-.0224-.1984Z"/>
</g></svg>