<svg xmlns="http://www.w3.org/2000/svg" data-laicon-version="15.0" viewBox="0 0 20 20" fill="black"><g transform="translate(-2 -2)">
  <path d="M8.5 11.7502c-1.795 0-3.25 1.4551-3.25 3.25s1.455 3.25 3.25 3.25c1.2226 0 2.2887-.6748 2.8442-1.6759l1.3116.7278c-.8092 1.4583-2.3664 2.4481-4.1558 2.4481-2.6234 0-4.75-2.1267-4.75-4.75 0-2.6234 2.1266-4.75 4.75-4.75 1.7894 0 3.3466.9897 4.1558 2.4481l-1.3116.7278c-.5555-1.0011-1.6216-1.6759-2.8442-1.6759Z"/>
  <path d="M15.5 11.7502c-1.7949 0-3.25 1.4551-3.25 3.25s1.4551 3.25 3.25 3.25c1.795 0 3.25-1.4551 3.25-3.25s-1.455-3.25-3.25-3.25Zm-4.75 3.25c0-2.6234 2.1267-4.75 4.75-4.75 2.6234 0 4.75 2.1266 4.75 4.75 0 2.6233-2.1266 4.75-4.75 4.75-2.6233 0-4.75-2.1267-4.75-4.75Z"/>
  <path d="M11.9999 5.7501c-1.7949 0-3.2499 1.4551-3.2499 3.25a3.232 3.232 0 0 0 .4343 1.6244l-1.2984.7511A4.7312 4.7312 0 0 1 7.25 9.0001c0-2.6233 2.1266-4.75 4.7499-4.75 2.6234 0 4.7501 2.1267 4.7501 4.75 0 .864-.2314 1.6761-.636 2.3755l-1.2983-.7511a3.2309 3.2309 0 0 0 .4342-1.6244c0-1.7949-1.455-3.25-3.25-3.25Z"/>
</g></svg>