<svg xmlns="http://www.w3.org/2000/svg" data-laicon-version="15.0" viewBox="0 0 20 20" fill="black"><g transform="translate(-2 -2)">
  <path d="M8.8078 8.6067a.905.905 0 1 1 0 1.81.905.905 0 0 1 0-1.81Zm-.0029 7.1312a.9047.9047 0 0 1 .905.905.905.905 0 1 1-.905-.905Zm0-3.5192a.9047.9047 0 0 1 .905.905.905.905 0 1 1-.905-.905Zm7.1145 5.2654h-4.9809v-1.5h4.9809v1.5Zm0-7.2223h-4.9809v-1.5h4.9809v1.5Zm0 3.6119h-4.9809v-1.5h4.9809v1.5Z"/>
  <path d="M5.5767 5.3557v14.2667h12.8461V5.3557H14.966v-1.5h3.7087c.6885 0 1.2481.5604 1.2481 1.2484v14.77c0 .688-.5596 1.2483-1.2481 1.2483h-13.35c-.6884 0-1.248-.5603-1.248-1.2483v-14.77c0-.688.5596-1.2484 1.248-1.2484h3.95v1.5h-3.698Z"/>
  <path d="M8.4058 3.6276a.75.75 0 0 1 .75-.75h5.6888a.75.75 0 0 1 .75.75v2.1509a.7502.7502 0 0 1-.75.75H9.1558a.75.75 0 0 1-.75-.75v-2.151Zm1.5.75v.6509h4.1888v-.651H9.9058Z"/>
</g></svg>