<svg xmlns="http://www.w3.org/2000/svg" data-laicon-version="15.0" viewBox="0 0 20 20" fill="black"><g transform="translate(-2 -2)">
  <path d="M7.1142 8.1867C7.8347 6.2653 9.8356 4.9 12.2165 4.9c2.088 0 4.4533 1.0926 5.2014 3.283.3373.8006.3483 1.4142.3486 2.1533 2.4259.3516 4.1307 2.3272 3.8966 4.7848l-.0007.0074c-.2495 2.3698-2.4577 3.9715-4.9459 3.9715h-8.2c-2.9891 0-5.6676-1.8936-6.1398-4.7267l-.0016-.0092c-.4676-3.0399 1.8313-5.636 4.7141-6.1368l.0119-.0056.0131-.035Zm1.4396.4376c-.0537.3603-.2683.6052-.4623.7507-.1526.1145-.365.2116-.4247.2389-.0076.0035-.0127.0058-.015.007l-.105.0525-.1163.0179c-2.2628.3481-3.8966 2.3213-3.5735 4.44C4.187 16.096 6.1075 17.6 8.5165 17.6h8.2c1.91 0 3.3011-1.1962 3.4537-2.6248.1549-1.6465-.9974-3.0124-2.8216-3.1783l-.141-.0128-.1265-.0633c-.3528-.1764-.8146-.5888-.8146-1.2708 0-.8002-.006-1.16-.2394-1.7045l-.0123-.0287-.0098-.0296C15.5418 7.2976 13.919 6.4 12.2165 6.4c-1.7767 0-3.1528.987-3.6627 2.2243Z"/>
</g></svg>