<svg xmlns="http://www.w3.org/2000/svg" data-laicon-version="15.0" viewBox="0 0 20 20" fill="black"><g transform="translate(-2 -2)">
  <path d="M21.7001 15.1491c-.2 2.3-2.3 3.8-4.7 4v-1.5c1.8-.1 3-1.2 3.2-2.6.2-1.6-1-3-2.8-3.2h-.1l-.1-.1c-.4-.2-.8-.6-.8-1.3 0-.8 0-1.2-.2-1.7-.5-1.4-2.1-2.3-3.8-2.3-1.8 0-3.2 1-3.7 2.2-.2.3-.4.6-.6.7l-.4.2-.1.1h-.1c-2.3.3-3.9 2.3-3.6 4.4.3 1.5 1.5 2.8 3.1 3.2v1.5c-2.3-.5-4.2-2.2-4.6-4.5-.5-3 1.8-5.6 4.7-6.1.7-1.9 2.7-3.2 5.1-3.2 2.1 0 4.5 1.1 5.2 3.3.3.8.3 1.4.3 2.2 2.5.2 4.2 2.2 4 4.7Z"/>
  <path d="m11.3001 18.9491-2.1-2.1-1.1 1.1 3.9 3.9 3.9-3.9-1.1-1.1-2.1 2.1v-5.7h-1.5v5.7h.1Z"/>
</g></svg>