<svg xmlns="http://www.w3.org/2000/svg" data-laicon-version="16.12" viewBox="0 0 20 20" fill="black"><g transform="translate(-2 -2)">
  <path d="m12.272 7.818-2 8 1.456.364 2-8-1.456-.364ZM9.607 9.691 8.393 8.81 6.073 12l2.32 3.191 1.214-.882L7.927 12l1.68-2.309Zm6-.882-1.214.882L16.073 12l-1.68 2.309 1.213.882L17.928 12l-2.32-3.191Z"/>
  <path d="M6 3.25A2.75 2.75 0 0 0 3.25 6v12A2.75 2.75 0 0 0 6 20.75h12A2.75 2.75 0 0 0 20.75 18V6A2.75 2.75 0 0 0 18 3.25H6ZM4.75 6c0-.69.56-1.25 1.25-1.25h12c.69 0 1.25.56 1.25 1.25v12c0 .69-.56 1.25-1.25 1.25H6c-.69 0-1.25-.56-1.25-1.25V6Z"/>
</g></svg>