<svg xmlns="http://www.w3.org/2000/svg" data-laicon-version="16.11" viewBox="0 0 20 20" fill="black"><g transform="translate(-2 -2)">
  <path d="M4.25 7a2.75 2.75 0 0 1 5.5 0v1.25h4.5V7A2.75 2.75 0 1 1 17 9.75h-1.25v4.5H17A2.75 2.75 0 1 1 14.25 17v-1.25h-4.5V17A2.75 2.75 0 1 1 7 14.25h1.25v-4.5H7A2.75 2.75 0 0 1 4.25 7Zm4 1.25V7A1.25 1.25 0 1 0 7 8.25h1.25Zm1.5 6h4.5v-4.5h-4.5v4.5Zm-1.5 1.5H7A1.25 1.25 0 1 0 8.25 17v-1.25Zm7.5 0V17A1.25 1.25 0 1 0 17 15.75h-1.25Zm0-7.5H17A1.25 1.25 0 1 0 15.75 7v1.25Z"/>
</g></svg>