<svg xmlns="http://www.w3.org/2000/svg" data-laicon-version="15.0" viewBox="0 0 20 20" fill="black"><g transform="translate(-2 -2)">
  <path d="M7.9976 3.9746a.75.75 0 0 1 .75-.75h6.522a.75.75 0 0 1 0 1.5h-6.522a.75.75 0 0 1-.75-.75Zm8.3068 9.3086h-8.591v-1.5h8.591v1.5Z"/>
  <path d="M9.2369 3.975a.75.75 0 0 1 .75-.75h4.027a.75.75 0 0 1 .75.75v4.6129l6.0573 10.3037c.0001.0001 0-.0001 0 0 .4908.8343-.113 1.8834-1.0773 1.8834H4.2569c-.9667 0-1.5678-1.0499-1.0776-1.8832 0-.0001 0 .0001 0 0L9.237 8.5878V3.975Zm1.5.75v4.067a.7494.7494 0 0 1-.1035.38L4.6941 19.275h14.6126L13.3673 9.172a.7503.7503 0 0 1-.1034-.38V4.725h-2.527Zm8.7914 14.9271c.0001 0 0 0 0 0Z"/>
</g></svg>