<svg xmlns="http://www.w3.org/2000/svg" data-laicon-version="15.0" viewBox="0 0 20 20" fill="black"><g transform="translate(-2 -2)">
  <path d="M3.0996 3.05a.75.75 0 0 1 .75-.75h12.99a.75.75 0 0 1 .75.75V6.5h-1.5V3.8h-11.49v13.08H7v1.5H3.8496a.75.75 0 0 1-.75-.75V3.05Z"/>
  <path d="M6.42 6.36a.75.75 0 0 1 .75-.75h12.9799a.75.75 0 0 1 .75.75v11.1807L16.7407 21.7H7.1699a.75.75 0 0 1-.75-.75V6.36Zm1.5.75V20.2h8.1993l3.2806-3.2807V7.11h-11.48Z"/>
  <path d="M14.1296 10.1899h-4.53v-1.5h4.53v1.5Zm0 2.2001h-4.53v-1.5h4.53v1.5Zm1.1702 3.71h5.5v1.5h-4v4h-1.5v-5.5Z"/>
</g></svg>