<svg xmlns="http://www.w3.org/2000/svg" data-laicon-version="15.0" viewBox="0 0 20 20" fill="black"><g transform="translate(-2 -2)">
  <path d="M3.0996 3.05a.75.75 0 0 1 .75-.75h12.99a.75.75 0 0 1 .75.75V6.5h-1.5V3.8h-11.49v13.08H7v1.5H3.8496a.75.75 0 0 1-.75-.75V3.05Z"/>
  <path d="M6.42 6.36a.75.75 0 0 1 .75-.75h12.9799a.75.75 0 0 1 .75.75L20.9 20.95a.7497.7497 0 0 1-.75.75H7.17a.75.75 0 0 1-.75-.75V6.36Zm1.5.75V20.2H19.4l-.0001-13.09h-11.48Z"/>
  <path d="M14.1296 10.1899h-4.53v-1.5h4.53v1.5Zm0 2.2001h-4.53v-1.5h4.53v1.5Z"/>
</g></svg>