<svg xmlns="http://www.w3.org/2000/svg" data-laicon-version="15.0" viewBox="0 0 20 20" fill="black"><g transform="translate(-2 -2)">
  <path d="m16.3572 10.4044-4.0565 4.0564-.8486-.8486 4.0565-4.0564.8486.8486ZM12.2019 10.1a.2016.2016 0 1 0 0 .4032.2016.2016 0 0 0 0-.4032Zm-1.4016.2016c0-.774.6275-1.4016 1.4016-1.4016.774 0 1.4016.6275 1.4016 1.4016s-.6276 1.4016-1.4016 1.4016c-.7741 0-1.4016-.6275-1.4016-1.4016Zm4.8113 3.2085a.2016.2016 0 1 0 0 .4032.2016.2016 0 0 0 0-.4032Zm-1.4016.2016c0-.7741.6275-1.4016 1.4016-1.4016s1.4016.6275 1.4016 1.4016-.6275 1.4016-1.4016 1.4016-1.4016-.6275-1.4016-1.4016ZM5.8809 7.0306V4.753h1.5v2.2777h-1.5Zm0 4.0722V8.8251h1.5v2.2777h-1.5Zm0 4.0721v-2.2777h1.5v2.2777h-1.5Zm0 4.0722v-2.2777h1.5v2.2777h-1.5Z"/>
  <path d="M3.9502 5.503v12.994h16.1V5.503h-16.1Zm-1.5-.25c0-.6904.5597-1.25 1.25-1.25h16.6c.6903 0 1.25.5596 1.25 1.25v13.494c0 .6902-.5595 1.25-1.25 1.25h-16.6c-.6903 0-1.25-.5597-1.25-1.25V5.253Z"/>
</g></svg>