<svg xmlns="http://www.w3.org/2000/svg" data-laicon-version="15.0" viewBox="0 0 20 20" fill="black"><g transform="translate(-2 -2)">
  <path d="M3.75 5.8686v12.2626h16.5V5.8686H3.75Zm-1.5-.25c0-.6902.5595-1.25 1.25-1.25h17c.6905 0 1.25.5598 1.25 1.25v12.7626c0 .6902-.5595 1.25-1.25 1.25h-17c-.6905 0-1.25-.5598-1.25-1.25V5.6186Z"/>
  <path d="M5.92 7.38V5.1188h1.5V7.38h-1.5Zm0 3.8337V8.9525h1.5v2.2612h-1.5Zm0 3.8338v-2.2612h1.5v2.2612h-1.5Zm0 3.8337V16.62h1.5v2.2612h-1.5Zm3.4423-8.9359a.1776.1776 0 0 1 .1776-.1777h1.3081c.7746 0 1.3774.6016 1.3774 1.3503 0 .7489-.6028 1.3503-1.3774 1.3503h-.5188v1.0145a.1777.1777 0 0 1-.1777.1776h-.6116a.1777.1777 0 0 1-.1776-.1776V9.9453Zm.9668.7351v.8752h.5188c.2349 0 .4105-.1859.4105-.4377 0-.2517-.1756-.4375-.4105-.4375h-.5188Zm1.9541 1.5754c0-.8308.6034-1.4804 1.3449-1.4804.3212 0 .5726.0947.7573.2589v-.0658a.1172.1172 0 0 1 .1172-.1173h.6783a.1173.1173 0 0 1 .1172.1173v2.5746a.1172.1172 0 0 1-.1172.1171h-.6783a.117.117 0 0 1-.1172-.1171v-.0659c-.1847.1641-.4361.2588-.7573.2588-.7415 0-1.3449-.6498-1.3449-1.4802Zm1.0803-.4477c-.1039.1039-.1675.2558-.1675.4477 0 .1917.0636.3436.1675.4474.1039.1039.2518.1635.4272.1635.1753 0 .3232-.0596.4271-.1635.1039-.1038.1676-.2557.1676-.4474 0-.1919-.0637-.3438-.1676-.4477-.1039-.1039-.2518-.1634-.4271-.1634-.1754 0-.3233.0595-.4272.1634ZM15.7374 10.85a.1171.1171 0 0 0-.1084.1616l1.0683 2.6044-.3847.969a.1173.1173 0 0 0 .1089.1605h.692a.1623.1623 0 0 0 .1506-.1024l1.4421-3.6328a.117.117 0 0 0-.1089-.1602h-.6919a.162.162 0 0 0-.1505.1022l-.578 1.4559-.5979-1.4577a.162.162 0 0 0-.1499-.1005h-.6917Z"/>
</g></svg>