<svg xmlns="http://www.w3.org/2000/svg" data-laicon-version="15.0" viewBox="0 0 20 20" fill="black"><g transform="translate(-2 -2)">
  <path d="M3.5 5.9h17v3.5205c-1.1006.341-1.9 1.3669-1.9 2.5795s.7994 2.2386 1.9 2.5795V18.1h-17v-3.5205C4.6006 14.2386 5.4 13.2126 5.4 12s-.7994-2.2386-1.9-2.5795V5.9ZM22 5.4c0-.5523-.4477-1-1-1H3c-.5523 0-1 .4477-1 1v5.4h.7c.6627 0 1.2.5373 1.2 1.2s-.5373 1.2-1.2 1.2H2v5.4c0 .5523.4477 1 1 1h18c.5523 0 1-.4477 1-1v-5.4h-.7c-.6627 0-1.2-.5373-1.2-1.2s.5373-1.2 1.2-1.2h.7V5.4Z"/>
  <path d="M7.082 8.0876v-1.3h1.4v1.3h-1.4Zm0 2.2803v-1.3h1.4v1.3h-1.4Zm0 2.2803v-1.2999h1.4v1.2999h-1.4Zm0 2.2804v-1.3001h1.4v1.3001h-1.4Zm0 2.2803v-1.3001h1.4v1.3001h-1.4Z"/>
</g></svg>