<svg xmlns="http://www.w3.org/2000/svg" data-laicon-version="15.0" viewBox="0 0 20 20" fill="black"><g transform="translate(-2 -2)">
  <path d="M5.8809 7.0306V4.753h1.5v2.2777h-1.5Zm0 4.0722V8.8251h1.5v2.2777h-1.5Zm0 4.0721v-2.2777h1.5v2.2777h-1.5Zm0 4.0722v-2.2777h1.5v2.2777h-1.5ZM13.9048 8.968l-.9041 1.832-2.0217.2938 1.4629 1.4259-.3454 2.0135 1.8083-.9507 1.8083.9507-.3453-2.0135 1.4629-1.4259L14.809 10.8l-.9042-1.8319Z"/>
  <path d="M3.9502 5.503v12.994h16.1V5.503h-16.1Zm-1.5-.25c0-.6903.5595-1.25 1.25-1.25h16.6c.6903 0 1.25.5596 1.25 1.25v13.494c0 .6902-.5595 1.25-1.25 1.25h-16.6c-.6905 0-1.25-.5598-1.25-1.25V5.253Z"/>
</g></svg>