<svg xmlns="http://www.w3.org/2000/svg" data-laicon-version="15.0" viewBox="0 0 20 20" fill="black"><g transform="translate(-2 -2)">
  <path d="M13.1582 15.7322V8.2678h1.2v7.4644h-1.2Z"/>
  <path d="M11.5278 8.9353h2.7317c1.0119 0 1.8324.8203 1.8324 1.8324 0 .3959-.1256.7625-.3391 1.0622.3993.3361.6531.8396.6531 1.4024 0 1.012-.8204 1.8324-1.8324 1.8324h-3.0457V8.9353Zm1.2 3.6647v1.2647h1.8457a.6324.6324 0 1 0 0-1.2647h-1.8457Zm0-1.2h1.5317a.6324.6324 0 1 0 0-1.2647h-1.5317V11.4ZM5.8809 7.0306V4.753h1.5v2.2777h-1.5Zm0 4.0722V8.8251h1.5v2.2777h-1.5Zm0 4.0721v-2.2777h1.5v2.2777h-1.5Zm0 4.0722v-2.2777h1.5v2.2777h-1.5Z"/>
  <path d="M3.9502 5.503v12.994h16.1V5.503h-16.1Zm-1.5-.25c0-.6903.5595-1.25 1.25-1.25h16.6c.6903 0 1.25.5596 1.25 1.25v13.494c0 .6902-.5595 1.25-1.25 1.25h-16.6c-.6905 0-1.25-.5598-1.25-1.25V5.253Z"/>
</g></svg>