<svg xmlns="http://www.w3.org/2000/svg" data-laicon-version="18.4" viewBox="0 0 20 20" fill="black"><g transform="translate(-2 -2)">
  <path d="M11.265 7.584a.945.945 0 0 1 1.545.107l2.34 3.898c.062.105.198.14.304.079l3.072-1.787c.721-.42 1.592.232 1.393 1.042l-1.69 6.883a.75.75 0 0 1-.729.571h-11a.75.75 0 0 1-.729-.571l-1.69-6.883c-.198-.81.672-1.461 1.393-1.042l3.073 1.787a.225.225 0 0 0 .305-.08l2.338-3.897.075-.107Zm-1.127 4.777a1.724 1.724 0 0 1-2.345.604L5.85 11.834l1.238 5.043h9.824l1.238-5.043-1.942 1.13a1.724 1.724 0 0 1-2.345-.603L12 9.256l-1.862 3.105ZM3.43 7.451a1.1 1.1 0 1 1 0 2.2 1.1 1.1 0 0 1 0-2.2Zm17.144-.001a1.1 1.1 0 1 1-.001 2.2 1.1 1.1 0 0 1 .001-2.2Zm-8.573-3.1A1.1 1.1 0 1 1 12 6.55a1.1 1.1 0 0 1 0-2.2Z"/>
</g></svg>