<svg xmlns="http://www.w3.org/2000/svg" data-laicon-version="15.0" viewBox="0 0 20 20" fill="black"><g transform="translate(-2 -2)">
  <path d="m13.6249 2.7708 5.5385 3.1976a3.25 3.25 0 0 1 1.625 2.8146v6.3953a3.2496 3.2496 0 0 1-1.625 2.8145l-5.5385 3.1976a3.2498 3.2498 0 0 1-3.25 0l-5.5385-3.1976a3.25 3.25 0 0 1-1.625-2.8145V8.783a3.25 3.25 0 0 1 1.625-2.8146l5.5385-3.1976a3.25 3.25 0 0 1 3.25 0Zm-.75 1.299a1.75 1.75 0 0 0-1.75 0L5.5864 7.2674a1.75 1.75 0 0 0-.875 1.5156v6.3953a1.75 1.75 0 0 0 .875 1.5155l5.5385 3.1976a1.75 1.75 0 0 0 1.75 0l5.5385-3.1976h.0001a1.75 1.75 0 0 0 .8749-1.5155V8.783a1.75 1.75 0 0 0-.875-1.5156l-5.5385-3.1976Z"/>
  <path d="M12 11.2307a.75.75 0 0 1 .75.75v8.8953a.75.75 0 0 1-1.5 0v-8.8953a.75.75 0 0 1 .75-.75Z"/>
  <path d="M20.3532 7.158a.75.75 0 0 1-.2745 1.0245l-7.7036 4.4477a.75.75 0 0 1-.75-1.299l7.7036-4.4478a.75.75 0 0 1 1.0245.2746Z"/>
  <path d="M3.6475 7.1582a.75.75 0 0 1 1.0245-.2745l7.7032 4.4475a.75.75 0 0 1-.75 1.299L3.922 8.1827a.75.75 0 0 1-.2745-1.0245Z"/>
</g></svg>