<svg xmlns="http://www.w3.org/2000/svg" data-laicon-version="15.0" viewBox="0 0 20 20" fill="black"><g transform="translate(-2 -2)">
  <path d="M5.83 5.5014c-.2736.2512-.3266.4354-.3266.5425 0 .1071.053.2913.3266.5425.2743.2516.7125.5128 1.3174.7476 1.2048.4677 2.9203.773 4.8527.773 1.9325 0 3.6479-.3053 4.8528-.773.6049-.2348 1.0431-.496 1.3173-.7476.2737-.2512.3267-.4354.3267-.5425 0-.1071-.053-.2913-.3267-.5425-.2742-.2517-.7124-.5128-1.3173-.7476-1.2049-.4677-2.9203-.773-4.8528-.773-1.9324 0-3.6479.3053-4.8527.773-.6049.2348-1.0431.496-1.3174.7476Zm.7745-2.1459c1.418-.5504 3.3258-.8748 5.3956-.8748s3.9777.3244 5.3957.8748c.7065.2743 1.3295.6194 1.7887 1.0408.4598.422.8124.9779.8124 1.6476s-.3526 1.2256-.8124 1.6476c-.4592.4214-1.0822.7665-1.7887 1.0408-1.418.5504-3.3259.8748-5.3957.8748s-3.9777-.3244-5.3956-.8748C5.898 8.458 5.275 8.1129 4.8158 7.6915c-.4598-.422-.8124-.9779-.8124-1.6476s.3526-1.2256.8124-1.6476c.4592-.4214 1.0822-.7665 1.7887-1.0408Z"/>
  <path d="M5.5034 6.04v11.9132c0 .1071.053.2913.3266.5425.2743.2516.7125.5128 1.3174.7476 1.2048.4677 2.9203.7731 4.8527.7731 1.9325 0 3.6479-.3054 4.8528-.7731.6049-.2348 1.0431-.496 1.3173-.7476.2737-.2512.3267-.4354.3267-.5425V6.04h1.5v11.9132c0 .6697-.3526 1.2256-.8124 1.6476-.4592.4214-1.0822.7665-1.7887 1.0408-1.418.5504-3.3259.8748-5.3957.8748s-3.9777-.3244-5.3956-.8748c-.7065-.2743-1.3295-.6194-1.7887-1.0408-.4598-.422-.8124-.9779-.8124-1.6476V6.04h1.5Z"/>
  <path d="M4.814 11.571c-.4599-.4247-.8106-.9825-.8106-1.653h1.5c0 .1115.0548.2985.3284.5511.2743.2534.7125.5161 1.317.7523 1.2045.4705 2.9194.7777 4.8513.7777 1.932 0 3.6469-.3072 4.8513-.7777.6046-.2362 1.0428-.4989 1.3171-.7523.2735-.2526.3284-.4396.3284-.551h1.5c0 .6704-.3508 1.2282-.8107 1.6529-.459.424-1.0821.7714-1.7889 1.0475-1.4184.5541-3.3269.8806-5.3972.8806-2.0702 0-3.9787-.3265-5.397-.8806-.707-.2761-1.33-.6235-1.789-1.0475Zm.0052 4.0206c-.4596-.4166-.8158-.9687-.8158-1.6372h1.5c0 .0987.0493.2776.3232.5259.274.2484.7124.5065 1.3179.7386 1.2058.4624 2.9223.7642 4.8556.7642 1.9334 0 3.6499-.3018 4.8557-.7642.6055-.2321 1.0439-.4902 1.3178-.7386.2739-.2483.3233-.4272.3233-.5259h1.5c0 .6685-.3563 1.2206-.8158 1.6372-.4594.4165-1.0823.7572-1.7882 1.0279-1.417.5433-3.3239.8636-5.3928.8636-2.0688 0-3.9757-.3203-5.3927-.8636-.706-.2707-1.3288-.6114-1.7882-1.0279Z"/>
  <path d="M6.7103 9.2012a.6117.6117 0 1 0 0 1.2235.6117.6117 0 0 0 0-1.2235Zm0 3.8965a.6117.6117 0 1 0 0 1.2235.6117.6117 0 0 0 0-1.2235Zm0 4.0378a.6117.6117 0 1 0 0 1.2235.6117.6117 0 0 0 0-1.2235Z"/>
</g></svg>