<svg xmlns="http://www.w3.org/2000/svg" data-laicon-version="15.3" viewBox="0 0 20 20" fill="black"><g transform="translate(-2 -2)">
  <path d="M5.25 5a2.75 2.75 0 1 1 3.5 2.646v4.984c.428-.242.923-.38 1.45-.38H14c.69 0 1.25-.56 1.25-1.25V7.646a2.751 2.751 0 1 1 1.5 0V11A2.75 2.75 0 0 1 14 13.75h-3.8c-.8 0-1.45.65-1.45 1.45v1.154a2.751 2.751 0 1 1-1.5 0V7.646A2.751 2.751 0 0 1 5.25 5ZM8 3.75a1.25 1.25 0 1 0 0 2.5 1.25 1.25 0 0 0 0-2.5Zm8 0a1.25 1.25 0 1 0 0 2.5 1.25 1.25 0 0 0 0-2.5ZM6.75 19a1.25 1.25 0 1 0 2.5 0 1.25 1.25 0 0 0-2.5 0Z"/>
</g></svg>