<svg xmlns="http://www.w3.org/2000/svg" data-laicon-version="15.0" viewBox="0 0 20 20" fill="black"><g transform="translate(-2 -2)">
  <path d="M7.3889 3.935c-.6843 0-1.239.5548-1.239 1.239 0 .6843.5547 1.239 1.239 1.239.6843 0 1.239-.5547 1.239-1.239 0-.6842-.5547-1.239-1.239-1.239Zm-2.739 1.239c0-1.5127 1.2263-2.739 2.739-2.739s2.739 1.2264 2.739 2.739c0 1.5128-1.2263 2.739-2.739 2.739s-2.739-1.2262-2.739-2.739Zm2.9387 12.3871c-.6843 0-1.239.5547-1.239 1.239 0 .6842.5547 1.239 1.239 1.239.6843 0 1.239-.5548 1.239-1.239 0-.6843-.5547-1.239-1.239-1.239Zm-2.739 1.239c0-1.5127 1.2263-2.739 2.739-2.739s2.7391 1.2263 2.7391 2.739-1.2264 2.739-2.739 2.739c-1.5128 0-2.739-1.2263-2.739-2.739Z"/>
  <path d="M15.0937 5.924h-5.21v-1.5h5.21c2.3993 0 4.8219 1.5875 4.944 4.0092.1267 2.5053-2.1267 4.3969-4.686 4.3969h-6.216c-.5673 0-.852.3825-.852.653v3.327h-1.5v-3.327c0-1.2796 1.1493-2.153 2.352-2.153h6.216c1.9127 0 3.2613-1.3705 3.188-2.8212h-.0001c-.0679-1.3483-1.5372-2.5848-3.4459-2.5848Z"/>
</g></svg>