<svg xmlns="http://www.w3.org/2000/svg" data-laicon-version="15.0" viewBox="0 0 20 20" fill="black"><g transform="translate(-2 -2)">
  <path d="M17.3562 8.6c.6263 0 1.134-.5076 1.134-1.134 0-.6262-.5077-1.134-1.134-1.134-.6262 0-1.134.5078-1.134 1.134 0 .6264.5078 1.134 1.134 1.134ZM12.653 20.7891c.6263 0 1.134-.5077 1.134-1.134 0-.6263-.5077-1.134-1.134-1.134-.6262 0-1.134.5077-1.134 1.134 0 .6263.5078 1.134 1.134 1.134Zm-8.4082-8.569c.6263 0 1.134-.5077 1.134-1.134 0-.6263-.5077-1.134-1.134-1.134-.6262 0-1.134.5077-1.134 1.134 0 .6263.5078 1.134 1.134 1.134ZM5.3632 17.4501a.913.913 0 1 0 0 1.826.913.913 0 0 0 0-1.826Zm-2.413.913c0-1.3327 1.0803-2.413 2.413-2.413 1.3327 0 2.413 1.0803 2.413 2.413 0 1.3327-1.0803 2.413-2.413 2.413-1.3327 0-2.413-1.0803-2.413-2.413Zm6.413-14.513a.913.913 0 0 0 0 1.826.913.913 0 1 0 0-1.826Zm-2.413.913c0-1.3327 1.0803-2.413 2.413-2.413 1.3327 0 2.413 1.0803 2.413 2.413 0 1.3327-1.0803 2.413-2.413 2.413-1.3327 0-2.413-1.0803-2.413-2.413Zm11.7128 9.187a.913.913 0 0 0-.913.913.913.913 0 1 0 .913-.913Zm-2.413.913c0-1.3327 1.0803-2.413 2.413-2.413 1.3326 0 2.413 1.0803 2.413 2.413 0 1.3327-1.0804 2.413-2.413 2.413-1.3327 0-2.413-1.0803-2.413-2.413Zm-4.587-3.113a.913.913 0 0 0-.913.913.913.913 0 1 0 .913-.913Zm-2.413.913c0-1.3327 1.0803-2.413 2.413-2.413 1.3326 0 2.413 1.0803 2.413 2.413 0 1.3327-1.0804 2.413-2.413 2.413-1.3327 0-2.413-1.0803-2.413-2.413Z"/>
  <path d="m10.58 6.292 1.052 4.4599-1.4599.3444-1.052-4.46 1.4599-.3444Zm6.7501 9.0643-4.354-1.309.4319-1.4364 4.354 1.309-.4319 1.4364Zm-6.5956-.9734-3.601 3.38-1.0266-1.0937 3.601-3.38 1.0266 1.0937Z"/>
</g></svg>