<svg xmlns="http://www.w3.org/2000/svg" data-laicon-version="15.0" viewBox="0 0 20 20" fill="black"><g transform="translate(-2 -2)">
  <path d="m16.8403 16.2097-8.809-9.861 1.1186-.9993 8.809 9.861-1.1186.9993Z"/>
  <path d="m17.9547 9.1106-8.763 9.192-1.0857-1.035 8.763-9.192 1.0857 1.035Z"/>
  <path d="M17.6807 15.2761v-6.237h1.5v6.237h-1.5Zm-.9097-7.2675-7.71-2.386.4435-1.433 7.71 2.386-.4435 1.433ZM6.254 16.7411v-9.894h1.5v9.894h-1.5Zm11.1164 1.4595-7.956 2.258-.4095-1.443 7.956-2.258.4095 1.443Z"/>
  <path d="M7.2379 3.611c-.7152 0-1.295.5799-1.295 1.295 0 .7153.5798 1.295 1.295 1.295s1.295-.5797 1.295-1.295c0-.7151-.5798-1.295-1.295-1.295Zm-2.795 1.295c0-1.5435 1.2513-2.795 2.795-2.795 1.5436 0 2.795 1.2514 2.795 2.795 0 1.5437-1.2514 2.795-2.795 2.795-1.5437 0-2.795-1.2513-2.795-2.795Zm2.795 12.9951c-.7152 0-1.295.5798-1.295 1.295s.5798 1.295 1.295 1.295 1.295-.5798 1.295-1.295-.5798-1.295-1.295-1.295Zm-2.795 1.295c0-1.5437 1.2513-2.795 2.795-2.795 1.5436 0 2.795 1.2513 2.795 2.795 0 1.5436-1.2514 2.795-2.795 2.795-1.5437 0-2.795-1.2514-2.795-2.795ZM18.4308 6.858a.716.716 0 0 0-.716.716.716.716 0 1 0 1.432 0 .716.716 0 0 0-.716-.716Zm-2.216.716c0-1.2238.9921-2.216 2.216-2.216 1.2238 0 2.216.9922 2.216 2.216 0 1.224-.9922 2.216-2.216 2.216-1.2239 0-2.216-.992-2.216-2.216Zm2.216 8.4511a.716.716 0 1 0 0 1.432.716.716 0 0 0 0-1.432Zm-2.216.716c0-1.2239.9921-2.216 2.216-2.216 1.2238 0 2.216.9921 2.216 2.216 0 1.2238-.9922 2.216-2.216 2.216-1.2239 0-2.216-.9922-2.216-2.216Z"/>
</g></svg>