<svg xmlns="http://www.w3.org/2000/svg" data-laicon-version="15.0" viewBox="0 0 20 20" fill="black"><g transform="translate(-2 -2)">
  <path d="m4.0865 5.9843.0007-.002a.0126.0126 0 0 1-.0007.002Zm.0072-.015v10.2165a.0822.0822 0 0 0 .0022.0041c.0096.0182.0304.0474.0653.0791a.4077.4077 0 0 0 .0995.0673c.004.0019.0076.0033.0104.0045h15.5295a.4436.4436 0 0 0 .0984-.1395.2673.2673 0 0 0 .0073-.019V5.9743a.472.472 0 0 0-.071-.0952.5228.5228 0 0 0-.0501-.0468l-.0028-.0023H4.2518a.1304.1304 0 0 0-.0171.007.3311.3311 0 0 0-.0853.062.3297.3297 0 0 0-.0556.0703Zm.1876 10.3749c0 .0001-.0005 0-.0014-.0003l.0014.0003ZM3.0988 4.8284c.262-.2572.6653-.4984 1.1444-.4984h15.6406c.2594 0 .4787.0977.6242.1828.157.0918.2993.2106.4188.3374.2115.2244.4795.6135.4795 1.0784v10.2737c0 .418-.2045.8045-.4202 1.0633-.206.2473-.5899.5752-1.1023.5752H4.2432c-.427 0-.8235-.2192-1.09-.4611-.2746-.2491-.5595-.6579-.5595-1.1774V5.9286c0-.4585.2517-.8515.505-1.1002Z"/>
  <path d="M11.25 20.7288v-3.6434h1.5v3.6434h-1.5Z"/>
  <path d="M16.02 20.8242H8.0166v-1.5H16.02v1.5Z"/>
</g></svg>