<svg xmlns="http://www.w3.org/2000/svg" data-laicon-version="18.1" viewBox="0 0 20 20" fill="black"><g transform="translate(-2 -2)">
  <path d="M15.5 5.75A6.25 6.25 0 1 1 12 17.178a6.25 6.25 0 1 1 0-10.356 6.22 6.22 0 0 1 3.5-1.072Zm-7 1.5a4.75 4.75 0 1 0 2.322 8.893A6.225 6.225 0 0 1 9.25 12c0-1.59.594-3.04 1.572-4.144A4.728 4.728 0 0 0 8.5 7.25Zm7 0c-.844 0-1.636.22-2.323.606A6.225 6.225 0 0 1 14.75 12c0 1.59-.595 3.04-1.573 4.143A4.75 4.75 0 1 0 15.5 7.25ZM12 8.79A4.732 4.732 0 0 0 10.75 12c0 1.238.475 2.364 1.25 3.209A4.731 4.731 0 0 0 13.25 12 4.732 4.732 0 0 0 12 8.79Z"/>
</g></svg>