<svg xmlns="http://www.w3.org/2000/svg" data-laicon-version="15.0" viewBox="0 0 20 20" fill="black"><g transform="translate(-2 -2)">
  <path d="M4.1001 19.2v-11h4.1V4.1h8.4v9.3c.5 0 1 .1 1.5.2V3.9c0-.7-.6-1.3-1.3-1.3h-9.6l-4.6 4.6v12.3c0 .7.6 1.3 1.3 1.3h7.8c-.4-.4-.8-1-1.1-1.5h-6.5v-.1Zm2.6-14v1.5h-1.5l1.5-1.5Zm14.8 12.6c-1-1.9-2.9-3.2-4.9-3.2-2 0-3.9 1.2-4.9 3.2l-.2.3.2.3c1 1.9 2.9 3.2 4.9 3.2 2 0 3.9-1.2 4.9-3.2l.2-.3-.2-.3Zm-5 2.5c-1.3 0-2.6-.8-3.5-2.1.8-1.3 2.1-2.1 3.5-2.1s2.6.8 3.5 2.1c-.8 1.3-2.1 2.1-3.5 2.1Zm1.5-2.1c0 .8-.6 1.4-1.4 1.4-.8 0-1.4-.6-1.4-1.4 0-.8.6-1.4 1.4-1.4.8 0 1.4.6 1.4 1.4Z"/>
</g></svg>