<svg xmlns="http://www.w3.org/2000/svg" data-laicon-version="16.11" viewBox="0 0 20 20" fill="black"><g transform="translate(-2 -2)">
  <path d="M6.03 4.83a1.2 1.2 0 1 1 0 2.4 1.2 1.2 0 0 1 0-2.4Zm5.97 0a1.2 1.2 0 1 1 0 2.4 1.2 1.2 0 0 1 0-2.4Zm0 5.97a1.2 1.2 0 1 1 0 2.4 1.2 1.2 0 0 1 0-2.4Zm0 5.97a1.2 1.2 0 1 1 0 2.4 1.2 1.2 0 0 1 0-2.4Zm5.97-11.94a1.2 1.2 0 1 1 0 2.4 1.2 1.2 0 0 1 0-2.4Zm0 5.97a1.2 1.2 0 1 1 0 2.4 1.2 1.2 0 0 1 0-2.4Zm-11.94 0a1.2 1.2 0 1 1 0 2.4 1.2 1.2 0 0 1 0-2.4Zm0 8.37a1.2 1.2 0 1 1 0-2.4 1.2 1.2 0 0 1 0 2.4Zm11.94 0a1.2 1.2 0 1 1 0-2.4 1.2 1.2 0 0 1 0 2.4Z"/>
</g></svg>