<svg xmlns="http://www.w3.org/2000/svg" data-laicon-version="15.0" viewBox="0 0 20 20" fill="black"><g transform="translate(-2 -2)">
  <path d="M12.1 4.15c-4.3358 0-7.85 3.5142-7.85 7.85 0 4.3358 3.5142 7.85 7.85 7.85 4.3348 0 7.85-3.5143 7.85-7.85 0-4.3357-3.5152-7.85-7.85-7.85ZM2.75 12c0-5.1642 4.1858-9.35 9.35-9.35 5.1631 0 9.35 4.1858 9.35 9.35 0 5.1643-4.1869 9.35-9.35 9.35-5.1642 0-9.35-4.1858-9.35-9.35Z"/>
  <path d="M10.5462 6.1798c-.5393 1.453-.888 3.5106-.888 5.8202 0 2.3096.3487 4.3672.888 5.8203.2707.7294.5751 1.2673.8752 1.6092.3012.3433.5326.4205.6788.4205s.3775-.0772.6788-.4205c.3001-.3419.6044-.8798.8752-1.6092.5393-1.4531.888-3.5107.888-5.8203 0-2.3096-.3487-4.3672-.888-5.8202-.2708-.7295-.5751-1.2674-.8752-1.6093-.3013-.3433-.5326-.4205-.6788-.4205s-.3776.0772-.6788.4205c-.3001.342-.6045.8798-.8752 1.6093ZM10.294 3.581c.4625-.527 1.0709-.931 1.8062-.931.7353 0 1.3437.404 1.8062.931.4637.5284.8471 1.2498 1.154 2.0767.616 1.6594.9818 3.9018.9818 6.3422s-.3658 4.6828-.9818 6.3422c-.3069.8269-.6903 1.5483-1.154 2.0767-.4625.5271-1.0709.9311-1.8062.9311-.7353 0-1.3437-.404-1.8062-.9311-.4637-.5284-.8472-1.2498-1.154-2.0767-.616-1.6594-.9818-3.9018-.9818-6.3422s.3658-4.6828.9817-6.3422c.307-.8269.6904-1.5483 1.1541-2.0767Z"/>
  <path d="M3.2978 9.252a.75.75 0 0 1 .75-.75H20.152a.75.75 0 0 1 0 1.5H4.0479a.75.75 0 0 1-.75-.75Zm0 5.498a.75.75 0 0 1 .75-.75H20.152a.75.75 0 0 1 0 1.5H4.0479a.75.75 0 0 1-.75-.75Z"/>
</g></svg>