<svg xmlns="http://www.w3.org/2000/svg" data-laicon-version="15.0" viewBox="0 0 20 20" fill="black"><g transform="translate(-2 -2)">
  <path d="M6.786 2.904a.992.992 0 0 0-1.191.556l-3.618 8.521-.037.105-.002.005a.9982.9982 0 0 0 .578 1.189l3.18 1.35.13.23.002.001c.985 1.646 2.853 3.293 5.1519 4.515 2.111 1.123 4.27 1.727 6.06 1.758 1.787.03 3.236-.512 3.878-1.72.48-.903.403-1.983-.117-3.1l.776.33.554-1.304-3.047-1.293-1.293 3.046 1.304.554.363-.856c.406.81.459 1.487.208 1.958-.185.348-.539.61-1.038.774-.5.164-1.135.227-1.866.183-1.462-.09-3.286-.608-5.117-1.581-2.286-1.216-4.064-2.866-4.804-4.363l-.117-.235-3.274-1.39 3.279-7.726 11.41 4.843-3.276 7.714-.151-.07c-1.824-.858-3.33-1.87-4.324-2.794-.497-.463-.86-.9-1.073-1.284-.214-.386-.262-.697-.167-.92.082-.193.326-.373.76-.494.429-.12 1.02-.174 1.756-.136l.1.005.074-1.416-.34-.014h-.002c-1.823-.054-3.183.396-3.652 1.502-.447 1.052.123 2.308 1.31 3.526 1.193 1.225 3.041 2.445 5.245 3.443h.002l.556.245.653.277 4.002-9.428.038-.104.001-.006a.9978.9978 0 0 0-.578-1.188l-12.17-5.166-.11-.04-.007-.002Z"/>
  <path d="m10.0398 7.173-2.776-1.178-.631 1.488 2.775 1.178.632-1.488Z"/>
</g></svg>