<svg xmlns="http://www.w3.org/2000/svg" data-laicon-version="15.0" viewBox="0 0 20 20" fill="black"><g transform="translate(-2 -2)">
  <path d="M15.5394 4.34H5.6826c-.9662 0-1.75.7838-1.75 1.75v12.701c0 .9662.7838 1.75 1.75 1.75h12.701c.9662 0 1.75-.7838 1.75-1.75V9.0405l-1.5 1.5v8.2505c0 .1378-.1122.25-.25.25H5.6826a.2504.2504 0 0 1-.25-.25V6.09c0-.1378.1122-.25.25-.25h8.3566l1.5002-1.5Z"/>
  <path d="M18.7873 2.9313 21.597 5.739 12.6361 14.7H9.8203v-2.8027l8.967-8.966Zm.0003 2.1209-7.4673 7.4664V13.2h.6944l7.4606-7.4605-.6877-.6873Z"/>
</g></svg>