<svg xmlns="http://www.w3.org/2000/svg" data-laicon-version="15.0" viewBox="0 0 20 20" fill="black"><g transform="translate(-2 -2)">
  <path d="M3 6.5c0-1.2426 1.0074-2.25 2.25-2.25h13.5C19.9926 4.25 21 5.2574 21 6.5v11c0 1.2426-1.0074 2.25-2.25 2.25H5.25C4.0074 19.75 3 18.7426 3 17.5v-11Zm2.25-.75a.75.75 0 0 0-.75.75v11a.75.75 0 0 0 .75.75h13.5a.75.75 0 0 0 .75-.75v-11a.75.75 0 0 0-.75-.75H5.25Z"/>
  <path d="M3.418 5.827a.75.75 0 0 1 1.055-.1091L12 11.8336l7.5271-6.1157a.75.75 0 1 1 .9458 1.1641l-8 6.5001a.7498.7498 0 0 1-.9458 0l-8-6.5a.75.75 0 0 1-.1092-1.0551Z"/>
</g></svg>