<svg xmlns="http://www.w3.org/2000/svg" data-laicon-version="15.0" viewBox="0 0 20 20" fill="black"><g transform="translate(-2 -2)">
  <path d="M11.9956 14.6304c-.5076 0-.918.4136-.918.9224 0 .509.4104.9224.918.9224.5074 0 .9179-.4134.9179-.9224 0-.5088-.4105-.9224-.9179-.9224Z"/>
  <path d="M7.927 2.9666a.75.75 0 0 1 .5318-.2211h7.0823a.75.75 0 0 1 .5317.221l4.9617 4.9884a.7499.7499 0 0 1 .2182.529v7.0323a.75.75 0 0 1-.2182.5289l-4.9617 4.9883a.7496.7496 0 0 1-.5317.2211H8.4588a.75.75 0 0 1-.5319-.2212l-4.9617-4.9901a.7499.7499 0 0 1-.2181-.5288V8.4838a.75.75 0 0 1 .2182-.5289L7.927 2.9666Zm.8436 1.2789L4.247 8.7933v6.4117l4.5236 4.5495h6.4585l4.5235-4.5478V8.7933l-4.5235-4.5478H8.7706Z"/>
  <path d="M11.2456 13.142V7.6145h1.5v5.5275h-1.5Z"/>
</g></svg>