<svg xmlns="http://www.w3.org/2000/svg" data-laicon-version="15.0" viewBox="0 0 20 20" fill="black"><g transform="translate(-2 -2)">
  <path d="M3.898 19.0732c-.0206-.0136-.0398-.0342-.0551-.0716-.0372-.0909-.0327-.2449.0485-.372l.009-.0141.0084-.0146c2.0264-3.5098 3.029-5.2253 4.0091-6.9021l.0336-.0575c.967-1.6542 1.9236-3.2906 3.8299-6.5923.1033-.1462.2005-.164.2401-.164.0384 0 .1305.0163.2277.1591 1.9077 3.3044 2.8556 4.9413 3.7997 6.5717.9866 1.7037 1.969 3.4003 4.0384 6.985l.015.026.017.0247c.0165.024.0434.0805.055.1562.0113.0738.0027.1302-.0096.1631-.0088.0233-.0212.0437-.059.0665-.0451.0272-.1627.0777-.4099.0777H4.093c-.1208 0-.1754-.0288-.195-.0418Zm-1.2808-1.2351c-.3197.5117-.3928 1.1693-.1624 1.7319.2537.6196.8443 1.045 1.6381 1.045h15.6029c.4468 0 .8497-.0914 1.1841-.2929.3417-.2059.5678-.5009.6892-.8244.2226-.5933.085-1.2422-.1953-1.6686-2.0483-3.5483-3.0364-5.2546-4.0281-6.9672-.9522-1.6445-1.9078-3.2947-3.8088-6.5873l-.0095-.0165-.0103-.016c-.3439-.5312-.8896-.857-1.4956-.857-.6043 0-1.1501.3239-1.4997.8488l-.0133.02-.012.0207C8.5828 7.5892 7.6254 9.227 6.6568 10.884l-.0338.0578c-.9799 1.6763-1.9826 3.3921-4.0058 6.8963Z"/>
  <path d="M11.9856 16.0023a.9373.9373 0 0 0-.9373.9373c0 .5177.4196.9373.9373.9373a.9372.9372 0 0 0 .9372-.9373c0-.5176-.4196-.9373-.9372-.9373Zm-.7498-1.4615V8.9997h1.5v5.5411h-1.5Z"/>
</g></svg>