<svg xmlns="http://www.w3.org/2000/svg" data-laicon-version="15.3" viewBox="0 0 20 20" fill="black"><g transform="translate(-2 -2)">
  <path d="M3.85 17.228c.001 0 .032.022.122.022h7.851c.048.525.17 1.028.356 1.5H3.972c-.735 0-1.289-.396-1.526-.977a1.79 1.79 0 0 1 .149-1.606c1.783-3.088 2.667-4.6 3.53-6.077l.03-.051c.854-1.46 1.698-2.904 3.384-5.825l.012-.021.013-.02c.323-.484.83-.788 1.396-.788.568 0 1.076.306 1.393.796l.01.016.01.017c1.673 2.897 2.516 4.352 3.354 5.8l.774 1.337a5.41 5.41 0 0 0-1.486.427l-.582-1.005c-.832-1.436-1.666-2.878-3.347-5.79A.28.28 0 0 0 11 4.899a.078.078 0 0 0-.04-.013.09.09 0 0 0-.044.014.306.306 0 0 0-.093.09C9.145 7.897 8.302 9.34 7.45 10.797l-.03.05c-.864 1.479-1.747 2.99-3.533 6.084l-.009.015-.009.014a.318.318 0 0 0-.047.137.233.233 0 0 0 .012.109c.007.017.013.021.015.023Zm12.8-2.628h1.2v1.832l1.286.871-.673.994-1.813-1.229V14.6Z"/>
  <path d="M17.25 12.3a4.45 4.45 0 1 0 0 8.9 4.45 4.45 0 0 0 0-8.9Zm-3.05 4.45a3.05 3.05 0 1 1 6.1 0 3.05 3.05 0 0 1-6.1 0Zm-4.11-2.2a.85.85 0 1 1 1.7 0 .85.85 0 0 1-1.7 0ZM10.24 9h1.4l-.1 4h-1.2l-.1-4Z"/>
</g></svg>