<svg xmlns="http://www.w3.org/2000/svg" data-laicon-version="15.3" viewBox="0 0 20 20" fill="black"><g transform="translate(-2 -2)">
  <path d="M3.972 17.25c-.09 0-.12-.021-.123-.022-.002-.002-.008-.006-.015-.023a.233.233 0 0 1-.012-.11.319.319 0 0 1 .047-.136l.01-.014.008-.015c1.786-3.093 2.67-4.605 3.533-6.083l.03-.05c.852-1.458 1.695-2.9 3.374-5.808a.306.306 0 0 1 .092-.09.09.09 0 0 1 .045-.014c.007 0 .02.001.04.013a.28.28 0 0 1 .085.086c1.68 2.911 2.516 4.353 3.347 5.789l.582 1.005a5.41 5.41 0 0 1 1.486-.427l-.77-1.33v-.002l-.003-.003c-.839-1.449-1.681-2.904-3.355-5.802l-.01-.017-.01-.016c-.317-.49-.825-.796-1.392-.796-.566 0-1.074.304-1.396.788l-.014.02-.012.02a935.747 935.747 0 0 1-3.384 5.827l-.03.05a1123.19 1123.19 0 0 0-3.53 6.078 1.79 1.79 0 0 0-.15 1.606c.239.58.792.977 1.527.977h8.207a5.419 5.419 0 0 1-.356-1.5h-7.85Z"/>
  <path d="M10.24 9h1.4l-.1 4h-1.2l-.1-4Zm-.15 5.55a.85.85 0 1 1 1.7 0 .85.85 0 0 1-1.7 0Zm7.16 1.352 1.096-1.096.849.848-1.096 1.096 1.096 1.096-.849.849-1.096-1.096-1.096 1.096-.848-.849 1.096-1.096-1.096-1.096.848-.848 1.096 1.096Z"/>
  <path d="M17.25 12.3a4.45 4.45 0 1 0 0 8.9 4.45 4.45 0 0 0 0-8.9Zm-3.05 4.45a3.05 3.05 0 1 1 6.1 0 3.05 3.05 0 0 1-6.1 0Z"/>
</g></svg>