<svg xmlns="http://www.w3.org/2000/svg" data-laicon-version="15.0" viewBox="0 0 20 20" fill="black"><g transform="translate(-2 -2)">
  <path d="m9.846 9.3146 2.4749 2.4749-.99.99-2.4749-2.4749-.829.8289c-.1596.1597-.4317.0924-.4986-.1232L6.3381 7.1728c-.0716-.2308.1452-.4472.3759-.3753l3.8327 1.195c.2153.0672.2823.339.1228.4986l-.8235.8235Z"/>
  <path d="M3.2505 5.9999c0-1.2427 1.0074-2.25 2.25-2.25h12c1.2426 0 2.25 1.0073 2.25 2.25v6.6h.7501c.7732 0 1.4.6268 1.4 1.4v5c0 .7732-.6268 1.4-1.4 1.4h-7c-.7732 0-1.4-.6268-1.4-1.4v-.75H5.5005c-1.2426 0-2.25-1.0074-2.25-2.25v-10Zm15 6.6v-6.6a.75.75 0 0 0-.75-.75h-12a.75.75 0 0 0-.75.75v10a.75.75 0 0 0 .75.75h6.6001v-2.75c0-.7732.6268-1.4 1.4-1.4h4.7499Z"/>
</g></svg>