<svg xmlns="http://www.w3.org/2000/svg" data-laicon-version="17.5" viewBox="0 0 20 20" fill="black"><g transform="translate(-2 -2)">
  <path d="M5.5 7a2.25 2.25 0 0 1 2.25-2.25h11.5A2.25 2.25 0 0 1 21.5 7v8.5a2.25 2.25 0 0 1-2.25 2.25h-5.3v-1.5h5.3a.75.75 0 0 0 .75-.75V7a.75.75 0 0 0-.75-.75H7.75A.75.75 0 0 0 7 7v3.1H5.5V7Z"/>
  <path d="M4.25 11.55A1.75 1.75 0 0 0 2.5 13.3v5c0 .966.784 1.75 1.75 1.75h6.5a1.75 1.75 0 0 0 1.75-1.75v-5a1.75 1.75 0 0 0-1.75-1.75h-6.5ZM4 13.3a.25.25 0 0 1 .25-.25h6.5a.25.25 0 0 1 .25.25v5a.25.25 0 0 1-.25.25h-6.5A.25.25 0 0 1 4 18.3v-5Z"/>
</g></svg>