<svg xmlns="http://www.w3.org/2000/svg" data-laicon-version="15.0" viewBox="0 0 20 20" fill="black"><g transform="translate(-2 -2)">
  <path d="M18.1878 7.4457 17.114 8.5195C15.5794 7.435 13.8105 6.84 11.9995 6.84c-3.255 0-6.3747 1.9234-8.2417 5.1564 1.2841 2.2236 3.1609 3.8277 5.2667 4.6127l-1.15 1.1499c-2.3191-1.0393-4.3144-2.9335-5.6361-5.4094l-.1886-.3532.1886-.3532C4.2978 7.7854 7.9925 5.34 11.9995 5.34c2.237 0 4.3764.7617 6.1883 2.1057Zm.0886 2.0327 1.0603-1.0603c.9459.9092 1.7685 1.9954 2.4249 3.2251l.1886.3532-.1886.3532c-2.0594 3.8578-5.7541 6.3032-9.7621 6.3032a9.9206 9.9206 0 0 1-2.5602-.3373l1.2644-1.2644a8.3545 8.3545 0 0 0 1.2958.1017c3.256 0 6.3757-1.9235 8.2427-5.1564-.5545-.9602-1.2195-1.8049-1.9658-2.518Z"/>
  <path d="m4.3696 19.1637 15.067-15.067 1.0607 1.0606-15.067 15.067-1.0607-1.0606Z"/>
  <path d="M11.9943 9.644c-1.3012 0-2.3561 1.0548-2.3561 2.356 0 .7771.3754 1.4664.9581 1.8967l-.8913 1.2066c-.949-.701-1.5668-1.8301-1.5668-3.1033 0-2.1296 1.7264-3.856 3.8561-3.856 1.1841 0 2.244.5345 2.9502 1.3728l-1.1472.9664c-.4334-.5144-1.0799-.8393-1.803-.8393v.0001Z"/>
</g></svg>