<svg xmlns="http://www.w3.org/2000/svg" data-laicon-version="15.0" viewBox="0 0 20 20" fill="black"><g transform="translate(-2 -2)">
  <path d="M3.7578 11.9964c1.867 3.2329 4.9867 5.1564 8.2417 5.1564 3.256 0 6.3757-1.9235 8.2427-5.1564-1.867-3.2329-4.9867-5.1564-8.2427-5.1564-3.255 0-6.3747 1.9235-8.2417 5.1564Zm-1.5194-.3532C4.2978 7.7854 7.9924 5.34 11.9995 5.34c4.008 0 7.7027 2.4454 9.7621 6.3032l.1886.3532-.1886.3532c-2.0594 3.8578-5.7541 6.3032-9.7621 6.3032-4.007 0-7.7017-2.4454-9.7611-6.3032l-.1886-.3532.1886-.3532Z"/>
  <path d="M11.9943 9.644c-1.3012 0-2.3561 1.0548-2.3561 2.356s1.0549 2.3561 2.3561 2.3561c1.3012 0 2.3561-1.0549 2.3561-2.3561 0-1.3012-1.0549-2.356-2.3561-2.356ZM8.1382 12c0-2.1296 1.7264-3.856 3.8561-3.856S15.8504 9.8703 15.8504 12c0 2.1297-1.7264 3.8561-3.8561 3.8561S8.1382 14.1297 8.1382 12Z"/>
</g></svg>