<svg xmlns="http://www.w3.org/2000/svg" data-laicon-version="15.0" viewBox="0 0 20 20" fill="black"><g transform="translate(-2 -2)">
  <path d="M8.1987 13.6777a.75.75 0 0 1 .75-.75h6.1026a.75.75 0 0 1 .75.75h-.75c.75 0 .75.0004.75.0008v.0078l-.0002.0127a2.7614 2.7614 0 0 1-.0081.1563 3.8181 3.8181 0 0 1-.0518.3896c-.0577.3134-.1745.7407-.4149 1.1758-.2428.4393-.6144.8902-1.1749 1.2282-.5618.3389-1.2718.5391-2.1514.5391-.8796 0-1.5896-.2002-2.1513-.5391-.5606-.338-.9322-.7889-1.175-1.2282-.2404-.4351-.3572-.8624-.4149-1.1758a3.83 3.83 0 0 1-.0518-.3896 2.8712 2.8712 0 0 1-.008-.1563l-.0002-.0127v-.0078c0-.0004 0-.0008.75-.0008h-.75Zm1.6633.75c.0342.0882.0753.1782.1245.2673.1386.2508.3391.49.6368.6695.2964.1787.7306.3235 1.3767.3235s1.0803-.1448 1.3767-.3235c.2977-.1795.4982-.4187.6368-.6695a2.1946 2.1946 0 0 0 .1245-.2673H9.862Zm-.639-5.2312c-.6075 0-1.1.4925-1.1 1.1 0 .6075.4925 1.1 1.1 1.1.6075 0 1.1-.4925 1.1-1.1 0-.6075-.4925-1.1-1.1-1.1Zm5.5542 0c-.6074 0-1.1.4925-1.1 1.1 0 .6075.4926 1.1 1.1 1.1.6075 0 1.1-.4925 1.1-1.1 0-.6075-.4925-1.1-1.1-1.1Z"/>
  <path d="M11.9999 4.15c-4.3354 0-7.85 3.5146-7.85 7.85s3.5146 7.85 7.85 7.85 7.85-3.5146 7.85-7.85-3.5146-7.85-7.85-7.85ZM2.6499 12c0-5.1638 4.1861-9.35 9.35-9.35s9.35 4.1862 9.35 9.35c0 5.1639-4.1861 9.35-9.35 9.35s-9.35-4.1861-9.35-9.35Z"/>
</g></svg>