<svg xmlns="http://www.w3.org/2000/svg" data-laicon-version="15.0" viewBox="0 0 20 20" fill="black"><g transform="translate(-2 -2)">
  <path d="M8.8496 14.5a.75.75 0 0 1 .75-.75h5a.75.75 0 0 1 0 1.5h-5a.75.75 0 0 1-.75-.75Zm.3734-5.3035c-.6075 0-1.1.4925-1.1 1.1001 0 .6075.4925 1.1 1.1 1.1.6075 0 1.1-.4925 1.1-1.1 0-.6076-.4925-1.1-1.1-1.1Zm5.5542 0c-.6074 0-1.1.4925-1.1 1.1001 0 .6075.4926 1.1 1.1 1.1.6075 0 1.1-.4925 1.1-1.1 0-.6076-.4925-1.1-1.1-1.1Z"/>
  <path d="M11.9999 4.1499c-4.3354 0-7.85 3.5146-7.85 7.85s3.5146 7.85 7.85 7.85 7.85-3.5146 7.85-7.85-3.5146-7.85-7.85-7.85Zm-9.35 7.85c0-5.1639 4.1861-9.35 9.35-9.35s9.35 4.1861 9.35 9.35-4.1861 9.35-9.35 9.35-9.35-4.1861-9.35-9.35Z"/>
</g></svg>