<svg xmlns="http://www.w3.org/2000/svg" data-laicon-version="15.0" viewBox="0 0 20 20" fill="black"><g transform="translate(-2 -2)">
  <path d="M4.1499 12c0-4.3354 3.5146-7.85 7.85-7.85 4.3355 0 7.85 3.5146 7.85 7.85s-3.5145 7.85-7.85 7.85c-4.3354 0-7.85-3.5146-7.85-7.85Zm7.85-9.35c-5.1639 0-9.35 4.1862-9.35 9.35 0 5.1639 4.1861 9.35 9.35 9.35s9.35-4.1861 9.35-9.35c0-5.1638-4.1861-9.35-9.35-9.35Zm-2.7771 7.4466c-.6075 0-1.1.4925-1.1 1.1 0 .6075.4925 1.1 1.1 1.1.6074 0 1.1-.4925 1.1-1.1 0-.6075-.4926-1.1-1.1-1.1Zm5.5542 0c-.6074 0-1.1.4925-1.1 1.1 0 .6075.4926 1.1 1.1 1.1.6076 0 1.1-.4925 1.1-1.1 0-.6075-.4924-1.1-1.1-1.1ZM9.12 16.3757a.75.75 0 0 0 1.0564-.0951c.3232-.3872 1.0205-.7307 1.9242-.7307.9038 0 1.6011.3435 1.9243.7307a.75.75 0 0 0 1.1515-.9613c-.6749-.8084-1.8431-1.2694-3.0758-1.2694-1.2327 0-2.4009.461-3.0757 1.2694a.75.75 0 0 0 .095 1.0564Zm6.7386-9.153a.75.75 0 0 1-.2726 1.025l-1.2098.7014a.75.75 0 0 1-.7524-1.2976l1.2098-.7015a.75.75 0 0 1 1.025.2726Zm-7.2893.9901a.75.75 0 0 1 .8614-1.228l1.0001.7015a.75.75 0 0 1-.8614 1.228l-1-.7015Z"/>
</g></svg>