<svg xmlns="http://www.w3.org/2000/svg" data-laicon-version="15.0" viewBox="0 0 20 20" fill="black"><g transform="translate(-2 -2)">
  <path d="M5.732 19.5499h6.2682v1.5H5.5006c-.7007 0-1.2687-.568-1.2687-1.2687V7.4815l4.5316-4.5316h9.7362c.7007 0 1.2687.568 1.2687 1.2688V16h-1.5V4.45H9.3848L5.732 8.103v11.4469h.0001Z"/>
  <path d="M9.824 8.5421H4.982v-1.5h3.342V3.7h1.5v4.8422ZM13 14.9999h7c.5523 0 1 .4477 1 1v5c0 .5523-.4477 1-1 1h-7c-.5523 0-1-.4477-1-1v-5c0-.5523.4477-1 1-1Zm1.7516 4.8914c.8552 0 1.3249-.5249 1.3249-1.2038v-.323c0-.0403-.0257-.066-.066-.066h-1.1708c-.0403 0-.066.0257-.066.066v.4184c0 .0404.0257.0661.066.0661h.3927c-.033.1578-.2055.2495-.4514.2495-.3193 0-.5542-.2055-.5542-.6018 0-.3964.2276-.5983.5542-.5983.1468 0 .3009.0588.3927.1762.022.0294.0477.044.0844.033l.6973-.1871c.0404-.011.0587-.0404.044-.0844-.1835-.4771-.6275-.7414-1.2331-.7414-.7964 0-1.4019.5725-1.4019 1.3983 0 .8257.5542 1.3983 1.3872 1.3983Zm1.7949-.0514h.7046c.0404 0 .0661-.0257.0661-.0661v-2.5616c0-.0404-.0257-.0661-.0661-.0661h-.7046c-.0404 0-.0661.0257-.0661.0661v2.5616c0 .0404.0257.0661.0661.0661Zm2.0128 0c.0403 0 .066-.0257.066-.0661v-.8037h.8184c.0404 0 .0661-.0257.0661-.0661v-.5945c0-.0404-.0257-.0661-.0661-.0661h-.8184v-.3706h1.0019c.0404 0 .0661-.0257.0661-.0661v-.5945c0-.0404-.0257-.0661-.0661-.0661h-1.7726c-.0403 0-.066.0257-.066.0661v2.5616c0 .0404.0257.0661.066.0661h.7047Z"/>
</g></svg>