<svg xmlns="http://www.w3.org/2000/svg" data-laicon-version="15.0" viewBox="0 0 20 20" fill="black"><g transform="translate(-2 -2)">
  <path d="M5.732 19.5499H13v1.5H5.5006c-.7007 0-1.2687-.568-1.2687-1.2687V7.4815l4.5316-4.5316h9.7362c.7007 0 1.2687.568 1.2687 1.2688V16h-1.5V4.45H9.3848L5.732 8.103v11.4469h.0001Z"/>
  <path d="M9.824 8.5421H4.982v-1.5h3.342V3.7h1.5v4.8422Zm8.7961 9.6282c0-.2789-.1505-.3633-.356-.3633h-.1982v.7266h.1982c.2055 0 .356-.0844.356-.3633Z"/>
  <path d="M13 15.0001h7c.5523 0 1 .4477 1 1v5c0 .5522-.4477 1-1 1h-7c-.5523 0-1-.4478-1-1v-5c0-.5523.4477-1 1-1Zm.5099 4.84h2.0625c.0404 0 .0661-.0256.0661-.066v-.6533c0-.0403-.0257-.066-.0661-.066h-.8955l.9102-1.5488c.0147-.0293.022-.0514.022-.0807v-.2129c0-.0403-.0257-.066-.0661-.066h-1.9524c-.0404 0-.0661.0257-.0661.066v.6533c0 .0404.0257.066.0661.066h.7817l-.9065 1.5488c-.0147.0293-.022.0514-.022.0807v.2129c0 .0404.0257.066.0661.066Zm2.4954 0h.7046c.0404 0 .0661-.0256.0661-.066v-2.5617c0-.0403-.0257-.066-.0661-.066h-.7046c-.0404 0-.0661.0257-.0661.066v2.5617c0 .0404.0257.066.0661.066Zm1.9944 0c.0404 0 .0661-.0256.0661-.066v-.5799h.2129c.778 0 1.1854-.3376 1.1854-1.0239 0-.69-.4074-1.0239-1.1854-1.0239h-.9653c-.0403 0-.066.0257-.066.066v2.5617c0 .0404.0257.066.066.066h.6863Z"/>
</g></svg>