<svg xmlns="http://www.w3.org/2000/svg" data-laicon-version="15.0" viewBox="0 0 20 20" fill="black"><g transform="translate(-2 -2)">
  <path d="M5.732 4.45v15.1h8.8835l3.6529-3.6529V4.4501H5.7319Zm-1.5-.2312c0-.7007.568-1.2687 1.2686-1.2687h12.9991c.7007 0 1.2687.568 1.2687 1.2687v12.2997L15.2369 21.05H5.5006c-.7007 0-1.2687-.568-1.2687-1.2687V4.2188Z"/>
  <path d="M10.9653 5.1h1.9231v1.4h-1.9231V5.1Zm0 2.4h1.9231v1.4h-1.9231V7.5Zm0 4.8h1.9231v1.4h-1.9231v-1.4Zm0-2.4h1.9231v1.4h-1.9231V9.9Z"/>
</g></svg>