<svg xmlns="http://www.w3.org/2000/svg" data-laicon-version="15.3" viewBox="0 0 20 20" fill="black"><g transform="translate(-2 -2)">
  <path d="M18.26 11.757V4.25H5.73v15.5h6.448c.24.55.565 1.056.956 1.5H5.48c-.703 0-1.25-.576-1.25-1.25V4c0-.704.576-1.25 1.25-1.25h13.03c.704 0 1.25.576 1.25 1.25v8.183a5.71 5.71 0 0 0-1.5-.426Z"/>
  <path d="M12.32 7.62H7.83v-1.5h4.49v1.5Zm0 2.44H7.83v-1.5h4.49v1.5Zm4.53 5.24h1.2v1.832l1.287.871-.674.994-1.813-1.229V15.3Z"/>
  <path d="M13 17.45a4.45 4.45 0 1 1 8.9 0 4.45 4.45 0 0 1-8.9 0Zm4.45-3.05a3.05 3.05 0 1 0 0 6.1 3.05 3.05 0 0 0 0-6.1Z"/>
</g></svg>