<svg xmlns="http://www.w3.org/2000/svg" data-laicon-version="15.0" viewBox="0 0 20 20" fill="black"><g transform="translate(-2 -2)">
  <path d="M5.732 19.5499h6.2682v1.5H5.5006c-.7007 0-1.2687-.568-1.2687-1.2687V7.4815l4.5316-4.5316h9.7362c.7007 0 1.2687.568 1.2687 1.2688V16h-1.5V4.45H9.3848L5.732 8.103v11.4469h.0001Z"/>
  <path d="M9.824 8.5421H4.982v-1.5h3.342V3.7h1.5v4.8422Zm3.5534 9.2649c.2055 0 .356.0844.356.3633 0 .2789-.1505.3633-.356.3633h-.1982v-.7266h.1982Zm2.6353.1027c.378 0 .5982.1688.5982.5835 0 .4148-.2202.5836-.5982.5836h-.2495v-1.1671h.2495Z"/>
  <path d="M12 15.0001h8c.5523 0 1 .4477 1 1v5c0 .5522-.4477 1-1 1h-8c-.5523 0-1-.4478-1-1v-5c0-.5523.4477-1 1-1Zm.4267 4.84h.6862c.0404 0 .0661-.0257.0661-.066v-.5799h.2129c.778 0 1.1854-.3376 1.1854-1.0239 0-.69-.4074-1.0239-1.1854-1.0239h-.9652c-.0404 0-.0661.0256-.0661.066v2.5617c0 .0403.0257.066.0661.066Zm2.584 0h1.0753c.8515 0 1.3689-.4624 1.3689-1.3469 0-.8954-.5174-1.3468-1.3689-1.3468h-1.0753c-.0404 0-.0661.0256-.0661.066v2.5617c0 .0403.0257.066.0661.066Zm3.6184 0c.0404 0 .0661-.0257.0661-.066v-.8038h.8184c.0404 0 .0661-.0256.0661-.066v-.5946c0-.0403-.0257-.066-.0661-.066h-.8184v-.3707h1.0019c.0404 0 .0661-.0257.0661-.066v-.5946c0-.0404-.0257-.066-.0661-.066h-1.7726c-.0404 0-.0661.0256-.0661.066v2.5617c0 .0403.0257.066.0661.066h.7046Z"/>
</g></svg>