<svg xmlns="http://www.w3.org/2000/svg" data-laicon-version="15.0" viewBox="0 0 20 20" fill="black"><g transform="translate(-2 -2)">
  <path d="M5.732 19.5499h6.2682v1.5H5.5006c-.7007 0-1.2687-.568-1.2687-1.2687V7.4815l4.5316-4.5316h9.7362c.7007 0 1.2687.568 1.2687 1.2688V16h-1.5V4.45H9.3848L5.732 8.103v11.4469h.0001Z"/>
  <path d="M9.824 8.5421H4.982v-1.5h3.342V3.7h1.5v4.8422ZM12 14.9999h8c.5523 0 1 .4477 1 1v5c0 .5523-.4477 1-1 1h-8c-.5523 0-1-.4477-1-1v-5c0-.5523.4477-1 1-1Zm3.9117 4.8913c.6202 0 1.0606-.356 1.0606-.8588 0-.444-.2348-.6936-.7046-.8514l-.2092-.0697c-.2459-.0808-.3119-.1358-.3119-.2019 0-.0771.077-.1174.1541-.1174.0807 0 .1688.0293.2422.1908.0147.0404.0441.0551.0844.044l.6386-.1761c.0404-.011.0587-.0404.044-.0844-.1651-.4698-.5431-.6716-.9945-.6716-.5542 0-1.0129.356-1.0129.8698 0 .411.2605.6899.6569.8294l.3083.1101c.1871.066.2679.1027.2679.1871 0 .0661-.0771.1028-.1872.1028-.1725 0-.2899-.055-.3633-.2165-.0147-.0367-.0441-.0514-.0808-.0441l-.6165.1542c-.0404.011-.0587.0403-.0441.0844.1578.4587.5542.7193 1.068.7193Zm-2.7852-.0514h.7046c.0404 0 .0661-.0257.0661-.066v-1.8424h.7266c.0404 0 .0661-.0257.0661-.066v-.6533c0-.0404-.0257-.0661-.0661-.0661h-2.29c-.0404 0-.0661.0257-.0661.0661v.6533c0 .0403.0257.066.0661.066h.7266v1.8424c0 .0403.0257.066.0661.066Zm5.5478 0c.0367 0 .0624-.0183.0771-.0514l1.0386-2.5653c.0183-.044-.0074-.0771-.0551-.0771h-.8037c-.0367 0-.0661.0184-.0771.0551l-.4477 1.4203-.4588-1.4203c-.011-.0367-.0403-.0551-.077-.0551h-.8148c-.0477 0-.0734.0331-.055.0771l1.0386 2.5653c.0147.0331.0404.0514.0771.0514h.5578Z"/>
</g></svg>