<svg xmlns="http://www.w3.org/2000/svg" data-laicon-version="15.0" viewBox="0 0 20 20" fill="black"><g transform="translate(-2 -2)">
  <path d="M5.732 19.5499H11v1.5H5.5006c-.7007 0-1.2687-.568-1.2687-1.2687V7.4815l4.5316-4.5316h9.7362c.7007 0 1.2687.568 1.2687 1.2688V16h-1.5V4.45H9.3848L5.732 8.103v11.4469h.0001Z"/>
  <path d="M9.824 8.5421H4.982v-1.5h3.342V3.7h1.5v4.8422ZM11 15h9c.5523 0 1 .4477 1 1v5c0 .5523-.4477 1-1 1h-9c-.5523 0-1-.4477-1-1v-5c0-.5523.4477-1 1-1Zm2.0422 4.8913c.6386 0 1.1193-.3743 1.2845-.8918.011-.0367-.011-.0624-.0514-.0734l-.69-.1798c-.0403-.0111-.066.0073-.0807.0477-.0844.2202-.2569.2862-.4624.2862-.2973 0-.5322-.2202-.5322-.5872 0-.367.2312-.5872.5285-.5872.1762 0 .301.0587.3964.1982.022.033.0477.044.0844.033l.6973-.1835c.0404-.011.0587-.0403.0404-.0844-.2019-.4991-.6056-.7743-1.2148-.7743-.7891 0-1.3946.5725-1.3946 1.3982 0 .8258.5542 1.3983 1.3946 1.3983Zm2.563 0c.6203 0 1.0607-.356 1.0607-.8588 0-.4441-.2349-.6936-.7047-.8514l-.2092-.0698c-.2458-.0807-.3119-.1357-.3119-.2018 0-.0771.0771-.1174.1541-.1174.0808 0 .1689.0293.2423.1908.0146.0404.044.055.0844.044l.6385-.1761c.0404-.011.0588-.0404.0441-.0844-.1652-.4698-.5432-.6716-.9946-.6716-.5542 0-1.0129.3559-1.0129.8697 0 .4111.2606.69.6569.8295l.3083.1101c.1872.066.2679.1027.2679.1871 0 .0661-.0771.1028-.1872.1028-.1724 0-.2899-.0551-.3633-.2165-.0147-.0367-.044-.0514-.0807-.0441l-.6166.1542c-.0404.011-.0587.0403-.044.0844.1578.4587.5541.7193 1.0679.7193Zm2.7626-.0514c.0367 0 .0624-.0183.0771-.0514l1.0386-2.5653c.0184-.044-.0073-.0771-.055-.0771h-.8038c-.0367 0-.066.0184-.077.0551l-.4478 1.4203-.4587-1.4203c-.011-.0367-.0404-.0551-.0771-.0551h-.8147c-.0477 0-.0734.0331-.0551.0771l1.0386 2.5653c.0147.0331.0404.0514.0771.0514h.5578Z"/>
</g></svg>