<svg xmlns="http://www.w3.org/2000/svg" data-laicon-version="15.3" viewBox="0 0 20 20" fill="black"><g transform="translate(-2 -2)">
  <path d="M5 6.25a.25.25 0 0 0-.25.25V17c0 .138.112.25.25.25h5v1.5H5A1.75 1.75 0 0 1 3.25 17V6.5c0-.966.784-1.75 1.75-1.75h13c.966 0 1.75.784 1.75 1.75v4h-1.5v-4a.25.25 0 0 0-.25-.25H5Z"/>
  <path d="M11 11.69H6.5v-1.5H11v1.5ZM6.5 9.45H11v-1.5H6.5v1.5Zm9.6 8.63 2.484-2.485-.99-.99L16.1 16.1l-.846-.845-.99.99 1.836 1.834Z"/>
  <path d="M15.41 11.298a1.5 1.5 0 0 1 2.1 0l.712.698.997.01a1.5 1.5 0 0 1 1.484 1.485l.01.997.699.712a1.5 1.5 0 0 1 0 2.1l-.698.712-.01.997a1.5 1.5 0 0 1-1.485 1.485l-.997.01-.713.698a1.5 1.5 0 0 1-2.099 0l-.712-.698-.998-.01a1.5 1.5 0 0 1-1.484-1.485l-.01-.997-.698-.712a1.5 1.5 0 0 1 0-2.1l.698-.712.01-.997a1.5 1.5 0 0 1 1.485-1.485l.997-.01.712-.698Zm1.12 1a.1.1 0 0 0-.14 0l-.914.895a.7.7 0 0 1-.482.2l-1.279.013a.1.1 0 0 0-.099.1l-.013 1.278a.7.7 0 0 1-.2.482l-.895.914a.1.1 0 0 0 0 .14l.895.913a.7.7 0 0 1 .2.483l.013 1.279a.1.1 0 0 0 .099.099l1.279.013a.7.7 0 0 1 .482.2l.914.895a.1.1 0 0 0 .14 0l.913-.895a.7.7 0 0 1 .483-.2l1.279-.013a.1.1 0 0 0 .099-.1l.013-1.278a.7.7 0 0 1 .2-.483l.894-.913a.1.1 0 0 0 0-.14l-.894-.913a.7.7 0 0 1-.2-.483l-.014-1.279a.1.1 0 0 0-.099-.099l-1.278-.013a.7.7 0 0 1-.483-.2l-.913-.895Z"/>
</g></svg>