<svg xmlns="http://www.w3.org/2000/svg" data-laicon-version="15.0" viewBox="0 0 20 20" fill="black"><g transform="translate(-2 -2)">
  <path d="M9.824 8.5421H4.982v-1.5h3.342V3.7h1.5v4.8422Z"/>
  <path d="M5.732 19.5499h6.2682v1.5H5.5006c-.7007 0-1.2687-.568-1.2687-1.2687V7.4815l4.5316-4.5316h9.7362c.7007 0 1.2687.568 1.2687 1.2688V16h-1.5V4.45H9.3848L5.732 8.103v11.4469h.0001Z"/>
  <path d="M12 15.0001h8c.5523 0 1 .4477 1 1v5c0 .5522-.4477 1-1 1h-8c-.5523 0-1-.4478-1-1v-5c0-.5523.4477-1 1-1Zm.5646 4.84h1.8717c.0404 0 .0661-.0256.0661-.066v-.5579c0-.0403-.0257-.066-.0661-.066h-1.1157v-.3487h.9249c.0404 0 .066-.0257.066-.066v-.5285c0-.0404-.0256-.0661-.066-.0661h-.9249v-.3046h1.0717c.0404 0 .066-.0257.066-.066v-.5579c0-.0403-.0256-.066-.066-.066h-1.8277c-.0403 0-.066.0257-.066.066v2.5617c0 .0404.0257.066.066.066Zm2.1708 0h.7854c.0367 0 .0587-.0183.077-.0477l.3854-.6936.3817.6936c.0183.0294.0403.0477.077.0477h.8221c.0514 0 .0697-.0367.044-.0807l-.7927-1.3028.7414-1.2295c.0257-.044.0073-.0807-.0441-.0807h-.7743c-.0367 0-.0588.0183-.0771.0477l-.3413.6349-.345-.6349c-.0184-.0294-.0404-.0477-.0771-.0477h-.811c-.0514 0-.0698.0367-.0441.0807l.7377 1.2331-.7891 1.2992c-.0257.044-.0073.0807.0441.0807Zm4.8009 0c.0404 0 .0661-.0256.0661-.066v-.5579c0-.0403-.0257-.066-.0661-.066h-1.1156v-.3487h.9248c.0404 0 .0661-.0257.0661-.066v-.5285c0-.0404-.0257-.0661-.0661-.0661h-.9248v-.3046h1.0716c.0404 0 .0661-.0257.0661-.066v-.5579c0-.0403-.0257-.066-.0661-.066h-1.8277c-.0403 0-.066.0257-.066.066v2.5617c0 .0404.0257.066.066.066h1.8717Z"/>
</g></svg>