<svg xmlns="http://www.w3.org/2000/svg" data-laicon-version="15.0" viewBox="0 0 20 20" fill="black"><g transform="translate(-2 -2)">
  <path d="M5.732 19.5499h6.2682v1.5H5.5006c-.7007 0-1.2687-.568-1.2687-1.2687V7.4815l4.5316-4.5316h9.7362c.7007 0 1.2687.568 1.2687 1.2688V16h-1.5V4.45H9.3848L5.732 8.103v11.4469h.0001Z"/>
  <path d="M8.324 7.0423V3.6999h1.5v4.8422H4.982v-1.5h3.342v.0002Zm7.2536 10.7645c.2055 0 .356.0844.356.3634 0 .2789-.1505.3633-.356.3633h-.1982v-.7267h.1982Z"/>
  <path d="M12 14.9999h8c.5523 0 1 .4478 1 1v5c0 .5523-.4477 1-1 1h-8c-.5523 0-1-.4477-1-1v-5c0-.5522.4477-1 1-1Zm7.7555 3.6877v-.3229c0-.0404-.0257-.0661-.0661-.0661h-1.1707c-.0404 0-.0661.0257-.0661.0661v.4183c0 .0404.0257.0661.0661.0661h.3927c-.0331.1578-.2056.2496-.4514.2496-.3193 0-.5542-.2056-.5542-.6019 0-.3964.2275-.5982.5542-.5982.1468 0 .3009.0587.3926.1761.0221.0294.0478.0441.0845.0331l.6972-.1872c.0404-.011.0588-.0404.0441-.0844-.1835-.4771-.6276-.7414-1.2331-.7414-.7964 0-1.402.5726-1.402 1.3983 0 .8258.5542 1.3983 1.3873 1.3983.8551 0 1.3249-.5248 1.3249-1.2038Zm-6.689 1.2038c.6165 0 1.0386-.2936 1.0386-1.0937v-1.5854c0-.0404-.0257-.0661-.0661-.0661h-1.3873c-.0403 0-.066.0257-.066.0661v.6532c0 .0404.0257.0661.066.0661h.6166v.8221c0 .1908-.055.3266-.2312.3266-.1138 0-.1652-.0587-.2019-.1468-.0146-.0367-.044-.055-.0844-.044l-.6055.1651c-.0404.011-.0587.0404-.0477.0808.1101.4367.4147.756.9689.756Zm1.5607-.0514h.6863c.0404 0 .0661-.0257.0661-.0661v-.5798h.2128c.7781 0 1.1855-.3377 1.1855-1.0239 0-.69-.4074-1.024-1.1855-1.024h-.9652c-.0403 0-.066.0257-.066.0661v2.5616c0 .0404.0257.0661.066.0661Z"/>
</g></svg>