<svg xmlns="http://www.w3.org/2000/svg" data-laicon-version="15.0" viewBox="0 0 20 20" fill="black"><g transform="translate(-2 -2)">
  <path d="M5.732 19.5499H11v1.5H5.5006c-.7007 0-1.2687-.568-1.2687-1.2687V7.4815l4.5316-4.5316h9.7362c.7007 0 1.2687.568 1.2687 1.2688V16h-1.5V4.45H9.3848L5.732 8.103v11.4469h.0001Z"/>
  <path d="M9.824 8.5421H4.982v-1.5h3.342V3.7h1.5v4.8422Zm2.652 9.2647c.2055 0 .3559.0844.3559.3634 0 .2789-.1504.3633-.3559.3633h-.1982v-.7267h.1982Z"/>
  <path d="M11 14.9999h9c.5523 0 1 .4478 1 1v5c0 .5523-.4477 1-1 1h-9c-.5523 0-1-.4477-1-1v-5c0-.5522.4477-1 1-1Zm8.6067 3.6877v-.3229c0-.0404-.0257-.0661-.0661-.0661h-1.1707c-.0404 0-.0661.0257-.0661.0661v.4183c0 .0404.0257.0661.0661.0661h.3927c-.0331.1578-.2056.2496-.4515.2496-.3192 0-.5541-.2056-.5541-.6019 0-.3964.2275-.5982.5541-.5982.1468 0 .301.0587.3927.1761.0221.0294.0477.0441.0844.0331l.6973-.1872c.0404-.011.0588-.0404.0441-.0844-.1835-.4771-.6276-.7414-1.2331-.7414-.7964 0-1.402.5726-1.402 1.3983 0 .8258.5542 1.3983 1.3873 1.3983.8551 0 1.3249-.5248 1.3249-1.2038ZM11.5252 19.84h.6863c.0404 0 .0661-.0257.0661-.0661v-.5798h.2128c.7781 0 1.1854-.3377 1.1854-1.0239 0-.69-.4073-1.024-1.1854-1.024h-.9652c-.0403 0-.066.0257-.066.0661v2.5616c0 .0404.0257.0661.066.0661Zm2.5841 0h.6679c.0404 0 .0661-.0257.0661-.0661v-1.3652l.7707 1.3836a.0816.0816 0 0 0 .0771.0477h.734c.0403 0 .066-.0257.066-.0661v-2.5616c0-.0404-.0257-.0661-.066-.0661h-.668c-.0404 0-.066.0257-.066.0661v1.3542l-.7707-1.3726c-.0184-.0293-.0404-.0477-.0771-.0477h-.734c-.0404 0-.0661.0257-.0661.0661v2.5616c0 .0404.0257.0661.0661.0661Z"/>
</g></svg>