<svg xmlns="http://www.w3.org/2000/svg" data-laicon-version="15.0" viewBox="0 0 20 20" fill="black"><g transform="translate(-2 -2)">
  <path d="m17.3999 11.6-7.6-7.6-1.8-1.7-1 1 1.7 1.7-5.1 5.1c-1.1 1.1-1.1 2.8 0 3.9l4.2 4.2c.5.5 1.2.8 1.9.8s1.4-.3 1.9-.8l6.2-6.2-.4-.4Zm-7.6-5.5 5.3 5.3h-10.6s0-.1.1-.1l5.2-5.2Zm.8 11.2c-.5.5-1.3.5-1.8 0l-4.2-4.3-.1-.1h10.5l-4.4 4.4Zm8.3501-2-.45.6-.45-.6.45-.3375.45.3375Zm-.45 1.5937a6.362 6.362 0 0 0-.4289.4549c-.4682.5502-.8211 1.1761-.8211 1.7514 0 .6858.5642 1.25 1.25 1.25s1.25-.5642 1.25-1.25c0-.5753-.3529-1.2012-.8212-1.7514a6.3623 6.3623 0 0 0-.4288-.4549ZM18.05 15.3c.0002-.0002 0 0 .45.6.45-.6.4498-.6002.45-.6l.0016.0012.0024.0018.0069.0053.0222.0171c.0184.0143.0437.0343.0751.0598.0628.0508.1499.1237.2534.2159.206.1837.4818.4489.7595.7753.5318.6248 1.1789 1.5989 1.1789 2.7236 0 1.5142-1.2358 2.75-2.75 2.75s-2.75-1.2358-2.75-2.75c0-1.1247.6471-2.0988 1.1788-2.7236a8.0157 8.0157 0 0 1 .7595-.7753 7.1879 7.1879 0 0 1 .2534-.2159 4.478 4.478 0 0 1 .0752-.0598l.0221-.0171.0069-.0053.0024-.0018.0017-.0012Z"/>
</g></svg>