<svg xmlns="http://www.w3.org/2000/svg" data-laicon-version="15.0" viewBox="0 0 20 20" fill="black"><g transform="translate(-2 -2)">
  <path d="M4.294 5.08v13.8732h15.4902V5.08H4.294Zm-1.5-.2636c0-.7515.6486-1.2364 1.2876-1.2364h15.915c.6389 0 1.2876.4849 1.2876 1.2364v14.4003c0 .7517-.6489 1.2365-1.2876 1.2365H4.0816c-.639 0-1.2876-.4849-1.2876-1.2365V4.8165Z"/>
  <path d="M10.058 9.1651a.6.6 0 0 1 .6012.0021l3.9931 2.3303a.6001.6001 0 0 1-.0022 1.0377l-3.9931 2.3074a.5998.5998 0 0 1-.9002-.5195V9.6854a.6.6 0 0 1 .3012-.5203Zm.8988 1.5652v2.5531l2.1983-1.2702-2.1983-1.2829ZM7.2925 4.2968v15.4064h-1.5V4.2968h1.5Zm11.0234 0v15.4064h-1.5V4.2968h1.5Z"/>
  <path d="M7.0388 9.7607H2.9722v-1.5h4.0666v1.5Zm13.9546 6.0096h-4.0666v-1.5h4.0666v1.5Zm.0342-6.0096h-4.0667v-1.5h4.0667v1.5ZM7.0388 15.7703H2.9722v-1.5h4.0666v1.5Z"/>
</g></svg>