<svg xmlns="http://www.w3.org/2000/svg" data-laicon-version="15.0" viewBox="0 0 20 20" fill="black"><g transform="translate(-2 -2)">
  <path d="M11.6032 3.654c1.8711-.3834 3.8773-.7277 7.4673.1285a.75.75 0 0 1 .576.7296v11.9343a.75.75 0 0 1-.924.7295c-3.3065-.7886-5.077-.4749-6.8183-.1181-.0734.015-.1469.0302-.2206.0454-1.7599.3628-3.59.7402-6.7348.0771a.75.75 0 0 1-.5953-.7339V4.5121a.75.75 0 0 1 .9048-.7339c2.839.5987 4.4255.2715 6.1212-.0782l.2237-.046ZM5.8535 5.4147V15.828c2.4731.4359 3.9525.1308 5.5259-.1937l.2238-.046c1.7042-.3492 3.5204-.6659 6.5433-.0727V5.112c-2.9418-.6214-4.6049-.324-6.2423.0115-.0734.015-.1469.0302-.2205.0454-1.584.3266-3.225.665-5.8302.2458Z"/>
  <path d="M5.1035 3.6984a.75.75 0 0 1 .75.75V21a.75.75 0 0 1-1.5 0V4.4484a.75.75 0 0 1 .75-.75Z"/>
</g></svg>