<svg xmlns="http://www.w3.org/2000/svg" data-laicon-version="15.3" viewBox="0 0 20 20" fill="black"><g transform="translate(-2 -2)">
  <path d="M11.25 19.8a.75.75 0 0 0 1.5 0v-1.2a.75.75 0 0 0-1.5 0v1.2ZM9.75 12a.75.75 0 0 0-.222-.533L4.278 6.27A.75.75 0 0 0 3 6.804v10.392a.75.75 0 0 0 1.278.533l5.25-5.196A.75.75 0 0 0 9.75 12ZM4.5 15.399V8.6L7.934 12 4.5 15.399ZM14.25 12c0-.2.08-.392.222-.533l5.25-5.196A.75.75 0 0 1 21 6.804v10.392a.75.75 0 0 1-1.278.533l-5.25-5.196A.75.75 0 0 1 14.25 12Zm5.25-3.399L16.066 12l3.434 3.399V8.6ZM12 16.95a.75.75 0 0 1-.75-.75V15a.75.75 0 0 1 1.5 0v1.2a.75.75 0 0 1-.75.75Zm-.75-4.35a.75.75 0 0 0 1.5 0v-1.2a.75.75 0 0 0-1.5 0v1.2ZM12 9.75a.75.75 0 0 1-.75-.75V7.8a.75.75 0 0 1 1.5 0V9a.75.75 0 0 1-.75.75Zm-.75-4.35a.75.75 0 0 0 1.5 0V4.2a.75.75 0 0 0-1.5 0v1.2Z"/>
</g></svg>