<svg xmlns="http://www.w3.org/2000/svg" data-laicon-version="16.15" viewBox="0 0 20 20" fill="black"><g transform="translate(-2 -2)">
  <path d="M8.116 12.002c0-1.342.985-2.23 2.182-2.23s2.182.888 2.182 2.23c0 .36-.128.728-.277 1.044a5.911 5.911 0 0 1-.338.61l1.03.584c.464.263.751.756.751 1.29v1.219H6.95v-1.22c0-.533.287-1.026.752-1.29l1.03-.583a5.905 5.905 0 0 1-.338-.61c-.15-.316-.278-.684-.278-1.044Zm2.182-1.13c-.605 0-1.082.411-1.082 1.13 0 .12.05.313.172.575.12.251.285.521.464.78a.74.74 0 0 1-.241 1.065l-1.367.775a.383.383 0 0 0-.194.333v.119h4.496v-.12a.383.383 0 0 0-.194-.332l-1.366-.775a.74.74 0 0 1-.242-1.064c.18-.26.345-.53.464-.781.123-.262.172-.455.172-.575 0-.719-.476-1.13-1.082-1.13Zm4.069 5.877h2.683v-1.22c0-.533-.287-1.026-.752-1.29l-1.03-.583a5.89 5.89 0 0 0 .339-.61c.149-.316.277-.684.277-1.044 0-1.342-.985-2.23-2.182-2.23-.436 0-.844.119-1.186.333.079.083.15.174.215.27.141.209.25.444.327.69a1.11 1.11 0 0 1 .644-.192c.606 0 1.082.41 1.082 1.129 0 .12-.049.313-.172.575a5.674 5.674 0 0 1-.464.78.74.74 0 0 0 .242 1.065l1.366.775c.12.068.194.195.194.333v.119h-1.583v1.1Z"/>
  <path d="M4.773 3.968c-.689 0-1.25.56-1.25 1.25V18.77c0 .689.561 1.25 1.25 1.25h14.454c.689 0 1.25-.561 1.25-1.25V7.357c0-.69-.561-1.25-1.25-1.25H12.18l-2.134-2.14H4.773Zm.25 14.552V5.468h4.402l2.133 2.139h7.419V18.52H5.023Z"/>
</g></svg>