<svg xmlns="http://www.w3.org/2000/svg" data-laicon-version="15.0" viewBox="0 0 20 20" fill="black"><g transform="translate(-2 -2)">
  <path d="M4.8506 4.85v14.3h14.299V4.85H4.8506Zm-1.5-.25c0-.6903.5597-1.25 1.25-1.25h14.799c.6903 0 1.25.5597 1.25 1.25v14.8c0 .6903-.5597 1.25-1.25 1.25H4.6006c-.6903 0-1.25-.5597-1.25-1.25V4.6Z"/>
  <path d="M8.8999 7.75h1.2v1.5h-1.2v-1.5Zm0 7.0001h1.2v1.5h-1.2v-1.5Z"/>
  <path d="M9.3501 7.75h3c1.3807 0 2.5 1.1193 2.5 2.5001 0 1.3807-1.1193 2.5-2.5 2.5h-3v-5Zm1.5 1.5v2.0001h1.5c.5523 0 1-.4478 1-1 0-.5523-.4477-1-1-1h-1.5Z"/>
  <path d="M9.3501 11.2501h3.5c1.3807 0 2.5 1.1192 2.5 2.5 0 1.3807-1.1193 2.5-2.5 2.5h-3.5v-5Zm1.5 1.5v2h2c.5522 0 1-.4478 1-1 0-.5523-.4478-1-1-1h-2Z"/>
</g></svg>