<svg xmlns="http://www.w3.org/2000/svg" data-laicon-version="15.0" viewBox="0 0 20 20" fill="black"><g transform="translate(-2 -2)">
  <path d="M16.0999 17.6499h-8.2v-1.5h8.2v1.5ZM10.67 8.8798H7.8999v-1.5H10.67v1.5Zm5.43.0002h-2.7699v-1.5H16.1v1.5Z"/>
  <path d="m15.4643 8.0902.0456 3.4962c.0075 1.1105-.2906 2.0445-.9494 2.6975-.6563.6504-1.557.9093-2.5218.9093-.9044 0-1.7998-.2313-2.4741-.8511-.686-.6306-1.03-1.5583-1.03-2.7123V8.1269h1.5v3.5029c0 .855.247 1.334.545 1.6079.3096.2846.7913.4555 1.4591.4555.7106 0 1.1771-.1885 1.4658-.4747.286-.2835.5107-.7747.5054-1.6197l-.0455-3.489 1.4999-.0196Z"/>
  <path d="M4.8506 4.85v14.3h14.299V4.85H4.8506Zm-1.5-.25c0-.6903.5597-1.25 1.25-1.25h14.799c.6903 0 1.25.5597 1.25 1.25v14.8c0 .6903-.5597 1.25-1.25 1.25H4.6006c-.6903 0-1.25-.5597-1.25-1.25V4.6Z"/>
</g></svg>