<svg xmlns="http://www.w3.org/2000/svg" data-laicon-version="15.0" viewBox="0 0 20 20" fill="black"><g transform="translate(-2 -2)">
  <path d="M7.1709 4.57h5.1456c.7931 0 1.7593.2273 2.5517.8091.8283.6082 1.4246 1.5787 1.4246 2.9174 0 1.1114-.4337 2.0049-1.0991 2.6492 1.2846.7294 2.2359 2.1348 2.2359 3.9958 0 1.1827-.3329 2.2856-1.111 3.118-.7801.8345-1.9052 1.2874-3.2728 1.3688l-.0267.0016H7.1709V4.5701Zm1.8 7.6161v5.4438h3.9937c1.0178-.0653 1.6539-.3876 2.0391-.7996.3904-.4176.6259-1.0375.6259-1.8888 0-1.7588-1.2945-2.7554-2.5308-2.7554H8.9709Zm0-1.8h2.9128c.7 0 1.378-.2037 1.8579-.5634.4542-.3405.7512-.8294.7512-1.5262 0-.738-.3007-1.1806-.69-1.4665-.4252-.3122-.9972-.46-1.4863-.46H8.9709v4.0161Z"/>
  <path d="M8.0708 6.37h-1.541v-1.8h1.541v1.8Zm0 13.0599h-1.541v-1.8h1.541v1.8Z"/>
</g></svg>