<svg xmlns="http://www.w3.org/2000/svg" data-laicon-version="16.11" viewBox="0 0 20 20" fill="black"><g transform="translate(-2 -2)">
  <path d="M7.1 8.28c0 .625.128 1.311.566 1.97h2.166a3.38 3.38 0 0 1-.663-.517C8.72 9.268 8.6 8.786 8.6 8.28c0-.8.406-1.41 1.035-1.85a3.969 3.969 0 0 1 2.165-.68c1.395 0 2.283.511 2.825 1.073.576.597.755 1.238.755 1.457h1.5c0-.681-.386-1.68-1.175-2.498-.823-.853-2.1-1.532-3.905-1.532-.967 0-2.107.311-3.023.95C7.844 5.85 7.1 6.88 7.1 8.28Zm7.665 5.47h1.926c.259.495.409 1.083.409 1.78 0 1.463-1.386 4.2-5.05 4.2-2.064 0-3.416-.645-4.247-1.53-.811-.865-1.053-1.883-1.053-2.52h1.5c0 .313.133.945.647 1.493.494.527 1.417 1.057 3.153 1.057 2.736 0 3.55-1.963 3.55-2.7 0-.847-.32-1.381-.835-1.78Zm-10.265-1h15v-1.5h-15v1.5Z"/>
</g></svg>