<svg xmlns="http://www.w3.org/2000/svg" data-laicon-version="15.0" viewBox="0 0 20 20" fill="black"><g transform="translate(-2 -2)">
  <path d="M14.25 9.169h-3v-1.5h3v1.5Zm-4.5498 7.3001v-1.5H12.7v1.5H9.7002Z"/>
  <path d="m10.3716 15.5395 1.8-7.3 1.4563.359-1.8 7.3001-1.4563-.3591Z"/>
  <path d="M4.8506 4.85v14.2999h14.2989v-14.3H4.8505Zm-1.5-.25c0-.6904.5597-1.25 1.25-1.25h14.7989c.6903 0 1.25.5596 1.25 1.25v14.7999c0 .6903-.5597 1.25-1.25 1.25H4.6005c-.6902 0-1.25-.5597-1.25-1.25v-14.8Z"/>
</g></svg>