<svg xmlns="http://www.w3.org/2000/svg" data-laicon-version="15.0" viewBox="0 0 20 20" fill="black"><g transform="translate(-2 -2)">
  <path d="M4.8506 4.85v14.3h14.299V4.85H4.8506Zm-1.5-.25c0-.6903.5597-1.25 1.25-1.25h14.799c.6903 0 1.25.5597 1.25 1.25v14.8c0 .6903-.5597 1.25-1.25 1.25H4.6006c-.6903 0-1.25-.5597-1.25-1.25V4.6Z"/>
  <path d="M8.102 8.0422h7.7245v2.2904h-1.5v-.7904H9.6021v.7904h-1.5V8.0422Z"/>
  <path d="M11.2139 15.5515V8.7922h1.5v6.7593h-1.5Z"/>
  <path d="M13.3172 16.3015h-2.678v-1.5h2.678v1.5Z"/>
</g></svg>