<svg xmlns="http://www.w3.org/2000/svg" data-laicon-version="15.0" viewBox="0 0 20 20" fill="black"><g transform="translate(-2 -2)">
  <path d="M13.5413 5.3824c-.0219.0346-.0257.0583-.0257.0734V7.64a.7504.7504 0 0 1-.7113.7493c-6.5483.339-9.1703 4.826-9.1703 7.2052a.758.758 0 0 1-.0007.0319c-.0292.6869.109 1.3277.303 1.8715.7654-1.7309 2.2358-2.8294 3.6579-3.5099 1.8904-.9045 3.8208-1.1401 4.323-1.1844a9.871 9.871 0 0 0 .3066-.0324c.0671-.0078.1401-.0164.203-.0215.0654-.0054.1817-.0133.3061.0053.1395.0209.3545.085.5279.2824.1589.1811.1983.3808.2116.481.0137.1028.0119.2039.0101.2685a8.9524 8.9524 0 0 1-.0059.1549c-.0044.1025-.0091.2107-.0091.3671v1.6197c0 .061.048.1553.1424.1996a.2084.2084 0 0 0 .1281.0168c.0482-.0081.1374-.0376.2563-.1453a.7325.7325 0 0 1 .0315-.0269l6.305-5.1034a.2727.2727 0 0 0 .0133-.0314.4827.4827 0 0 0 .0261-.1508.3924.3924 0 0 0-.0044-.0672l-6.6453-5.3823a.3784.3784 0 0 0-.0645.0334c-.0516.033-.0911.074-.1147.1113ZM4.1798 19.526c-.5828.4721-.583.4719-.583.4717l-.0013-.0014-.002-.0025-.0054-.0068-.0167-.0214a3.8125 3.8125 0 0 1-.0546-.0722 5.9199 5.9199 0 0 1-.179-.2574 7.682 7.682 0 0 1-.5186-.9228c-.3665-.7705-.7355-1.8718-.6852-3.1349.0106-3.1532 3.1271-7.9775 9.8816-8.6343V5.4558c0-.6713.4093-1.1776.8316-1.448.3885-.2487 1.0481-.4492 1.6195-.0893a.7543.7543 0 0 1 .0723.0518l6.7705 5.4838c.4627.3326.5658.8898.5605 1.2549-.0057.3953-.136.8865-.4841 1.2313a.74.74 0 0 1-.056.0502l-6.3458 5.1364c-.6253.5556-1.3833.6544-2.0121.3589-.5846-.2747-1.0045-.8761-1.0045-1.5572v-1.623c-.5313.0547-2.1595.286-3.726 1.0355-1.6505.7898-3.106 2.0843-3.3152 4.2569a.75.75 0 0 1-1.3296.3998l.583-.4717Z"/>
</g></svg>