<svg xmlns="http://www.w3.org/2000/svg" data-laicon-version="15.0" viewBox="0 0 20 20" fill="black"><g transform="translate(-2 -2)">
  <path d="M8.5731 16.0871a.75.75 0 0 0 1.0249-.2734c.4804-.8301 1.3767-1.386 2.4021-1.386 1.0255 0 1.9218.5559 2.4022 1.386a.75.75 0 0 0 1.2982-.7514c-.7377-1.2746-2.1182-2.1346-3.7004-2.1346-1.5821 0-2.9626.86-3.7004 2.1346a.75.75 0 0 0 .2734 1.0248Zm6.2041-6.8907c-.6074 0-1.1.4924-1.1 1.1 0 .6075.4926 1.1 1.1 1.1.6076 0 1.1-.4925 1.1-1.1 0-.6076-.4924-1.1-1.1-1.1Zm-5.5542 0c-.6075 0-1.1.4924-1.1 1.1 0 .6075.4925 1.1 1.1 1.1.6075 0 1.1-.4925 1.1-1.1 0-.6076-.4925-1.1-1.1-1.1Z"/>
  <path d="M11.9999 4.15c-4.3354 0-7.85 3.5145-7.85 7.85 0 4.3354 3.5146 7.85 7.85 7.85 4.3355 0 7.85-3.5146 7.85-7.85 0-4.3355-3.5145-7.85-7.85-7.85ZM2.6499 12c0-5.1639 4.1861-9.35 9.35-9.35s9.35 4.1861 9.35 9.35-4.1861 9.35-9.35 9.35-9.35-4.1861-9.35-9.35Z"/>
</g></svg>