<svg xmlns="http://www.w3.org/2000/svg" data-laicon-version="15.0" viewBox="0 0 20 20" fill="black"><g transform="translate(-2 -2)">
  <path d="M10.0557 3.1533a.75.75 0 0 1 .7354-.6029h2.4185a.75.75 0 0 1 .7354.603l.2999 1.4995a7.6279 7.6279 0 0 1 1.3628.5655l1.2734-.849a.75.75 0 0 1 .9463.0938l1.7101 1.71a.75.75 0 0 1 .0937.9464l-.8487 1.2732c.23.4313.4201.887.5654 1.363l1.4994.2999a.75.75 0 0 1 .6029.7354v2.4185a.7501.7501 0 0 1-.603.7355l-1.4993.2997a7.6258 7.6258 0 0 1-.5655 1.3631l.8488 1.2732a.75.75 0 0 1-.0937.9463l-1.7101 1.7101a.75.75 0 0 1-.9463.0938l-1.2734-.8489a7.63 7.63 0 0 1-1.3628.5654l-.2999 1.4995a.75.75 0 0 1-.7354.6029h-2.4185a.75.75 0 0 1-.7354-.6029l-.3-1.4994a7.6303 7.6303 0 0 1-1.3629-.5655l-1.2732.8488a.7498.7498 0 0 1-.9463-.0937l-1.7101-1.7101a.75.75 0 0 1-.0938-.9463l.8488-1.2732a7.6388 7.6388 0 0 1-.5655-1.363l-1.4995-.2998a.75.75 0 0 1-.603-.7355v-2.4185a.75.75 0 0 1 .603-.7354l1.4996-.3a7.6327 7.6327 0 0 1 .5654-1.3629l-.8488-1.2732a.75.75 0 0 1 .0938-.9463l1.71-1.7101a.75.75 0 0 1 .9464-.0937l1.2732.8487c.4313-.2299.887-.42 1.3629-.5653l.3-1.4996Zm1.3502.8971-.2704 1.3518a.7499.7499 0 0 1-.5629.5828 6.1396 6.1396 0 0 0-1.8154.753.75.75 0 0 1-.81-.0141l-1.148-.7653-.8406.8406.7652 1.148a.75.75 0 0 1 .0141.8101 6.1396 6.1396 0 0 0-.753 1.8154.75.75 0 0 1-.5828.5628l-1.3518.2704v1.1888l1.3516.2703a.75.75 0 0 1 .5828.5627 6.1446 6.1446 0 0 0 .7532 1.8158.75.75 0 0 1-.014.81l-.7653 1.148.8405.8406 1.148-.7654a.7502.7502 0 0 1 .8103-.0141 6.1326 6.1326 0 0 0 1.8152.7531.75.75 0 0 1 .5629.5828l.2704 1.3517h1.1888l.2704-1.3517a.75.75 0 0 1 .5629-.5828 6.1332 6.1332 0 0 0 1.8151-.7531.7502.7502 0 0 1 .8102.0141l1.1482.7654.8406-.8405-.7653-1.1481a.7498.7498 0 0 1-.0141-.8101 6.1371 6.1371 0 0 0 .7531-1.8155.75.75 0 0 1 .5828-.5629l1.3516-.2703v-1.1888l-1.3516-.2704a.75.75 0 0 1-.5828-.5628 6.1341 6.1341 0 0 0-.7531-1.8153.75.75 0 0 1 .0141-.8102l.7653-1.148-.8406-.8406-1.1482.7655a.75.75 0 0 1-.8102.014 6.135 6.135 0 0 0-1.8151-.7531.75.75 0 0 1-.5629-.5828l-.2704-1.3518h-1.1888Z"/>
  <path d="M12.0003 9.6405c-1.3032 0-2.3597 1.0565-2.3597 2.3597 0 1.3032 1.0565 2.3597 2.3597 2.3597 1.3032 0 2.3597-1.0565 2.3597-2.3597 0-1.3032-1.0565-2.3597-2.3597-2.3597Zm-3.8597 2.3597c0-2.1316 1.728-3.8597 3.8597-3.8597 2.1316 0 3.8597 1.728 3.8597 3.8597 0 2.1317-1.7281 3.8597-3.8597 3.8597s-3.8597-1.728-3.8597-3.8597Z"/>
</g></svg>