<svg xmlns="http://www.w3.org/2000/svg" data-laicon-version="15.3" viewBox="0 0 20 20" fill="black"><g transform="translate(-2 -2)">
  <path d="M14.98 10.28h.88c.04 0 .07.01.09.03.02.02.03.09.03.09v3.21c0 .04-.01.07-.03.09-.02.02-.09.03-.09.03h-.88c-.04 0-.07-.01-.09-.03-.02-.02-.03-.09-.03-.09V10.4c0-.04.01-.07.03-.09.02-.02.09-.03.09-.03Zm-4.94.09s-.03-.05-.05-.06c-.02-.02-.05-.02-.08-.02h-.7s-.06 0-.08.02c-.02.02-.04.04-.05.06l-1.31 3.22s-.02.07 0 .11c.02.03.06.05.1.05h.91s.06 0 .08-.02a.18.18 0 0 0 .05-.07l.13-.41h1.01l.14.41s.03.06.05.07c.02.02.05.02.08.02h.92s.08-.01.1-.05c.02-.03.02-.07 0-.11l-1.31-3.22h.01Zm-.71 1.99.22-.66.22.66h-.44Zm2.41-2.08h1.21v-.01c.49 0 .87.11 1.13.33.26.23.39.57.39 1 0 .43-.13.77-.39.99-.25.22-.64.33-1.13.33h-.23v.69c0 .04-.01.07-.03.09-.02.02-.09.03-.09.03h-.86c-.04 0-.07-.01-.09-.03-.02-.02-.03-.09-.03-.09V10.4c0-.04.01-.07.03-.09.02-.02.09-.03.09-.03Zm1.19.91h-.21v.84h.21c.12 0 .22-.03.29-.09.06-.06.11-.16.11-.33s-.04-.27-.11-.33a.437.437 0 0 0-.29-.09Z"/>
  <path d="m19.14 12.83 1.58 1.23.02.01c.44.34.56.96.28 1.44l-1.44 2.5c-.28.47-.9.68-1.4.47l-1.84-.74c-.45.35-.95.63-1.47.86l-.28 1.98c-.08.54-.56.96-1.11.96h-2.89c-.56 0-1.03-.41-1.11-.96l-.28-1.97c-.53-.23-1.02-.51-1.48-.85l-1.86.75c-.54.21-1.12-.01-1.39-.48l-1.45-2.5c-.28-.48-.16-1.1.28-1.44l1.57-1.22c-.03-.29-.05-.58-.05-.87 0-.27.02-.55.05-.83L3.29 9.94c-.43-.34-.56-.96-.28-1.44L4.46 6c.27-.48.89-.68 1.39-.48l1.84.74c.45-.35.95-.63 1.47-.86l.28-1.98c.08-.55.56-.96 1.11-.96h2.89c.56 0 1.03.41 1.11.96l.27 1.97c.53.22 1.02.51 1.48.85l1.86-.75c.48-.2 1.12.01 1.39.48l1.44 2.5c.28.48.16 1.1-.28 1.44l-1.57 1.22c.03.29.05.58.05.87 0 .27-.02.55-.05.83Zm-3.05 3.2 2.33.94h.02l1.11-1.93-1.99-1.55.1-.8c.03-.23.04-.45.04-.69 0-.24-.02-.48-.05-.72l-.11-.81 1.98-1.54L18.41 7l-2.34.95-.65-.49c-.37-.28-.78-.52-1.22-.7l-.75-.31-.35-2.49h-2.23l-.35 2.5-.75.32c-.43.19-.84.43-1.21.71l-.65.5-2.33-.94-1.11 1.93 1.98 1.55-.1.8c-.03.23-.04.45-.04.69 0 .24.02.48.05.72l.1.81-1.98 1.54 1.11 1.93 2.34-.95.65.49c.37.28.78.52 1.22.7l.75.31.35 2.49h2.23l.35-2.5.75-.32c.43-.19.84-.42 1.21-.71l.65-.5Z"/>
</g></svg>