<svg xmlns="http://www.w3.org/2000/svg" data-laicon-version="15.0" viewBox="0 0 20 20" fill="black"><g transform="translate(-2 -2)">
  <path d="M8.8198 12c0-1.75 1.4301-3.18 3.1801-3.18S15.18 10.25 15.18 12c0 1.75-1.4301 3.18-3.1801 3.18s-3.18-1.43-3.18-3.18Zm1.5001 0c0 .93.75 1.68 1.68 1.68.93 0 1.6801-.75 1.6801-1.68 0-.93-.7501-1.68-1.6801-1.68-.93 0-1.68.75-1.68 1.68Z"/>
  <path d="m19.1401 12.83 1.58 1.23.01.01c.43.35.55.97.28 1.44l-1.44 2.51c-.31.5-.95.68-1.43.46l-1.81-.73c-.47.35-.96.63-1.47.85l-.28 1.99c-.09.56-.56.96-1.11.96h-2.89c-.57 0-1.05-.42-1.11-.98l-.28-1.95c-.52-.22-1.01-.51-1.48-.85l-1.86.75c-.11.05-.27.08-.42.08-.39 0-.75-.2-.96-.54l-1.45-2.53c-.27-.47-.16-1.09.27-1.43l1.57-1.23c-.03-.29-.0499-.58-.0499-.87 0-.28.02-.55.05-.83l-1.58-1.24c-.43-.34-.55-.96-.28-1.43L4.44 5.99c.3-.5.93-.68 1.41-.47l1.82.74c.45-.34.95-.63 1.48-.86l.27-1.98c.09-.57.56-.97 1.1101-.97h2.89c.57 0 1.05.43 1.11.99l.28 1.94c.52.22 1.02.51 1.48.85l1.86-.75c.14-.06.3099-.08.4199-.08.39 0 .7501.2.9601.54L20.98 8.47c.27.47.15 1.09-.27 1.43l-1.57 1.23c.03.3.05.6.05.87s-.02.55-.05.83Zm-3.04 3.2 2.3301.94v-.02l1.11-1.93-2-1.55.11-.81c.02-.22.0399-.45.0399-.68 0-.24-.02-.49-.05-.73l-.0999-.8 1.9699-1.54-1.1099-1.93-2.34.95-.65-.49c-.38-.28-.7901-.52-1.2201-.7l-.75-.31-.35-2.49h-2.23l-.34 2.5-.75.32c-.43.19-.8399.43-1.2099.71l-.65.5L5.58 7.03 4.47 8.96l1.98 1.54-.08.8c-.03.24-.05.47-.05.7 0 .24.01.49.04.73l.1.8-1.97 1.55 1.11 1.93 2.34-.95.65.49c.39.28.8001.52 1.2201.7l.75.31.35 2.49H13.14l.35-2.49.74-.32c.43-.18.84-.42 1.23-.71l.64-.5Z"/>
</g></svg>