<svg xmlns="http://www.w3.org/2000/svg" data-laicon-version="18.8" viewBox="0 0 20 20" fill="black"><g transform="translate(-2 -2)">
  <path d="m14.525 4-1.39 1.39h4.906l.15.01c.294.031.571.15.797.34l.109.1.098.11c.215.268.333.602.335.946v5.944a4.99 4.99 0 0 0-1.273-.233l-.227-.006v-1.414h-6.227v6.978h1.23c.06.53.202 1.034.413 1.5H4.072a1.49 1.49 0 0 1-1.057-.45 1.523 1.523 0 0 1-.432-1.059L2.561 6.902v-.006l.007-.147c.035-.34.184-.662.426-.91l.109-.1c.263-.22.598-.346.947-.348h4.922L7.582 4l1.06-1.06 2.41 2.41 2.412-2.41L14.525 4ZM4.083 18.153l.003.012h6.217v-6.977H4.069l.014 6.965ZM4.061 6.905l.005 2.782h6.237V6.892H4.065a.025.025 0 0 0-.004.014Zm7.742 2.782h6.227V6.905a.025.025 0 0 0-.005-.014h-6.222v2.796Z"/>
  <path d="M18 13.6a4 4 0 1 0 0 8 4 4 0 0 0 0-8Zm.183 2.117.317.319-1.114 1.114H20.3v.9h-2.914l1.114 1.114-.317.318-.319.318-1.883-1.883-.318-.317 2.201-2.201.319.318Z"/>
</g></svg>