<svg xmlns="http://www.w3.org/2000/svg" data-laicon-version="15.0" viewBox="0 0 20 20" fill="black"><g transform="translate(-2 -2)">
  <path d="M3 7.85C3 6.3312 4.2312 5.1 5.75 5.1h12.5C19.7688 5.1 21 6.3312 21 7.85v10c0 1.5187-1.2312 2.75-2.75 2.75H5.75C4.2312 20.6 3 19.3687 3 17.85v-10ZM5.75 6.6c-.6904 0-1.25.5596-1.25 1.25v10c0 .6903.5596 1.25 1.25 1.25h12.5c.6904 0 1.25-.5597 1.25-1.25v-10c0-.6904-.5596-1.25-1.25-1.25H5.75Z"/>
  <path d="M11.2476 19.35V5.85h1.5v13.5h-1.5Z"/>
  <path d="m8.2695 3.1803 1.0607-1.0607 2.6697 2.6697 2.6697-2.6697 1.0606 1.0607-3.7303 3.7303-3.7304-3.7303Z"/>
</g></svg>