<svg xmlns="http://www.w3.org/2000/svg" data-laicon-version="18.11" viewBox="0 0 20 20" fill="black"><g transform="translate(-2 -2)">
  <path d="M9.52 7.43c-.13.25-.48.7-.83.92-.25.16-.51.21-.75.06-.54-.34-.1-.85-.1-.85l.89-.89s.26-.27.53-.16c.32.13.39.64.26.91ZM21.35 12c0 5.16-4.19 9.35-9.35 9.35S2.65 17.16 2.65 12 6.84 2.65 12 2.65c2.7 0 5.12 1.15 6.83 2.99l.01.01c.35.35.64.73.9 1.12v.01c.12.18.23.37.34.56.58 1 .97 2.12 1.15 3.31.04.21.05.34.06.37.03.33.05.66.05.99Zm-3.46-.7c-.07.03-.16.09-.23.14.25.52.68 1.05.87 1.09.14.03.29.1.41.2v-.65c0-.15.04-.3.13-.43l.63-.94s.02-.03.03-.04c-.13-.63-.44-1.76-1.05-2.8-.04-.07-.08-.15-.13-.22-.02-.04-.05-.07-.08-.11-.11-.16-.23-.32-.36-.48-.09-.11-.18-.21-.28-.32-.01-.02-.03-.03-.04-.05-1.88-1.88-3.5-2.2-3.98-2.26-.7.32-1.4.8-1.49 1.02-.11.3-.07.65-.03.98.04.32.08.62 0 .92-.22.83-.71 1.13-1.04 1.33-.19.11-.24.15-.28.24s-.06.25.03.43c.06.13.21.24.44.32.09.03.12.03.38-.09.35-.15.87-.38 1.63-.15.3.09.47.28.57.44.03-.02.04-.05.05-.07.11-.19.3-.54.76-.71l.9-.47c.29-.16.66-.1.89.14.23.24.28.6.12.89 0 .01.02.06.07.12.07.06.41.12.69.08.38-.05.72.18.82.54s-.08.74-.42.89Zm-3.71 2.84.03-.15c-.34.23-.86.42-1.49 0-.38-.26-.57-.51-.68-.69H12c-.31.02-.53 0-.7-.01-.06 0-.1-.01-.15 0 0 0-.06.03-.25.19-.29.25-.41.43-.46.52.05.66.14 1.45.23 1.68.08.12.61.29.93.39l.16.05c.8.26 1.14.5 1.23.56.14.11.24.28.27.46.13.73.34 1.52.45 1.69.08.1.13.18.18.23 0 0-.01-.01.02-.01-.17-.81.12-1.19.46-1.37.18-.1.36-.13.51-.14-.03-.35-.1-.64-.1-.64-.11-.4.13-.81.52-.92l.18-.06c-.46-.18-.99-.54-1.27-1.33-.05-.14-.06-.29-.02-.43Zm4.76 1.52c-.3-.03-.55-.22-.65-.5l-.43-1.29c-.8-.39-1.35-1.38-1.54-1.78-.19-.3-.25-.63-.17-.95-.17-.09-.34-.21-.48-.37-.08-.09-.15-.19-.2-.29-.03.01-.05.02-.08.03.04-.01.02.02 0 .05-.14.25-.44.77-1.28.85-.62.06-1.05-.13-1.29-.56-.12 0-.23.05-.4.12-.32.14-.81.35-1.47.13-.79-.27-1.16-.75-1.32-1.11-.36-.78-.08-1.56-.05-1.65.27-.55.64-.78.88-.93.23-.14.3-.19.37-.44 0-.04-.02-.22-.04-.35-.06-.45-.13-1.05.11-1.7.1-.28.31-.53.55-.76-4.07.28-7.3 3.68-7.3 7.82s3.52 7.85 7.85 7.85c.2 0 .39-.02.58-.03-.03-.04-.06-.07-.09-.12-.3-.41-.53-1.35-.65-1.97-.12-.05-.3-.13-.54-.2l-.15-.05c-.79-.25-1.61-.51-1.9-1.32-.2-.56-.3-1.96-.32-2.24v-.16c.03-.21.19-.77.99-1.45.61-.52.96-.58 1.51-.54.12.01.27.02.47 0 .79-.06 1.12.22 1.38.64.05.09.09.15.19.23l.04-.04c.23-.22.7-.68 1.4-.49.72.2 1.01.97.79 2.1.15.25.36.29.69.34.12.02.22.04.3.06.32.09.58.3.72.58.16.31.17.68.03 1.04-.16.42-.61.71-1.09.92.03.25.05.55.02.86-.02.26-.11.46-.24.62 1.18-.73 2.15-1.77 2.81-3Z"/>
</g></svg>