<svg xmlns="http://www.w3.org/2000/svg" data-laicon-version="15.0" viewBox="0 0 20 20" fill="black"><g transform="translate(-2 -2)">
  <path d="M12.0001 2.6c-5.2 0-9.4 4.2-9.4 9.4s4.2 9.4 9.4 9.4 9.3-4.2 9.3-9.4-4.1-9.4-9.3-9.4Zm0 1.5c.7 0 1.3.1 1.9.2l-2.1 1.8c-.2.2-.3.4-.3.6 0 .2.1.4.3.6l.6.4v2.1c-.2 0-.5.1-.6.3l-.7 1c-.3-.1-.6 0-.8.2l-.6.7c-.3.3-.2.8.1 1l.6.5h-.8l-1-2.1c-.1-.2-.3-.4-.5-.4s-.5 0-.7.2l-1 1h-2.2v-.4c-.1-4.1 3.5-7.7 7.8-7.7Zm-7.6 9.8h2.3c.2 0 .4-.1.5-.2l.4-.4.7 1.6c.1.3.4.4.7.4h1.6c.2 0 .3-.1.5-.2l.5-.4c.1-.1.2-.3.3-.5l.1-.6c0-.3 0-.5-.2-.7.1-.1.3-.1.3-.3l.8-1.1.2.1c.2.1.5.1.7-.1.2-.1.3-.4.3-.6V7.4c0-.2-.1-.5-.3-.6l-.2-.1 2-1.7c2.6 1.3 4.3 3.9 4.3 7 0 1-.2 1.9-.5 2.7l-.3-1c-.1-.3-.3-.5-.5-.5-.3-.1-.5 0-.7.2l-.2.2c-.1-.1-.2-.3-.4-.3l-.6-.3h-.7c-.2 0-.3.1-.5.2l-1 .7-1.1.5c-.1 0-.2.1-.2.2l-.6.6c-.1.1-.2.3-.2.5v.9c0 .2.1.4.3.6l1.2 1c.2.2.5.2.7.1l.9-.3.4.5.1.1c-1.2.8-2.6 1.2-4.2 1.2-3.5 0-6.5-2.5-7.4-5.9Zm12 1.9c.2.1.5.2.8 0l.7-.4s.1 0 .1-.1l.4.7-.1.4-.4.5-.5.5-.4-.1-.6-.7c-.2-.2-.5-.3-.8-.2l-1 .3-.6-.5v-.3l.2-.2 1.1-.4c.1 0 .1-.1.2-.1l.6-.5v.4c0 .2.1.5.3.7Z"/>
</g></svg>