<svg xmlns="http://www.w3.org/2000/svg" data-laicon-version="15.0" viewBox="0 0 20 20" fill="black"><g transform="translate(-2 -2)">
  <path d="M21.3499 12c0-5.16-4.19-9.35-9.35-9.35-5.16 0-9.35 4.19-9.35 9.35 0 5.16 4.19 9.35 9.35 9.35h.07c5.12-.04 9.28-4.22 9.28-9.35Zm-3.55-.53c-.18-.27-.2-.69.06-1.18s.68-.83 1.05-.93c.02 0 .05 0 .1-.01h.11c.36 1.01.57 1.97.6 3-.16-.04-.31-.08-.44-.11-.08-.02-.3-.08-.3-.08-.59-.18-.97-.37-1.18-.68v-.01Zm-6.46-3.71c-.4.19-.87.44-1.14.88-.27.44-.13.87.07 1.2-.51-.25-1.02-.1-1.31-.02-.38.1-1.08.3-1.37 1-.03.06-.07.21-.1.4a4.7986 4.7986 0 0 1-.95-.96c-.4-.54-.78-1.13-1.13-1.77.16-.54.51-1.47 1.02-1.99.46-.48 1.09-.84 1.5-1.03.47.43 1.21.93 2.44.38.72-.33 1.03-.86 1.09-1.38.33.2.71.49.84.84.11.38-.07.62-.49 1.05-.27.27-.54.56-.55.98 0 .17.04.31.1.43l-.02-.01ZM4.1499 12c0-.75.11-1.48.31-2.17.28.46.57.9.87 1.31.9 1.22 2.12 1.88 3.19 2.46.04.02.08.04.12.05.37.13.73.35.97.58.04.05.08.09.12.13.11.12.18.24.19.33.02.18.01.35 0 .53-.01.36-.03.77.1 1.2.13.44.4.75.62.99.13.15.24.27.3.39.15.32.23.71.24 1.15 0 .33 0 .6.01.85-3.95-.4-7.05-3.75-7.05-7.81l.01.01Zm9.01 6.15s-.24.63-.35.94c0 0-.06.21-.11.49-.01-.31-.02-.58-.02-.63 0-.67-.13-1.27-.38-1.79-.15-.31-.35-.53-.52-.74-.15-.17-.27-.31-.31-.44-.06-.19-.05-.43-.04-.7 0-.26.02-.51-.01-.76-.01-.09-.03-.18-.05-.26.12-.06.3-.15.35-.16.53-.02 1.78-.09 1.79-.09 0 0 1.12-.04 1.29.59.04.17-.05.7-.15.91-.08.15-.21.31-.37.48-.17.19-.35.4-.51.66-.29.49-.58 1.45-.6 1.5h-.01Zm1.09 1.36c.11-.3.3-.82.32-.87.1-.34.33-.98.48-1.24.08-.13.2-.27.33-.42.2-.23.43-.48.59-.82.19-.4.45-1.42.21-2.07-.39-1.36-1.94-1.63-2.79-1.58 0 0-1.24.07-1.77.09-.35.02-.68.18-.97.33-.02.01-.05.03-.08.04-.13-.24-.35-.55-.81-.9-.22-.17-.43-.26-.6-.33-.15-.07-.21-.1-.24-.12 0-.08.01-.18.02-.2.05-.05.28-.12.39-.15l.1-.03c.09-.03.14-.04.16-.04.8.86 1.83.1 2.17-.16.21-.16.35-.38.38-.64.06-.47-.22-.83-.46-1.12 0 0-.01-.02-.02-.03.15-.09.35-.17.47-.22.41-.18.8-.35.95-.77.13-.38 0-.7-.18-.93.44-.46 1.15-1.26.78-2.51-.07-.19-.17-.36-.27-.52a7.85 7.85 0 0 1 5.23 3.59c-.02 0-.1.02-.1.02-.88.21-1.62.92-2.03 1.69-.41.78-.58 1.84.03 2.73.52.77 1.37 1.08 1.98 1.26.1.03.56.15.95.25l.13.03a7.8772 7.8772 0 0 1-1.9309 3.5394 7.8769 7.8769 0 0 1-3.4291 2.1206l.01-.02Z"/>
</g></svg>