<svg xmlns="http://www.w3.org/2000/svg" data-laicon-version="15.0" viewBox="0 0 20 20" fill="black"><g transform="translate(-2 -2)">
  <path d="m6.7998 15.8971 5.1728 2.9865 5.1728-2.9865v-4.6075h1.5V16.33a.7495.7495 0 0 1-.375.6497l-5.9228 3.4193a.7499.7499 0 0 1-.75 0l-5.9228-3.4193a.7505.7505 0 0 1-.375-.6497v-5.0404h1.5v4.6075Z"/>
  <path d="M11.6004 3.3505a.7498.7498 0 0 1 .75 0l9.1751 5.2973a.7506.7506 0 0 1 .3748.6495.75.75 0 0 1-.3748.6495l-9.1751 5.2973a.7506.7506 0 0 1-.75 0L2.4253 9.9468a.75.75 0 0 1 0-1.299l9.1751-5.2973ZM4.3003 9.2973l7.6751 4.4312 7.6751-4.4312-7.6751-4.4313-7.6751 4.4313Z"/>
  <path d="M20.4004 14.16V9.2972h1.5V14.16h-1.5Z"/>
</g></svg>