<svg xmlns="http://www.w3.org/2000/svg" data-laicon-version="18.12" viewBox="0 0 20 20" fill="black"><g transform="translate(-2 -2)">
  <path d="M12.056 2.342c.849 0 1.577.516 1.89 1.25.2-.078.413-.127.632-.14l.044-.002h.002c1.103 0 2.017.79 2.09 1.893l.053.597c.18-.065.371-.105.571-.115l.04-.001h.001c1.059 0 1.937.754 2.019 1.81h.002l.01.092.001.01c.276 2.497.47 4.398.543 5.34.11 1.401.127 3.624-1.22 5.718-1.572 2.44-4.307 2.9-6.157 2.9-2.099 0-4.316-.989-5.685-2.544-.906-1.03-2.4-2.889-3.28-3.984l-.001-.003-.005-.006-.019-.024-.066-.081c-.056-.07-.13-.164-.21-.262l-.383-.475-.002-.002c-.782-.95-.907-2.453.062-3.328l.003-.003a2.129 2.129 0 0 1 1.434-.546c.637 0 1.23.272 1.688.712l.548.475.683-6.48A2.055 2.055 0 0 1 9.392 3.25h.036c.286.015.56.079.809.19a2.065 2.065 0 0 1 1.819-1.097Zm0 1.5a.558.558 0 0 0-.556.576l-.055 1.2-.16 5.146a.75.75 0 0 1-1.499-.046l.159-5.136v-.21l.002-.038a.532.532 0 0 0-.075-.306l-.063-.086a.611.611 0 0 0-.435-.192.555.555 0 0 0-.538.55l-.833 7.91a.75.75 0 0 1-1.237.489L5.13 12.281a.766.766 0 0 1-.039-.036c-.219-.218-.46-.309-.667-.309a.632.632 0 0 0-.434.163c-.215.198-.325.751.091 1.26.064.076.243.297.399.491l.21.262.067.083.018.024a.59.59 0 0 0 .005.005l.002.002 1.622 2.008a74.95 74.95 0 0 0 1.613 1.925c1.078 1.224 2.882 2.035 4.56 2.035 1.69 0 3.746-.43 4.894-2.213.941-1.463 1.07-3.032 1.018-4.275l-.03-.512c-.072-.914-.262-2.789-.538-5.285l-.012-.093a.776.776 0 0 1-.004-.053c-.012-.223-.182-.43-.506-.438a.473.473 0 0 0-.42.386l-.005.087v.484l.204 3.235a.75.75 0 0 1-1.497.094l-.202-3.23-.26-2.905a.831.831 0 0 1-.002-.027c-.014-.255-.21-.488-.57-.498a.526.526 0 0 0-.349.174v-.001a.523.523 0 0 0-.134.403v.033l.16 5.157a.75.75 0 0 1-1.5.047l-.159-5.157V5.59l-.038-.82-.011-.239-.004-.09a.77.77 0 0 1-.001-.043.557.557 0 0 0-.556-.555Z"/>
</g></svg>