<svg xmlns="http://www.w3.org/2000/svg" data-laicon-version="15.0" viewBox="0 0 20 20" fill="black"><g transform="translate(-2 -2)">
  <path d="M11.9998 5.2236c-.9103 0-1.6482.738-1.6482 1.6482h-1.5c0-1.7387 1.4095-3.1482 3.1482-3.1482 1.7387 0 3.1482 1.4095 3.1482 3.1482 0 1.4803-1.0216 2.7218-2.3982 3.0582v2.0326h-1.5V9.2699a.75.75 0 0 1 .75-.75c.9103 0 1.6482-.7378 1.6482-1.648 0-.9104-.7379-1.6483-1.6482-1.6483Z"/>
  <path d="M11.5197 11.3867a.7502.7502 0 0 1 .961 0l9.0651 7.5638a.75.75 0 0 1-.4805 1.3259H2.9351a.75.75 0 0 1-.4805-1.3259l9.0651-7.5638Zm-6.515 7.3897h13.9911l-6.9956-5.837-6.9956 5.837Z"/>
</g></svg>