<svg xmlns="http://www.w3.org/2000/svg" data-laicon-version="15.0" viewBox="0 0 20 20" fill="black"><g transform="translate(-2 -2)">
  <path d="M4.8501 4.85v14.3h14.3V4.85h-14.3Zm-1.5-.25c0-.6904.5596-1.25 1.25-1.25h14.8c.6904 0 1.25.5596 1.25 1.25v14.8c0 .6903-.5597 1.25-1.25 1.25h-14.8c-.6904 0-1.25-.5596-1.25-1.25V4.6Z"/>
  <path d="M7.359 14.55h1.085c.055 0 .1108-.0169.153-.0591.042-.0421.059-.0979.059-.1529v-1.797h1.697v1.797c0 .055.0169.1108.059.1529.0421.0422.0979.0591.153.0591h1.085a.2134.2134 0 0 0 .1487-.0575c.0418-.04.0633-.0951.0633-.1545V9.424c0-.0595-.0215-.1145-.0633-.1545a.2132.2132 0 0 0-.1487-.0575h-1.085c-.0551 0-.1109.0169-.153.059s-.059.098-.059.153v1.685H8.656V9.424c0-.055-.017-.1108-.059-.153-.0422-.0421-.098-.059-.153-.059H7.359c-.055 0-.1109.0169-.153.059s-.059.098-.059.153v4.914c0 .055.0169.1108.059.1529.0421.0422.098.0591.153.0591Zm5.4746 0h1.897c.8475 0 1.5267-.2345 1.9942-.6937.4678-.4595.7098-1.1304.7098-1.9753 0-.8517-.2419-1.5229-.7099-1.9808-.4677-.4575-1.147-.6882-1.9941-.6882h-1.897c-.055 0-.1108.0169-.1529.059-.0422.0421-.0591.098-.0591.153v4.914c0 .055.0169.1108.0591.1529.0421.0422.0979.0591.1529.0591Zm1.771-3.934c.44 0 .761.1083.9721.3108.2103.2017.3279.5128.3279.9542 0 .4413-.1176.7524-.3279.9542-.2111.2025-.5321.3108-.9721.3108h-.495v-2.53h.495Z"/>
</g></svg>