<svg xmlns="http://www.w3.org/2000/svg" data-laicon-version="15.0" viewBox="0 0 20 20" fill="black"><g transform="translate(-2 -2)">
  <path d="M12.766 5.5113c2.0825-2.0827 5.459-2.0825 7.5414 0 2.0825 2.0824 2.0825 5.4589-.0001 7.5414 0 0 .0001 0 0 0l-1.296 1.2962-7.0112 7.0112-7.0112-7.0111-1.2962-1.2962c-2.0825-2.0825-2.0825-5.459 0-7.5414 2.0825-2.0825 5.459-2.0825 7.5415 0l.7659.7657.7659-.7658Zm6.4808 1.0606c-1.4968-1.4967-3.9235-1.4968-5.4202 0l-1.8265 1.8265-1.8265-1.8264c-1.4968-1.4967-3.9235-1.4967-5.4202 0-1.4967 1.4967-1.4967 3.9235 0 5.4202L12 19.2387l5.9504-5.9504 1.2961-1.2962c1.4968-1.4967 1.4969-3.9235.0002-5.4202Z"/>
</g></svg>