<svg xmlns="http://www.w3.org/2000/svg" data-laicon-version="15.0" viewBox="0 0 20 20" fill="black"><g transform="translate(-2 -2)">
  <path d="M4.1186 12c0-4.6977 3.8083-8.5059 8.506-8.5059 4.6976 0 8.5058 3.8082 8.5058 8.5059 0 4.6976-3.8082 8.5058-8.5058 8.5058-2.3928 0-4.556-.9889-6.1005-2.5785l1.0757-1.0454c1.2738 1.3109 3.0537 2.1239 5.0248 2.1239 3.8692 0 7.0058-3.1366 7.0058-7.0058 0-3.8692-3.1366-7.0059-7.0058-7.0059-3.8692 0-7.0058 3.1367-7.0058 7.0059 0 .3888.0314.7696.0922 1.1403l-1.4805.2421A8.561 8.561 0 0 1 4.1186 12Z"/>
  <path d="M7.9202 11.6158H7.92l-3.118 3.0037-2.992-3.1019 1.0798-1.0413 1.9513 2.023 2.0385-1.9638 1.0406 1.0803Zm5.3299-.0579 2.4988 1.4014-.7337 1.3083-3.2651-1.8312V7.4016h1.5v4.1563Z"/>
</g></svg>