<svg xmlns="http://www.w3.org/2000/svg" data-laicon-version="15.0" viewBox="0 0 20 20" fill="black"><g transform="translate(-2 -2)">
  <path d="M14.1102 11.05c1.2-.67 3.44-1.91 3.44-5.21V4.69h1.25v-1.5h-13.6v1.5h1.25v1.15c0 3.29 2.24 4.54 3.51 5.24.29.16.48.53.48.92 0 .45-.24.79-.54.96-1.2.67-3.44 1.91-3.44 5.21v1.21h-1.25v1.5h13.6v-1.5h-1.25v-1.22c0-3.28-2.24-4.52-3.51-5.23-.24-.13-.48-.47-.48-.92 0-.45.24-.79.54-.96Zm-6.16-6.36h8.1v1.15c0 .77-.17 1.36-.42 1.86h-7.27c-.25-.49-.42-1.09-.42-1.86V4.69h.01Zm2.74 9.55c.21-.12.39-.28.56-.46v2.35c-.37.02-.75.06-1.12.12l-1.93.43c.48-1.32 1.58-1.94 2.49-2.44Zm-2.74 5.14v-1.1l2.45-.55c1.02-.16 2.05-.16 3.01 0l2.64.61v1.06h-8.1v-.02Zm7.87-2.65-2.12-.49c-.31-.05-.63-.08-.95-.11v-2.38c.18.2.39.38.63.52.86.48 1.97 1.1 2.44 2.45v.01Zm-2.5-6.95c-.76.42-1.24 1.29-1.25 2.22h-.13c0-.93-.49-1.8-1.31-2.26-.28-.16-.59-.33-.9-.54h4.55c-.32.22-.65.41-.96.58Z"/>
</g></svg>