<svg xmlns="http://www.w3.org/2000/svg" data-laicon-version="15.0" viewBox="0 0 20 20" fill="black"><g transform="translate(-2 -2)">
  <path d="M18.8002 3.2v1.5h-13.6V3.2h13.6Zm0 16.2v1.5h-13.6v-1.5h13.6Z"/>
  <path d="M17.6001 20.1h-1.5v-1.9c0-2.4-1.5-3.3-2.7-3.9-.8-.5-1.3-1.3-1.3-2.3 0-.9.5-1.8 1.2-2.2 1.2-.7 2.7-1.5 2.7-3.9V4h1.5v1.9c0 3.3-2.2 4.5-3.4 5.2-.3.2-.5.5-.5 1s.2.8.5.9c1.3.7 3.5 1.9 3.5 5.2v1.9Zm-9.6002 0h-1.5v-1.9c0-3.3 2.2-4.5 3.4-5.2.3-.2.5-.5.5-1s-.2-.8-.5-.9c-1.3-.7-3.5-1.9-3.5-5.2V4h1.6v1.9c0 2.4 1.5 3.3 2.7 3.9.8.5 1.3 1.3 1.3 2.3 0 .9-.5 1.8-1.2 2.2-1.3.6-2.8 1.5-2.8 3.9v1.9Z"/>
</g></svg>