<svg xmlns="http://www.w3.org/2000/svg" data-laicon-version="15.0" viewBox="0 0 20 20" fill="black"><g transform="translate(-2 -2)">
  <path d="M4.9785 7.5194c0-2.855 2.3144-5.1694 5.1694-5.1694h3.7044a.75.75 0 0 1 .75.75c0 2.0266 1.6429 3.6694 3.6694 3.6694a.75.75 0 0 1 .75.75v9.7a.75.75 0 0 1-.75.75H5.7285a.75.75 0 0 1-.75-.75v-9.7ZM10.148 3.85c-2.0266 0-3.6694 1.6428-3.6694 3.6694v8.95h11.0432v-8.254c-2.2546-.3277-4.0377-2.1107-4.3654-4.3654H10.148Z"/>
  <path d="M11.25 21.9v-4.6806h1.5V21.9h-1.5Z"/>
</g></svg>