<svg xmlns="http://www.w3.org/2000/svg" data-laicon-version="15.0" viewBox="0 0 20 20" fill="black"><g transform="translate(-2 -2)">
  <path d="M17.2744 11.4961h-4.5879v-1.4h4.5879v1.4Zm0 2.7557h-4.5879v-1.4h4.5879v1.4Z"/>
  <path d="M4.3501 5.5304v12.9392h15.3V5.5304h-15.3Zm-1.5-.25c0-.6903.5597-1.25 1.25-1.25h15.8c.6903 0 1.25.5597 1.25 1.25v13.4392c0 .6903-.5597 1.25-1.25 1.25h-15.8c-.6903 0-1.25-.5597-1.25-1.25V5.2804Z"/>
  <path d="M10.9563 10.0352v4.2776H6.6797v-4.2776h4.2766Zm-1.4 1.4H8.0797v1.4776h1.4766v-1.4776Z"/>
</g></svg>