<svg xmlns="http://www.w3.org/2000/svg" data-laicon-version="15.0" viewBox="0 0 20 20" fill="black"><g transform="translate(-2 -2)">
  <path d="M4.8506 4.85v14.3h14.299V4.85H4.8506Zm-1.5-.25c0-.6903.5597-1.25 1.25-1.25h14.799c.6903 0 1.25.5597 1.25 1.25v14.8c0 .6903-.5597 1.25-1.25 1.25H4.6006c-.6903 0-1.25-.5597-1.25-1.25V4.6Z"/>
  <path d="M15.135 8.352c-.6501 0-1.1775.5258-1.1775 1.1748 0 .6492.5274 1.1749 1.1775 1.1749s1.1775-.5258 1.1775-1.1749c0-.649-.5274-1.1747-1.1775-1.1747ZM15.5504 15.6108l-4.0215-6.2694-4.0216 6.2694h8.0431Z"/>
</g></svg>