<svg xmlns="http://www.w3.org/2000/svg" data-laicon-version="16.1" viewBox="0 0 20 20" fill="black"><g transform="translate(-2 -2)">
  <path d="M13.791 9.642a.94.94 0 1 1 1.88 0 .94.94 0 0 1-1.88 0Zm-1.87-.186 3.174 4.948H8.93v-.1l-.084-.054 3.075-4.794Z"/>
  <path d="M7.126 3.25c-.69 0-1.251.56-1.251 1.251V19.5c0 .69.56 1.251 1.251 1.251h9.748c.69 0 1.251-.56 1.251-1.251v-15c0-.69-.56-1.251-1.251-1.251H7.126Zm.249 16V4.75h9.25v14.5h-9.25ZM20.49 5H19v1.5h1.25v11H19V19h1.49a1.26 1.26 0 0 0 1.26-1.26V6.26A1.26 1.26 0 0 0 20.49 5ZM2.25 6.26c0-.696.564-1.26 1.26-1.26H5v1.5H3.75v11H5V19H3.51a1.26 1.26 0 0 1-1.26-1.26V6.26Z"/>
</g></svg>