<svg xmlns="http://www.w3.org/2000/svg" data-laicon-version="15.3" viewBox="0 0 20 20" fill="black"><g transform="translate(-2 -2)">
  <path d="m19.577 20.638 1.343 1.342 1.06-1.06-18.9-18.9-1.06 1.06 1.343 1.343a1.26 1.26 0 0 0-.013.177v14.8c0 .69.56 1.25 1.25 1.25h14.8c.06 0 .12-.004.177-.012ZM18.09 19.15H4.85V5.91l5.41 5.41-2.753 4.29h7.043l3.54 3.54ZM20.65 4.6v12.99l-1.5-1.5V4.85H7.91l-1.5-1.5H19.4c.69 0 1.25.56 1.25 1.25Z"/>
  <path d="M15.135 8.352c-.65 0-1.178.526-1.178 1.175s.528 1.175 1.178 1.175a1.176 1.176 0 1 0 0-2.35Z"/>
</g></svg>