<svg xmlns="http://www.w3.org/2000/svg" data-laicon-version="15.0" viewBox="0 0 20 20" fill="black"><g transform="translate(-2 -2)">
  <path d="M4.75 4.75v12.909h12.908V4.75H4.75Zm-1.5-.293c0-.664.5377-1.207 1.206-1.207h13.495c.6662 0 1.207.5408 1.207 1.207v13.496c0 .6684-.5429 1.206-1.207 1.206H4.456c-.6662 0-1.206-.5398-1.206-1.206V4.457Z"/>
  <path d="m10.774 8.9005-3.5079 5.4692h7.0169l-3.509-5.4692Zm2.2548 1.1172c0 .5695.4631 1.031 1.034 1.031.5702 0 1.032-.4617 1.032-1.031 0-.5691-.4617-1.032-1.032-1.032-.5711 0-1.034.4627-1.034 1.032Z"/>
  <path d="M20.2307 20.2315V5.6025h1.4v14.867c0 .6416-.5204 1.162-1.162 1.162H5.7637v-1.4h14.467Z"/>
</g></svg>