<svg xmlns="http://www.w3.org/2000/svg" data-laicon-version="15.3" viewBox="0 0 20 20" fill="black"><g transform="translate(-2 -2)">
  <path d="M13.466 9.2a1.033 1.033 0 1 0 0 2.067 1.033 1.033 0 0 0 0-2.067Zm.649 6.533-3.449-5.419-3.449 5.42h6.898Z"/>
  <path d="M2.5 5c0-.966.784-1.75 1.75-1.75h3.293c.331 0 .65.132.884.366L9.56 4.75h8.189c.69 0 1.25.56 1.25 1.25v1.25h1.25c.69 0 1.25.56 1.25 1.25v10.25a2 2 0 0 1-2 2H4.75A2.25 2.25 0 0 1 2.5 18.5V5Zm15.063 14.25a2.005 2.005 0 0 1-.063-.5V6.25H8.94l-1.5-1.5H4.25A.25.25 0 0 0 4 5v13.5c0 .414.336.75.75.75h12.813Zm1.937 0a.5.5 0 0 0 .5-.5v-10h-1v10a.5.5 0 0 0 .5.5Z"/>
</g></svg>