<svg xmlns="http://www.w3.org/2000/svg" data-laicon-version="15.0" viewBox="0 0 20 20" fill="black"><g transform="translate(-2 -2)">
  <path d="M15.5518 8.4134c-.6321 0-1.1446.5126-1.1446 1.1447 0 .6322.5125 1.1447 1.1446 1.1447.6322 0 1.1446-.5125 1.1446-1.1447 0-.6321-.5124-1.1447-1.1446-1.1447ZM8.6928 10.1319l8.6502 8.6504a.75.75 0 0 1 0 1.0606.75.75 0 0 1-1.0606 0l-7.5896-7.5896-4.3627 4.3627a.75.75 0 0 1-1.0606-1.0606l5.4233-5.4235Z"/>
  <path d="M4.5498 5.4375v13.1251h14.9V5.4375h-14.9Zm-1.5-.25c0-.6905.5598-1.25 1.25-1.25h15.4c.6902 0 1.25.5595 1.25 1.25v13.6251c0 .6905-.5598 1.25-1.25 1.25h-15.4c-.6903 0-1.25-.5597-1.25-1.25V5.1875Z"/>
</g></svg>