<svg xmlns="http://www.w3.org/2000/svg" data-laicon-version="15.0" viewBox="0 0 20 20" fill="black"><g transform="translate(-2 -2)">
  <path d="M15.2446 7.8999c.6501 0 1.1775.5257 1.1775 1.1748 0 .649-.5274 1.1748-1.1775 1.1748s-1.1775-.5257-1.1775-1.1748c0-.649.5274-1.1748 1.1775-1.1748Zm.4159 7.259H7.6169l4.0218-6.2693 4.0218 6.2693Z"/>
  <path d="M2.6499 12.0004c0-5.1639 4.1861-9.35 9.35-9.35s9.35 4.1861 9.35 9.35-4.1861 9.35-9.35 9.35-9.35-4.1861-9.35-9.35Zm9.35-7.85c-4.3354 0-7.85 3.5146-7.85 7.85s3.5146 7.85 7.85 7.85 7.85-3.5146 7.85-7.85-3.5146-7.85-7.85-7.85Z"/>
</g></svg>