<svg xmlns="http://www.w3.org/2000/svg" data-laicon-version="15.0" viewBox="0 0 20 20" fill="black"><g transform="translate(-2 -2)">
  <path d="M3.3501 8.6a.75.75 0 0 1 .75-.75h8.75v1.5h-8v9.8h9.8v-4.9h1.5v5.65a.75.75 0 0 1-.75.75h-11.3a.75.75 0 0 1-.75-.75V8.6Z"/>
  <path d="M14.25 10a.95.95 0 0 1 .95-.95h1.9a.95.95 0 0 1 .95.95v1.9a.95.95 0 0 1-.95.95h-1.9a.95.95 0 0 1-.95-.95V10Zm1.5.55v.8h.8v-.8h-.8Zm.5-6.35a.95.95 0 0 1 .95-.95h2.6a.95.95 0 0 1 .95.95v2.6a.95.95 0 0 1-.95.95h-2.6a.95.95 0 0 1-.95-.95V4.2Zm1.5.55v1.5h1.5v-1.5h-1.5ZM9.4897 12.756l-2.29 3.579h4.5921l-2.302-3.579Zm2.1561-.643a.6429.6429 0 0 0-.6284.7697.6426.6426 0 0 0 .5056.5041.643.643 0 1 0 .1258-1.2738h-.003Z"/>
</g></svg>