<svg xmlns="http://www.w3.org/2000/svg" data-laicon-version="15.0" viewBox="0 0 20 20" fill="black"><g transform="translate(-2 -2)">
  <path d="M4 12.5571h5.0986l.215.3822c.7681 1.365 2.0121 1.6178 2.6825 1.6178.8017.0001 2.0453-.4421 2.6767-1.6073l.2128-.3927H20v1.5h-4.2476c-.9969 1.4626-2.638 2.0001-3.7563 2-.9297 0-2.6172-.3333-3.7529-2H4v-1.5Z"/>
  <path d="M5.4051 4.4644A1.25 1.25 0 0 1 6.6064 3.56h10.7872a1.25 1.25 0 0 1 1.2012.9044l2.4252 8.4299V18.7c0 .9665-.7835 1.75-1.75 1.75H4.73c-.9665 0-1.75-.7835-1.75-1.75v-5.8057l2.425-8.4299Zm1.3895.5956L4.48 13.1057V18.7a.25.25 0 0 0 .25.25h14.54a.25.25 0 0 0 .25-.25v-5.5943L17.2053 5.06H6.7946Z"/>
</g></svg>