<svg xmlns="http://www.w3.org/2000/svg" data-laicon-version="18.12" viewBox="0 0 20 20" fill="black"><g transform="translate(-2 -2)">
  <path d="M6.12 5.115a2.061 2.061 0 0 1 2.728.615l1.5 2.177c.673-.657 1.658-.846 2.467-.49.36-.3.785-.482 1.238-.524a2.247 2.247 0 0 1 1.446.372c.297-.1.609-.144.93-.12.5.04.964.242 1.38.56.81.619 1.49 1.716 2.042 3.192.576 1.538.75 3.204.337 4.75-.42 1.563-1.426 2.954-3.11 3.926a7.428 7.428 0 0 1-7.633-.123L5.67 17.104a2.254 2.254 0 0 1 1.856-4.068l.496.153-2.71-5.36a2.06 2.06 0 0 1 .808-2.714Zm.75 1.299a.56.56 0 0 0-.22.738l3.508 6.938a.75.75 0 0 1-.891 1.055l-2.184-.676a.754.754 0 0 0-.62 1.36l3.774 2.346a5.927 5.927 0 0 0 6.091.099c1.347-.778 2.097-1.845 2.41-3.014.317-1.185.2-2.527-.291-3.836-.514-1.373-1.068-2.161-1.549-2.529-.23-.175-.426-.242-.587-.254a.945.945 0 0 0-.552.146.751.751 0 0 1-.915-.128c-.212-.218-.45-.291-.654-.273-.2.019-.436.132-.63.424a.75.75 0 0 1-1.165.108c-.272-.28-1.05-.293-1.28.565a.75.75 0 0 1-1.343.232L7.612 6.58a.561.561 0 0 0-.742-.166Z"/>
</g></svg>