<svg xmlns="http://www.w3.org/2000/svg" data-laicon-version="18.12" viewBox="0 0 20 20" fill="black"><g transform="translate(-2 -2)">
  <path d="M6.12 5.115a2.061 2.061 0 0 1 2.728.614l1.5 2.178c.673-.658 1.658-.845 2.467-.49.36-.3.785-.482 1.238-.524a2.247 2.247 0 0 1 1.446.372c.297-.1.609-.144.93-.119.5.04.964.241 1.38.559.81.619 1.49 1.717 2.042 3.192.576 1.539.75 3.204.336 4.75-.419 1.563-1.426 2.954-3.11 3.926a7.428 7.428 0 0 1-7.632-.123l-3.774-2.346a2.255 2.255 0 0 1 1.855-4.068l.496.153-2.71-5.36a2.06 2.06 0 0 1 .809-2.714Zm1.493 1.466a.561.561 0 0 0-.963.571l3.508 6.939a.75.75 0 0 1-.89 1.054l-2.185-.676a.754.754 0 0 0-.621 1.36l3.775 2.346a5.927 5.927 0 0 0 6.09.1c1.348-.779 2.098-1.846 2.411-3.015.317-1.186.2-2.527-.291-3.836-.514-1.373-1.068-2.161-1.549-2.529-.23-.175-.426-.241-.587-.254a.946.946 0 0 0-.553.147.752.752 0 0 1-.915-.128c-.21-.219-.45-.292-.653-.274-.2.019-.436.132-.629.424a.751.751 0 0 1-1.166.109c-.272-.281-1.051-.294-1.281.564a.75.75 0 0 1-1.342.232L7.613 6.58Z"/>
  <path d="M3.789 7.55a.75.75 0 0 1 .75 1.3l-.565.325a.751.751 0 0 1-.75-1.298l.565-.326ZM2.482 5.375a.75.75 0 0 1 .92-.53l.629.168a.75.75 0 0 1-.388 1.45l-.63-.17a.75.75 0 0 1-.53-.918Zm7.499-1.4a.75.75 0 0 1 .75 1.3l-.565.325a.75.75 0 1 1-.75-1.299l.565-.326ZM4.65 2.554a.75.75 0 0 1 1.024.275l.327.565a.75.75 0 0 1-1.3.75l-.325-.565a.75.75 0 0 1 .274-1.025Zm2.61.062a.75.75 0 0 1 1.45.389l-.17.63a.75.75 0 0 1-1.449-.388l.17-.631Z"/>
</g></svg>