<svg xmlns="http://www.w3.org/2000/svg" data-laicon-version="15.0" viewBox="0 0 20 20" fill="black"><g transform="translate(-2 -2)">
  <path d="M11.9999 4.1499c-4.3354 0-7.85 3.5146-7.85 7.85s3.5146 7.85 7.85 7.85 7.85-3.5146 7.85-7.85-3.5146-7.85-7.85-7.85Zm-9.35 7.85c0-5.1639 4.1861-9.35 9.35-9.35s9.35 4.1861 9.35 9.35-4.1861 9.35-9.35 9.35-9.35-4.1861-9.35-9.35Z"/>
  <path d="M11.9999 7.1593c-.5433 0-.9838.4405-.9838.9838s.4405.9838.9838.9838.9838-.4405.9838-.9838-.4404-.9838-.9838-.9838Zm-.7499 9.5811v-5.9797h1.5v5.9797h-1.5Z"/>
</g></svg>