<svg xmlns="http://www.w3.org/2000/svg" data-laicon-version="15.0" viewBox="0 0 20 20" fill="black"><g transform="translate(-2 -2)">
  <path d="M11.9019 6.73c-.6582 0-1.1919.5336-1.1919 1.1919s.5337 1.192 1.1919 1.192c.6583 0 1.192-.5337 1.192-1.192s-.5336-1.192-1.192-1.192Zm1.5182 10.0126h-2.84v-1.5h2.84v1.5Z"/>
  <path d="M11.2501 11.4684h-.63v-1.5h1.33a.8.8 0 0 1 .8.8v5.33h-1.5v-4.63Z"/>
  <path d="M4.8501 4.85v14.3h14.3V4.85h-14.3Zm-1.5-.25c0-.6904.5596-1.25 1.25-1.25h14.8c.6904 0 1.25.5596 1.25 1.25v14.8c0 .6903-.5597 1.25-1.25 1.25h-14.8c-.6904 0-1.25-.5596-1.25-1.25V4.6Z"/>
</g></svg>