<svg xmlns="http://www.w3.org/2000/svg" data-laicon-version="15.0" viewBox="0 0 20 20" fill="black"><g transform="translate(-2 -2)">
  <path d="M5.7886 11.3348V8.417h1.5v2.9178h-1.5Zm2.4414 0V8.417h1.5v2.9178h-1.5Zm2.4399 0V8.417h1.5v2.9178h-1.5Zm2.44 0V8.417h1.5v2.9178h-1.5Zm2.4897 3.2951a.75.75 0 0 1 .75-.75h4.4506v1.5h-3.7006v3.7005h-1.5v-4.4505Z"/>
  <path d="M2.4497 5.4253c0-.6937.5625-1.2557 1.2558-1.2557H20.294c.6935 0 1.2558.562 1.2558 1.2557v9.2046a.7497.7497 0 0 1-.2197.5303l-4.4506 4.4506a.75.75 0 0 1-.544.2196h-12.63c-.6935 0-1.2558-.5621-1.2558-1.2557V5.4253Zm13.5889 12.9051 4.0112-4.0112V5.6696h-16.1v12.6608h12.0888Z"/>
</g></svg>