<svg xmlns="http://www.w3.org/2000/svg" data-laicon-version="17.1" viewBox="0 0 20 20" fill="black"><g transform="translate(-2 -2)">
  <path d="M7.5 8.75a1 1 0 1 0 0-2 1 1 0 0 0 0 2Z"/>
  <path d="M3 7.75a4.5 4.5 0 1 1 6.9 3.807v1.56a.75.75 0 0 1-.22.531l-.423.423.423.424c.141.14.22.33.22.53v.593a.75.75 0 0 1-.22.53l-.423.423.423.423a.75.75 0 0 1 .22.53v1.505c0 .352-.149.688-.41.925l-1.15 1.045a1.25 1.25 0 0 1-1.68 0l-1.15-1.045a1.25 1.25 0 0 1-.41-.925v-7.472A4.497 4.497 0 0 1 3 7.75Zm4.5-3a3 3 0 0 0-1.32 5.695.75.75 0 0 1 .42.673v7.8l.9.818.9-.818v-1.082l-.557-.558a1 1 0 0 1 0-1.414l.543-.543-.543-.543a1 1 0 0 1 0-1.414l.557-.557v-1.689a.75.75 0 0 1 .42-.673A3 3 0 0 0 7.5 4.75Zm6.222 3.4c-.675 0-1.222.547-1.222 1.222v2.056c0 .675.547 1.222 1.222 1.222h6.056c.675 0 1.222-.547 1.222-1.222V9.372c0-.675-.547-1.222-1.222-1.222h-6.056Zm.278 3v-1.5h5.5v1.5H14Zm-.278 2.2c-.675 0-1.222.547-1.222 1.222v2.056c0 .675.547 1.222 1.222 1.222h6.056c.675 0 1.222-.547 1.222-1.222v-2.056c0-.675-.547-1.222-1.222-1.222h-6.056Zm.278 3v-1.5h5.5v1.5H14Z"/>
</g></svg>