<svg xmlns="http://www.w3.org/2000/svg" data-laicon-version="15.0" viewBox="0 0 20 20" fill="black"><g transform="translate(-2 -2)">
  <path d="M15.2189 7.677a.946.946 0 0 0-.946.946.946.946 0 1 0 .946-.946Zm-2.446.946c0-1.3509 1.0951-2.446 2.446-2.446 1.3509 0 2.446 1.0951 2.446 2.446 0 1.3509-1.0951 2.446-2.446 2.446-1.3509 0-2.446-1.0951-2.446-2.446Z"/>
  <path d="M9.26 8.623c0-3.2911 2.6678-5.959 5.959-5.959 3.2763 0 5.9348 2.6436 5.9589 5.9142a.7207.7207 0 0 1 .0008.0642.7144.7144 0 0 1 .0003.0207c0 3.2852-2.6628 5.948-5.948 5.948-.2857 0-.7524-.0689-1.1129-.1302l-1.045 1.123a.7501.7501 0 0 1-.5491.2392h-1.622v1.537c0 .6941-.5627 1.254-1.254 1.254H8.265v1.209c0 .7093-.5898 1.2752-1.2953 1.25H3.707a.75.75 0 0 1-.75-.75v-4.025c0-.1989.079-.3897.2197-.5304l6.1767-6.1766c-.0572-.3137-.0934-.6432-.0934-.988Zm10.418-.0189c-.0102-2.454-2.0025-4.44-4.459-4.44-2.4628 0-4.459 1.9962-4.459 4.459 0 .3494.0533.6955.1405 1.0515a.7502.7502 0 0 1-.1981.7088L4.457 16.6287v2.9644h2.308v-1.208c0-.6913.5598-1.251 1.251-1.251h1.386v-1.537c0-.6923.5618-1.254 1.254-1.254h1.5414l1.1015-1.1839a.75.75 0 0 1 .689-.226c.3435.0652.996.1779 1.2431.1779 2.4461 0 4.4306-1.9739 4.4479-4.4159a.7693.7693 0 0 1-.0009-.091Z"/>
</g></svg>