<svg xmlns="http://www.w3.org/2000/svg" data-laicon-version="15.0" viewBox="0 0 20 20" fill="black"><g transform="translate(-2 -2)">
  <path d="M18.2816 15.153h-1.2474v-1.3h1.2474v1.3Zm-11.3028.0042H5.6982v-1.3h1.2806v1.3Zm9.0775-.0042H7.9346v-1.3h8.1217v1.3Zm-9.2257-2.5606v-1.2473h1.3v1.2473h-1.3Zm2.2573 0v-1.2473h1.3v1.2473h-1.3Zm2.2578 0v-1.2473h1.3v1.2473h-1.3Zm2.2573 0v-1.2473h1.3v1.2473h-1.3Zm2.2574 0v-1.2473h1.3v1.2473h-1.3ZM5.7021 10.2479V9.0005h1.3v1.2474h-1.3Zm2.2574 0V9.0005h1.3v1.2474h-1.3Zm2.2573 0V9.0005h1.3v1.2474h-1.3Zm2.2573 0V9.0005h1.3v1.2474h-1.3Zm2.2573 0V9.0005h1.3v1.2474h-1.3Zm2.2574 0V9.0005h1.3v1.2474h-1.3Z"/>
  <path d="M4.2544 7.8762c.0216-.0994.06-.153.0865-.177.0169-.0153.0795-.0684.2753-.0547a.7484.7484 0 0 0 .0523.0018h14.6627c.2427 0 .3334.0482.3547.0635a.0696.0696 0 0 1 .0226.0278c.0093.0174.0254.0553.0369.125v8.3264c-.0032.0085-.0152.0301-.0545.061-.0686.0539-.1933.1077-.3597.1077H4.6686c-.1665 0-.2912-.0538-.3598-.1077-.0393-.0309-.0512-.0525-.0544-.0609V7.8762Zm15.4919 8.3089c.0002 0 .0001.0012-.0007.0034.0002-.0023.0006-.0034.0007-.0034Zm-15.4929 0c.0002 0 .0006.0011.0008.0034-.0008-.0022-.001-.0033-.0008-.0034Zm.4389-10.0388c-.5293-.0307-1.0007.1181-1.3566.4395-.3489.315-.517.7326-.5734 1.1168a.7495.7495 0 0 0-.008.1087v8.3814c0 1.0778 1.0354 1.665 1.9142 1.665h14.6627c.8789 0 1.9142-.5873 1.9142-1.665V7.8113a.7493.7493 0 0 0-.0053-.0886c-.0592-.4975-.2709-.937-.6773-1.2298-.38-.2738-.8313-.3466-1.2316-.3466H4.6923Z"/>
</g></svg>