<svg xmlns="http://www.w3.org/2000/svg" data-laicon-version="15.0" viewBox="0 0 20 20" fill="black"><g transform="translate(-2 -2)">
  <path d="M6.03 4.83c-.6627 0-1.2.5372-1.2 1.2 0 .6627.5373 1.2 1.2 1.2.6628 0 1.2-.5373 1.2-1.2 0-.6628-.5372-1.2-1.2-1.2Zm5.9698 0c-.6627 0-1.2.5372-1.2 1.2 0 .6627.5373 1.2 1.2 1.2s1.2-.5373 1.2-1.2c0-.6628-.5373-1.2-1.2-1.2Zm0 5.97c-.6627 0-1.2.5373-1.2 1.2s.5373 1.2 1.2 1.2 1.2-.5373 1.2-1.2-.5373-1.2-1.2-1.2Zm0 5.9701c-.6627 0-1.2.5373-1.2 1.2s.5373 1.2 1.2 1.2 1.2-.5373 1.2-1.2-.5373-1.2-1.2-1.2ZM17.97 4.83c-.6627 0-1.2.5372-1.2 1.2 0 .6627.5373 1.2 1.2 1.2s1.2-.5373 1.2-1.2c0-.6628-.5372-1.2-1.2-1.2Zm0 5.97c-.6627 0-1.2.5373-1.2 1.2s.5373 1.2 1.2 1.2 1.2-.5373 1.2-1.2-.5372-1.2-1.2-1.2Zm-11.94 0c-.6627 0-1.2.5373-1.2 1.2s.5373 1.2 1.2 1.2c.6628 0 1.2-.5373 1.2-1.2s-.5372-1.2-1.2-1.2Z"/>
</g></svg>