<svg xmlns="http://www.w3.org/2000/svg" data-laicon-version="15.0" viewBox="0 0 20 20" fill="black"><g transform="translate(-2 -2)">
  <path d="m21.2088 20.66-3.207-15.5458-.0003-.0015c-.1651-.792-.8622-1.363-1.6742-1.363l-.0186.0002H7.706a1.75 1.75 0 0 0-1.7145 1.3963L2.7905 20.66h1.5316l.942-4.5654h7.1228l-.9421 4.5654h1.5316l3.1454-15.2427a.2102.2102 0 0 1 .199-.1674h.0062v-.0001h.0003a.211.211 0 0 1 .2057.1686l.0001.0005L19.6772 20.66h1.5316ZM7.706 5.2499h6.9188l-.8094 3.9223h-7.123l.7682-3.7228A.25.25 0 0 1 7.706 5.25Zm-1.323 5.4223h7.1228l-.8094 3.9224H5.5736l.8093-3.9224Z"/>
</g></svg>