<svg xmlns="http://www.w3.org/2000/svg" data-laicon-version="15.0" viewBox="0 0 20 20" fill="black"><g transform="translate(-2 -2)">
  <path d="m6.4394 11.5019 8.0001-9 1.1211.9966-6.8905 7.7517H17a.75.75 0 0 1 .5606 1.2483l-8 9-1.1212-.9966 6.8905-7.7517H7a.75.75 0 0 1-.5606-1.2483ZM15.5885 21.6002h.868c.049 0 .084-.021.105-.07l.364-.959h2.135l.364.959c.021.049.056.07.105.07h.882c.063 0 .098-.042.07-.105l-2.051-4.963c-.021-.049-.056-.07-.105-.07h-.651c-.049 0-.084.021-.105.07l-2.051 4.963c-.028.063.007.105.07.105Zm1.666-1.904.735-1.946.735 1.946h-1.47Z"/>
</g></svg>