<svg xmlns="http://www.w3.org/2000/svg" data-laicon-version="15.0" viewBox="0 0 20 20" fill="black"><g transform="translate(-2 -2)">
  <path d="M11.9988 4.3283c-2.1146-2.1147-5.5432-2.1147-7.658 0-2.1146 2.1147-2.1146 5.5433 0 7.658l2.3618 2.3617c.0436.0436.0877.0863.1324.128a6.7533 6.7533 0 0 1 .0117-2.1052l-1.4451-1.4452c-1.529-1.5289-1.529-4.0077 0-5.5366 1.5289-1.529 4.0077-1.529 5.5366 0l2.3617 2.3617c1.5289 1.529 1.5289 4.0078 0 5.5367a3.8984 3.8984 0 0 1-2.2671 1.1146 2.606 2.606 0 0 0 .5913.9077l.4121.4121c.8511-.2453 1.6538-.7032 2.3244-1.3738 2.1146-2.1147 2.1146-5.5433 0-7.658l-2.3618-2.3617Z"/>
  <path d="M11.9685 8.2578c-.8511.2453-1.6538.7032-2.3244 1.3738-2.1147 2.1147-2.1147 5.5433 0 7.658l2.3618 2.3617c2.1147 2.1147 5.5432 2.1147 7.6579 0s2.1147-5.5433 0-7.6579l-2.3617-2.3618a5.6992 5.6992 0 0 0-.1323-.128 6.7536 6.7536 0 0 1-.0118 2.1053l1.4452 1.4451c1.5289 1.5289 1.5289 4.0078 0 5.5367-1.5289 1.5289-4.0078 1.5289-5.5367 0l-2.3617-2.3618c-1.529-1.5289-1.529-4.0077 0-5.5366a3.8979 3.8979 0 0 1 2.2671-1.1147 2.606 2.606 0 0 0-.5913-.9076l-.4121-.4122Z"/>
</g></svg>