<svg xmlns="http://www.w3.org/2000/svg" data-laicon-version="15.0" viewBox="0 0 20 20" fill="black"><g transform="translate(-2 -2)">
  <path d="M2 12.1c0-.2 0-.4.1-.6.0467-.0584.1328-.1793.2531-.3482C3.2634 9.8738 6.1267 5.8533 8.6 5.5c1.3-.2 2.1.3 2.7.8.6.5.8.5 1.4 0a14.249 14.249 0 0 0 .1704-.116c.5658-.3887 1.2598-.8654 2.5296-.684 2.8.5 6.2 5.5 6.5 6.1.1.2.1.4.1.6 0 0-1.5 6.4-10 6.4S2 12.2 2 12.1Zm1.8977.7C4.648 14.3295 6.6901 17.1 12 17.1c5.3099 0 7.4231-2.7705 8.1358-4.3H3.8978Zm15.9272-1.5C18.4548 9.4768 16.4012 7.2602 15.1 7c-.7-.1-1.1.2-1.5.5l-.0522.0392C13.1566 7.8336 12.6699 8.2 12 8.2c-.7 0-1.2-.3-1.6-.7-.4-.4-.8-.7-1.5-.5-1.3964.1745-3.402 2.4055-4.7541 4.3h15.679Z"/>
</g></svg>