<svg xmlns="http://www.w3.org/2000/svg" data-laicon-version="15.0" viewBox="0 0 20 20" fill="black"><g transform="translate(-2 -2)">
  <path d="M8.8 7.52c-.51 0-.9201.41-.9201.92s.41.92.92.92.92-.41.92-.92-.41-.92-.92-.92Zm7.1102.22h-4.98v1.4h4.98v-1.4Zm0 3.5599h-4.98V12.7h4.98v-1.4001Zm-4.98 3.56h4.98v1.4h-4.98v-1.4ZM7.8799 12c0-.51.41-.92.92-.92s.92.41.92.92-.41.9199-.92.9199S7.88 12.51 7.88 12ZM8.8 14.6399c-.51 0-.9201.41-.9201.92s.41.92.92.92.92-.41.92-.92-.41-.92-.92-.92Z"/>
  <path d="M16.9399 3.35c1.94.24 3.4701 1.77 3.7101 3.71h.01c.2 1.62.2999 3.28.2999 4.94 0 1.66-.0999 3.32-.2999 4.94-.24 1.95-1.7701 3.47-3.7101 3.71-1.6.2-3.2599.3-4.9399.3-1.68 0-3.34-.1-4.94-.3-1.94-.24-3.47-1.77-3.71-3.71-.2-1.63-.3-3.29-.3-4.94 0-1.65.09-3.31.29-4.94.24-1.95 1.77-3.47 3.71-3.71 3.21-.4 6.6599-.4 9.8799 0ZM16.75 19.17c1.26-.16 2.25-1.15 2.41-2.41h-.01c.18-1.56.28-3.16.28-4.76 0-1.6-.09-3.2-.28-4.76C18.99 5.99 18 5 16.74 4.84c-1.55-.19-3.15-.29-4.76-.29-1.61 0-3.21.1-4.76.29C5.96 5 4.97 5.99 4.81 7.25c-.18 1.57-.28 3.17-.28 4.76 0 1.59.1 3.19.29 4.76.16 1.26 1.15 2.24 2.41 2.4 3.09.38 6.44.38 9.52 0Z"/>
</g></svg>