<svg xmlns="http://www.w3.org/2000/svg" data-laicon-version="15.0" viewBox="0 0 20 20" fill="black"><g transform="translate(-2 -2)">
  <path d="M6.0305 4.9836c-.6668 0-1.2073.5405-1.2073 1.2073 0 .6667.5404 1.2073 1.2073 1.2073.6667 0 1.2073-.5406 1.2073-1.2073 0-.6669-.5406-1.2073-1.2073-1.2073Zm0 5.8077c-.6668 0-1.2073.5405-1.2073 1.2073 0 .6667.5404 1.2073 1.2073 1.2073.6667 0 1.2073-.5406 1.2073-1.2073 0-.6668-.5406-1.2073-1.2073-1.2073Zm0 5.8105c-.6668 0-1.2073.5405-1.2073 1.2073 0 .6667.5404 1.2073 1.2073 1.2073.6667 0 1.2073-.5406 1.2073-1.2073 0-.6668-.5406-1.2073-1.2073-1.2073Zm13.0466 1.9573H9.0435v-1.5H19.077v1.5Zm0-5.8105H9.0435v-1.5H19.077v1.5Zm0-5.7836H9.0435v-1.5H19.077v1.5Z"/>
</g></svg>