<svg xmlns="http://www.w3.org/2000/svg" data-laicon-version="15.0" viewBox="0 0 20 20" fill="black"><g transform="translate(-2 -2)">
  <path d="M11.0313 3.8528c.3958-.8037 1.5416-.8037 1.9374 0l7.5534 15.3392.0001.0001c.443.9-.4738 1.866-1.396 1.4687L12 17.591l-7.1262 3.0698-.0002.0001c-.9217.3967-1.839-.5685-1.3958-1.4689l7.5535-15.3392Zm1.1346 13.6668a.0008.0008 0 0 1 .0004-.0002h-.0001l-.0003.0002Zm-.3318 0a.0008.0008 0 0 0-.0004-.0002h.0001l.0003.0002ZM12 5.2809 5.327 18.8324l6.2457-2.6906a1.08 1.08 0 0 1 .8546 0l6.2458 2.6906L12 5.2809Z"/>
</g></svg>