<svg xmlns="http://www.w3.org/2000/svg" data-laicon-version="15.0" viewBox="0 0 20 20" fill="black"><g transform="translate(-2 -2)">
  <path d="M10.7202 13.8401c0-.71.57-1.28 1.28-1.28.71 0 1.28.58 1.28 1.28 0 .42-.22.7799-.53 1.0099v2.19h-1.5v-2.19c-.31-.24-.53-.5899-.53-1.0099Z"/>
  <path d="M16.4502 8.26h2.04c.96 0 1.75.79 1.75 1.75v9.7199c0 .96-.79 1.75-1.75 1.75h-13c-.96 0-1.75-.79-1.75-1.75V10.01c0-.96.79-1.75 1.75-1.75h1.96V7.04c0-2.48 2.02-4.5 4.5-4.5s4.5 2.02 4.5 4.5v1.22Zm-4.49-4.22c-1.66 0-3 1.35-3 3v1.22h6V7.04c0-1.66-1.34-3-3-3Zm6.54 15.9299c.14 0 .25-.11.25-.25v-9.72c0-.14-.11-.25-.25-.25h-13c-.14 0-.25.11-.25.25v9.72c0 .14.11.25.25.25h13Z"/>
</g></svg>