<svg xmlns="http://www.w3.org/2000/svg" data-laicon-version="15.0" viewBox="0 0 20 20" fill="black"><g transform="translate(-2 -2)">
  <path d="M9.3701 10.37c0-1.45 1.18-2.63 2.63-2.63s2.63 1.18 2.63 2.63-1.18 2.63-2.63 2.63-2.63-1.18-2.63-2.63Zm1.5 0c0 .62.51 1.13 1.13 1.13.62 0 1.13-.51 1.13-1.13 0-.62-.51-1.13-1.13-1.13-.62 0-1.13.51-1.13 1.13Z"/>
  <path d="M11.9998 2.28c2.29 0 4.59.97 6.21 2.9 2.8 3.34 2.37 8.28-.66 11.32-1.732 1.741-3.72 3.843-4.577 4.747l-.183.193c-.43.46-1.14.46-1.57 0l-.159-.168c-.844-.891-2.863-3.024-4.61-4.772-3.03-3.04-3.46-7.98-.66-11.32a8.0971 8.0971 0 0 1 6.209-2.9Zm0 17.81c.92-.97 2.82-2.97 4.49-4.65v.01c2.53-2.54 2.83-6.61.57-9.3a6.6 6.6 0 0 0-5.06-2.36c-1.87 0-3.73.78-5.06 2.36-2.26 2.69-1.96 6.76.57 9.3 1.67 1.67 3.58 3.67 4.49 4.64Z"/>
</g></svg>