<svg xmlns="http://www.w3.org/2000/svg" data-laicon-version="15.3" viewBox="0 0 20 20" fill="black"><g transform="translate(-2 -2)">
  <path d="M15.11 9.3a.35.35 0 0 1 .35-.35h1.4a.35.35 0 0 1 .35.35v2.95h1.111a.25.25 0 0 1 .189.414l-2.16 2.494a.25.25 0 0 1-.378 0l-2.16-2.494A.25.25 0 0 1 14 12.25h1.11V9.3Zm-9.211-.173a.178.178 0 0 1 .13-.049h1.295c.038 0 .076.007.11.027.033.02.059.049.078.087l1.724 2.87 1.677-2.87a.21.21 0 0 1 .187-.114h1.272c.05 0 .096.015.13.049a.178.178 0 0 1 .048.129v5.616c0 .05-.015.096-.049.13a.179.179 0 0 1-.129.048h-1.176a.179.179 0 0 1-.13-.049.179.179 0 0 1-.048-.129v-3.155l-1.258 2.1a.204.204 0 0 1-.079.086.213.213 0 0 1-.109.027h-.744a.213.213 0 0 1-.11-.027.204.204 0 0 1-.078-.087L7.382 11.77v3.103c0 .05-.015.096-.049.13a.178.178 0 0 1-.129.048H6.028a.178.178 0 0 1-.13-.049.179.179 0 0 1-.048-.129V9.256c0-.05.015-.096.049-.13Z"/>
  <path d="M4.5 4.75A1.75 1.75 0 0 0 2.75 6.5v11c0 .966.784 1.75 1.75 1.75h15a1.75 1.75 0 0 0 1.75-1.75v-11a1.75 1.75 0 0 0-1.75-1.75h-15ZM4.25 6.5a.25.25 0 0 1 .25-.25h15a.25.25 0 0 1 .25.25v11a.25.25 0 0 1-.25.25h-15a.25.25 0 0 1-.25-.25v-11Z"/>
</g></svg>