<svg xmlns="http://www.w3.org/2000/svg" data-laicon-version="15.0" viewBox="0 0 20 20" fill="black"><g transform="translate(-2 -2)">
  <path d="M15.1182 14.3766H8.8818v-1.5h6.2364v1.5Z"/>
  <path d="M11.25 16.7448v-6.2364h1.5v6.2364h-1.5Z"/>
  <path d="M4.6748 8.0355v11.1821h14.65V8.0356h-14.65Zm-1.5-.25c0-.6903.5597-1.25 1.25-1.25h15.15c.6903 0 1.25.5597 1.25 1.25v11.6821c0 .6905-.5598 1.25-1.25 1.25h-15.15c-.6902 0-1.25-.5595-1.25-1.25V7.7856Z"/>
  <path d="M9.8364 4.7824v2.5031h-1.5v-2.753c0-.6905.5596-1.25 1.25-1.25h4.827c.6904 0 1.25.5595 1.25 1.25v2.753h-1.5v-2.503h-4.327Z"/>
</g></svg>