<svg xmlns="http://www.w3.org/2000/svg" data-laicon-version="15.0" viewBox="0 0 20 20" fill="black"><g transform="translate(-2 -2)">
  <path d="M19.9752 2.7543a.7501.7501 0 0 1 .3957.6611v17.17a.75.75 0 0 1-1.1654.6244l-6.0553-4.0284h-1.8409l.3514 3.3252a.75.75 0 0 1-.7458.8288h-3.026a.75.75 0 0 1-.7458-.6712l-.3681-3.4828H4.859c-.6783 0-1.23-.5498-1.23-1.229v-7.905c0-.6792.5517-1.229 1.23-1.229h8.2913l6.0552-4.0275a.7502.7502 0 0 1 .7697-.0366ZM18.8709 4.815l-5.0786 3.3779a.7502.7502 0 0 1-.4154.1255h-8.248v7.363H7.45a.75.75 0 0 1 .7459.6712l.368 3.4828h1.5177l-.3514-3.3252a.7501.7501 0 0 1 .7458-.8288h2.901a.7497.7497 0 0 1 .4154.1256l5.0786 3.3786V4.815Z"/>
</g></svg>