<svg xmlns="http://www.w3.org/2000/svg" data-laicon-version="15.0" viewBox="0 0 20 20" fill="black"><g transform="translate(-2 -2)">
  <path d="M8.9502 5.9a2.043 2.043 0 0 0-.58 1.63c-.33.16-.68.33-1.04.51-.06.03-.12.063-.18.095-.06.033-.12.065-.18.095-.3-1.18-.01-2.47.91-3.39.18-.18.43-.34.67-.47.26-.14.56-.28.89-.43.66-.29 1.45-.59 2.2-.87.76-.28 1.49-.53 2.03-.71l.325-.11c.126-.044.235-.082.325-.11.08-.03.18-.07.18-.07h.02c.06-.03.13-.05.19-.05.23-.02.46.06.62.22.19.19.26.46.2.71-.03.1-.07.18-.12.26l-.89 1.42c.23.02.43.15.55.34.13.21.15.46.06.69 0 0-.14.33-.31.71-.25 0-.49.05-.72.16l-.09.04a6.459 6.459 0 0 0-.123.057c-.07.033-.15.071-.247.113-.22.11-.5.24-.81.38.03-.065.063-.13.095-.195a17.724 17.724 0 0 0 .395-.855h-.15a.728.728 0 0 1-.63-.4.7695.7695 0 0 1 .03-.75l.48-.76c-.29.1-.59.21-.89.32-.74.27-1.49.57-2.11.84-.3.13-.57.26-.77.37-.1.05-.18.1-.24.14l-.034.026a.2264.2264 0 0 1-.036.024l-.02.02Zm12.02 1.64c.23-.03.46.05.62.21.19.19.26.46.2.71-.03.1-.07.18-.12.26l-.89 1.42c.23.02.43.15.55.34.13.21.15.46.06.69 0 0-.55 1.27-.76 1.72-.21.45-.45.94-.7 1.37-.23.41-.5.83-.78 1.11a3.5247 3.5247 0 0 1-4.49.43l.135-.26.135-.26.205-.42.205-.42c.81.67 2 .63 2.75-.12.12-.12.31-.39.54-.79.197-.34.394-.744.583-1.133l.067-.137c.11-.23.21-.45.3-.66h-.15a.7279.7279 0 0 1-.63-.4.7694.7694 0 0 1 .03-.75l.48-.77c-.29.1-.59.21-.89.32a35.6389 35.6389 0 0 0-2.15.86.2076.2076 0 0 1-.04.02c-.05-.1-.11-.2-.18-.28-.16-.18-.34-.32-.55-.41l.49-.84c.59-.26 1.26-.52 1.91-.76l.114-.04c.719-.256 1.403-.5 1.916-.67l.326-.111c.125-.043.234-.081.324-.11.08-.03.18-.07.18-.07h.02c.06-.03.13-.05.19-.05v.001Zm-15.79 7.74c0 1.32 1.08 2.4 2.4 2.4 1.32 0 2.4-1.08 2.4-2.4 0-1.32-1.08-2.4-2.4-2.4-1.32 0-2.4 1.08-2.4 2.4Zm1.5 0c0-.5.4-.9.9-.9s.9.4.9.9-.4.9-.9.9-.9-.4-.9-.9Z"/>
  <path d="M15.4002 8.49a.7494.7494 0 0 0 .104-.4728.7495.7495 0 0 0-.6384-.6573.749.749 0 0 0-.4756.0901l-.1.06a2.6145 2.6145 0 0 0-.15.075 54.48 54.48 0 0 0-.677.343c-.216.11-.458.235-.713.362l-.304.15c-.397.195-.804.395-1.186.57l.06-.52a.7419.7419 0 0 0-.3-.69.7333.7333 0 0 0-.74-.08l-.79.36c-.48.22-1.14.53-1.84.88-.7.35-1.45.75-2.11 1.15-.65.39-1.27.81-1.68 1.21a5.4381 5.4381 0 0 0 0 7.7 5.4374 5.4374 0 0 0 5.9341 1.1823 5.437 5.437 0 0 0 1.7659-1.1823c.41-.41.84-1.07 1.26-1.76.42-.71.85-1.53 1.23-2.29.38-.77.72-1.49.97-2.02.12-.27.4-.87.4-.87a.7544.7544 0 0 0-.12-.7958.7535.7535 0 0 0-.77-.2342l-.66.19.029-.053c.191-.354.391-.724.591-1.067.25-.45.49-.86.67-1.15l.09-.151.12-.2.08-.12-.05-.01v.001Zm-2.06 4.46h.01c-.19.41-.41.87-.65 1.35-.37.75-.78 1.53-1.18 2.2-.41.69-.77 1.2-1.03 1.46a3.947 3.947 0 0 1-5.58 0 3.9468 3.9468 0 0 1 0-5.58c.27-.27.75-.61 1.39-.99.62-.37 1.34-.75 2.02-1.09.424-.217.834-.41 1.196-.582l.164-.078-.06.5a.75.75 0 0 0 1.02.78c.58-.23 1.43-.63 2.22-1.02-.43.79-.88 1.65-1.12 2.25-.11.26-.05.57.14.78.19.22.49.3.76.22l.7-.2Z"/>
</g></svg>