<svg xmlns="http://www.w3.org/2000/svg" data-laicon-version="15.0" viewBox="0 0 20 20" fill="black"><g transform="translate(-2 -2)">
  <path d="M10.1899 10.55c-1.79 0-3.25 1.46-3.25 3.25a3.25 3.25 0 1 0 3.25-3.25Zm-1.75 3.25c0-.97.78-1.75 1.75-1.75s1.75.78 1.75 1.75-.78 1.75-1.75 1.75-1.75-.78-1.75-1.75Z"/>
  <path d="M20.6598 4.35c.15-.29.1-.649-.13-.879l.01.01a.745.745 0 0 0-.88-.14l-4.36 2.269.15-.55a.7704.7704 0 0 0-.21-.75c-.2-.19-.5-.25-.76-.16l-.31.11c-.2.07-.48.17-.83.3-.69.26-1.64.62-2.64 1.04-1.01.42-2.08.9-3.02 1.4-.92.48-1.79 1.02-2.33 1.56a7.1277 7.1277 0 0 0 0 10.09 7.1273 7.1273 0 0 0 5.045 2.0925 7.1274 7.1274 0 0 0 5.045-2.0925c.54-.54 1.08-1.42 1.57-2.36.5-.96.99-2.05 1.42-3.08.43-1.03.8-2 1.06-2.71l.165-.45c.058-.157.107-.292.145-.4l.11-.32c.09-.27.02-.57-.18-.77-.2-.2-.5-.27-.77-.18l-.57.19 2.27-4.22Zm-9.4 2.64c.87-.37 1.69-.69 2.34-.93l-.01.02-.23.81c-.08.28.02.59.25.78.23.19.55.22.82.08l3.74-1.95-2.01 3.74a.76.76 0 0 0 .09.84c.2.23.52.33.81.23l.9-.3c-.25.66-.57 1.48-.93 2.34-.42 1.01-.9 2.06-1.37 2.96-.48.92-.93 1.62-1.3 1.99-2.2 2.2-5.77 2.2-7.97 0s-2.2-5.77 0-7.97c.37-.37 1.06-.82 1.97-1.3.89-.46 1.92-.93 2.9-1.34Z"/>
</g></svg>