<svg xmlns="http://www.w3.org/2000/svg" data-laicon-version="15.0" viewBox="0 0 20 20" fill="black"><g transform="translate(-2 -2)">
  <path d="M6.4897 11.5062c0 3.0433 2.467 5.5103 5.5103 5.5103s5.5103-2.467 5.5103-5.5103h1.5c0 3.8717-3.1386 7.0103-7.0103 7.0103s-7.0103-3.1386-7.0103-7.0103h1.5Z"/>
  <path d="M12.75 17.7665v3.569h-1.5v-3.569h1.5Z"/>
  <path d="M14.6263 21.99H9.3735v-1.5h5.2528v1.5ZM7.853 6.14C7.853 3.8478 9.7116 2 11.9998 2c2.2883 0 4.1468 1.8478 4.1468 4.14v5.2326c0 2.2902-1.8566 4.1468-4.1468 4.1468-2.2902 0-4.1468-1.8566-4.1468-4.1468V6.14Zm4.1468-2.64c-1.4637 0-2.6468 1.1802-2.6468 2.64v5.2326c0 1.4618 1.185 2.6468 2.6468 2.6468 1.4618 0 2.6468-1.185 2.6468-2.6468V6.14c0-1.4598-1.1831-2.64-2.6468-2.64Z"/>
</g></svg>