<svg xmlns="http://www.w3.org/2000/svg" data-laicon-version="15.3" viewBox="0 0 20 20" fill="black"><g transform="translate(-2 -2)">
  <path d="m16.79 16.743 3.672 3.78 1.076-1.046L4.656 2.1 3.581 3.144l4.47 4.601v2.905a3.95 3.95 0 0 0 6.063 3.338l1.624 1.671a6.25 6.25 0 0 1-9.988-5.01V9.501h-1.5v1.15a7.751 7.751 0 0 0 7 7.714V21a.75.75 0 0 0 1.5 0v-2.636a7.712 7.712 0 0 0 4.04-1.621Zm-3.759-3.87A2.45 2.45 0 0 1 9.55 10.65V9.29l3.481 3.583Zm2.814-1.315c.069-.291.105-.595.105-.908v-4.6a3.95 3.95 0 0 0-7.373-1.973l1.116 1.148a2.451 2.451 0 0 1 4.757.825v4.072l1.395 1.436Zm3.905-.908a7.714 7.714 0 0 1-1.032 3.866l-1.097-1.13c.403-.826.63-1.755.63-2.736V9.5h1.5v1.15Z"/>
</g></svg>