<svg xmlns="http://www.w3.org/2000/svg" data-laicon-version="15.0" viewBox="0 0 20 20" fill="black"><g transform="translate(-2 -2)">
  <path d="M15.4999 11.3h-7.1v1.5h7.1v-1.5Z"/>
  <path d="M12 21c-1.7 0-3.3-.1-4.9-.3-1.9-.2-3.5-1.8-3.7-3.7-.3-1.7-.4-3.3-.4-5 0-1.7.1-3.3.3-4.9.2-1.9 1.8-3.5 3.7-3.7 3.2-.4 6.7-.4 9.9 0 1.9.2 3.5 1.8 3.7 3.7.3 1.6.4 3.2.4 4.9 0 1.7-.1 3.3-.3 4.9-.2 1.9-1.8 3.5-3.7 3.7-1.7.2-3.3.4-5 .4Zm0-16.5c-1.6 0-3.2.1-4.8.3C6 5 5 6 4.8 7.2c-.2 1.6-.3 3.2-.3 4.8 0 1.6.1 3.2.3 4.8C5 18 6 19 7.2 19.2c3.1.4 6.4.4 9.5 0C18 19 19 18 19.2 16.8c.2-1.6.3-3.2.3-4.8 0-1.6-.1-3.2-.3-4.8C19 6 18 5 16.8 4.8c-1.6-.2-3.2-.3-4.8-.3Z"/>
</g></svg>