<svg xmlns="http://www.w3.org/2000/svg" data-laicon-version="15.0" viewBox="0 0 20 20" fill="black"><g transform="translate(-2 -2)">
  <path d="M13.3601 6.3h-2.72V5.1h2.72v1.2Z"/>
  <path d="M16.2633 4.4522c-.11-.1309-.2496-.2036-.426-.2036h-7.672c-.0875 0-.2418.0531-.3947.222-.15.1658-.2286.3694-.2286.5374v14.1518c0 .0623.0474.2136.221.3772.1753.1654.3437.2144.4023.2144h7.672c.0694 0 .236-.051.4045-.2116.1672-.1594.216-.3112.216-.38V5.008c0-.2102-.0758-.4146-.1945-.5558Zm-.426-1.7036c1.3713 0 2.1205 1.2168 2.1205 2.2594v14.1518c0 .6035-.3209 1.1225-.6811 1.4658-.359.3421-.8776.6258-1.4394.6258h-7.672c-.5554 0-1.0737-.2857-1.4314-.623-.3597-.3391-.692-.8586-.692-1.4686V5.008c0-.5945.256-1.1456.6166-1.544.3576-.395.89-.7154 1.5068-.7154h7.672Z"/>
</g></svg>