<svg xmlns="http://www.w3.org/2000/svg" data-laicon-version="15.0" viewBox="0 0 20 20" fill="black"><g transform="translate(-2 -2)">
  <path d="M8.3943 10.0237h-4.128a.3551.3551 0 0 0-.0624.0568.4303.4303 0 0 0-.0714.1096c-.0115.0263-.0136.0408-.0139.0426v8.1556l.0018.0036a.4817.4817 0 0 0 .0808.1084.5017.5017 0 0 0 .083.0701h4.065a.5202.5202 0 0 0 .1018-.0804c.0418-.0416.07-.0813.0844-.1084v-8.1515a.086.086 0 0 0-.002-.0149.234.234 0 0 0-.0126-.0394.3588.3588 0 0 0-.0608-.0977c-.0334-.0383-.0572-.0508-.0657-.0544Zm.1489 8.3413-.0009.0024a.0155.0155 0 0 1 .0009-.0024ZM4.284 10.0133l-.0013.0006.0013-.0006Zm5.3052-.9226c.259.296.4462.705.4462 1.1394v8.1946c0 .4884-.29.8933-.5262 1.1284-.2313.2303-.6322.5173-1.1033.5173H4.2167c-.476 0-.8717-.2975-1.094-.5276-.2316-.2396-.504-.6414-.504-1.1181v-8.1946c0-.4569.2154-.8657.4627-1.1447.2382-.2687.6379-.5617 1.1353-.5617H8.406c.5119 0 .923.2693 1.1833.567Zm2.487 9.45v-3.622h1.5v3.622h-1.5Z"/>
  <path d="M16.4244 18.9652h-5.1402v-1.5h5.1402v1.5ZM5.771 5.5871v1.6887h-1.5v-1.69c0-.4689.2232-.8806.5144-1.1627.2948-.2855.7147-.4935 1.1914-.4935h13.7945c.5057 0 .9072.2873 1.1483.5537.2407.266.4617.664.4617 1.1024v8.9851c0 .5188-.2705.9405-.5553 1.2088-.2772.261-.6873.4894-1.1356.4894h-8.4012v-1.5h8.3833a.2045.2045 0 0 0 .0196-.008.4173.4173 0 0 0 .1055-.0734.3602.3602 0 0 0 .0738-.0943.1096.1096 0 0 0 .0099-.0254V5.6057a.19.19 0 0 0-.0065-.016.4058.4058 0 0 0-.0674-.0999.3303.3303 0 0 0-.07-.0602H5.9768c-.0343 0-.0923.0173-.1477.0709-.0515.05-.0574.0878-.058.0877l-.0001-.001Z"/>
</g></svg>