<svg xmlns="http://www.w3.org/2000/svg" data-laicon-version="15.0" viewBox="0 0 20 20" fill="black"><g transform="translate(-2 -2)">
  <path d="M11.3872 3.1195a.75.75 0 0 1-.0671.8429c-.8573 1.0636-1.37 2.4147-1.37 3.8875 0 3.4242 2.7759 6.2 6.2001 6.2 1.4727 0 2.8237-.5125 3.8872-1.3696a.75.75 0 0 1 1.2126.6933c-.6652 4.5126-4.5523 7.9758-9.2497 7.9758-5.1638 0-9.35-4.1861-9.35-9.35 0-4.6975 3.4636-8.5848 7.9765-9.2497a.75.75 0 0 1 .7604.3698ZM9.1255 4.6924c-2.9132 1.147-4.9751 3.9867-4.9751 7.307 0 4.3355 3.5145 7.85 7.8499 7.85 3.3202 0 6.1598-2.0617 7.3069-4.9746-.9636.4337-2.0325.6751-3.157.6751-4.2526 0-7.7-3.4474-7.7-7.7 0-1.1247.2415-2.1938.6753-3.1575Z"/>
</g></svg>