<svg xmlns="http://www.w3.org/2000/svg" data-laicon-version="15.0" viewBox="0 0 20 20" fill="black"><g transform="translate(-2 -2)">
  <path d="M10.097 15.253V4.966l8.153 1.615v7.752a3.4232 3.4232 0 0 0-5.2928 2.2307 3.4232 3.4232 0 0 0 4.1951 3.9231A3.4228 3.4228 0 0 0 19.75 17.165V6.375c0-.596-.421-1.11-1.006-1.225l-8.656-1.715a1.248 1.248 0 0 0-1.49 1.225v7.76a3.424 3.424 0 1 0 1.5 2.832h-.001v.001Zm-3.423-1.924a1.9249 1.9249 0 0 0-1.8172 1.1771 1.9237 1.9237 0 0 0 1.0676 2.5363 1.924 1.924 0 1 0 .7496-3.7134Zm9.652 1.913a1.9236 1.9236 0 0 0 0 3.847 1.9236 1.9236 0 0 0 0-3.847Z"/>
</g></svg>