<svg xmlns="http://www.w3.org/2000/svg" data-laicon-version="15.0" viewBox="0 0 20 20" fill="black"><g transform="translate(-2 -2)">
  <path d="M12.8311 15.3122c0-1.6614 1.3469-3.0083 3.0084-3.0083 1.6614 0 3.0084 1.3468 3.0084 3.0083 0 1.6614-1.3469 3.0083-3.0084 3.0083s-3.0084-1.3469-3.0084-3.0083Zm3.0084-1.5083c-.8331 0-1.5084.6753-1.5084 1.5083s.6753 1.5083 1.5084 1.5083 1.5084-.6753 1.5084-1.5083c0-.8329-.6754-1.5083-1.5084-1.5083ZM8.226 8.7804l9.6787-2.581.3865 1.4494-9.6786 2.581-.3865-1.4494Zm-5.0737 9.1128c0-1.6614 1.347-3.0083 3.0084-3.0083s3.0083 1.3469 3.0083 3.0083c0 1.6615-1.3469 3.0083-3.0083 3.0083-1.6613 0-3.0084-1.3468-3.0084-3.0083Zm3.0084-1.5083c-.833 0-1.5084.6753-1.5084 1.5083 0 .8329.6754 1.5083 1.5084 1.5083s1.5083-.6752 1.5083-1.5083c0-.833-.6753-1.5083-1.5083-1.5083Z"/>
  <path d="M17.2755 3.141c.7937-.2117 1.572.3868 1.572 1.2078v10.9635h-1.5V4.6743L9.169 6.8553v11.038h-1.5V6.6631a1.25 1.25 0 0 1 .9278-1.2077l8.6787-2.3143c-.0001 0 0 0 0 0Z"/>
</g></svg>