<svg xmlns="http://www.w3.org/2000/svg" data-laicon-version="15.3" viewBox="0 0 20 20" fill="black"><g transform="translate(-2 -2)">
  <path d="M14.59 8.46c.1 0 .19.03.26.1l-.01-.02c.06.07.1.16.1.26v6.37c0 .1-.03.19-.1.26-.06.07-.16.11-.26.11h-1.03c-.08 0-.15-.02-.21-.05a.83.83 0 0 1-.13-.12l-.02-.02-2.5-3.86v3.69c0 .1-.03.19-.1.26-.06.07-.16.11-.26.11h-.94c-.1 0-.19-.04-.26-.11a.4.4 0 0 1-.1-.26V8.81c0-.1.03-.2.1-.26a.4.4 0 0 1 .26-.1h1.04c.08 0 .15.01.21.05a.4.4 0 0 1 .15.14l2.5 3.86V8.82c0-.1.03-.2.1-.26a.4.4 0 0 1 .26-.1h.94Z"/>
  <path d="M7.13 3.05a4.079 4.079 0 0 0-4.08 4.08v9.74a4.079 4.079 0 0 0 4.08 4.08h9.74a4.079 4.079 0 0 0 4.08-4.08V7.13a4.079 4.079 0 0 0-4.08-4.08H7.13ZM4.55 7.13a2.579 2.579 0 0 1 2.58-2.58h9.74a2.579 2.579 0 0 1 2.58 2.58v9.74a2.579 2.579 0 0 1-2.58 2.58H7.13a2.579 2.579 0 0 1-2.58-2.58V7.13Z"/>
</g></svg>