<svg xmlns="http://www.w3.org/2000/svg" data-laicon-version="15.0" viewBox="0 0 20 20" fill="black"><g transform="translate(-2 -2)">
  <path d="M15.1001 8.75h-4v-1.5h4v1.5Zm0 2.667h-4v-1.5h4v1.5Zm-.0003 2.666h-8.9v-1.5h8.9v1.5Zm0 2.667h-8.9v-1.5h8.9v1.5Z"/>
  <path d="M4.5503 5.281v12.688c0 .4138.3362.75.75.75h13.5699v1.5h-13.57c-1.2421 0-2.25-1.0078-2.25-2.25V5.031c0-.6892.5609-1.25 1.25-1.25h12.746c.6893 0 1.25.5608 1.25 1.25v13.111h-1.5V5.281H4.5502Z"/>
  <path d="M19.4499 8.607h-1.904v-1.5h2.154c.6892 0 1.25.5608 1.25 1.25v9.7851c0 1.1472-.9298 2.077-2.077 2.077s-2.077-.9298-2.077-2.077h1.5c0 .3187.2582.577.577.577a.5769.5769 0 0 0 .577-.577v-9.535ZM6.186 7.25h3.92v4.167h-3.92V7.25Zm1.5 1.5v1.167h.92V8.75h-.92Z"/>
</g></svg>