<svg xmlns="http://www.w3.org/2000/svg" data-laicon-version="17.1" viewBox="0 0 20 20" fill="black"><g transform="translate(-2 -2)">
  <path d="M13.3 9.95H8.25v-1.5h5.05v1.5Zm-1.5 2.8H8.25v-1.5h3.55v1.5Zm.75 2.8h-4.3v-1.5h4.3v1.5Zm1.7-5.6h1.5v-1.5h-1.5v1.5Zm0 2.8h1.5v-1.5h-1.5v1.5Zm0 2.8h1.5v-1.5h-1.5v1.5Z"/>
  <path d="M4.25 4.86c0-.966.783-1.75 1.75-1.75h12c.966 0 1.75.784 1.75 1.75v14.28A1.75 1.75 0 0 1 18 20.89H6a1.75 1.75 0 0 1-1.75-1.75V4.86ZM6 4.61a.25.25 0 0 0-.25.25v14.28c0 .138.112.25.25.25h12a.25.25 0 0 0 .25-.25V4.86a.25.25 0 0 0-.25-.25H6Z"/>
</g></svg>