<svg xmlns="http://www.w3.org/2000/svg" data-laicon-version="15.0" viewBox="0 0 20 20" fill="black"><g transform="translate(-2 -2)">
  <path d="M6 4.6104a.25.25 0 0 0-.25.25v14.2791a.25.25 0 0 0 .25.25h12a.25.25 0 0 0 .25-.25V4.8605a.25.25 0 0 0-.25-.25H6Zm-1.75.25c0-.9665.7835-1.75 1.75-1.75h12c.9665 0 1.75.7835 1.75 1.75v14.2791c0 .9665-.7835 1.75-1.75 1.75H6c-.9665 0-1.75-.7835-1.75-1.75V4.8605Z"/>
  <path d="M15.0534 12.75H8.9468v-1.5h6.1066v1.5Zm0-3.3413H8.9468v-1.5h6.1066v1.5Zm0 6.6827H8.9468v-1.5h6.1066v1.5Z"/>
</g></svg>