<svg xmlns="http://www.w3.org/2000/svg" data-laicon-version="16.12" viewBox="0 0 20 20" fill="black"><g transform="translate(-2 -2)">
  <path d="M13.78 15.54h-3.9l1.03-1.09c1.19-1.25 1.9-2.15 2.32-2.9.45-.81.51-1.43.51-1.97 0-.8-.3-1.49-.87-1.99-.56-.49-1.32-.75-2.22-.75-.81 0-1.52.22-2.1.64-.58.42-.99 1.03-1.24 1.8-.03.1-.02.19.03.27.05.08.13.13.22.15l.75.2c.09.03.18.02.26-.02.07-.04.13-.11.16-.2.15-.45.39-.8.71-1.03.32-.23.71-.35 1.16-.35.48 0 .89.13 1.17.37.28.24.43.58.43.99 0 .41-.07.83-.41 1.41-.34.58-.93 1.31-1.97 2.45L7.49 16.1c-.07.09-.1.19-.1.29v.23c0 .1.03.18.09.25.06.06.15.1.25.1h6.03c.09 0 .18-.04.24-.1a.34.34 0 0 0 .09-.24v-.75c0-.09-.03-.17-.09-.24a.324.324 0 0 0-.24-.09l.02-.01Zm7.08-3.05c-.25-.32-.59-.58-.99-.76.83-.46 1.31-1.26 1.31-2.18 0-1.54-1.4-2.71-3.25-2.71-1.6 0-2.91.96-3.33 2.45-.03.1-.02.18.02.26.04.08.11.13.21.16l.76.21c.09.03.18.02.26-.02.07-.04.12-.1.15-.17V9.7c.28-.87.99-1.38 1.91-1.38 1.01 0 1.74.59 1.74 1.41s-.7 1.37-1.67 1.37h-.55a.34.34 0 0 0-.24.09c-.06.06-.09.14-.09.24v.68c0 .1.03.18.09.24.06.07.15.1.24.1h.52c.58 0 1.07.15 1.41.43.33.27.51.67.51 1.13 0 .97-.81 1.67-1.93 1.67-.51 0-.94-.14-1.29-.41-.36-.28-.62-.69-.78-1.23a.339.339 0 0 0-.17-.2.47.47 0 0 0-.24-.03l-.75.21c-.09.02-.17.07-.21.14-.05.07-.06.17-.03.26.41 1.68 1.74 2.72 3.47 2.72 2 0 3.45-1.27 3.45-3.02 0-.64-.18-1.19-.53-1.63ZM5.4 7.02h.57v.01c.1 0 .18.03.24.09s.09.14.09.23v9.26c0 .09-.03.18-.09.24a.35.35 0 0 1-.24.1h-.82a.31.31 0 0 1-.24-.1.324.324 0 0 1-.09-.24v-7.5l-1.55.86c-.1.05-.18.06-.26.03-.08-.02-.14-.08-.19-.17l-.17-.28c-.04-.08-.06-.16-.04-.24.02-.08.06-.14.13-.2L5.1 7.13c.1-.1.22-.11.3-.11Z"/>
</g></svg>