<svg xmlns="http://www.w3.org/2000/svg" data-laicon-version="16.11" viewBox="0 0 20 20" fill="black"><g transform="translate(-2 -2)">
  <path d="M9.901 7.172a.95.95 0 1 1 1.697.855.95.95 0 0 1-1.697-.855Zm3.801.234a.95.95 0 1 1 1.697.855.95.95 0 0 1-1.697-.855Zm-6.949 6.018a.95.95 0 1 1 1.697.855.95.95 0 0 1-1.697-.855Zm.234-3.8a.95.95 0 1 1 1.697.854.95.95 0 0 1-1.697-.854Z"/>
  <path d="M3.25 12a8.75 8.75 0 0 1 17.5 0 2.895 2.895 0 0 1-3.335 2.861l-.559-.086c-1.296-.2-2.44.86-2.339 2.168l.077 1.005A2.602 2.602 0 0 1 12 20.75 8.75 8.75 0 0 1 3.25 12ZM12 4.75a7.25 7.25 0 1 0 0 14.5c.642 0 1.148-.547 1.099-1.187l-.078-1.005a3.536 3.536 0 0 1 4.063-3.765l.56.086A1.395 1.395 0 0 0 19.25 12 7.25 7.25 0 0 0 12 4.75Z"/>
</g></svg>