<svg xmlns="http://www.w3.org/2000/svg" data-laicon-version="15.0" viewBox="0 0 20 20" fill="black"><g transform="translate(-2 -2)">
  <path d="M11.2002 19.1c-.5.4-1.5.9-2.3.9-2.1 0-3.7-1.6-3.7-3.7 0-.9.3-1.8.9-2.5l9.3-9.3c.3-.2.8-.4 1.3-.4 1.2 0 2.2 1 2.2 2.2 0 .5-.2 1-.5 1.4l-.4.4-8.2 8.2c-.2.2-.4.2-.5.2-.4 0-.7-.3-.7-.7 0-.3.1-.4.4-.6l7-7-1.1-1.1-7 7c-.3.3-.8.7-.8 1.7 0 1.2 1 2.2 2.2 2.2.6 0 1.2-.3 1.6-.7l8.2-8.3.4-.4c.5-.7.8-1.5.8-2.3 0-2-1.6-3.7-3.7-3.7-.8 0-1.6.3-2.2.7 0 0-.1 0-.1.1l-9.4 9.5c-.8.9-1.2 2.1-1.2 3.4 0 2.9 2.3 5.2 5.2 5.2 1.3 0 2.5-.6 3.3-1.2l7.9-7.9-1.1-1.2-7.8 7.9Z"/>
</g></svg>