<svg xmlns="http://www.w3.org/2000/svg" data-laicon-version="15.0" viewBox="0 0 20 20" fill="black"><g transform="translate(-2 -2)">
  <path d="m18.6502 15.49-2.1-1.82c-.64-.55-1.6-.52-2.19.08l-1.36 1.36c-.44-.19-1.4-.74-2.69-2.03-1.3-1.3-1.85-2.27-2.03-2.69l1.36-1.36c.6-.59.63-1.56.08-2.19l-1.83-2.12c-.43-.48-1.05-.76-1.74-.77h-.07c-.62 0-1.2.25-1.62.67l-1.2 1.2c-.51.51-.8 1.39-.81 2.48 0 1.44.59 4.41 4.41 8.23 3.84 3.83 6.82 4.41 8.26 4.41 1.04 0 1.93-.2901 2.45-.8101l1.2-1.1999c.43-.43.67-.99.69-1.62v-.11c-.02-.64-.31-1.26-.8-1.7l-.01-.01Zm-.95 2.37-1.2 1.2c-.14.14-.58.37-1.39.37-.97 0-3.62-.39-7.2-3.97-3.43-3.44-3.96-5.97-3.97-7.22 0-.74.2-1.2.37-1.36l1.2-1.2c.14-.14.35-.22.58-.23h.03c.25 0 .48.1.62.26l1.82 2.11s.03.11 0 .15l-1.66 1.66c-.13.13-.21.31-.22.5-.03.7.75 2.21 2.55 4.01 1.62 1.62 3.25 2.63 4.07 2.54.17-.02.32-.1.44-.21l1.66-1.66s.11-.04.15 0l2.1 1.81c.18.16.29.38.29.67 0 .22-.09.42-.25.57h.01Z"/>
  <path d="M20.9504 2.9c-.24-.18-.54-.24-.82-.16l-4.29 1.14c-.41.11-.7.49-.7.92v3.79c-.13-.03-.27-.05-.42-.05-1 0-1.82.82-1.82 1.82s.81 1.82 1.82 1.82 1.82-.81 1.82-1.82V7.13l3.39-.9v1.09c-.13-.03-.27-.05-.42-.05-1 0-1.82.82-1.82 1.82s.81 1.82 1.82 1.82 1.82-.81 1.82-1.82V3.65c0-.3-.14-.57-.37-.75h-.01Zm-6.23 7.87c-.23 0-.42-.19-.42-.42 0-.23.19-.42.42-.42.23 0 .42.19.42.42 0 .23-.19.42-.42.42Zm1.82-5.1v-.53l3.39-.9v.53l-3.39.9Zm2.97 3.82c-.23 0-.42-.19-.42-.42 0-.23.19-.42.42-.42.23 0 .42.19.42.42 0 .23-.19.42-.42.42Z"/>
</g></svg>