<svg xmlns="http://www.w3.org/2000/svg" data-laicon-version="15.0" viewBox="0 0 20 20" fill="black"><g transform="translate(-2 -2)">
  <path d="m7.2202 4.428 2.556 2.889a.037.037 0 0 1-.001.05L8.0032 9.14a.8228.8228 0 0 0-.208.36.988.988 0 0 0-.036.238c-.003.129.015.258.042.376.054.242.165.53.341.86.354.666 1.009 1.571 2.161 2.723 1.153 1.153 2.058 1.808 2.723 2.162.332.176.62.287.86.341.12.027.248.045.378.041a.9885.9885 0 0 0 .238-.035.8221.8221 0 0 0 .36-.209l1.77-1.771a.0372.0372 0 0 1 .051-.002l2.89 2.557a.8248.8248 0 0 1 .2774.5922.824.824 0 0 1-.2414.6078l-1.5 1.5c-.09.09-.357.253-.875.33-.5.074-1.181.057-2.021-.151-1.678-.417-3.964-1.591-6.623-4.25-2.658-2.658-3.832-4.944-4.249-6.622-.208-.84-.225-1.52-.151-2.02.077-.519.24-.786.33-.875l1.5-1.5a.8242.8242 0 0 1 1.2.036v-.001Zm1.123-.994a2.324 2.324 0 0 0-3.383-.104l-1.5 1.5c-.397.397-.65 1.012-.754 1.716-.107.721-.069 1.6.18 2.602.497 2.004 1.843 4.52 4.644 7.321 2.8 2.8 5.317 4.147 7.321 4.644 1.001.249 1.88.287 2.602.18.704-.104 1.32-.357 1.716-.753l1.5-1.5c.947-.947.9-2.497-.103-3.384l-2.888-2.556a1.537 1.537 0 0 0-2.106.064l-1.52 1.52a2.939 2.939 0 0 1-.32-.15c-.498-.265-1.286-.816-2.368-1.898-1.082-1.082-1.633-1.87-1.898-2.367a2.9617 2.9617 0 0 1-.15-.322l1.52-1.52a1.5371 1.5371 0 0 0 .064-2.105l-2.557-2.888Z"/>
</g></svg>