<svg xmlns="http://www.w3.org/2000/svg" data-laicon-version="15.0" viewBox="0 0 20 20" fill="black"><g transform="translate(-2 -2)">
  <path d="M4.9602 3.33a2.324 2.324 0 0 1 3.383.104l2.557 2.888c.538.609.51 1.531-.064 2.106l-1.52 1.52c.032.082.08.189.15.32.265.498.816 1.286 1.898 2.368 1.082 1.082 1.87 1.633 2.367 1.898.132.07.24.118.322.15l1.52-1.52a1.5373 1.5373 0 0 1 2.105-.064l2.888 2.557a2.3235 2.3235 0 0 1 .7829 1.6698 2.3233 2.3233 0 0 1-.6799 1.7142l-1.5 1.5c-.397.396-1.012.649-1.716.753-.721.107-1.6.069-2.602-.18-2.004-.497-4.52-1.843-7.321-4.644-2.8-2.8-4.147-5.317-4.645-7.321-.248-1.001-.286-1.88-.179-2.602.104-.704.357-1.32.753-1.716l1.5-1.5.001-.001Zm1.06 1.061-1.5 1.5c-.09.09-.253.357-.33.875-.074.5-.057 1.182.151 2.022.417 1.677 1.591 3.963 4.25 6.622 2.658 2.658 4.944 3.832 6.622 4.249.84.208 1.52.225 2.02.151.519-.076.786-.24.875-.33l1.5-1.5a.8241.8241 0 0 0-.036-1.2l-2.889-2.556a.0369.0369 0 0 0-.05.001l-1.771 1.771a.823.823 0 0 1-.36.21.9853.9853 0 0 1-.239.035 1.5114 1.5114 0 0 1-.376-.042 3.5518 3.5518 0 0 1-.86-.341c-.666-.354-1.571-1.009-2.724-2.161-1.152-1.153-1.807-2.058-2.16-2.723a3.5453 3.5453 0 0 1-.342-.86 1.5139 1.5139 0 0 1-.042-.377.9881.9881 0 0 1 .036-.239.8228.8228 0 0 1 .208-.36l1.772-1.77a.037.037 0 0 0 .001-.051l-2.556-2.889a.824.824 0 0 0-1.2-.037Zm8.913.969a.943.943 0 1 1 0-1.8861.943.943 0 0 1 0 1.8861Zm2.478 0a.9429.9429 0 1 1 0-1.8858.9429.9429 0 0 1 0 1.8858Zm1.536-.942a.9422.9422 0 0 0 .942.942.9421.9421 0 0 0 .6661-1.608.9421.9421 0 0 0-1.6081.666Zm.942 3.421a.9442.9442 0 0 1-.9133-.9435.9441.9441 0 0 1 .9133-.9435.9454.9454 0 0 1 .8918.9435.9451.9451 0 0 1-.8918.9435Zm-3.222-1.142a.9429.9429 0 0 0 .2752.6664.9427.9427 0 0 0 .6658.2766.9422.9422 0 0 0 .6678-1.6074.9422.9422 0 0 0-1.6088.6644Z"/>
  <path d="M14.4381 10.812a.9438.9438 0 0 1-.8999-1.3118.9448.9448 0 0 1 .5293-.5124.9442.9442 0 0 1 1.2839.8807.9442.9442 0 0 1-.9133.9435Zm.637-2.522a.9427.9427 0 0 0 .2759.6661.9422.9422 0 0 0 1.5364-.3056.9418.9418 0 0 0-.8703-1.3025.9421.9421 0 0 0-.942.942Zm4.814 2.026a.942.942 0 1 1 0-1.884.942.942 0 0 1 0 1.884Z"/>
</g></svg>