<svg xmlns="http://www.w3.org/2000/svg" data-laicon-version="15.0" viewBox="0 0 20 20" fill="black"><g transform="translate(-2 -2)">
  <path d="M21.4533 9.0724h-3.6979v-1.5h3.6979v1.5Zm-.0002 3.7376H17.77v-1.5h3.6831v1.5ZM9.4019 7.5735V5.0253h1.5v2.5482h-1.5Z"/>
  <path d="M8.1284 5.3027v2.2292h-1.5v-2.63c0-.7427.6776-1.0992 1.1782-1.0992h12.6747c.5007 0 1.1782.3565 1.1782 1.0992v10.3364c0 .7428-.6777 1.0992-1.1782 1.0992h-2.8515V5.3027H8.1284Zm11.0014 0v9.5348h1.0297V5.3027h-1.0297Z"/>
  <path d="M3.8501 10.2268v8.4705h11.208v-8.4705H3.8501Zm-1.5-.409c0-.69.6025-1.091 1.1374-1.091h11.9332c.5349 0 1.1374.401 1.1374 1.091v9.2886c0 .69-.6025 1.0909-1.1374 1.0909H3.4875c-.535 0-1.1374-.4011-1.1374-1.0909V9.8177Z"/>
  <path d="M12.3149 11.4a.9156.9156 0 0 0-.6471 1.5628.9154.9154 0 1 0 .6471-1.5628Zm1.0273 7.2022a.7501.7501 0 0 1 .042 1.0164.7498.7498 0 0 1-1.0098.1233l-.0066-.0048-.0865-.074-5.4046-5.4047-3.045 3.046a.7501.7501 0 0 1-.9678.0791l-.0066-.0048-.0865-.074a.7503.7503 0 0 1-.0788-.968l.0048-.0066.074-.0865 4.1066-4.1063 6.4648 6.4649Z"/>
</g></svg>