<svg xmlns="http://www.w3.org/2000/svg" data-laicon-version="15.0" viewBox="0 0 20 20" fill="black"><g transform="translate(-2 -2)">
  <path d="M2.8765 5.4263 18.391 20.478l-.0506.0521 1.0561 1.0245 1.0444-1.0766-3.8628-3.7476h2.4499a.7499.7499 0 0 0 .6306-1.1559l-2.8951-4.4981V4.1992a.75.75 0 0 0-.75-.75H7.9862a.75.75 0 0 0-.75.75v3.468L3.8704 4.4017l-.994 1.0245Zm4.0944 6.0622-2.6299 4.086a.75.75 0 0 0 .6307 1.1559h6.2782v4.6373a.75.75 0 0 0 1.5 0V17.095l-1.922-1.8646H6.3464l1.7227-2.6765-1.0982-1.0654Zm1.7653-2.3661V4.9492h6.5274v6.3477c0 .144.0414.2849.1193.4059l2.2705 3.5276h-2.6213l-6.296-6.108Z"/>
</g></svg>