<svg xmlns="http://www.w3.org/2000/svg" data-laicon-version="15.0" viewBox="0 0 20 20" fill="black"><g transform="translate(-2 -2)">
  <path d="M19.6863 16.3396a.7499.7499 0 0 1-.6583.3908H4.9717a.75.75 0 0 1-.6307-1.1559l2.8952-4.4981V4.1992a.75.75 0 0 1 .75-.75h8.0273a.75.75 0 0 1 .75.75v6.8772l2.8951 4.4981a.7499.7499 0 0 1 .0277.7651Zm-2.033-1.1092-2.2705-3.5276a.7498.7498 0 0 1-.1193-.4059V4.9492H8.7361v6.3477a.7497.7497 0 0 1-.1193.4059l-2.2705 3.5276h11.307Z"/>
  <path d="M12 15.2304a.75.75 0 0 1 .75.75v5.3873a.75.75 0 0 1-1.5 0v-5.3873a.75.75 0 0 1 .75-.75Z"/>
</g></svg>