<svg xmlns="http://www.w3.org/2000/svg" data-laicon-version="15.0" viewBox="0 0 20 20" fill="black"><g transform="translate(-2 -2)">
  <path d="M11.4279 3.59a.9475.9475 0 0 0-.038.037l-3.35 3.351-3.245-3.244c-.585-.584-1.581-.168-1.581.655v7.436c0 .32.163.603.411.77l.056.06 3.302 3.302-3.248 3.248-.002.002c-.572.576-.18 1.58.657 1.58h7.434c.239 0 .455-.09.619-.236a.9297.9297 0 0 0 .266-.187l3.297-3.297 3.196 3.195c.585.586 1.586.17 1.586-.656v-7.427a.9244.9244 0 0 0-.16-.52.9291.9291 0 0 0-.21-.323l-3.346-3.346 2.983-2.984.22-.22c.583-.582.167-1.572-.65-1.572h-7.453a.92.92 0 0 0-.744.377V3.59Zm1.322 6.6V4.714h5.476l-5.476 5.476Zm-1.5-4.302v4.302l-2.15-2.151 2.15-2.15v-.001Zm1.5 12.313v-4.39l2.196 2.195-2.195 2.195h-.001Zm-2.56-5.45-2.146 2.146-2.146-2.146h4.292Zm5.821-3.7 2.2 2.199h-4.4l2.2-2.2v.001ZM4.7139 5.774l5.476 5.476h-5.476V5.774Zm9.097 6.975h5.477v5.477l-5.478-5.476.001-.001Zm-8.038 6.538 5.478-5.477v5.477h-5.478Z"/>
</g></svg>