<svg xmlns="http://www.w3.org/2000/svg" data-laicon-version="15.0" viewBox="0 0 20 20" fill="black"><g transform="translate(-2 -2)">
  <path d="M13.5212 3.5092h.0001l7.6956 13.3292c.4876.8445.2049 1.9641-.7058 2.4241-5.5131 2.7841-11.8165 2.6107-17.0116.001-.919-.4615-1.194-1.5966-.7082-2.438l7.6859-13.3123c.6739-1.1674 2.3641-1.1818 3.044-.004Zm-1.2991.7499c-.0965-.1673-.3433-.1737-.4459.004L4.0903 17.5756c-.0832.144-.0152.2986.0824.3476 4.7875 2.4049 10.5901 2.5619 15.6622.0004.1019-.0514.1626-.1972.083-.3349v-.0001L12.2222 4.2592l-.0001-.0001Z"/>
  <path d="M19.49 15.3477c-4.8025 2.7727-10.499 2.5794-14.9783-.001l.7488-1.2998c4.0351 2.3246 9.1602 2.4955 13.4795.0018l.75 1.299ZM10.9061 10.0755a.35.35 0 1 0-.0001-.6999.35.35 0 0 0 .0001.6999Zm3.6357 3.0869a.35.35 0 1 0-.0001-.7.35.35 0 0 0 .0001.7Z"/>
  <path d="M10.9999 8.6252c-.6075 0-1.1.4926-1.1 1.1 0 .6076.4925 1.1002 1.1 1.1002.6076 0 1.1-.4926 1.1-1.1001 0-.6075-.4924-1.1001-1.1-1.1001Zm3.4399 3.0872c-.6075 0-1.1.4926-1.1 1.1001 0 .6075.4925 1.1001 1.1 1.1001.6076 0 1.1-.4926 1.1-1.1001 0-.6075-.4924-1.1001-1.1-1.1001Z"/>
</g></svg>