<svg xmlns="http://www.w3.org/2000/svg" data-laicon-version="15.0" viewBox="0 0 20 20" fill="black"><g transform="translate(-2 -2)">
  <path d="m8.0145 4.6678 6.7419 3.5225 2.7571-1.5918c1.2382-.715 2.946-.5112 3.8451.7394 1.0007 1.3918.5627 3.3082-.8864 4.1448l-13.666 7.8901a.7502.7502 0 0 1-1.0244-.2745l-3.7814-6.5495a.75.75 0 0 1 .836-1.1014l4.3458 1.1159 1.4614-.8438-4.2064-4.5819a.75.75 0 0 1 .1775-1.1567l2.232-1.2886a1.213 1.213 0 0 1 1.1678-.0245Zm6.4126 5.0428L7.4598 6.0704l-1.285.7419 4.2064 4.5818a.7502.7502 0 0 1-.1775 1.1568l-2.5366 1.4645a.75.75 0 0 1-.5615.0769l-2.914-.7483 2.5142 4.3548 13.0164-7.5151c.688-.3972.896-1.306.4185-1.9702-.3862-.5372-1.2084-.7022-1.8772-.316l-3.1141 1.798a.75.75 0 0 1-.7223.0151Z"/>
</g></svg>