<svg xmlns="http://www.w3.org/2000/svg" data-laicon-version="15.0" viewBox="0 0 20 20" fill="black"><g transform="translate(-2 -2)">
  <path d="M2.8999 7.1094c0-.4088.4508-.657.7962-.4384l7.7283 4.8905a.5251.5251 0 0 1 .1251.1103.5209.5209 0 0 1 0 .6562.5208.5208 0 0 1-.1251.1103l-7.7283 4.8906c-.3454.2185-.7962-.0297-.7962-.4384v-9.781Zm9.7722 0c0-.4088.4508-.657.7962-.4384l7.7283 4.8906c.3218.2036.3218.6731 0 .8767l-7.7283 4.8906c-.3454.2186-.7962-.0296-.7962-.4384v-9.781Zm-8.2722 1.782v6.217l4.9122-3.1085-4.9122-3.1084Zm9.7722 0v6.217l4.9121-3.1085-4.9121-3.1084Z"/>
</g></svg>