<svg xmlns="http://www.w3.org/2000/svg" data-laicon-version="15.0" viewBox="0 0 20 20" fill="black"><g transform="translate(-2 -2)">
  <path d="M19.5999 16.9V14c0-2.8-2.3-5.1-5.1-5.1h-3.5c-.2 0-.4-.2-.4-.4V7.1c.8-.1 1.5-.7 1.5-1.6V2.9h-9.2v2.6c0 .9.7 1.5 1.5 1.6V10c0 2.8 2.3 5.1 5.1 5.1h3.5c.2 0 .4.2.4.4v1.4c-.8.1-1.5.7-1.5 1.6v2.6h9.2v-2.6c0-.9-.7-1.5-1.5-1.6Zm-6.2 1.6c0-.1 0-.1.1-.1h6c.1 0 .1 0 .1.1v1.1h-6.2v-1.1Zm4.7-1.6h-3.2v-1.4c0-1-.9-1.9-1.9-1.9h-.3v-3.2h1.8c2 0 3.6 1.6 3.6 3.6v2.9Zm-12.2-9.8h3.2v1.4c0 1 .9 1.9 1.9 1.9h.3v3.2h-1.8c-2 0-3.6-1.6-3.6-3.6V7.1Zm4.6-1.5h-6c-.1 0-.1 0-.1-.1V4.4h6.2v1.1c0 .1 0 .1-.1.1Z"/>
</g></svg>