<svg xmlns="http://www.w3.org/2000/svg" data-laicon-version="15.0" viewBox="0 0 20 20" fill="black"><g transform="translate(-2 -2)">
  <path d="M11.2502 15.634V12.75h-2.885v-1.5h2.885V8.365h1.5v2.885h2.885v1.5h-2.885v2.884h-1.5Z"/>
  <path d="M11.9998 2.499a9.5007 9.5007 0 0 0-9.5984 9.5005A9.5013 9.5013 0 0 0 8.334 20.805a9.5018 9.5018 0 0 0 3.6657.695 9.501 9.501 0 1 0 0-19.002v.001Zm-8.001 9.5a8.0008 8.0008 0 0 1 11.0835-7.4721A8.0008 8.0008 0 0 1 19.9998 12a8.001 8.001 0 0 1-16.002 0l.001-.001Z"/>
</g></svg>