<svg xmlns="http://www.w3.org/2000/svg" data-laicon-version="15.0" viewBox="0 0 20 20" fill="black"><g transform="translate(-2 -2)">
  <path d="M3.1987 5.7786v12.4589h15.707a.25.25 0 0 0-.25.25h1.5c0 .6905-.5598 1.25-1.25 1.25H2.9487c-.6903 0-1.25-.5597-1.25-1.25V5.5286c0-.6903.5597-1.25 1.25-1.25h15.957c.6905 0 1.25.5598 1.25 1.25V13h-1.5V5.7786H3.1987Z"/>
  <path d="M5.0884 14.1123v-3.2601h1.35v3.2601h-1.35Zm7.6001 0v-3.2601h.95v3.2601h-.95Zm-2 0v-3.2601h1.25v3.2601h-1.25Zm-1.8501 0v-3.2601h1.25v3.2601h-1.25Zm-1.75 0v-3.2601h1.05v3.2601h-1.05Zm12.1512-5.2506H2.6152v-1.5h16.6244v1.5ZM19.5441 16.0875h-.6337a.05.05 0 0 1-.05-.0499v-.9373a.05.05 0 0 1 .05-.05h.6337a.5186.5186 0 0 1 0 1.0372Z"/>
  <path d="M15.4653 16.0195c0-2.0534 1.6646-3.718 3.718-3.718s3.718 1.6646 3.718 3.718-1.6646 3.718-3.718 3.718-3.718-1.6646-3.718-3.718Zm4.1644-1.7593h-1.5222a.1606.1606 0 0 0-.1605.1609v3.5184c0 .0889.0718.161.1605.161h.593a.1608.1608 0 0 0 .1605-.161v-1.0077c0-.0383.0164-.0548.0547-.0548l.6956.0023c.7211 0 1.3058-.5864 1.3058-1.3096 0-.7169-.5749-1.2994-1.2874-1.3095Z"/>
</g></svg>