<svg xmlns="http://www.w3.org/2000/svg" data-laicon-version="15.0" viewBox="0 0 20 20" fill="black"><g transform="translate(-2 -2)">
  <path d="M18.8 11.3491h-.9v-2.4c0-1.5-1.2-2.7-2.7-2.7h-2.4v-.9c0-1.1-.7-2.6-2.7-2.6s-2.7 1.6-2.7 2.6v.9H5.2c-1.5 0-2.7 1.2-2.7 2.7v2.8c0 .4.3.8.8.8H5c.9 0 1.2.7 1.2 1.3.1.7-.3 1.4-1.2 1.4H3.3c-.4 0-.8.3-.8.8v3.1c0 1.5 1.2 2.7 2.7 2.7h3c.4 0 .7-.3.7-.8v-1.7c0-.8.5-1.2 1.3-1.2s1.3.5 1.3 1.2v1.8c0 .4.3.8.8.8h2.9c.7 0 1.4-.3 1.9-.8s.8-1.2.8-1.9v-2.4h.9c1.1 0 2.6-.7 2.6-2.7.1-2.1-1.5-2.8-2.6-2.8Zm0 3.9h-1.7c-.2 0-.4.1-.5.2-.1.1-.2.3-.2.5v3.1c0 .3-.1.6-.3.8-.2.2-.5.3-.8.3h-2.2v-1c0-1.6-1.2-2.7-2.8-2.7-1.7 0-2.8 1.1-2.8 2.7v1H5.3c-.8.1-1.3-.4-1.3-1.1v-2.3h1c1.6 0 2.7-1.2 2.7-2.8 0-1.6-1.1-2.9-2.7-2.9H4v-2.1c0-.6.5-1.2 1.2-1.2h3.1c.2 0 .4-.1.5-.2.1-.1.3-.3.3-.5v-1.7c0-.3.1-1.1 1.1-1.1s1.2.8 1.2 1.1v1.7c0 .4.3.7.8.7h3.1c.6 0 1.2.5 1.2 1.2v3.1c0 .4.3.7.8.7H19c.3 0 1.1.1 1.1 1.2 0 1.1-.9 1.3-1.3 1.3Z"/>
</g></svg>