<svg xmlns="http://www.w3.org/2000/svg" data-laicon-version="16.13" viewBox="0 0 20 20" fill="black"><g transform="translate(-2 -2)">
  <path d="M10.25 10.378A2.778 2.778 0 0 1 13.028 7.6c1.701 0 3.165 1.394 2.759 3.165a2.25 2.25 0 0 1-.397.887c-.188.248-.435.458-.751.673l-.002.002-.26.17c-.25.16-.399.27-.488.38a.578.578 0 0 0-.127.367l-.003.1v.424h-1.463v-.426c0-.465.085-.828.274-1.142.188-.313.473-.569.857-.83h.002l.254-.166c.239-.153.39-.268.49-.382a.814.814 0 0 0 .188-.384 1.016 1.016 0 0 0-.277-.962c-.247-.252-.625-.413-1.056-.413-.683 0-1.244.52-1.31 1.185l-.01.23H10.25v-.1Zm1.815 5.112a.974.974 0 1 1 1.949 0 .974.974 0 0 1-1.949 0Z"/>
  <path d="M6.212 3.34c-.69 0-1.251.56-1.251 1.25v3.322H2.79v1.5h2.17v5.286H2.79v1.5h2.17v3.211c0 .691.561 1.25 1.252 1.25h13.752a1.25 1.25 0 0 0 1.251-1.25V4.591a1.25 1.25 0 0 0-1.251-1.251H6.212Zm.249 15.82V4.84h13.254v14.32H6.461Z"/>
</g></svg>