<svg xmlns="http://www.w3.org/2000/svg" data-laicon-version="15.0" viewBox="0 0 20 20" fill="black"><g transform="translate(-2 -2)">
  <path d="M2.6499 12c0-5.16 4.19-9.35 9.35-9.35 5.16 0 9.35 4.19 9.35 9.35 0 5.16-4.19 9.35-9.35 9.35-5.16 0-9.35-4.19-9.35-9.35Zm1.5 0c0 4.33 3.52 7.85 7.85 7.85s7.85-3.52 7.85-7.85-3.52-7.85-7.85-7.85-7.85 3.52-7.85 7.85Zm7.85-4.47c-1.58 0-2.86 1.28-2.86 2.86h1.5c0-.75.61-1.36 1.36-1.36.46 0 .93.21 1.2.54.2.25.26.54.18.88-.09.38-.3201.55-.76.83l-.0142.0092c-.5401.3499-1.3458.872-1.3458 2.1508v.33h1.5v-.33c0-.45.1599-.57.6699-.9l.003-.0019c.4997-.3199 1.1875-.76 1.4171-1.7581.18-.78.01-1.54-.47-2.15-.54-.68-1.45-1.11-2.37-1.11l-.01.01Zm.01 9.1299c.5522 0 1-.4477 1-1s-.4478-1-1-1c-.5523 0-1 .4477-1 1s.4477 1 1 1Z"/>
</g></svg>