<svg xmlns="http://www.w3.org/2000/svg" data-laicon-version="15.0" viewBox="0 0 20 20" fill="black"><g transform="translate(-2 -2)">
  <path d="M19.3999 20.6h-14.8c-.7 0-1.2-.6-1.2-1.2V4.6c0-.7.6-1.2 1.2-1.2h14.8c.7 0 1.2.6 1.2 1.2v14.8c.1.7-.5 1.2-1.2 1.2Zm-14.5-1.5h14.3V4.8h-14.3v14.3Z"/>
  <path d="M12.8001 13.8h-1.5v-.3c0-1.3.8-1.8 1.4-2.2.4-.3.7-.4.8-.8.1-.3 0-.6-.2-.9-.4-.4-.8-.6-1.3-.6-.7 0-1.4.6-1.4 1.4h-1.5c0-1.6 1.3-2.9 2.9-2.9.9 0 1.8.4 2.4 1.1.5.6.6 1.4.5 2.1-.2 1-.9 1.4-1.4 1.8-.5.3-.7.5-.7.9v.4ZM12 14.7c-.6 0-1 .4-1 1s.4 1 1 1 1-.4 1-1-.4-1-1-1Z"/>
</g></svg>