<svg xmlns="http://www.w3.org/2000/svg" data-laicon-version="15.0" viewBox="0 0 20 20" fill="black"><g transform="translate(-2 -2)">
  <path d="M3.8501 5.6817v12.6365h16.3V5.6817h-16.3Zm-1.5-.25c0-.6892.5608-1.25 1.25-1.25h16.8c.6892 0 1.25.5608 1.25 1.25v13.1365c0 .6894-.5609 1.25-1.25 1.25h-16.8c-.6892 0-1.25-.5608-1.25-1.25V5.4317Z"/>
  <path d="M20.9001 9.1943h-17.8v-1.5h17.8v1.5Zm-10.2103 3.8459h-.6376l.0003 2.1989-.0003.0015c0 .6835.5542 1.2377 1.2377 1.2377.6836 0 1.2377-.5542 1.2377-1.2377 0-.6837-.5541-1.2378-1.2377-1.2378-.2223 0-.4218.0769-.6001.2216v-1.1842Zm.6001 2.8004a.6002.6002 0 1 1 .0003-1.2003.6002.6002 0 0 1-.0003 1.2003ZM8.495 14.0122a1.381 1.381 0 0 0-.273.0276c-.6575.132-1.0661.7148-.9827 1.3779.0422.3356.196.6099.4608.8198.1792.1422.4274.2402.6819.2402.2038 0 .4117-.063.5914-.2166l.1136-.0789-.0007.1691c-.003.046.0139.0607.058.0607h.0032c.0867-.0011.1734-.0017.2602-.0017.0829 0 .1657.0005.2485.002l.0036.0001c.0482 0 .0598-.0181.0595-.0653l-.0007-.4366a56.8244 56.8244 0 0 0-.0013-.5431 2.1243 2.1243 0 0 0-.0234-.3118c-.1027-.6491-.608-1.0434-1.199-1.0434Zm-.0254 1.8308h-.0013c-.3272-.0007-.5964-.2725-.5963-.6018 0-.329.2698-.6003.5974-.601h.0012c.3285 0 .604.2747.6038.6019-.0003.3278-.2753.6009-.6048.6009Zm4.3532-2.8028h.6376v1.1842c.1783-.1447.3778-.2216.6001-.2216.6836 0 1.2377.5541 1.2377 1.2378 0 .6835-.5541 1.2377-1.2377 1.2377-.6835 0-1.2377-.5542-1.2377-1.2377l.0003-.0015-.0003-2.1989Zm.6377 2.2003a.6001.6001 0 0 0 1.2003 0 .6003.6003 0 1 0-1.2003 0ZM15.6348 14.0796h.6376v2.3401h-.6376v-2.3401Zm1.6752-1.0394h-.6376v2.6577c0 .3987.3232.7218.7218.7218h.5433v-.542h-.329a.2986.2986 0 0 1-.2985-.2986v-.9388h.6275v-.5607H17.31v-1.0394Zm-10.2821.9625.0559-.0001v.6375l-.056.0001a.573.573 0 0 0-.5728.5729v1.2065h-.6376v-1.2065c0-.6685.542-1.2104 1.2105-1.2104Z"/>
</g></svg>