<svg xmlns="http://www.w3.org/2000/svg" data-laicon-version="17.2" viewBox="0 0 20 20" fill="black"><g transform="translate(-2 -2)">
  <path d="M3.75 5c0-.69.56-1.25 1.25-1.25h5.25c.69 0 1.25.56 1.25 1.25v7c0 .69-.56 1.25-1.25 1.25H5c-.69 0-1.25-.56-1.25-1.25V5Zm1.5.25v6.5H10v-6.5H5.25ZM12.5 5c0-.69.56-1.25 1.25-1.25H19c.69 0 1.25.56 1.25 1.25v3.75c0 .69-.56 1.25-1.25 1.25h-5.25c-.69 0-1.25-.56-1.25-1.25V5Zm1.5.25V8.5h4.75V5.25H14Zm-10.25 10c0-.69.56-1.25 1.25-1.25h5.25c.69 0 1.25.56 1.25 1.25V19c0 .69-.56 1.25-1.25 1.25H5c-.69 0-1.25-.56-1.25-1.25v-3.75Zm1.5.25v3.25H10V15.5H5.25ZM12.5 12c0-.69.56-1.25 1.25-1.25H19c.69 0 1.25.56 1.25 1.25v7c0 .69-.56 1.25-1.25 1.25h-5.25c-.69 0-1.25-.56-1.25-1.25v-7Zm1.5.25v6.5h4.75v-6.5H14Z"/>
</g></svg>