<svg xmlns="http://www.w3.org/2000/svg" data-laicon-version="15.0" viewBox="0 0 20 20" fill="black"><g transform="translate(-2 -2)">
  <path d="M9.3914 8.397a.75.75 0 0 1 .7561.0107l4.9 2.9545a.7504.7504 0 0 1 .3628.6439.7502.7502 0 0 1-.3656.6424l-4.9 2.9255a.7502.7502 0 0 1-1.1345-.644V9.05a.75.75 0 0 1 .3812-.653Zm1.1189 1.981v3.2307l2.6922-1.6074-2.6922-1.6233Z"/>
  <path d="M4.8003 4.5c0-.7732.6268-1.4 1.4-1.4h11.5999c.7732 0 1.4.6268 1.4 1.4v14.9c0 .7732-.6268 1.4-1.4 1.4h-11.6c-.7731 0-1.4-.6268-1.4-1.4V4.5Zm1.5.1v14.7h11.3999V4.6h-11.4Z"/>
</g></svg>