<svg xmlns="http://www.w3.org/2000/svg" data-laicon-version="15.0" viewBox="0 0 20 20" fill="black"><g transform="translate(-2 -2)">
  <path d="m15.9998 5-4 3V5.77c-1.09 0-2.17.29-3.12.84-.95.55-1.74 1.34-2.29 2.29s-.84 2.03-.84 3.12c0 1.09.29 2.17.84 3.12.55.95 1.34 1.74 2.29 2.29 1.9 1.1 4.34 1.1 6.24 0 .95-.55 1.74-1.34 2.29-2.29s.84-2.03.84-3.12c0-1.09-.29-2.17-.84-3.12l1.3-.75a7.7717 7.7717 0 0 1 1.04 3.87c0 1.35-.36 2.69-1.04 3.87a7.8357 7.8357 0 0 1-2.83 2.83 7.7697 7.7697 0 0 1-3.87 1.04l-.01-.01a7.7694 7.7694 0 0 1-3.87-1.04 7.6831 7.6831 0 0 1-2.83-2.83 7.77 7.77 0 0 1-1.04-3.87c0-1.35.36-2.69 1.04-3.87a7.835 7.835 0 0 1 2.83-2.83 7.77 7.77 0 0 1 3.87-1.04V2l4 3Z"/>
</g></svg>