<svg xmlns="http://www.w3.org/2000/svg" data-laicon-version="15.0" viewBox="0 0 20 20" fill="black"><g transform="translate(-2 -2)">
  <path d="M12 18.75c3.72 0 6.75-3.03 6.75-6.75h1.5c0 4.55-3.7 8.25-8.25 8.25S3.75 16.55 3.75 12 7.45 3.75 12 3.75c2.26 0 4.4.93 5.96 2.55l1.06-1.06c.11-.12.28-.15.43-.09.15.07.25.21.25.37V8.7c0 .23-.18.4-.4.4h-3.18c-.16 0-.31-.1-.37-.25s-.03-.31.09-.43l1.06-1.06c-1.28-1.34-3.05-2.11-4.9-2.11-3.72 0-6.75 3.03-6.75 6.75s3.03 6.75 6.75 6.75Z"/>
  <path d="M10.3999 9.5601c0-.15.08-.28.21-.35h-.01c.14-.07.3-.06.42.02l3.6601 2.44c.11.07.1699.2.1699.3299 0 .13-.0599.25-.1699.33l-3.6601 2.4401c-.07.05-.14.0699-.22.0699-.06 0-.13-.0199-.19-.0499-.13-.07-.21-.2001-.21-.3501V9.5601Z"/>
</g></svg>