<svg xmlns="http://www.w3.org/2000/svg" data-laicon-version="15.0" viewBox="0 0 20 20" fill="black"><g transform="translate(-2 -2)">
  <path d="M3.9986 8.0605c.989-1.0273 2.4926-1.658 4.5432-1.658h7.0771v1.5H8.5418c-1.734 0-2.814.5245-3.4625 1.1983-.6578.6832-.9548 1.6057-.9548 2.545 0 .7816.0895 1.4785.3593 2.1429.2679.6598.7323 1.3335 1.5477 2.0377l-.9804 1.1352c-.9687-.8365-1.5877-1.6986-1.9571-2.6087-.3677-.9054-.4695-1.8123-.4695-2.7071 0-1.2434.3944-2.5675 1.3741-3.5853Z"/>
  <path d="m13.2203 3.6934 3.4591 3.459-3.4591 3.4591-1.0606-1.0606 2.3983-2.3984-2.3983-2.3984 1.0606-1.0607Zm6.7814 12.2542c-.9889 1.0272-2.4926 1.658-4.5431 1.658H8.3813v-1.5h7.0773c1.7339 0 2.8139-.5246 3.4625-1.1983.6577-.6833.9547-1.6058.9547-2.545 0-.7817-.0895-1.4785-.3592-2.1429-.2679-.6598-.7324-1.3336-1.5478-2.0377l.9804-1.1352c.9688.8365 1.5877 1.6986 1.9572 2.6086.3676.9054.4694 1.8124.4694 2.7072 0 1.2434-.3943 2.5675-1.3741 3.5853Z"/>
  <path d="M10.8229 20.3108 7.3135 16.857l3.5079-3.4713 1.0551 1.0662-2.4275 2.4022 2.4261 2.3876-1.0522 1.0691Z"/>
</g></svg>