<svg xmlns="http://www.w3.org/2000/svg" data-laicon-version="15.0" viewBox="0 0 20 20" fill="black"><g transform="translate(-2 -2)">
  <path d="M11.1524 4.0078c.4223.2704.8316.7767.8316 1.448v1.4883c6.7544.6568 9.871 5.4811 9.8815 8.6343.0504 1.2631-.3187 2.3644-.6851 3.1349a7.6798 7.6798 0 0 1-.5187.9228 5.8208 5.8208 0 0 1-.179.2574 3.6796 3.6796 0 0 1-.0545.0722l-.0167.0214-.0055.0068-.002.0025-.0008.001c-.0002.0002-.0007.0008-.5834-.4713l.5827.4721a.75.75 0 0 1-1.3293-.4002c-.2091-2.1726-1.6647-3.4671-3.3152-4.2569-1.5665-.7495-3.1946-.9808-3.7259-1.0355v1.623c0 .6811-.4199 1.2825-1.0045 1.5572-.6288.2955-1.3868.1967-2.0121-.3589l-6.3458-5.1364a.7458.7458 0 0 1-.056-.0502c-.348-.3448-.4784-.836-.4841-1.2313-.0053-.3651.0978-.9223.5605-1.255l6.7705-5.4837a.748.748 0 0 1 .0724-.0518c.5713-.36 1.2309-.1594 1.6194.0893Zm8.9108 13.4901c.1941-.5438.3323-1.1846.303-1.8715a.8525.8525 0 0 1-.0006-.0319c0-2.3792-2.622-6.8663-9.1703-7.2052a.75.75 0 0 1-.7113-.749V5.4558c0-.015-.0038-.0388-.0257-.0734-.0236-.0374-.0631-.0783-.1147-.1113a.3784.3784 0 0 0-.0645-.0334L3.6338 10.62a.3882.3882 0 0 0-.0044.0672.4839.4839 0 0 0 .0261.1508.2742.2742 0 0 0 .0133.0314l6.305 5.1034a.7632.7632 0 0 1 .0315.0269c.1189.1077.2081.1372.2563.1453a.2084.2084 0 0 0 .1281-.0168c.0944-.0443.1424-.1386.1424-.1996v-1.6197c0-.1564-.0047-.2646-.0091-.3671a8.9524 8.9524 0 0 1-.0059-.1549c-.0018-.0646-.0036-.1657.0101-.2685.0133-.1002.0527-.2999.2116-.481.1734-.1974.3884-.2615.5279-.2824.1244-.0186.2407-.0107.3061-.0053.0629.0051.1359.0137.203.0215l.0302.0036a9.871 9.871 0 0 0 .2764.0288c.5022.0443 2.4325.2799 4.323 1.1844 1.4221.6805 2.8925 1.779 3.6578 3.5099Z"/>
</g></svg>