<svg xmlns="http://www.w3.org/2000/svg" data-laicon-version="15.0" viewBox="0 0 20 20" fill="black"><g transform="translate(-2 -2)">
  <path d="M3.6624 9.5239a.75.75 0 0 1 .5788-.2731h6.6597a.75.75 0 0 1 .7362.8934L9.5667 20.7708a.75.75 0 0 1-.7362.6066H6.3116a.75.75 0 0 1-.7361-.6066L3.505 10.1442a.75.75 0 0 1 .1573-.6203Zm1.489 1.2269 1.7782 9.1266h1.283l1.778-9.1266H5.1515Zm2.4201-6.4746c-.7377 0-1.3357.598-1.3357 1.3357 0 .7377.598 1.3357 1.3357 1.3357.7377 0 1.3357-.598 1.3357-1.3357 0-.7377-.598-1.3357-1.3357-1.3357ZM4.7358 5.6119c0-1.5661 1.2696-2.8357 2.8357-2.8357 1.5662 0 2.8357 1.2696 2.8357 2.8357 0 1.566-1.2695 2.8357-2.8357 2.8357-1.566 0-2.8357-1.2696-2.8357-2.8357Zm9.6971 4.2455a.7501.7501 0 0 1 .7362-.6066h2.5189a.7501.7501 0 0 1 .7362.6066l2.0704 10.6266a.75.75 0 0 1-.7362.8934h-6.6597a.75.75 0 0 1-.7362-.8934l2.0704-10.6266Zm1.3542.8934-1.7782 9.1266h4.8393L17.07 10.7508h-1.2829Zm.6414-6.4746c-.7377 0-1.3357.598-1.3357 1.3357 0 .7377.598 1.3357 1.3357 1.3357.7377 0 1.3357-.598 1.3357-1.3357 0-.7377-.598-1.3357-1.3357-1.3357Zm-2.8357 1.3357c0-1.5661 1.2696-2.8357 2.8357-2.8357s2.8357 1.2696 2.8357 2.8357-1.2696 2.8357-2.8357 2.8357-2.8357-1.2696-2.8357-2.8357Z"/>
</g></svg>