<svg xmlns="http://www.w3.org/2000/svg" data-laicon-version="15.0" viewBox="0 0 20 20" fill="black"><g transform="translate(-2 -2)">
  <path d="M5.1104 8.23c0-.9665.7834-1.75 1.75-1.75h10.2699c.9665 0 1.75.7835 1.75 1.75v10.26c0 .9665-.7835 1.75-1.75 1.75h-10.27c-.9665 0-1.75-.7835-1.75-1.75V8.23Zm1.75-.25a.25.25 0 0 0-.25.25v10.26a.25.25 0 0 0 .25.25h10.2699a.25.25 0 0 0 .25-.25V8.23a.25.25 0 0 0-.25-.25h-10.27Z"/>
  <path d="M9.3677 11.1852c-.6095 0-1.1035.4942-1.1035 1.1036 0 .6095.494 1.1036 1.1035 1.1036.6094 0 1.1034-.4941 1.1034-1.1036 0-.6094-.494-1.1036-1.1034-1.1036Zm5.2656.0001c-.6094 0-1.1035.4941-1.1035 1.1035 0 .6096.4941 1.1036 1.1035 1.1036.6094 0 1.1035-.494 1.1035-1.1036 0-.6094-.4941-1.1035-1.1035-1.1035ZM6.195 11.18c-1.3503 0-2.445 1.0946-2.445 2.445 0 1.3503 1.0947 2.445 2.445 2.445v1.5c-2.1788 0-3.945-1.7663-3.945-3.945 0-2.1788 1.7662-3.945 3.945-3.945v1.5Zm14.0552 2.445c0-1.3504-1.0947-2.445-2.445-2.445v-1.5c2.1788 0 3.945 1.7662 3.945 3.945 0 2.1787-1.7662 3.945-3.945 3.945v-1.5c1.3503 0 2.445-1.0947 2.445-2.445Zm-9.0031-6.7221V3.9286h1.5v2.9743h-1.5Z"/>
</g></svg>