<svg xmlns="http://www.w3.org/2000/svg" data-laicon-version="15.0" viewBox="0 0 20 20" fill="black"><g transform="translate(-2 -2)">
  <path d="M14.8 6.15a3.05 3.05 0 1 0 0 6.1002 3.05 3.05 0 0 0 0-6.1002ZM13.25 9.2a1.55 1.55 0 1 1 3.0999 0 1.55 1.55 0 0 1-3.0999 0Z"/>
  <path d="M20.118 2.298c.333.061.727.186 1.012.471.285.285.41.679.475 1.012.07.356.09.769.077 1.206-.025.877-.189 1.946-.467 3.047-.548 2.163-1.585 4.64-3.075 6.087-.643.709-1.507 1.379-2.471 1.937.273 1.204.226 2.255-.225 3.144-.52 1.021-1.49 1.664-2.669 2.096-.835.351-2.113.501-3.027.514-.45.007-.922-.017-1.245-.114a1.1929 1.1929 0 0 1-.324-.147.845.845 0 0 1-.374-.579.8422.8422 0 0 1 .22-.69c.095-.104.203-.176.288-.225.965-.618 1.265-1.167 1.371-1.598.075-.307.07-.59.04-.91-.21-.03-.417-.07-.62-.125l-.193-.052-2.383-2.384-.052-.193a4.7611 4.7611 0 0 1-.114-.556c-.318-.04-.604-.043-.892.035-.412.111-.943.427-1.52 1.4-.048.085-.12.196-.224.294a.836.836 0 0 1-.7.226.8374.8374 0 0 1-.585-.399 1.1966 1.1966 0 0 1-.133-.324c-.082-.317-.095-.784-.083-1.23.026-.92.18-2.185.469-2.993l.001-.004c.432-1.189 1.076-2.166 2.103-2.688.895-.455 1.956-.499 3.17-.219.573-.947 1.236-1.801 1.897-2.463 1.44-1.493 3.894-2.561 6.04-3.136 1.089-.292 2.145-.47 3.014-.505a5.4825 5.4825 0 0 1 1.199.065Zm-7.44 13.45c.263-.081.527-.175.792-.282 1.442-.579 2.764-1.47 3.572-2.368l.018-.02.02-.018c1.199-1.155 2.155-3.316 2.68-5.394.26-1.024.402-1.98.423-2.722.01-.372-.01-.667-.05-.879a1.008 1.008 0 0 0-.067-.23.9739.9739 0 0 0-.222-.062 4.0266 4.0266 0 0 0-.863-.041c-.731.03-1.675.184-2.687.455-2.051.55-4.194 1.529-5.354 2.733l-.005.005-.005.005c-.881.882-1.804 2.203-2.418 3.608a9.1627 9.1627 0 0 0-.561 1.686 4.8298 4.8298 0 0 0-.103 1.318l.054.699 1.754 1.754.797.057c.684.049 1.447-.07 2.226-.304h-.001Zm-1.447 1.823c.023.377.017.81-.09 1.245a3.4592 3.4592 0 0 1-.779 1.465c.695-.056 1.412-.186 1.842-.37l.02-.009.02-.007c1.011-.368 1.584-.824 1.862-1.372.21-.413.3-.972.173-1.76-.383.16-.779.305-1.18.425a9.4536 9.4536 0 0 1-1.868.383Zm-4.883-4.842c.03-.27.076-.541.135-.812.149-.73.405-1.477.729-2.2-.775-.122-1.326-.031-1.735.177-.548.278-1.004.85-1.371 1.86-.153.427-.271 1.11-.334 1.778a3.307 3.307 0 0 1 1.308-.706 3.6694 3.6694 0 0 1 1.268-.097Z"/>
</g></svg>