<svg xmlns="http://www.w3.org/2000/svg" data-laicon-version="15.0" viewBox="0 0 20 20" fill="black"><g transform="translate(-2 -2)">
  <path d="M12.7197 11.32c.72.17 1.2101.3901 1.5401.7101h-.01c.33.34.4899.7699.4899 1.3199 0 .69-.26 1.2701-.76 1.6601-.48.39-1.18.5999-2 .5999-.77 0-1.4399-.1999-1.9299-.5699-.49-.38-.77-.91-.81-1.55v-.21h1.51l.03.1699c.06.48.56.7901 1.27.7901.32 0 .6-.07.82-.22.2-.13.31-.32.31-.52 0-.17-.0701-.3101-.2301-.4301s-.4199-.2199-.8099-.3099l-.84-.2c-.63-.14-1.09-.3701-1.41-.7101-.32-.33-.47-.7599-.47-1.2999 0-.64.25-1.19.73-1.58.47-.39 1.12-.59 1.89-.59 1.47 0 2.54.87 2.61 2.0999v.2001h-1.49l-.03-.0801v-.0999c-.07-.48-.48-.76-1.1-.76-.31 0-.58.0699-.77.1999-.18.13-.2701.31-.2701.52 0 .11.0201.2201.1501.3501.16.13.4299.24.8399.34l.74.1699Z"/>
  <path d="M7.1298 3.0501h9.74c2.25 0 4.0799 1.83 4.0799 4.08v9.74c0 2.25-1.8299 4.0799-4.0799 4.0799h-9.74c-2.25 0-4.08-1.8299-4.08-4.0799v-9.74c0-2.25 1.83-4.08 4.08-4.08Zm9.74 16.3999c1.42 0 2.5799-1.1599 2.5799-2.5799v-9.74c0-1.42-1.1599-2.58-2.5799-2.58h-9.74c-1.42 0-2.58 1.16-2.58 2.58v9.74c0 1.42 1.16 2.5799 2.58 2.5799h9.74Z"/>
</g></svg>