<svg xmlns="http://www.w3.org/2000/svg" data-laicon-version="16.11" viewBox="0 0 20 20" fill="black"><g transform="translate(-2 -2)">
  <path d="M20.66 14.25 14.04 12l6.62-2.25c.37-.13.57-.53.45-.89a.717.717 0 0 0-.88-.46l-8.9 2.68-1.938-.66c-.185-.063-.25-.292-.154-.462a2.03 2.03 0 0 0 .172-.398c.24-.73.07-1.56-.45-2.28-.48-.65-1.21-1.16-2.07-1.44-.86-.28-1.76-.3-2.52-.06-.84.27-1.47.84-1.7 1.58-.23.74-.07 1.56.45 2.28.48.65 1.21 1.16 2.07 1.44l.18.06 2.89.87-2.88.87-.2.06c-.86.28-1.59.79-2.07 1.44-.53.71-.69 1.54-.45 2.28.24.73.86 1.31 1.7 1.57.36.11.74.17 1.13.17.46 0 .93-.08 1.39-.22.86-.28 1.59-.79 2.07-1.44.53-.71.69-1.54.45-2.28a2.333 2.333 0 0 0-.173-.397c-.095-.17-.03-.4.155-.463l1.938-.66 8.9 2.68c.36.11.76-.1.88-.46a.706.706 0 0 0-.45-.89l.01-.02ZM7.75 15.83c-.29.39-.78.72-1.33.9-.55.18-1.14.2-1.61.05-.38-.12-.64-.34-.73-.61-.09-.27 0-.6.23-.92.29-.39.77-.72 1.33-.9.56-.18 1.14-.2 1.61-.05.38.12.64.34.73.61.09.27 0 .6-.23.92Zm-2.1-6.18c-.56-.18-1.04-.51-1.33-.9-.24-.32-.32-.65-.23-.92s.35-.49.73-.61c.46-.15 1.05-.13 1.61.05.55.18 1.04.51 1.33.9.24.32.32.65.23.92s-.35.49-.73.61c-.46.15-1.05.13-1.61-.05Z"/>
</g></svg>