<svg xmlns="http://www.w3.org/2000/svg" data-laicon-version="15.3" viewBox="0 0 20 20" fill="black"><g transform="translate(-2 -2)">
  <path d="m7.607 13.263-.096.029a.211.211 0 0 1 .013-.166.216.216 0 0 1 .131-.099l.005-.001.973-.239c.047-.01.1-.01.148.014.05.024.084.066.105.113l.001.002a.721.721 0 0 0 .277.355.838.838 0 0 0 .456.109c.159 0 .28-.027.358-.073.073-.042.108-.098.108-.177 0-.093-.037-.161-.126-.23-.096-.072-.245-.137-.458-.214l-.53-.189c-.403-.14-.74-.344-.976-.618a1.517 1.517 0 0 1-.37-1.02c0-.987.88-1.66 1.938-1.66.444 0 .85.102 1.185.323.334.22.59.555.74 1.01a.205.205 0 0 1-.007.171.2.2 0 0 1-.133.099l-1.018.272a.21.21 0 0 1-.16-.012.23.23 0 0 1-.097-.113l-.001-.002c-.072-.17-.153-.267-.236-.323a.508.508 0 0 0-.294-.077.536.536 0 0 0-.294.073.194.194 0 0 0-.095.168c0 .071.027.135.12.206.099.075.263.151.524.237l.384.126c.463.157.821.357 1.063.635.244.281.362.633.362 1.075 0 .982-.855 1.658-2.022 1.658-.503 0-.946-.125-1.303-.368a2.007 2.007 0 0 1-.77-1.063l.095-.031Zm4.527-3.906a.212.212 0 0 1 .153-.06h1.894c.846 0 1.524.231 1.99.688.468.457.71 1.127.71 1.978 0 .844-.242 1.514-.71 1.972-.466.459-1.144.693-1.99.693h-1.894a.212.212 0 0 1-.153-.06.212.212 0 0 1-.059-.152V9.51a.21.21 0 0 1 .06-.153Zm1.427 1.343v2.526h.494c.44 0 .76-.108.97-.31.21-.202.328-.513.328-.953 0-.441-.117-.752-.328-.953-.21-.202-.53-.31-.97-.31h-.494Z"/>
  <path d="M4.6 3.35c-.69 0-1.25.56-1.25 1.25v14.8c0 .69.56 1.25 1.25 1.25h14.8c.69 0 1.25-.56 1.25-1.25V4.6c0-.69-.56-1.25-1.25-1.25H4.6Zm.25 15.8V4.85h14.3v14.3H4.85Z"/>
</g></svg>