<svg xmlns="http://www.w3.org/2000/svg" data-laicon-version="15.0" viewBox="0 0 20 20" fill="black"><g transform="translate(-2 -2)">
  <path d="m19.8198 20.8804-5.6723-5.6723 1.0606-1.0606 5.6723 5.6723-1.0606 1.0606Z"/>
  <path d="M10.2563 4.75c-3.041 0-5.5063 2.4653-5.5063 5.5063 0 3.041 2.4653 5.5063 5.5063 5.5063 3.041 0 5.5063-2.4653 5.5063-5.5063 0-3.041-2.4653-5.5063-5.5063-5.5063ZM3.25 10.2563c0-3.8695 3.1368-7.0063 7.0063-7.0063 3.8695 0 7.0063 3.1368 7.0063 7.0063 0 3.8695-3.1368 7.0063-7.0063 7.0063-3.8695 0-7.0063-3.1368-7.0063-7.0063Z"/>
  <path d="M13.8143 11.0063H6.6987v-1.5h7.1156v1.5Z"/>
  <path d="M9.5063 13.8141V6.6985h1.5v7.1156h-1.5Z"/>
</g></svg>