<svg xmlns="http://www.w3.org/2000/svg" data-laicon-version="15.0" viewBox="0 0 20 20" fill="black"><g transform="translate(-2 -2)">
  <path d="M5.8691 7.499h1.5v-1.5h-1.5v1.5Zm0 3.751v1.5h1.5v-1.5h-1.5Zm1.5 5.248h-1.5v1.5h1.5v-1.5Z"/>
  <path d="M4.0898 3.35c-.6903 0-1.25.5596-1.25 1.25v14.8c0 .6903.5597 1.25 1.25 1.25h6.2599v-1.5H4.3398v-3.7601h6.0099v-1.5H4.3398V10.11H18.66v3.59h1.5V4.6c0-.6904-.5597-1.25-1.25-1.25H4.09Zm.25 5.26V4.85H18.66v3.76H4.34Z"/>
  <path d="m13.5764 16.1466 1.0152.8121-1.3594 1.6992 1.3594 1.6992-1.0152.8121-2.009-2.5113 2.009-2.5113Zm5.6468 0-1.0152.8121 1.3594 1.6992-1.3594 1.6992 1.0152.8121 2.009-2.5113-2.009-2.5113Zm-4.3936 5.4824 1.8947-6.3158 1.2452.3736-1.8948 6.3158-1.2451-.3736Z"/>
</g></svg>