<svg xmlns="http://www.w3.org/2000/svg" data-laicon-version="15.0" viewBox="0 0 20 20" fill="black"><g transform="translate(-2 -2)">
  <path d="M19.1539 11.2V4.843H4.8359v9.041h6.4645v1.5H4.8359v3.777h6.4645v1.5H4.5859c-.6903 0-1.25-.5596-1.25-1.25V4.593c0-.6903.5597-1.25 1.25-1.25h14.818c.6904 0 1.25.5597 1.25 1.25V11.2h-1.5Z"/>
  <path d="M13.9507 13.85v6.4905h6.49V13.85h-6.49Zm-1.5-.4971c0-.5539.449-1.0029 1.0029-1.0029h7.4842c.5539 0 1.0029.449 1.0029 1.0029v7.4847c0 .5539-.449 1.0029-1.0029 1.0029h-7.4842c-.5539 0-1.0029-.449-1.0029-1.0029v-7.4847ZM7.7702 6.096h-1.3v1.3h1.3v-1.3Zm0 5.251h-1.3v1.3h1.3v-1.3Zm0 5.248h-1.3v1.3h1.3v-1.3ZM19.8432 10.11H4.4712v-1.5h15.372v1.5Z"/>
  <path d="M18.7807 15.1745c-.3705 0-.6713.2996-.6713.67 0 .3703.3008.6699.6713.6699s.6714-.2997.6714-.6699c0-.3704-.3009-.67-.6714-.67Zm.3491 3.8227-2.1725-3.387-2.1726 3.387h4.3451Z"/>
</g></svg>