<svg xmlns="http://www.w3.org/2000/svg" data-laicon-version="15.0" viewBox="0 0 20 20" fill="black"><g transform="translate(-2 -2)">
  <path d="M6.103 16.73a.0999.0999 0 0 1 .1-.1h1.3a.0998.0998 0 0 1 .1.1v1.3a.1.1 0 0 1-.1.1h-1.3a.0998.0998 0 0 1-.1-.1v-1.3Zm0-5.38a.0999.0999 0 0 1 .1-.1h1.3a.0998.0998 0 0 1 .1.1v1.3a.1.1 0 0 1-.1.1h-1.3a.0998.0998 0 0 1-.1-.1v-1.3Zm0-5.38a.1.1 0 0 1 .1-.1h1.3a.1.1 0 0 1 .1.1v1.3a.1.1 0 0 1-.1.1h-1.3a.1.1 0 0 1-.1-.1v-1.3Z"/>
  <path d="M4.378 3.177c-.693 0-1.254.561-1.254 1.254v15.137c0 .692.561 1.254 1.254 1.254h15.245c.693 0 1.254-.562 1.254-1.254V4.43c0-.693-.561-1.254-1.254-1.254H4.378v.001Zm.246 16.145V15.44h14.753v3.882H4.624Zm14.753-5.382H4.624v-3.88h14.753v3.881-.001Zm0-5.381H4.624V4.677h14.753v3.882Z"/>
</g></svg>