<svg xmlns="http://www.w3.org/2000/svg" data-laicon-version="15.0" viewBox="0 0 20 20" fill="black"><g transform="translate(-2 -2)">
  <path d="M13.9407 5.7122h-1.45v1.5h1.45v-1.5Zm2 0h-1.45v1.5h1.45v-1.5Zm1.996 0h-1.4455v1.5h1.4455v-1.5Zm-3.996 5.5336h-1.45v1.5h1.45v-1.5Zm2 0h-1.45v1.5h1.45v-1.5Zm1.996 0h-1.4455v1.5h1.4455v-1.5Zm-3.996 5.4307h-1.45v1.5h1.45v-1.5Zm2 0h-1.45v1.5h1.45v-1.5Zm1.996 0h-1.4455v1.5h1.4455v-1.5Z"/>
  <path d="M3.1235 4.4255c0-.6904.5597-1.25 1.25-1.25h15.2528c.6903 0 1.25.5596 1.25 1.25v15.1491c0 .6903-.5597 1.25-1.25 1.25H4.3735c-.6903 0-1.25-.5597-1.25-1.25V4.4255Zm1.5.25v14.6491h14.7528V4.6755H4.6235Z"/>
  <path d="M20.449 10.0558H4.1963v-1.5H20.449v1.5Zm0 5.379H4.1963v-1.5H20.449v1.5Z"/>
</g></svg>