<svg xmlns="http://www.w3.org/2000/svg" data-laicon-version="15.0" viewBox="0 0 20 20" fill="black"><g transform="translate(-2 -2)">
  <path d="M16.2843 16.4978c-.6958 0-1.2599.5641-1.2599 1.2599s.5641 1.2599 1.2599 1.2599 1.2599-.5641 1.2599-1.2599-.5641-1.2599-1.2599-1.2599Zm-2.7599 1.2599c0-1.5242 1.2356-2.7599 2.7599-2.7599 1.5242 0 2.7599 1.2357 2.7599 2.7599 0 1.5243-1.2357 2.7599-2.7599 2.7599-1.5243 0-2.7599-1.2356-2.7599-2.7599ZM6.716 10.7463c-.6959 0-1.26.5641-1.26 1.2599s.5641 1.2599 1.26 1.2599c.6958 0 1.2599-.5641 1.2599-1.2599s-.5641-1.2599-1.26-1.2599Zm-2.76 1.2599c0-1.5243 1.2357-2.76 2.76-2.76 1.5242 0 2.7598 1.2357 2.7598 2.76 0 1.5243-1.2356 2.7599-2.7598 2.7599-1.5243 0-2.76-1.2356-2.76-2.7599Z"/>
  <path d="m14.1712 17.3975-6.1937-3.5759.75-1.299 6.1937 3.5759-.75 1.299Zm2.1131-12.4028c-.6958 0-1.2599.564-1.2599 1.2599 0 .6958.5641 1.2599 1.2599 1.2599s1.2599-.564 1.2599-1.26c0-.6957-.5641-1.2598-1.2599-1.2598Zm-2.7599 1.2599c0-1.5243 1.2356-2.76 2.7599-2.76s2.7599 1.2357 2.7599 2.76c0 1.5242-1.2356 2.7599-2.7599 2.7599s-2.7599-1.2357-2.7599-2.76Z"/>
  <path d="m14.9212 7.9139-6.1936 3.5759-.75-1.299 6.1936-3.576.75 1.299Z"/>
</g></svg>