<svg xmlns="http://www.w3.org/2000/svg" data-laicon-version="15.0" viewBox="0 0 20 20" fill="black"><g transform="translate(-2 -2)">
  <path d="M5.0732 4.8331V13.07c0 1.0862.7797 2.3478 2.1961 3.6421 1.3044 1.192 3.0221 2.2949 4.7307 3.1687 1.7086-.8737 3.4263-1.9767 4.7307-3.1687 1.4159-1.2938 2.1955-2.555 2.1961-3.6409V13.07l-.0246-8.2645c-1.3119-.304-3.8271-.7706-6.9022-.7706-3.0941 0-5.6171.4724-6.9268.7983Zm-.96-1.2952C5.2724 3.1998 8.24 2.5348 12 2.5348c3.7626 0 6.7254.666 7.8395.9563a.75.75 0 0 1 .5609.7235l.0264 8.8553c0 1.7497-1.1979 3.3912-2.6843 4.7494-1.5188 1.388-3.4977 2.6256-5.3889 3.5627a.7397.7397 0 0 1-.147.0545l-.0207.0053a.7473.7473 0 0 1-.186.0235.8004.8004 0 0 1-.3535-.0833c-1.8912-.9371-3.8701-2.1748-5.389-3.5627-1.4863-1.3582-2.6842-2.9997-2.6842-4.7494v-8.812a.75.75 0 0 1 .54-.72Z"/>
</g></svg>