<svg xmlns="http://www.w3.org/2000/svg" data-laicon-version="15.0" viewBox="0 0 20 20" fill="black"><g transform="translate(-2 -2)">
  <path d="m9.57 10.36 1.8201 1.8101 3.15-3.15 1.06 1.0599-4.21 4.2101-2.87-2.87L9.57 10.36Z"/>
  <path d="M19.8799 3.71c.33.08.56.38.56.72l.02 8.8601c0 3.98-6.18 7.3699-8.07 8.3099-.1.05-.21.0801-.33.0801-.12 0-.28-.0301-.38-.0801-1.89-.94-8.07-4.3199-8.07-8.3099V4.47c0-.33.22-.63.54-.72.58-.17 3.66-1 7.89-1 3.77 0 6.74.67 7.84.96Zm-7.845 16.3874c3.2688-1.6802 6.925-4.3986 6.925-6.8073l-.02-8.27c-1.31-.31-3.82-.7701-6.9-.7701-3.28 0-5.81.52-6.93.8v8.2401c0 2.4087 3.6563 5.1271 6.925 6.8073Z"/>
</g></svg>