<svg xmlns="http://www.w3.org/2000/svg" data-laicon-version="15.0" viewBox="0 0 20 20" fill="black"><g transform="translate(-2 -2)">
  <path d="M5.0732 4.8335v8.2367c0 1.0862.7797 2.3478 2.196 3.642 1.3045 1.192 3.022 2.2948 4.7305 3.1686 1.7085-.8738 3.4261-1.9766 4.7304-3.1686 1.4159-1.2938 2.1956-2.5549 2.1961-3.6409v-.0011l-.0243-8.2645c-1.3117-.3039-3.8266-.7705-6.9017-.7705-3.0942 0-5.617.4725-6.927.7983Zm6.5474 16.536c-1.8833-.9356-3.8512-2.1683-5.3632-3.5499-1.4863-1.3583-2.6842-2.9997-2.6842-4.7494v-8.812a.75.75 0 0 1 .5403-.7201c1.1593-.3377 4.1263-1.003 7.8867-1.003 3.7628 0 6.7253.6662 7.839.9563a.75.75 0 0 1 .561.7235l.026 8.8553c0 1.7497-1.1978 3.3911-2.6842 4.7494-1.5188 1.3878-3.4977 2.6254-5.3888 3.5626a.7563.7563 0 0 1-.1593.0576l-.021.005a.7526.7526 0 0 1-.1737.0204c-.1452 0-.2577-.0427-.282-.0519l-.0023-.0009a.7605.7605 0 0 1-.0943-.0429Z"/>
  <path d="M15.1179 11.7422h-6.237v-1.5h6.237v1.5Z"/>
  <path d="M11.25 14.11V7.874h1.5v6.236h-1.5Z"/>
</g></svg>