<svg xmlns="http://www.w3.org/2000/svg" data-laicon-version="15.0" viewBox="0 0 20 20" fill="black"><g transform="translate(-2 -2)">
  <path d="M16.2598 8.57h-1.5v1.4999h1.5v-1.5Zm-8.5196 0h1.5v1.4999h-1.5v-1.5Z"/>
  <path d="M19.7 6.85c0-.7-.5699-1.27-1.2699-1.27H16.22c-.12-2.25-1.96-4-4.22-4S7.89 3.34 7.78 5.6H5.56c-.7 0-1.27.57-1.27 1.27v11.38c0 1.56 1.27 2.8299 2.83 2.8299h9.76c1.56 0 2.83-1.2699 2.83-2.8299V6.85h-.01Zm-7.71-3.77c1.43 0 2.59 1.09 2.71 2.51H9.27c.11-1.41 1.28-2.51 2.72-2.51ZM7.11 19.5799c-.73 0-1.33-.5999-1.33-1.3299V7.1l12.41-.02v11.17c0 .73-.59 1.3299-1.32 1.3299H7.11Z"/>
</g></svg>