<svg xmlns="http://www.w3.org/2000/svg" data-laicon-version="15.0" viewBox="0 0 20 20" fill="black"><g transform="translate(-2 -2)">
  <path d="M16.5001 21.8h-9c-1 0-2-.4-2.7-1.2-.7-.8-1-1.8-.9-2.8l1-10.8c0-.4.4-.7.7-.7h12.6c.4 0 .7.3.7.7l1.1 10.7c.1 1-.2 2.1-.9 2.8-.7.7-1.6 1.3-2.6 1.3Zm-10.1-14-1 10c-.1.6.1 1.2.5 1.7s1 .7 1.6.7h9c.6 0 1.2-.3 1.6-.7.4-.5.6-1 .5-1.7l-1-10h-11.2Z"/>
  <path d="M14.7999 9.4c-.4 0-.8-.3-.8-.8V5.8c0-1.1-.9-2.1-2.1-2.1-1.2 0-2 1-2 2.1v2.8c0 .4-.3.8-.8.8s-.7-.3-.7-.8V5.8c0-2 1.6-3.6 3.6-3.6s3.6 1.6 3.6 3.6v2.8c0 .5-.4.8-.8.8Z"/>
</g></svg>