<svg xmlns="http://www.w3.org/2000/svg" data-laicon-version="17.5" viewBox="0 0 20 20" fill="black"><g transform="translate(-2 -2)">
  <path d="M18.5 7a2.25 2.25 0 0 0-2.25-2.25H4.75A2.25 2.25 0 0 0 2.5 7v8.5a2.25 2.25 0 0 0 2.25 2.25h5.3v-1.5h-5.3A.75.75 0 0 1 4 15.5V7a.75.75 0 0 1 .75-.75h11.5A.75.75 0 0 1 17 7v3.1h1.5V7Z"/>
  <path d="M19.75 11.55c.966 0 1.75.784 1.75 1.75v5a1.75 1.75 0 0 1-1.75 1.75h-6.5a1.75 1.75 0 0 1-1.75-1.75v-5c0-.966.784-1.75 1.75-1.75h6.5ZM20 13.3a.25.25 0 0 0-.25-.25h-6.5a.25.25 0 0 0-.25.25v5c0 .138.112.25.25.25h6.5a.25.25 0 0 0 .25-.25v-5Z"/>
</g></svg>