<svg xmlns="http://www.w3.org/2000/svg" data-laicon-version="15.0" viewBox="0 0 20 20" fill="black"><g transform="translate(-2 -2)">
  <path d="M11.9539 12.0407c.0716.2308-.1452.4472-.3759.3753l-3.8327-1.1951c-.2153-.0671-.2823-.339-.1228-.4985l.8235-.8235L5.9712 7.424l.99-.99L9.436 8.909l.8289-.829c.1597-.1596.4318-.0924.4987.1233l1.1903 3.8374Z"/>
  <path d="M3.25 5.9998c0-1.2427 1.0074-2.25 2.25-2.25h12c1.2426 0 2.25 1.0073 2.25 2.25v6.5999h.7501c.7732 0 1.4.6268 1.4 1.4v5c0 .7732-.6268 1.4-1.4 1.4h-7c-.7732 0-1.4-.6268-1.4-1.4v-.75H5.5c-1.2426 0-2.25-1.0073-2.25-2.25v-10Zm15 0a.75.75 0 0 0-.75-.75h-12a.75.75 0 0 0-.75.75v9.9999a.75.75 0 0 0 .75.75h6.6001v-2.75c0-.7732.6268-1.4 1.4-1.4H18.25v-6.6Z"/>
</g></svg>