<svg xmlns="http://www.w3.org/2000/svg" data-laicon-version="15.0" viewBox="0 0 20 20" fill="black"><g transform="translate(-2 -2)">
  <path d="M11.6001 11.3c-.3-.6-.5-1.1-.9-1.6 1.1-1.7 2.7-2.9 4.2-3.6 1-.5 2-.7 2.8-.9h.3l-1.1-1.2 1-1 3 3-3 3-1-1 1.2-1.2h-.1c-.7.1-1.6.4-2.4.8-1.6.7-3.2 1.9-4 3.7Zm6.4 3.6-1 1 1.3 1.3h-.2c-.7-.1-1.6-.4-2.4-.8-1.7-.8-3.4-2.2-4.2-4.2-2-5-6.3-7-8.8-7v1.5c1.9 0 5.6 1.6 7.4 6 1 2.5 3 4.1 4.9 5 1 .5 2 .7 2.8.9.1 0 .3 0 .4.1l-1.2 1.2 1.1 1.1 3-3-3.1-3.1Zm-8.7-2.4c-1.9 3.4-5.1 4.6-6.7 4.6v1.5c2 0 5.3-1.3 7.5-4.5-.2-.4-.4-.7-.6-1.1 0-.2-.1-.3-.2-.5Z"/>
</g></svg>