<svg xmlns="http://www.w3.org/2000/svg" data-laicon-version="15.0" viewBox="0 0 20 20" fill="black"><g transform="translate(-2 -2)">
  <path d="M7.914 5.378c0-.8205.6652-1.4857 1.4859-1.4857h9.6343c.8206 0 1.4858.6652 1.4858 1.4858V18.622c0 .8206-.6652 1.4857-1.4858 1.4857H9.3999c-.8206 0-1.4858-.6651-1.4858-1.4857v-2.945h1.5v2.9307H19.02V5.3923H9.414V8.323h-1.5V5.378Z"/>
  <path d="M3.5698 11.25h9.7382v1.5H3.5698v-1.5Z"/>
  <path d="M12.2473 12 9.8345 9.5872l1.0607-1.0606L14.3686 12l-3.4734 3.4734-1.0607-1.0606L12.2473 12Z"/>
</g></svg>