<svg xmlns="http://www.w3.org/2000/svg" data-laicon-version="15.0" viewBox="0 0 20 20" fill="black"><g transform="translate(-2 -2)">
  <path d="M4.5644 5.4514v13.2154h9.606v-2.9307h1.5v2.945c0 .8206-.6652 1.4857-1.4858 1.4857H4.5503c-.8206 0-1.4859-.6651-1.4859-1.4857V5.4372c0-.8206.6652-1.4858 1.4859-1.4858h9.6343c.8206 0 1.4858.6652 1.4858 1.4858v2.945h-1.5V5.4514h-9.606Z"/>
  <path d="M20.0141 12.8091h-9.7382v-1.5h9.7382v1.5Z"/>
  <path d="M18.9538 12.0591 16.541 9.6463l1.0606-1.0606 3.4735 3.4734-3.4735 3.4734-1.0606-1.0606 2.4128-2.4128Z"/>
</g></svg>