<svg xmlns="http://www.w3.org/2000/svg" data-laicon-version="15.0" viewBox="0 0 20 20" fill="black"><g transform="translate(-2 -2)">
  <path d="M2.5752 12.001c0-5.1561 4.1937-9.351 9.35-9.351s9.35 4.1949 9.35 9.351c0 5.1553-4.1938 9.349-9.35 9.349-5.1562 0-9.35-4.1937-9.35-9.349Zm1.5 0c0 4.3267 3.5222 7.849 7.85 7.849s7.85-3.5223 7.85-7.849c0-4.328-3.5223-7.851-7.85-7.851s-7.85 3.523-7.85 7.851Z"/>
  <path d="M20.476 12.0585c-6.7492-.1143-12.0819 3.6406-14.7183 5.9403a.75.75 0 0 1-.986-1.1304c2.7335-2.3844 8.4229-6.4334 15.7297-6.3097a.75.75 0 0 1-.0254 1.4998Z"/>
  <path d="M2.9557 9.8837a.75.75 0 0 1 1.0575.0812c.0148.0172.0342.041.0587.0707.2976.3632 1.3307 1.6236 3.5148 2.8503 2.3674 1.3298 6.1246 2.6382 11.7992 2.6382a.75.75 0 0 1 0 1.5c-5.9163 0-9.9288-1.3671-12.5338-2.8303-2.4205-1.3596-3.5937-2.7864-3.9172-3.1798a5.2697 5.2697 0 0 0-.0604-.0727.75.75 0 0 1 .0812-1.0576Z"/>
</g></svg>