<svg xmlns="http://www.w3.org/2000/svg" data-laicon-version="15.0" viewBox="0 0 20 20" fill="black"><g transform="translate(-2 -2)">
  <path d="M19.185 13a7.3138 7.3138 0 0 0 .0684-1c0-1.7319-.6073-3.322-1.6205-4.5689L7.4346 17.6295c1.2469 1.0132 2.8369 1.6205 4.5688 1.6205 1.2291 0 2.3867-.3058 3.4009-.8456l1.1005 1.1005c-1.3152.7905-2.8552 1.2451-4.5014 1.2451-4.8325 0-8.75-3.9175-8.75-8.75s3.9175-8.75 8.75-8.75 8.75 3.9175 8.75 8.75c0 .3382-.0192.6718-.0565 1H19.185Zm-7.1816-8.25c-4.004 0-7.25 3.246-7.25 7.25 0 1.7319.6073 3.3219 1.6205 4.5689L16.5722 6.3705C15.3253 5.3573 13.7353 4.75 12.0034 4.75Z"/>
  <path d="M16.5 15.3h2.75c1.3531 0 2.45 1.0969 2.45 2.45 0 1.3531-1.0969 2.45-2.45 2.45H19v-1.4h.25c.5799 0 1.05-.4701 1.05-1.05 0-.5799-.4701-1.05-1.05-1.05H16.5v-1.4Z"/>
  <path d="m17.805 13.505.99.99L17.2899 16l1.5051 1.505-.99.99L15.3101 16l2.4949-2.495Z"/>
</g></svg>