<svg xmlns="http://www.w3.org/2000/svg" data-laicon-version="15.0" viewBox="0 0 20 20" fill="black"><g transform="translate(-2 -2)">
  <path d="M8.5731 13.0286a.75.75 0 0 1 1.0249.2734c.4805.83 1.3768 1.386 2.4022 1.386s1.9217-.556 2.4022-1.386a.75.75 0 1 1 1.2982.7514c-.7377 1.2745-2.1182 2.1346-3.7004 2.1346-1.5822 0-2.9627-.8601-3.7005-2.1346a.75.75 0 0 1 .2734-1.0248Zm.6499-3.8322c-.6075 0-1.1.4925-1.1 1.1 0 .6075.4925 1.1 1.1 1.1.6075 0 1.1001-.4925 1.1001-1.1 0-.6075-.4926-1.1-1.1-1.1ZM14.7772 9.1964c-.6074 0-1.1.4925-1.1 1.1 0 .6075.4926 1.1 1.1 1.1.6075 0 1.1-.4925 1.1-1.1 0-.6075-.4925-1.1-1.1-1.1Z"/>
  <path d="M11.9999 4.15c-4.3354 0-7.85 3.5146-7.85 7.85s3.5146 7.85 7.85 7.85 7.85-3.5146 7.85-7.85-3.5146-7.85-7.85-7.85ZM2.6499 12c0-5.1638 4.1861-9.35 9.35-9.35s9.35 4.1862 9.35 9.35c0 5.1639-4.1861 9.35-9.35 9.35s-9.35-4.1861-9.35-9.35Z"/>
</g></svg>