<svg xmlns="http://www.w3.org/2000/svg" data-laicon-version="15.0" viewBox="0 0 20 20" fill="black"><g transform="translate(-2 -2)">
  <path d="M10.5 3.2498c.3901 0 .7151.299.7474.6877l.0082.0973c.2535 3.042 2.6673 5.456 5.7093 5.7094l.0974.0082a.75.75 0 0 1 0 1.4948l-.0974.0081c-3.042.2535-5.4558 2.6674-5.7093 5.7094l-.0082.0974a.75.75 0 0 1-1.4948 0l-.0081-.0974c-.2535-3.042-2.6674-5.4559-5.7094-5.7094l-.0974-.0081a.75.75 0 0 1 0-1.4948l.0974-.0082C7.0771 9.4907 9.491 7.077 9.7445 4.035l.008-.0974a.75.75 0 0 1 .7475-.6877Zm0 3.628a7.7683 7.7683 0 0 1-3.622 3.622 7.7677 7.7677 0 0 1 3.622 3.622 7.7678 7.7678 0 0 1 3.622-3.622 7.7684 7.7684 0 0 1-3.622-3.622ZM17.8487 14.4707a.35.35 0 0 0-.6976 0l-.0199.2396c-.1075 1.2898-1.131 2.3132-2.4208 2.4207l-.2395.02a.35.35 0 0 0 0 .6976l.2395.0199c1.2898.1075 2.3133 1.131 2.4208 2.4208l.0199.2395a.35.35 0 0 0 .6976 0l.02-.2395c.1075-1.2898 1.1309-2.3133 2.4208-2.4208l.2395-.0199a.35.35 0 0 0 0-.6976l-.2395-.02c-1.2899-.1075-2.3133-1.1309-2.4208-2.4207l-.02-.2396Z"/>
</g></svg>