<svg xmlns="http://www.w3.org/2000/svg" data-laicon-version="15.0" viewBox="0 0 20 20" fill="black"><g transform="translate(-2 -2)">
  <path d="M12 21c-1.7 0-3.3-.1-4.9-.3-1.9-.2-3.5-1.8-3.7-3.7-.3-1.7-.4-3.3-.4-5 0-1.7.1-3.3.3-4.9.2-1.9 1.8-3.5 3.7-3.7 3.1999-.4 6.6999-.4 9.9 0 1.9.2 3.5 1.8 3.7 3.7.3 1.6.4 3.2.4 4.9 0 1.7-.0999 3.3-.2999 4.9-.2 1.9-1.8001 3.5-3.7001 3.7-1.7.2-3.3.4-5 .4Zm0-16.5c-1.6 0-3.2.1-4.8.3C6 5 5 6 4.8 7.2c-.2 1.6-.3 3.2-.3 4.8 0 1.6.1 3.2.3 4.8C5 18 6 19 7.2 19.2c3.0999.4 6.4001.4 9.5001 0 1.3-.2 2.3-1.2 2.5-2.4.2-1.6.2999-3.2.2999-4.8 0-1.6-.0999-3.2-.2999-4.8-.2-1.2-1.2002-2.2-2.4002-2.4-1.6-.2-3.1999-.3-4.7999-.3Z"/>
</g></svg>