<svg xmlns="http://www.w3.org/2000/svg" data-laicon-version="15.0" viewBox="0 0 20 20" fill="black"><g transform="translate(-2 -2)">
  <path d="M16.2502 4.3c0-.69.56-1.25 1.25-1.25h2c.69 0 1.25.56 1.25 1.25v2c0 .69-.56 1.25-1.25 1.25h-2c-.69 0-1.25-.56-1.25-1.25v-2Zm1.5.25v1.5h1.5v-1.5h-1.5Zm-14.3 4.65c0-.69.56-1.25 1.25-1.25h2.7c.69 0 1.25.56 1.25 1.25v2.45h2.45c.69 0 1.25.56 1.25 1.25v2.45h2.45c.69 0 1.25.56 1.25 1.25v2.7c0 .69-.56 1.25-1.25 1.25h-10.1c-.69 0-1.25-.56-1.25-1.25V9.2Zm7.4 7.65h-2.2v2.2h2.2v-2.2Zm0-1.5v-2.2h-2.2v2.2h2.2Zm1.5 3.7h2.2v-2.2h-2.2v2.2Zm-7.4-5.9v2.2h2.2v-2.2h-2.2Zm0 3.7v2.2h2.2v-2.2h-2.2Zm0-7.4v2.2h2.2v-2.2h-2.2Zm10.55-1.1c-.69 0-1.25.56-1.25 1.25v2c0 .69.56 1.25 1.25 1.25h2c.69 0 1.25-.56 1.25-1.25v-2c0-.69-.56-1.25-1.25-1.25h-2Zm.25 3v-1.5h1.5v1.5h-1.5Z"/>
</g></svg>