<svg xmlns="http://www.w3.org/2000/svg" data-laicon-version="17.6" viewBox="0 0 20 20" fill="black"><g transform="translate(-2 -2)">
  <path d="M9.8 9.698v4.604a.499.499 0 0 0 .747.431l3.963-2.29a.495.495 0 0 0 .002-.861L10.55 9.268a.499.499 0 0 0-.75.43Z"/>
  <path d="M4.9 3.25A1.65 1.65 0 0 0 3.25 4.9v14.2c0 .911.739 1.65 1.65 1.65h14.2a1.65 1.65 0 0 0 1.65-1.65V4.9a1.65 1.65 0 0 0-1.65-1.65H4.9ZM4.75 4.9a.15.15 0 0 1 .15-.15h14.2a.15.15 0 0 1 .15.15v14.2a.15.15 0 0 1-.15.15H4.9a.15.15 0 0 1-.15-.15V4.9Z"/>
  <path d="M9.8 9.698v4.604a.499.499 0 0 0 .747.431l3.963-2.29a.495.495 0 0 0 .002-.861L10.55 9.268a.499.499 0 0 0-.75.43Z"/>
  <path d="M4.9 3.25A1.65 1.65 0 0 0 3.25 4.9v14.2c0 .911.739 1.65 1.65 1.65h14.2a1.65 1.65 0 0 0 1.65-1.65V4.9a1.65 1.65 0 0 0-1.65-1.65H4.9ZM4.75 4.9a.15.15 0 0 1 .15-.15h14.2a.15.15 0 0 1 .15.15v14.2a.15.15 0 0 1-.15.15H4.9a.15.15 0 0 1-.15-.15V4.9Z"/>
</g></svg>