<svg xmlns="http://www.w3.org/2000/svg" data-laicon-version="15.0" viewBox="0 0 20 20" fill="black"><g transform="translate(-2 -2)">
  <path d="M3.25 5.4999c0-1.2427 1.0074-2.25 2.25-2.25h13c1.2427 0 2.25 1.0073 2.25 2.25v13c0 1.2426-1.0073 2.25-2.25 2.25h-13c-1.2426 0-2.25-1.0074-2.25-2.25v-13Zm2.25-.75a.75.75 0 0 0-.75.75v13a.75.75 0 0 0 .75.75h13a.75.75 0 0 0 .75-.75v-13a.75.75 0 0 0-.75-.75h-13Z"/>
  <path d="M3.25 5.4999c0-1.2427 1.0074-2.25 2.25-2.25h7.25v7.75c0 .9665-.7835 1.75-1.75 1.75H3.25v-7.25Zm2.25-.75a.75.75 0 0 0-.75.75v5.75H11a.25.25 0 0 0 .25-.25v-6.25H5.5Z"/>
</g></svg>