<svg xmlns="http://www.w3.org/2000/svg" data-laicon-version="15.0" viewBox="0 0 20 20" fill="black"><g transform="translate(-2 -2)">
  <path d="M19.1502 17.9002V5.9082h1.5v11.992c0 1.5192-1.2307 2.75-2.75 2.75H5.9082v-1.5h11.992c.6908 0 1.25-.5592 1.25-1.25Z"/>
  <path d="M4.8501 4.8501v11.638h11.638V4.8501H4.8501Zm-1.5-.25c0-.6904.5596-1.25 1.25-1.25h12.138c.6904 0 1.25.5596 1.25 1.25v12.138c0 .6904-.5596 1.25-1.25 1.25H4.6001c-.6904 0-1.25-.5596-1.25-1.25V4.6001Z"/>
  <path d="M19.1502 17.9002V5.9082h1.5v11.992c0 1.5192-1.2307 2.75-2.75 2.75H5.9082v-1.5h11.992c.6908 0 1.25-.5592 1.25-1.25Z"/>
  <path d="M4.8501 4.8501v11.638h11.638V4.8501H4.8501Zm-1.5-.25c0-.6904.5596-1.25 1.25-1.25h12.138c.6904 0 1.25.5596 1.25 1.25v12.138c0 .6904-.5596 1.25-1.25 1.25H4.6001c-.6904 0-1.25-.5596-1.25-1.25V4.6001Z"/>
</g></svg>