<svg xmlns="http://www.w3.org/2000/svg" data-laicon-version="15.0" viewBox="0 0 20 20" fill="black"><g transform="translate(-2 -2)">
  <path d="M3.25 8.4999c0-1.2427 1.0074-2.25 2.25-2.25h10c1.2427 0 2.25 1.0073 2.25 2.25v10c0 1.2426-1.0073 2.25-2.25 2.25h-10c-1.2426 0-2.25-1.0074-2.25-2.25v-10Zm2.25-.75a.75.75 0 0 0-.75.75v10a.75.75 0 0 0 .75.75h10a.75.75 0 0 0 .75-.75v-10a.75.75 0 0 0-.75-.75h-10Z"/>
  <path d="M16.5 4.2499h-2v-1.5h2c2.6234 0 4.75 2.1266 4.75 4.75v2h-1.5v-2c0-1.795-1.455-3.25-3.25-3.25Z"/>
  <path d="M13.1075 3.7346c-.1433-.1208-.1433-.3487 0-.4694l1.4211-1.1977c.1893-.1595.4714-.019.4714.2348v2.3952c0 .2538-.2821.3943-.4714.2347l-1.4211-1.1976Z"/>
</g></svg>