<svg xmlns="http://www.w3.org/2000/svg" data-laicon-version="15.0" viewBox="0 0 20 20" fill="black"><g transform="translate(-2 -2)">
  <path d="M5.2998 14.3771v3.9838a.334.334 0 0 0 .0862.2211c.0517.0565.0995.069.1283.069h4.1212c.0077.0001.0345.0004.0794-.0559.0539-.0673.0849-.1625.0849-.2342v-3.9944a.2636.2636 0 0 0-.0054-.0134.3897.3897 0 0 0-.0672-.1021c-.0604-.0669-.1245-.0969-.1996-.0969H5.5143c-.004 0-.0549.0028-.1325.0922a.4981.4981 0 0 0-.077.1191.3475.3475 0 0 0-.005.0117Zm-1.0509-1.1139c.2603-.2999.6917-.6091 1.2654-.6091h4.0133c.5776 0 1.0247.2729 1.3121.5908.2656.2936.4601.6987.4601 1.0924v4.0236c0 .4148-.1485.8397-.4132 1.1708-.2721.3404-.7026.6193-1.2517.6193H5.5143c-1.0089 0-1.7145-.889-1.7145-1.7901v-4.0236c0-.3946.2076-.7958.4491-1.0741Zm1.0509-7.6913v3.9838c0 .0817.0332.163.0862.221.0517.0566.0995.069.1283.069H9.635l.0006.0001c.0077 0 .0345.0003.0794-.056.0539-.0673.0849-.1625.0849-.2341V5.5613a.233.233 0 0 0-.0054-.0135.3914.3914 0 0 0-.0672-.102c-.0604-.067-.1245-.097-.1996-.097H5.5143c-.004 0-.0549.0028-.1325.0923a.4982.4982 0 0 0-.077.119.2951.2951 0 0 0-.005.0118Zm-1.0509-1.114c.2603-.2998.6917-.609 1.2654-.609h4.0133c.5776 0 1.0247.2728 1.3121.5907.2656.2937.4601.6988.4601 1.0924v4.0237c0 .4148-.1485.8396-.4132 1.1708-.2721.3404-.7026.6193-1.2517.6193H5.5143c-1.0089 0-1.7145-.889-1.7145-1.7901V5.532c0-.3945.2076-.7958.4491-1.074Zm9.9513 9.9192v3.9838c0 .0818.0331.1631.0862.2211.0517.0565.0995.069.1283.069h4.1212c.0077.0001.0345.0004.0794-.0559.0539-.0673.0849-.1625.0849-.2342v-3.9944a.3162.3162 0 0 0-.0054-.0134.3914.3914 0 0 0-.0672-.1021c-.0604-.0669-.1245-.0969-.1996-.0969h-4.0133c-.0041 0-.0549.0028-.1325.0922a.4986.4986 0 0 0-.0771.1191.2926.2926 0 0 0-.0049.0117Zm-1.0509-1.1139c.2603-.2999.6917-.6091 1.2654-.6091h4.0133c.5776 0 1.0247.2729 1.3121.5908.2656.2936.4601.6987.4601 1.0924v4.0236c0 .4148-.1485.8397-.4132 1.1708-.2721.3404-.7026.6193-1.2517.6193h-4.1206c-1.0089 0-1.7145-.889-1.7145-1.7901v-4.0236c0-.3946.2076-.7958.4491-1.0741Zm1.0509-7.6913v3.9838c0 .0817.0331.163.0862.221.0517.0566.0995.069.1283.069h4.1206a.012.012 0 0 1 .0006.0001c.0077 0 .0345.0003.0794-.056.0539-.0673.0849-.1625.0849-.2341V5.5613a.2728.2728 0 0 0-.0054-.0135.393.393 0 0 0-.0672-.102c-.0604-.067-.1245-.097-.1996-.097h-4.0133c-.0041 0-.0549.0028-.1325.0923a.4987.4987 0 0 0-.0771.119.2547.2547 0 0 0-.0049.0118Zm-1.0509-1.114c.2603-.2998.6917-.609 1.2654-.609h4.0133c.5776 0 1.0247.2728 1.3121.5907.2656.2937.4601.6988.4601 1.0924v4.0237c0 .4148-.1485.8396-.4132 1.1708-.2721.3404-.7026.6193-1.2517.6193h-4.1206c-1.0089 0-1.7145-.889-1.7145-1.7901V5.532c0-.3945.2076-.7958.4491-1.074Z"/>
</g></svg>