<svg xmlns="http://www.w3.org/2000/svg" data-laicon-version="17.1" viewBox="0 0 20 20" fill="black"><g transform="translate(-2 -2)">
  <path d="M4.75 3.5c-.69 0-1.25.56-1.25 1.25v5.5c0 .69.56 1.25 1.25 1.25h5.5c.69 0 1.25-.56 1.25-1.25v-5.5c0-.69-.56-1.25-1.25-1.25h-5.5ZM5 10V5h5v5H5Zm-.25 2.5c-.69 0-1.25.56-1.25 1.25v5.5c0 .69.56 1.25 1.25 1.25h5.5c.69 0 1.25-.56 1.25-1.25v-5.5c0-.69-.56-1.25-1.25-1.25h-5.5ZM5 19v-5h5v5H5Zm7.5-5.25c0-.69.56-1.25 1.25-1.25h5.5c.69 0 1.25.56 1.25 1.25v5.5c0 .69-.56 1.25-1.25 1.25h-5.5c-.69 0-1.25-.56-1.25-1.25v-5.5ZM14 14v5h5v-5h-5Zm3.25-7.25v-3h-1.5v3h-3v1.5h3v3h1.5v-3h3v-1.5h-3Z"/>
</g></svg>