<svg xmlns="http://www.w3.org/2000/svg" data-laicon-version="15.3" viewBox="0 0 20 20" fill="black"><g transform="translate(-2 -2)">
  <path d="M11.133 3.5a.95.95 0 0 1 1.734 0l2.138 4.764 5.192.561a.95.95 0 0 1 .536 1.649l-3.87 3.506 1.07 5.111a.95.95 0 0 1-1.403 1.02L12 17.512 7.47 20.11a.95.95 0 0 1-1.403-1.019l1.07-5.111-3.87-3.506a.95.95 0 0 1 .536-1.649l5.192-.561 2.138-4.765ZM12 5.231l-1.989 4.43-4.829.523 3.6 3.26-.996 4.754L12 15.783l4.213 2.416-.995-4.753 3.6-3.261-4.83-.522L12 5.232Z"/>
</g></svg>