<svg xmlns="http://www.w3.org/2000/svg" data-laicon-version="15.0" viewBox="0 0 20 20" fill="black"><g transform="translate(-2 -2)">
  <path d="M17.1648 13.9582 16.5 12.0454l-.6649 1.9128-2.0246.0415 1.6136 1.2233-.5863 1.9382L16.5 16.0045l1.6622 1.1567-.5864-1.9382 1.6136-1.2233-2.0246-.0415Z"/>
  <path d="M3.8501 5.6817v12.6365h16.3V5.6817h-16.3Zm-1.5-.25c0-.6892.5608-1.25 1.25-1.25h16.8c.6892 0 1.25.5608 1.25 1.25v13.1365c0 .6894-.5609 1.25-1.25 1.25h-16.8c-.6892 0-1.25-.5608-1.25-1.25V5.4317Z"/>
  <path d="M20.9001 9.1943h-17.8v-1.5h17.8v1.5Z"/>
</g></svg>