<svg xmlns="http://www.w3.org/2000/svg" data-laicon-version="15.0" viewBox="0 0 20 20" fill="black"><g transform="translate(-2 -2)">
  <path d="m20.2 9.99-.09-.05.0401.04c-2.63-.45-4.98-.75-5-.75-.25-.03-.4701-.19-.5801-.41 0 0-1.1199-2.25-2.2899-4.58-.12-.12-.3401-.12-.4601 0-1.1182 2.1236-2.1391 4.2648-2.2666 4.5322l-.0133.0279c-.11.23-.3401.39-.6001.42-.03 0-2.48.27-5.05.7399 0 .0025-.005.0095-.013.0205-.024.0329-.0745.1023-.097.1996-.02.08-.01.1399.03.1899 1.7009 1.7655 3.2991 3.2662 3.547 3.4989l.033.0312c.19.17.27.4299.23.6799 0 0-.45 2.6-.83 5.01.01.07.07.16.17.23.05.03.17.09.27.06 2.15-1.09 4.4401-2.3299 4.4401-2.3299.23-.12.4999-.12.7199 0 .0046 0 .0995.0513.2652.141.1999.1081.503.2721.8749.469V19.86l-.3963-.2104c-.4622-.2452-.8446-.4482-1.1037-.5895-.74.4-2.4901 1.33-4.2001 2.2-.24.09-.47.13-.69.13-.38 0-.73-.12-1.04-.34-.52-.36-.82-.91-.82-1.49V19.44c.2387-1.5388.518-3.1791.6874-4.1744.0365-.214.068-.3987.0927-.5456-.58-.55-1.9301-1.85-3.3701-3.34-.42-.5-.54-1.1299-.33-1.74.2-.6.68-1.05 1.23-1.16 2-.36 3.93-.61 4.75-.71.36-.76 1.22-2.54 2.15-4.3.007-.021.0189-.037.0323-.0551a.538.538 0 0 0 .0178-.0248c.66-.94 2.2999-.94 2.9599 0l.0601.09c.4052.8103.8043 1.6126 1.1544 2.3164.4275.8595.7821 1.5722.9855 1.9736.79.1 2.64.36 4.66.7.56.08 1.01.4399 1.24.9699.25.58.2 1.33-.11 1.77a.6468.6468 0 0 0-.04.045.6004.6004 0 0 1-.0399.0451c-.69.7-1.3401 1.3499-1.9001 1.8999h-2.15c.66-.64 1.72-1.68 2.9-2.88 0-.05 0-.23-.06-.33Z"/>
  <path d="M15 14.5h7V16h-7v-1.5Zm7 3h-7V19h7v-1.5Zm-7 3h7V22h-7v-1.5Z"/>
</g></svg>