<svg xmlns="http://www.w3.org/2000/svg" data-laicon-version="15.0" viewBox="0 0 20 20" fill="black"><g transform="translate(-2 -2)">
  <path d="M6.6558 19.4761h-.0001 10.6889V9.6382h1.5v10.1003c0 .6835-.5541 1.2376-1.2376 1.2376H6.3934c-.6836 0-1.2376-.5541-1.2376-1.2376V9.6381h1.5v9.838Z"/>
  <path d="M5.0498 4.7556v4.1326h13.9V4.7556h-13.9Zm-1.5-.25c0-.6903.5597-1.25 1.25-1.25h14.4c.6903 0 1.25.5597 1.25 1.25v4.6326c0 .6905-.5598 1.25-1.25 1.25h-14.4c-.6903 0-1.25-.5597-1.25-1.25V4.5056Z"/>
  <path d="M8.6831 9.631V4.0128h1.5V9.631h-1.5Zm5.1338 0V4.0128h1.5V9.631h-1.5ZM11.25 20.2261v-4.268h1.5v4.268h-1.5Z"/>
</g></svg>