<svg xmlns="http://www.w3.org/2000/svg" data-laicon-version="15.0" viewBox="0 0 20 20" fill="black"><g transform="translate(-2 -2)">
  <path d="M8.212 4.0222a.75.75 0 0 1 .75-.75h6.0759a.75.75 0 0 1 .75.75v2.7181h-1.5v-1.968h-4.576v1.968h-1.5v-2.718ZM6.5205 21.2005V19.94h1.5v1.2605h-1.5Zm10.959-1.2605v1.2605h-1.5V19.94h1.5Z"/>
  <path d="M5.9888 7.6506c-.6904 0-1.25.5596-1.25 1.25v8.4477c0 .6904.5596 1.25 1.25 1.25H18.011c.6904 0 1.25-.5597 1.25-1.25V8.9006c0-.6904-.5596-1.25-1.25-1.25H5.9888Zm-2.75 1.25c0-1.5188 1.2312-2.75 2.75-2.75H18.011c1.5188 0 2.75 1.2312 2.75 2.75v8.4477c0 1.5187-1.2312 2.75-2.75 2.75H5.9888c-1.5188 0-2.75-1.2312-2.75-2.75V8.9006ZM16.4684 4.75H7.5313v-1.5h8.9371v1.5Z"/>
</g></svg>