<svg xmlns="http://www.w3.org/2000/svg" data-laicon-version="15.0" viewBox="0 0 20 20" fill="black"><g transform="translate(-2 -2)">
  <path d="M11.25 5V2h1.5v3h-1.5Zm0 17v-3h1.5v3h-1.5ZM6.5198 7.5806 4.3984 5.4593l1.0607-1.0607L7.5804 6.52 6.5198 7.5806Zm12.0209 12.0208-2.1213-2.1213 1.0607-1.0607 2.1213 2.1213-1.0607 1.0607ZM5 12.7498H2v-1.5h3v1.5Zm17 .0001h-3v-1.5h3v1.5ZM7.5804 17.4801l-2.1213 2.1213-1.0607-1.0606 2.1214-2.1213 1.0606 1.0606Zm12.021-12.0209L17.48 7.5805 16.4194 6.52l2.1213-2.1213 1.0607 1.0606Zm-7.6015 2.4407c-2.2644 0-4.1 1.8356-4.1 4.1 0 2.2644 1.8356 4.1 4.1 4.1 2.2644 0 4.1-1.8356 4.1-4.1 0-2.2644-1.8356-4.1-4.1-4.1Zm-5.6 4.1c0-3.0928 2.5072-5.6 5.6-5.6 3.0928 0 5.6 2.5072 5.6 5.6 0 3.0928-2.5072 5.6-5.6 5.6-3.0928 0-5.6-2.5072-5.6-5.6Z"/>
</g></svg>