<svg xmlns="http://www.w3.org/2000/svg" data-laicon-version="15.0" viewBox="0 0 20 20" fill="black"><g transform="translate(-2 -2)">
  <path d="m3.0768 7.6905 1.049.4891c1.4184-2.9181 4.4113-4.9295 7.874-4.9295 4.2332 0 7.7642 3.006 8.575 6.9998h-1.5376c-.783-3.1585-3.6367-5.4998-7.0374-5.4998-2.8609 0-5.3347 1.657-6.5141 4.0637l1.0174.4744c.3134.1462.3035.5952-.0161.7273l-2.5838 1.0682a.3973.3973 0 0 1-.5307-.2474L2.53 8.1703c-.1042-.3297.2334-.626.5468-.4798ZM4.9624 13.75H3.4248c.8107 3.994 4.3418 7.0002 8.575 7.0002 3.4614 0 6.4533-2.0098 7.8725-4.9261l1.0488.4891c.3134.1461.651-.1501.5468-.4798l-.8425-2.666a.3974.3974 0 0 0-.5307-.2475l-2.5838 1.0683c-.3195.1321-.3295.5811-.0161.7273l1.0175.4744c-1.1801 2.4048-3.6529 4.0603-6.5125 4.0603-3.4007 0-6.2546-2.3415-7.0374-5.5002Z"/>
</g></svg>