<svg xmlns="http://www.w3.org/2000/svg" data-laicon-version="15.0" viewBox="0 0 20 20" fill="black"><g transform="translate(-2 -2)">
  <path d="M11.913 3.962c-2.466 0-4.745 1.108-6.227 3.059l1.274.968c1.173-1.543 2.975-2.427 4.953-2.427 2.978 0 5.526 2.149 6.074 5.2h-2.111l3.003 4.097 2.997-4.097h-2.268c-.57-3.925-3.81-6.8-7.695-6.8Zm.194 16.076c2.466 0 4.745-1.108 6.227-3.059l-1.274-.968c-1.172 1.543-2.975 2.427-4.953 2.427-2.996 0-5.544-2.068-6.08-5.198h2.097L5.127 9.144 2.124 13.24h2.285c.558 4.024 3.813 6.798 7.698 6.798Z"/>
</g></svg>