<svg xmlns="http://www.w3.org/2000/svg" data-laicon-version="15.0" viewBox="0 0 20 20" fill="black"><g transform="translate(-2 -2)">
  <path d="M17.9504 4.2784c-.1057-.1142-.3078-.2423-.7118-.2423H6.7156c-.3326 0-.55.0927-.6703.1941-.1062.0895-.1879.2256-.1879.4608v14.6477c0 .2086.256.6252.8583.6252h10.3628c.471 0 .7435-.1114.8806-.2177.1151-.0892.1832-.2086.1832-.4075V4.8332c0-.235-.0746-.428-.1919-.5548Zm1.101-1.0187c.4193.4532.5909 1.0337.5909 1.5735v14.5055c0 .635-.2613 1.2032-.7643 1.5931-.481.3728-1.1153.5321-1.7995.5321H6.7157c-1.2913 0-2.3583-.9554-2.3583-2.1252V4.691c0-.6498.2564-1.216.7214-1.6079.4507-.3797 1.0375-.547 1.6369-.547h10.5229c.7574 0 1.3821.258 1.8128.7236Z"/>
  <path d="M11.8941 17.6164a.775.775 0 1 0 0 1.55.775.775 0 0 0 0-1.55Z"/>
</g></svg>