<svg xmlns="http://www.w3.org/2000/svg" data-laicon-version="15.0" viewBox="0 0 20 20" fill="black"><g transform="translate(-2 -2)">
  <path d="M3.9783 5.786c-.0187.0574-.0438.1803-.0438.4088v11.489c0 .2205.0105.3708.029.4753a.7511.7511 0 0 0 .014.0649c.0412.0085.1136.0179.2304.0179h15.6508c.0746 0 .1176-.0077.1385-.013.0081-.0167.0212-.0494.0343-.1055.0221-.0954.0387-.2367.0387-.4396V6.5433c0-.2828-.0102-.486-.031-.6349a1.1312 1.1312 0 0 0-.0277-.1422 1.1458 1.1458 0 0 0-.1528-.0086H4.4583c-.1988 0-.3275.0042-.4251.0183a.664.664 0 0 0-.055.01Zm-.174-1.5937c.2245-.0324.4584-.0347.654-.0347h15.4004c.5421 0 1.1546.1362 1.513.7438.1486.2518.2163.5295.2521.7853.0362.259.0464.5492.0464.8566v11.1405c0 .5349-.0787 1.0931-.4045 1.5241-.3673.486-.9041.634-1.407.634H4.2079c-.5451 0-1.1472-.1215-1.5279-.6603-.319-.4515-.3455-1.0363-.3455-1.4978V6.1948c0-.6753.1477-1.3312.7105-1.7211.2554-.177.5305-.2483.7592-.2814Z"/>
  <path d="M11.2002 19.0029V8.177h1.6v10.8259h-1.6Z"/>
  <path d="M20.8452 14.2603H3.1519v-1.6h17.6933v1.6Zm0-5.2833H3.1519v-1.6h17.6933v1.6Z"/>
</g></svg>