<svg xmlns="http://www.w3.org/2000/svg" data-laicon-version="15.0" viewBox="0 0 20 20" fill="black"><g transform="translate(-2 -2)">
  <path d="M18.9003 19.5h-13.8c-.8 0-1.9-.5-2.5-2.7-.3-1.1-.3-2.3-.3-2.3 0-5.3 4.3-9.7 9.7-9.7 5.3 0 9.7001 4.3 9.7001 9.7 0 .5-.1001 5-2.8001 5Zm-6.9-13.2c-4.5 0-8.2 3.7-8.2 8.2 0 1.2.4 3.6 1.2 3.6h13.9c.9 0 1.2-2.3 1.2-3.6.1-4.5-3.6-8.2-8.1-8.2Z"/>
  <path d="m16.8151 8.7203 1.0606 1.0607-4.1011 4.1012-1.0607-1.0607 4.1012-4.1012ZM5.2 13.6c.4 0 .7.3.7.7 0 .4-.3.7-.7.7-.4 0-.7-.3-.7-.7 0-.4.3-.7.7-.7Zm6.7998-6.7c.4 0 .7.4.7.7 0 .4-.3.7-.7.7-.4 0-.7-.3-.7-.7 0-.4.3-.7.7-.7Zm6.8003 6.7c.4 0 .8.3.7.7 0 .4-.3.7-.7.7-.4 0-.7-.3-.7-.7 0-.4.3-.7.7-.7Z"/>
  <path d="M11.9999 17.5c-1.5 0-2.6-1.2-2.6-2.6 0-1.5 1.2-2.6 2.6-2.6 1.4 0 2.6 1.2 2.6 2.6 0 1.4-1.1 2.6-2.6 2.6Zm0-3.8c-.6 0-1.1.5-1.1 1.1 0 .6.5 1.1 1.1 1.1.6 0 1.1-.5 1.1-1.1 0-.6-.5-1.1-1.1-1.1Z"/>
</g></svg>