<svg xmlns="http://www.w3.org/2000/svg" data-laicon-version="15.0" viewBox="0 0 20 20" fill="black"><g transform="translate(-2 -2)">
  <path d="M12.0002 5.3587c-3.6679 0-6.6413 2.9734-6.6413 6.6413 0 3.6679 2.9734 6.6413 6.6413 6.6413 3.6679 0 6.6413-2.9734 6.6413-6.6413 0-3.6679-2.9734-6.6413-6.6413-6.6413ZM3.8589 12c0-4.4963 3.645-8.1413 8.1413-8.1413S20.1415 7.5037 20.1415 12s-3.645 8.1413-8.1413 8.1413S3.8589 16.4963 3.8589 12Z"/>
  <path d="M12.75 2v2.6087h-1.5V2h1.5ZM2 11.25h2.6087v1.5H2v-1.5ZM11.25 22v-2.6087h1.5V22h-1.5Zm10.7498-9.25h-2.6087v-1.5h2.6087v1.5ZM12.0002 12.55a.55.55 0 1 0 0-1.1.55.55 0 0 0 0 1.1Z"/>
  <path d="M12.0002 10.7c-.7179 0-1.3.5821-1.3 1.3 0 .7179.5821 1.3 1.3 1.3.7179 0 1.3-.5821 1.3-1.3 0-.7179-.5821-1.3-1.3-1.3Z"/>
</g></svg>