<svg xmlns="http://www.w3.org/2000/svg" data-laicon-version="15.0" viewBox="0 0 20 20" fill="black"><g transform="translate(-2 -2)">
  <path d="M18.7511 5.25h-2.0817v-1.5h2.3168c.6986 0 1.2649.5663 1.2649 1.2649v2.3168h-1.5V5.25Zm-13.5001 0h2.0817v-1.5H5.0159c-.6986 0-1.265.5663-1.265 1.2649v2.3168h1.5V5.25Zm0 13.5v-2.0817h-1.5v2.3168c0 .6986.5663 1.2649 1.2649 1.2649h2.3168v-1.5H5.251Zm13.5001 0v-2.0817h1.5v2.3168c0 .6986-.5663 1.2649-1.2649 1.2649h-2.3168v-1.5h2.0817ZM8.102 8.0422h7.7245v2.2904h-1.5v-.7904H9.6021v.7904h-1.5V8.0422Z"/>
  <path d="M11.2139 15.5515V8.7922h1.5v6.7593h-1.5Z"/>
  <path d="M13.3172 16.3015h-2.678v-1.5h2.678v1.5Z"/>
</g></svg>