<svg xmlns="http://www.w3.org/2000/svg" data-laicon-version="15.0" viewBox="0 0 20 20" fill="black"><g transform="translate(-2 -2)">
  <path d="M11.9999 4.15c-4.3354 0-7.85 3.5146-7.85 7.85s3.5146 7.85 7.85 7.85 7.85-3.5146 7.85-7.85-3.5146-7.85-7.85-7.85ZM2.6499 12c0-5.1638 4.1861-9.35 9.35-9.35s9.35 4.1862 9.35 9.35c0 5.1639-4.1861 9.35-9.35 9.35s-9.35-4.1861-9.35-9.35Z"/>
  <path d="M11.5688 16.6V7.4h1.2v9.2h-1.2Z"/>
  <path d="M9.1938 8.2782h3.6922c1.2348 0 2.2359 1.0011 2.2359 2.236 0 .4754-.1484.9161-.4014 1.2784.475.41.7757 1.0165.7757 1.6932 0 1.2349-1.0011 2.236-2.2359 2.236H9.1938V8.2782Zm1.5 4.4718v1.4718h2.5665a.736.736 0 0 0 0-1.4718h-2.5665Zm0-1.5h2.1922a.736.736 0 0 0 0-1.4718h-2.1922V11.25Z"/>
</g></svg>