<svg xmlns="http://www.w3.org/2000/svg" data-laicon-version="15.0" viewBox="0 0 20 20" fill="black"><g transform="translate(-2 -2)">
  <path d="M10.6675 16.15v-8.3h1.2v8.3h-1.2Z"/>
  <path d="M8.5146 8.5754h3.398c1.1528 0 2.0873.9345 2.0873 2.0873 0 .4199-.124.8109-.3374 1.1383.4145.3815.6742.9285.6742 1.5362 0 1.1529-.9345 2.0873-2.0873 2.0873H8.5146V8.5754Zm3.4089 2.6745a.5873.5873 0 0 0-.0109-1.1745h-1.898v1.1745h1.9089ZM10.0146 12.75v1.1745h2.2348a.5872.5872 0 1 0 0-1.1746h-.3162a1.4077 1.4077 0 0 1-.0206.0001h-1.898Z"/>
  <path d="M11.2023 4.1703C6.878 4.1703 3.3726 7.6758 3.3726 12c0 4.3242 3.5054 7.8297 7.8297 7.8297 1.623 0 3.1285-.493 4.3779-1.3372l.8398 1.2428c-1.4896 1.0066-3.2861 1.5944-5.2177 1.5944-5.1527 0-9.3297-4.177-9.3297-9.3297 0-5.1527 4.177-9.3297 9.3297-9.3297 5.1527 0 9.3297 4.177 9.3297 9.3297 0 1.1462-.2071 2.2458-.5865 3.2623l-1.4053-.5246c.3178-.8511.4918-1.7732.4918-2.7377 0-4.3242-3.5055-7.8297-7.8297-7.8297Z"/>
  <path d="M14.5728 17.5524c0-2.0861 1.6912-3.7773 3.7773-3.7773 2.0862 0 3.7773 1.6912 3.7773 3.7773 0 2.0862-1.6911 3.7773-3.7773 3.7773-2.0861 0-3.7773-1.6911-3.7773-3.7773Zm1.5802.45h2.8138l-1.06 1.0599.6364.6364 2.1464-2.1463-2.1464-2.1464-.6364.6364 1.06 1.06H16.153v.9Z"/>
</g></svg>