<svg xmlns="http://www.w3.org/2000/svg" data-laicon-version="15.0" viewBox="0 0 20 20" fill="black"><g transform="translate(-2 -2)">
  <path d="M3.0337 11.1846a.75.75 0 0 1 .75-.75H7.988a.75.75 0 0 1 .75.75v9.0206a.75.75 0 0 1-.75.75H3.7837a.75.75 0 0 1-.75-.75v-9.0206Zm1.5.75v7.5206H7.238v-7.5206H4.5337Z"/>
  <path d="M10.9465 3.643c.1627-.7026.7871-1.1876 1.4983-1.1876h.4302c1.2859 0 2.3285 1.0423 2.3285 2.3284v4.0724h3.9441c1.4225 0 2.5126 1.2644 2.303 2.6715l-1.1082 7.4422c-.1699 1.1408-1.1495 1.9854-2.3031 1.9854H7.9879v-1.5h10.0514a.8284.8284 0 0 0 .8194-.7064l1.1083-7.4422c.0746-.5005-.3133-.9505-.8194-.9505h-5.4441V4.7838a.8284.8284 0 0 0-.8285-.8284h-.4302a.0406.0406 0 0 0-.026.0082.0292.0292 0 0 0-.0109.0177c-.1926.8321-.5882 2.1802-1.2159 3.6038-.6249 1.417-1.5007 2.9569-2.6738 4.13l-1.0607-1.0606c.9894-.9894 1.7747-2.3427 2.362-3.6747.5845-1.3255.9524-2.5825 1.127-3.3368Z"/>
</g></svg>