<svg xmlns="http://www.w3.org/2000/svg" data-laicon-version="18.9" viewBox="0 0 20 20" fill="black"><g transform="translate(-2 -2)">
  <path d="M12.874 21.75a2.329 2.329 0 0 0 2.33-2.328v-4.073h3.944a2.329 2.329 0 0 0 2.303-2.671l-1.109-7.443A2.328 2.328 0 0 0 18.04 3.25H3.784a.75.75 0 0 0-.75.75v9.02c0 .415.335.75.75.75h3.884c.891.965 1.607 2.22 2.152 3.455a19.747 19.747 0 0 1 1.127 3.337 1.534 1.534 0 0 0 1.498 1.188h.43Zm-.456-1.508a.031.031 0 0 1-.01-.019 21.235 21.235 0 0 0-1.216-3.603c-.585-1.327-1.39-2.761-2.454-3.901v-7.97h9.302a.83.83 0 0 1 .819.707l1.108 7.442a.83.83 0 0 1-.82.951h-5.443v5.573a.829.829 0 0 1-.83.828h-.43a.042.042 0 0 1-.026-.008ZM4.534 4.75h2.704v7.52H4.534V4.75Z"/>
</g></svg>