<svg xmlns="http://www.w3.org/2000/svg" data-laicon-version="15.0" viewBox="0 0 20 20" fill="black"><g transform="translate(-2 -2)">
  <path d="M12 7c-3.5899 0-6.5 2.9101-6.5 6.5S8.4101 20 12 20s6.5-2.9101 6.5-6.5S15.5899 7 12 7Zm-8 6.5c0-4.4183 3.5817-8 8-8s8 3.5817 8 8-3.5817 8-8 8-8-3.5817-8-8Zm11-9.25H9v-1.5h6v1.5Z"/>
  <path d="M9.6761 11.763c.3095-1.0608 1.1462-1.721 2.2636-1.721 1.2407 0 2.1995.7395 2.1995 1.7915 0 .5865-.3139 1.081-.8369 1.3896.2745.1241.5033.2976.6727.5183.2112.2751.3257.6179.3257 1.0161 0 .5866-.2429 1.0804-.6635 1.4256-.4189.3439-1.0082.5359-1.6975.5359-1.1583 0-2.0047-.6586-2.3146-1.721l-.0018-.0063c-.0123-.0555-.0093-.1156.0253-.1675.0334-.0501.085-.075.1324-.087l.8594-.2297c.0499-.0125.1061-.013.1578.0165.0502.0288.0789.0761.0961.1219.0844.2292.2089.4162.3773.5454.1676.1286.3857.2057.6681.2057.3097 0 .5526-.0844.7163-.2229.162-.137.2547-.3336.2547-.5781 0-.2405-.0977-.4203-.2696-.5435-.176-.1261-.4377-.198-.7694-.198h-.2635c-.0551 0-.1101-.0176-.1515-.059-.0414-.0414-.059-.0964-.059-.1515v-.7565c0-.0551.0176-.1101.059-.1515.0414-.0414.0964-.059.1515-.059h.2635c.2728 0 .4947-.0703.6456-.1831.149-.1112.2319-.2652.2319-.4479 0-.3796-.3292-.682-.835-.682-.4823 0-.8003.2935-.9687.7506-.0172.0458-.0461.0936-.0963.1223-.0517.0296-.1079.0291-.1578.0166l-.0016-.0004-.8578-.2293c-.0475-.012-.099-.0369-.1324-.087-.0346-.0519-.0374-.1119-.025-.1675l.0015-.0063Z"/>
</g></svg>