<svg xmlns="http://www.w3.org/2000/svg" data-laicon-version="15.0" viewBox="0 0 20 20" fill="black"><g transform="translate(-2 -2)">
  <path d="M12.0034 4.75c-4.004 0-7.25 3.246-7.25 7.25 0 4.0041 3.246 7.25 7.25 7.25 4.0041 0 7.25-3.2459 7.25-7.25 0-4.004-3.2459-7.25-7.25-7.25ZM3.2534 12c0-4.8325 3.9175-8.75 8.75-8.75s8.75 3.9175 8.75 8.75-3.9175 8.75-8.75 8.75-8.75-3.9175-8.75-8.75Z"/>
  <path d="m8.7197 14.2197 5.5-5.5 1.0606 1.0606-5.5 5.5-1.0606-1.0606Z"/>
  <path d="m14.2197 15.2803-5.5-5.5 1.0607-1.0606 5.4999 5.5-1.0606 1.0606Z"/>
</g></svg>