<svg xmlns="http://www.w3.org/2000/svg" data-laicon-version="15.0" viewBox="0 0 20 20" fill="black"><g transform="translate(-2 -2)">
  <path d="M12 7c-3.5899 0-6.5 2.9101-6.5 6.5S8.4101 20 12 20s6.5-2.9101 6.5-6.5S15.5899 7 12 7Zm-8 6.5c0-4.4183 3.5817-8 8-8s8 3.5817 8 8-3.5817 8-8 8-8-3.5817-8-8Zm11-9.25H9v-1.5h6v1.5Z"/>
  <path d="M11.9676 10.9397c.4342-.5824 1.0682-.8977 1.8545-.8977.7904 0 1.4265.3151 1.8619.8976.4327.5787.6606 1.4121.6606 2.4409 0 1.0288-.2279 1.8622-.6606 2.4409-.4354.5824-1.0715.8976-1.8619.8976-.7863 0-1.4203-.3153-1.8545-.8977-.4316-.5787-.6595-1.412-.6595-2.4408s.2279-1.8622.6595-2.4408Zm-2.7495-.7014c.067-.0653.1382-.0773.2037-.0773h.663c.0551 0 .11.0176.1514.059.0414.0414.0591.0964.0591.1515v6.018c0 .0551-.0177.1101-.0591.1515-.0414.0414-.0963.059-.1514.059h-.9265c-.0551 0-.1101-.0176-.1515-.059-.0414-.0414-.059-.0964-.059-.1515v-4.4514l-1.0011.3959c-.0463.0195-.1014.0274-.1562.0059-.0542-.0212-.091-.0643-.1151-.1121l-.1648-.3123c-.0183-.0426-.028-.0917-.0174-.1428.0108-.0518.0403-.0937.079-.1261l1.6459-1.4083Zm3.7938 1.5939c-.1977.326-.3138.8338-.3138 1.5483s.1161 1.2223.3138 1.5482c.1937.3193.4677.4683.8102.4683.3472 0 .6232-.1494.8178-.4684.1986-.3259.3147-.8336.3147-1.5481 0-.7146-.1161-1.2222-.3147-1.5481-.1946-.319-.4706-.4684-.8178-.4684-.3425 0-.6165.149-.8102.4682Z"/>
</g></svg>