<svg xmlns="http://www.w3.org/2000/svg" data-laicon-version="15.0" viewBox="0 0 20 20" fill="black"><g transform="translate(-2 -2)">
  <path d="M4.1499 4.25c0-1.2426 1.0074-2.25 2.25-2.25h7.4c1.2426 0 2.25 1.0074 2.25 2.25v7.8h-1.5v-7.8a.75.75 0 0 0-.75-.75h-7.4a.75.75 0 0 0-.75.75v13.8a.75.75 0 0 0 .75.75H10.5v1.5H6.3999c-1.2426 0-2.25-1.0073-2.25-2.25V4.25Z"/>
  <path d="M15 6H5V4.5h10V6Zm-5 11.8H5v-1.5h5v1.5Z"/>
  <path d="M14.3998 12.6c-2.1816 0-3.95 1.7685-3.95 3.95s1.7684 3.95 3.95 3.95c2.1815 0 3.95-1.7685 3.95-3.95s-1.7685-3.95-3.95-3.95Zm-5.45 3.95c0-3.01 2.44-5.45 5.45-5.45 3.0099 0 5.45 2.44 5.45 5.45 0 3.01-2.4401 5.45-5.45 5.45-3.01 0-5.45-2.44-5.45-5.45Z"/>
  <path d="M12.75 14.3h1.95c.7455 0 1.35.6044 1.35 1.35S15.4455 17 14.7 17h-1.95v-2.7Zm.9.9v.9h1.05a.45.45 0 1 0 0-.9h-1.05Z"/>
  <path d="M12.75 16.1h2.15c.7455 0 1.35.6044 1.35 1.35s-.6045 1.35-1.35 1.35h-2.15v-2.7Zm.9.9v.9h1.25a.45.45 0 0 0 0-.9h-1.25Z"/>
  <path d="M13.9497 19.25v-5.4h.9v5.4h-.9Z"/>
</g></svg>