<svg xmlns="http://www.w3.org/2000/svg" data-laicon-version="15.0" viewBox="0 0 20 20" fill="black"><g transform="translate(-2 -2)">
  <path d="M15.7698 14.8916c-.5686 0-1.0296.461-1.0296 1.0296s.461 1.0295 1.0296 1.0295 1.0296-.4609 1.0296-1.0295c0-.5686-.461-1.0296-1.0296-1.0296Zm-7.54.0026c-.5684 0-1.0296.4595-1.0296 1.027 0 .5675.4613 1.0269 1.0296 1.0269.5684 0 1.0296-.4595 1.0296-1.0269 0-.5674-.4613-1.027-1.0296-1.027Z"/>
  <path d="M5.75 4.05v14.1782h12.5002V4.05H5.75Zm-1.5-.25c0-.6902.5595-1.25 1.25-1.25h13.0002c.6905 0 1.25.5598 1.25 1.25v14.6782c0 .6904-.5596 1.25-1.25 1.25H5.5c-.6904 0-1.25-.5596-1.25-1.25V3.8Z"/>
  <path d="M6.957 21.7218V19h1.5v2.7218h-1.5Zm8.586 0V19h1.5v2.7218h-1.5Zm3.4572-8.1077H5v-1.5h14.0002v1.5Z"/>
</g></svg>