<svg xmlns="http://www.w3.org/2000/svg" data-laicon-version="15.0" viewBox="0 0 20 20" fill="black"><g transform="translate(-2 -2)">
  <path d="M20.1001 7.0177h-17v-1.5h17v1.5Z"/>
  <path d="m18.6122 6.2921-.4244 13.0472c-.0308.9437-.8047 1.6931-1.7491 1.6931H6.7608c-.9444 0-1.7184-.7493-1.7491-1.6931L4.5874 6.2921l1.4992-.0487.4243 13.0471a.25.25 0 0 0 .25.2419h9.6778a.2501.2501 0 0 0 .2499-.242l.4244-13.047 1.4992.0487Z"/>
  <path d="M9.06 16.4675V9.6676h1.5001v6.7999h-1.5Zm3.5796 0V9.6676h1.5v6.7999h-1.5ZM9.0747 4.4676a.25.25 0 0 0-.25.25v1.55h-1.5v-1.55c0-.9665.7835-1.75 1.75-1.75h5.0529c.9665 0 1.75.7835 1.75 1.75v1.55h-1.5v-1.55a.25.25 0 0 0-.25-.25H9.0747Z"/>
</g></svg>