<svg xmlns="http://www.w3.org/2000/svg" data-laicon-version="15.0" viewBox="0 0 20 20" fill="black"><g transform="translate(-2 -2)">
  <path d="M18.7098 8.13a7.8357 7.8357 0 0 0-2.83-2.83 7.7702 7.7702 0 0 0-3.87-1.04V2.01l-4 3 4 3V5.76c1.09 0 2.17.29 3.12.84.95.55 1.74 1.34 2.29 2.29s.84 2.03.84 3.12c0 1.09-.29 2.17-.84 3.12-.55.95-1.34 1.74-2.29 2.29-1.9 1.1-4.34 1.1-6.24 0a6.2853 6.2853 0 0 1-2.29-2.29c-.55-.95-.84-2.03-.84-3.12 0-1.09.29-2.17.84-3.12l-1.3-.75a7.77 7.77 0 0 0-1.04 3.87c0 1.35.36 2.69 1.04 3.87a7.8349 7.8349 0 0 0 2.83 2.83 7.7694 7.7694 0 0 0 3.87 1.04c1.35 0 2.69-.36 3.87-1.04a7.8357 7.8357 0 0 0 2.83-2.83 7.7715 7.7715 0 0 0 1.04-3.87c0-1.35-.36-2.69-1.04-3.87l.01-.01Z"/>
</g></svg>