<svg xmlns="http://www.w3.org/2000/svg" data-laicon-version="15.0" viewBox="0 0 20 20" fill="black"><g transform="translate(-2 -2)">
  <path d="M4.1475 9.747a.25.25 0 0 0-.25.25v9.7177a.25.25 0 0 0 .25.25h12.9999a.25.25 0 0 0 .25-.25V9.997a.25.25 0 0 0-.25-.25h-13Zm-1.75.25c0-.9665.7834-1.75 1.75-1.75h12.9999c.9665 0 1.75.7835 1.75 1.75v9.7177c0 .9665-.7835 1.75-1.75 1.75h-13c-.9665 0-1.75-.7835-1.75-1.75V9.997Z"/>
  <path d="M12.6079 7.0326c0-2.4839 2.0136-4.4973 4.4974-4.4973s4.4974 2.0134 4.4974 4.4973V8.997h-1.5V7.0326c0-1.6554-1.342-2.9973-2.9974-2.9973-1.6554 0-2.9974 1.342-2.9974 2.9973V8.997h-1.5V7.0326ZM9.3691 13.8025c0-.7061.5724-1.2785 1.2785-1.2785s1.2785.5724 1.2785 1.2785c0 .4259-.2083.8032-.5285 1.0356v2.1589h-1.5v-2.159a1.2769 1.2769 0 0 1-.5285-1.0355Z"/>
</g></svg>