<svg xmlns="http://www.w3.org/2000/svg" data-laicon-version="15.0" viewBox="0 0 20 20" fill="black"><g transform="translate(-2 -2)">
  <path d="M10.1203 10.64c.03.16.35.4401 1.17.5401h-.02c2.11.25 2.43 1.4599 2.48 1.8299.11.83-.4101 1.63-1.3001 1.99-.18.07-.3499.11-.5199.15v1.07h-1.5v-1.08c-.84-.21-1.47-.73-1.77-1.12l.59-.4599.59-.4701.0063.007c.115.1289.878.9833 2.0537.513.25-.1.38-.28.37-.4-.02-.16-.3501-.4399-1.1701-.5399-2.1-.25-2.4199-1.4601-2.4699-1.8301-.11-.83.41-1.63 1.29-1.99.18-.07.3499-.11.5199-.15V7.64h1.5v1.08c.84.22 1.47.73 1.77 1.12l-1.1799.92c-.08-.1-.8501-1-2.0501-.52-.24.1-.3799.28-.3599.4Z"/>
  <path d="M20.5302 12c0 .78-.1001 1.5501-.2901 2.3001 1.12.65 1.89 1.86 1.89 3.25 0 2.09-1.69 3.7799-3.78 3.7799-1.07 0-2.02-.4399-2.71-1.1499-1.36.74-2.87 1.1499-4.44 1.1499-5.14 0-9.33-4.19-9.33-9.33s4.19-9.33 9.33-9.33 9.3301 4.19 9.3301 9.33Zm-17.16 0c0 4.32 3.5099 7.83 7.8299 7.83 1.28 0 2.51-.3199 3.63-.9099-.16-.43-.26-.89-.26-1.37 0-2.08 1.69-3.77 3.78-3.77.1216 0 .2375.0172.352.0343.0361.0054.0721.0108.1081.0156.14-.6.22-1.21.22-1.83 0-4.32-3.5101-7.83-7.8301-7.83s-7.83 3.51-7.83 7.83Zm14.54 7.0601.63.6399 2.1499-2.1499-2.1499-2.14-.63.63L18.9701 17.1h-2.8199v.9h2.8199l-1.0599 1.0601Z"/>
</g></svg>