<svg xmlns="http://www.w3.org/2000/svg" data-laicon-version="15.0" viewBox="0 0 20 20" fill="black"><g transform="translate(-2 -2)">
  <path d="M10.72 10.5899c.03.25.47.5601 1.37.6701v-.01c2.28.27 2.63 1.5699 2.68 1.9599.12.89-.44 1.74-1.39 2.12-.22.09-.42.1501-.63.1901v1.24h-1.5v-1.25c-.94-.22-1.65-.8-1.99-1.23l.59-.4601.59-.47c.1.12.99 1.16 2.38.6.33-.13.48-.3699.46-.5299-.03-.25-.47-.56-1.37-.67-2.28-.2701-2.63-1.57-2.68-1.96-.12-.89.44-1.74 1.39-2.12.22-.08.42-.14.63-.18V7.25h1.5v1.26c.94.22 1.65.8 1.99 1.23l-1.18.92c-.1-.12-.99-1.16-2.38-.6-.33.13-.48.3699-.46.5299Z"/>
  <path d="M2.6499 12c0-5.16 4.19-9.35 9.3499-9.35 5.16 0 9.35 4.19 9.35 9.35 0 5.16-4.19 9.3499-9.35 9.3499-5.16 0-9.3499-4.1899-9.3499-9.3499Zm1.5 0c0 4.33 3.52 7.8499 7.8499 7.8499 4.33 0 7.85-3.5199 7.85-7.8499s-3.52-7.85-7.85-7.85S4.1499 7.67 4.1499 12Z"/>
</g></svg>