<svg xmlns="http://www.w3.org/2000/svg" data-laicon-version="16.3" viewBox="0 0 20 20" fill="black"><g transform="translate(-2 -2)">
  <path d="M19.001 5.83 5.828 19.01C3.89 17.29 2.65 14.79 2.65 12c0-5.16 4.188-9.35 9.345-9.35a9.296 9.296 0 0 1 7.006 3.18Zm-9.145 6.81c.04.08.08.15.12.22l3.768-3.77c-.43-.46-1.03-.72-1.74-.72-1.448 0-2.468 1.11-2.468 2.69v.25l-.15.23c-.03.04-.07.12-.05.22.05.38.18.54.24.58l.18.11.1.19Zm7.076-6.74a7.839 7.839 0 0 0-4.937-1.75c-4.328 0-7.846 3.52-7.846 7.85 0 1.87.66 3.59 1.75 4.94l2.968-2.97c-.08-.14-.16-.29-.25-.46-.3-.23-.66-.69-.78-1.52-.07-.48.05-.86.19-1.11.1-2.31 1.77-4 3.968-4 1.12 0 2.089.43 2.799 1.16l2.138-2.14Zm1.879 2.24 1.09-1.09h.02A9.275 9.275 0 0 1 21.35 12c0 5.16-4.188 9.35-9.345 9.35a9.3 9.3 0 0 1-4.948-1.44l1.09-1.09a7.747 7.747 0 0 0 3.858 1.03 7.82 7.82 0 0 0 4.248-1.26l-1.22-.84a329.79 329.79 0 0 1-1.379-.95c-.88-.62-.89-1.85-.39-2.64.19-.3.4-.64.67-1.13l2.069-2.07c.12.25.21.6.15 1.03-.13.83-.49 1.28-.78 1.52-.37.68-.63 1.1-.85 1.45-.11.18-.14.52-.01.61.184.124.706.485 1.324.912.525.363 1.12.774 1.635 1.128A7.809 7.809 0 0 0 19.841 12c0-1.4-.38-2.72-1.03-3.86Z"/>
</g></svg>