<svg xmlns="http://www.w3.org/2000/svg" data-laicon-version="15.0" viewBox="0 0 20 20" fill="black"><g transform="translate(-2 -2)">
  <path d="m13.2751 15.1888-1.7571-1.1445-.0099-.0069c-.5141-.3591-.7102-.9097-.7382-1.387-.0274-.4671.0963-.9496.3297-1.3218.25-.4052.5204-.8448.9201-1.5932l.1001-.1874.1835-.1071.0005-.0002a.1372.1372 0 0 0 .0214-.0155.3989.3989 0 0 0 .0636-.0703c.0527-.072.1436-.2322.1889-.5458l.0008-.0057c.0204-.1337-.0348-.2188-.0495-.2376l-.1602-.204v-.285c0-1.7386-1.1601-2.8468-2.6188-2.8468-1.46 0-2.6188 1.1-2.6188 2.8462v.2857l-.1602.204c-.0147.0187-.0699.1038-.0495.2375l.0008.0057c.0453.3134.1357.4686.1856.5355a.3529.3529 0 0 0 .0593.0639.141.141 0 0 0 .012.0088l.0039.0023.1993.1074.1067.1997c.402.7527.6728 1.2009.9178 1.5896.2347.3726.3594.8569.332 1.3254-.028.4772-.2241 1.0279-.7382 1.3869l-.01.007-3.9977 2.6038c-.3094.2054-.493.5495-.493.9043v1.3675h7.9908v1.5H2v-2.8675c0-.8694.4457-1.6796 1.1677-2.1569l.0042-.0028 3.9756-2.5893c.0367-.0283.0852-.0916.094-.2408.0097-.1659-.0408-.3382-.1037-.4381-.2434-.3861-.5098-.8264-.8826-1.5163a1.832 1.832 0 0 1-.349-.3573c-.2144-.287-.3907-.6822-.4681-1.2162-.0736-.4884.0537-.8818.1968-1.1467C5.7247 5.4742 7.457 3.73 9.75 3.73c2.2939 0 4.025 1.7532 4.1151 4.1493.1431.2649.2704.6584.1968 1.147-.0775.5336-.2531.9281-.4626 1.2144a1.8763 1.8763 0 0 1-.3414.3594c-.3765.6962-.6439 1.1307-.8834 1.5187l-.0035.0058c-.0629.0999-.1134.2721-.1037.4381.0088.1492.0572.2125.0939.2407l1.998 1.3013-1.0841 1.0841Z"/>
  <path d="M12.791 20.4108v-2.8993l6.23-6.23 2.8991 2.8991-6.23 6.2301-2.8991.0001Zm1.5-1.5001h.7778l4.73-4.7301-.7778-.7778-4.73 4.7301v.7778Z"/>
</g></svg>