<svg xmlns="http://www.w3.org/2000/svg" data-laicon-version="15.0" viewBox="0 0 20 20" fill="black"><g transform="translate(-2 -2)">
  <path d="M20.75 21.6411H3.25v-3.175c0-.961.481-1.848 1.286-2.373l4.562-2.974c.219-.154.159-.662.002-.909-.272-.43-.585-.94-1.025-1.753-.332-.259-.755-.772-.897-1.742-.08-.547.069-.978.226-1.261C7.505 4.759 9.447 2.779 12 2.779c2.564 0 4.513 1.999 4.599 4.679.156.283.304.712.224 1.257-.143.971-.565 1.483-.897 1.743-.447.823-.758 1.33-1.027 1.754-.155.246-.215.753.026.923l4.539 2.959c.806.524 1.287 1.411 1.287 2.373v3.174h-.001Zm-16-1.5h14.5v-1.675c0-.452-.227-.87-.605-1.116l-4.562-2.975c-1.005-.705-1.011-2.085-.452-2.967.271-.428.588-.944 1.058-1.82l.101-.187.184-.106c.046-.026.276-.188.365-.798.027-.184-.042-.309-.086-.367l-.153-.201v-.252c.002-1.983-1.303-3.398-3.1-3.398-1.797 0-3.102 1.415-3.102 3.364v.25l-.148.235c-.054.072-.113.194-.088.37.089.608.32.771.365.797l.183.106.101.187c.464.865.783 1.386 1.058 1.82.559.882.553 2.262-.429 2.952l-4.584 2.988c-.379.248-.605.665-.605 1.117v1.676H4.75Z"/>
</g></svg>