<svg xmlns="http://www.w3.org/2000/svg" data-laicon-version="15.0" viewBox="0 0 20 20" fill="black"><g transform="translate(-2 -2)">
  <path d="m19.7101 15.19.69.48v.01c.74.51 1.19 1.35 1.19 2.26v2.82h-2.96v-1.5h1.46v-1.32c0-.41-.2-.8-.54-1.03l-.69-.48a826.4297 826.4297 0 0 0-1.3633-.9367c-.7738-.5309-1.454-.9976-1.6567-1.1433-.91-.64-.91-1.91-.4-2.72l.0326-.0529c.2328-.3781.5054-.8208.8874-1.5371l.1-.19.18-.11c.07-.05.21-.23.27-.64.02-.12-.06-.25-.06-.25l-.15-.2V8.4c0-1.54-.87-2.63-2.16-2.85-.3-.57-.7-1.07-1.17-1.48.23-.04.46-.07.7-.07 2.3 0 4.04 1.78 4.13 4.17.14.26.27.65.2 1.14-.13.87-.51 1.34-.81 1.58-.39.73-.66 1.17-.89 1.53-.13.21-.15.58 0 .69.2507.1802 1.2253.8511 2.2078 1.5275l.8022.5525Z"/>
  <path d="M2.4102 20.75h15.02l.02.01v-2.82c0-.9-.45-1.75-1.19-2.26l-.62-.43a831.6474 831.6474 0 0 0-2.1009-1.4462c-.469-.322-.8371-.5748-.9791-.6738-.15-.11-.13-.49 0-.69l.0211-.0334c.2353-.3725.51-.8073.8789-1.4966.31-.25.68-.71.81-1.58.07-.49-.06-.88-.2-1.14-.09-2.4-1.84-4.18-4.13-4.18s-4.03 1.76-4.13 4.17c-.14.26-.27.65-.2 1.14.13.87.51 1.34.81 1.58.38.71.65 1.15.89 1.53.12.21.15.58 0 .69-.37.25-2.29 1.57-3.52 2.42l-.38.26c-.63.43-1 1.14-1 1.9v3.05Zm13.52-1.5h-12.01V17.7c0-.27.13-.52.35-.67l.38-.26c1.24-.85 3.16-2.17 3.53-2.43.91-.64.91-1.91.4-2.72-.25-.38-.52-.83-.93-1.59l-.1-.19-.19-.11s-.19-.12-.27-.63c-.02-.12.02-.21.06-.26l.15-.23v-.25c0-1.68 1.11-2.86 2.63-2.86 1.52 0 2.63 1.2 2.63 2.89v.25l.15.2c.03.04.08.12.06.25-.08.51-.28.64-.28.64l-.18.11-.1.19c-.41.75-.69 1.21-.93 1.59-.51.81-.51 2.08.4 2.72.33.23 1.88 1.3 3.09 2.13l.62.43c.34.23.54.62.54 1.03v1.32Z"/>
</g></svg>