<svg xmlns="http://www.w3.org/2000/svg" data-laicon-version="18.8" viewBox="0 0 20 20" fill="black"><g transform="translate(-2 -2)">
  <path d="M10.438 3.037c2.386 0 4.192 1.828 4.278 4.338.144.267.28.67.206 1.177-.081.555-.263.964-.48 1.26a1.898 1.898 0 0 1-.358.37c-.397.73-.678 1.194-.934 1.6l-.002.003a.866.866 0 0 0-.115.478c.01.166.066.243.118.28l.52.34-.081.083a2.37 2.37 0 0 0-.983 1.014l-.293-.19-.011-.009-.011-.007c-.526-.369-.729-.933-.757-1.426a2.362 2.362 0 0 1 .346-1.365c.26-.412.546-.881.969-1.668l.1-.187.185-.107a.434.434 0 0 0 .098-.097c.057-.078.155-.251.204-.588l.003-.105a.368.368 0 0 0-.07-.187l-.151-.2v-.251a.99.99 0 0 1 0-.045c-.006-1.839-1.236-3.01-2.781-3.01-1.55 0-2.783 1.177-2.783 3.024l.001.03v.252l-.151.2c-.03.04-.09.14-.067.292l.043.223c.051.194.117.307.16.366a.49.49 0 0 0 .07.077l.027.019.187.106.101.19c.422.785.708 1.254.968 1.665l.085.149c.187.358.285.793.26 1.217-.027.493-.23 1.057-.757 1.426l-.01.008-.01.007-4.109 2.677a1.331 1.331 0 0 0-.603 1.113v1.384h8.51v1.098c0 .137.014.271.037.402H2.35v-2.884a2.83 2.83 0 0 1 1.285-2.369l4.088-2.666c.052-.038.11-.114.119-.281a.87.87 0 0 0-.115-.479h-.001c-.257-.408-.538-.87-.934-1.6a1.899 1.899 0 0 1-.36-.371c-.216-.296-.398-.705-.479-1.26a1.88 1.88 0 0 1 .205-1.18c.087-2.509 1.893-4.336 4.28-4.336ZM6.155 7.612l.001.003V7.6v.013Zm14.184 5.602-.819.818h1.434a1 1 0 0 1 1 1v5.03a1 1 0 0 1-1 1h-6.24a1 1 0 0 1-1-1v-5.03a1 1 0 0 1 1-1h1.43l-.819-.818.99-.99 1.517 1.517 1.517-1.516.99.989Zm-5.225 4.643v1.805h2.018v-1.805h-2.018Zm3.418 0v1.805h2.022v-1.805h-2.022Zm-3.418-1.4h2.018v-1.024h-2.018v1.024Zm3.418 0h2.022v-1.024h-2.022v1.024Z"/>
</g></svg>