<svg xmlns="http://www.w3.org/2000/svg" data-laicon-version="17.1" viewBox="0 0 20 20" fill="black"><g transform="translate(-2 -2)">
  <path d="m4.45 16.9 1.05-.72c1.12-.77 2.37-1.63 2.66-1.84.91-.64.91-1.91.4-2.72-.25-.39-.52-.85-.92-1.59l-.1-.19-.18-.11c-.07-.04-.22-.23-.28-.64-.02-.12.02-.21.06-.25l.15-.23v-.25c0-1.38.73-2.4 1.84-2.74.3-.6.68-1.14 1.16-1.59a2.359 2.359 0 0 1-.144-.018c-.072-.011-.144-.022-.216-.022-2.29 0-4.03 1.77-4.13 4.17-.14.26-.27.65-.2 1.15.13.87.5 1.33.81 1.58.38.69.65 1.15.89 1.53.13.2.16.58 0 .69l-.226.156C6.588 13.6 5.57 14.3 4.65 14.94l-1.05.72c-.75.51-1.19 1.36-1.19 2.27v2.82h2.71v-1.5H3.91v-1.32c0-.41.2-.8.54-1.03Z"/>
  <path d="M11.45 8.37c0-1.69 1.08-2.86 2.63-2.86 1.55 0 2.63 1.18 2.63 2.89v.25l.15.2c.04.05.08.14.06.26-.06.41-.2.59-.28.63l-.18.11-.1.19c-.42.78-.69 1.22-.92 1.59-.51.81-.51 2.08.4 2.72.083.06.245.171.456.316l.224.154.95-1.16c-.22-.148-.408-.28-.55-.378-.096-.067-.171-.12-.22-.152-.15-.11-.12-.48 0-.69l.031-.05c.224-.36.487-.783.869-1.48.3-.24.68-.71.81-1.58.07-.49-.06-.88-.2-1.14-.09-2.39-1.83-4.18-4.13-4.18s-4.03 1.77-4.13 4.17c-.14.26-.27.65-.2 1.15.1.69.38 1.24.81 1.58.39.71.66 1.16.9 1.53.13.2.15.58 0 .69l-.708.49c-.518.36-1.226.85-1.892 1.31l-1.1.76c-.75.51-1.19 1.36-1.19 2.27v2.82h6.93v-1.5H8.07v-1.32c0-.41.2-.8.54-1.03l1.1-.76c1.11-.76 2.33-1.6 2.62-1.8.91-.64.91-1.91.4-2.72-.24-.38-.52-.83-.93-1.59l-.1-.18-.18-.11c-.09-.06-.22-.26-.28-.64-.02-.13.03-.21.06-.25l.15-.23v-.28Zm6.64 6.21a2.137 2.137 0 0 1 3.025-.005c.825.83.823 2.187-.005 3.025-.56.56-1.37.76-2.12.54l-.48.48a.51.51 0 0 1-.11.04h-.58l.02.57c0 .04-.04.11-.04.11l-.22.22a.51.51 0 0 1-.11.04h-.58l.02.57c0 .04-.04.11-.04.11l-.33.33a.4.4 0 0 1-.29.12h-.87c-.12 0-.22-.04-.3-.12a.385.385 0 0 1-.12-.29v-.86a.4.4 0 0 1 .12-.29l2.47-2.47c-.22-.75-.02-1.56.54-2.12Zm.95 1.51c0 .32.25.58.57.58.32 0 .58-.27.58-.58 0-.31-.27-.57-.58-.57a.57.57 0 0 0-.57.57Z"/>
  <path d="M21.115 14.575a.113.113 0 0 0 .005.005l-.01-.01.005.005Z"/>
</g></svg>