<svg xmlns="http://www.w3.org/2000/svg" data-laicon-version="15.0" viewBox="0 0 20 20" fill="black"><g transform="translate(-2 -2)">
  <path d="M17.5 20.3001H2v-2.8c0-.9.4-1.6 1.2-2.1l4-2.5c.1-.1.1-.4 0-.6-.2-.4-.5-.8-.9-1.5-.3-.2-.7-.7-.8-1.6-.1-.4 0-.8.2-1.1.1-2.3 1.8-4 4.1-4s4 1.7 4.1 4c.1.3.3.6.2 1.1-.1.8-.5 1.3-.8 1.5-.4.7-.7 1.1-.9 1.5-.1.2-.1.5 0 .6l4 2.5c.7.5 1.2 1.3 1.2 2.1v2.9h-.1Zm-14-1.5H16v-1.3c0-.3-.2-.7-.5-.9l-4-2.5c-.9-.6-.9-1.9-.4-2.7.2-.4.5-.8.9-1.5l.1-.2.2-.1c.1 0 .2-.2.3-.6 0-.1 0-.2-.1-.2l-.2-.2v-.3c0-1.6-1.1-2.8-2.6-2.8s-2.6 1.1-2.6 2.8v.3l-.1.2c0 .1-.1.1-.1.2.1.5.3.6.3.6l.2.1.1.2c.4.7.7 1.2.9 1.5.5.8.5 2.1-.4 2.7l-4 2.5c-.3.2-.5.5-.5.9v1.3ZM21.9998 6h-6.7v1.5h6.7V6Zm0 3.1001h-6.7v1.5h6.7v-1.5Z"/>
  <path d="M21.9998 12.1001h-6.7v1.5h6.7v-1.5Z"/>
</g></svg>