<svg xmlns="http://www.w3.org/2000/svg" data-laicon-version="15.0" viewBox="0 0 20 20" fill="black"><g transform="translate(-2 -2)">
  <path d="m13.9514 13.6099-1.3002-.8475c-.0454-.0348-.0965-.1064-.1052-.2616-.0098-.1722.043-.3519.1109-.4587l.0018-.0028c.25-.3976.526-.8495.9137-1.5622a1.886 1.886 0 0 0 .3511-.3671c.2136-.2914.3925-.6945.4725-1.2412.0724-.4986-.059-.8946-.2004-1.1583-.0854-2.465-1.8613-4.2605-4.2078-4.2605-2.3461 0-4.1205 1.7949-4.2067 4.2586-.1419.2636-.274.661-.2014 1.161.08.5466.2587.9491.4727 1.2407a1.882 1.882 0 0 0 .3519.3672c.3867.7125.6634 1.1654.9148 1.5636.068.1074.1208.2875.111.4597-.0088.1553-.0598.2266-.1054.2614l-4.0095 2.6135A2.7868 2.7868 0 0 0 2.0498 17.71v2.84h11.6566a2.3386 2.3386 0 0 1-.3566-1.245v-.255h-9.8v-1.34c0-.4342.2198-.84.5846-1.0777l4.0345-2.6299.0103-.0072c.521-.365.721-.9225.7485-1.4097.027-.4775-.102-.9688-.341-1.3463-.2542-.4027-.534-.8613-.947-1.631L7.538 9.419l-.1868-.107a.147.147 0 0 1-.0234-.0165.407.407 0 0 1-.0661-.0728c-.055-.0749-.1497-.2418-.1978-.57-.0208-.1444.0356-.2368.0638-.2742l.1511-.2005v-.251a.9626.9626 0 0 0-.0007-.0355l-.0003-.007c.0056-1.7948 1.205-2.9345 2.71-2.9345 1.5012 0 2.699 1.134 2.7109 2.9201a.8623.8623 0 0 0-.0019.057v.251l.1511.2004c.0282.0375.0848.1292.0638.274-.048.3283-.1428.4954-.1979.5705a.4112.4112 0 0 1-.0663.073.1627.1627 0 0 1-.025.0177l-.1843.1065-.1009.1874c-.414.7695-.6939 1.2285-.9476 1.6319-.2395.3779-.3683.869-.3413 1.346.0275.4871.2274 1.0443.7475 1.4094l.0105.0074 1.5493 1.0098a2.34 2.34 0 0 1 .5957-1.4022Zm1.9988 1.8201v3.625h4.508V15.43h-4.508Zm-1.5-.25c0-.6902.5598-1.25 1.25-1.25h5.008c.6882 0 1.25.5588 1.25 1.25v4.125c0 .6912-.5618 1.25-1.25 1.25h-5.008c-.6902 0-1.25-.5598-1.25-1.25V15.18Z"/>
  <path d="M15.6201 13.052c0-1.4262 1.1558-2.582 2.582-2.582s2.582 1.1558 2.582 2.582v1.622h-1.5v-1.622c0-.5978-.4842-1.082-1.082-1.082-.5978 0-1.082.4842-1.082 1.082v1.622h-1.5v-1.622Zm1.8301 5.143V16.42h1.5v1.775h-1.5Z"/>
</g></svg>