<svg xmlns="http://www.w3.org/2000/svg" data-laicon-version="15.0" viewBox="0 0 20 20" fill="black"><g transform="translate(-2 -2)">
  <path d="m16.0845 14.8829-2.5508-1.6613c-.0627-.0469-.1245-.1396-.1352-.3222-.0116-.1978.0477-.4031.1255-.5267l.0036-.0058c.2647-.429.5601-.9089.9773-1.6812.1111-.0873.244-.213.3739-.3906.2227-.3043.4117-.7267.4953-1.303.0796-.5277-.0619-.9505-.2167-1.2307-.0898-2.6088-1.9679-4.5114-4.4539-4.5114-2.4851 0-4.3644 1.8926-4.454 4.5114-.1547.2802-.2962.703-.2167 1.2305.0836.5766.2732.9995.501 1.3043.1313.176.2666.3008.3823.3882.4134.7658.7077 1.2524.9765 1.6787.0778.1236.137.3288.1255.5266-.0107.1827-.0726.2753-.1353.3223l-4.3773 2.851-.0043.0028c-.7739.5115-1.2512 1.3798-1.2512 2.3108v3.0803h14.8807l-1.5-1.5H3.75v-1.5803c0-.4164.2153-.8186.5765-1.0583l4.3988-2.8649.0099-.007c.5418-.3783.7504-.9598.7803-1.4689.0293-.5003-.1043-1.0177-.3538-1.414-.2705-.4291-.5695-.9239-1.0129-1.754l-.1066-.1997-.1995-.1075a.18.18 0 0 1-.029-.0199.4624.4624 0 0 1-.0782-.0838c-.0633-.0847-.167-.2676-.2185-.6237l-.0008-.0057c-.0265-.174.0453-.2882.0697-.3193l.1603-.204v-.2882c0-1.96 1.3056-3.2077 2.9573-3.2077 1.6504 0 2.9573 1.2566 2.9573 3.2081v.2878l.1602.204c.0244.031.0962.1452.0698.3193l-.0009.0057c-.0514.3563-.1558.5444-.2216.6344-.0629.086-.113.1132-.1169.1153l-.1836.107-.1001.1875c-.441.8257-.7395 1.311-1.015 1.7575-.2483.396-.3809.9115-.3516 1.4105.0298.5092.2385 1.0906.7803 1.469l.0099.0069 2.3091 1.504 1.0841-1.0841Z"/>
  <path d="m17.6063 18.3968 2.1241 2.1241-1.0606 1.0607-3.9349-3.9348 3.9349-3.9348 1.0606 1.0606-2.1241 2.1242h4.3174v1.5h-4.3174Z"/>
</g></svg>