<svg xmlns="http://www.w3.org/2000/svg" data-laicon-version="15.0" viewBox="0 0 20 20" fill="black"><g transform="translate(-2 -2)">
  <path d="M11.9999 2.65c-5.16 0-9.35 4.19-9.35 9.35 0 5.16 4.19 9.35 9.35 9.35 5.16 0 9.3499-4.19 9.3499-9.35 0-5.16-4.1899-9.35-9.3499-9.35Zm-4.25 15.94c1.06-.73 2.29-1.58 2.59-1.79.89-.62.8999-1.86.3999-2.63-.23-.38-.5-.81-.88-1.52l-.1-.19-.18-.11c-.08-.05-.2-.23-.25-.59 0-.05-.01-.13.05-.22l.1501-.23v-.25c0-1.58 1.02-2.69 2.47-2.69 1.45 0 2.4699 1.11 2.4699 2.72v.25l.1501.2c.06.09.0599.17.0499.22-.06.38-.19.55-.25.58l-.18.11-.0999.19c-.38.71-.64 1.14-.87 1.51-.5.78-.5001 2.01.3899 2.64l.45.31c.53.37 1.3801.95 2.1501 1.48-1.23.79-2.68 1.26-4.25 1.26-1.57 0-3.03-.47-4.25-1.26l-.01.01Zm9.7299-.98c-.84-.58-1.8999-1.31-2.5199-1.74l-.44-.3c-.11-.08-.1101-.42.0199-.61.23-.37.4801-.79.8401-1.45.29-.24.65-.69.77-1.51.06-.39-.0001-.77-.1801-1.11-.09-2.29-1.7599-4-3.9699-4s-3.86 1.69-3.96 4c-.18.34-.25.72-.19 1.1.09.67.36 1.2.78 1.53.36.66.61 1.08.85 1.46.11.18.14.51 0 .6-.34.24-1.83 1.27-2.96 2.04-1.46-1.43-2.37-3.41-2.37-5.61 0-4.33 3.52-7.85 7.85-7.85s7.8499 3.52 7.8499 7.85c0 2.2-.91 4.19-2.37 5.61v-.01Z"/>
</g></svg>