<svg xmlns="http://www.w3.org/2000/svg" data-laicon-version="15.0" viewBox="0 0 20 20" fill="black"><g transform="translate(-2 -2)">
  <path d="M13.5612 9.522c.02-.0133.0613-.0406.109-.112l-.05.02c.06-.09.17-.28.22-.64.03-.17-.07-.32-.07-.32l-.16-.2v-.29c0-1.95-1.31-3.21-2.96-3.21s-2.96 1.25-2.96 3.22v.28l-.16.2a.438.438 0 0 1-.0096.0176c-.0282.05-.0868.1542-.0604.3124.05.35.16.54.22.62.03.04.06.07.08.08.02.02.03.02.03.02l.2.11.11.2c.44.83.74 1.32 1.01 1.75.25.39.38.91.35 1.41-.03.51-.24 1.09-.78 1.47l-.01.01-4.39 2.86c-.36.24-.58.64-.58 1.06v1.58h8.5l1.5 1.5h-11.5v-3.08c0-.93.48-1.8 1.25-2.31l4.38-2.85c.07-.04.13-.14.14-.32.02-.2-.04-.41-.12-.53-.27-.43-.57-.91-.98-1.68-.11-.09-.25-.21-.38-.39-.23-.3-.42-.72-.5-1.3-.08-.53.06-.95.22-1.23.09-2.62 1.97-4.51 4.45-4.51 2.48 0 4.36 1.9 4.45 4.51.16.28.3.7.22 1.23-.08.57-.27 1-.49 1.3-.13.18-.26.3-.37.39-.364.6758-.6378 1.1264-.8735 1.5144a53.8931 53.8931 0 0 0-.1065.1756c-.07.13-.13.33-.12.53.02.18.08.27.14.32l.65.42-1.08 1.08-.39-.26-.01-.01c-.54-.38-.75-.96-.78-1.47-.03-.5.1-1.01.35-1.41l.0143-.0231c.276-.4434.5732-.9211 1.0057-1.737l.1-.19.18-.11c.002-.002.0058-.0045.011-.008Z"/>
  <path d="m20.1703 14.3 1.06 1.06-2.41 2.4 2.41 2.41-1.06 1.06-2.41-2.41-2.4 2.41-1.06-1.06 2.4-2.41-2.4-2.4 1.06-1.06 2.4 2.4 2.41-2.4Z"/>
</g></svg>