<svg xmlns="http://www.w3.org/2000/svg" data-laicon-version="15.0" viewBox="0 0 20 20" fill="black"><g transform="translate(-2 -2)">
  <path d="M18.0998 3.15H5.8999c-1.52 0-2.75 1.23-2.75 2.75v12.2c0 1.52 1.23 2.75 2.75 2.75h12.1999c1.52 0 2.75-1.23 2.75-2.75V5.9c0-1.52-1.23-2.75-2.75-2.75Zm-7.19 10.41c-.24-.37-.48-.78-.8-1.37l-.0999-.19-.2-.11s-.13-.1-.18-.47c0-.07 0-.12.04-.17l.14-.22v-.24c0-1.41.9-2.4 2.2-2.4 1.3 0 2.2.99 2.2 2.42v.24l.1399.2c.05.07.0401.14.0401.16-.06.37-.1801.47-.1701.47l-.1999.11-.1101.2c-.32.6-.56 1.01-.8 1.38-.47.75-.4599 1.92.3901 2.5.33.23 2.06 1.43 3.14 2.17.33.22.5199.6.5199 1.01v.11h-10.28v-.11c0-.41.2001-.78.5201-1.01 1.07-.74 2.8-1.93 3.13-2.16.84-.58.8599-1.75.3799-2.51v-.01Zm8.44 4.54c0 .49-.2899.91-.6999 1.11-.01-.89-.4401-1.72-1.1701-2.21-1.07-.73-2.8-1.93-3.13-2.16-.07-.05-.0699-.31.0201-.46.24-.37.47-.77.78-1.32.28-.22.61-.65.73-1.43.05-.36 0-.71-.17-1.03-.09-2.13-1.65-3.71-3.7-3.71-2.05 0-3.6 1.57-3.7 3.71-.16.31-.22.67-.17 1.03.12.78.45 1.21.73 1.43.3.55.53.95.77 1.31.1.15.1.42.03.47-.33.23-2.06 1.42-3.12 2.16-.73.5-1.17 1.33-1.17 2.23-.42-.2-.72-.62-.72-1.12V5.9c0-.69.56-1.25 1.25-1.25h12.1999c.69 0 1.25.56 1.25 1.25v12.2h-.01Z"/>
</g></svg>