<svg xmlns="http://www.w3.org/2000/svg" data-laicon-version="15.0" viewBox="0 0 20 20" fill="black"><g transform="translate(-2 -2)">
  <path d="M20.4198 4.43c0-.34-.23-.64-.56-.72-1.11-.29-4.0999-.96-7.8399-.96-4.23 0-7.32.83-7.89 1-.32.09-.54.39-.54.72v8.8199c0 4 6.1699 7.37 8.0699 8.31.02 0 .0401.02.0501.02.09.04.21.06.31.06.07 0 .17-.02.24-.04.04-.01.0799-.03.1199-.05 1.89-.94 8.0701-4.31 8.0701-8.31l-.0201-8.85h-.01Zm-8.3999 15.6699c-1.44-.74-2.96-1.68-4.2-2.71 1.05-.72 2.3699-1.63 2.6599-1.84.86-.6.87-1.78.39-2.54-.22-.35-.47-.75-.82-1.42l-.09-.17-.17-.11c-.1-.07-.19-.26-.23-.54-.01-.07 0-.12.03-.14l.16-.23v-.26c0-1.46.9301-2.49 2.2701-2.49 1.34 0 2.2799 1.02 2.2799 2.51v.26l.1601.2s.0399.07.0299.16c-.04.26-.1199.46-.2299.52l-.17.11-.0901.17c-.36.67-.6 1.07-.82 1.42-.48.75-.47 1.94.37 2.54.31.22 1.63 1.13 2.68 1.84-1.25 1.03-2.7599 1.97-4.1999 2.71l-.01.01Zm5.3299-3.75c-1.07-.73-2.61-1.79-2.94-2.02-.08-.06-.08-.34.03-.51.22-.35.46-.74.8-1.36.39-.32.64-.82.73-1.43.06-.37 0-.75-.17-1.08-.09-2.17-1.6799-3.79-3.7799-3.79s-3.66 1.6-3.76 3.79c-.17.32-.24.7-.18 1.06.09.63.34 1.13.73 1.45.34.62.5799 1.02.7999 1.36.1.16.11.44.01.51-.32.23-1.86 1.29-2.92 2.02-.97-1.01-1.6-2.06-1.6-3.06v-8.24c1.12-.28 3.65-.8 6.9301-.8 3.05 0 5.5799.47 6.8999.77l.0201 8.26c0 1-.6301 2.05-1.6001 3.06v.01Z"/>
</g></svg>