<svg xmlns="http://www.w3.org/2000/svg" data-laicon-version="15.0" viewBox="0 0 20 20" fill="black"><g transform="translate(-2 -2)">
  <path d="M16.2948 21.4569H2.25v-3.0803c0-.931.4773-1.7993 1.2512-2.3108l.0043-.0028 4.3773-2.851c.0627-.047.1246-.1396.1353-.3223.0115-.1978-.0477-.403-.1255-.5266-.2688-.4263-.5631-.9129-.9765-1.6787-.1157-.0874-.251-.2122-.3824-.3882-.2277-.3048-.4173-.7277-.501-1.3043-.0794-.5276.062-.9503.2168-1.2305.0896-2.6188 1.9689-4.5114 4.454-4.5114 2.486 0 4.3641 1.9026 4.4539 4.5114.1548.2802.2963.703.2167 1.2307-.0836.5763-.2726.9987-.4953 1.303-.1299.1776-.2628.3033-.3739.3906-.4172.7723-.7126 1.2522-.9773 1.6812l-.0036.0058c-.0778.1236-.1371.3289-.1255.5267.0107.1826.0725.2753.1352.3222l2.607 1.698-1.1423 1.0461-2.3071-1.5027-.0099-.0069c-.5418-.3784-.7505-.9598-.7803-1.469-.0293-.499.1033-1.0145.3516-1.4105.2755-.4465.574-.9318 1.015-1.7575l.1001-.1875.1836-.107c.0039-.0021.054-.0293.1169-.1152.0658-.09.1702-.2782.2216-.6345l.0009-.0057c.0264-.174-.0454-.2882-.0698-.3193l-.1602-.204v-.2878c0-1.9515-1.3069-3.2081-2.9573-3.2081-1.6517 0-2.9573 1.2478-2.9573 3.2077v.2882l-.1603.204c-.0244.031-.0962.1452-.0697.3193l.0008.0057c.0514.3561.1552.539.2185.6237a.4624.4624 0 0 0 .0782.0838.18.18 0 0 0 .029.02l.1995.1074.1066.1996c.4434.8302.7424 1.325 1.0129 1.7541.2495.3963.3831.9137.3538 1.414-.0299.5091-.2385 1.0906-.7803 1.4689l-.01.007-4.3987 2.8649c-.3612.2397-.5765.6419-.5765 1.0583v1.5803h11.1698l1.375 1.5Z"/>
  <path d="m17.3335 18.8901 3.1138-3.3969 1.1058 1.0136-4.2195 4.6031-2.8863-3.1485 1.1058-1.0136 1.7804 1.9423Z"/>
</g></svg>