<svg xmlns="http://www.w3.org/2000/svg" data-laicon-version="17.1" viewBox="0 0 20 20" fill="black"><g transform="translate(-2 -2)">
  <path d="m13.534 13.222 1.819 1.184-.873 1.222-1.789-1.165-.01-.007c-.541-.378-.75-.96-.78-1.469a2.448 2.448 0 0 1 .352-1.41c.275-.447.574-.932 1.015-1.758l.1-.187.183-.107a.392.392 0 0 0 .117-.116c.066-.09.17-.278.222-.634v-.006a.423.423 0 0 0-.069-.32l-.16-.203v-.288c0-1.951-1.307-3.208-2.957-3.208-1.652 0-2.958 1.248-2.958 3.208v.288l-.16.204a.423.423 0 0 0-.07.32l.001.005c.051.356.155.539.218.624a.462.462 0 0 0 .108.103l.2.108.106.2c.443.83.742 1.324 1.013 1.753.25.397.383.914.353 1.414-.03.51-.238 1.091-.78 1.47l-.01.006-4.398 2.865a1.28 1.28 0 0 0-.577 1.059v1.58h8.75v1.5H2.25v-3.08c0-.931.477-1.8 1.251-2.311l.004-.003 4.378-2.851c.063-.047.124-.14.135-.322a.952.952 0 0 0-.125-.527 26.993 26.993 0 0 1-.977-1.679 1.932 1.932 0 0 1-.382-.388c-.228-.305-.418-.728-.501-1.304-.08-.528.062-.95.217-1.23.09-2.62 1.968-4.512 4.454-4.512 2.486 0 4.364 1.903 4.453 4.511.155.28.297.703.217 1.231-.084.576-.273.999-.495 1.303a1.98 1.98 0 0 1-.374.39 30.345 30.345 0 0 1-.977 1.682l-.004.006a.953.953 0 0 0-.125.526c.01.183.072.276.135.323Zm3.731 1.138a2.5 2.5 0 1 1 1.11 4.18l-.512.512a.25.25 0 0 1-.177.073h-.56v.56a.25.25 0 0 1-.073.176l-.251.252a.25.25 0 0 1-.177.073h-.559v.56a.25.25 0 0 1-.073.176l-.375.375a.55.55 0 0 1-.39.161l-.978-.001a.55.55 0 0 1-.55-.551l.003-.974a.55.55 0 0 1 .16-.388l2.758-2.757a2.499 2.499 0 0 1 .644-2.427Zm1.768 1.168a.6.6 0 1 0 0 1.2.6.6 0 0 0 0-1.2Z"/>
</g></svg>