<svg xmlns="http://www.w3.org/2000/svg" data-laicon-version="15.0" viewBox="0 0 20 20" fill="black"><g transform="translate(-2 -2)">
  <path d="M15.8526 20.9H2v-2.9937c0-.9462.4927-1.818 1.2933-2.3239l4.3781-2.7643c.064-.0467.1197-.1315.1293-.2948.0106-.1817-.0463-.3728-.1226-.4894-.2729-.4174-.5718-.8926-.9904-1.6393a1.953 1.953 0 0 1-.377-.3806c-.2266-.2996-.4188-.7166-.5048-1.2865-.0787-.5231.0658-.9366.2163-1.2074C6.113 4.9402 8.025 3.1 10.5006 3.1c2.4747 0 4.3864 1.8403 4.4772 4.42.1505.271.2951.684.2164 1.2072-.0861.5698-.2782.9872-.5049 1.2868a1.9533 1.9533 0 0 1-.377.3806c-.4186.7467-.7174 1.2218-.9903 1.6392-.0763.1166-.1332.3078-.1225.4892.0096.1632.0654.248.1298.2949l2.5233 1.5935v.3414h-2.2687l-1.0806-.6825-.0106-.0072c-.5441-.3701-.7605-.9416-.7906-1.4516-.0294-.4977.1093-1.0084.3644-1.3986.2744-.4196.5767-.9008 1.023-1.7052l.1032-.186.1856-.1042c.007-.0038.0551-.0296.1147-.1084.0631-.0834.1659-.2614.2179-.6051.023-.153-.038-.2547-.0755-.3034l-.1553-.2021v-.2548c0-.0145.0004-.027.0007-.0362l.0004-.007C13.4755 5.8305 12.1796 4.6 10.5006 4.6c-1.6803 0-2.9761 1.2307-2.9817 3.1005l.0003.007a.963.963 0 0 1 .0007.0362v.2548l-.1553.202c-.0374.0488-.0983.1504-.0755.3031.052.344.1548.522.218.6055.0595.0788.107.1042.114.108l.1862.1045.1033.1861c.4462.8044.7486 1.2856 1.023 1.7052.255.3902.3937.9009.3645 1.3983-.03.5097-.2457 1.0812-.7892 1.4516l-.0109.0074-4.4034 2.7802c-.3768.2383-.5946.6376-.5946 1.0559V19.4h12.3526v1.5Z"/>
  <path d="M13.8101 16.0528h8.186v1.5h-8.186v-1.5Z"/>
  <path d="M18.6523 12.71v8.186h-1.5V12.71h1.5Z"/>
</g></svg>