<svg xmlns="http://www.w3.org/2000/svg" data-laicon-version="15.4" viewBox="0 0 20 20" fill="black"><g transform="translate(-2 -2)">
  <path d="M3.2 17.8c0-.89.45-1.71 1.19-2.19l.01.01 4.07-2.66c.14-.1.11-.49-.02-.7-.24-.38-.52-.83-.91-1.56-.31-.25-.69-.72-.82-1.6-.07-.5.06-.9.2-1.16.1-2.44 1.85-4.23 4.18-4.23 2.33 0 4.1 1.81 4.19 4.24.14.27.27.66.2 1.16-.13.88-.51 1.36-.82 1.6-.39.73-.67 1.18-.91 1.56-.13.21-.16.6 0 .71l3.38 2.2-.37 1.55-3.85-2.51c-.94-.66-.95-1.94-.43-2.76.24-.38.52-.84.94-1.62l.1-.19.19-.11c.07-.04.22-.23.28-.65a.34.34 0 0 0-.06-.27l-.15-.2v-.25c0-1.76-1.11-2.96-2.69-2.96-1.58 0-2.69 1.2-2.69 2.92v.25l-.15.23c-.03.04-.08.13-.06.27.07.42.21.61.29.65l.18.11.1.19c.42.78.7 1.24.94 1.62.51.82.51 2.11-.41 2.75l-4.1 2.67c-.31.2-.5.55-.5.93v1.42h11.47l-.36 1.5H3.2V17.8Zm15.81-6.08a.96.96 0 1 1 1.92 0 .96.96 0 0 1-1.92 0Zm-1.35 2.01c0-.13.1-.23.23-.23h1.78c.39.02.7.35.7.75 0 .06 0 .11-.02.17l-1.17 5s-.02.08-.02.13c0 .24.16.45.38.52.05.02.11.03.17.03h.34c.13 0 .23.1.23.23s-.1.22-.23.22h-1.78a.746.746 0 0 1-.7-.75c0-.06 0-.11.02-.17l1.17-5s.01-.08.01-.13a.55.55 0 0 0-.38-.52.508.508 0 0 0-.17-.03h-.34c-.13 0-.23-.1-.23-.23l.01.01Z"/>
</g></svg>