<svg xmlns="http://www.w3.org/2000/svg" data-laicon-version="15.0" viewBox="0 0 20 20" fill="black"><g transform="translate(-2 -2)">
  <path d="M7.3087 5.3769c-1.3654 0-2.4723 1.1069-2.4723 2.4723 0 1.3654 1.107 2.4723 2.4723 2.4723 1.3654 0 2.4723-1.1069 2.4723-2.4723 0-1.3654-1.1069-2.4723-2.4723-2.4723ZM3.3364 7.8492c0-2.1938 1.7785-3.9723 3.9723-3.9723 2.1939 0 3.9723 1.7785 3.9723 3.9723 0 2.1938-1.7784 3.9723-3.9723 3.9723-2.1938 0-3.9723-1.7785-3.9723-3.9723ZM14.2188 4.627v3.2223c0 1.3655 1.1069 2.4724 2.4723 2.4724 1.3654 0 2.4723-1.1069 2.4723-2.4724V4.627h1.5v3.2223c0 2.1939-1.7785 3.9724-3.9723 3.9724-2.1938 0-3.9723-1.7785-3.9723-3.9724V4.627h1.5Z"/>
  <path d="M6.5586 20.373v-9.3014h1.5v9.3014h-1.5Zm9.3828 0V4.627h1.5v15.746h-1.5Z"/>
</g></svg>