<svg xmlns="http://www.w3.org/2000/svg" data-laicon-version="15.0" viewBox="0 0 20 20" fill="black"><g transform="translate(-2 -2)">
  <path d="M8.56 2.73c-2.27 0-4.12 2.04-4.12 4.55 0 2.22 1.46 4.07 3.37 4.46v9.31h1.5v-9.31c1.9101-.39 3.36-2.24 3.36-4.46 0-2.51-1.8399-4.55-4.11-4.55Zm0 7.59c-1.44 0-2.62-1.37-2.62-3.05 0-1.68 1.18-3.05 2.62-3.05 1.4401 0 2.61 1.37 2.61 3.05 0 1.68-1.1699 3.05-2.61 3.05ZM13.73 21.05h1.5l.49-17.57h-1.5l-.49 17.57Zm3.0801-17.57h1.5l.4799 17.57h-1.5l-.4799-17.57Z"/>
</g></svg>