<svg xmlns="http://www.w3.org/2000/svg" data-laicon-version="17.5" viewBox="0 0 20 20" fill="black"><g transform="translate(-2 -2)">
  <path d="M17.37 4.43s2.14 3.13 2.14 7.57-2.12 7.54-2.14 7.57l-.3.43h1.8c.63-1.06 2.14-4.02 2.14-8 0-3.98-1.5-6.94-2.14-8h-1.8l.3.43ZM6.63 19.57S4.49 16.44 4.49 12s2.12-7.54 2.14-7.57l.3-.43h-1.8c-.63 1.06-2.14 4.02-2.14 8 0 3.98 1.5 6.93 2.14 8h1.8l-.3-.43ZM16 9.25h.75v-1.5H16c-1.18 0-2.3.57-2.98 1.53l-.85 1.2-.46-1.06a2.744 2.744 0 0 0-2.53-1.67h-.93v1.5h.93c.5 0 .95.3 1.15.76l.81 1.9-1.38 1.94c-.41.57-1.06.91-1.76.91h-.75v1.5H8c1.18 0 2.3-.57 2.98-1.53l.85-1.19.46 1.06a2.755 2.755 0 0 0 2.53 1.67h.93v-1.5h-.93c-.5 0-.95-.3-1.15-.76l-.81-1.9 1.38-1.94c.41-.57 1.06-.91 1.76-.91v-.01Z"/>
</g></svg>