<svg xmlns="http://www.w3.org/2000/svg" data-laicon-version="15.0" viewBox="0 0 20 20" fill="black"><g transform="translate(-2 -2)">
  <path d="M8.75 9h1.5v2.25h2.25v1.5h-2.25V15h-1.5v-2.25H6.5v-1.5h2.25V9Z"/>
  <path d="m17.0498 8.44 3.71-1.48c.52-.21 1.09.17 1.09.73v8.62c0 .55-.57.94-1.09.73l-3.71-1.48v1.94c0 .97-.78 1.75-1.75 1.75h-11.5c-.97 0-1.75-.78-1.75-1.75v-11c0-.97.78-1.75 1.75-1.75h11.5c.97 0 1.75.78 1.75 1.75v1.94Zm-13.25 9.31h11.5c.14 0 .25-.11.25-.25v-4.15l4.8 1.91V8.74l-4.8 1.91V6.5c0-.14-.11-.25-.25-.25h-11.5c-.14 0-.25.11-.25.25v11c0 .14.11.25.25.25Z"/>
</g></svg>