<svg xmlns="http://www.w3.org/2000/svg" data-laicon-version="15.0" viewBox="0 0 20 20" fill="black"><g transform="translate(-2 -2)">
  <path d="M20.6294 6.8945c.568-.3271 1.2769.083 1.2769.7381v8.7347c0 .6551-.7092 1.0656-1.2773.7379l-4.8038-2.7695.7492-1.2995 3.8319 2.2092V8.7545l-3.8319 2.2093-.7492-1.2996 4.8042-2.7697Zm.7489 8.9113c-.0002-.0002.0002.0001 0 0Z"/>
  <path d="M2.0498 6.5c0-.9665.7835-1.75 1.75-1.75h11.5c.9665 0 1.75.7835 1.75 1.75v11c0 .9665-.7835 1.75-1.75 1.75h-11.5c-.9665 0-1.75-.7835-1.75-1.75v-11Zm1.75-.25a.25.25 0 0 0-.25.25v11a.25.25 0 0 0 .25.25h11.5a.25.25 0 0 0 .25-.25v-11a.25.25 0 0 0-.25-.25h-11.5Z"/>
</g></svg>