<svg xmlns="http://www.w3.org/2000/svg" data-laicon-version="15.0" viewBox="0 0 20 20" fill="black"><g transform="translate(-2 -2)">
  <path d="M10.2188 9.0266a.75.75 0 0 1 .7515.0026l3.9794 2.3223a.7503.7503 0 0 1-.0028 1.2972l-3.9794 2.2995a.7501.7501 0 0 1-1.1252-.6494V9.677a.75.75 0 0 1 .3765-.6504Zm1.1235 1.9564v2.0162l1.7359-1.0031-1.7359-1.0131Z"/>
  <path d="M4.8501 4.85v14.3h14.3V4.85h-14.3Zm-1.5-.25c0-.6902.5595-1.25 1.25-1.25h14.8c.6905 0 1.25.5598 1.25 1.25v14.8c0 .6903-.5597 1.25-1.25 1.25h-14.8c-.6905 0-1.25-.5598-1.25-1.25V4.6Z"/>
</g></svg>