<svg xmlns="http://www.w3.org/2000/svg" data-laicon-version="15.0" viewBox="0 0 20 20" fill="black"><g transform="translate(-2 -2)">
  <path d="M14.14 2.963a.7499.7499 0 0 1 .45.687v9.595l4.034 4.02-1.059 1.062L4.471 5.279l1.058-1.062L8.705 7.38l4.626-4.28a.7502.7502 0 0 1 .81-.137h-.001ZM9.768 8.44l3.322 3.31V5.365L9.768 8.441V8.44Zm3.322 7.122 1.5 1.494v3.294a.7495.7495 0 0 1-.45.6874.7499.7499 0 0 1-.81-.1374l-5.024-4.65H2.75A.7498.7498 0 0 1 2 15.5v-7a.75.75 0 0 1 .75-.75h2.5l1.505 1.5H3.5v5.5h5.1a.7496.7496 0 0 1 .51.2l3.98 3.684v-3.072Z"/>
</g></svg>