<svg xmlns="http://www.w3.org/2000/svg" data-laicon-version="15.0" viewBox="0 0 20 20" fill="black"><g transform="translate(-2 -2)">
  <path d="m15.8032 13.9631 5.1088-4.9866 1.0478 1.0734-5.1089 4.9866-1.0477-1.0734Z"/>
  <path d="m20.9116 15.0364-5.1089-4.9867 1.0478-1.0734 5.1088 4.9867-1.0477 1.0734ZM14.1404 2.9627a.75.75 0 0 1 .4496.6873v16.7a.7499.7499 0 0 1-1.2594.5504L8.3062 16.25H2.75A.75.75 0 0 1 2 15.5v-7a.75.75 0 0 1 .75-.75h5.5562l5.0244-4.6504a.75.75 0 0 1 .8098-.1369ZM13.09 5.3661 9.1095 9.0504A.75.75 0 0 1 8.6 9.25H3.5v5.5h5.1a.75.75 0 0 1 .5095.1996l3.9805 3.6843V5.3661Z"/>
</g></svg>