<svg xmlns="http://www.w3.org/2000/svg" data-laicon-version="15.0" viewBox="0 0 20 20" fill="black"><g transform="translate(-2 -2)">
  <path d="M14.14 2.96a.738.738 0 0 0-.81.14L8.31 7.75H2.75c-.41 0-.75.34-.75.75v7c0 .41.34.75.75.75h5.56l5.02 4.65c.22.2.54.26.81.14s.45-.39.45-.69V3.65c0-.3-.18-.57-.45-.69Zm-1.05 15.67-3.98-3.68a.7441.7441 0 0 0-.51-.2H3.5v-5.5h5.1c.19 0 .37-.07.51-.2l3.98-3.68v13.26Zm4.65-9.65c-.23-.22-.47-.42-.73-.59l-.8 1.27c.17.11.33.24.48.38a2.7578 2.7578 0 0 1 0 3.89c-.15.15-.31.27-.48.38l.8 1.27c.26-.17.51-.36.73-.59a4.2492 4.2492 0 0 0 0-6.01Z"/>
  <path d="M18.5998 5.86c.45.28.87.62 1.25 1v.02c2.83 2.82 2.83 7.42 0 10.25-.38.38-.8.71-1.25 1l-.8-1.27c.35-.23.69-.5.99-.8a5.7579 5.7579 0 0 0 0-8.13c-.3-.31-.63-.57-.99-.8l.8-1.27Z"/>
</g></svg>