<svg xmlns="http://www.w3.org/2000/svg" data-laicon-version="15.0" viewBox="0 0 20 20" fill="black"><g transform="translate(-2 -2)">
  <path d="M4.7622 8.2595c0-1.6272 1.3178-2.945 2.945-2.945h8.633c1.6262 0 2.944 1.3178 2.944 2.944v7.483c0 1.6262-1.3178 2.944-2.944 2.944h-8.634c-1.6262 0-2.944-1.3178-2.944-2.944v-7.482Zm2.945-1.445c-.7988 0-1.445.6462-1.445 1.445v7.482c0 .7978.6462 1.444 1.444 1.444h8.634c.7978 0 1.444-.6462 1.444-1.444v-7.483c0-.7978-.6462-1.444-1.444-1.444h-8.633Z"/>
  <path d="M8.1005 2.1261A.751.751 0 0 1 8.517 2h7.009a.75.75 0 0 1 .7229.5504l.878 3.18-1.4459.3992L14.955 3.5H9.0878l-.7236 2.629-1.4462-.398.8731-3.1723a.7517.7517 0 0 1 .3094-.4326Zm-.305 19.3233-.877-3.18 1.446-.3988.7251 2.6294h5.8682l.7236-2.629 1.4462.398-.875 3.179a.7507.7507 0 0 1-.1927.3313l-.001.001a.7501.7501 0 0 1-.5304.2197h-7.01a.75.75 0 0 1-.723-.5506Zm3.6504-9.0185 2.5295-2.5287 1.0605 1.0608-3.5904 3.5893-2.4763-2.4775 1.061-1.0604 1.4157 1.4165Z"/>
</g></svg>