<svg xmlns="http://www.w3.org/2000/svg" data-laicon-version="15.0" viewBox="0 0 20 20" fill="black"><g transform="translate(-2 -2)">
  <path d="M10.6501 7.17c1.4 0 2.53-1.13 2.53-2.53s-1.13-2.53-2.53-2.53-2.53 1.13-2.53 2.53 1.13 2.53 2.53 2.53Zm0-3.55c.57 0 1.03.46 1.03 1.03 0 .57-.46 1.03-1.03 1.03-.57 0-1.03-.46-1.03-1.03 0-.57.46-1.03 1.03-1.03ZM20.1703 18.7299l-3.57-5.39h-5.2v-1.5h3.03c.41 0 .75-.34.75-.75s-.34-.75-.75-.75h-3.03v-1.76c0-.41-.34-.75-.75-.75s-.75.34-.75.75v6.26h5.9l3.12 4.72c.23.35.69.44 1.04.21.35-.23.44-.69.21-1.04Z"/>
  <path d="M5.29 14.69c0 2.95 2.4 5.35 5.36 5.35v-.01c2.18 0 4.04-1.3 4.88-3.16l.94 1.42c-1.21 1.94-3.36 3.24-5.82 3.24-3.79 0-6.86-3.06-6.86-6.85 0-3.05 2-5.63 4.76-6.52v1.6c-1.92.82-3.26 2.72-3.26 4.93Z"/>
</g></svg>