<svg xmlns="http://www.w3.org/2000/svg" data-laicon-version="15.0" viewBox="0 0 20 20" fill="black"><g transform="translate(-2 -2)">
  <path d="M21.78 8.34C19.17 5.7 15.69 4.25 12 4.25c-3.69 0-7.17 1.45-9.78 4.09-.29.29-.29.77 0 1.06.29.29.77.29 1.06 0C5.61 7.05 8.71 5.75 12 5.75c3.29 0 6.39 1.3 8.72 3.65.15.15.34.22.53.22s.38-.07.53-.22c.29-.29.3-.77 0-1.06Z"/>
  <path d="M5.2502 11.3901c1.7988-1.8288 4.1969-2.8387 6.745-2.84 2.5382.0013 4.9362 1.0112 6.735 2.84.3.3.3.77 0 1.06-.15.15-.34.2199-.53.2199s-.38-.0699-.53-.2199c-1.52-1.54-3.53-2.39-5.68-2.39s-4.16.85-5.68 2.39c-.29.29-.77.29-1.06 0-.29-.29-.29-.77 0-1.06Zm5.6297 6.5799c0-.62.5-1.12 1.12-1.12.62 0 1.12.5 1.12 1.12 0 .62-.5 1.12-1.12 1.12-.62 0-1.12-.5-1.12-1.12ZM8.23 14.37c1.01-1.04 2.3399-1.61 3.7699-1.61 1.43 0 2.77.57 3.77 1.61.28.3.28.77-.02 1.06-.14.14-.32.21-.52.21s-.39-.08-.54-.23c-1.44-1.48-3.94-1.48-5.38 0-.29.3-.76.31-1.06.02-.3-.29-.31-.76-.02-1.06Z"/>
</g></svg>