<svg xmlns="http://www.w3.org/2000/svg" data-laicon-version="15.0" viewBox="0 0 20 20" fill="black"><g transform="translate(-2 -2)">
  <path d="m10.5799 8.1 1.42 2.46 1.45-2.5h1.73l-.09.1499-1.79 3.1001h1.6v1.5h-2.15v.8999h2.15v1.5h-2.15V16.56h-1.5v-1.3501H9.0998v-1.5h2.1501V12.81H9.0998v-1.5h1.6001l-1.88-3.25h1.73l.03.04Z"/>
  <path d="M2.6499 12c0-5.16 4.19-9.35 9.35-9.35 5.16 0 9.35 4.19 9.35 9.35 0 5.16-4.19 9.3499-9.35 9.3499-5.16 0-9.35-4.1899-9.35-9.3499Zm1.5 0c0 4.33 3.52 7.8499 7.85 7.8499s7.85-3.5199 7.85-7.8499-3.52-7.85-7.85-7.85-7.85 3.52-7.85 7.85Z"/>
</g></svg>