<svg xmlns="http://www.w3.org/2000/svg" data-laicon-version="15.0" viewBox="0 0 20 20" fill="black"><g transform="translate(-2 -2)">
  <path d="m11.1703 10.63 1.2099-2.1h1.74l-1.65 2.85h1.25v1.51h-1.7999v.6h1.7999v1.5h-1.7999v1.1h-1.5v-1.1h-1.81v-1.5h1.81v-.6h-1.81v-1.51h1.26l-1.65-2.85h1.7199l.04.04 1.1901 2.06Z"/>
  <path d="M20.5302 12c0 .78-.1001 1.5501-.2901 2.3001 1.12.65 1.89 1.86 1.89 3.25 0 2.09-1.69 3.7799-3.78 3.7799-1.07 0-2.02-.44-2.71-1.14-1.35.73-2.87 1.14-4.44 1.14-5.14 0-9.33-4.19-9.33-9.33s4.19-9.33 9.33-9.33 9.3301 4.19 9.3301 9.33Zm-17.16 0c0 4.32 3.5099 7.83 7.8299 7.83 1.28 0 2.52-.3299 3.64-.9099-.17-.42-.27-.88-.27-1.37 0-2.08 1.69-3.77 3.78-3.77.1216 0 .2375.0172.352.0343.0361.0054.0721.0108.1081.0156.14-.6.22-1.21.22-1.83 0-4.32-3.5101-7.83-7.8301-7.83s-7.83 3.51-7.83 7.83Zm14.54 7.0601.63.6399 2.1499-2.1499-2.1499-2.14-.63.63L18.9701 17.1h-2.8199v.9h2.8199l-1.0599 1.0601Z"/>
</g></svg>