<svg xmlns="http://www.w3.org/2000/svg" data-laicon-version="5.0" viewBox="0 0 20 20" fill="black"><g transform="translate(-2 -2)">
  <path d="M20.219 19.2002c-.115-.014-.868-.047-2.376-1.745 1.355.387 2.127.891 2.411 1.355.04.066.127.228.074.329-.02.04-.032.058-.109.061m-8.258-4c-.793 0-1.523.022-2.194.065.26-.402.525-.826.793-1.271.545-.903 1.026-1.752 1.441-2.547.416.795.896 1.644 1.441 2.547.27.447.535.872.796 1.275-.694-.045-1.451-.069-2.277-.069m-.24-10.271c.033-.057.074-.129.28-.129.207 0 .248.072.281.129.055.099.326.715-.281 2.553-.606-1.838-.335-2.455-.28-2.553m-7.938 14.271c-.076-.003-.088-.021-.108-.06-.057-.109.022-.267.073-.352.284-.464 1.061-.968 2.429-1.353-1.52 1.719-2.252 1.769-2.394 1.765m17.836-1.224c-.474-.777-1.771-1.948-5.306-2.487-.457-.652-.957-1.42-1.501-2.321-.841-1.394-1.467-2.562-1.93-3.539 1.132-2.573 1.4-4.411.793-5.486-.344-.608-.938-.943-1.674-.943s-1.33.335-1.673.943c-.607 1.076-.339 2.913.793 5.486-.464.977-1.09 2.145-1.931 3.539-.541.897-1.038 1.661-1.493 2.311-3.546.531-4.841 1.7-5.314 2.475-.385.631-.433 1.33-.131 1.917.291.567.829.906 1.477.928.023.001.046.001.069.001 1.318 0 2.924-1.282 4.791-3.82.966-.114 2.086-.18 3.372-.18 1.323 0 2.471.07 3.459.189 1.897 2.576 3.503 3.887 4.854 3.81.647-.022 1.186-.36 1.477-.928.298-.579.25-1.27-.132-1.895"/>
</g></svg>