<svg xmlns="http://www.w3.org/2000/svg" data-laicon-version="5.0" viewBox="0 0 20 20" fill="black"><g transform="translate(-2 -2)">
  <path d="M19.5 3.35c.634 0 1.15.516 1.15 1.15v15c0 .634-.516 1.15-1.15 1.15h-15c-.634 0-1.15-.516-1.15-1.15v-15c0-.634.516-1.15 1.15-1.15Zm-8.245 5.412H9.727l-2.29 6.595h1.246l.518-1.648h2.533l.518 1.648h1.298l-2.295-6.595Zm4.319 1.747h-1.176v4.848h1.176v-4.848Zm-5.0174-.6467.935 2.981h-2.047l.911-2.912.055-.069h.146ZM14.981 8.413c-.339 0-.617.273-.617.608 0 .333.278.606.617.606.34 0 .617-.273.617-.606 0-.335-.277-.608-.617-.608Z"/>
</g></svg>