<svg xmlns="http://www.w3.org/2000/svg" data-laicon-version="5.5" viewBox="0 0 20 20" fill="black"><g transform="translate(-2 -2)">
  <path d="M15.4 11.472a1.172 1.172 0 0 1 .155.028v2.559a.91.91 0 0 1-.206.037c-.082.007-.163.01-.244.01a1.563 1.563 0 0 1-.484-.075 1.01 1.01 0 0 1-.393-.234 1.152 1.152 0 0 1-.263-.413 1.633 1.633 0 0 1-.1-.6 1.208 1.208 0 0 1 .684-1.172 1.447 1.447 0 0 1 .656-.15c.068.001.132.004.195.01zM20.65 4.5v15a1.15 1.15 0 0 1-1.15 1.15h-15a1.15 1.15 0 0 1-1.15-1.15v-15A1.15 1.15 0 0 1 4.5 3.35h15a1.15 1.15 0 0 1 1.15 1.15zm-8.095 10.587a.1.1 0 0 0-.01-.07l-1.865-3.056 1.744-2.878a.055.055 0 0 0 .018-.055.054.054 0 0 0-.065-.039h-1.229a.13.13 0 0 0-.075.011.138.138 0 0 0-.038.062c-.125.242-.254.488-.388.736s-.265.491-.394.735-.256.494-.38.75h-.009q-.179-.374-.389-.74T9.058 9.8c-.137-.25-.262-.5-.375-.75A.165.165 0 0 0 8.627 9a.218.218 0 0 0-.084-.014H7.221a.068.068 0 0 0-.056.024c-.013.017-.01.037.009.062l1.763 2.98-1.809 2.973a.091.091 0 0 0-.014.066c0 .025.016.015.042.015h1.283c.063 0 .107-.006.132-.062q.207-.366.4-.736c.131-.247.264-.5.4-.745s.263-.5.389-.75h.01q.206.382.418.76t.4.735q.188.361.375.727c.037.062.1.066.2.066h1.331c.033-.007.055.007.061-.014zm4.332-.323c-.006-.1-.014-.213-.023-.337s-.014-.241-.014-.347V8.539a.033.033 0 0 0 0-.014.05.05 0 0 0-.056-.043h-1.181q-.057 0-.057.066V10.4a4.101 4.101 0 0 0-.178-.014 2.985 2.985 0 0 0-1.593.333 2.335 2.335 0 0 0-.929.9 2.436 2.436 0 0 0-.319 1.228 2.532 2.532 0 0 0 .319 1.327 1.99 1.99 0 0 0 .877.792 2.916 2.916 0 0 0 1.251.262 5.043 5.043 0 0 0 .9-.084 4.659 4.659 0 0 0 .946-.282.094.094 0 0 0 .057-.098z"/>
</g></svg>