<svg xmlns="http://www.w3.org/2000/svg" data-laicon-version="5.0" viewBox="0 0 20 20" fill="black"><g transform="translate(-2 -2)">
  <path d="M19.4998 3.35c.634 0 1.151.516 1.151 1.15v15c0 .634-.517 1.15-1.151 1.15h-15c-.634 0-1.15-.516-1.15-1.15v-15c0-.634.516-1.15 1.15-1.15Zm-4.761 7.125c-1.156 0-1.904.553-1.904 1.409 0 .665.443 1.096 1.314 1.281l.818.17c.37.085.712.217.712.603 0 .372-.351.612-.895.612-.651 0-.893-.332-.976-.643h-1.08c.132.854.891 1.36 2.056 1.36 1.193 0 1.995-.588 1.995-1.463 0-.658-.386-1.007-1.333-1.206l-.816-.175c-.345-.073-.74-.209-.74-.61 0-.373.341-.623.849-.623.481 0 .818.248.899.652h1.009c-.077-.847-.798-1.367-1.908-1.367Zm-4.705-1.554h-2.521v6.242h1.149v-2.031h1.305c1.315 0 2.2-.847 2.2-2.106 0-1.258-.857-2.105-2.133-2.105Zm-.3567.8673c.826 0 1.318.465 1.318 1.243 0 .781-.494 1.247-1.322 1.247h-1.011v-2.49Z"/>
</g></svg>