<svg xmlns="http://www.w3.org/2000/svg" data-laicon-version="11.2" viewBox="0 0 20 20" fill="black"><g transform="translate(-2 -2)">
  <path d="M15.897 7.184c-.1.744-.45 1.458-.882 2.095-.705 1.04-1.692 1.961-2.327 2.552 2.236.56 4.87.41 7.294-.451a8.21 8.21 0 0 0 .953-3.48l.188-4.112c.032-.68-.789-1.041-1.27-.56l-3.956 3.956Zm-3.287 3.759c.436-2.167.424-4.32-.165-6.248.31.233.606.489.884.766l1.838 1.838c-.112.528-.377 1.065-.732 1.588-.538.793-1.239 1.5-1.825 2.056Zm-5.247-2.66c.645.122 1.267.42 1.832.78 1.06.675 2.009 1.636 2.617 2.255.609-2.59.554-5.118-.336-7.247A8.209 8.209 0 0 0 7.9 3.065l-4.112-.188a.744.744 0 0 0-.56 1.27l4.135 4.136Z"/>
  <path d="M14.804 14.937c.566.36 1.188.658 1.833.78l4.136 4.136a.745.745 0 0 1-.561 1.27l-4.112-.188a8.208 8.208 0 0 1-3.48-.953c-.863-2.428-1.011-5.065-.449-7.303a.7.7 0 1 1 .01-.003c.609.619 1.56 1.583 2.623 2.261Z"/>
  <path d="M11.364 13.081c-.39 1.992-.275 4.216.338 6.332a8.21 8.21 0 0 1-1.03-.874l-1.84-1.838c.113-.528.378-1.064.733-1.587.53-.783 1.219-1.48 1.8-2.033Zm-3.261 3.735c.1-.744.45-1.458.882-2.095.705-1.04 1.692-1.961 2.327-2.552-2.236-.56-4.87-.41-7.294.452a8.209 8.209 0 0 0-.953 3.479l-.188 4.112c-.032.68.789 1.041 1.27.56l3.956-3.956Zm2.757-5.463c-1.978-.376-4.178-.258-6.273.35.261-.366.553-.71.874-1.032L7.173 8.96c.543.091 1.1.345 1.646.693.777.496 1.479 1.144 2.04 1.7Zm2.28 1.294c1.978.376 4.178.258 6.273-.35-.261.366-.553.71-.874 1.032l-1.712 1.711c-.543-.091-1.1-.345-1.646-.693-.777-.496-1.479-1.144-2.04-1.7Z"/>
</g></svg>