<svg xmlns="http://www.w3.org/2000/svg" data-laicon-version="5.11" viewBox="0 0 20 20" fill="black"><g transform="translate(-2 -2)">
  <path d="m8.44 9.154 3.9 2.254a.65.65 0 0 1 .324.563v4.451L8.44 13.981zm0 5.981v4.5l3.244 1.873a.649.649 0 0 0 .984-.558v-3.374zm-1-6.535h.041L4.566 6.917a.65.65 0 0 0-.975.563v8.981a.646.646 0 0 0 .325.562l3.524 2.036zm11.706-.745v9.752l1.3-.748V7.105l-8.427-4.857L10.716 3zm-9.68-4.14-1.3.75 8.45 4.869v9.73l1.3-.748V8.584zm5.807 6.375L6.837 5.229l-1.3.749 8.44 4.864v9.741l1.3-.747z"/>
</g></svg>