<svg xmlns="http://www.w3.org/2000/svg" data-laicon-version="5.0" viewBox="0 0 20 20" fill="black"><g transform="translate(-2 -2)">
  <path d="M4.0504 18.3635c1.0042 0 1.8183.814 1.8183 1.8183 0 1.0041-.814 1.8182-1.8183 1.8182-1.0042 0-1.8182-.814-1.8182-1.8182s.814-1.8183 1.8182-1.8183Zm4.0866 0c1.0042 0 1.8183.814 1.8183 1.8183C9.9553 21.1859 9.1412 22 8.137 22s-1.8182-.814-1.8182-1.8182.814-1.8183 1.8182-1.8183Zm4.0866 0c1.0042 0 1.8182.814 1.8182 1.8183 0 1.0041-.814 1.8182-1.8182 1.8182s-1.8183-.814-1.8183-1.8182.814-1.8183 1.8183-1.8183Zm4.0903.4508c.7552 0 1.3674.6122 1.3674 1.3675 0 .7552-.6122 1.3674-1.3674 1.3674s-1.3674-.6122-1.3674-1.3674c0-.7553.6122-1.3675 1.3674-1.3675ZM4.0504 14.2704c1.0042 0 1.8183.814 1.8183 1.8183 0 1.0041-.814 1.8182-1.8183 1.8182-1.0042 0-1.8182-.814-1.8182-1.8182s.814-1.8183 1.8182-1.8183Zm12.2635 0c1.0042 0 1.8183.814 1.8183 1.8183 0 1.0041-.814 1.8182-1.8183 1.8182-1.0042 0-1.8182-.814-1.8182-1.8182s.814-1.8183 1.8182-1.8183Zm4.0865.4508c.7552 0 1.3674.6122 1.3674 1.3675 0 .7552-.6122 1.3674-1.3674 1.3674s-1.3674-.6122-1.3674-1.3674c0-.7553.6122-1.3675 1.3674-1.3675Zm-16.35-4.5439c1.0042 0 1.8183.814 1.8183 1.8183 0 1.0041-.814 1.8182-1.8183 1.8182-1.0042 0-1.8182-.814-1.8182-1.8182s.814-1.8183 1.8182-1.8183Zm12.2635 0c1.0042 0 1.8183.814 1.8183 1.8183 0 1.0041-.814 1.8182-1.8183 1.8182-1.0042 0-1.8182-.814-1.8182-1.8182s.814-1.8183 1.8182-1.8183Zm4.0865.4508c.7552 0 1.3674.6122 1.3674 1.3675 0 .7552-.6122 1.3674-1.3674 1.3674s-1.3674-.6122-1.3674-1.3674c0-.7553.6122-1.3675 1.3674-1.3675Zm-16.35-4.535c1.0042 0 1.8183.814 1.8183 1.8182s-.814 1.8183-1.8183 1.8183c-1.0042 0-1.8182-.814-1.8182-1.8183 0-1.0041.814-1.8182 1.8182-1.8182Zm12.2635-.0089c1.0042 0 1.8183.814 1.8183 1.8182s-.814 1.8183-1.8183 1.8183c-1.0042 0-1.8182-.814-1.8182-1.8183 0-1.0041.814-1.8182 1.8182-1.8182Zm4.0865.4508c.7552 0 1.3674.6122 1.3674 1.3674 0 .7553-.6122 1.3675-1.3674 1.3675s-1.3674-.6122-1.3674-1.3675c0-.7552.6122-1.3674 1.3674-1.3674ZM4.0504 2c1.0042 0 1.8183.814 1.8183 1.8182s-.814 1.8183-1.8183 1.8183c-1.0042 0-1.8182-.814-1.8182-1.8183C2.2322 2.8141 3.0462 2 4.0504 2ZM8.137 2c1.0042 0 1.8183.814 1.8183 1.8182S9.1412 5.6365 8.137 5.6365s-1.8182-.814-1.8182-1.8183C6.3188 2.8141 7.1328 2 8.137 2Zm4.0866 0c1.0042 0 1.8182.814 1.8182 1.8182s-.814 1.8183-1.8182 1.8183-1.8183-.814-1.8183-1.8183c0-1.0041.814-1.8182 1.8183-1.8182Zm4.0903.4508c.7552 0 1.3674.6122 1.3674 1.3674 0 .7553-.6122 1.3675-1.3674 1.3675s-1.3674-.6122-1.3674-1.3675c0-.7552.6122-1.3674 1.3674-1.3674Z"/>
</g></svg>