<svg xmlns="http://www.w3.org/2000/svg" data-laicon-version="5.0" viewBox="0 0 20 20" fill="black"><g transform="translate(-2 -2)">
  <path d="M3.1407 7.858a.3.3 0 0 1 .4098-.1099l7.669 4.4266a.8.8 0 0 1 .4.6929v.9753a.3.3 0 0 1-.4485.2606l-4.212-2.3998a.3.3 0 0 0-.4486.2606v.844a1 1 0 0 0 .501.8666l4.1071 2.3649a1 1 0 0 1 .501.8666v4.793a.3.3 0 0 1-.4494.2601L3.753 17.6988a1.3 1.3 0 0 1-.6525-1.1272v-.7167a.3.3 0 0 1 .4477-.2611l4.2386 2.3968a.3.3 0 0 0 .4477-.2611v-.6479a1.3 1.3 0 0 0-.6537-1.128l-3.9775-2.279a1 1 0 0 1-.5028-.8677V8.008a.3.3 0 0 1 .0402-.15Zm17.4588-.263a.3.3 0 0 1 .3.3v.8588a1 1 0 0 1-.4961.8637l-4.1136 2.3996a1 1 0 0 0-.4961.8638v.8245a.3.3 0 0 0 .4483.2608l4.2092-2.393a.3.3 0 0 1 .4483.2608v.8656a1 1 0 0 1-.5027.8675l-4.1087 2.3553a1 1 0 0 0-.5025.8533l-.012.8366a.3.3 0 0 0 .4468.266l4.2323-2.3745a.3.3 0 0 1 .4468.2616v.8375a1 1 0 0 1-.4995.8657l-7.5476 4.3638a.3.3 0 0 1-.4501-.2597v-8.72a1 1 0 0 1 .5005-.8664l7.5469-4.3512a.3.3 0 0 1 .1498-.0401Zm-6.214-3.7333a1 1 0 0 1 1.0214.0032l4.3838 2.6222a.3.3 0 0 1-.0025.5164l-7.1444 4.1784a1.3 1.3 0 0 1-1.3083.0025l-4.506-2.6122a.3.3 0 0 1 .0165-.528l.7227-.3606a1 1 0 0 1 .9497.0306l1.775 1.0337a1.3 1.3 0 0 0 1.2889.0111l4.1873-2.3426a.3.3 0 0 0 .0041-.5213l-1.9939-1.1572a.3.3 0 0 1-.0018-.5179ZM12.795 2.1843l1.589.9484a.3.3 0 0 1-.0085.5201L6.687 7.9071a1.3 1.3 0 0 1-1.283-.0137L4.0139 7.085a.33.33 0 0 1 0-.5705l7.4615-4.3378a1.3 1.3 0 0 1 1.3196.0077Z"/>
</g></svg>