<svg xmlns="http://www.w3.org/2000/svg" data-laicon-version="5.0" viewBox="0 0 20 20" fill="black"><g transform="translate(-2 -2)">
  <path d="M22 2v20H2V2h20Zm-1.8008 7.3244h-6.6805v1.1768h2.5681v4.1744h1.533v-4.1744h2.5794V9.3244Zm-9.8668.083H3.8008v5.2323h6.5316V13.488H5.2855v-2.9268h5.0469V9.4073Zm2.2941.0282h-1.4737v5.204h1.4737v-5.204Zm-4.828 1.7303c-.5076.6124-1.3897.7528-1.9604.8576.9803.1786 1.4528.2965 1.9604.8506.5218-.6147 1.318-.7255 1.9188-.8541-.3741-.0743-1.397-.2085-1.9188-.854Z"/>
</g></svg>