<svg xmlns="http://www.w3.org/2000/svg" data-laicon-version="11.2" viewBox="0 0 20 20" fill="black"><g transform="translate(-2 -2)">
  <path d="M19.616 3.351a1.351 1.351 0 1 1-2.703 0 1.351 1.351 0 0 1 2.703 0Zm-7.658 13.964c3.466 0 6.452-1.301 7.797-3.173a8.112 8.112 0 0 1-15.594 0c1.346 1.872 4.33 3.173 7.797 3.173Zm0-10.81c3.466 0 6.452 1.301 7.797 3.173a8.112 8.112 0 0 0-15.594 0c1.346-1.872 4.33-3.174 7.797-3.174ZM4.3 6.054a.9.9 0 1 0 0-1.802.9.9 0 0 0 0 1.802ZM5.742 22a1.441 1.441 0 1 0 0-2.883 1.441 1.441 0 0 0 0 2.883Z"/>
</g></svg>