<svg xmlns="http://www.w3.org/2000/svg" data-laicon-version="5.1" viewBox="0 0 20 20" fill="black"><g transform="translate(-2 -2)">
  <path d="M17.8 15.429a2.464 2.464 0 0 1-4.928 0 2.409 2.409 0 0 1 .058-.52l-1.2-.728a3.174 3.174 0 0 1-1.661.916v1.454a2.465 2.465 0 1 1-1.3 0v-1.466a3.177 3.177 0 0 1 0-6.211V7.413a2.465 2.465 0 1 1 1.3 0v1.449a3.168 3.168 0 0 1 1.771 1.045l1.136-.686a2.429 2.429 0 0 1-.1-.669 2.478 2.478 0 1 1 .774 1.784l-1.174.709a2.949 2.949 0 0 1-.051 2.032l1.117.679a2.456 2.456 0 0 1 4.258 1.673z"/>
</g></svg>