<svg xmlns="http://www.w3.org/2000/svg" data-laicon-version="10.1" viewBox="0 0 20 20" fill="black"><g transform="translate(-2 -2)">
  <path d="M16.504 12.174c.226.238.34.551.34.939s-.114.705-.34.95c-.227.247-.525.37-.894.37s-.668-.123-.894-.37c-.227-.245-.34-.562-.34-.95s.113-.7.34-.94c.226-.246.524-.369.894-.369s.668.123.894.37ZM22 2v20H2V2h20ZM11.56 14.237c0-.114-.058-.172-.174-.172H7.663V7.883c0-.122-.062-.183-.185-.183H5.685c-.123 0-.185.06-.185.183v8.022c0 .122.062.183.185.183h5.701c.116 0 .174-.06.174-.183v-1.668Zm7.162-3.92c0-.112-.06-.168-.18-.168h-1.427c-.12 0-.181.056-.181.168l-.023.525a2.0375 2.0375 0 0 0-.78-.592c-.32-.146-.668-.219-1.02-.213-.558 0-1.048.13-1.47.392-.416.253-.74.611-.974 1.073-.234.455-.35.992-.35 1.611 0 .611.116 1.152.35 1.622.234.462.558.824.973 1.085.423.253.913.38 1.472.38.762 0 1.362-.272 1.8-.816l.022.525c0 .12.06.18.181.18h1.426c.12 0 .181-.06.181-.18v-5.592Z"/>
</g></svg>