<svg xmlns="http://www.w3.org/2000/svg" data-laicon-version="5.0" viewBox="0 0 20 20" fill="black"><g transform="translate(-2 -2)">
  <path d="M22 2.0003v19.9994H2V2.0003h20Zm-6.6763 7.8474h-.0841c-.2953 0-1.1369.0488-1.6717.4342-.5349.3854-.7744.8949-.7744 1.6395h1.4424l.0089-.0957c.0403-.2268.2098-.469.3443-.5692.1536-.1145.4016-.2137.6674-.2137.2657 0 .655.0505.8296.2137.1747.1633.2158.2885.2158.4145 0 .13-.0777.3313-.182.4238-.1044.0926-.3824.1593-.5613.1995-.2204.0352-1.451.1881-1.8145.354-.2185.0905-.6936.2754-.9506.7809-.2569.5055-.2569 1.3246-.1174 1.5929l.1033.2064c.0796.1565.161.2848.3779.4621.3757.3097 1.0478.3865 1.6735.3685.1587 0 .6654-.1366.819-.2075.1536-.0708.47-.2133.693-.4782 0 0 .031.4143.0959.5266.0185.0025.0889.004.1895.0047l.5126-.0002c.2381-.001.4802-.0028.6263-.0038l.128-.0007v-3.9978l-.0025-.08c-.023-.3807-.2056-1.1834-.8017-1.5699-.642-.4161-1.5284-.4046-1.8513-.4046ZM7.7665 7.9429H6.1118V15.9h5.6077v-1.4636h-3.953V7.9429Zm8.5644 5.0693-.0265.8144-.0377.154c-.114.3875-.332.5922-.5823.755-.2816.183-.612.2063-.8837.2063-.5062-.0232-.6543-.367-.6543-.678 0-.2102.1016-.4623.2531-.5683.1516-.106.355-.1968.5262-.248.1713-.0512.3711-.085.5332-.1145.162-.0295.4032-.0852.5489-.1285.1457-.0433.2267-.1325.323-.1924Z"/>
</g></svg>