<svg xmlns="http://www.w3.org/2000/svg" data-laicon-version="5.0" viewBox="0 0 20 20" fill="black"><g transform="translate(-2 -2)">
  <path d="M20.7506 7.2093v12.337c0 .664-.54 1.204-1.204 1.204H7.2086V7.2093h13.542ZM6.2094 7.209V20.75h-1.756c-.664 0-1.204-.54-1.204-1.204V7.209h2.96Zm6.2152 3.5713h-1.68l2.153 3.066v.036l-2.167 3.115h1.542l1.506-2.176h.037l1.495 2.176h1.627l-2.205-3.094v-.03l2.234-3.093h-1.595l-1.461 2.239h-.039l-1.447-2.239ZM6.2085 3.2501v2.959h-2.959v-1.755c0-.664.54-1.204 1.204-1.204h1.755ZM19.5469 3.25c.664 0 1.204.54 1.204 1.204v1.755H7.2089V3.25Z"/>
</g></svg>