<svg xmlns="http://www.w3.org/2000/svg" data-laicon-version="5.1" viewBox="0 0 20 20" fill="black"><g transform="translate(-2 -2)">
  <path d="M6.2 14.638a2.1 2.1 0 1 1-2.1-2.1h2.1zm1.059 0a2.1 2.1 0 0 1 4.2 0V19.9a2.1 2.1 0 1 1-4.2 0zM9.362 6.2a2.1 2.1 0 1 1 2.1-2.1v2.1zm0 1.059a2.1 2.1 0 0 1 0 4.2H4.1a2.1 2.1 0 1 1 0-4.2zm8.436 2.1a2.1 2.1 0 1 1 2.1 2.1H17.8v-2.1zm-1.059 0a2.1 2.1 0 0 1-4.2 0V4.1a2.1 2.1 0 1 1 4.2 0zm-2.1 8.436a2.1 2.1 0 1 1-2.1 2.1V17.8zm0-1.059a2.1 2.1 0 0 1 0-4.2H19.9a2.1 2.1 0 1 1 0 4.2z"/>
</g></svg>