<svg xmlns="http://www.w3.org/2000/svg" data-laicon-version="15.4" viewBox="0 0 20 20" fill="black"><g transform="translate(-2 -2)">
  <path d="M12 3.35a8.65 8.65 0 1 0 0 17.3 8.65 8.65 0 0 0 0-17.3Zm-1.64 4.894c.099-.004.186-.009.257-.013 1.971.02 3.683.252 5.333.854a8.52 8.52 0 0 1 1.549.732.737.737 0 0 1 .046 1.235c-.245.175-.517.204-.777.053-1.335-.77-2.793-1.125-4.308-1.291a14.711 14.711 0 0 0-3.313.007c-.568.066-1.13.17-1.68.335-.425.127-.839-.087-.959-.49-.12-.404.108-.809.532-.936a11.18 11.18 0 0 1 2.326-.425c.36-.029.721-.047.994-.06Zm.103 2.76.195.001c1.71-.003 3.359.306 4.915 1.037.289.135.57.293.846.454a.611.611 0 0 1 .23.852.617.617 0 0 1-.868.205c-1.076-.646-2.248-1.012-3.482-1.196a10.656 10.656 0 0 0-3.566.05c-.299.057-.594.136-.888.215-.36.098-.704-.075-.803-.412-.098-.335.09-.667.443-.774a10.47 10.47 0 0 1 2.566-.43c.137-.006.274-.004.412-.002Zm.134 2.605h.16c1.387-.012 2.723.234 3.982.835.25.121.494.257.735.396.262.152.34.445.193.689-.147.246-.445.313-.707.156-1.036-.626-2.162-.957-3.362-1.06-1.218-.104-2.415.029-3.601.295-.249.055-.456-.023-.576-.221a.468.468 0 0 1 .046-.563.59.59 0 0 1 .276-.169c.824-.199 1.661-.32 2.51-.356.114-.005.229-.004.344-.002Z"/>
</g></svg>