<svg xmlns="http://www.w3.org/2000/svg" data-laicon-version="15.4" viewBox="0 0 20 20" fill="black"><g transform="translate(-2 -2)">
  <path d="M10.044 20.33c-.27 0-1.68-.02-2.95-.89a6.03 6.03 0 0 1-1.27-1.2c-.45-.57-.71-1.23-.79-1.42-.12-.37-.37-1.2-.33-2.01.05-1.3.47-2.16.65-2.47.32-.58.74-1.1 1.25-1.54a5.432 5.432 0 0 1 3.91-1.26l.6.04v3.51l-.76-.12c-1.17-.18-2.28.76-2.28 1.96 0 1.09.88 1.98 1.97 1.98.34 0 .67-.09.96-.25.28-.16.52-.39.7-.66.17-.27.28-.59.3-.91V3.65h3.42l.06.97c.07.42.27 1.07.83 1.7a3.691 3.691 0 0 0 1.02.78c.63.31 1.17.37 1.31.38l.6.04v3.42l-.7-.06c-.39-.03-.95-.09-1.42-.22-.87-.23-1.47-.56-1.67-.68v4.99c0 .36-.1 1.2-.35 1.88-.23.6-.56 1.15-.98 1.63-.06.08-.71.84-1.81 1.36-.97.46-1.83.48-2.16.49h-.11Z"/>
</g></svg>