<svg xmlns="http://www.w3.org/2000/svg" data-laicon-version="15.3" viewBox="0 0 20 20" fill="black"><g transform="translate(-2 -2)">
  <path d="M8.648 19.636c6.796 0 10.513-5.632 10.513-10.513 0-.161 0-.322-.008-.475A7.57 7.57 0 0 0 21 6.732a7.5 7.5 0 0 1-2.123.582 3.693 3.693 0 0 0 1.625-2.046 7.482 7.482 0 0 1-2.345.897A3.677 3.677 0 0 0 15.46 5a3.695 3.695 0 0 0-3.694 3.693c0 .292.03.575.1.843a10.482 10.482 0 0 1-7.617-3.862 3.707 3.707 0 0 0-.498 1.855c0 1.28.651 2.414 1.647 3.072a3.63 3.63 0 0 1-1.67-.46v.047a3.7 3.7 0 0 0 2.965 3.624 3.683 3.683 0 0 1-1.67.062 3.69 3.69 0 0 0 3.448 2.567A7.428 7.428 0 0 1 3 17.965a10.295 10.295 0 0 0 5.648 1.671z"/>
</g></svg>