<svg xmlns="http://www.w3.org/2000/svg" data-laicon-version="15.5" viewBox="0 0 20 20" fill="black"><g transform="translate(-2 -2)">
  <path d="m20.826 4.546-3.912-1.88a1.14 1.14 0 0 0-.289-.093l-.034-.008c-.03-.005-.063-.007-.093-.01-.029-.001-.06-.005-.088-.005h-.062c-.042 0-.084.006-.126.011-.011 0-.022.004-.032.006a1.176 1.176 0 0 0-.63.327L8.073 9.723 4.813 7.25a.777.777 0 0 0-.513-.16.78.78 0 0 0-.498.206l-1.046.951a.787.787 0 0 0-.25.506.788.788 0 0 0 .249.665l2.827 2.578-2.828 2.58a.786.786 0 0 0-.241.425.817.817 0 0 0-.008.235.8.8 0 0 0 .25.51l1.047.95a.795.795 0 0 0 1.01.046l3.261-2.473 7.485 6.828c.117.117.258.207.406.266.127.049.264.076.4.08h.037c.044 0 .09-.003.133-.008l.09-.015c.022-.004.043-.01.066-.016.034-.007.066-.019.1-.03 0 0 .004 0 .006-.002.04-.013.08-.028.12-.045l3.912-1.883c.41-.197.672-.613.672-1.069V5.62c0-.46-.262-.875-.672-1.073h-.002Zm-4.083 3.143v8.609l-5.675-4.306 5.675-4.305v.002Z"/>
</g></svg>