<svg xmlns="http://www.w3.org/2000/svg" data-laicon-version="12.0" viewBox="0 0 20 20" fill="black"><g transform="translate(-2 -2)">
  <path d="M14.904 14.126c-2.201.856-4.536 1.559-6.407 1.927-.921.182-1.616.259-2.151.269.529.455 1.263.823 2.187 1.106.668.173 1.392.275 2.171.275 1.43 0 3.004-.289 4.572-.862 4.086-1.493 6.751-4.404 6.564-6.954-1.204 1.443-4.051 3.117-6.935 4.239Z"/>
  <path d="M13.163 10.111c-4.371 1.701-7.575 4.492-7.615 5.179l.01.019c.504.3 4.336-.307 8.982-2.115 4.571-1.779 6.918-4.003 6.906-4.554-.124-.125-.494-.197-1.062-.197-1.431 0-4.111.458-7.223 1.668Z"/>
  <path d="M5.289 13.883c.395-.442.944-.93 1.653-1.465 1.669-1.259 3.804-2.439 5.857-3.238 2.086-.812 4.303-1.407 6.081-1.632.621-.079 1.149-.107 1.606-.095-.266-.207-.555-.399-.89-.556-2.001-.935-4.939-.854-7.854.211-2.666.974-4.717 2.554-5.778 4.242-.422.959-.654 1.803-.676 2.533Z"/>
  <path d="M4.678 15.778a.7817.7817 0 0 1-.03-.057c-.005-.012-.013-.023-.019-.035l-.008-.021c-.005-.011-.011-.022-.016-.034-.003-.007-.002-.015-.004-.022-.447-1.06-.408-2.321.113-3.819l-1.99.727c-.157.057-.482.174-.557.51l-.025.315 1.803 2.078c.13.149.2.342.196.54l-.045 2.506c-.003.196.092.382.252.496l.305.164 2.799-1.022c-1.359-.55-2.293-1.328-2.773-2.327Zm12.537 2.897c-.631 0-1.39-.435-2.389-1.366-1.034-.964-2.214-2.37-3.322-3.959-1.106-1.585-2.02-3.179-2.57-4.487-.463-1.1-.969-2.638-.021-3.303.729-.51 1.83-.1 3.381 1.427l-.912.927c-1.141-1.123-1.639-1.252-1.745-1.268.029.059-.019.491.495 1.712.518 1.226 1.384 2.735 2.439 4.248 1.058 1.517 2.173 2.849 3.143 3.752.859.802 1.284.972 1.437 1.008.025-.203-.034-.77-.517-1.877l1.191-.52c.51 1.169 1.073 2.802.094 3.49-.201.141-.444.216-.703.216Z"/>
  <path d="M13.998 19.849c-1.095 0-1.667-1.456-2.002-2.551-.415-1.354-.736-3.163-.904-5.095-.169-1.928-.165-3.767.009-5.176.146-1.185.476-2.771 1.631-2.873l.103-.005c1.131 0 1.721 1.569 2.066 2.749l-1.248.365c-.365-1.248-.679-1.653-.807-1.774-.097.131-.312.542-.454 1.697-.164 1.322-.166 3.062-.005 4.903.16 1.844.463 3.559.852 4.827.342 1.115.626 1.481.743 1.593.112-.152.388-.681.519-2.298l1.295.105c-.118 1.46-.422 3.414-1.696 3.526l-.101.005Z"/>
</g></svg>