<svg xmlns="http://www.w3.org/2000/svg" data-laicon-version="15.0" viewBox="0 0 20 20" fill="black"><g transform="translate(-2 -2)">
  <path d="M5.061 4.5907c0-.636.5159-1.1506 1.151-1.1506h13.7522c.6352 0 1.1511.5147 1.1511 1.1506v14.8185c0 .6359-.5159 1.1506-1.1511 1.1506H6.2121c-.6354 0-1.151-.5148-1.151-1.1506V4.5907Zm3.473 10.9002v.9384h9.1089v-.9384c0-.4072-.5036-.8972-.8447-1.1195l-2.3799-1.6472c-.2221-.1558-.1549-.9143.0766-1.1341.1552-.2452.3262-.526.5764-.9916a1.916 1.916 0 0 0 .0111-.0063c.0813-.0457.3489-.1961.4211-.688.0355-.2442-.1085-.6737-.1664-.7507a.1269.1269 0 0 1 .0004-.009.0874.0874 0 0 0 .0005-.0091c0-1.2894-1.0868-2.3299-2.2437-2.3299-1.1568 0-2.2722 1.0405-2.2722 2.3299 0 .0032.0002.0061.0004.009a.0866.0866 0 0 1 .0005.009c-.058.077-.1853.5066-.1498.7507.0731.4989.3319.6466.4079.69l.0077.0044c.2502.4656.4211.7464.5763.9916.2528.2198.3201.9833.1052 1.1341l-2.38 1.6472c-.341.2223-.8563.7123-.8563 1.1195Z"/>
  <path d="M2.8901 14.7981H6.371v1.3H2.8901v-1.3Zm0-6.7861H6.371v1.3H2.8901v-1.3Z"/>
</g></svg>