<svg xmlns="http://www.w3.org/2000/svg" data-laicon-version="15.0" viewBox="0 0 20 20" fill="black"><g transform="translate(-2 -2)">
  <path d="M14.4602 9.7695c0-.564.457-1.021 1.021-1.021.564 0 1.021.457 1.021 1.021 0 .564-.457 1.021-1.021 1.021-.564 0-1.021-.457-1.021-1.021Zm1.058 5.251h-6.564l3.282-5.116 3.282 5.116Zm4.006-11.57H5.8002c-.634 0-1.15.515-1.15 1.15v3.416h-2.199v1.299h2.199v5.489h-2.199v1.3h2.199v3.295c0 .635.516 1.15 1.15 1.15h13.724c.634 0 1.15-.515 1.15-1.15V4.6005c0-.635-.516-1.15-1.15-1.15Z"/>
</g></svg>