<svg xmlns="http://www.w3.org/2000/svg" data-laicon-version="15.0" viewBox="0 0 20 20" fill="black"><g transform="translate(-2 -2)">
  <path d="M8.3335 11.1665c0-2.021 1.645-3.667 3.667-3.667 2.021 0 3.666 1.646 3.666 3.667 0 1.283-.666 2.411-1.666 3.066v2.229c2.139-.81 3.666-2.875 3.666-5.295 0-3.125-2.542-5.667-5.666-5.667-3.125 0-5.667 2.542-5.667 5.667 0 2.42 1.527 4.485 3.667 5.295v-2.229c-1.001-.655-1.667-1.783-1.667-3.066Z"/>
  <path d="M12 2.1665c-4.962 0-9 4.038-9 9 0 4.274 2.998 7.855 7 8.768v-2.063c-2.888-.863-5-3.54-5-6.705 0-3.86 3.14-7 7-7s7 3.14 7 7c0 3.165-2.112 5.842-5 6.705v2.063c4.002-.913 7-4.494 7-8.768 0-4.962-4.038-9-9-9Z"/>
  <path d="M14.1192 12.062c.117-.275.181-.578.181-.896 0-1.27-1.03-2.299-2.3-2.299-1.271 0-2.3 1.029-2.3 2.299 0 .318.064.621.181.896.032.077.078.147.119.22.229.41.576.741 1 .947v8.604h2v-8.604c.424-.206.77-.537 1-.947.04-.073.086-.143.119-.22Z"/>
</g></svg>