<svg xmlns="http://www.w3.org/2000/svg" data-laicon-version="15.0" viewBox="0 0 20 20" fill="black"><g transform="translate(-2 -2)">
  <path d="m11.3584 11.6005 7.8306-7.8293 1.1313 1.1315-7.8306 7.8292-1.1313-1.1314Z"/>
  <path d="M19.3077 4.772h-4.3878v-1.6h5.9878v5.9758h-1.6V4.772ZM4.8002 6.2675V19.008c0 .0562.011.0926.0215.1161a.1989.1989 0 0 0 .0493.0663.2855.2855 0 0 0 .1818.0704h12.5511c.1475 0 .2269-.048.2615-.0794a.1339.1339 0 0 0 .0325-.0414c.0042-.0091.0042-.0136.0042-.0138v-7.9591h1.6v7.9591c0 .9982-.8688 1.7346-1.8982 1.7346H5.0528c-.8708 0-1.8526-.6669-1.8526-1.8528V6.2136c0-.5132.297-.9333.5716-1.1866.2843-.2622.7128-.5038 1.2037-.5038h7.9551v1.6H4.9849a.1693.1693 0 0 0-.0256.0097.4076.4076 0 0 0-.1027.0703.3683.3683 0 0 0-.0564.0643Zm-.0111.0195.0008-.0019-.0008.0019Z"/>
</g></svg>