<svg xmlns="http://www.w3.org/2000/svg" data-laicon-version="15.0" viewBox="0 0 20 20" fill="black"><g transform="translate(-2 -2)">
  <path d="M6.3003 14.3c0-.8 0-1.8.7-2.6.1-.1.2-.2.3-.2.7-1.6 2.2-2.7 3.8999-2.9.3-.3.5-.7.5-1.3v-.1c0-.6 0-1.4-.5-1.9-.1-.1-.2-.2-.3-.2-.6-1.6-2-2.5-3.8-2.5-1.8 0-3.1.9-3.8 2.5-.1 0-.2.1-.3.2-.5.5-.5 1.2-.5 1.9v.1c0 .8.4 1.3.9 1.5.1.1.2.3.3.5-.4.3-.9.8-1.2 1.6-.2.6-.2 2.3-.2 2.8 0 .4.3.6.6.6h3.4Zm15.1995-3.4c-.3-.8-.8-1.3-1.2-1.6.1-.2.2-.4.3-.5.5-.2.9-.7.9-1.5v-.1c0-.6 0-1.4-.5-1.9-.1-.1-.2-.2-.3-.2-.6-1.6-2-2.5-3.8-2.5-1.8 0-3.2.9-3.8 2.5-.1.1-.2.1-.3.2-.5.5-.5 1.2-.5 1.9v.1c0 .6.2 1 .5 1.3 1.8.2 3.2 1.3 3.9 2.9.1.1.2.1.3.2.7.7.7 1.8.7 2.6h3.4c.4 0 .6-.3.7-.6 0-.6 0-2.2-.3-2.8ZM13.5 20.1h-3v1.7h3v-1.7Z"/>
  <path d="M16.9 18.2c-.3-.8-.9-1.3-1.3-1.7.2-.2.3-.4.4-.6.5-.2.9-.7.9-1.6v-.1c0-.7 0-1.5-.5-2-.1-.1-.2-.2-.3-.2-.7-1.7-2.2-2.7-4-2.7-1.9 0-3.4 1-4 2.7-.1.1-.2.1-.3.2-.5.5-.5 1.3-.5 2v.1c0 .8.4 1.4.9 1.6.1.2.2.4.4.6-.5.3-1 .9-1.3 1.7-.3.6-.3 2.4-.3 2.9 0 .4.3.6.6.6h2v-2.2c0-.3.2-.5.5-.5h4c.3 0 .5.2.5.5v2.2h2c.4 0 .6-.3.7-.6-.1-.5-.1-2.2-.4-2.9Z"/>
</g></svg>