<svg xmlns="http://www.w3.org/2000/svg" data-laicon-version="15.0" viewBox="0 0 20 20" fill="black"><g transform="translate(-2 -2)">
  <path d="M12.1001 6.1c-2.1 0-3.8 1.6-3.8 3.5 0 2 1.7 3.5 3.8 3.5 2.1 0 3.8-1.6 3.8-3.5s-1.7-3.5-3.8-3.5Zm2 3.5-1-1.3.8-.6 1 1.3-.8.6Zm1.4 9.5v2h-7v-2c0-.3.2-.5.5-.5h6c.3 0 .5.2.5.5Zm3.3-3.5c-.1-.5-.4-.9-.8-1.2.3-.4.5-.9.6-1.4 1.2-.5 1.4-1.9 1.4-2.9 0-1.3-.2-2.2-.7-2.7-.1-.2-.3-.3-.6-.4-.7-2.9-3.1-4.5-6.6-4.5-3.4 0-5.8 1.6-6.6 4.5-.3.1-.5.2-.7.4-.5.5-.7 1.3-.7 2.6 0 1.1.2 2.5 1.4 2.9.1.5.3 1 .6 1.4-.4.3-.7.7-.8 1.3-1.6.9-1.7 2.6-1.7 4.8 0 .4.3.7.6.7h3.2v-2c0-.8.7-1.5 1.5-1.5h6c.8 0 1.5.7 1.5 1.5v2h3.4c.4 0 .6-.3.6-.6.2-1.9.3-4-1.6-4.9Zm-6.7-1.4c-2.7 0-4.8-2-4.8-4.5s2.2-4.5 4.8-4.5c2.6 0 4.8 2 4.8 4.5 0 2.4-2.2 4.5-4.8 4.5Z"/>
</g></svg>