<svg xmlns="http://www.w3.org/2000/svg" data-laicon-version="15.0" viewBox="0 0 20 20" fill="black"><g transform="translate(-2 -2)">
  <path d="m15.9541 13.3173-2.9737 8.0446a.6497.6497 0 0 1-1.2205-.0032l-2.8737-7.8992 1.2217-.4444 2.2677 6.2335 2.3591-6.382 1.2194.4507Z"/>
  <path d="M13.252 12.7915c1.0338-1.5242 1.4853-3.607 1.0502-5.7676a8.8133 8.8133 0 0 0-.4237-1.4528c.9847-.941 2.2982-1.3566 3.6966-1.0934 1.075.202 1.958.82 2.554 1.79.754 1.224.941 2.856.503 4.365-.673 2.32-2.694 3.579-4.509 3.579-.325 0-.643-.04-.947-.122-.7512-.2039-1.4155-.6606-1.9241-1.2982Z"/>
  <path d="M5.806 5.8865c.452-.845 1.064-1.036 1.484-1.106l-.213-1.283c-1.069.179-1.882.776-2.417 1.775-.557 1.039-.487 2.222-.329 3.031l1.276-.248c-.117-.602-.178-1.467.199-2.169Zm7.542 1.319c.642 3.176-.88 6.213-3.463 6.913-.349.095-.719.142-1.099.142-2.215 0-4.769-1.589-5.594-4.444-.548-1.894-.316-3.933.621-5.453.724-1.178 1.795-1.928 3.094-2.171 3.022-.57 5.741 1.541 6.441 5.013Z"/>
</g></svg>