<svg xmlns="http://www.w3.org/2000/svg" data-laicon-version="15.0" viewBox="0 0 20 20" fill="black"><g transform="translate(-2 -2)">
  <path d="M8.246 17.2249C9.5367 18.449 11.2806 19.2 13.1999 19.2c3.9764 0 7.2-3.2235 7.2-7.2 0-3.9764-3.2236-7.2-7.2-7.2-1.9193 0-3.6633.751-4.954 1.975L7.1144 5.6433C8.6948 4.13 10.8387 3.2 13.1999 3.2c4.8601 0 8.8 3.94 8.8 8.8001 0 4.8601-3.9399 8.7999-8.8 8.7999-2.3612 0-4.5051-.9298-6.0856-2.4433L8.246 17.225Z"/>
  <path d="M13.2002 10.25c.9665 0 1.75.7835 1.75 1.75s-.7835 1.75-1.75 1.75-1.75-.7835-1.75-1.75.7835-1.75 1.75-1.75Z"/>
  <path d="M9.3999 10.2h-5.5V8.6h5.5v1.6ZM7.5 12.8H2v-1.6h5.5v1.6Zm6.1079-2.2634 2.8501-2.625 1.0839 1.1768-2.85 2.625-1.084-1.1768ZM9.3999 15.4h-5.5v-1.6h5.5v1.6Z"/>
</g></svg>