<svg xmlns="http://www.w3.org/2000/svg" data-laicon-version="15.0" viewBox="0 0 20 20" fill="black"><g transform="translate(-2 -2)">
  <path d="M2.8501 12c0-5.0534 4.0966-9.15 9.15-9.15 5.0534 0 9.15 4.0966 9.15 9.15 0 5.0534-4.0966 9.15-9.15 9.15-5.0534 0-9.15-4.0966-9.15-9.15Zm4.16-4.6296a.65.65 0 0 0-.1112.9124 6.842 6.842 0 0 1 .6512 1.0008.65.65 0 0 0 1.1474-.611 8.1413 8.1413 0 0 0-.7749-1.191.65.65 0 0 0-.9124-.1113Zm1.8277 3.4415a.65.65 0 0 0-.554.7336 6.9472 6.9472 0 0 1 .0626 1.1948.65.65 0 0 0 1.2992.044 8.2464 8.2464 0 0 0-.0743-1.4184.65.65 0 0 0-.7335-.554Zm.2204 4.7423a.65.65 0 1 0-1.205-.4878 6.8446 6.8446 0 0 1-.543 1.0634.65.65 0 1 0 1.1018.6898 8.1422 8.1422 0 0 0 .6462-1.2654Zm7.8683-8.1148a.65.65 0 0 0-.911.1226 8.1473 8.1473 0 0 0-.6645 1.0212.65.65 0 0 0 1.1397.6254 6.8438 6.8438 0 0 1 .5584-.8582.6499.6499 0 0 0-.1226-.911Zm-1.2212 4.1907a.65.65 0 0 0-1.2897-.1636 8.2397 8.2397 0 0 0-.0637 1.2163.65.65 0 0 0 1.2997-.0279 6.9464 6.9464 0 0 1 .0537-1.0248Zm-.3765 3.1671a.65.65 0 0 0-.348.8508c.158.3766.3435.7392.5541 1.0851a.65.65 0 0 0 1.1103-.6761 6.8535 6.8535 0 0 1-.4656-.9118.6499.6499 0 0 0-.8508-.348Z"/>
</g></svg>