<svg xmlns="http://www.w3.org/2000/svg" data-laicon-version="15.0" viewBox="0 0 20 20" fill="black"><g transform="translate(-2 -2)">
  <path d="M16.2006 3.2668a.3333.3333 0 0 1 .3321.3057l.0133.1597a1.6667 1.6667 0 0 0 1.5225 1.5225l.1597.0133a.3334.3334 0 0 1 0 .6644l-.1597.0133a1.6667 1.6667 0 0 0-1.5225 1.5225l-.0133.1597a.3333.3333 0 0 1-.6643 0l-.0133-.1597a1.6667 1.6667 0 0 0-1.5225-1.5225l-.1597-.0133a.3334.3334 0 0 1 0-.6644l.1597-.0133a1.6667 1.6667 0 0 0 1.5225-1.5225l.0133-.1597a.3333.3333 0 0 1 .3322-.3056Zm3.0001 3.9834a.25.25 0 0 1 .2492.2293l.0099.1197a1.25 1.25 0 0 0 1.1419 1.142l.1198.0099a.25.25 0 0 1 0 .4983l-.1198.01a1.25 1.25 0 0 0-1.1419 1.1418l-.0099.1198a.2501.2501 0 0 1-.4983 0l-.01-.1198a1.25 1.25 0 0 0-1.1419-1.1418l-.1197-.01a.25.25 0 0 1 0-.4983l.1197-.01a1.25 1.25 0 0 0 1.1419-1.1418l.01-.1198a.25.25 0 0 1 .2491-.2293Z"/>
  <path d="M12.8672 4.396a8.243 8.243 0 0 0-.8671-.0457c-4.5011 0-8.15 3.649-8.15 8.15v4.0164a4.2502 4.2502 0 0 1-.7138 2.3575l-.177.2656A.6499.6499 0 0 0 3.5 20.1503h5.8294c-1.8593-.9662-3.1293-2.9097-3.1293-5.1499v-2.5c0-.718.582-1.3 1.3-1.3h9c.718 0 1.3.582 1.3 1.3v2.5c0 2.2402-1.27 4.1837-3.1293 5.1499H18.5a.6501.6501 0 0 0 .5409-.2894l.177-.2656a5.55 5.55 0 0 0 .9321-3.0786v-4.0164c0-.2529-.0115-.5031-.034-.7501h-.9154a1.25 1.25 0 0 1-1.2457-1.1462l-.0099-.1198a.25.25 0 0 0-.2284-.2283l-.1198-.01a1.25 1.25 0 0 1-1.1462-1.2457.0777.0777 0 0 0-.0865-.0767 1.3447 1.3447 0 0 1-.1636.01c-.6935 0-1.2712-.5315-1.3288-1.2226l-.0133-.1597a.6666.6666 0 0 0-.609-.609l-.1597-.0133c-.691-.0576-1.2226-.6353-1.2226-1.3287V4.3959Z"/>
  <path d="M7.5 15.0004c0 2.4853 2.0147 4.5 4.5 4.5s4.5-2.0147 4.5-4.5v-2.5h-9v2.5Z"/>
</g></svg>