<svg xmlns="http://www.w3.org/2000/svg" data-laicon-version="15.0" viewBox="0 0 20 20" fill="black"><g transform="translate(-2 -2)">
  <path d="M12.2236 5.4877a.65.65 0 0 1 .65-.65h1.7176l2.0005 5.4963a4.4791 4.4791 0 0 1 .8987-.0906c2.4629 0 4.4594 1.9966 4.4594 4.4594 0 2.4629-1.9965 4.4595-4.4594 4.4595-2.4629 0-4.4594-1.9966-4.4594-4.4595 0-1.6954.9461-3.1698 2.3391-3.9241l-.566-1.555h-5.609l-.566 1.5549c1.3933.7542 2.3396 2.2287 2.3396 3.9242 0 2.4629-1.9966 4.4595-4.4595 4.4595-2.4628 0-4.4594-1.9966-4.4594-4.4595 0-2.4628 1.9966-4.4594 4.4594-4.4594.3078 0 .6082.0312.8984.0905l.8773-2.4102h6.0461l-.6501-1.786h-.8073a.65.65 0 0 1-.65-.65Zm3.7867 5.1486a.65.65 0 0 0-.3886.8331l1.2577 3.4558a.65.65 0 1 0 1.2216-.4447l-1.2577-3.4556a.65.65 0 0 0-.833-.3886Zm-8.0243.0028a.65.65 0 0 0-.8329.3889l-1.2549 3.4529a.65.65 0 1 0 1.2218.444l1.255-3.4529a.65.65 0 0 0-.389-.8329Z"/>
</g></svg>