<svg xmlns="http://www.w3.org/2000/svg" data-laicon-version="15.0" viewBox="0 0 20 20" fill="black"><g transform="translate(-2 -2)">
  <path d="M18.8898 4.68v9.462a4.3255 4.3255 0 0 0-.2033-.0784c-.6693-.2391-1.5132-.3636-2.3867-.3636-.8735 0-1.7174.1245-2.3867.3636-.3287.1175-.684.2867-.982.5384-.2846.2404-.6813.7046-.6813 1.398v3.6c0 .3228.086.596.2067.82H5.9197c-1.077 0-1.95-.8731-1.95-1.95V4.68c0-1.077.873-1.95 1.95-1.95h11.0201c1.0769 0 1.95.873 1.95 1.95Zm-4.2607 3.879v-1H8.2348v1h6.3943Zm-6.3943 3.5189h6.3943v-1H8.2348v1Z"/>
  <path d="M14.1823 14.817c.5623-.2009 1.3109-.317 2.1175-.317.8066 0 1.5552.1161 2.1175.317.2786.0996.5368.2288.7349.3962.1912.1615.3976.4227.3976.7868v.0068c-.0026.3606-.2075.6195-.3976.78-.1981.1674-.4563.2966-.7349.3962-.5623.2009-1.3109.317-2.1175.317-.8066 0-1.5552-.1161-2.1175-.317-.2786-.0996-.5368-.2288-.7349-.3962-.1912-.1615-.3976-.4227-.3976-.7868 0-.3641.2063-.6253.3976-.7868.1981-.1674.4563-.2966.7349-.3962Z"/>
  <path d="M13.0498 17.2533V17.8c0 .3642.2064.6253.3976.7869.1981.1673.4563.2966.7349.3961.5623.2009 1.3109.317 2.1175.317.8066 0 1.5552-.1161 2.1175-.317.2786-.0995.5368-.2288.7349-.3961.1901-.1606.395-.4195.3976-.78v-.5536c-.2798.2253-.6062.3779-.9108.4867-.6516.2328-1.4785.36-2.3392.36s-1.6876-.1272-2.3392-.36c-.3046-.1088-.631-.2614-.9108-.4867Z"/>
  <path d="M18.639 19.54c.3046-.1088.631-.2614.9108-.4867V19.6c0 .3641-.2064.6253-.3976.7868-.1981.1674-.4563.2966-.7349.3962-.5623.2009-1.3109.317-2.1175.317-.8066 0-1.5552-.1161-2.1175-.317-.2786-.0996-.5368-.2288-.7349-.3962-.1913-.1615-.3976-.4227-.3976-.7868v-.5467c.2798.2253.6062.3779.9108.4867.6516.2328 1.4785.36 2.3392.36s1.6876-.1272 2.3392-.36Z"/>
</g></svg>