<svg xmlns="http://www.w3.org/2000/svg" data-laicon-version="17.5" viewBox="0 0 20 20" fill="black"><g transform="translate(-2 -2)">
  <path d="M3.85 4.68c0-.629.51-1.138 1.138-1.138h14.024c.629 0 1.138.509 1.138 1.137v13.936c0 .453-.268.862-.683 1.043l-1.387.605c-.29.127-.62.127-.91 0l-1.42-.62-1.42.62c-.29.127-.62.127-.91 0l-1.42-.62-1.42.62c-.29.127-.62.127-.91 0l-1.42-.62-1.42.62c-.29.127-.62.127-.91 0l-1.387-.605a1.138 1.138 0 0 1-.683-1.043V4.68ZM8.6 9.65h6.8v-1.3H8.6v1.3Zm0 3.848 6.8.002v-1.3l-6.8-.002v1.3Z"/>
</g></svg>