<svg xmlns="http://www.w3.org/2000/svg" data-laicon-version="15.0" viewBox="0 0 20 20" fill="black"><g transform="translate(-2 -2)">
  <path d="M11.3037 11.4281v-1.531h1.3819a.7656.7656 0 0 1 0 1.531h-1.3819Zm0 2.8308v-1.5308h1.8773a.7654.7654 0 1 1 0 1.5308h-1.8773Z"/>
  <path d="M2.75 12c0-5.1086 4.1414-9.25 9.25-9.25s9.25 4.1414 9.25 9.25-4.1414 9.25-9.25 9.25S2.75 17.1086 2.75 12Zm7.2535-4.2086v.8058h-.7117v1.3h.7117v4.3617h-.7116v1.3h.7116v.8058h1.3v-.8058h.7491v.8058h1.3v-.8128c1.0603-.0874 1.8937-.9755 1.8937-2.0584 0-.687-.3354-1.2957-.8515-1.6712a2.0553 2.0553 0 0 0 .3561-1.1597c0-.9073-.5849-1.6779-1.3983-1.9553v-.916h-1.3v.8059h-.7491v-.8058h-1.3Z"/>
</g></svg>