<svg xmlns="http://www.w3.org/2000/svg" data-laicon-version="15.0" viewBox="0 0 20 20" fill="black"><g transform="translate(-2 -2)">
  <path d="M11.5 5.9c0-.9-.7-1.6-1.6-1.6H4c-.9 0-1.5.7-1.5 1.6v11.6c0 .9.7 1.6 1.6 1.6h5.1c.3 0 .6.1.9.2.1.1.2.1.3.2 0 0 .1 0 .1.1.2.2.5.2.7.1.2-.1.4-.3.4-.6l-.1-13.2Zm-2.4 9.3H4.7v-1h4.4v1Zm0-3H4.7v-1h4.4v1Zm0-2.9H4.7v-1h4.4v1Zm10.9-5h-5.9c-.9 0-1.6.8-1.6 1.7v13.2c0 .3.1.5.4.6.2.1.5.1.7-.1l.1-.1c.1 0 .2-.1.3-.2.3-.1.6-.2.9-.2H20c.9 0 1.6-.8 1.6-1.6V5.9c0-.9-.7-1.6-1.6-1.6Zm-.7 10.9h-4.4v-1h4.4v1Zm0-3h-4.4v-1h4.4v1Zm0-2.9h-4.4v-1h4.4v1Z"/>
</g></svg>