<svg xmlns="http://www.w3.org/2000/svg" data-laicon-version="15.0" viewBox="0 0 20 20" fill="black"><g transform="translate(-2 -2)">
  <path d="M6 3c-1.1046 0-2 .8955-2 2v12.7281A2.6958 2.6958 0 0 1 5.8438 17h8.0697c.2302-2.2415 2.1242-3.9899 4.4265-3.9899.2243 0 .4447.0166.66.0486V4.5c0-.8284-.6716-1.5-1.5-1.5H6Zm9.6431 18.0001c-.9812-.7487-1.6418-1.8959-1.7403-3.2001H5.4999c-.7813 0-1.4232.5975-1.4935 1.3605a2.129 2.129 0 0 0 .0046.0508 1.6159 1.6159 0 0 0-.011.1888c0 .8836.7164 1.6 1.6 1.6h10.0431Z"/>
  <path d="M18.3399 21.1101c-2.0158 0-3.65-1.6342-3.65-3.65 0-2.0159 1.6342-3.65 3.65-3.65 2.0159 0 3.65 1.6341 3.65 3.65 0 2.0158-1.6341 3.65-3.65 3.65Zm-1.518-3.2695 1.1453-1.1453v2.9345h.8v-2.9345l1.1453 1.1453.5657-.5656-2.111-2.1111-2.111 2.1111.5657.5656Z"/>
</g></svg>