<svg xmlns="http://www.w3.org/2000/svg" data-laicon-version="15.0" viewBox="0 0 20 20" fill="black"><g transform="translate(-2 -2)">
  <path d="M20.7672 4.8034H3.2012v-1.6h17.566v1.6ZM4.8168 20.7966v-1.6h-1.6v1.6h1.6Zm15.9663 0v-1.6h-1.6v1.6h1.6ZM3.2173 8.8025h1.6v-1.6h-1.6v1.6Zm9.5673 0h-1.6v-1.6h1.6v1.6Zm6.3668 0h1.6v-1.6h-1.6v1.6Zm-6.3668 3.9941h-1.6v-1.6h1.6v1.6Zm-5.5849 0h1.6v-1.6h-1.6v1.6Zm9.6005 0h-1.6v-1.6h1.6v1.6Zm-13.6005 0h1.6v-1.6h-1.6v1.6Zm17.6005 0h-1.6v-1.6h1.6v1.6Zm-9.6156 3.9941h1.6v-1.6h-1.6v1.6Zm-6.3849 0h-1.6v-1.6h1.6v1.6Zm14.4005 0h1.6v-1.6h-1.6v1.6ZM8.8085 19.1966v1.6h-1.6v-1.6h1.6Zm3.9917 1.6v-1.6h-1.6v1.6h1.6Zm3.9912-1.6v1.6h-1.6v-1.6h1.6Z"/>
</g></svg>