<svg xmlns="http://www.w3.org/2000/svg" data-laicon-version="15.0" viewBox="0 0 20 20" fill="black"><g transform="translate(-2 -2)">
  <path d="M3.2168 4.7982v-1.6h1.6v1.6h-1.6Zm15.9663 0v-1.6h1.6v1.6h-1.6Zm-15.9663 8h17.566v-1.6H3.2168v1.6Zm1.6005 3.9941h-1.6v-1.6h1.6v1.6Zm-1.6176 4.0094h1.6v-1.6h-1.6v1.6Zm1.6-11.9975h-1.6v-1.6h1.6v1.6Zm14.4005 0h1.6v-1.6h-1.6v1.6ZM7.2085 4.7982v-1.6h1.6v1.6h-1.6Zm7.9829-1.6v1.6h1.6v-1.6h-1.6ZM8.7997 20.8017h-1.6v-1.6h1.6v1.6Zm6.4005 0h1.6v-1.6h-1.6v1.6Zm5.6 0h-1.6v-1.6h1.6v1.6Zm-1.6-4.0094h1.6v-1.6h-1.6v1.6Zm-6.4 4.0094h-1.6v-1.6h1.6v1.6Zm-1.6-4.0094h1.6v-1.6h-1.6v1.6Zm1.6-7.9881h-1.6v-1.6h1.6v1.6Zm-1.6-4.006h1.6v-1.6h-1.6v1.6Z"/>
</g></svg>