<svg xmlns="http://www.w3.org/2000/svg" data-laicon-version="15.0" viewBox="0 0 20 20" fill="black"><g transform="translate(-2 -2)">
  <path d="M4.8241 3.2v1.6h-1.6V3.2h1.6Zm15.9663 0v1.6h-1.6V3.2h1.6Zm-.0315 16H3.1929v1.6h17.566v-1.6ZM3.2246 15.1941h1.6v1.6h-1.6v-1.6Zm9.5668 0h-1.6v1.6h1.6v-1.6Zm6.3673 0h1.6v1.6h-1.6v-1.6ZM12.7914 11.2h-1.6v1.6h1.6v-1.6Zm-5.5844 0h1.6v1.6h-1.6v-1.6Zm9.6 0h-1.6v1.6h1.6v-1.6Zm-13.6 0h1.6v1.6h-1.6v-1.6Zm17.6 0h-1.6v1.6h1.6v-1.6Zm-9.6156-3.994h1.6v1.6h-1.6v-1.6Zm-6.3844 0h-1.6v1.6h1.6v-1.6Zm14.4 0h1.6v1.6h-1.6v-1.6ZM8.8158 4.8V3.2h-1.6v1.6h1.6Zm3.9912-1.6v1.6h-1.6V3.2h1.6Zm3.9917 1.6V3.2h-1.6v1.6h1.6Z"/>
</g></svg>