<svg xmlns="http://www.w3.org/2000/svg" data-laicon-version="15.0" viewBox="0 0 20 20" fill="black"><g transform="translate(-2 -2)">
  <path d="M3.1997 3.2029h17.5756v1.6H4.7997V20.783h-1.6V3.2029ZM20.8002 20.783h-1.6v-1.6h1.6v1.6ZM7.206 20.7828v-1.6h1.6v1.6h-1.6Z"/>
  <path d="M7.206 11.2156v1.6h1.6v-1.6h-1.6Zm3.9942 1.6v-1.6h1.6v1.6h-1.6Zm0 2.3844v1.6h1.6v-1.6h-1.6Zm0-6.4V7.2h1.6v1.6h-1.6Zm0 10.4v1.6h1.6v-1.6h-1.6Zm3.9936-6.3844v-1.6h1.6v1.6h-1.6Zm0 6.3844v1.6h1.6v-1.6h-1.6Zm5.6064-2.4085h-1.6v-1.6h1.6v1.6Zm-1.6-3.9915h1.6v-1.6h-1.6v1.6Zm1.6-3.9915h-1.6v-1.6h1.6v1.6Z"/>
</g></svg>