<svg xmlns="http://www.w3.org/2000/svg" data-laicon-version="15.0" viewBox="0 0 20 20" fill="black"><g transform="translate(-2 -2)">
  <path d="M3.1982 3.2v1.6h1.6V3.2h-1.6Zm16.0035.017h1.6v1.6h-1.6v-1.6Zm0 15.966h1.6v1.6h-1.6v-1.6Zm-8-15.966v17.566h1.6V3.217h-1.6ZM7.2075 4.8172v-1.6h1.6v1.6h-1.6ZM15.1958 4.8V3.2h1.6v1.6h-1.6Zm0 14.4v1.6h1.6v-1.6h-1.6Zm4.0059-11.9915h1.6v1.6h-1.6v-1.6Zm1.6 7.983h-1.6v1.6h1.6v-1.6ZM3.1982 8.8V7.2h1.6v1.6h-1.6Zm0 6.4v1.6h1.6v-1.6h-1.6Zm0 5.6v-1.6h1.6v1.6h-1.6Zm4.0093-1.6v1.6h1.6v-1.6h-1.6Zm-4.0093-6.4v-1.6h1.6v1.6h-1.6Zm4.0093-1.6v1.6h1.6v-1.6h-1.6Zm7.9883 1.6v-1.6h1.6v1.6h-1.6Zm4.0059-1.6v1.6h1.6v-1.6h-1.6Z"/>
</g></svg>