<svg xmlns="http://www.w3.org/2000/svg" data-laicon-version="15.0" viewBox="0 0 20 20" fill="black"><g transform="translate(-2 -2)">
  <path d="M12.8002 4.8V3.2h-1.6v1.6h1.6ZM4.7997 3.217h-1.6v1.6h1.6v-1.6Zm0 15.966h-1.6v1.6h1.6v-1.6ZM20.8002 3.217v17.566h-1.6V3.217h1.6Zm-4.0064 1.6002v-1.6h-1.6v1.6h1.6Zm0 6.3672v1.6h-1.6v-1.6h1.6Zm0 9.5673v-1.6h-1.6v1.6h1.6Zm-3.9936-9.5673v1.6h-1.6v-1.6h1.6Zm0-2.3844V7.2h-1.6v1.6h1.6Zm0 6.4v1.6h-1.6v-1.6h1.6Zm0 4v1.6h-1.6v-1.6h1.6ZM8.806 12.7844v-1.6h-1.6v1.6h1.6Zm0-9.5844v1.6h-1.6V3.2h1.6Zm0 17.6v-1.6h-1.6v1.6h1.6ZM3.1997 7.2085h1.6v1.6h-1.6v-1.6Zm1.6 3.9915h-1.6v1.6h1.6v-1.6Zm-1.6 3.9915h1.6v1.6h-1.6v-1.6Z"/>
</g></svg>