<svg xmlns="http://www.w3.org/2000/svg" data-laicon-version="15.0" viewBox="0 0 20 20" fill="black"><g transform="translate(-2 -2)">
  <path d="M3.1982 3.2v1.6h1.6V3.2h-1.6Zm17.6035.017h-1.6v1.6h1.6v-1.6Zm0 15.966h-1.6v1.6h1.6v-1.6Zm-9.6-7.983V3.217h1.6V11.2h7.983v1.6h-7.983v7.983h-1.6V12.8h-7.983v-1.6h7.983ZM7.2075 4.8172v-1.6h1.6v1.6h-1.6ZM15.1958 4.8V3.2h1.6v1.6h-1.6Zm0 14.4v1.6h1.6v-1.6h-1.6Zm4.0059-11.9915h1.6v1.6h-1.6v-1.6Zm1.6 7.983h-1.6v1.6h1.6v-1.6ZM3.1982 8.8V7.2h1.6v1.6h-1.6Zm0 6.4v1.6h1.6v-1.6h-1.6Zm0 5.6v-1.6h1.6v1.6h-1.6Zm4.0093-1.6v1.6h1.6v-1.6h-1.6Z"/>
</g></svg>