<svg xmlns="http://www.w3.org/2000/svg" data-laicon-version="15.0" viewBox="0 0 20 20" fill="black"><g transform="translate(-2 -2)">
  <path d="M12.7982 4.8V3.2h-1.6v1.6h1.6Zm-9.6-1.583h1.6v1.6h-1.6v-1.6Zm17.6037.0002v17.5819H3.2153v-1.6H19.202V3.2172h1.6Zm-4.0095 0v1.6h-1.6v-1.6h1.6Z"/>
  <path d="M16.7924 12.7844v-1.6h-1.6v1.6h1.6Zm-3.9942-1.6v1.6h-1.6v-1.6h1.6Zm0-2.3844V7.2h-1.6v1.6h1.6Zm0 6.4v1.6h-1.6v-1.6h1.6Zm-3.9941-4.0156v1.6h-1.6v-1.6h1.6Zm0-6.3844V3.2h-1.6v1.6h1.6ZM3.1982 7.2085h1.6v1.6h-1.6v-1.6Zm1.6 3.9915h-1.6v1.6h1.6v-1.6Zm-1.6 3.9915h1.6v1.6h-1.6v-1.6Z"/>
</g></svg>