<svg xmlns="http://www.w3.org/2000/svg" data-laicon-version="15.0" viewBox="0 0 20 20" fill="black"><g transform="translate(-2 -2)">
  <path d="M4.8168 3.211v1.6h-1.6v-1.6h1.6Zm0 17.578v-1.6h-1.6v1.6h1.6Zm15.9663 0v-1.6h-1.6v1.6h1.6Zm0-15.978v-1.6h-1.6v1.6h1.6ZM4.8168 8.7949h-1.6v-1.6h1.6v1.6Zm6.3678 0h1.6v-1.6h-1.6v1.6Zm9.5985 0h-1.6v-1.6h1.6v1.6Zm-9.5985 3.9941h1.6v-1.6h-1.6v1.6Zm-2.3844 0h-1.6v-1.6h1.6v1.6Zm6.4 0h1.6v-1.6h-1.6v1.6Zm-10.3834 0h-1.6v-1.6h1.6v1.6Zm14.3663 0h1.6v-1.6h-1.6v1.6Zm-6.3985 3.994h-1.6v-1.6h1.6v1.6Zm-9.5678 0h1.6v-1.6h-1.6v1.6Zm17.5663 0h-1.6v-1.6h1.6v1.6ZM8.8085 20.789v-1.6h-1.6v1.6h1.6Zm3.9917-1.6v1.6h-1.6v-1.6h1.6Zm3.9912 1.6v-1.6h-1.6v1.6h1.6ZM8.8085 3.211v1.6h-1.6v-1.6h1.6Zm3.9917 1.6v-1.6h-1.6v1.6h1.6Zm3.9912-1.6v1.6h-1.6v-1.6h1.6Z"/>
</g></svg>