<svg xmlns="http://www.w3.org/2000/svg" data-laicon-version="15.0" viewBox="0 0 20 20" fill="black"><g transform="translate(-2 -2)">
  <path d="M7.8602 3.5499c-.4412 0-.8642.1753-1.176.4872L3.4782 7.243a1.661 1.661 0 0 0-.0974.1063H20.618a1.641 1.641 0 0 0-.0975-.1063l-3.2059-3.206a1.663 1.663 0 0 0-1.176-.4871H7.8602Zm13.1475 5.0994H2.9912V18.787c0 .9185.7447 1.6631 1.6632 1.6631h14.6908c.9186 0 1.6632-.7447 1.6632-1.6632l-.0007-10.1375Zm-9.6817 5.9044 3.2461-3.246.9192.9192-4.1653 4.1652-2.8177-2.8177.9192-.9192 1.8985 1.8985Z"/>
</g></svg>