<svg xmlns="http://www.w3.org/2000/svg" data-laicon-version="15.0" viewBox="0 0 20 20" fill="black"><g transform="translate(-2 -2)">
  <path d="m15.5999 15.9-3.1-1.8V19h-.1l2.9 1.7c.1.1.2.1.3.1v-4.9Zm-8.1998 0-4.2-2.6c-.1.2-.1.3-.1.5v3.6c0 .6.3 1.1.8 1.4l3.1 1.9c.1.1.2.1.3.1v-4.6c.1-.1.1-.2.1-.3Zm4.1001-1.8-2.9 1.7c-.2.1-.3.3-.3.4v4.6c.1 0 .2-.1.3-.1l2.9-1.7h-.1v-4.9h.1ZM16.1 15c.1-.1.1-.1.2-.1l3.9-2.4c-.1 0-.1-.1-.2-.1l-2.8-1.6-4.2 2.4 3.1 1.8Zm-8.0003-.1 2.8001-1.6-4.3-2.5-2.8 1.6-.1.1 4.2 2.5c.1 0 .1-.1.2-.1Zm3.4001-6.1-4.2-2.7c0 .2-.1.4-.1.6v3.2l4.3 2.5V8.8ZM12.5 12.4l4.3-2.5V6.7c0-.2 0-.4-.1-.5l-4.2 2.6v3.6Zm4.1001 3.8v4.6c.1 0 .2-.1.3-.1l3.1-1.8c.5-.3.8-.8.8-1.4v-3.6c0-.2 0-.3-.1-.5l-4 2.4s-.1.2-.1.4Zm-.5002-10.8-.1-.1-3.1-1.8c-.5-.3-1.1-.3-1.7 0l-3.2 1.8-.1.1 4.1 2.5 4.1-2.5Z"/>
</g></svg>