<svg xmlns="http://www.w3.org/2000/svg" data-laicon-version="16.12" viewBox="0 0 20 20" fill="black"><g transform="translate(-2 -2)">
  <path d="M4 7a3 3 0 0 1 3-3h1v2H7a1 1 0 0 0-1 1v3.498A2.49 2.49 0 0 1 5.498 12c.315.418.502.939.502 1.502V17a1 1 0 0 0 1 1h.5v2H7a3 3 0 0 1-3-3v-3.498a.5.5 0 0 0-.498-.5L2.995 13v-2l.507-.002a.5.5 0 0 0 .498-.5V7Zm16 0a3 3 0 0 0-3-3h-1v2h1a1 1 0 0 1 1 1v3.498c0 .563.187 1.084.502 1.502A2.49 2.49 0 0 0 18 13.502V17a1 1 0 0 1-1 1h-.5v2h.5a3 3 0 0 0 3-3v-3.498a.5.5 0 0 1 .497-.5l.508-.002v-2l-.508-.002a.5.5 0 0 1-.497-.5V7Zm-9 3.2v7h2v-7h-2Zm1-3.35a1.25 1.25 0 1 0 0 2.5 1.25 1.25 0 0 0 0-2.5Z"/>
</g></svg>