<svg xmlns="http://www.w3.org/2000/svg" data-laicon-version="16.16" viewBox="0 0 20 20" fill="black"><g transform="translate(-2 -2)">
  <path d="M4.627 4.3h15.076c.378 0 .814.097 1.08.504.21.322.214.721.214.97V8.8H3.003V5.774c0-.205.006-.418.047-.607.043-.204.141-.447.376-.626a1.21 1.21 0 0 1 .62-.223c.173-.018.378-.018.58-.018Zm.137 1.702v1.3h1.3v-1.3h-1.3Zm2.2 0v1.3h1.3v-1.3h-1.3ZM3.003 9.8h17.994v5.544l-2.517-2.517-3.928 3.928 1.948 1.947v.998H4.627a3.75 3.75 0 0 1-.623-.04 1.193 1.193 0 0 1-.629-.292 1.138 1.138 0 0 1-.327-.625 3.223 3.223 0 0 1-.045-.613V9.8Z"/>
  <path d="m20.075 17.674-.945-.945V19.7h-1.3v-2.97l-.944.944-.92-.92 2.514-2.513 2.514 2.514-.92.919Z"/>
</g></svg>