<svg xmlns="http://www.w3.org/2000/svg" data-laicon-version="16.17" viewBox="0 0 20 20" fill="black"><g transform="translate(-2 -2)">
  <path d="M4.627 4.3h15.076c.378 0 .814.097 1.08.504.21.322.214.721.214.97V8.8H3.003V5.774c0-.205.006-.419.047-.607.043-.204.141-.447.376-.626a1.21 1.21 0 0 1 .621-.223c.172-.018.377-.018.58-.018Zm.137 1.702v1.3h1.3v-1.3h-1.3Zm2.2 0v1.3h1.3v-1.3h-1.3ZM3.003 9.8h17.994v3.18l-1.966 1.968-1.821-1.821-2.334 2.333 1.822 1.822-1.822 1.821-.638.596H4.627a3.75 3.75 0 0 1-.623-.039 1.194 1.194 0 0 1-.629-.292 1.138 1.138 0 0 1-.327-.625 3.225 3.225 0 0 1-.045-.613V9.8Z"/>
  <path d="m21.773 15.46-1.822 1.822 1.822 1.822-.92.919-1.821-1.822-1.822 1.822-.919-.92 1.822-1.821-1.822-1.822.92-.919 1.82 1.822 1.823-1.822.919.919Z"/>
</g></svg>