<svg xmlns="http://www.w3.org/2000/svg" data-laicon-version="15.0" viewBox="0 0 20 20" fill="black"><g transform="translate(-2 -2)">
  <path d="m19.7062 14.2495-4.988-2.632a.3284.3284 0 0 1-.176-.293v-6.515c0-1.207-.906-2.197-2.094-2.254-1.153 0-2.092.939-2.092 2.093v6.519a.329.329 0 0 1-.175.292l-5.311 2.821c-.337.179-.546.526-.546.907v1.888h15.99v-1.817c0-.425-.233-.811-.608-1.009Zm-.7132 3.8262H4.291c-.037.853-.147 1.727-.379 2.674a.6518.6518 0 0 0 .12.556c.124.157.313.249.512.249h14.499c.406 0 .753-.273.844-.666.138-.601.358-1.699.414-2.813h-1.308Z"/>
</g></svg>