<svg xmlns="http://www.w3.org/2000/svg" data-laicon-version="15.0" viewBox="0 0 20 20" fill="black"><g transform="translate(-2 -2)">
  <path d="M15.4751 3.9c0-.043.032-.075.075-.075h4.265v-.75h-4.265a.823.823 0 0 0-.825.825c0 .457.368.825.825.825h3.44c.043 0 .075.032.075.075a.074.074 0 0 1-.0214.0537.073.073 0 0 1-.0536.0213h-4.265v.75h4.265a.8227.8227 0 0 0 .7627-.509.8236.8236 0 0 0 .0623-.316.8236.8236 0 0 0-.509-.7627.8229.8229 0 0 0-.316-.0623h-3.44a.0733.0733 0 0 1-.0699-.046.072.072 0 0 1-.0051-.029Zm-7.115-.815H4.185v2.54H8.36a.823.823 0 0 0 .696-1.27.823.823 0 0 0-.696-1.27ZM8.435 4.8a.0732.0732 0 0 1-.075.075H4.935v-1.04H8.36c.043 0 .075.032.075.075 0 .03-.015.054-.038.066a.8777.8777 0 0 0-.037 0H5.12v.75h3.24v.01a.8318.8318 0 0 0 .037-.002.073.073 0 0 1 .038.066Zm6.09-.965v-.75h-5.09v.75h2.17v1.79h.75v-1.79h2.17Zm-1.478 6.612c.322.431.623.896.9 1.394 1.539-1.727 3.592-2.51 5.823-2.51v1.6c-1.96 0-3.658.719-4.887 2.284a6.6697 6.6697 0 0 0-.173.23c.837 2.085 1.32 4.636 1.32 7.695h-1.6c0-2.234-.272-4.14-.741-5.752-.556 1.469-.886 3.355-.889 5.725v.027h-1.6v-.028c-.003-2.37-.333-4.255-.889-5.723-.47 1.611-.741 3.517-.741 5.751h-1.6c0-3.06.483-5.61 1.32-7.694a6.7216 6.7216 0 0 0-.173-.23C7.887 11.65 6.189 10.93 4.23 10.93v-1.6c2.23 0 4.284.784 5.823 2.511.277-.498.578-.963.9-1.394C9.053 8.475 6.601 7.62 4.23 7.62v-1.6c2.715 0 5.553.969 7.77 3.208 2.217-2.24 5.055-3.208 7.77-3.208v1.6c-2.37 0-4.823.855-6.723 2.827Zm-1.949 2.857v.001c.352.617.655 1.305.902 2.065.2292-.7177.5314-1.41.902-2.066-.272-.573-.576-1.096-.902-1.57-.327.474-.629.997-.902 1.57Z"/>
</g></svg>