<svg xmlns="http://www.w3.org/2000/svg" data-laicon-version="15.3" viewBox="0 0 20 20" fill="black"><g transform="translate(-2 -2)">
  <path d="M9.333 12.388A2.67 2.67 0 0 1 12 9.721a2.67 2.67 0 0 1 2.666 2.667A2.67 2.67 0 0 1 12 15.055a2.67 2.67 0 0 1-2.667-2.667Z"/>
  <path d="M8.628 3.593c.22-.313.578-.5.961-.5h4.773c.373 0 .723.177.944.477l.958 1.298 2.627-.012a1.95 1.95 0 0 1 1.959 1.95v11.15a1.95 1.95 0 0 1-1.95 1.95H5.1a1.95 1.95 0 0 1-1.95-1.95V6.82A1.95 1.95 0 0 1 5.1 4.87h2.636l.892-1.276ZM12 8.421a3.97 3.97 0 0 0-3.967 3.967A3.97 3.97 0 0 0 12 16.355a3.97 3.97 0 0 0 3.966-3.967A3.97 3.97 0 0 0 12 8.421Z"/>
</g></svg>