<svg xmlns="http://www.w3.org/2000/svg" data-laicon-version="15.3" viewBox="0 0 20 20" fill="black"><g transform="translate(-2 -2)">
  <path d="M8.628 3.593c.22-.313.578-.5.961-.5h4.773c.373 0 .723.177.944.477l.958 1.298 2.627-.012a1.95 1.95 0 0 1 1.959 1.95v11.15a1.95 1.95 0 0 1-1.95 1.95H5.1a1.95 1.95 0 0 1-1.95-1.95V6.82A1.95 1.95 0 0 1 5.1 4.87h2.636l.892-1.276Zm6.287 5.36A4.4 4.4 0 0 0 7.603 12.1H7.15a.35.35 0 0 0-.28.56l1.1 1.467a.35.35 0 0 0 .56 0l1.1-1.467a.35.35 0 0 0-.28-.56h-.446a3.1 3.1 0 0 1 5.09-2.225l.92-.921ZM14.65 12.4h.447a3.1 3.1 0 0 1-5.09 2.224l-.922.922a4.4 4.4 0 0 0 7.313-3.146h.452a.35.35 0 0 0 .28-.56l-1.1-1.467a.35.35 0 0 0-.56 0l-1.1 1.467a.35.35 0 0 0 .28.56Z"/>
</g></svg>