<svg xmlns="http://www.w3.org/2000/svg" data-laicon-version="15.0" viewBox="0 0 20 20" fill="black"><g transform="translate(-2 -2)">
  <path d="M8.5 21c-.8284 0-1.5-.6716-1.5-1.5S7.6716 18 8.5 18s1.5.6716 1.5 1.5S9.3284 21 8.5 21Zm9 0c-.8284 0-1.5-.6716-1.5-1.5s.6716-1.5 1.5-1.5 1.5.6716 1.5 1.5-.6716 1.5-1.5 1.5ZM6.5003 15.8l-1.7-8.8c0-.5.5-.9 1.1-.9h14.7c.2 0 .6 0 .8.3.2.3.1.6.1.8l-1.6 8.6c-.1.8-.7.8-1.1.8h-11.2c-.4 0-1 0-1.1-.8Z"/>
  <path d="m5.6999 11.6-1.5-7.4h-1.8V3h2.4c.3 0 .6.2.6.5l1.5 7.9-1.2.2Z"/>
</g></svg>