<svg xmlns="http://www.w3.org/2000/svg" data-laicon-version="15.0" viewBox="0 0 20 20" fill="black"><g transform="translate(-2 -2)">
  <path d="M13.9286 11.2422c0-.563.456-1.02 1.02-1.02.562 0 1.018.457 1.018 1.02 0 .562-.456 1.019-1.018 1.019-.564 0-1.02-.457-1.02-1.019Zm-4.857 1.019c-.563 0-1.019-.457-1.019-1.019 0-.563.456-1.02 1.019-1.02s1.019.457 1.019 1.02c0 .562-.456 1.019-1.019 1.019Zm2.438 2.688v-1.848h1v1.848l1.6.924-.5.865-1.6-.924-1.6.924-.5-.865 1.6-.924Zm9.084-11.811a.641.641 0 0 0-.65 0l-4.384 2.53h-7.101l-4.383-2.53a.641.641 0 0 0-.65 0 .6477.6477 0 0 0-.325.562v8.341c0 4.912 3.997 8.909 8.909 8.909 4.912 0 8.909-3.997 8.909-8.909v-8.341c0-.232-.124-.447-.325-.562Z"/>
</g></svg>