<svg xmlns="http://www.w3.org/2000/svg" data-laicon-version="15.0" viewBox="0 0 20 20" fill="black"><g transform="translate(-2 -2)">
  <path d="M3.4502 4.6c0-.6352.5148-1.15 1.15-1.15h14.8c.6352 0 1.15.5148 1.15 1.15v14.8c0 .6351-.5149 1.15-1.15 1.15h-14.8c-.6352 0-1.15-.5148-1.15-1.15V4.6Zm8.2935 8.4301c.0144-.0576-.0144-.1009-.0864-.1225l-1.0944-.288c-.0648-.0215-.108.0073-.1368.0793-.1944.5328-.612.7487-1.1376.7487-.7632 0-1.2888-.5544-1.2888-1.4399 0-.8785.5184-1.4401 1.2888-1.4401.4536 0 .792.1873 1.008.5545.036.0576.0864.0792.144.0576l1.1016-.2952c.072-.0144.1008-.0721.072-.1441-.3744-.9431-1.1736-1.476-2.3256-1.476-1.5336 0-2.6784 1.1016-2.6784 2.7433 0 1.6416 1.0656 2.7431 2.6712 2.7431 1.2672 0 2.1528-.7128 2.4624-1.7207Zm5.6382 0c.0144-.0576-.0144-.1009-.0864-.1225l-1.0944-.288c-.0648-.0215-.108.0073-.1368.0793-.1944.5328-.612.7487-1.1376.7487-.7632 0-1.2888-.5544-1.2888-1.4399 0-.8785.5184-1.4401 1.2888-1.4401.4536 0 .792.1873 1.008.5545.036.0576.0864.0792.144.0576l1.1016-.2952c.072-.0144.1008-.0721.072-.1441-.3744-.9431-1.1736-1.476-2.3256-1.476-1.5336 0-2.6784 1.1016-2.6784 2.7433 0 1.6416 1.0656 2.7431 2.6712 2.7431 1.2672 0 2.1528-.7128 2.4624-1.7207Z"/>
</g></svg>