<svg xmlns="http://www.w3.org/2000/svg" data-laicon-version="15.0" viewBox="0 0 20 20" fill="black"><g transform="translate(-2 -2)">
  <path d="M2.75 12c0-5.1086 4.1414-9.25 9.25-9.25s9.25 4.1414 9.25 9.25-4.1414 9.25-9.25 9.25S2.75 17.1086 2.75 12Zm7.7297-2.9345c-1.2302 1.2301-1.2302 3.2246 0 4.4547.2082.2083.4384.3813.6831.5191l.7311-.7312a.848.848 0 0 0 .1842-.275 1.8427 1.8427 0 0 1-.6792-.4321c-.7224-.7225-.7224-1.8938 0-2.6163l1.4142-1.4142c.7225-.7225 1.8939-.7225 2.6163 0 .7225.7225.7225 1.8938 0 2.6163l-.2009.2009a4.1647 4.1647 0 0 1 .2023 1.6362l.9179-.9179c1.2301-1.2301 1.2301-3.2246 0-4.4547-1.2302-1.2302-3.2247-1.2302-4.4548 0l-1.4142 1.4142Zm1.4421 1.9013a1.844 1.844 0 0 1 .6792.4321c.7225.7225.7225 1.8938 0 2.6163l-1.4142 1.4142c-.7225.7225-1.8938.7225-2.6163 0-.7225-.7224-.7225-1.8938 0-2.6163l.201-.2009a4.1658 4.1658 0 0 1-.2024-1.6362l-.9179.9179c-1.2301 1.2301-1.2301 3.2246 0 4.4548 1.2302 1.2301 3.2247 1.2301 4.4548 0l1.4142-1.4142c1.2302-1.2302 1.2302-3.2247 0-4.4548a3.1502 3.1502 0 0 0-.683-.519l-.7312.7311a.848.848 0 0 0-.1842.275Z"/>
</g></svg>