<svg xmlns="http://www.w3.org/2000/svg" data-laicon-version="18.1" viewBox="0 0 20 20" fill="black"><g transform="translate(-2 -2)">
  <path d="M21.05 18.98H2.798V6.378h1.6V17.38H21.05v1.6Z"/>
  <path d="M18.643 11.284a.8.8 0 0 1 .715 1.432l-4 2-.265.132-.287-.072-3.713-.928-3.735 1.868a.8.8 0 0 1-.715-1.432l4-2 .264-.132.287.072 3.713.927 3.736-1.867Z"/>
  <path d="M18.474 5.897a.8.8 0 0 1 1.052 1.206l-4 3.5-.27.235-.356-.044-3.68-.46-3.74 2.806a.8.8 0 0 1-.96-1.28l4.258-3.194 3.965.495 3.73-3.264Z"/>
</g></svg>