<svg xmlns="http://www.w3.org/2000/svg" data-laicon-version="15.0" viewBox="0 0 20 20" fill="black"><g transform="translate(-2 -2)">
  <path d="M9.0498 5.8122c-.8284 0-1.5.6715-1.5 1.5 0 .8284.6716 1.5 1.5 1.5s1.5-.6716 1.5-1.5c0-.8285-.6716-1.5-1.5-1.5Zm-1.1875 6.2601c-.8284 0-1.5.6716-1.5 1.5s.6716 1.5 1.5 1.5 1.5-.6716 1.5-1.5-.6716-1.5-1.5-1.5Z"/>
  <path d="M21.0502 18.53H2.7979V5.9313h1.6V16.93h16.6523v1.6Z"/>
  <path d="M13.02 9.9928c-.8284 0-1.5.6716-1.5 1.5s.6716 1.5 1.5 1.5 1.5-.6716 1.5-1.5-.6716-1.5-1.5-1.5Zm2.8413-4.7598c-.8284 0-1.5.6717-1.5 1.5 0 .8285.6716 1.5 1.5 1.5s1.5-.6715 1.5-1.5c0-.8283-.6716-1.5-1.5-1.5Zm2.5259 7.2623c-.8284 0-1.5.6715-1.5 1.5 0 .8284.6716 1.5 1.5 1.5s1.5-.6716 1.5-1.5c0-.8285-.6716-1.5-1.5-1.5Z"/>
</g></svg>