<svg xmlns="http://www.w3.org/2000/svg" data-laicon-version="15.0" viewBox="0 0 20 20" fill="black"><g transform="translate(-2 -2)">
  <path d="M19.3778 5.251v8.288h-2.14v2.799h-2.8v2.13h-5.802l-2.341 2.34a.6502.6502 0 0 1-.7084.1414.6496.6496 0 0 1-.4016-.6004v-1.88h-.97a1.6486 1.6486 0 0 1-1.189-.4704 1.649 1.649 0 0 1-.496-1.1786V5.25c0-.91.74-1.65 1.65-1.65h13.55c.91 0 1.65.74 1.65 1.65l-.002.001Zm-7.449 5.787a.9.9 0 1 0-1.8 0 .9.9 0 0 0 1.8 0Zm-4.438.9a.9.9 0 1 0 0-1.7998.9.9 0 0 0 0 1.7998Zm7.977-.9a.9.9 0 1 0-1.8 0 .9.9 0 0 0 1.8 0Z"/>
  <path d="M18.238 21.138v-2.8h-2.8v-1h2.8v-2.8h1v2.8h2.8v1h-2.8v2.8h-1Z"/>
</g></svg>