<svg xmlns="http://www.w3.org/2000/svg" data-laicon-version="15.0" viewBox="0 0 20 20" fill="black"><g transform="translate(-2 -2)">
  <path d="M7.7085 5.2084C9.2296 3.6873 11.2572 2.85 13.4028 2.85c2.1455 0 4.1732.8373 5.6943 2.3584 2.5393 2.5393 3.0852 6.3812 1.4025 9.5022l1.121 3.596a.6501.6501 0 0 1-.8109.8149l-3.6077-1.1047a8.0725 8.0725 0 0 1-3.8085.9572c-2.1464 0-4.1645-.8379-5.685-2.3584C6.187 15.0942 5.35 13.0664 5.35 10.912c0-2.1556.8378-4.1729 2.3569-5.702l.0015-.0016ZM9.5 10.8001c0 .4408.3592.8.8.8s.8-.3592.8-.8c0-.4409-.3592-.8-.8-.8s-.8.3591-.8.8Zm3.8999-.8c-.4408 0-.8.3591-.8.8 0 .4408.3592.8.8.8s.8-.3592.8-.8c0-.4409-.351-.8-.8-.8Zm2.3.8c0 .4408.3592.8.8.8s.8-.3592.8-.8c0-.4409-.3592-.8-.8-.8s-.8.3591-.8.8Z"/>
  <path d="M11.4659 19.9475c-3.959-.8421-6.9811-4.2169-7.29-8.348a5.637 5.637 0 0 0-.1799.1722 5.5629 5.5629 0 0 0-1.1967 1.7752c-.6254 1.4845-.579 3.1941.1886 4.6766L2.2752 20.51a.65.65 0 0 0 .8108.8149l2.2954-.7028c.781.4014 1.65.6151 2.5368.6151 1.3114 0 2.5539-.4552 3.5478-1.2897Z"/>
</g></svg>