<svg xmlns="http://www.w3.org/2000/svg" data-laicon-version="15.0" viewBox="0 0 20 20" fill="black"><g transform="translate(-2 -2)">
  <path d="M5.7146 5.499C7.2601 3.9392 9.4638 3.11 12.0997 3.11c2.5189 0 4.6585.716 6.1779 2.051 1.5279 1.3427 2.371 3.2622 2.371 5.5399 0 4.1857-3.4041 7.5896-7.5894 7.5904h-.0015l-2.2892.0098h-.0028c-1.3299 0-2.114.9634-2.5516 1.8265l-.4192.827-.6345-.6761c-1.2252-1.3055-3.8103-4.4963-3.8103-8.3437 0-2.6556.8198-4.8767 2.3645-6.4358Zm7.316 6.8589c-.0469.0464-.7831-.2753-1.5957-1.1167-.8977-.9441-1.0053-1.4843-1.0053-1.4843l.7505-.7437c.1517-.1375.1878-.439.0709-.5698l-.9223-1.073c-.2834-.3174-.8357-.3174-1.156 0l-.5956.6014c-.4116.4078-.5958 2.1785 1.6654 4.4817 2.317 2.2482 3.9703 2.1901 4.5761 1.7506l.6614-.6745c.2954-.3627.1786-.8749-.0509-1.0761l-1.1058-.9311c-.0912-.0868-.3696-.0868-.4943.0366l-.7984.7989Z"/>
</g></svg>