<svg xmlns="http://www.w3.org/2000/svg" data-laicon-version="15.0" viewBox="0 0 20 20" fill="black"><g transform="translate(-2 -2)">
  <path d="M5.7146 5.499C7.26 3.9392 9.4638 3.11 12.0997 3.11c2.5189 0 4.6585.716 6.1779 2.051 1.5279 1.3427 2.371 3.2622 2.371 5.5399 0 4.1857-3.4041 7.5896-7.5894 7.5904h-.0015l-2.2892.0098h-.0028c-1.3299 0-2.114.9634-2.5516 1.8265l-.4192.827-.6345-.6761c-1.2252-1.3055-3.8103-4.4963-3.8103-8.3437 0-2.6556.8198-4.8767 2.3645-6.4358Zm5.6302 8.8874h1.3v-2.75h2.7501v-1.3h-2.7501v-2.75h-1.3v2.75h-2.75v1.3h2.75v2.75Z"/>
</g></svg>