<svg xmlns="http://www.w3.org/2000/svg" data-laicon-version="15.7" viewBox="0 0 20 20" fill="black"><g transform="translate(-2 -2)">
  <path d="M4.356 5.797C5.684 4.389 7.612 3.55 10 3.55c2.13 0 3.99.649 5.329 1.824 1.344 1.181 2.12 2.861 2.12 4.826 0 1.95-.715 3.54-1.878 4.639-1.157 1.093-2.722 1.668-4.371 1.668H9.7c-.46 0-.95.127-1.326.401-.357.261-.65.68-.713 1.369-.048.539-.675 1.042-1.29.662C4.366 17.7 2.35 14.755 2.35 11.2c0-2.084.683-4.001 2.006-5.403Z"/>
  <path d="M12.108 21.37a8.617 8.617 0 0 1-2.952-3.422c.11-.073.306-.14.544-.14h1.5c1.95 0 3.843-.681 5.264-2.024 1.44-1.36 2.286-3.299 2.286-5.584 0-.72-.089-1.414-.26-2.07.46.227.88.504 1.254.828 1.23 1.064 1.905 2.589 1.905 4.4a5.976 5.976 0 0 1-6.007 6.007h-1.143c-.326 0-.554.115-.721.307-.18.206-.327.548-.368 1.048a.86.86 0 0 1-.435.682.83.83 0 0 1-.867-.033Z"/>
</g></svg>