<svg xmlns="http://www.w3.org/2000/svg" data-laicon-version="15.0" viewBox="0 0 20 20" fill="black"><g transform="translate(-2 -2)">
  <path d="M5.412 5.412C7.1288 3.695 9.4172 2.75 11.839 2.75s4.7102.945 6.4272 2.662c2.8754 2.8753 3.4863 7.2297 1.5648 10.7585l1.2894 4.136a.65.65 0 0 1-.8108.815l-4.1492-1.2705a9.1125 9.1125 0 0 1-4.332 1.0983c-2.4226 0-4.7002-.9455-6.4166-2.6619C3.6946 16.5701 2.75 14.2816 2.75 11.8497c0-2.4332.9454-4.71 2.6604-6.4363l.0015-.0015ZM8.4 11.05c-.5235 0-.95.4265-.95.95s.4265.95.95.95c.5234 0 .95-.4265.95-.95s-.4266-.95-.95-.95Zm2.65.95c0 .5235.4265.95.95.95s.95-.4265.95-.95-.4168-.95-.95-.95c-.5235 0-.95.4265-.95.95Zm3.55 0c0 .5235.4265.95.95.95.5234 0 .95-.4265.95-.95s-.4266-.95-.95-.95c-.5235 0-.95.4265-.95.95Z"/>
</g></svg>