<svg xmlns="http://www.w3.org/2000/svg" data-laicon-version="15.0" viewBox="0 0 20 20" fill="black"><g transform="translate(-2 -2)">
  <path d="M8.6878 16.151h7.492c.817 0 1.479-.662 1.479-1.479v-9.59a1.4798 1.4798 0 0 0-1.48-1.48H4.9468a1.48 1.48 0 0 0-1.48 1.48v9.59c0 .817.663 1.48 1.48 1.48h.724V17.6a.6498.6498 0 0 0 .777.6382.65.65 0 0 0 .333-.1782l1.908-1.909h-.001Z"/>
  <path d="M9.6188 19.253a1.341 1.341 0 0 1-1.34-1.28l.822-.821h7.078a2.482 2.482 0 0 0 2.479-2.479V8.198h.317c.741 0 1.34.602 1.34 1.341v8.372c0 .742-.6 1.341-1.34 1.341h-.495v1.098a.6495.6495 0 0 1-.4011.6012.6493.6493 0 0 1-.3759.037.6493.6493 0 0 1-.333-.1782l-1.556-1.557h-6.195Z"/>
</g></svg>