<svg xmlns="http://www.w3.org/2000/svg" data-laicon-version="15.0" viewBox="0 0 20 20" fill="black"><g transform="translate(-2 -2)">
  <path d="M9.5728 18.468h9.093c.4376 0 .8573-.1738 1.1667-.4833a1.6496 1.6496 0 0 0 .4833-1.1667V5.251a1.6497 1.6497 0 0 0-1.65-1.65h-13.55a1.65 1.65 0 0 0-1.65 1.65V16.82c0 .911.74 1.65 1.65 1.65h1.007v1.88a.6498.6498 0 0 0 .777.6382.6493.6493 0 0 0 .333-.1782l2.34-2.34v-.002Zm5.115-7.902v-.001a.5003.5003 0 0 1 .183.683.5003.5003 0 0 1-.183.183l-4.038 2.332a.4997.4997 0 0 1-.683-.183.5.5 0 0 1-.067-.25V8.667a.5.5 0 0 1 .75-.433l4.038 2.332Z"/>
</g></svg>