<svg xmlns="http://www.w3.org/2000/svg" data-laicon-version="15.0" viewBox="0 0 20 20" fill="black"><g transform="translate(-2 -2)">
  <path d="M9.673 18.468h9.0929c.4376 0 .8573-.1738 1.1667-.4833a1.6496 1.6496 0 0 0 .4833-1.1667V5.251a1.6497 1.6497 0 0 0-1.65-1.65h-13.55a1.65 1.65 0 0 0-1.65 1.65V16.82a1.65 1.65 0 0 0 1.687 1.65h.97v1.88a.6498.6498 0 0 0 .777.6382.6494.6494 0 0 0 .333-.1782l2.34-2.34v-.002Zm2.3179-6.53a.9.9 0 1 1 0-1.8.9.9 0 0 1 0 1.8Zm-2.638-.9a.9.9 0 1 1-1.8 0 .9.9 0 0 1 1.8 0Zm6.176.9a.9.9 0 1 1 0-1.8.9.9 0 0 1 0 1.8Z"/>
</g></svg>