<svg xmlns="http://www.w3.org/2000/svg" data-laicon-version="15.0" viewBox="0 0 20 20" fill="black"><g transform="translate(-2 -2)">
  <path d="M13.8359 5.0277c.1976 0 .3933.0048.5871.0146C13.2605 3.7363 11.5247 3.03 9.4304 3.03c-1.8729 0-3.4808.5326-4.63 1.5424C3.6427 5.5897 3.0083 7.042 3.0083 8.752c0 1.9654.9952 3.7006 2.5066 4.7308a8.206 8.206 0 0 1-.0003-.0719c0-2.4174.7504-4.5513 2.2704-6.0854 1.5218-1.536 3.6439-2.2978 6.0509-2.2978Z"/>
  <path d="M8.4954 8.0292c1.2985-1.3105 3.1452-2.0016 5.3405-2.0016 2.0959 0 3.8872.5958 5.1641 1.718 1.2855 1.1295 1.9919 2.743 1.9919 4.6489 0 3.5108-2.855 6.3657-6.3654 6.3665h-.0015l-1.885.0081h-.0028c-1.0289 0-1.645.7427-1.9994 1.4416l-.4192.8269-.6345-.676c-1.0122-1.0785-3.1695-3.735-3.1695-6.9508 0-2.211.683-4.0717 1.9808-5.3816Z"/>
</g></svg>