<svg xmlns="http://www.w3.org/2000/svg" data-laicon-version="15.0" viewBox="0 0 20 20" fill="black"><g transform="translate(-2 -2)">
  <path d="M8.9482 13.6181v-1.1106l4.8439-4.8315 1.1138 1.1255-4.8517 4.8166h-1.106Z"/>
  <path d="M5.7146 5.499C7.26 3.9392 9.4638 3.11 12.0997 3.11c2.5189 0 4.6585.716 6.1779 2.051 1.528 1.3427 2.371 3.2622 2.371 5.5399 0 4.1857-3.4041 7.5896-7.5894 7.5904h-.0015l-2.2892.0098h-.0028c-1.33 0-2.114.9634-2.5516 1.8265l-.4192.827-.6345-.6761c-1.2252-1.3055-3.8103-4.4963-3.8103-8.3437 0-2.6556.8198-4.8767 2.3645-6.4358Zm10.7459 3.3094-2.6631-2.691-5.949 5.9337v2.667h2.6593l5.9528-5.9097Z"/>
</g></svg>