<svg xmlns="http://www.w3.org/2000/svg" data-laicon-version="15.0" viewBox="0 0 20 20" fill="black"><g transform="translate(-2 -2)">
  <path d="M11.2476 18.2975v-6.3891H3.3501v.0248c0 3.8474 2.585 7.0383 3.8103 8.3438l.6345.676.4192-.8269c.4376-.8632 1.2217-1.8266 2.5516-1.8266h.0028l.4791-.002Zm1.2998-.0056.5101-.0022h.0014c3.774-.0007 6.9127-2.7684 7.4933-6.3813h-8.0048v6.3835Zm8.1005-7.6835c-.0221-2.2378-.863-4.1241-2.3706-5.449-1.4285-1.2552-3.4052-1.9631-5.7299-2.0433v7.4923h8.1005Zm-9.4006-7.4701c-2.2597.161-4.1572.9705-5.533 2.3591-1.2803 1.2921-2.0625 3.039-2.293 5.111h7.826V3.1383Z"/>
</g></svg>