<svg xmlns="http://www.w3.org/2000/svg" data-laicon-version="15.0" viewBox="0 0 20 20" fill="black"><g transform="translate(-2 -2)">
  <path d="M14.078 12.2499a.8602.8602 0 0 1-.86-.86.86.86 0 1 1 .86.86Zm-3.382 0a.8588.8588 0 0 1-.6084-.2511.8611.8611 0 0 1-.2526-.6079.8597.8597 0 0 1 .53-.7951.8601.8601 0 1 1 .331 1.6541Zm-2.524-.86a.8602.8602 0 0 1-.86.86.8603.8603 0 0 1-.86-.86.8602.8602 0 0 1 1.4681-.6081.8602.8602 0 0 1 .2519.6081Zm8.157 4.38h.595v-3.342h1.998c.1-.48.152-.975.152-1.483 0-4.425-3.219-7.285-8.202-7.285-5.099 0-8.393 3.322-8.393 8.465 0 3.573 2.287 6.544 3.65 7.997l.635.676.42-.827c.4-.79 1.143-1.731 2.416-1.731l2.189-.01a7.2028 7.2028 0 0 0 1.793-.232v-2.228h2.747Zm1.219 1.84h-3.149v-1.3h3.149v-3.15h1.3v3.148h3.148v1.3h-3.148v3.149h-1.3v-3.149.002Z"/>
</g></svg>