<svg xmlns="http://www.w3.org/2000/svg" data-laicon-version="15.0" viewBox="0 0 20 20" fill="black"><g transform="translate(-2 -2)">
  <path d="M20.6418 4.302a1.088 1.088 0 1 0-2.1762 0 1.088 1.088 0 0 0 2.1762 0Z"/>
  <path d="M17.4658 4.304a2.0923 2.0923 0 0 0 .9119 1.7245 2.092 2.092 0 0 0 1.9381.2225v10.567c0 .4376-.1738.8573-.4833 1.1667a1.6496 1.6496 0 0 1-1.1667.4833h-9.093l-2.34 2.34a.6502.6502 0 0 1-.7084.1414.6496.6496 0 0 1-.4016-.6004v-1.88h-.97a1.65 1.65 0 0 1-1.686-1.649V5.25c0-.91.739-1.65 1.65-1.65h12.47a2.079 2.079 0 0 0-.121.703v.001Z"/>
</g></svg>