<svg xmlns="http://www.w3.org/2000/svg" data-laicon-version="15.0" viewBox="0 0 20 20" fill="black"><g transform="translate(-2 -2)">
  <path d="M2.6499 11.4722c0-4.6194 4.2744-8.2152 9.35-8.2152s9.35 3.5958 9.35 8.2152c0 4.6195-4.2744 8.2152-9.35 8.2152-1.3287 0-2.5889-.25-3.7325-.6896l-2.8458 1.6569a.65.65 0 0 1-.9668-.677l.5512-3.0607c-1.4519-1.438-2.3561-3.3395-2.3561-5.4448Zm8.3616.0001c0 .5459.4425.9884.9884.9884.5459 0 .9884-.4425.9884-.9884 0-.5459-.4425-.9884-.9884-.9884-.5459 0-.9884.4425-.9884.9884Zm4.771-.9884c-.5459 0-.9884.4425-.9884.9884 0 .5459.4425.9884.9884.9884.5459 0 .9884-.4425.9884-.9884 0-.5459-.4425-.9884-.9884-.9884Zm-8.5536.9884c0 .5459.4425.9884.9884.9884a.9883.9883 0 0 0 .9884-.9884c0-.5459-.4425-.9884-.9884-.9884-.5459 0-.9884.4425-.9884.9884Z"/>
</g></svg>