<svg xmlns="http://www.w3.org/2000/svg" data-laicon-version="15.0" viewBox="0 0 20 20" fill="black"><g transform="translate(-2 -2)">
  <path d="M5.716 5.499C7.2616 3.9392 9.4654 3.11 12.1013 3.11c2.5189 0 4.6585.716 6.1779 2.051 1.5279 1.3427 2.371 3.2622 2.371 5.5399 0 4.1857-3.4041 7.5896-7.5894 7.5904h-.0015l-2.2892.0098h-.0028c-1.33 0-2.114.9634-2.5516 1.8265l-.4192.827-.6345-.6761c-1.2253-1.3055-3.8103-4.4963-3.8103-8.3437 0-2.6556.8197-4.8767 2.3645-6.4358ZM7.35 8.4958v5.32h1.3v-2.01h1.5672v2.01h1.3v-5.32h-1.3v2.01H8.6501v-2.01h-1.3Zm5.2423 1.7154v3.6046h1.3v-3.6046h-1.3Zm.6578-1.6977a.64.64 0 1 0 0 1.28.64.64 0 0 0 0-1.28Zm1.8523 4.6182a.6499.6499 0 1 0 1.2997 0 .6499.6499 0 0 0-1.2997 0Zm-.0001-1.0643h1.3v-3.554h-1.3v3.554Z"/>
</g></svg>