<svg xmlns="http://www.w3.org/2000/svg" data-laicon-version="15.0" viewBox="0 0 20 20" fill="black"><g transform="translate(-2 -2)">
  <path d="m18.0567 14.6922-1.557-1.5571-2.4749 2.4749 1.5607 1.5607c-1.1009.6688-2.3922 1.0542-3.7719 1.0545h-.0015l-2.1891.0094h-.0028c-1.2554 0-1.9978.9087-2.4148 1.7312l-.4193.8269-.6344-.676C4.979 18.8674 2.5 15.8089 2.5 12.1178c0-2.5455.7859-4.6774 2.2695-6.1748C6.2538 4.445 8.3692 3.65 10.896 3.65c2.4141 0 4.4675.6862 5.9268 1.9685 1.468 1.29 2.2772 3.1337 2.2772 5.3193 0 1.3724-.3812 2.6573-1.0433 3.7544ZM7.3 12.3a.9.9 0 0 0 .9-.9.9.9 0 0 0-.9-.9.9.9 0 0 0-.9.9.9.9 0 0 0 .9.9Zm3.4 0a.9.9 0 0 0 .9-.9.9.9 0 0 0-.9-.9.9.9 0 0 0-.9.9.9.9 0 0 0 .9.9Zm3.4 0a.9.9 0 1 0 0-1.8.9.9 0 0 0 0 1.8Z"/>
  <path d="M20.1434 20.1728 15.5806 15.61l.9192-.9192 4.5628 4.5628-.9192.9192Z"/>
  <path d="m21.0626 15.6096-4.5628 4.5628-.9192-.9193 4.5628-4.5628.9192.9193Z"/>
</g></svg>