<svg xmlns="http://www.w3.org/2000/svg" data-laicon-version="15.0" viewBox="0 0 20 20" fill="black"><g transform="translate(-2 -2)">
  <path d="M9.234 11.135a.9.9 0 1 1-1.8-.0001.9.9 0 0 1 1.8.0001Zm2.6381.9a.9.9 0 1 1 .0001-1.8001.9.9 0 0 1-.0001 1.8001Zm4.438-.9a.9.9 0 1 1-1.8001-.0001.9.9 0 0 1 1.8001.0001Zm-4.252-8.055c-5.315 0-8.749 3.464-8.749 8.825 0 3.727 2.387 6.827 3.81 8.343l.635.676.418-.827c.423-.833 1.209-1.826 2.555-1.826l2.289-.01c4.186 0 7.591-3.405 7.591-7.59 0-4.612-3.355-7.591-8.549-7.591Z"/>
</g></svg>