<svg xmlns="http://www.w3.org/2000/svg" data-laicon-version="15.0" viewBox="0 0 20 20" fill="black"><g transform="translate(-2 -2)">
  <path d="M15.9999 7.1h.2V5c0-1.2-1-2.2-2.1-2.2h-7.5c-1.2 0-2.2 1-2.2 2.2v14c0 1.2 1 2.1 2.2 2.1h7.4c1.2 0 2.1-1 2.1-2.1v-3.5h-.8c-.3 0-.6.2-.7.6l-.5 1.1-.8-.9c-.6-.6-2-2.3-2-4.4 0-1.4.4-2.6 1.3-3.5.8-.8 2-1.3 3.4-1.3Zm-4.3-1.4h-2.7v-1h2.7v1Z"/>
  <path d="M16.0001 8c-2.4 0-3.9 1.5-3.9 3.9 0 1.7 1.2 3.2 1.7 3.8.2-.4.7-1 1.5-1h1.1c1.8 0 3.3-1.5 3.3-3.3.1-2.1-1.4-3.4-3.7-3.4Zm-1.7 4.1c-.3 0-.5-.2-.5-.5s.2-.5.5-.5.5.2.5.5c0 .2-.2.5-.5.5Zm1.6 0c-.3 0-.5-.2-.5-.5s.2-.5.5-.5.5.2.5.5c.1.2-.2.5-.5.5Zm1.7 0c-.3 0-.5-.2-.5-.5s.2-.5.5-.5.5.2.5.5c0 .2-.2.5-.5.5Z"/>
</g></svg>