<svg xmlns="http://www.w3.org/2000/svg" data-laicon-version="15.0" viewBox="0 0 20 20" fill="black"><g transform="translate(-2 -2)">
  <path d="m8.6184 11.0239 2.552 2.552 4.212-4.212.707.707-4.919 4.919-3.259-3.259.707-.707Zm11.935-3.953c-.236-1.899-1.726-3.389-3.624-3.622-3.19-.397-6.668-.397-9.858 0a4.1598 4.1598 0 0 0-3.624 3.622c-.198 1.608-.299 3.266-.299 4.929 0 1.663.101 3.321.299 4.929.235 1.899 1.726 3.389 3.624 3.622 1.595.199 3.253.299 4.929.299 1.676 0 3.334-.1 4.929-.299a4.1608 4.1608 0 0 0 3.624-3.622c.198-1.608.298-3.266.298-4.929 0-1.663-.1-3.321-.298-4.929Z"/>
</g></svg>