<svg xmlns="http://www.w3.org/2000/svg" data-laicon-version="15.0" viewBox="0 0 20 20" fill="black"><g transform="translate(-2 -2)">
  <path d="m8.3848 5.211-3.285 3.166L2.789 6.1879 4.1646 4.736l.9233.8748 1.909-1.8399 1.3879 1.44ZM20.5 7.2h-10v-2h10v2ZM8.3848 11.201l-3.285 3.1661-2.3107-2.1892 1.3755-1.4519.9233.8748 1.909-1.8399 1.3879 1.4401Zm12.1152 1.9h-10v-2h10v2ZM8.3846 17.2291l-3.285 3.1648-2.3105-2.1891 1.3755-1.4518.9234.8749 1.909-1.8391 1.3876 1.4403ZM20.5 19.0049h-10v-2h10v2Z"/>
</g></svg>