<svg xmlns="http://www.w3.org/2000/svg" data-laicon-version="15.0" viewBox="0 0 20 20" fill="black"><g transform="translate(-2 -2)">
  <path d="M7.3728 9.462A4.697 4.697 0 0 1 7.3501 9c0-2.5682 2.0819-4.65 4.65-4.65 2.5681 0 4.65 2.0819 4.65 4.65 0 .1558-.0077.31-.0227.462a5.6764 5.6764 0 0 0-1.1273-.1125 5.6259 5.6259 0 0 0-3.5003 1.2146 5.6257 5.6257 0 0 0-3.4999-1.2146 5.678 5.678 0 0 0-1.1271.1124Zm.205.9789c-2.1263.4279-3.7277 2.3062-3.7277 4.5586 0 2.5681 2.0819 4.65 4.65 4.65a4.6294 4.6294 0 0 0 2.7644-.9107c-.8802-.9962-1.4144-2.3054-1.4144-3.7393s.5341-2.743 1.4143-3.7393a4.6295 4.6295 0 0 0-2.7645-.9107c-.3157 0-.624.0314-.922.0914Zm7.9223-.0914c.3157 0 .6241.0315.9222.0914 2.1264.4279 3.7278 2.3062 3.7278 4.5586 0 2.5681-2.0819 4.65-4.65 4.65-1.3957 0-2.6477-.6149-3.5001-1.5885-.716-.818-1.1499-1.8891-1.1499-3.0615 0-2.5681 2.0819-4.65 4.65-4.65Z"/>
</g></svg>