<svg xmlns="http://www.w3.org/2000/svg" data-laicon-version="15.0" viewBox="0 0 20 20" fill="black"><g transform="translate(-2 -2)">
  <path d="M12.0001 3.1001c-4.92 0-8.9 3.98-8.9 8.9s3.98 8.9 8.9 8.9 8.9-3.98 8.9-8.9-3.98-8.9-8.9-8.9Zm-4.71 12c-.46 0-.8-.34-.8-.78s.34-.78.8-.78.8.34.8.78-.34.78-.8.78Zm3.61.03c-1.12 0-1.97-.63-2.29-1.68-.02-.06-.02-.13.01-.19s.09-.11.17-.12l.79-.19c.14-.04.25.03.3.16.16.44.5.67.96.67.55 0 .88-.3.88-.8s-.33-.84-.89-.84c-.38 0-.7.12-1.09.42-.1.07-.2.07-.3.02l-.46-.21c-.11-.06-.17-.17-.16-.29l.27-2.99c.02-.15.11-.23.25-.23h3.22c.15 0 .25.11.25.25v.81c0 .15-.11.25-.25.25h-2.37l-.09 1c.31-.17.66-.26 1.04-.26 1.17 0 1.98.86 1.98 2.09s-.92 2.15-2.24 2.15l.02-.02Zm6.83-.23c-.04.07-.12.12-.21.12h-.95c-.07 0-.17-.02-.24-.12l-.8-1.18-.8 1.17c-.07.09-.15.13-.25.13h-.89c-.09 0-.17-.04-.21-.12-.04-.07-.03-.16.02-.25l1.34-1.92-1.26-1.8c-.06-.08-.06-.17-.02-.25.04-.07.12-.12.21-.12h.95c.07 0 .17.02.25.12l.72 1.06.72-1.05c.09-.11.19-.13.25-.13h.89c.09 0 .17.04.21.12.04.07.03.16-.02.25l-1.26 1.8 1.34 1.91c.06.08.06.17.02.25l-.01.01Z"/>
</g></svg>