<svg xmlns="http://www.w3.org/2000/svg" data-laicon-version="15.0" viewBox="0 0 20 20" fill="black"><g transform="translate(-2 -2)">
  <path d="M12.0001 3.1001c-4.91 0-8.9 3.99-8.9 8.9s3.99 8.9 8.9 8.9 8.9-3.99 8.9-8.9-3.99-8.9-8.9-8.9Zm-.06 11.79c0 .15-.11.26-.26.26h-4.1c-.15 0-.26-.11-.26-.26v-.28c0-.08.03-.16.08-.23l1.54-1.74c1.06-1.19 1.31-1.6 1.31-2.1 0-.39-.28-.62-.76-.62-.43 0-.74.25-.91.72-.05.14-.17.21-.31.17l-.87-.24c-.1-.02-.14-.08-.17-.12-.02-.04-.04-.11-.01-.21.34-1.09 1.22-1.74 2.33-1.74 1.31 0 2.19.77 2.19 1.93 0 .95-.39 1.64-1.75 3.08l-.26.27h1.93c.15 0 .26.11.26.26v.86l.02-.01Zm4.98.14c-.04.07-.12.12-.22.12h-1.01c-.1 0-.19-.04-.25-.12l-.85-1.26-.85 1.25c-.07.09-.16.13-.26.13h-.94c-.1 0-.18-.04-.22-.12-.04-.08-.03-.17.02-.25l1.43-2.04-1.34-1.92c-.06-.09-.07-.18-.03-.25.04-.07.12-.12.22-.12h1.01c.07 0 .17.02.25.12l.77 1.14.77-1.13c.07-.09.16-.13.26-.13h.94c.1 0 .18.04.22.12.04.08.03.17-.02.25l-1.34 1.92 1.43 2.04c.06.09.07.18.03.25h-.02Z"/>
</g></svg>