<svg xmlns="http://www.w3.org/2000/svg" data-laicon-version="15.0" viewBox="0 0 20 20" fill="black"><g transform="translate(-2 -2)">
  <path d="M3.1001 11.9999c0-4.9154 3.9847-8.9 8.9-8.9s8.9 3.9846 8.9 8.9c0 4.9153-3.9847 8.9-8.9 8.9s-8.9-3.9847-8.9-8.9Zm6.7824-3.3893c-.0727 0-.1582.0138-.2374.0903l-1.6445 1.4072c-.0453.038-.0822.0891-.0957.1541-.0133.0639-.0008.1237.0202.1727l.1665.3155c.0277.0547.0724.1087.1414.1357.07.0274.1386.0168.1933-.0061l.9322-.3687v4.3778c0 .0657.0211.1343.0736.1869.0526.0525.1212.0736.1868.0736h.9265c.0657 0 .1343-.0211.1869-.0736.0525-.0526.0736-.1212.0736-.1869v-6.018c0-.0656-.0211-.1343-.0736-.1868-.0526-.0526-.1212-.0737-.1869-.0737h-.663Zm1.9438 1.836c-.0721 0-.1691.0263-.218.12-.0486.0931-.0156.1881.0252.2493l1.3442 1.9227-1.4273 2.039-.0019.0028c-.0408.0612-.0738.1562-.0252.2493.0489.0936.1459.1199.218.1199h.9435c.1124 0 .196-.0521.2535-.124l.8595-1.263.8447 1.2532.0077.0095c.0575.0719.1406.1243.2531.1243h1.0115c.0721 0 .1691-.0263.218-.1199.0486-.0931.0156-.1881-.0252-.2493l-1.4292-2.0418 1.3424-1.92.0018-.0028c.0408-.0611.0738-.1561.0252-.2492-.0489-.0937-.1459-.12-.218-.12h-.9435c-.1125 0-.196.0522-.2535.1241l-.7744 1.1358-.7599-1.1261-.0076-.0095c-.0575-.0719-.1407-.1243-.2531-.1243h-1.0115Z"/>
</g></svg>