<svg xmlns="http://www.w3.org/2000/svg" data-laicon-version="15.0" viewBox="0 0 20 20" fill="black"><g transform="translate(-2 -2)">
  <path d="M7.592 4.004c-1.979 0-3.588 1.609-3.588 3.588 0 1.978 1.609 3.5879 3.588 3.5879s3.5879-1.61 3.5879-3.588c0-1.979-1.609-3.588-3.588-3.588Zm8.8163 7.1757c1.979 0 3.588-1.609 3.588-3.588 0-1.978-1.609-3.588-3.588-3.588s-3.588 1.61-3.588 3.588c0 1.979 1.609 3.588 3.588 3.588ZM7.592 12.8203c-1.979 0-3.588 1.609-3.588 3.588 0 1.978 1.609 3.588 3.588 3.588s3.5879-1.61 3.5879-3.588c0-1.979-1.609-3.588-3.588-3.588Zm8.8163 0c-1.979 0-3.588 1.609-3.588 3.588 0 1.978 1.609 3.588 3.588 3.588s3.588-1.61 3.588-3.588c0-1.979-1.609-3.588-3.588-3.588Z"/>
</g></svg>