<svg xmlns="http://www.w3.org/2000/svg" data-laicon-version="15.0" viewBox="0 0 20 20" fill="black"><g transform="translate(-2 -2)">
  <path d="M5.3249 3.9557h2.675V5c0 .8284.6716 1.5 1.5 1.5h5c.8285 0 1.5-.6716 1.5-1.5V3.9557h2.6749c.6332 0 1.1481.5156 1.1481 1.1484v14.77c0 .6328-.5149 1.1483-1.1481 1.1483h-13.35c-.6331 0-1.148-.5155-1.148-1.1483v-14.77c0-.6328.5149-1.1484 1.148-1.1484Zm9.675-.4557V5a.5.5 0 0 1-.5.5h-5a.5.5 0 0 1-.5-.5V3.5a.5.5 0 0 1 .5-.5h5a.5.5 0 0 1 .5.5ZM8.8076 8.7068a.805.805 0 0 0-.805.805.805.805 0 1 0 .805-.805Zm-.0027 7.1311a.805.805 0 0 0-.805.805.805.805 0 1 0 .805-.805Zm-.805-2.7142c0 .4447.3603.805.805.805a.805.805 0 1 0-.805-.805Zm7.9194 4.1104v-1h-4.9809v1h4.9809Zm-4.9809-7.2223h4.9809v-1h-4.9809v1Zm4.9809 3.6119v-1h-4.9809v1h4.9809Z"/>
</g></svg>