<svg xmlns="http://www.w3.org/2000/svg" data-laicon-version="15.0" viewBox="0 0 20 20" fill="black"><g transform="translate(-2 -2)">
  <path d="M12.2169 5C9.8735 5 7.9128 6.3433 7.2083 8.2218l-.0272.0725a3.8898 3.8898 0 0 1-.061.0292c-2.845.4873-5.1043 3.0439-4.6457 6.0253l.0014.0081C2.9383 17.1322 5.5664 19 8.5169 19h8.2c2.4499 0 4.6036-1.5748 4.8465-3.882l.0006-.0064c.2313-2.4282-1.4734-4.378-3.8971-4.688v-.0073c.0001-.7758.0002-1.387-.342-2.1977C16.5964 6.0801 14.2798 5 12.2169 5Z"/>
</g></svg>