<svg xmlns="http://www.w3.org/2000/svg" data-laicon-version="15.0" viewBox="0 0 20 20" fill="black"><g transform="translate(-2 -2)">
  <path d="M6.6401 8.64c1.44.56 3.35.87 5.36.87 2.01 0 3.92-.31 5.36-.87.74-.29 1.33-.63 1.76-1.02.36-.33.78-.87.78-1.57 0-.7-.42-1.25-.78-1.57-.42-.39-1.02-.73-1.76-1.02-1.44-.56-3.34-.87-5.36-.87-2.02 0-3.92.31-5.36.87-.74.29-1.33.63-1.76 1.02-.36.33-.78.86-.78 1.57 0 .71.42 1.25.78 1.57.42.39 1.02.73 1.76 1.02Z"/>
  <path d="M17.8301 9.85c-1.59.62-3.66.96-5.83.96s-4.24-.34-5.83-.96c-.84-.33-1.53-.73-2.07-1.2v2.65c1.02.76 4.17 2.1 7.9 2.1 3.73 0 6.87-1.34 7.9-2.1V8.65c-.53.46-1.22.87-2.07 1.19v.01Z"/>
  <path d="M4.1001 12.6c1.03.76 4.17 2.1 7.9 2.1 3.73 0 6.88-1.34 7.9-2.1v2.6c-1.03.76-4.17 2.1-7.9 2.1-3.73 0-6.88-1.34-7.9-2.1v-2.6Z"/>
  <path d="M12.0001 18.6c-3.73 0-6.87-1.34-7.9-2.1v1.31c0 2.25 4.07 3.46 7.9 3.46s7.9-1.21 7.9-3.46V16.5c-1.02.76-4.17 2.1-7.9 2.1Z"/>
</g></svg>