<svg xmlns="http://www.w3.org/2000/svg" data-laicon-version="15.0" viewBox="0 0 20 20" fill="black"><g transform="translate(-2 -2)">
  <path d="M10.5468 9.1211c.059-.1.089-.213.089-.329v-4.167h2.728v4.167c0 .116.031.229.089.329l1.624 2.762h-6.154l1.624-2.762Zm10.188 9.822-6.071-10.328v-3.99h.606a.65.65 0 0 0 .65-.65c0-.36-.291-.651-.65-.651h-6.522c-.359 0-.65.291-.65.651 0 .359.291.65.65.65h.589v3.99l-6.071 10.327c-.209.355-.212.796-.008 1.154.205.357.587.58.998.58h15.488c.411 0 .794-.223.998-.58.204-.358.201-.799-.007-1.153Z"/>
</g></svg>