<svg xmlns="http://www.w3.org/2000/svg" data-laicon-version="15.0" viewBox="0 0 20 20" fill="black"><g transform="translate(-2 -2)">
  <path d="M7.1308 19.8965h-1v-2.277h1v2.277Zm-1-15.793h1v2.277h-1v-2.277Zm7.37 6.696.904-1.832.905 1.832 2.021.294-1.463 1.426.345 2.014-1.808-.951-1.808.951.346-2.014-1.463-1.426 2.021-.294Zm-7.37 4.592v-2.277h1v2.277h-1Zm0-4.506v-2.277h1v2.277h-1Zm14.169-6.783h-16.6c-.633 0-1.15.517-1.15 1.15v13.495c0 .633.517 1.15 1.15 1.15h16.6c.634 0 1.15-.517 1.15-1.15V5.2525c0-.633-.516-1.15-1.15-1.15Z"/>
</g></svg>