<svg xmlns="http://www.w3.org/2000/svg" data-laicon-version="15.0" viewBox="0 0 20 20" fill="black"><g transform="translate(-2 -2)">
  <path d="M14.29 11.5947c-.374 0-.645.255-.645.661s.271.661.645.661.645-.255.645-.661-.271-.661-.645-.661Zm-2.4812-.4765c0-.276-.195-.487-.461-.487h-.568v.974h.568c.266 0 .461-.211.461-.487Z"/>
  <path d="M6.6691 19.5303h-1v-2.261h1v2.261Zm-1-8.533v-2.262h1v2.262h-1Zm10.511-.003a.0662.0662 0 0 1 .061-.093h.693c.045 0 .086.027.103.069l.645 1.573.624-1.572c.016-.042.057-.07.103-.07h.693c.046 0 .08.048.062.092l-1.442 3.633a.1107.1107 0 0 1-.104.07h-.692c-.048 0-.08-.048-.063-.092l.393-.987-1.076-2.623Zm-2.052 2.692c-.71 0-1.295-.623-1.295-1.43 0-.808.585-1.431 1.295-1.431.362 0 .628.125.807.331v-.188c0-.037.03-.067.067-.067h.679c.037 0 .066.03.066.067v2.575c0 .037-.029.067-.066.067h-.679a.067.067 0 0 1-.067-.067v-.188c-.179.206-.445.331-.807.331Zm-4.216-.204v-3.537c0-.07.057-.128.127-.128h1.309c.748 0 1.327.58 1.327 1.301s-.579 1.3-1.327 1.3h-.569v1.064c0 .07-.057.128-.128.128h-.612a.128.128 0 0 1-.127-.128Zm-4.243 1.781v-2.261h1v2.261h-1Zm14.831-10.795H6.6691v2.261h-1v-2.261h-2.169c-.634 0-1.15.517-1.15 1.151v12.762c0 .633.516 1.15 1.15 1.15h17c.634 0 1.15-.517 1.15-1.15V5.6193c0-.634-.516-1.151-1.15-1.151Z"/>
</g></svg>