<svg xmlns="http://www.w3.org/2000/svg" data-laicon-version="15.0" viewBox="0 0 20 20" fill="black"><g transform="translate(-2 -2)">
  <path d="M13.2178 10.8213a.4512.4512 0 0 0 0-.638v-.001a.4494.4494 0 0 0-.319-.132c-.121 0-.234.047-.32.132-.085.086-.132.2-.132.32s.047.233.132.318c.172.172.468.171.639.001Zm2.5212 3.1103c.111.047.234.047.345 0h.001a.4522.4522 0 0 0 .244-.244.451.451 0 0 0-.245-.59.4482.4482 0 0 0-.172-.035c-.059 0-.117.012-.173.035a.4508.4508 0 0 0-.245.59.454.454 0 0 0 .245.244Z"/>
  <path d="M7.1308 19.8965h-1v-2.277h1v2.277Zm-1-15.793h1v2.277h-1v-2.277Zm5.954 5.584c.433-.434 1.193-.434 1.628 0 .217.218.337.507.337.814 0 .308-.12.597-.337.815-.217.217-.507.337-.814.337-.308 0-.598-.12-.815-.338a1.1436 1.1436 0 0 1-.337-.814c0-.307.12-.596.338-.814Zm.539 4.596-.495-.494 4.057-4.056.495.494-4.057 4.056Zm2.224-1.21c.117-.284.339-.505.623-.622.284-.119.597-.118.88-.001.285.118.507.34.624.624.118.284.118.596 0 .881a1.143 1.143 0 0 1-.623.623c-.142.059-.291.089-.441.089-.149 0-.298-.03-.44-.088-.284-.119-.506-.34-.623-.624a1.143 1.143 0 0 1 0-.882Zm-8.717 2.318v-2.277h1v2.277h-1Zm0-4.506v-2.277h1v2.277h-1Zm14.169-6.783h-16.6c-.634 0-1.15.517-1.15 1.15v13.495c0 .633.516 1.15 1.15 1.15h16.6c.634 0 1.15-.517 1.15-1.15V5.2525c0-.633-.516-1.15-1.15-1.15Z"/>
</g></svg>