<svg xmlns="http://www.w3.org/2000/svg" data-laicon-version="15.0" viewBox="0 0 20 20" fill="black"><g transform="translate(-2 -2)">
  <path d="M14.5759 13.9669h-.3156v-1.4646h.0016l.0265-.0002h.2875a.7325.7325 0 0 1 0 1.4648Zm-1.3159 0v-1.4646h-.6301v1.4646h.6301Zm1.0191-2.4648h-.0188v-1.4646h.0016a.7325.7325 0 0 1 .0172 1.4646Zm-1.0191 0v-1.4646h-.6301v1.4646h.6301Z"/>
  <path d="M3.6998 4.1025h16.6c.634 0 1.15.517 1.15 1.15v13.495c0 .633-.516 1.15-1.15 1.15h-16.6c-.634 0-1.15-.517-1.15-1.15V5.2525c0-.633.516-1.15 1.15-1.15Zm2.431 15.794h1v-2.277h-1v2.277Zm1-15.793h-1v2.277h1v-2.277Zm0 11.288v-2.277h-1v2.277h1Zm0-4.506v-2.277h-1v2.277h1Zm6.1292 4.849h1v-.7676h.3156c.9567 0 1.7324-.7756 1.7324-1.7324 0-.5661-.2716-1.0688-.6915-1.385a1.7252 1.7252 0 0 0 .3775-1.0796c0-.9568-.7757-1.7325-1.7324-1.7325H14.26v-.7673h-1v.7674h-1.6301v5.9294H13.26v.7676Z"/>
</g></svg>