<svg xmlns="http://www.w3.org/2000/svg" data-laicon-version="18.4" viewBox="0 0 20 20" fill="black"><g transform="translate(-2 -2)">
  <path d="M11.343 7.646a.845.845 0 0 1 1.382.097l2.338 3.898a.324.324 0 0 0 .44.113l3.074-1.786.122-.06c.616-.242 1.29.313 1.123.991l-1.69 6.883a.65.65 0 0 1-.632.494h-11a.65.65 0 0 1-.63-.494L4.178 10.9c-.167-.678.506-1.232 1.122-.99l.123.059 3.072 1.786c.153.089.35.039.441-.113l2.34-3.898.066-.097ZM3.43 7.451a1.1 1.1 0 1 1 0 2.2 1.1 1.1 0 0 1 0-2.2Zm17.144-.001a1.1 1.1 0 1 1-.001 2.2 1.1 1.1 0 0 1 .001-2.2Zm-8.573-3.1A1.1 1.1 0 1 1 12 6.55a1.1 1.1 0 0 1 0-2.2Z"/>
</g></svg>