<svg xmlns="http://www.w3.org/2000/svg" data-laicon-version="15.0" viewBox="0 0 20 20" fill="black"><g transform="translate(-2 -2)">
  <path d="m20.459 7.6738-.562.324-.569.329-6.828 3.942v9.19c.373-.059.739-.162 1.075-.355l5.539-3.198c.971-.561 1.574-1.606 1.574-2.727v-6.396c0-.387-.095-.756-.229-1.109ZM4.103 7.998l-.562-.324c-.134.352-.23.721-.23 1.109v6.396c0 1.121.604 2.166 1.575 2.727l5.539 3.198c.336.194.702.295 1.075.355v-9.19L4.672 8.327l-.569-.329Zm15.2945-.8652.562-.324c-.238-.293-.51-.56-.846-.753l-5.539-3.199c-.97-.559-2.178-.56-3.15.001l-5.538 3.197c-.336.194-.607.461-.845.754l.561.324.569.329 6.829 3.942 6.827-3.942.57-.329Z"/>
</g></svg>