<svg xmlns="http://www.w3.org/2000/svg" data-laicon-version="15.0" viewBox="0 0 20 20" fill="black"><g transform="translate(-2 -2)">
  <path d="M7.238 2.211c1.4884 0 2.695 1.2068 2.695 2.695 0 1.4886-1.2066 2.695-2.695 2.695S4.543 6.3947 4.543 4.906c0-1.4882 1.2066-2.695 2.695-2.695Zm0 14.2902c1.4884 0 2.695 1.2066 2.695 2.695s-1.2066 2.695-2.695 2.695-2.695-1.2066-2.695-2.695 1.2066-2.695 2.695-2.695ZM18.4309 5.4581c1.1686 0 2.116.9474 2.116 2.116 0 1.1687-.9474 2.116-2.116 2.116-1.1687 0-2.116-.9473-2.116-2.116 0-1.1686.9473-2.116 2.116-2.116Zm0 9.1671c1.1686 0 2.116.9473 2.116 2.116 0 1.1686-.9474 2.116-2.116 2.116-1.1687 0-2.116-.9474-2.116-2.116 0-1.1687.9473-2.116 2.116-2.116Z"/>
  <path d="m16.915 16.1431-8.809-9.861.9696-.866 8.8089 9.8609-.9695.8661Z"/>
  <path d="m17.8821 9.0417-8.763 9.192-.9409-.897 8.763-9.192.9409.897Z"/>
  <path d="M17.7808 15.2761v-6.237h1.3v6.237h-1.3Zm-.98-7.3631-7.71-2.386.3843-1.2418 7.71 2.386-.3843 1.2419V7.913ZM6.354 16.741V6.847h1.3v9.894h-1.3Zm10.9891 1.3633-7.956 2.258-.3549-1.2506 7.956-2.258.3549 1.2506Z"/>
</g></svg>