<svg xmlns="http://www.w3.org/2000/svg" data-laicon-version="15.0" viewBox="0 0 20 20" fill="black"><g transform="translate(-2 -2)">
  <path d="M12.0001 9.51c-2.01 0-3.92-.31-5.36-.87-.74-.29-1.34-.63-1.76-1.02-.36-.32-.78-.86-.78-1.57 0-.71.42-1.24.78-1.57.43-.39 1.02-.73 1.76-1.02 1.44-.56 3.34-.87 5.36-.87 2.02 0 3.92.31 5.36.87.74.29 1.34.63 1.76 1.02.36.32.78.87.78 1.57 0 .7-.42 1.24-.78 1.57-.43.39-1.02.73-1.76 1.02-1.44.56-3.35.87-5.36.87Zm0 1.3c2.17 0 4.24-.34 5.83-.96v-.01c.85-.32 1.54-.73 2.07-1.19v2.65c-1.03.76-4.17 2.1-7.9 2.1-3.73 0-6.88-1.34-7.9-2.1V8.65c.54.47 1.23.87 2.07 1.2 1.59.62 3.66.96 5.83.96Zm-6.2.35c0 .28.23.51.51.51s.51-.23.51-.51-.23-.51-.51-.51-.51.23-.51.51Zm6.2 3.54c-3.73 0-6.87-1.34-7.9-2.1v2.6c1.02.76 4.17 2.1 7.9 2.1 3.73 0 6.87-1.34 7.9-2.1v-2.6c-1.02.76-4.17 2.1-7.9 2.1Zm-5.69.78c-.28 0-.51-.23-.51-.51s.23-.51.51-.51.51.23.51.51-.23.51-.51.51Zm-2.21 1.02c1.03.76 4.17 2.1 7.9 2.1 3.73 0 6.88-1.34 7.9-2.1v1.31c0 2.25-4.07 3.46-7.9 3.46s-7.9-1.21-7.9-3.46V16.5Zm1.7 2.45c0 .28.23.51.51.51s.51-.23.51-.51-.23-.51-.51-.51-.51.23-.51.51Z"/>
</g></svg>