<svg xmlns="http://www.w3.org/2000/svg" data-laicon-version="15.0" viewBox="0 0 20 20" fill="black"><g transform="translate(-2 -2)">
  <path d="M5.3633 16.0499c1.2774 0 2.313 1.0356 2.313 2.313 0 1.2775-1.0356 2.3131-2.313 2.3131s-2.313-1.0356-2.313-2.3131c0-1.2774 1.0356-2.313 2.313-2.313Zm3.9995-13.6c1.2774 0 2.313 1.0356 2.313 2.313 0 1.2775-1.0356 2.313-2.313 2.313s-2.313-1.0354-2.313-2.313c0-1.2774 1.0356-2.313 2.313-2.313Zm9.3003 10.1c1.2775 0 2.313 1.0356 2.313 2.313 0 1.2775-1.0355 2.3131-2.313 2.3131-1.2774 0-2.313-1.0356-2.313-2.3131 0-1.2774 1.0356-2.313 2.313-2.313Zm-1.3074-3.95c-.6263 0-1.134-.5076-1.134-1.134 0-.6263.5077-1.134 1.134-1.134.6263 0 1.134.5077 1.134 1.134 0 .6263-.5077 1.134-1.134 1.134ZM12.653 20.789c-.6262 0-1.134-.5076-1.134-1.1339 0-.6263.5078-1.134 1.134-1.134.6263 0 1.134.5077 1.134 1.134 0 .6263-.5077 1.1339-1.134 1.1339ZM4.2448 12.22c-.6262 0-1.134-.5077-1.134-1.134 0-.6263.5078-1.134 1.134-1.134.6263 0 1.134.5077 1.134 1.134 0 .6263-.5077 1.134-1.134 1.134Zm7.4182-1.87c1.2775 0 2.313 1.0356 2.313 2.313s-1.0355 2.313-2.313 2.313c-1.2774 0-2.313-1.0356-2.313-2.313s1.0356-2.313 2.313-2.313Z"/>
  <path d="m10.4826 6.315 1.052 4.4599-1.2653.2984-1.052-4.46 1.2653-.2984Zm6.8763 8.9456-4.354-1.309.3743-1.245 4.354 1.309-.3743 1.245ZM10.666 14.31l-3.601 3.38-.8897-.9478 3.601-3.38.8897.9478Z"/>
</g></svg>