<svg xmlns="http://www.w3.org/2000/svg" data-laicon-version="15.0" viewBox="0 0 20 20" fill="black"><g transform="translate(-2 -2)">
  <path d="M7.389 2.535c1.4575 0 2.639 1.1815 2.639 2.639 0 1.4575-1.1815 2.639-2.639 2.639-1.4575 0-2.639-1.1815-2.639-2.639 0-1.4575 1.1815-2.639 2.639-2.639Zm.1997 13.6261c1.4575 0 2.639 1.1815 2.639 2.639 0 1.4574-1.1815 2.639-2.639 2.639-1.4575 0-2.639-1.1816-2.639-2.639 0-1.4575 1.1815-2.639 2.639-2.639Z"/>
  <path d="M15.0938 5.824h-5.21v-1.3h5.21c2.3666 0 4.7257 1.564 4.8442 3.9143.1231 2.435-2.07 4.2918-4.5862 4.2918h-6.216c-.6097 0-.952.4152-.952.753v3.327h-1.3v-3.327c0-1.2123 1.0917-2.053 2.252-2.053h6.216c1.9558 0 3.3647-1.4053 3.2878-2.9261v-.0001c-.0715-1.4198-1.6044-2.6799-3.5458-2.6799Z"/>
</g></svg>