<svg xmlns="http://www.w3.org/2000/svg" data-laicon-version="15.0" viewBox="0 0 20 20" fill="black"><g transform="translate(-2 -2)">
  <path d="M4.144 5.9433V16.133a.2846.2846 0 0 0 .051.0589.3585.3585 0 0 0 .0865.0589h15.4987a.393.393 0 0 0 .0731-.1092l.0032-.0079V5.9475a.4256.4256 0 0 0-.0574-.0741.486.486 0 0 0-.0346-.0334H4.261a.282.282 0 0 0-.0763.0546.3026.3026 0 0 0-.0408.0487Zm-1.08-1.1906c.2683-.2633.6834-.5127 1.1795-.5127H19.884c.2718 0 .5.1022.6494.1896.1617.0946.3077.2166.43.3463.2152.2283.4931.6292.4931 1.1127v10.2737c0 .4336-.2115.831-.4318 1.0954-.21.252-.6066.5931-1.1407.5931H4.2434c-.4433 0-.8513-.2269-1.1236-.474-.2809-.2549-.5758-.6762-.5758-1.2145V5.8886c0-.4765.2609-.8817.52-1.136Z"/>
  <path d="M11.2002 20.6888v-3.6434h1.6v3.6434h-1.6Z"/>
  <path d="M16.0199 20.8342H8.0166v-1.6h8.0033v1.6Z"/>
</g></svg>