<svg xmlns="http://www.w3.org/2000/svg" data-laicon-version="15.0" viewBox="0 0 20 20" fill="black"><g transform="translate(-2 -2)">
  <path d="M7.0002 7h-4l4-4v4Zm4.6 13.6h-7.7c-.6 0-1.2-.5-1.2-1.2V8h5.3V2.7h8.9c.6 0 1.2.5 1.2 1.2v9.7c-.5-.1-1-.2-1.5-.2-2.6 0-4.8 1.6-6 3.8l-.6 1 .5.9c.3.6.7 1.1 1.1 1.5Zm.1-2.7c1-1.9 2.8-3.1 4.9-3.1 2 0 3.8 1.2 4.9 3.1l.2.3-.2.3c-1 1.9-2.8 3.1-4.9 3.1-2 0-3.9-1.2-4.9-3.1l-.2-.3.2-.3Zm3.8.3c0-.6.5-1.1 1.1-1.1.6 0 1.1.5 1.1 1.1 0 .6-.5 1.1-1.1 1.1-.7 0-1.1-.5-1.1-1.1Zm1.1-1.9c-1 0-1.9.9-1.9 1.9 0 1 .9 1.9 1.9 1.9 1 0 1.9-.9 1.9-1.9 0-1.1-.9-1.9-1.9-1.9Z"/>
</g></svg>