<svg xmlns="http://www.w3.org/2000/svg" data-laicon-version="16.11" viewBox="0 0 20 20" fill="black"><g transform="translate(-2 -2)">
  <path d="M6.03 4.53a1.5 1.5 0 1 0 0 3 1.5 1.5 0 0 0 0-3Zm5.97 0a1.5 1.5 0 1 0 0 3 1.5 1.5 0 0 0 0-3Zm5.97 0a1.5 1.5 0 1 0 0 3 1.5 1.5 0 0 0 0-3ZM6.03 10.5a1.5 1.5 0 1 0 0 3 1.5 1.5 0 0 0 0-3Zm5.97 0a1.5 1.5 0 1 0 0 3 1.5 1.5 0 0 0 0-3Zm5.97 0a1.5 1.5 0 1 0 0 3 1.5 1.5 0 0 0 0-3ZM12 16.47a1.5 1.5 0 1 0 0 3 1.5 1.5 0 0 0 0-3Zm-5.97 0a1.5 1.5 0 1 0 0 3 1.5 1.5 0 0 0 0-3Zm11.94 0a1.5 1.5 0 1 0 0 3 1.5 1.5 0 0 0 0-3Z"/>
</g></svg>