<svg xmlns="http://www.w3.org/2000/svg" data-laicon-version="15.0" viewBox="0 0 20 20" fill="black"><g transform="translate(-2 -2)">
  <path d="M3.1911 9.5a9.2602 9.2602 0 0 0-.341 2.5c0 .867.119 1.705.341 2.5h5.286a24.8887 24.8887 0 0 1-.127-2.5c0-.838.044-1.68.127-2.5h-5.286Zm.344 6a9.2645 9.2645 0 0 0 6.928 5.606 3.2477 3.2477 0 0 1-.031-.042c-.433-.589-.803-1.399-1.106-2.328a19.5688 19.5688 0 0 1-.727-3.236h-5.064Zm10.202 5.606a9.2642 9.2642 0 0 0 6.928-5.606h-5.065a19.5647 19.5647 0 0 1-.727 3.236c-.302.93-.673 1.74-1.105 2.328l-.031.042Zm7.271-6.606a9.2577 9.2577 0 0 0 .342-2.5c0-.866-.12-1.705-.342-2.5h-5.286c.083.82.128 1.662.128 2.5 0 .838-.045 1.68-.128 2.5h5.286Zm-.343-6a9.2649 9.2649 0 0 0-6.928-5.605l.03.04c.433.59.804 1.4 1.106 2.329.31.952.559 2.059.727 3.236h5.065Zm-10.202-5.605A9.263 9.263 0 0 0 3.5351 8.5h5.064a19.621 19.621 0 0 1 .727-3.236c.303-.93.673-1.74 1.106-2.328l.03-.041h.001ZM9.6101 8.5c.16-1.07.388-2.07.667-2.926.286-.878.616-1.577.96-2.046.355-.483.653-.628.863-.628.21 0 .507.145.862.628.345.47.675 1.168.96 2.046.28.856.507 1.855.667 2.926h-4.979Zm.667 9.927a18.3823 18.3823 0 0 1-.667-2.927h4.98a18.3847 18.3847 0 0 1-.668 2.927c-.285.877-.615 1.576-.96 2.045-.355.483-.653.628-.862.628-.21 0-.508-.145-.863-.628-.345-.47-.675-1.168-.96-2.046v.001ZM9.3501 12c0 .84.046 1.684.132 2.5h5.235c.086-.816.133-1.66.133-2.5 0-.84-.047-1.684-.133-2.5h-5.235c-.086.816-.132 1.66-.132 2.5Z"/>
</g></svg>