<svg xmlns="http://www.w3.org/2000/svg" data-laicon-version="15.0" viewBox="0 0 20 20" fill="black"><g transform="translate(-2 -2)">
  <path d="m19.1362 14.178 2.864 1.215-.476 1.121-.942-.4c.633 1.215.729 2.346.246 3.255-.574 1.08-1.86 1.666-3.64 1.666-.102 0-.206-.002-.312-.006-1.785-.067-3.863-.684-5.85-1.74-2.385-1.269-4.319-3.023-5.246-4.73l-3.225-1.37a.9153.9153 0 0 1-.49-.495.8742.8742 0 0 1 .003-.672L5.6862 3.5a.897.897 0 0 1 1.177-.461l12.171 5.165c.221.095.4.276.49.499a.8645.8645 0 0 1-.004.669l-3.963 9.336-.56-.238c-4.072-1.727-8.108-4.39-7.23-6.687.074-.193.166-.392.277-.588-.583.217-1.075.515-1.339.917-.287.438-.27.996.051 1.705.77 1.551 2.58 3.195 4.841 4.397 1.828.972 3.719 1.538 5.324 1.598 1.419.054 2.461-.317 2.832-1.015.298-.557.179-1.348-.308-2.23l-.403.95-1.121-.476 1.215-2.863ZM9.7222 7.41l-2.407-1.022-.366.861 2.408 1.022.365-.861Z"/>
</g></svg>