<svg xmlns="http://www.w3.org/2000/svg" data-laicon-version="15.0" viewBox="0 0 20 20" fill="black"><g transform="translate(-2 -2)">
  <path d="M6.0278 10.5c.829 0 1.5.671 1.5 1.5s-.671 1.5-1.5 1.5c-.311 0-.599-.094-.838-.256-.08-.054-.155-.116-.223-.183A1.499 1.499 0 0 1 4.5278 12c0-.414.168-.789.439-1.061.068-.067.143-.129.223-.183.239-.162.527-.256.838-.256ZM13.5 12c0-.829-.671-1.5-1.5-1.5s-1.5.671-1.5 1.5.671 1.5 1.5 1.5 1.5-.671 1.5-1.5Zm2.9722 0c0 .829.671 1.5 1.5 1.5.828 0 1.5-.671 1.5-1.5s-.672-1.5-1.5-1.5c-.829 0-1.5.671-1.5 1.5Z"/>
</g></svg>