<svg xmlns="http://www.w3.org/2000/svg" data-laicon-version="15.0" viewBox="0 0 20 20" fill="black"><g transform="translate(-2 -2)">
  <path d="M12 10.5c-.829 0-1.5.671-1.5 1.5s.671 1.5 1.5 1.5 1.5-.671 1.5-1.5-.671-1.5-1.5-1.5Zm0-2.9722c.829 0 1.5-.671 1.5-1.5 0-.828-.671-1.5-1.5-1.5s-1.5.672-1.5 1.5c0 .829.671 1.5 1.5 1.5Zm0 8.9444c-.829 0-1.5.671-1.5 1.5 0 .311.094.599.256.838.054.08.116.155.183.223.272.271.647.439 1.061.439.414 0 .789-.168 1.061-.439.067-.068.129-.143.183-.223.162-.239.256-.527.256-.838 0-.829-.671-1.5-1.5-1.5Z"/>
</g></svg>