<svg xmlns="http://www.w3.org/2000/svg" data-laicon-version="15.3" viewBox="0 0 20 20" fill="black"><g transform="translate(-2 -2)">
  <path d="M2.538 17.735a1.69 1.69 0 0 1 .142-1.516 1123.13 1123.13 0 0 1 3.53-6.079l.03-.05c.854-1.461 1.698-2.905 3.385-5.827l.01-.018.012-.017c.306-.46.784-.743 1.313-.743.53 0 1.007.285 1.309.75l.009.014.008.014c1.675 2.902 2.517 4.357 3.356 5.806l.002.003.912 1.575a5.151 5.151 0 0 0-4.094 7.003h-8.49c-.696 0-1.213-.373-1.434-.915ZM10.44 13h1l.1-4h-1.2l.1 4Zm.5.8a.75.75 0 1 0 0 1.5.75.75 0 0 0 0-1.5Z"/>
  <path d="M12.9 16.75a4.35 4.35 0 1 1 8.7 0 4.35 4.35 0 0 1-8.7 0Zm4.95-2.15h-1.2v2.468l1.814 1.229.673-.994-1.287-.871V14.6Z"/>
</g></svg>