<svg xmlns="http://www.w3.org/2000/svg" data-laicon-version="15.0" viewBox="0 0 20 20" fill="black"><g transform="translate(-2 -2)">
  <path d="M8.4588 2.8455a.65.65 0 0 0-.4608.1916L3.0363 8.0254a.65.65 0 0 0-.1891.4584v7.0306c0 .1717.068.3365.189.4583l4.9617 4.9901a.65.65 0 0 0 .461.1917h7.0822a.6499.6499 0 0 0 .4609-.1916l4.9617-4.9883a.6502.6502 0 0 0 .1891-.4584V8.4838a.6501.6501 0 0 0-.1891-.4584L16.002 3.0371a.6501.6501 0 0 0-.4609-.1916H8.4588Zm3.5368 11.8849c.4517 0 .818.3683.818.8224 0 .4543-.3663.8224-.818.8224-.4518 0-.818-.3681-.818-.8224 0-.4541.3662-.8224.818-.8224Zm-.65-7.116h1.3v5.5276h-1.3V7.6145Z"/>
</g></svg>