<svg xmlns="http://www.w3.org/2000/svg" data-laicon-version="15.0" viewBox="0 0 20 20" fill="black"><g transform="translate(-2 -2)">
  <path d="M2.5474 19.5321c-.2177-.5316-.1488-1.1563.1556-1.6424 2.0237-3.5051 3.0264-5.221 4.0064-6.8974l.0336-.0575c.9687-1.6572 1.9262-3.2952 3.8401-6.6102l.0104-.018.0115-.0173c.3334-.5007.8497-.8043 1.4165-.8043.5682 0 1.084.3053 1.4116.8114l.009.014.0082.0142c1.9019 3.2942 2.8571 4.9437 3.8089 6.5875.9914 1.7121 1.9794 3.4182 4.0294 6.9695.2663.4032.3972 1.0203.1869 1.5809-.1139.3036-.3257.5802-.6472.7739-.3152.1899-.699.2786-1.1324.2786H4.093c-.7544 0-1.3077-.402-1.5456-.9829Zm9.4383-3.4298a.8373.8373 0 1 0 0 1.6745.8373.8373 0 0 0 0-1.6745Zm-.65-7.1026v5.5411h1.3V8.9997h-1.3Z"/>
</g></svg>