<svg xmlns="http://www.w3.org/2000/svg" data-laicon-version="15.3" viewBox="0 0 20 20" fill="black"><g transform="translate(-2 -2)">
  <path d="M2.538 17.736a1.69 1.69 0 0 1 .142-1.517c1.784-3.089 2.668-4.601 3.531-6.079l.03-.05c.854-1.46 1.698-2.904 3.385-5.826l.01-.018.011-.018c.307-.46.785-.743 1.313-.743.53 0 1.008.285 1.31.75l.008.014.008.015c1.676 2.901 2.518 4.356 3.357 5.805l.001.002.912 1.575a5.151 5.151 0 0 0-4.094 7.004h-8.49c-.696 0-1.212-.372-1.434-.914ZM10.44 13h1l.1-4h-1.2l.1 4Zm.5.8a.75.75 0 1 0 0 1.5.75.75 0 0 0 0-1.5Z"/>
  <path d="M12.9 16.75a4.35 4.35 0 1 1 8.7 0 4.35 4.35 0 0 1-8.7 0Zm2.44 1.131.779.778 1.131-1.131 1.131 1.13.778-.777-1.131-1.131 1.131-1.132-.778-.777-1.131 1.13-1.131-1.13-.778.777 1.131 1.132-1.131 1.131Z"/>
</g></svg>