<svg xmlns="http://www.w3.org/2000/svg" data-laicon-version="15.0" viewBox="0 0 20 20" fill="black"><g transform="translate(-2 -2)">
  <path d="M3.3496 5.9999c0-1.1875.9626-2.15 2.15-2.15h12c1.1874 0 2.15.9625 2.15 2.15v5.5999h-6.15c-1.3255 0-2.4 1.0745-2.4 2.4v4.15h-5.6c-1.1874 0-2.15-.9626-2.15-2.15v-10Zm1.987.1719 1.1904 3.8374c.0668.2156.339.2829.4986.1233l.8693-.8693 2.3751 2.3751.9193-.9192L8.8141 8.344l.854-.854c.1594-.1594.0925-.4313-.1229-.4985l-3.8327-1.195c-.2307-.072-.4474.1445-.3758.3753Z"/>
  <path d="M13.4996 12.5999c-.7732 0-1.4.6268-1.4 1.4v5c0 .7732.6268 1.4 1.4 1.4h7c.7732 0 1.4-.6268 1.4-1.4v-5c0-.7732-.6268-1.4-1.4-1.4h-7Z"/>
</g></svg>