<svg xmlns="http://www.w3.org/2000/svg" data-laicon-version="15.0" viewBox="0 0 20 20" fill="black"><g transform="translate(-2 -2)">
  <path d="M10.2498 10.2412c.936-.937 2.563-.937 3.5 0l.92-.92c-1.428-1.426-3.912-1.426-5.34 0-.713.713-1.105 1.661-1.105 2.67 0 1.008.392 1.955 1.105 2.669l.46-.459.078-.077.382-.382c-.468-.469-.725-1.09-.725-1.751 0-.661.257-1.283.725-1.75Zm7.74-2.781-.351.351-.364.364-8.658 8.658-.388.387-.381.382-2.499 2.499-.707-.707 2.284-2.284c-1.891-1.091-3.533-2.756-4.669-4.884l-.125-.235.125-.235c2.075-3.888 5.808-6.303 9.743-6.303 1.803 0 3.554.527 5.132 1.451l2.577-2.577.707.707-2.426 2.426Zm1.0242.8157c1.068.958 2.004 2.123 2.729 3.48l.125.235-.125.236c-2.075 3.886-5.809 6.301-9.743 6.301-.958 0-1.903-.148-2.818-.42l.415-.415.417-.417 8.292-8.292.36-.36.348-.348Z"/>
</g></svg>