<svg xmlns="http://www.w3.org/2000/svg" data-laicon-version="15.0" viewBox="0 0 20 20" fill="black"><g transform="translate(-2 -2)">
  <path d="M11.9942 15.6064c-1.988 0-3.605-1.618-3.605-3.606 0-1.989 1.617-3.607 3.605-3.607s3.605 1.618 3.605 3.607c0 1.988-1.617 3.606-3.605 3.606Zm9.818-3.912c-2.089-3.913-5.85-6.345-9.818-6.345-3.967 0-7.729 2.432-9.817 6.345l-.164.306.164.305c2.088 3.913 5.85 6.345 9.817 6.345 3.968 0 7.729-2.432 9.818-6.345l.163-.305-.163-.306Z"/>
  <path d="M11.9942 9.3936c-1.437 0-2.605 1.169-2.605 2.606 0 1.438 1.168 2.607 2.605 2.607s2.605-1.169 2.605-2.607c0-1.437-1.168-2.606-2.605-2.606Z"/>
</g></svg>