<svg xmlns="http://www.w3.org/2000/svg" data-laicon-version="15.0" viewBox="0 0 20 20" fill="black"><g transform="translate(-2 -2)">
  <path d="M2.75 12c0-5.1086 4.1414-9.25 9.25-9.25s9.25 4.1414 9.25 9.25-4.1414 9.25-9.25 9.25S2.75 17.1086 2.75 12Zm5.4729-1.7036c0 .5523.4477 1 1 1 .5522 0 1-.4477 1-1s-.4478-1-1-1c-.5523 0-1 .4477-1 1Zm6.5542-1c-.5522 0-1 .4477-1 1s.4478 1 1 1c.5523 0 1-.4477 1-1s-.4477-1-1-1Zm-6.3284 4.3813v.0027l.0011.0467c.001.0268.0029.0634.0064.1086a3.568 3.568 0 0 0 .0485.3639c.0544.2952.164.6951.3878 1.1002.2255.4078.5686.8235 1.0853 1.1351.5175.3121 1.1816.5031 2.0222.5031.8407 0 1.5047-.191 2.0223-.5031.5167-.3116.8598-.7273 1.0852-1.1351.2239-.4051.3335-.805.3879-1.1002a3.563 3.563 0 0 0 .0484-.3639 2.4064 2.4064 0 0 0 .0075-.158.5.5 0 0 0-.5-.5H8.9487a.5.5 0 0 0-.5.5Z"/>
</g></svg>