<svg xmlns="http://www.w3.org/2000/svg" data-laicon-version="15.0" viewBox="0 0 20 20" fill="black"><g transform="translate(-2 -2)">
  <path d="M2.75 12.0001c0-5.1086 4.1414-9.25 9.25-9.25 5.1087 0 9.25 4.1414 9.25 9.25s-4.1413 9.25-9.25 9.25c-5.1086 0-9.25-4.1414-9.25-9.25Zm12.7107-3.9692a.5.5 0 1 0-.5016-.8651l-1.2097.7015a.5.5 0 1 0 .5016.865l1.2097-.7014Zm-5.4763 8.0892c.3819-.4574 1.1576-.8204 2.1162-.8204.9586 0 1.7344.363 2.1162.8204a.5.5 0 0 0 .7676-.6409c-.6162-.7382-1.7059-1.1795-2.8838-1.1795s-2.2676.4413-2.8839 1.1795a.5.5 0 0 0 .7677.6409ZM8.7129 8.0077l1 .7015a.5.5 0 0 0 .5744-.8187l-1.0001-.7014a.5.5 0 1 0-.5743.8186Zm-.49 3.1887c0 .5523.4477 1 1 1 .5522 0 1-.4477 1-1s-.4478-1-1-1c-.5523 0-1 .4477-1 1Zm5.5542 0c0 .5523.4478 1 1 1 .5523 0 1-.4477 1-1s-.4477-1-1-1c-.5522 0-1 .4477-1 1Z"/>
</g></svg>