<svg xmlns="http://www.w3.org/2000/svg" data-laicon-version="15.3" viewBox="0 0 20 20" fill="black"><g transform="translate(-2 -2)">
  <path d="M17.45 11.8a5.65 5.65 0 0 0-4.27 9.35h-7.7c-.647 0-1.15-.53-1.15-1.15V4c0-.647.53-1.15 1.15-1.15h13.03c.647 0 1.15.53 1.15 1.15v8.248a5.632 5.632 0 0 0-2.21-.448Zm-5.13-2.04v-1.3H7.83v1.3h4.49ZM7.83 7.52h4.49v-1.3H7.83v1.3Z"/>
  <path d="M17.45 13.1a4.35 4.35 0 1 0 0 8.7 4.35 4.35 0 0 0 0-8.7Zm.6 2.2v1.832l1.287.871-.673.994-1.814-1.229V15.3h1.2Z"/>
</g></svg>