<svg xmlns="http://www.w3.org/2000/svg" data-laicon-version="15.3" viewBox="0 0 20 20" fill="black"><g transform="translate(-2 -2)">
  <path d="M5 4.85A1.65 1.65 0 0 0 3.35 6.5V17c0 .911.739 1.65 1.65 1.65h6.413l-.004-.308-.472-.483a2.3 2.3 0 0 1 0-3.218l.472-.483.007-.676a2.3 2.3 0 0 1 2.276-2.276l.676-.007.483-.472a2.3 2.3 0 0 1 3.218 0l.483.472.676.007c.144.002.285.017.422.044V6.5A1.65 1.65 0 0 0 18 4.85H5Zm6 6.74H6.5v-1.3H11v1.3ZM6.5 9.35v-1.3H11v1.3H6.5Z"/>
  <path d="M17.37 11.441a1.3 1.3 0 0 0-1.82 0l-.77.754-1.077.011a1.3 1.3 0 0 0-1.287 1.287l-.01 1.077-.755.77a1.3 1.3 0 0 0 0 1.82l.754.77.011 1.077a1.3 1.3 0 0 0 1.287 1.287l1.077.01.77.755a1.3 1.3 0 0 0 1.82 0l.77-.754 1.077-.011a1.3 1.3 0 0 0 1.287-1.287l.01-1.078.755-.77a1.3 1.3 0 0 0 0-1.819l-.754-.77-.011-1.077a1.3 1.3 0 0 0-1.287-1.287l-1.077-.01-.77-.755Zm1.374 3.712L16.1 17.797l-1.853-1.854.707-.707 1.146 1.146 1.937-1.936.707.707Z"/>
</g></svg>