<svg xmlns="http://www.w3.org/2000/svg" data-laicon-version="15.0" viewBox="0 0 20 20" fill="black"><g transform="translate(-2 -2)">
  <path d="M11.9997 14.1999h7.6684V4.2188c0-.6455-.5232-1.1687-1.1687-1.1687H9.4736v5.1421h-5.142v11.5891c0 .6455.5232 1.1687 1.1686 1.1687h4.6995v-4.9501c0-.9941.8059-1.8 1.8-1.8Z"/>
  <path d="M8.6737 3.181 4.4624 7.3921h4.2113V3.1809ZM11 15.9999c0-.5523.4477-1 1-1h8c.5522 0 1 .4477 1 1v5c0 .5523-.4478 1-1 1h-8c-.5523 0-1-.4477-1-1v-5Zm3.4363 3.8401c.0403 0 .066-.0257.066-.0661v-.5578c0-.0404-.0257-.0661-.066-.0661h-1.1157v-.3486h.9248c.0404 0 .0661-.0257.0661-.0661v-.5285c0-.0403-.0257-.066-.0661-.066h-.9248v-.3046h1.0716c.0404 0 .0661-.0257.0661-.0661v-.5578c0-.0404-.0257-.0661-.0661-.0661h-1.8276c-.0404 0-.0661.0257-.0661.0661v2.5616c0 .0404.0257.0661.0661.0661h1.8717Zm1.0844 0c.0367 0 .0587-.0184.0771-.0477l.3853-.6937.3817.6937c.0184.0293.0404.0477.0771.0477h.8221c.0513 0 .0697-.0367.044-.0808l-.7927-1.3028.7413-1.2295c.0257-.044.0074-.0807-.044-.0807h-.7744c-.0367 0-.0587.0184-.0771.0477l-.3413.6349-.345-.6349c-.0183-.0293-.0403-.0477-.077-.0477h-.8111c-.0514 0-.0697.0367-.044.0807l.7376 1.2332-.789 1.2991c-.0257.0441-.0074.0808.044.0808h.7854Zm2.1439 0h1.8717c.0404 0 .066-.0257.066-.0661v-.5578c0-.0404-.0256-.0661-.066-.0661h-1.1157v-.3486h.9248c.0404 0 .0661-.0257.0661-.0661v-.5285c0-.0403-.0257-.066-.0661-.066h-.9248v-.3046h1.0716c.0404 0 .0661-.0257.0661-.0661v-.5578c0-.0404-.0257-.0661-.0661-.0661h-1.8276c-.0404 0-.0661.0257-.0661.0661v2.5616c0 .0404.0257.0661.0661.0661Z"/>
</g></svg>