<svg xmlns="http://www.w3.org/2000/svg" data-laicon-version="15.0" viewBox="0 0 20 20" fill="black"><g transform="translate(-2 -2)">
  <path d="M19.6681 14.1999h-8.6684c-.9941 0-1.8.8059-1.8 1.8v4.95H5.5002c-.6455 0-1.1687-.5232-1.1687-1.1687V8.1922h5.1421v-5.142h9.0258c.6454 0 1.1687.5232 1.1687 1.1686V14.2Z"/>
  <path d="m4.4624 7.3923 4.2114-4.2114v4.2114H4.4623ZM11 14.9999c-.5522 0-1 .4477-1 1v5c0 .5523.4478 1 1 1h9c.5523 0 1-.4477 1-1v-5c0-.5523-.4477-1-1-1h-9Zm.2733 4.84c-.0514 0-.0698-.0367-.0441-.0808l.7891-1.2991-.7377-1.2332c-.0257-.044-.0073-.0807.044-.0807h.8111c.0367 0 .0587.0184.0771.0477l.345.6349.3413-.6349c.0183-.0293.0403-.0477.077-.0477h.7744c.0514 0 .0697.0367.0441.0807l-.7414 1.2295.7927 1.3028c.0257.0441.0074.0808-.044.0808h-.8221c-.0367 0-.0587-.0184-.0771-.0477l-.3816-.6937-.3854.6937c-.0183.0293-.0404.0477-.0771.0477h-.7853Zm2.9292 0c-.0403 0-.066-.0257-.066-.0661v-2.5616c0-.0404.0257-.0661.066-.0661h.734c.0331 0 .0587.011.0771.044l.7083 1.1891.6863-1.1891c.0183-.0293.0404-.044.0771-.044h.7193c.0404 0 .066.0257.066.0661v2.5616c0 .0404-.0256.0661-.066.0661h-.668c-.0403 0-.066-.0257-.066-.0661v-1.3065l-.4845.8147c-.0183.0331-.044.0441-.077.0441h-.4111c-.033 0-.0587-.011-.077-.0441l-.4845-.778v1.2698c0 .0404-.0257.0661-.066.0661h-.668Zm5.4625 0h-1.857c-.0404 0-.066-.0257-.066-.0661v-2.5616c0-.0404.0256-.0661.066-.0661h.7047c.0403 0 .066.0257.066.0661v1.835h1.0863c.0404 0 .0661.0257.0661.066v.6606c0 .0404-.0257.0661-.0661.0661Z"/>
</g></svg>