<svg xmlns="http://www.w3.org/2000/svg" data-laicon-version="15.0" viewBox="0 0 20 20" fill="black"><g transform="translate(-2 -2)">
  <path d="M11.9997 14.1999h7.6683V4.2187c0-.6455-.5232-1.1687-1.1687-1.1687H9.4736v5.1422h-5.142v11.589c0 .6455.5232 1.1687 1.1686 1.1687h4.6995v-4.95c0-.9941.8059-1.8 1.8-1.8Z"/>
  <path d="M8.6738 3.1808 4.4623 7.3923h4.2114V3.1808ZM11 15.9999c0-.5523.4477-1 1-1h8c.5523 0 1 .4477 1 1v5c0 .5523-.4477 1-1 1h-8c-.5523 0-1-.4477-1-1v-5Zm2.6825 3.84c.0403 0 .066-.0257.066-.0661v-1.8423h.7267c.0404 0 .066-.0257.066-.0661v-.6533c0-.0403-.0256-.066-.066-.066h-2.2901c-.0404 0-.0661.0257-.0661.066v.6533c0 .0404.0257.0661.0661.0661h.7267v1.8423c0 .0404.0257.0661.066.0661h.7047Zm1.8383 0c.0367 0 .0587-.0184.0771-.0477l.3853-.6937.3817.6937c.0184.0293.0404.0477.0771.0477h.8221c.0513 0 .0697-.0367.044-.0808l-.7927-1.3028.7413-1.2295c.0257-.044.0074-.0807-.044-.0807h-.7744c-.0367 0-.0587.0183-.0771.0477l-.3413.6349-.3449-.6349c-.0184-.0294-.0404-.0477-.0771-.0477h-.8111c-.0514 0-.0697.0367-.044.0807l.7376 1.2331-.789 1.2992c-.0257.0441-.0073.0808.044.0808h.7854Zm2.7972 0h.7046c.0404 0 .0661-.0257.0661-.0661v-1.8423h.7266c.0404 0 .0661-.0257.0661-.0661v-.6533c0-.0403-.0257-.066-.0661-.066h-2.2901c-.0403 0-.066.0257-.066.066v.6533c0 .0404.0257.0661.066.0661h.7267v1.8423c0 .0404.0257.0661.0661.0661Z"/>
</g></svg>