<svg xmlns="http://www.w3.org/2000/svg" data-laicon-version="15.0" viewBox="0 0 20 20" fill="black"><g transform="translate(-2 -2)">
  <path d="M12.0002 14.2h7.6683V4.2188c0-.6455-.5232-1.1687-1.1687-1.1687H9.4741v5.1421h-5.142v11.5891c0 .6455.5232 1.1687 1.1686 1.1687h4.6995V16c0-.9941.8058-1.8 1.8-1.8ZM8.6742 3.181 4.4627 7.3922H8.674V3.181ZM11 16c0-.5523.4478-1 1-1h8c.5523 0 1 .4477 1 1v5c0 .5523-.4477 1-1 1h-8c-.5522 0-1-.4477-1-1v-5Zm7.4306 3.8915c.8551 0 1.3249-.5248 1.3249-1.2038v-.323c0-.0403-.0257-.066-.0661-.066h-1.1707c-.0404 0-.0661.0257-.0661.066v.4184c0 .0404.0257.0661.0661.0661h.3927c-.033.1578-.2055.2495-.4514.2495-.3193 0-.5542-.2055-.5542-.6018 0-.3964.2276-.5982.5542-.5982.1468 0 .3009.0587.3927.1761.022.0294.0477.0441.0844.033l.6973-.1871c.0404-.011.0587-.0404.044-.0844-.1835-.4771-.6275-.7414-1.2331-.7414-.7964 0-1.4019.5725-1.4019 1.3983 0 .8257.5541 1.3983 1.3872 1.3983Zm-4.3255-1.0937v-1.5854c0-.0404-.0257-.0661-.0661-.0661h-1.3872c-.0404 0-.0661.0257-.0661.0661v.6532c0 .0404.0257.0661.0661.0661h.6165v.8221c0 .1908-.055.3266-.2312.3266-.1137 0-.1651-.0587-.2018-.1468-.0147-.0367-.0441-.0551-.0844-.044l-.6056.1651c-.0403.011-.0587.0404-.0477.0807.1101.4368.4147.7561.9689.7561.6166 0 1.0386-.2936 1.0386-1.0937Zm1.2085 1.0423c.0403 0 .066-.0257.066-.0661v-.5798h.2129c.778 0 1.1854-.3377 1.1854-1.024 0-.6899-.4074-1.0239-1.1854-1.0239h-.9652c-.0404 0-.0661.0257-.0661.0661v2.5616c0 .0404.0257.0661.0661.0661h.6863Zm.6202-1.6699c0-.2789-.1505-.3633-.356-.3633h-.1982v.7267h.1982c.2055 0 .356-.0844.356-.3634Z"/>
</g></svg>