<svg xmlns="http://www.w3.org/2000/svg" data-laicon-version="15.0" viewBox="0 0 20 20" fill="black"><g transform="translate(-2 -2)">
  <path d="M11.0002 14.1999h8.6683v-9.981c0-.6456-.5232-1.1688-1.1687-1.1688H9.4741v5.1422h-5.142v11.589c0 .6455.5231 1.1687 1.1686 1.1687h3.6995v-4.9501c0-.9941.8059-1.8 1.8-1.8Z"/>
  <path d="M4.4624 7.3923h4.2113V3.181L4.4624 7.3923ZM15.047 19.079c-.3183 0-.5524-.2341-.5524-.5853 0-.3512.2341-.5853.5524-.5853s.5524.2341.5524.5853c0 .3512-.2341.5853-.5524.5853Z"/>
  <path d="M11 14.9999c-.5523 0-1 .4477-1 1v5c0 .5523.4477 1 1 1h9c.5523 0 1-.4477 1-1v-5c0-.5523-.4477-1-1-1h-9Zm4.0469 4.8876c-.8085 0-1.4121-.5707-1.4121-1.3938 0-.8231.6036-1.3938 1.4121-1.3938.8085 0 1.4121.5707 1.4121 1.3938 0 .8231-.6036 1.3938-1.4121 1.3938Zm-3.4811-.0512c-.0402 0-.0658-.0256-.0658-.0659V17.217c0-.0403.0256-.0659.0658-.0659h.7024c.0402 0 .0659.0256.0659.0659v1.8291h1.0828c.0402 0 .0659.0256.0659.0659v.6584c0 .0403-.0257.0659-.0659.0659h-1.8511ZM19.5 18.6876c0 .6768-.4683 1.1999-1.3207 1.1999-.8304 0-1.3828-.5707-1.3828-1.3938 0-.8231.6036-1.3938 1.3975-1.3938.6036 0 1.0462.2634 1.2291.739.0147.0439-.0036.0731-.0439.0841l-.695.1866c-.0366.011-.0622-.0037-.0842-.0329-.0914-.1171-.2451-.1756-.3914-.1756-.3256 0-.5524.2012-.5524.5963 0 .3951.2341.5999.5524.5999.2451 0 .417-.0914.45-.2487h-.3915c-.0402 0-.0658-.0257-.0658-.0659v-.417c0-.0403.0256-.0659.0658-.0659h1.167c.0403 0 .0659.0256.0659.0659v.3219Z"/>
</g></svg>