<svg xmlns="http://www.w3.org/2000/svg" data-laicon-version="15.0" viewBox="0 0 20 20" fill="black"><g transform="translate(-2 -2)">
  <path d="M19.6681 14.2001H8.9998c-.9941 0-1.8.8059-1.8 1.8v4.9498H5.5002c-.6455 0-1.1687-.5232-1.1687-1.1687V8.1922h5.1421v-5.142h9.0258c.6454 0 1.1687.5232 1.1687 1.1686v9.9814Z"/>
  <path d="m4.4624 7.3923 4.2114-4.2114v4.2114H4.4623Zm10.829 11.688c-.3193 0-.5541-.2349-.5541-.5872 0-.3523.2348-.5872.5541-.5872.3193 0 .5542.2349.5542.5872 0 .3523-.2349.5872-.5542.5872Z"/>
  <path d="M9 15c-.5523 0-1 .4478-1 1v5c0 .5523.4477 1 1 1h11c.5523 0 1-.4477 1-1v-5c0-.5522-.4477-1-1-1H9Zm4.6427 4.0326c0 .5028-.4404.8588-1.0607.8588-.5138 0-.9101-.2606-1.0679-.7193-.0147-.0441.0036-.0734.044-.0845l.6166-.1541c.0367-.0073.066.0073.0807.044.0734.1615.1908.2166.3633.2166.1101 0 .1872-.0367.1872-.1028 0-.0844-.0807-.1211-.2679-.1872l-.3083-.1101c-.3963-.1394-.6569-.4183-.6569-.8294 0-.5138.4587-.8698 1.0129-.8698.4514 0 .8294.2019.9946.6716.0147.0441-.0037.0734-.0441.0845l-.6385.1761c-.0404.011-.0698-.0037-.0844-.044-.0734-.1615-.1615-.1909-.2423-.1909-.077 0-.1541.0404-.1541.1175 0 .066.0661.1211.3119.2018l.2092.0698c.4698.1578.7047.4073.7047.8514Zm-2.4086-.2349c0 .8001-.422 1.0937-1.0386 1.0937-.5541 0-.8587-.3193-.9688-.756-.011-.0404.0073-.0698.0477-.0808l.6055-.1651c.0404-.011.0698.0073.0844.044.0367.0881.0881.1468.2018.1468.1762 0 .2313-.1358.2313-.3266v-.8221h-.6166c-.0403 0-.066-.0257-.066-.0661v-.6532c0-.0404.0257-.0661.066-.0661h1.3873c.0403 0 .066.0257.066.0661v1.5854Zm4.0574 1.0937c-.811 0-1.4166-.5725-1.4166-1.3983 0-.8257.6056-1.3983 1.4166-1.3983.8111 0 1.4167.5726 1.4167 1.3983 0 .8258-.6056 1.3983-1.4167 1.3983Zm2.5553-.0514h-.6679c-.0404 0-.0661-.0257-.0661-.0661v-2.5616c0-.0404.0257-.0661.0661-.0661h.734c.0367 0 .0587.0184.077.0477l.7707 1.3726v-1.3542c0-.0404.0257-.0661.0661-.0661h.6679c.0404 0 .0661.0257.0661.0661v2.5616c0 .0404-.0257.0661-.0661.0661h-.734a.0816.0816 0 0 1-.077-.0477l-.7707-1.3836v1.3652c0 .0404-.0257.0661-.0661.0661Z"/>
</g></svg>