<svg xmlns="http://www.w3.org/2000/svg" data-laicon-version="15.0" viewBox="0 0 20 20" fill="black"><g transform="translate(-2 -2)">
  <path d="M12.0002 14.2h7.6683V4.2188c0-.6455-.5232-1.1687-1.1687-1.1687H9.4741v5.1421h-5.142v11.5891c0 .6455.5231 1.1687 1.1686 1.1687h4.6995V16c0-.9941.8059-1.8 1.8-1.8Z"/>
  <path d="M8.6737 3.181 4.4624 7.3923h4.2113V3.181ZM11 16c0-.5523.4477-1 1-1h8c.5522 0 1 .4477 1 1v5c0 .5523-.4478 1-1 1h-8c-.5523 0-1-.4477-1-1v-5Zm5.9723 3.0326c0-.4441-.2348-.6937-.7046-.8515l-.2092-.0697c-.2459-.0807-.3119-.1358-.3119-.2018 0-.0771.077-.1175.1541-.1175.0807 0 .1688.0294.2422.1909.0147.0403.0441.055.0844.044l.6386-.1762c.0404-.011.0587-.0403.044-.0844-.1651-.4697-.5431-.6716-.9945-.6716-.5542 0-1.0129.356-1.0129.8698 0 .411.2605.69.6569.8294l.3083.1101c.1871.0661.2679.1028.2679.1872 0 .0661-.0771.1028-.1872.1028-.1725 0-.2899-.0551-.3633-.2166-.0147-.0367-.0441-.0514-.0808-.044l-.6165.1541c-.0404.011-.0587.0404-.0441.0844.1578.4588.5542.7194 1.068.7194.6202 0 1.0606-.356 1.0606-.8588Zm-3.1412.8074c.0404 0 .0661-.0257.0661-.0661v-1.8423h.7267c.0403 0 .066-.0257.066-.0661v-.6532c0-.0404-.0257-.0661-.066-.0661h-2.2901c-.0404 0-.0661.0257-.0661.0661v.6532c0 .0404.0257.0661.0661.0661h.7266v1.8423c0 .0404.0257.0661.0661.0661h.7046Zm4.2854 0h.5578c.0367 0 .0624-.0184.0771-.0514l1.0386-2.5653c.0183-.0441-.0074-.0771-.0551-.0771h-.8037c-.0367 0-.0661.0183-.0771.055l-.4477 1.4203-.4588-1.4203c-.011-.0367-.0403-.055-.077-.055h-.8148c-.0477 0-.0734.033-.055.0771l1.0386 2.5653c.0147.033.0404.0514.0771.0514Z"/>
</g></svg>