<svg xmlns="http://www.w3.org/2000/svg" data-laicon-version="15.0" viewBox="0 0 20 20" fill="black"><g transform="translate(-2 -2)">
  <path d="M10 16.0001c0-.5523.4478-1 1-1h9c.5523 0 1 .4477 1 1v5c0 .5522-.4477 1-1 1h-9c-.5522 0-1-.4478-1-1v-5Zm4.3267 2.9995c.011-.0367-.011-.0624-.0514-.0734l-.6899-.1799c-.0404-.011-.0661.0074-.0808.0478-.0844.2202-.2569.2862-.4624.2862-.2973 0-.5321-.2202-.5321-.5872 0-.367.2312-.5872.5284-.5872.1762 0 .301.0587.3964.1982.022.033.0477.044.0844.033l.6973-.1835c.0404-.011.0587-.0403.0404-.0844-.2019-.4991-.6056-.7744-1.2148-.7744-.789 0-1.3946.5726-1.3946 1.3983 0 .8258.5542 1.3983 1.3946 1.3983.6386 0 1.1194-.3744 1.2845-.8918Zm2.3392.033c0-.4441-.2349-.6936-.7046-.8514l-.2092-.0698c-.2459-.0807-.312-.1358-.312-.2018 0-.0771.0771-.1175.1542-.1175.0807 0 .1688.0294.2422.1909.0147.0404.044.055.0844.044l.6386-.1761c.0404-.011.0587-.0404.044-.0844-.1651-.4698-.5431-.6717-.9945-.6717-.5542 0-1.013.356-1.013.8698 0 .4111.2606.69.657.8295l.3082.1101c.1872.066.268.1027.268.1871 0 .0661-.0771.1028-.1872.1028-.1725 0-.2899-.0551-.3633-.2165-.0147-.0367-.0441-.0514-.0808-.0441l-.6165.1542c-.0404.011-.0588.0403-.0441.0844.1578.4587.5542.7193 1.068.7193.6202 0 1.0606-.356 1.0606-.8588Zm1.1441.8074h.5579c.0367 0 .0624-.0183.077-.0514l1.0387-2.5653c.0183-.044-.0074-.0771-.0551-.0771h-.8037c-.0367 0-.0661.0184-.0771.0551L18.1 18.6216l-.4588-1.4203c-.011-.0367-.0404-.0551-.0771-.0551h-.8147c-.0477 0-.0734.0331-.055.0771l1.0386 2.5653c.0146.0331.0403.0514.077.0514Z"/>
  <path d="M11.0002 14.2001h8.6683V4.2189c0-.6455-.5232-1.1687-1.1687-1.1687H9.4741v5.1421h-5.142v11.5891c0 .6455.5232 1.1687 1.1686 1.1687h3.6995v-4.95c0-.9941.8059-1.8 1.8-1.8Z"/>
  <path d="M8.6741 3.181 4.4629 7.3924H8.674V3.1811Z"/>
</g></svg>