<svg xmlns="http://www.w3.org/2000/svg" data-laicon-version="15.0" viewBox="0 0 20 20" fill="black"><g transform="translate(-2 -2)">
  <path d="M11.9998 14.2h7.6683V4.2188c0-.6455-.5232-1.1687-1.1687-1.1687H9.4736v5.1421h-5.142v11.5891c0 .6455.5232 1.1687 1.1686 1.1687h4.6996V16c0-.9941.8059-1.8 1.8-1.8Z"/>
  <path d="M8.6737 3.181 4.4624 7.3921h4.2113V3.1809Zm5.0597 14.9893c0-.279-.1505-.3634-.356-.3634h-.1982v.7267h.1982c.2055 0 .356-.0844.356-.3633Zm2.8775.3229c0-.4147-.2202-.5835-.5982-.5835h-.2495v1.167h.2495c.378 0 .5982-.1688.5982-.5835Z"/>
  <path d="M11 16c0-.5523.4477-1 1-1h8c.5523 0 1 .4477 1 1v5c0 .5523-.4477 1-1 1h-8c-.5523 0-1-.4477-1-1v-5Zm2.113 3.8401c.0403 0 .066-.0257.066-.0661v-.5798h.2129c.778 0 1.1854-.3377 1.1854-1.0239 0-.69-.4074-1.024-1.1854-1.024h-.9652c-.0404 0-.0661.0257-.0661.0661v2.5616c0 .0404.0257.0661.0661.0661h.6863Zm2.973 0c.8515 0 1.3689-.4624 1.3689-1.3469 0-.8955-.5174-1.3469-1.3689-1.3469h-1.0753c-.0403 0-.066.0257-.066.0661v2.5616c0 .0404.0257.0661.066.0661h1.0753Zm1.8385 0h.7046c.0404 0 .0661-.0257.0661-.0661v-.8037h.8184c.0404 0 .0661-.0257.0661-.066v-.5946c0-.0404-.0257-.066-.0661-.066h-.8184v-.3707h1.0019c.0404 0 .0661-.0257.0661-.0661v-.5945c0-.0404-.0257-.0661-.0661-.0661h-1.7726c-.0404 0-.0661.0257-.0661.0661v2.5616c0 .0404.0257.0661.0661.0661Z"/>
</g></svg>