<svg xmlns="http://www.w3.org/2000/svg" data-laicon-version="15.0" viewBox="0 0 20 20" fill="black"><g transform="translate(-2 -2)">
  <path d="M13.0002 14.2h6.6683V4.2188c0-.6455-.5232-1.1687-1.1687-1.1687H9.4741v5.1422h-5.142v11.589c0 .6455.5231 1.1687 1.1686 1.1687h5.6995V16c0-.9941.8058-1.8 1.8-1.8ZM8.6741 3.181 4.4628 7.3923h4.2113V3.181ZM12.0001 16c0-.5523.4478-1 1-1h7c.5523 0 1 .4477 1 1v5c0 .5523-.4477 1-1 1h-7c-.5522 0-1-.4477-1-1v-5Zm4.0766 2.6876v-.3229c0-.0404-.0257-.0661-.0661-.0661h-1.1707c-.0404 0-.0661.0257-.0661.0661v.4184c0 .0403.0257.066.0661.066h.3927c-.0331.1578-.2056.2496-.4515.2496-.3192 0-.5541-.2055-.5541-.6019s.2275-.5982.5541-.5982c.1468 0 .301.0587.3927.1761.0221.0294.0477.0441.0844.0331l.6973-.1872c.0404-.011.0588-.0404.0441-.0844-.1835-.4771-.6276-.7413-1.2331-.7413-.7964 0-1.402.5725-1.402 1.3982 0 .8258.5542 1.3983 1.3873 1.3983.8551 0 1.3249-.5248 1.3249-1.2038Zm1.1746 1.1524c.0403 0 .066-.0257.066-.066v-2.5617c0-.0404-.0257-.0661-.066-.0661h-.7047c-.0404 0-.066.0257-.066.0661v2.5617c0 .0403.0256.066.066.066h.7047Zm.6035 0h.7046c.0404 0 .0661-.0257.0661-.066v-.8038h.8184c.0403 0 .066-.0257.066-.066v-.5946c0-.0403-.0257-.066-.066-.066h-.8184v-.3707h1.0019c.0403 0 .066-.0257.066-.0661v-.5945c0-.0404-.0257-.0661-.066-.0661h-1.7726c-.0404 0-.0661.0257-.0661.0661v2.5617c0 .0403.0257.066.0661.066Z"/>
</g></svg>