<svg xmlns="http://www.w3.org/2000/svg" data-laicon-version="15.0" viewBox="0 0 20 20" fill="black"><g transform="translate(-2 -2)">
  <path d="M19.6681 14.1999h-6.6683c-.9942 0-1.8.8059-1.8 1.8V20.95H5.5002c-.6455 0-1.1687-.5232-1.1687-1.1687V8.1923h5.1421V3.05h9.0258c.6455 0 1.1687.5232 1.1687 1.1687v9.9811Z"/>
  <path d="m4.4624 7.3922 4.2113-4.2113v4.2113H4.4624ZM18.62 18.1701c0-.2789-.1504-.3633-.356-.3633h-.1981v.7267h.1981c.2056 0 .356-.0844.356-.3634Z"/>
  <path d="M13 14.9999c-.5523 0-1 .4477-1 1v5c0 .5523.4477 1 1 1h7c.5523 0 1-.4477 1-1v-5c0-.5523-.4477-1-1-1h-7Zm.5098 4.8401c-.0403 0-.066-.0257-.066-.0661v-.2128c0-.0294.0073-.0514.022-.0808l.9065-1.5487h-.7817c-.0404 0-.0661-.0257-.0661-.0661v-.6532c0-.0404.0257-.0661.0661-.0661h1.9524c.0404 0 .0661.0257.0661.0661v.2128c0 .0294-.0074.0514-.0221.0808l-.9101 1.5487h.8955c.0403 0 .066.0257.066.0661v.6532c0 .0404-.0257.0661-.066.0661h-2.0626Zm2.4955 0c-.0404 0-.0661-.0257-.0661-.0661v-2.5616c0-.0404.0257-.0661.0661-.0661h.7046c.0404 0 .0661.0257.0661.0661v2.5616c0 .0404-.0257.0661-.0661.0661h-.7046Zm1.9944 0h-.6863c-.0404 0-.0661-.0257-.0661-.0661v-2.5616c0-.0404.0257-.0661.0661-.0661h.9652c.7781 0 1.1854.334 1.1854 1.0239 0 .6863-.4073 1.024-1.1854 1.024h-.2128v.5798c0 .0404-.0257.0661-.0661.0661Z"/>
</g></svg>