<svg xmlns="http://www.w3.org/2000/svg" data-laicon-version="15.0" viewBox="0 0 20 20" fill="black"><g transform="translate(-2 -2)">
  <path d="M11.0002 14.2h8.6683V4.2188c0-.6455-.5232-1.1687-1.1687-1.1687H9.4741v5.1421h-5.142v11.5891c0 .6455.5231 1.1687 1.1686 1.1687h3.6995V16c0-.9941.8059-1.8 1.8-1.8Z"/>
  <path d="M8.6737 3.181 4.4624 7.3922h4.2113V3.181Zm4.1582 14.9892c0-.2789-.1504-.3633-.356-.3633h-.1981v.7267h.1981c.2056 0 .356-.0844.356-.3634Z"/>
  <path d="M10 16c0-.5523.4477-1 1-1h9c.5522 0 1 .4477 1 1v5c0 .5523-.4478 1-1 1h-9c-.5523 0-1-.4477-1-1v-5Zm8.2818 3.8915c.8551 0 1.3248-.5248 1.3248-1.2038v-.3229c0-.0404-.0257-.0661-.066-.0661h-1.1707c-.0403 0-.066.0257-.066.0661v.4183c0 .0404.0257.0661.066.0661h.3927c-.033.1578-.2056.2496-.4515.2496-.3193 0-.5541-.2056-.5541-.6019 0-.3964.2275-.5982.5541-.5982.1468 0 .301.0587.3927.1761.022.0294.0477.0441.0844.0331l.6973-.1872c.0404-.011.0587-.0404.0441-.0844-.1835-.4771-.6276-.7414-1.2332-.7414-.7963 0-1.4018.5726-1.4018 1.3983 0 .8258.5541 1.3983 1.3872 1.3983Zm-6.0703-.0514c.0404 0 .0661-.0257.0661-.0661v-.5798h.2128c.7781 0 1.1854-.3377 1.1854-1.024 0-.6899-.4073-1.0239-1.1854-1.0239h-.9652c-.0404 0-.066.0257-.066.0661v2.5616c0 .0404.0256.0661.066.0661h.6863Zm2.5657 0c.0404 0 .0661-.0257.0661-.0661v-1.3652l.7707 1.3836a.0816.0816 0 0 0 .077.0477h.734c.0404 0 .0661-.0257.0661-.0661v-2.5616c0-.0404-.0257-.0661-.0661-.0661h-.6679c-.0404 0-.0661.0257-.0661.0661v1.3542l-.7707-1.3726c-.0183-.0293-.0403-.0477-.077-.0477h-.734c-.0404 0-.0661.0257-.0661.0661v2.5616c0 .0404.0257.0661.0661.0661h.6679Z"/>
</g></svg>