<svg xmlns="http://www.w3.org/2000/svg" data-laicon-version="15.0" viewBox="0 0 20 20" fill="black"><g transform="translate(-2 -2)">
  <path d="M5.4999 3.68H4.0812c-.5934 0-1.1877.4492-1.1877 1.1364v3.6944H5.5V3.6799ZM2.8935 9.5108v5.0095H5.5V9.5108H2.8935Zm0 6.0095v3.6964c0 .6872.5943 1.1365 1.1877 1.1365H5.5v-4.8329H2.8935ZM6.5 20.3532h10.9999V3.6799H6.5v16.6733Zm3.6075-11.1014a.5.5 0 0 1 .501.0018l3.9931 2.3303a.5.5 0 0 1-.0019.8647l-3.993 2.3074a.5.5 0 0 1-.7502-.4329V9.6854a.5.5 0 0 1 .251-.4336ZM18.5 3.68v4.8307h2.684V4.8164c0-.6872-.5943-1.1365-1.1876-1.1365H18.5Zm2.684 5.8308H18.5v5.0095h2.684V9.5108Zm0 6.0095H18.5v4.8329h1.4964c.5932 0 1.1876-.4492 1.1876-1.1365v-3.6964Z"/>
</g></svg>