<svg xmlns="http://www.w3.org/2000/svg" data-laicon-version="15.0" viewBox="0 0 20 20" fill="black"><g transform="translate(-2 -2)">
  <path d="M19.0471 3.8799c-3.729-.89-5.72-.479-7.646-.082-1.653.339-3.227.656-5.946.117-.102-.067-.219-.117-.351-.117-.36 0-.651.291-.651.65v16.552c0 .359.291.651.651.651.359 0 .65-.292.65-.651v-3.771c.908.152 1.703.215 2.415.215 1.366 0 2.441-.221 3.494-.438 1.867-.386 3.631-.75 7.083.072.191.049.397.002.553-.122.156-.123.248-.31.248-.51V4.5119c0-.301-.207-.563-.5-.632Z"/>
</g></svg>