<svg xmlns="http://www.w3.org/2000/svg" data-laicon-version="16.15" viewBox="0 0 20 20" fill="black"><g transform="translate(-2 -2)">
  <path d="M3.62 5.22c0-.634.516-1.15 1.15-1.15h5.232l2.134 2.14h7.087c.634 0 1.15.515 1.15 1.15v11.412c0 .634-.516 1.15-1.15 1.15H4.77c-.634 0-1.15-.516-1.15-1.15V5.22Zm8.485 8.958a.39.39 0 0 1-.126-.556c.41-.615.771-1.305.771-1.832 0-1.221-.866-1.99-1.934-1.99s-1.934.769-1.934 1.99c0 .527.36 1.217.77 1.832a.39.39 0 0 1-.126.556l-1.466.83c-.346.197-.56.564-.56.962v.793h6.632v-.793c0-.398-.214-.765-.56-.961l-1.466-.83Zm2.726 2.585H16.5v-.793c0-.398-.214-.765-.56-.961l-1.466-.83a.39.39 0 0 1-.127-.557c.41-.615.771-1.305.771-1.832 0-1.221-.866-1.99-1.934-1.99-.17 0-.334.02-.49.057.466.47.756 1.134.756 1.933 0 .407-.135.817-.293 1.17a6.696 6.696 0 0 1-.417.773l1.176.667c.566.32.915.92.915 1.57v.793Z"/>
</g></svg>