<svg xmlns="http://www.w3.org/2000/svg" data-laicon-version="15.0" viewBox="0 0 20 20" fill="black"><g transform="translate(-2 -2)">
  <path d="M3.4507 4.6c0-.635.5149-1.15 1.15-1.15h14.799c.6351 0 1.15.515 1.15 1.15v14.8c0 .6351-.5149 1.15-1.15 1.15H4.6007c-.6351 0-1.15-.5149-1.15-1.15V4.6ZM14.65 10.2501c0-1.3255-1.0745-2.4-2.4-2.4H9v1.3h.3501v5.7001H9v1.3l3.7501-.0001c1.3255 0 2.4-1.0745 2.4-2.4 0-.8218-.413-1.5471-1.0428-1.9797a2.3902 2.3902 0 0 0 .5428-1.5203Zm-2.4 1.1h-1.6v-2.2h1.6c.6075 0 1.1.4925 1.1 1.1 0 .6075-.4925 1.1-1.1 1.1Zm-1.6 3.5v-2.2h2.1c.6075 0 1.1.4925 1.1 1.1 0 .6075-.4925 1.1-1.1 1.1h-2.1Z"/>
</g></svg>