<svg xmlns="http://www.w3.org/2000/svg" data-laicon-version="15.0" viewBox="0 0 20 20" fill="black"><g transform="translate(-2 -2)">
  <path d="M7.0708 4.47h5.2456c.81 0 1.7981.2317 2.6108.8285.8527.626 1.4655 1.6259 1.4655 2.998 0 1.0881-.4061 1.9745-1.0371 2.6284 1.2569.7633 2.1739 2.172 2.1739 4.0166 0 1.2011-.3383 2.3309-1.1379 3.1863-.8019.8578-1.9537 1.3178-3.3399 1.4004l-.0297.0017H7.0708V4.47Zm2 7.8161v5.2438h3.8905c.9974-.0645 1.606-.3794 1.9693-.7679.3688-.3946.5989-.9876.5989-1.8205 0-1.7016-1.2476-2.6554-2.4308-2.6554H9.0708Zm0-2h2.8128c.6825 0 1.3384-.199 1.7979-.5434.4311-.3232.7112-.7833.7112-1.4462 0-.7046-.2843-1.118-.6492-1.386-.4048-.2972-.9549-.4405-1.4271-.4405H9.0708v3.8161Z"/>
  <path d="M8.0711 6.47h-1.741v-2h1.741v2Zm-.3 13.0599h-1.441v-2h1.441v2Z"/>
</g></svg>