<svg xmlns="http://www.w3.org/2000/svg" data-laicon-version="16.11" viewBox="0 0 20 20" fill="black"><g transform="translate(-2 -2)">
  <path d="M6.85 8.28c0 .543.092 1.135.383 1.72h2.67a3.052 3.052 0 0 1-.554-.441c-.396-.408-.499-.821-.499-1.279 0-.7.35-1.241.928-1.645A3.72 3.72 0 0 1 11.8 6c1.326 0 2.15.483 2.645.997.54.56.685 1.141.685 1.283h2c0-.758-.42-1.817-1.245-2.672C15.015 4.707 13.674 4 11.8 4a5.716 5.716 0 0 0-3.166.995C7.65 5.68 6.85 6.78 6.85 8.28ZM14.678 14h2.4c.174.446.272.954.272 1.53 0 1.584-1.482 4.45-5.3 4.45-2.119 0-3.542-.663-4.43-1.61-.86-.917-1.12-1.998-1.12-2.69h2c0 .258.115.827.58 1.322.437.466 1.289.978 2.97.978 2.582 0 3.3-1.834 3.3-2.45 0-.723-.251-1.18-.672-1.53ZM4.5 13h15v-2h-15v2Z"/>
</g></svg>