<svg xmlns="http://www.w3.org/2000/svg" data-laicon-version="15.0" viewBox="0 0 20 20" fill="black"><g transform="translate(-2 -2)">
  <path d="M9.935 8.7798v2.85c0 .8749.2534 1.3838.5773 1.6815.334.307.8432.4819 1.5268.4819.7276 0 1.223-.1932 1.5362-.5037.3109-.3081.5405-.8289.535-1.6917L14.0736 8.78h-.643v-1.3h2.5696v1.3h-.6265l.0366 2.8071c.0073 1.0929-.2859 1.9974-.9198 2.6257-.6318.6262-1.5036.8804-2.4514.8804-.8886 0-1.7565-.2273-2.4065-.8248-.6601-.6067-.9976-1.5045-.9976-2.6386v-2.85h-.6348v-1.3h2.5696v1.3H9.935ZM8.0002 17.55v-1.3h8v1.3h-8Zm11.3995-14.1H4.6007c-.6351 0-1.15.515-1.15 1.15v14.8c0 .6351.5149 1.15 1.15 1.15h14.799c.6351 0 1.15-.5149 1.15-1.15V4.6c0-.635-.5149-1.15-1.15-1.15Z"/>
</g></svg>