<svg xmlns="http://www.w3.org/2000/svg" data-laicon-version="15.0" viewBox="0 0 20 20" fill="black"><g transform="translate(-2 -2)">
  <path d="M2.75 12c0-5.1086 4.1414-9.25 9.25-9.25 5.1087 0 9.25 4.1414 9.25 9.25s-4.1413 9.25-9.25 9.25c-5.1086 0-9.25-4.1414-9.25-9.25Zm6.4729-2.7036c-.5523 0-1 .4477-1 1s.4477 1 1 1c.5522 0 1-.4477 1-1s-.4478-1-1-1Zm4.5542 1c0 .5523.4478 1 1 1 .5523 0 1-.4477 1-1s-.4477-1-1-1c-.5522 0-1 .4477-1 1Zm-4.2659 5.4672c.4977-.8597 1.4262-1.4359 2.4888-1.4359s1.9911.5762 2.4887 1.4359a.65.65 0 0 0 .8882.2369.6498.6498 0 0 0 .2369-.8881c-.7205-1.2449-2.0688-2.0847-3.6138-2.0847s-2.8933.8398-3.6139 2.0847a.65.65 0 0 0 .237.8881.65.65 0 0 0 .8881-.2369Z"/>
</g></svg>