<svg xmlns="http://www.w3.org/2000/svg" data-laicon-version="15.0" viewBox="0 0 20 20" fill="black"><g transform="translate(-2 -2)">
  <path d="m19.2399 10.2825.008.033 1.58.316c.304.061.523.328.523.637v1.463c0 .309-.219.576-.523.637l-1.588.35a7.375 7.375 0 0 1-.908 2.185l-.018.029.896 1.342a.651.651 0 0 1-.081.821l-1.034 1.034a.6498.6498 0 0 1-.821.08l-1.341-.894-.028.017c-.682.42-1.418.725-2.187.906l-.033.009-.316 1.58a.6502.6502 0 0 1-.638.523h-1.461c-.31 0-.578-.219-.638-.523l-.349-1.588a7.4012 7.4012 0 0 1-2.185-.906l-.031-.019-1.341.895c-.257.172-.601.138-.821-.08l-1.034-1.034a.651.651 0 0 1-.081-.821l.896-1.342-.018-.029c-.42-.679-.726-1.415-.907-2.186l-.008-.033-1.581-.316a.6499.6499 0 0 1-.523-.637v-1.463c0-.31.219-.576.523-.637l1.589-.35a7.375 7.375 0 0 1 .907-2.185l.018-.029-.896-1.343a.6496.6496 0 0 1 .081-.82l1.034-1.034c.22-.218.565-.252.821-.08l1.341.895.029-.018a7.395 7.395 0 0 1 2.187-.907l.033-.007.316-1.582c.06-.303.328-.522.638-.522h1.461c.31 0 .578.219.638.522l.349 1.589c.771.182 1.508.488 2.186.908l.029.017 1.34-.895a.651.651 0 0 1 .822.08l1.034 1.034c.219.219.253.562.081.82l-.896 1.343.018.029c.42.679.726 1.414.908 2.186Zm-7.24-1.392c-1.717 0-3.109 1.392-3.109 3.109 0 1.718 1.392 3.11 3.109 3.11 1.718 0 3.11-1.392 3.11-3.11 0-1.717-1.392-3.109-3.11-3.109Z"/>
</g></svg>