<svg xmlns="http://www.w3.org/2000/svg" data-laicon-version="15.3" viewBox="0 0 20 20" fill="black"><g transform="translate(-2 -2)">
  <path d="M9.28 12.4h.54l-.27-.83-.27.83Zm3.65-1.25h-.25v.91h.25c.26 0 .45-.11.45-.46 0-.35-.19-.46-.45-.46v.01Z"/>
  <path d="m19.03 12.87 1.63 1.27h.02c.39.31.5.87.25 1.31l-1.44 2.5c-.25.43-.81.62-1.27.43l-1.89-.75h-.02c-.47.36-.98.65-1.52.89h-.02l-.29 2.04c-.07.5-.51.88-1.01.88h-2.89c-.5 0-.94-.38-1.01-.88l-.3-2.03c-.54-.23-1.05-.53-1.52-.89h-.02l-1.91.77c-.48.19-1.02-.01-1.26-.44l-1.45-2.5c-.25-.44-.14-1 .26-1.31l1.61-1.26v-.02c-.04-.3-.06-.6-.06-.9 0-.29.01-.57.05-.86v-.02L3.35 9.83c-.4-.31-.51-.87-.26-1.31l1.44-2.5c.25-.43.81-.62 1.27-.43l1.89.75h.01c.47-.35.98-.65 1.52-.89h.02l.29-2.04c.07-.5.51-.88 1.01-.88h2.89c.51 0 .94.38 1.01.88l.3 2.03c.54.23 1.05.53 1.52.89h.02l1.91-.77c.43-.18 1.01.01 1.26.44l1.45 2.5c.25.44.14 1-.26 1.31l-1.61 1.26v.02c.04.3.06.6.06.9 0 .29-.02.57-.06.86v.02Zm-8.7.83h.93c.06 0 .08-.04.06-.1l-1.31-3.22c-.02-.04-.1-.06-.1-.06h-.7c-.05 0-.1.06-.1.06L7.8 13.6c-.03.06 0 .1.06.1h.91c.05 0 .1-.07.1-.07l.14-.44h1.07l.15.44c.02.05.1.07.1.07Zm2.35-.81h.27c.98 0 1.49-.42 1.49-1.28 0-.86-.51-1.28-1.49-1.28h-1.21c-.05 0-.08.03-.08.08v3.21c0 .05.03.08.08.08h.86c.05 0 .08-.03.08-.08v-.73Zm3.19.81c.05 0 .08-.03.08-.08v-3.21c0-.05-.03-.08-.08-.08h-.88c-.05 0-.08.03-.08.08v3.21c0 .05.03.08.08.08h.88Z"/>
</g></svg>