<svg xmlns="http://www.w3.org/2000/svg" data-laicon-version="15.0" viewBox="0 0 20 20" fill="black"><g transform="translate(-2 -2)">
  <path d="M12.0002 14.4316c-1.341 0-2.432-1.091-2.432-2.432 0-1.34 1.091-2.431 2.432-2.431s2.432 1.091 2.432 2.431c0 1.341-1.091 2.432-2.432 2.432Zm8.801.363-1.914-1.494.053-.454c.037-.283.054-.566.054-.847 0-.294-.019-.589-.057-.882l-.06-.461 1.903-1.487c.255-.2.324-.557.162-.838l-1.316-2.278a.6488.6488 0 0 0-.807-.277l-2.251.911-.367-.277c-.465-.35-.97-.64-1.5-.862l-.428-.179-.334-2.388a.6488.6488 0 0 0-.643-.56h-2.632c-.324 0-.599.239-.643.56l-.336 2.404-.424.18a6.95 6.95 0 0 0-1.495.869l-.367.282-2.239-.907c-.302-.12-.645-.003-.807.278l-1.316 2.281a.65.65 0 0 0 .163.836l1.911 1.494-.053.453a6.93 6.93 0 0 0-.052.848c0 .295.02.592.057.887l.059.458-1.902 1.486a.65.65 0 0 0-.162.837l1.315 2.279c.161.28.505.398.807.277l2.252-.911.367.276c.462.349.967.639 1.5.863l.427.179.335 2.388c.044.321.319.56.643.56h2.632c.324 0 .599-.239.643-.56l.336-2.404.424-.18c.528-.223 1.03-.515 1.495-.87l.367-.281 2.239.905a.649.649 0 0 0 .806-.277l1.317-2.279c.162-.281.093-.639-.162-.838Z"/>
</g></svg>