<svg xmlns="http://www.w3.org/2000/svg" data-laicon-version="15.0" viewBox="0 0 20 20" fill="black"><g transform="translate(-2 -2)">
  <path d="M7.2322 14.3984c.392.224.847.336 1.365.336.532 0 .98-.1003 1.344-.301.3687-.2007.6463-.4737.833-.819.1913-.3453.287-.7327.287-1.162v-.602c0-.0747-.0373-.112-.112-.112h-2.191c-.0747 0-.112.0373-.112.112v.749c0 .0747.0373.112.112.112h.987c-.0373.252-.1563.4433-.357.574-.2006.1307-.4503.196-.749.196-.3826 0-.693-.1237-.931-.371-.238-.2473-.357-.5927-.357-1.036s.1167-.7887.35-1.036c.2333-.252.546-.378.938-.378.2053 0 .3943.0443.567.133.1727.0887.3103.2147.413.378.0327.056.0793.077.14.063l1.071-.294c.0793-.014.1027-.0607.07-.14-.1727-.448-.4573-.7933-.854-1.036-.392-.2427-.868-.364-1.428-.364-.3733 0-.721.0653-1.043.196-.3173.126-.595.308-.833.546-.2333.2333-.4153.5133-.546.84-.1307.3267-.196.6883-.196 1.085 0 .532.1073.9987.322 1.4.2194.3967.5227.707.91.931Zm4.9577.126c0 .0747.0373.112.112.112h1.085c.0747 0 .112-.0373.112-.112v-4.914c0-.0747-.0373-.112-.112-.112h-1.085c-.0747 0-.112.0373-.112.112v4.914Zm2.6957.112h1.085c.0747 0 .112-.0373.112-.112v-1.715h1.736c.0747 0 .112-.035.112-.105v-.945c0-.0747-.0373-.112-.112-.112h-1.736v-.987h2.072c.0747 0 .112-.035.112-.105v-.945c0-.0747-.0373-.112-.112-.112h-3.269c-.0747 0-.112.0373-.112.112v4.914c0 .0747.0373.112.112.112ZM2.2622 6.2909c0-1.0477.8493-1.897 1.897-1.897h15.706c1.0477 0 1.897.8493 1.897 1.897v11.422c0 1.0477-.8493 1.897-1.897 1.897H4.1592c-1.0477 0-1.897-.8493-1.897-1.897V6.2909Z"/>
</g></svg>