<svg xmlns="http://www.w3.org/2000/svg" data-laicon-version="18.8" viewBox="0 0 20 20" fill="black"><g transform="translate(-2 -2)">
  <path d="M10.402 19.574h-6.33a1.389 1.389 0 0 1-.986-.419 1.421 1.421 0 0 1-.403-.989l-.014-7.07h7.733v8.478Zm9.036-6.764a4.995 4.995 0 0 0-1.181-.203L18 12.601a5 5 0 0 0-5 5l.007.256c.03.608.172 1.186.4 1.717h-1.705v-8.477h7.734l.002 1.713Zm-9.036-7.958v4.945H2.666L2.66 6.905c.003-.367.147-.722.405-.986.26-.264.613-.416.985-.419h5.162L7.65 3.938l.92-.918 1.832 1.832Zm4.052-.914L12.893 5.5h5.147c.372.003.726.155.985.419s.403.619.406.986v.004l.004 2.888h-7.733V4.852l1.832-1.832.92.918Z"/>
  <path d="M18 13.6a4 4 0 1 1 0 8 4 4 0 0 1 0-8Zm-.059 2.117-.353.354 1.03 1.03h-2.794v1h2.792l-1.028 1.027.353.354.355.353L20.53 17.6l-.353-.354-1.882-1.882-.355.353Z"/>
</g></svg>