<svg xmlns="http://www.w3.org/2000/svg" data-laicon-version="18.11" viewBox="0 0 20 20" fill="black"><g transform="translate(-2 -2)">
  <path d="M21.19 11s-.02-.14-.04-.29c-.17-1.2-.56-2.32-1.14-3.32-.1-.19-.22-.37-.34-.55-.26-.39-.55-.76-.89-1.11l-.01-.01c-1.69-1.81-4.09-2.96-6.76-2.96C6.9 2.75 2.75 6.9 2.75 12S6.9 21.25 12 21.25s9.25-4.15 9.25-9.25c0-.34-.02-.67-.06-1Zm-4.73 7.58c.05-.11.09-.24.1-.38.03-.28 0-.55-.02-.79.62-.22 1-.49 1.14-.82.14-.32.13-.65 0-.93-.13-.27-.38-.46-.7-.54-.07-.02-.17-.03-.29-.05-.37-.05-.65-.11-.83-.36.08-.37.14-.97-.11-1.4-.14-.24-.37-.41-.64-.47-.62-.14-1.04.2-1.29.41-.06.05-.15.13-.18.11-.2-.11-.25-.19-.32-.3-.26-.37-.56-.57-1.29-.53-.23.01-.4 0-.53 0-.47-.04-.8-.02-1.44.45-.77.57-.96 1.04-1.01 1.27-.02.07-.02.14-.02.2.03.35.13 1.55.34 2.06.3.72 1.09.93 1.92 1.16l.15.04c.3.08.5.16.64.21.13.57.37 1.44.69 1.81.06.07.1.11.15.16-.3.03-.6.06-.91.06-4.38 0-7.95-3.57-7.95-7.95s3.42-7.79 7.68-7.94c-.32.27-.6.57-.73.91-.24.62-.16 1.22-.11 1.65.02.14.04.33.03.39-.08.29-.18.35-.42.5-.25.15-.59.36-.84.88-.03.08-.3.83.04 1.57.16.34.5.8 1.26 1.06.62.21 1.07.02 1.4-.13.21-.09.34-.15.5-.13.21.43.6.61 1.21.56.79-.07 1.06-.55 1.2-.8.02-.04.05-.1.04-.1s.07-.03.1-.04l.06-.03c.06.12.14.24.24.36.15.17.33.3.52.39v.02c-.09.32-.04.65.15.94.16.33.72 1.38 1.54 1.75l.45 1.33c.09.26.33.44.6.44h.11c-.61 1.21-1.52 2.25-2.64 3.01ZM9.52 7.43c-.13.25-.48.7-.83.92-.25.16-.51.21-.75.06-.54-.34-.1-.85-.1-.85l.89-.89s.26-.27.53-.16c.32.13.39.64.26.91Z"/>
</g></svg>