<svg xmlns="http://www.w3.org/2000/svg" data-laicon-version="15.0" viewBox="0 0 20 20" fill="black"><g transform="translate(-2 -2)">
  <path d="M11.9998 2.7c-5.1 0-9.2 4.1-9.2 9.2s4.1 9.3 9.2 9.3 9.2-4.2 9.2-9.3c0-5-4.1-9.2-9.2-9.2Zm-7.7 11.1h2.4c.2 0 .3-.1.5-.2l.5-.5.8 1.7c0 .2.3.4.5.4h1.6c.1 0 .3 0 .4-.1l.5-.4c.1-.1.2-.2.2-.4l.1-.6c0-.2 0-.4-.2-.6l-.2-.2c.2 0 .3-.1.5-.3l.8-1.2.3.1c.2.1.4.1.6-.1.2-.1.3-.3.3-.5V7.4c0-.2-.1-.4-.3-.5l-.3-.2 2.1-1.8c2.6 1.3 4.5 4 4.5 7.1 0 1.1-.2 2.1-.6 3.1V15l-.3-1c-.1-.2-.2-.4-.5-.5-.2-.1-.5 0-.6.2l-.2.3c-.1-.1-.2-.3-.4-.3l-.5-.2h-.5c-.1 0-.3 0-.4.1l-.9.7-1 .4c-.1 0-.2.1-.2.1l-.5.5c-.1.1-.2.3-.2.5v.8c0 .2.1.4.2.5l1.1 1c.2.1.4.2.6.1l.9-.3.4.5.1.1c-1.3.9-2.8 1.4-4.5 1.4-3.7 0-6.8-2.6-7.6-6.1Z"/>
</g></svg>