<svg xmlns="http://www.w3.org/2000/svg" data-laicon-version="15.0" viewBox="0 0 20 20" fill="black"><g transform="translate(-2 -2)">
  <path d="m12.2898 3.44 9.2799 5.35c.21.11.3301.33.3301.56v4.8h-1.3001v-3.68l-8.3099 4.79c-.1.06-.2001.09-.3201.09a.629.629 0 0 1-.3299-.09l-9.27-5.35c-.2-.11-.32-.33-.32-.56 0-.23.12-.44.32-.56l9.27-5.35c.2-.12.45-.12.65 0Z"/>
  <path d="m5.3999 12.5801 5.85 3.38v-.01c.45.26.9999.26 1.4499 0l5.8501-3.38v3.75c0 .23-.1301.44-.3301.56l-5.9299 3.42c-.1.06-.2001.09-.3201.09a.629.629 0 0 1-.3299-.09l-5.92-3.42c-.2-.11-.32-.33-.32-.56v-3.74Z"/>
</g></svg>