<svg xmlns="http://www.w3.org/2000/svg" data-laicon-version="18.12" viewBox="0 0 20 20" fill="black"><g transform="translate(-2 -2)">
  <path d="M12.675 21.55c-2.017 0-4.165-.96-5.47-2.444-.953-1.083-2.535-3.052-3.48-4.228 0 0-.612-.764-.739-.917-.642-.78-.649-1.88-.016-2.451.278-.249.622-.38.999-.38.46 0 .913.2 1.278.564l1.546 1.514.808-8.787a1.179 1.179 0 0 1 2.352.153l-.237 6.15a.41.41 0 1 0 .822.028l.226-7.143a1.16 1.16 0 0 1 2.319.003l.205 7.116a.434.434 0 1 0 .868-.026l-.192-6.016a1.078 1.078 0 0 1 2.153-.104l.459 7.046a.398.398 0 1 0 .794-.054l-.294-4.238a1.041 1.041 0 0 1 2.073-.18c.18 1.74.547 5.312.605 6.056.113 1.444.114 3.597-1.18 5.608-1.451 2.256-4.01 2.73-5.9 2.73Z"/>
</g></svg>