<svg xmlns="http://www.w3.org/2000/svg" data-laicon-version="15.0" viewBox="0 0 20 20" fill="black"><g transform="translate(-2 -2)">
  <path d="m21.4815 19.0273-8.832-7.369v-1.809c1.37-.299 2.398-1.52 2.398-2.977 0-1.681-1.367-3.049-3.047-3.049-1.681 0-3.048 1.368-3.048 3.049h1.3c0-.964.784-1.748 1.748-1.748.963 0 1.748.784 1.748 1.748s-.785 1.747-1.748 1.747a.65.65 0 0 0-.65.65v2.389l-8.832 7.369c-.21.175-.287.463-.195.721.094.257.338.428.612.428h18.129c.274 0 .519-.171.612-.428a.6508.6508 0 0 0-.195-.721Z"/>
</g></svg>