<svg xmlns="http://www.w3.org/2000/svg" data-laicon-version="15.0" viewBox="0 0 20 20" fill="black"><g transform="translate(-2 -2)">
  <path d="M3.4502 4.6c0-.6352.5148-1.15 1.15-1.15h14.8c.6352 0 1.15.5148 1.15 1.15v14.8c0 .6351-.5149 1.15-1.15 1.15h-14.8c-.6352 0-1.15-.5148-1.15-1.15V4.6Zm4.9939 9.8499c.07 0 .112-.042.112-.112v-1.897h1.8969v1.897c0 .07.042.112.112.112h1.085c.063 0 .112-.042.112-.112v-4.914c0-.07-.049-.112-.112-.112h-1.085c-.07 0-.112.042-.112.112v1.785H8.556v-1.785c0-.07-.042-.112-.112-.112H7.359c-.07 0-.112.042-.112.112v4.914c0 .07.042.112.112.112h1.085Zm6.2867 0c1.659 0 2.604-.917 2.604-2.569 0-1.666-.945-2.569-2.604-2.569h-1.897c-.07 0-.112.042-.112.112v4.914c0 .07.042.112.112.112h1.897Zm1.274-2.569c0-.917-.49-1.365-1.4-1.365h-.595v2.73h.595c.91 0 1.4-.448 1.4-1.365Z"/>
</g></svg>