<svg xmlns="http://www.w3.org/2000/svg" data-laicon-version="15.0" viewBox="0 0 20 20" fill="black"><g transform="translate(-2 -2)">
  <path d="M4.2173 12c0-4.726 3.831-8.5571 8.5571-8.5571 4.7259 0 8.5571 3.831 8.5571 8.5571 0 4.726-3.8312 8.5571-8.5571 8.5571-2.4072 0-4.5833-.9949-6.1373-2.5941l1.0758-1.0453c1.2832 1.3205 3.076 2.1394 5.0615 2.1394 3.8975 0 7.0571-3.1596 7.0571-7.0571 0-3.8976-3.1596-7.0571-7.0571-7.0571S5.7173 8.1024 5.7173 12c0 .3916.0318.7753.0929 1.1486l-1.4804.2421A8.6124 8.6124 0 0 1 4.2173 12Z"/>
  <path d="m8.1737 11.603-3.1556 3.0397-3.0279-3.1391 1.0796-1.0413 1.9872 2.0602 2.076-1.9998 1.0407 1.0803Zm5.3453-.0453 2.502 1.4015-.7331 1.3087-3.2689-1.8311V7.3543h1.5v4.2034Z"/>
</g></svg>