<svg xmlns="http://www.w3.org/2000/svg" data-laicon-version="15.0" viewBox="0 0 20 20" fill="black"><g transform="translate(-2 -2)">
  <path d="M14.0602 10.97c1.19-.66 3.39-1.88 3.39-5.12V4.6h1.35V3.3h-13.6v1.3h1.35v1.25c0 3.24 2.21 4.46 3.46 5.16.32.18.53.58.53 1.01 0 .43-.21.83-.6 1.04-1.18.66-3.39 1.89-3.39 5.12v1.31h-1.35v1.3h13.6v-1.3h-1.35v-1.32c0-3.22-2.21-4.45-3.46-5.14-.32-.18-.53-.58-.53-1.01 0-.43.21-.83.59-1.04l.01-.01Zm-6.21-6.37h8.3v1.25c0 .81-.19 1.44-.46 1.96h-7.38c-.27-.52-.46-1.15-.46-1.96V4.6Zm2.79 9.56c.28-.16.51-.4.71-.67v2.75c-.4.02-.8.05-1.2.12l-2.08.47c.47-1.47 1.67-2.16 2.58-2.66l-.01-.01Zm5.33 2.76-2.29-.57c-.34-.05-.69-.09-1.03-.11v-2.77c.21.29.46.55.78.73.92.51 2.11 1.2 2.54 2.72Z"/>
</g></svg>