<svg xmlns="http://www.w3.org/2000/svg" data-laicon-version="16.1" viewBox="0 0 20 20" fill="black"><g transform="translate(-2 -2)">
  <path d="M5.975 4.501A1.15 1.15 0 0 1 7.126 3.35h9.748a1.15 1.15 0 0 1 1.151 1.151V19.5a1.15 1.15 0 0 1-1.151 1.151H7.126A1.151 1.151 0 0 1 5.975 19.5v-15Zm8.756 5.98a.84.84 0 1 0 0-1.68.84.84 0 0 0 0 1.68Zm-5.8 3.823h5.981l-2.99-4.662-2.992 4.662ZM2.35 6.26c0-.64.52-1.16 1.16-1.16H5v13.8H3.51c-.64 0-1.16-.52-1.16-1.16V6.26ZM20.49 5.1H19v13.8h1.49c.64 0 1.16-.52 1.16-1.16V6.26c0-.64-.52-1.16-1.16-1.16Z"/>
</g></svg>