<svg xmlns="http://www.w3.org/2000/svg" data-laicon-version="15.0" viewBox="0 0 20 20" fill="black"><g transform="translate(-2 -2)">
  <path d="M17.9355 3.347h-13.49c-.61 0-1.11.5-1.11 1.11v13.5c0 .61.5 1.11 1.11 1.11h13.5c.61 0 1.11-.5 1.11-1.11v-13.5c-.01-.61-.51-1.11-1.12-1.11Zm-10.5 10.92 3.33-5.18 3.33 5.18h-6.66Zm6.61-3.32c-.52 0-.93-.42-.93-.93s.42-.93.93-.93c.52 0 .93.42.93.93.01.51-.41.93-.93.93Z"/>
  <path d="M20.2656 20.277V5.597h1.3v14.87c0 .6282-.5103 1.11-1.11 1.11h-14.71v-1.3h14.52Z"/>
</g></svg>