<svg xmlns="http://www.w3.org/2000/svg" data-laicon-version="15.3" viewBox="0 0 20 20" fill="black"><g transform="translate(-2 -2)">
  <path d="m19.611 20.53 1.43 1.43.918-.92-19-19-.919.92 1.43 1.429c-.013.068-.02.139-.02.21V19.4c0 .634.516 1.15 1.15 1.15h14.8c.072 0 .142-.007.211-.02Zm-5.17-5.169H7.883l2.563-3.997 3.997 3.997ZM6.17 3.45l14.38 14.38V4.6c0-.634-.517-1.15-1.15-1.15H6.17Zm7.941 6.077c0-.564.458-1.021 1.023-1.021a1.022 1.022 0 1 1 0 2.042 1.022 1.022 0 0 1-1.023-1.021Z"/>
</g></svg>