<svg xmlns="http://www.w3.org/2000/svg" data-laicon-version="15.0" viewBox="0 0 20 20" fill="black"><g transform="translate(-2 -2)">
  <path d="M15.2001 9.15a.85.85 0 0 0-.85.85v1.9a.85.85 0 0 0 .85.85h1.9a.85.85 0 0 0 .85-.85V10a.85.85 0 0 0-.85-.85h-1.9Zm2-5.8a.85.85 0 0 0-.85.85v2.6a.85.85 0 0 0 .85.85h2.6a.85.85 0 0 0 .85-.85V4.2a.85.85 0 0 0-.85-.85h-2.6Z"/>
  <path d="M4.1002 7.95h9.25v4.6c0 .6628.5373 1.2 1.2 1.2h1.5v6.15a.65.65 0 0 1-.65.65h-11.3a.65.65 0 0 1-.65-.65V8.6a.65.65 0 0 1 .65-.65Zm3.1 8.3851h4.592l-2.302-3.579-2.29 3.579Zm4.0893-4.1127a.6428.6428 0 0 0-.0953.989.6427.6427 0 0 0 1.097-.4553.6431.6431 0 0 0-.642-.643h-.003a.643.643 0 0 0-.3567.1093Z"/>
</g></svg>