<svg xmlns="http://www.w3.org/2000/svg" data-laicon-version="15.0" viewBox="0 0 20 20" fill="black"><g transform="translate(-2 -2)">
  <path d="M3.1499 5.1875c0-.6353.515-1.15 1.15-1.15h15.4c.635 0 1.15.5147 1.15 1.15v13.6251c0 .6353-.515 1.15-1.15 1.15h-1.3182l-1.1093-1.1096-8.5795-8.5796-5.3516 5.3517-.001.001-.1904.1895V5.1875Zm0 12.4626v1.1625c0 .6351.515 1.15 1.15 1.15h12.2434l-7.8504-7.8507-4.4334 4.4334-.001.0011-1.1086 1.1037Zm12.4018-9.1367c-.5769 0-1.0446.4678-1.0446 1.0447 0 .577.4677 1.0447 1.0446 1.0447s1.0446-.4677 1.0446-1.0447c0-.5769-.4677-1.0447-1.0446-1.0447Z"/>
</g></svg>