<svg xmlns="http://www.w3.org/2000/svg" data-laicon-version="15.0" viewBox="0 0 20 20" fill="black"><g transform="translate(-2 -2)">
  <path d="M5.501 4.492a1.15 1.15 0 0 1 1.1052-.832h10.7871a1.15 1.15 0 0 1 1.1052.832l2.3922 8.3151h-5.8564l-.1419.2618c-.6851 1.2644-2.0262 1.7383-2.8965 1.7382-.7248 0-2.0728-.2745-2.9004-1.7452l-.1434-.2548H3.109l2.3921-8.315Z"/>
  <path d="M3.08 13.8071V18.7c0 .9113.7388 1.65 1.65 1.65h14.5401c.9113 0 1.65-.7387 1.65-1.65v-4.8929h-5.3023c-.9326 1.4628-2.5393 2.0001-3.6216 2-.8985 0-2.5439-.3286-3.6186-2H3.0801Z"/>
</g></svg>