<svg xmlns="http://www.w3.org/2000/svg" data-laicon-version="18.12" viewBox="0 0 20 20" fill="black"><g transform="translate(-2 -2)">
  <path d="M6.17 5.2a1.962 1.962 0 0 1 2.596.586l1.569 2.278c.66-.716 1.683-.918 2.497-.53a2.16 2.16 0 0 1 1.23-.541c.502-.046 1 .092 1.423.384.3-.108.613-.157.935-.132.478.037.925.23 1.328.538.788.602 1.46 1.68 2.01 3.149.57 1.523.74 3.167.333 4.69-.412 1.536-1.402 2.905-3.063 3.864a7.328 7.328 0 0 1-7.53-.122l-3.775-2.346a2.154 2.154 0 0 1 1.774-3.887l.72.223L5.4 7.784A1.962 1.962 0 0 1 6.17 5.2ZM3.839 7.637a.65.65 0 0 1 .65 1.127l-.565.326a.65.65 0 0 1-.65-1.127l.565-.326Z"/>
  <path d="M10.031 4.062a.651.651 0 0 1 .65 1.126l-.564.327a.65.65 0 0 1-.65-1.127l.564-.326ZM2.578 5.4a.651.651 0 0 1 .797-.46l.63.17a.651.651 0 0 1-.336 1.256l-.631-.169a.651.651 0 0 1-.46-.797Zm4.778-2.758a.651.651 0 0 1 1.257.336l-.17.631a.65.65 0 0 1-1.255-.337l.168-.63ZM4.7 2.64a.651.651 0 0 1 .889.239l.326.565a.651.651 0 0 1-1.127.65l-.326-.565a.65.65 0 0 1 .238-.888Z"/>
</g></svg>