<svg xmlns="http://www.w3.org/2000/svg" data-laicon-version="15.0" viewBox="0 0 20 20" fill="black"><g transform="translate(-2 -2)">
  <path d="M4.6002 3.45c-.6352 0-1.15.5148-1.15 1.15v14.8c0 .6352.5148 1.15 1.15 1.15h14.8c.6351 0 1.15-.5149 1.15-1.15V4.6c0-.6352-.5148-1.15-1.15-1.15h-14.8Zm7.302 3.48c.6031 0 1.0919.4888 1.0919 1.0919 0 .603-.4889 1.092-1.0919 1.092-.6031 0-1.092-.489-1.092-1.092 0-.603.4889-1.092 1.092-1.092Zm-.552 4.44h-.63v-1.3h1.23a.7.7 0 0 1 .7.7v4.57h.5621v1.3H10.782v-1.3h.5682v-3.97Z"/>
</g></svg>