<svg xmlns="http://www.w3.org/2000/svg" data-laicon-version="15.0" viewBox="0 0 20 20" fill="black"><g transform="translate(-2 -2)">
  <path d="M16.6539 14.7344c.532 0 .98-.1003 1.344-.301.3687-.2007.6464-.4737.833-.819.1914-.3453.287-.7327.287-1.162v-.602c0-.0747-.0373-.112-.112-.112h-2.191c-.0746 0-.112.0373-.112.112v.749c0 .0747.0374.112.112.112h.987c-.0373.252-.1563.4433-.357.574-.2006.1307-.4503.196-.749.196-.3826 0-.693-.1237-.931-.371-.238-.2473-.357-.5927-.357-1.036s.1167-.7887.35-1.036c.2334-.252.546-.378.938-.378.2054 0 .3944.0443.567.133a1.04 1.04 0 0 1 .413.378c.0327.056.0794.077.14.063l1.071-.294c.0794-.014.1027-.0607.07-.14-.1726-.448-.4573-.7933-.854-1.036-.392-.2427-.868-.364-1.428-.364-.3733 0-.721.0653-1.043.196-.3173.126-.595.308-.833.546-.2333.2333-.4153.5133-.546.84-.1306.3267-.196.6883-.196 1.085 0 .532.1074.9987.322 1.4.2194.3967.5227.707.91.931.392.224.847.336 1.365.336Zm-11.0668-.364c.2893.2427.665.364 1.127.364.3733 0 .6977-.0653.973-.196.2753-.1353.4877-.3477.637-.637.154-.2893.231-.6697.231-1.141v-3.15c0-.0747-.0373-.112-.112-.112H5.958c-.0747 0-.112.0373-.112.112v1.008c0 .07.0373.105.112.105h1.288v1.946c0 .2333-.0397.4247-.119.574-.0793.1493-.2263.224-.441.224-.1307 0-.238-.035-.322-.105-.0793-.07-.14-.1633-.182-.28-.0233-.07-.07-.0957-.14-.077l-.959.259c-.07.0233-.0957.07-.077.14.1027.4013.2963.7233.581.966Zm3.9274.154c0 .0747.0373.112.112.112h1.064c.0746 0 .112-.0373.112-.112v-1.26h.539c.7093 0 1.246-.1587 1.61-.476.364-.322.546-.791.546-1.407 0-.6207-.182-1.0897-.546-1.407-.364-.3174-.9007-.476-1.61-.476h-1.715c-.0747 0-.112.0373-.112.112v4.914Zm1.288-3.934h.504c.266 0 .476.0607.63.182.154.1167.231.315.231.595 0 .294-.077.5017-.231.623-.154.1213-.364.182-.63.182h-.504v-1.582ZM2.2622 6.2909c0-1.0477.8493-1.897 1.897-1.897h15.706c1.0477 0 1.897.8493 1.897 1.897v11.422c0 1.0477-.8493 1.897-1.897 1.897H4.1592c-1.0477 0-1.897-.8493-1.897-1.897V6.2909Z"/>
</g></svg>