<svg xmlns="http://www.w3.org/2000/svg" data-laicon-version="17.1" viewBox="0 0 20 20" fill="black"><g transform="translate(-2 -2)">
  <path d="M3.1 7.75a4.4 4.4 0 1 1 6.7 3.752v1.316a.65.65 0 0 1-.19.46l-.794.793.79.79a.65.65 0 0 1 0 .92l-.79.79.794.794a.65.65 0 0 1 .19.46v1.204c0 .324-.137.633-.376.85l-1.15 1.046a1.15 1.15 0 0 1-1.548 0l-1.15-1.045a1.15 1.15 0 0 1-.376-.851v-7.527A4.397 4.397 0 0 1 3.1 7.75Zm4.4-1.1a1.1 1.1 0 1 0 0 2.2 1.1 1.1 0 0 0 0-2.2Zm5.1 2.822c0-.62.502-1.122 1.122-1.122h6.056c.62 0 1.122.502 1.122 1.122v1.956c0 .62-.502 1.122-1.122 1.122h-6.056c-.62 0-1.122-.502-1.122-1.122V9.472Zm1.122 3.978c-.62 0-1.122.502-1.122 1.122v1.956c0 .62.502 1.122 1.122 1.122h6.056c.62 0 1.122-.502 1.122-1.122v-1.956c0-.62-.502-1.122-1.122-1.122h-6.056Z"/>
</g></svg>