<svg xmlns="http://www.w3.org/2000/svg" data-laicon-version="15.0" viewBox="0 0 20 20" fill="black"><g transform="translate(-2 -2)">
  <path d="M15.2191 10.319c.9367 0 1.696-.7593 1.696-1.696s-.7593-1.696-1.696-1.696-1.696.7593-1.696 1.696.7593 1.696 1.696 1.696Zm-5.859-1.696c0-3.236 2.623-5.859 5.859-5.859 3.2221 0 5.8366 2.6007 5.8588 5.8176a.6444.6444 0 0 1 .0008.0607l.0003.0112.0001.0095c0 3.23-2.618 5.8481-5.848 5.8481-.2923 0-.785-.0749-1.1493-.138L13 15.5358a.65.65 0 0 1-.4759.2073h-1.722v1.637c0 .6388-.5179 1.154-1.154 1.154h-1.483v1.309c0 .6531-.5436 1.1742-1.1935 1.15H3.7071a.65.65 0 0 1-.65-.65v-4.025a.6502.6502 0 0 1 .1904-.4597l6.214-6.2139c-.062-.3243-.1014-.6648-.1014-1.0215Z"/>
</g></svg>