<svg xmlns="http://www.w3.org/2000/svg" data-laicon-version="15.0" viewBox="0 0 20 20" fill="black"><g transform="translate(-2 -2)">
  <path d="M4.6895 6.2463c-.5077-.03-.9527.1122-1.2867.4137-.3276.2958-.4876.69-.5415 1.057a.6501.6501 0 0 0-.0068.0943v8.3814c0 1.0015.9668 1.565 1.8142 1.565h14.6626c.8474 0 1.8142-.5636 1.8142-1.565V7.8113a.6568.6568 0 0 0-.0046-.0768c-.0566-.476-.2575-.8875-.6364-1.1605-.3561-.2566-.7834-.3277-1.1732-.3277H4.6895ZM5.8722 9.15h1v1h-1v-1Zm1.1286 3.3446v-1h1v1h-1ZM18.17 14.9828h-1v-1h1v1Zm-11.33.0244h-1v-1h1v1Zm2.04-.0042v-1h6.24v1H8.88Zm.3782-3.5084h1v1h-1v-1Zm2.2575 1v-1h1v1h-1Zm2.2573-1h1v1h-1v-1Zm2.2574 1v-1h1v1h-1ZM8.1296 10.15v-1h1v1h-1Zm2.2574-1h1v1h-1v-1Zm2.2574 1v-1h1v1h-1Zm2.2575-1h1v1h-1v-1Zm2.2574 1v-1h1v1h-1Z"/>
</g></svg>