<svg xmlns="http://www.w3.org/2000/svg" data-laicon-version="15.0" viewBox="0 0 20 20" fill="black"><g transform="translate(-2 -2)">
  <path d="M6.0298 4.5298c-.829 0-1.5.671-1.5 1.5s.671 1.5 1.5 1.5 1.5-.671 1.5-1.5-.671-1.5-1.5-1.5Zm5.9702 0c-.829 0-1.5.671-1.5 1.5s.671 1.5 1.5 1.5 1.5-.671 1.5-1.5-.671-1.5-1.5-1.5ZM12 10.5c-.829 0-1.5.671-1.5 1.5s.671 1.5 1.5 1.5 1.5-.671 1.5-1.5-.671-1.5-1.5-1.5Zm-1.5 7.4702c0-.829.671-1.5 1.5-1.5s1.5.671 1.5 1.5-.671 1.5-1.5 1.5-1.5-.671-1.5-1.5Zm7.4702-10.4404c.829 0 1.5-.671 1.5-1.5s-.671-1.5-1.5-1.5-1.5.671-1.5 1.5.671 1.5 1.5 1.5ZM16.4702 12c0-.829.671-1.5 1.5-1.5s1.5.671 1.5 1.5-.671 1.5-1.5 1.5-1.5-.671-1.5-1.5ZM4.5298 12c0-.829.671-1.5 1.5-1.5s1.5.671 1.5 1.5-.671 1.5-1.5 1.5-1.5-.671-1.5-1.5Z"/>
</g></svg>