<svg xmlns="http://www.w3.org/2000/svg" data-laicon-version="15.0" viewBox="0 0 20 20" fill="black"><g transform="translate(-2 -2)">
  <path d="m6.4023 11.4686 8-9 1.1958 1.063-6.8164 7.6685h8.2185a.8001.8001 0 0 1 .5979 1.3315l-8 9-1.1958-1.063 6.8164-7.6685H7.0002a.8.8 0 0 1-.598-1.3315ZM15.5028 21.6h1.148c.063 0 .105-.028.126-.091l.28-.791h1.869l.28.791c.021.063.063.091.126.091h1.176c.077 0 .112-.056.084-.126l-2.023-4.928c-.021-.056-.063-.084-.126-.084h-.882c-.056 0-.105.028-.126.084l-2.023 4.928c-.028.07.007.126.091.126Zm1.925-1.946.553-1.582.567 1.582h-1.12Z"/>
</g></svg>