<svg xmlns="http://www.w3.org/2000/svg" data-laicon-version="15.0" viewBox="0 0 20 20" fill="black"><g transform="translate(-2 -2)">
  <path d="M12.0344 4.293c-2.1342-2.1343-5.5945-2.1343-7.7287 0-2.1342 2.1342-2.1342 5.5944 0 7.7286l2.3618 2.3618a5.601 5.601 0 0 0 .2401.2263 6.703 6.703 0 0 1-.0072-2.2561l-1.4633-1.4633c-1.5094-1.5094-1.5094-3.9566 0-5.466 1.5094-1.5093 3.9566-1.5093 5.4659 0l2.3617 2.3618c1.5094 1.5093 1.5094 3.9565 0 5.4659a3.8478 3.8478 0 0 1-2.3007 1.1079c.1286.3596.3369.6971.6249.9851l.433.433c.8694-.2455 1.69-.7104 2.3742-1.3946 2.1342-2.1342 2.1342-5.5945 0-7.7287L12.0344 4.293Z"/>
  <path d="M11.9832 8.2016c-.8694.2455-1.69.7104-2.3742 1.3947-2.1342 2.1342-2.1342 5.5944 0 7.7286l2.3617 2.3618c2.1342 2.1342 5.5944 2.1342 7.7287 0 2.1342-2.1342 2.1342-5.5945 0-7.7287l-2.3618-2.3618a5.5163 5.5163 0 0 0-.2401-.2262 6.7014 6.7014 0 0 1 .0072 2.2561l1.4633 1.4633c1.5094 1.5093 1.5094 3.9565 0 5.4659-1.5094 1.5094-3.9566 1.5094-5.4659 0l-2.3618-2.3617c-1.5093-1.5094-1.5093-3.9566 0-5.466a3.8492 3.8492 0 0 1 2.3008-1.108 2.6544 2.6544 0 0 0-.6249-.985l-.433-.433Z"/>
</g></svg>