<svg xmlns="http://www.w3.org/2000/svg" data-laicon-version="15.0" viewBox="0 0 20 20" fill="black"><g transform="translate(-2 -2)">
  <path d="M6.0306 5.0836c-.6116 0-1.1073.4957-1.1073 1.1073 0 .6115.4957 1.1072 1.1073 1.1072.6115 0 1.1073-.4957 1.1073-1.1072 0-.6116-.4958-1.1073-1.1073-1.1073Zm0 5.8078c-.6116 0-1.1073.4956-1.1073 1.1072 0 .6115.4957 1.1073 1.1073 1.1073.6115 0 1.1073-.4958 1.1073-1.1073 0-.6116-.4958-1.1072-1.1073-1.1072Zm0 5.8104c-.6116 0-1.1073.4957-1.1073 1.1073 0 .6115.4957 1.1073 1.1073 1.1073.6115 0 1.1073-.4958 1.1073-1.1073 0-.6116-.4958-1.1073-1.1073-1.1073ZM19.0771 18.6091H9.0435v-1.6H19.077v1.6Zm0-5.8105H9.0435v-1.6H19.077v1.6Zm0-5.7835H9.0435v-1.6H19.077v1.6Z"/>
</g></svg>