<svg xmlns="http://www.w3.org/2000/svg" data-laicon-version="15.0" viewBox="0 0 20 20" fill="black"><g transform="translate(-2 -2)">
  <path d="M15.9139 8.942v-1h-4.981v1h4.981Zm0 7.116v-1h-4.981v1h4.981Zm0-3.558v-1h-4.981v1h4.981Zm-7.935-4.058c0 .452.367.819.819.819.452 0 .818-.367.818-.819 0-.452-.366-.818-.818-.818-.452 0-.819.366-.819.818Zm.819 7.934c.452 0 .818-.366.818-.818 0-.452-.366-.819-.818-.819-.452 0-.819.367-.819.819 0 .452.367.818.819.818ZM7.979 12c0 .452.367.818.819.818.452 0 .818-.366.818-.818 0-.452-.366-.818-.818-.818-.452 0-.819.366-.819.818Zm8.95-8.551c1.898.233 3.388 1.723 3.624 3.622.198 1.608.299 3.266.299 4.929 0 1.663-.101 3.321-.299 4.929a4.1608 4.1608 0 0 1-3.624 3.622c-1.595.199-3.253.299-4.929.299-1.676 0-3.334-.1-4.929-.299-1.898-.233-3.388-1.723-3.624-3.622-.198-1.608-.299-3.266-.299-4.929 0-1.663.101-3.321.299-4.929a4.1608 4.1608 0 0 1 3.624-3.622c3.19-.397 6.668-.397 9.858 0Z"/>
</g></svg>