<svg xmlns="http://www.w3.org/2000/svg" data-laicon-version="15.0" viewBox="0 0 20 20" fill="black"><g transform="translate(-2 -2)">
  <path d="M7.5571 7.0473c0-2.4286 1.9689-4.3973 4.3974-4.3973 2.4286 0 4.3974 1.9687 4.3974 4.3973v1.9644h-1.3V7.0473c0-1.7106-1.3868-3.0973-3.0974-3.0973S8.8571 5.3367 8.8571 7.0473v1.9644h-1.3V7.0473Z"/>
  <path d="M3.8501 10.0117c0-.9113.7387-1.65 1.65-1.65h13c.9113 0 1.65.7387 1.65 1.65v9.7177c0 .9113-.7387 1.65-1.65 1.65h-13c-.9113 0-1.65-.7387-1.65-1.65v-9.7177Zm6.9715 3.8288c0 .4721.2776.8794.6785 1.0675v2.127h1v-2.127a1.1787 1.1787 0 0 0 .6785-1.0675c0-.6509-.5276-1.1785-1.1785-1.1785-.6509 0-1.1785.5276-1.1785 1.1785Z"/>
</g></svg>