<svg xmlns="http://www.w3.org/2000/svg" data-laicon-version="15.0" viewBox="0 0 20 20" fill="black"><g transform="translate(-2 -2)">
  <path d="M12.0012 8.4893c1.039 0 1.882.843 1.882 1.882s-.843 1.882-1.882 1.882-1.882-.843-1.882-1.882.843-1.882 1.882-1.882Zm6.129-3.241c-1.529-1.82-3.762-2.863-6.126-2.863-.002-.001-.003-.001-.008 0-2.362 0-4.596 1.042-6.126 2.862-2.691 3.203-2.406 8.117.651 11.187 1.817 1.824 3.94 4.063 4.768 4.941.187.197.446.309.713.309.268 0 .527-.112.715-.31.634-.674 2.852-3.024 4.763-4.941 3.056-3.068 3.341-7.982.65-11.185Z"/>
</g></svg>