<svg xmlns="http://www.w3.org/2000/svg" data-laicon-version="15.3" viewBox="0 0 20 20" fill="black"><g transform="translate(-2 -2)">
  <path d="M2.85 6.5c0-.911.739-1.65 1.65-1.65h15c.911 0 1.65.739 1.65 1.65v11a1.65 1.65 0 0 1-1.65 1.65h-15a1.65 1.65 0 0 1-1.65-1.65v-11ZM15.46 9a.3.3 0 0 0-.3.3v3H14a.2.2 0 0 0-.15.33l2.16 2.495a.2.2 0 0 0 .302 0l2.16-2.494a.2.2 0 0 0-.15-.331H17.16v-3a.3.3 0 0 0-.3-.3h-1.4Zm-9.432 6h1.176c.08 0 .128-.048.128-.128v-3.28l1.352 2.2c.032.064.08.088.144.088h.744a.146.146 0 0 0 .144-.088l1.352-2.256v3.336c0 .08.048.128.128.128h1.176c.08 0 .128-.048.128-.128V9.256c0-.08-.048-.128-.128-.128H11.1a.16.16 0 0 0-.144.088l-1.72 2.944-1.768-2.944a.146.146 0 0 0-.144-.088H6.028c-.08 0-.128.048-.128.128v5.616c0 .08.048.128.128.128Z"/>
</g></svg>