<svg xmlns="http://www.w3.org/2000/svg" data-laicon-version="15.0" viewBox="0 0 20 20" fill="black"><g transform="translate(-2 -2)">
  <path d="M19.9275 2.8418c-.211-.111-.467-.101-.667.032l-6.08 4.044h-8.321c-.623 0-1.13.507-1.13 1.13v7.904c0 .623.507 1.13 1.13 1.13h2.005l.377 3.572a.651.651 0 0 0 .647.582h3.026c.184 0 .36-.079.484-.216.123-.137.182-.32.163-.503l-.363-3.435h1.982l6.08 4.044c.108.072.234.11.36.11.105 0 .211-.027.307-.078a.651.651 0 0 0 .343-.573v-17.17a.651.651 0 0 0-.343-.573Z"/>
</g></svg>