<svg xmlns="http://www.w3.org/2000/svg" data-laicon-version="15.0" viewBox="0 0 20 20" fill="black"><g transform="translate(-2 -2)">
  <path d="M9.2 7.16c.24-.11.44-.2.58-.26l.073-.034c.034-.016.063-.03.087-.036l.04-.02h.0201c.56-.25 1.2-.17 1.68.21.16.13.3.28.4.46.06-.025.117-.053.175-.08.057-.028.115-.055.175-.08.47-.22.9-.42 1.22-.56.096-.042.178-.08.247-.113l.123-.057.09-.04c.19-.1.41-.14.62-.16.16-.38.28-.66.32-.75a.6608.6608 0 0 0-.2835-.812.6602.6602 0 0 0-.2965-.088h-.12l1-1.61c.14-.23.13-.53-.04-.74a.647.647 0 0 0-.71-.22c-1.35.43-5.8 1.92-6.64 2.76-.65.65-1.01 1.52-1.01 2.44 0 .29.05.56.11.83A44.4728 44.4728 0 0 1 9.2 7.17v-.01Zm11.6601.5c-.92.3-3.27 1.08-4.95 1.81l-.41.7a1.646 1.646 0 0 1 .82 2.16v.02l-.03.05c-.02.04-.05.1-.08.18-.07.15-.17.37-.29.64l-.152.324a61.7508 61.7508 0 0 1-.9 1.857c-.05.097-.101.198-.148.299.57.39 1.24.6 1.94.6.92 0 1.79-.36 2.44-1.01.855-.855 2.067-3.797 2.218-4.164l.002-.006a.6612.6612 0 0 0-.58-.9h-.12l1-1.61a.6482.6482 0 0 0-.36-.9637.648.648 0 0 0-.39.0037l-.01.01Zm-13.28 6.62c-.55 0-1 .45-1 1s.45 1 1 1 1-.45 1-1-.45-1-1-1Z"/>
  <path d="M15.3202 8.44c.17-.28.1-.64-.16-.85a.635.635 0 0 0-.72-.05h-.01l-.1.06-.082.042a9.0893 9.0893 0 0 1-.278.138c-.299.16-.717.369-1.176.598l-.004.002c-.54.27-1.12.55-1.65.8l.08-.69a.6435.6435 0 0 0-.26-.6.658.658 0 0 0-.65-.07l-.22.1-.57.26c-.48.22-1.14.53-1.83.88-.7.35-1.45.75-2.11 1.14-.65.39-1.26.8-1.66 1.2A5.3415 5.3415 0 0 0 2.76 17.2261 5.3415 5.3415 0 0 0 3.9202 18.96a5.3402 5.3402 0 0 0 3.78 1.5677 5.341 5.341 0 0 0 3.78-1.5677c.4-.4.83-1.05 1.24-1.74.42-.71.85-1.52 1.23-2.28.38-.76.72-1.48.96-2.01a27.403 27.403 0 0 1 .248-.54l.042-.09.11-.24a.6555.6555 0 0 0-.1096-.6907.6554.6554 0 0 0-.6704-.1993l-.89.26c.23-.44.48-.9.73-1.34l.265-.461a43.362 43.362 0 0 1 .495-.85l.12-.2.08-.12-.01-.02v.001Zm-10.04 6.84a2.3006 2.3006 0 0 1 .6737-1.6264 2.3013 2.3013 0 0 1 1.6263-.6736 2.2998 2.2998 0 0 1 2.125 1.4198 2.3004 2.3004 0 0 1-.4986 2.5065 2.2997 2.2997 0 0 1-3.2527 0 2.2998 2.2998 0 0 1-.6737-1.6263Z"/>
</g></svg>