<svg xmlns="http://www.w3.org/2000/svg" data-laicon-version="15.0" viewBox="0 0 20 20" fill="black"><g transform="translate(-2 -2)">
  <path d="M20.4601 3.54c.2.2.25.51.11.77l-2.39 4.44.81-.27a.648.648 0 0 1 .82.83l-.03.08c-.02.05-.05.13-.08.24-.07.2-.18.49-.31.85-.26.71-.63 1.68-1.06 2.7-.43 1.03-.92 2.12-1.42 3.07-.49.94-1.03 1.81-1.56 2.33a7.0307 7.0307 0 0 1-7.6679 1.5265A7.0302 7.0302 0 0 1 5.4001 18.58a7.0304 7.0304 0 0 1-2.0627-4.975A7.0308 7.0308 0 0 1 5.4001 8.63c.53-.53 1.39-1.06 2.31-1.54.94-.5 2.01-.98 3.01-1.4 1-.42 1.95-.78 2.64-1.04.35-.13.83-.3.83-.3l.31-.11c.23-.08.48-.02.66.14.18.16.25.41.18.65l-.22.77 4.57-2.38c.25-.13.56-.08.76.12h.01ZM8.3401 13.8c0-1.02.83-1.85 1.85-1.85s1.85.83 1.85 1.85-.83 1.85-1.85 1.85-1.85-.83-1.85-1.85Zm1.85-3.15a3.15 3.15 0 1 0-.001 6.3 3.1503 3.1503 0 0 0 3.15-3.15 3.15 3.15 0 0 0-3.15-3.15h.001Z"/>
</g></svg>