<svg xmlns="http://www.w3.org/2000/svg" data-laicon-version="15.0" viewBox="0 0 20 20" fill="black"><g transform="translate(-2 -2)">
  <path d="M6.3898 11.5062c0 3.0985 2.5118 5.6103 5.6103 5.6103 3.0985 0 5.6103-2.5118 5.6103-5.6103h1.3c0 3.8165-3.0938 6.9103-6.9103 6.9103-3.8164 0-6.9103-3.0938-6.9103-6.9103h1.3Z"/>
  <path d="M12.6501 17.7665v3.569h-1.3v-3.569h1.3Z"/>
  <path d="M14.6263 21.9855H9.3735v-1.3h5.2528v1.3ZM11.9999 2.027c-2.235 0-4.0468 1.8117-4.0468 4.0467v5.2989c0 2.235 1.8119 4.0468 4.0468 4.0468 2.235 0 4.0468-1.8118 4.0468-4.0468V6.0737c0-2.235-1.8118-4.0468-4.0468-4.0468Z"/>
</g></svg>