<svg xmlns="http://www.w3.org/2000/svg" data-laicon-version="15.3" viewBox="0 0 20 20" fill="black"><g transform="translate(-2 -2)">
  <path d="m16.786 16.81 3.64 3.747 1.148-1.114L4.692 2.063 3.545 3.18 8.3 8.075v2.575a3.7 3.7 0 0 0 5.592 3.18l1.77 1.823A6.2 6.2 0 0 1 5.8 10.65V9.5H4.2v1.15a7.801 7.801 0 0 0 7 7.76V21a.8.8 0 0 0 1.6 0v-2.59a7.762 7.762 0 0 0 3.986-1.6Zm-1.14-5.528c.036-.206.054-.417.054-.632v-4.6a3.7 3.7 0 0 0-6.915-1.832l6.861 7.064Zm4.154-.632c0 1.403-.37 2.72-1.02 3.858L17.608 13.3c.38-.804.593-1.702.593-2.65V9.5h1.6v1.15Z"/>
</g></svg>