<svg xmlns="http://www.w3.org/2000/svg" data-laicon-version="15.0" viewBox="0 0 20 20" fill="black"><g transform="translate(-2 -2)">
  <path d="M13.3601 6.25h-2.72v-1.1h2.72v1.1Z"/>
  <path d="M16.2252 4.4844c-.1015-.1208-.2276-.1858-.3877-.1858h-7.672c-.0698 0-.2116.0442-.3577.2056-.143.158-.2156.35-.2156.5038v14.1518c0 .044.038.1831.2052.3408.1694.1597.326.2008.368.2008h7.6721c.053 0 .2078-.0433.37-.1978.1608-.1532.2005-.2928.2005-.3438V5.008c0-.199-.0721-.3918-.1828-.5236Zm-.3877-1.7858c1.4067 0 2.1705 1.2477 2.1705 2.3094v14.1518c0 .6213-.33 1.1525-.6966 1.502-.3653.3482-.8957.6396-1.4739.6396h-7.672c-.572 0-1.102-.2936-1.4657-.6366-.3659-.345-.7076-.8767-.7076-1.505V5.008c0-.6087.2619-1.1714.6294-1.5775.3645-.4027.9094-.7319 1.5439-.7319h7.672Z"/>
</g></svg>