<svg xmlns="http://www.w3.org/2000/svg" data-laicon-version="15.0" viewBox="0 0 20 20" fill="black"><g transform="translate(-2 -2)">
  <path d="M8.3811 10.0737H4.2825a.381.381 0 0 0-.1045.1363.1665.1665 0 0 0-.0096.0275v8.1386a.452.452 0 0 0 .0684.0895.4977.4977 0 0 0 .0508.0459.4086.4086 0 0 0 .0118.0089h4.0354a.5002.5002 0 0 0 .0807-.0659.4724.4724 0 0 0 .0697-.0861v-8.1368c-.0002-.0005-.0014-.0134-.011-.0369a.3097.3097 0 0 0-.052-.0837.2174.2174 0 0 0-.041-.0373Zm1.2454-1.016c.2656.3037.4586.724.4586 1.1724v8.1946c0 .5077-.3006.9246-.5409 1.1638-.2351.2341-.648.5319-1.1386.5319H4.2164c-.4962 0-.904-.3091-1.13-.5429-.2357-.2439-.518-.6575-.518-1.1528v-8.1946c0-.4723.2223-.8924.4753-1.1778.2433-.2745.6555-.5785 1.1727-.5785h4.1892c.53 0 .954.2786 1.221.584Zm2.3999 9.483v-3.622h1.6v3.622h-1.6Z"/>
  <path d="M16.4247 19.0152h-5.3046v-1.6h5.3046v1.6ZM5.8212 5.5959V7.46h-1.6V5.5857c0-.4848.2307-.909.5296-1.1985.3028-.2933.7347-.5076 1.2262-.5076h13.7945c.525 0 .9389.2979 1.1854.5702.246.2718.4746.6812.4746 1.136v8.985c0 .5366-.2796.9707-.571 1.2452-.2833.2668-.7051.503-1.1699.503H11.12v-1.6h8.5436a.365.365 0 0 0 .0999-.0678.3075.3075 0 0 0 .0634-.0805.0875.0875 0 0 0 .0046-.0102V5.6151a.3562.3562 0 0 0-.061-.0917.311.311 0 0 0-.0479-.0438H5.977c-.0196 0-.0655.011-.113.0568a.194.194 0 0 0-.0406.0543.0806.0806 0 0 0-.0022.0052Zm13.8327 9.1266.0013-.0004-.0013.0004Z"/>
</g></svg>