<svg xmlns="http://www.w3.org/2000/svg" data-laicon-version="15.0" viewBox="0 0 20 20" fill="black"><g transform="translate(-2 -2)">
  <path d="M18.298 3.4365c-.286-.22-.651-.293-.996-.199l-8.68 2.314c-.502.135-.853.592-.853 1.112v8.961c-.397-.236-.855-.381-1.35-.381-1.461 0-2.65 1.188-2.65 2.65 0 1.461 1.189 2.649 2.65 2.649 1.461 0 2.65-1.188 2.65-2.649v-8.562l8.378-2.234v5.946c-.396-.236-.854-.381-1.349-.381-1.461 0-2.651 1.188-2.651 2.649 0 1.462 1.19 2.65 2.651 2.65 1.461 0 2.65-1.188 2.65-2.649V4.3485c0-.36-.164-.693-.45-.912Z"/>
</g></svg>