<svg xmlns="http://www.w3.org/2000/svg" data-laicon-version="15.3" viewBox="0 0 20 20" fill="black"><g transform="translate(-2 -2)">
  <path d="M7.13 3.15h9.74a3.985 3.985 0 0 1 3.98 3.98v9.74a3.985 3.985 0 0 1-3.98 3.98H7.129a3.984 3.984 0 0 1-3.98-3.98V7.13A3.985 3.985 0 0 1 7.13 3.15Zm2.085 5.475a.267.267 0 0 0-.075.192v6.372a.27.27 0 0 0 .075.192.267.267 0 0 0 .192.075h.936a.267.267 0 0 0 .192-.075.267.267 0 0 0 .075-.192v-4.028l2.685 4.146.001.001a.311.311 0 0 0 .269.148h1.026a.267.267 0 0 0 .192-.075.267.267 0 0 0 .075-.192V8.817a.267.267 0 0 0-.075-.192.267.267 0 0 0-.192-.075h-.936a.267.267 0 0 0-.192.075.267.267 0 0 0-.075.192v4.019L10.712 8.7l-.001-.002a.312.312 0 0 0-.269-.148H9.407a.267.267 0 0 0-.192.075Z"/>
</g></svg>