<svg xmlns="http://www.w3.org/2000/svg" data-laicon-version="15.0" viewBox="0 0 20 20" fill="black"><g transform="translate(-2 -2)">
  <path d="M9.9179 7.5h-3.712v3.667h3.712V7.5Zm-2.712 2.667V8.5h1.712v1.667h-1.712Zm3.894-1.667h4v-1h-4v1Zm0 2.667h4v-1h-4v1Zm-4.9 2.666h8.9v-1h-8.9v1Zm0 2.667h8.9v-1h-8.9v1Zm12.673 2.319v1.3H5.2999c-1.187 0-2.15-.963-2.15-2.15V5.031c0-.634.516-1.15 1.15-1.15h12.746c.634 0 1.15.516 1.15 1.15v13.111a.6778.6778 0 0 0 .1983.4787.6758.6758 0 0 0 .4787.1983Z"/>
  <path d="M19.55 8.507h-2.004v-1.3H19.7c.634 0 1.15.516 1.15 1.15v9.785c0 1.092-.885 1.977-1.977 1.977s-1.977-.885-1.977-1.977h1.3c0 .374.303.677.677.677.374 0 .677-.303.677-.677V8.507Z"/>
</g></svg>