<svg xmlns="http://www.w3.org/2000/svg" data-laicon-version="16.12" viewBox="0 0 20 20" fill="black"><g transform="translate(-2 -2)">
  <path d="M14.2 15.45c.11.11.17.25.17.41v.75a.6.6 0 0 1-.16.41.56.56 0 0 1-.42.18H7.76a.59.59 0 0 1-.42-.17.59.59 0 0 1-.17-.42v-.23c0-.16.05-.3.16-.44l2.34-2.59c1.01-1.11 1.61-1.85 1.94-2.41.32-.53.38-.89.38-1.29 0-.34-.12-.61-.34-.8-.47-.39-1.46-.42-2.03 0-.28.2-.49.51-.63.91a.573.573 0 0 1-.73.37l-.75-.2a.56.56 0 0 1-.37-.26c-.08-.13-.1-.3-.06-.47.26-.82.72-1.49 1.33-1.94.62-.45 1.39-.69 2.24-.69.95 0 1.78.28 2.38.81.62.54.95 1.31.95 2.18 0 .58-.06 1.23-.54 2.09-.42.77-1.15 1.68-2.35 2.95l-.63.67h3.32c.16 0 .3.06.41.17l.01.01Zm7-3.11c-.19-.25-.43-.46-.7-.63.68-.52 1.08-1.29 1.08-2.16 0-1.69-1.51-2.96-3.5-2.96-1.72 0-3.12 1.03-3.57 2.63-.06.2-.01.35.04.44.05.1.15.22.37.29l.75.2c.16.05.32.03.46-.04.13-.07.23-.19.28-.34.24-.77.85-1.21 1.66-1.21.88 0 1.49.48 1.49 1.16 0 .68-.6 1.12-1.42 1.12h-.55c-.16 0-.3.06-.41.17-.11.11-.17.25-.17.41v.68c0 .16.05.3.16.41.11.12.26.18.42.18h.52c.53 0 .96.13 1.25.38.28.23.42.55.42.94 0 .84-.69 1.42-1.68 1.42-.45 0-.83-.12-1.14-.36-.31-.24-.55-.62-.7-1.12a.575.575 0 0 0-.29-.34.64.64 0 0 0-.42-.05l-.73.2c-.16.03-.3.12-.38.25-.08.13-.1.3-.06.45.44 1.8 1.86 2.92 3.71 2.92 2.14 0 3.7-1.38 3.7-3.27 0-.68-.2-1.3-.58-1.79l-.01.02ZM5.87 6.77H5.3c-.18 0-.34.06-.47.18L2.48 8.92c-.11.09-.19.21-.22.34-.03.14 0 .29.07.42l.17.28c.08.14.19.24.33.29.09.03.25.05.46-.05l1.18-.66v7.07c0 .16.06.3.16.41.11.12.26.18.42.18h.82c.16 0 .31-.06.42-.18a.6.6 0 0 0 .16-.41V7.35c0-.16-.06-.3-.17-.41a.566.566 0 0 0-.41-.17Z"/>
</g></svg>