<svg xmlns="http://www.w3.org/2000/svg" data-laicon-version="16.11" viewBox="0 0 20 20" fill="black"><g transform="translate(-2 -2)">
  <path d="M12 3.35a8.65 8.65 0 1 0 0 17.3 2.502 2.502 0 0 0 2.495-2.694l-.078-1.005a2.136 2.136 0 0 1 2.454-2.275l.56.086A2.795 2.795 0 0 0 20.65 12 8.65 8.65 0 0 0 12 3.35ZM9.945 7.195a.9.9 0 1 1 1.608.81.9.9 0 0 1-1.608-.81Zm3.801.234a.9.9 0 1 1 1.608.81.9.9 0 0 1-1.608-.81Zm-5.74 5.619a.9.9 0 1 1-.81 1.607.9.9 0 0 1 .81-1.607Zm-.974-3.402a.9.9 0 1 1 1.608.81.9.9 0 0 1-1.608-.81Z"/>
</g></svg>