<svg xmlns="http://www.w3.org/2000/svg" data-laicon-version="15.0" viewBox="0 0 20 20" fill="black"><g transform="translate(-2 -2)">
  <path d="M5.2769 3.649a1.874 1.874 0 0 1 2.729.083l2.556 2.889c.381.43.362 1.082-.045 1.489l-1.705 1.705c.002.017.006.04.012.067.029.125.099.324.245.598.291.548.873 1.37 1.977 2.474 1.103 1.103 1.926 1.685 2.474 1.977.274.146.473.216.598.244a.7617.7617 0 0 0 .067.013l1.705-1.705a1.0872 1.0872 0 0 1 1.49-.046l2.888 2.557c.808.716.846 1.965.083 2.728l-1.5 1.5c-.305.305-.816.531-1.464.627-.655.097-1.475.065-2.428-.171-1.906-.473-4.354-1.768-7.111-4.526-2.758-2.758-4.053-5.205-4.526-7.112-.236-.952-.268-1.772-.171-2.427.096-.648.322-1.16.626-1.464l1.5-1.5Zm8.813.769a.8428.8428 0 1 0 1.685-.002.843.843 0 0 0-1.685.002Zm2.478 0a.842.842 0 0 0 .2476.5958.8435.8435 0 0 0 .9189.1816.8435.8435 0 0 0 .5195-.7794.8432.8432 0 0 0-1.686.002Zm2.479 0a.842.842 0 1 0 1.684 0 .842.842 0 0 0-1.684 0Zm0 2.478a.8424.8424 0 1 0 1.685 0 .845.845 0 0 0-.508-.8251.8437.8437 0 0 0-1.1279.487.8422.8422 0 0 0-.0491.3381Zm-2.281-.199a.8415.8415 0 0 0 .2464.5959.8425.8425 0 0 0 1.4386-.5949.8425.8425 0 0 0-1.685 0v-.001Z"/>
  <path d="M13.5938 9.87a.8444.8444 0 0 0 .2376.615.8428.8428 0 0 0 .6074.2565.8447.8447 0 0 0 .6065-.2586.8445.8445 0 0 0 .2355-.6159.8439.8439 0 1 0-1.688.003h.001Zm1.581-1.58a.842.842 0 1 0 1.684 0 .842.842 0 0 0-1.684 0Zm3.872 1.084a.842.842 0 1 0 1.684 0 .842.842 0 0 0-1.684 0Z"/>
</g></svg>