<svg xmlns="http://www.w3.org/2000/svg" data-laicon-version="15.0" viewBox="0 0 20 20" fill="black"><g transform="translate(-2 -2)">
  <path d="M8.0059 3.732a1.8739 1.8739 0 0 0-2.728-.083l-1.5 1.5c-.305.305-.53.816-.627 1.464-.097.655-.065 1.475.171 2.428.473 1.906 1.768 4.354 4.526 7.111 2.758 2.758 5.206 4.053 7.112 4.526.952.236 1.773.268 2.427.17.648-.095 1.16-.32 1.464-.625l1.5-1.5a1.8744 1.8744 0 0 0 .5483-1.3825 1.8736 1.8736 0 0 0-.6313-1.3465l-2.888-2.556a1.087 1.087 0 0 0-1.49.045l-1.705 1.705a.8001.8001 0 0 1-.067-.013 2.5348 2.5348 0 0 1-.598-.244c-.547-.291-1.37-.873-2.474-1.977-1.103-1.103-1.685-1.926-1.977-2.474a2.533 2.533 0 0 1-.244-.598.764.764 0 0 1-.012-.067l1.705-1.705a1.0875 1.0875 0 0 0 .045-1.49l-2.557-2.887v-.001Z"/>
</g></svg>