<svg xmlns="http://www.w3.org/2000/svg" data-laicon-version="15.0" viewBox="0 0 20 20" fill="black"><g transform="translate(-2 -2)">
  <path d="M16.2202 14.05c-.44-.38-1.1-.35-1.51.05l-1.58 1.58c-.36-.06-1.56-.63-3.18-2.25-1.7-1.7-2.17-2.85-2.24-3.18l1.57-1.57c.41-.41.44-1.07.06-1.51l-1.82-2.11c-.33-.37-.83-.59-1.36-.6h-.06c-.49 0-.94.19-1.27.52l-1.2 1.2c-.42.42-.66 1.17-.66 2.12 0 1.36.57 4.19 4.26 7.88 3.71 3.71 6.54 4.26 7.91 4.26.91 0 1.67-.24 2.09-.66l1.2-1.2c.34-.34.53-.78.54-1.26v-.1001c-.01-.51-.24-.9899-.63-1.3399l-2.1-1.82-.02-.01Z"/>
  <path d="M20.8203 3.04c-.22-.17-.51-.23-.78-.15l-4.29 1.14c-.39.1-.67.46-.67.87v3.86c-.15-.04-.3-.07-.47-.07-.97 0-1.77.79-1.77 1.77s.79 1.77 1.77 1.77 1.77-.79 1.77-1.77V7.09l3.49-.93v1.33c-.15-.04-.3-.07-.47-.07-.97 0-1.77.79-1.77 1.77s.79 1.77 1.77 1.77 1.77-.79 1.77-1.77V3.77c0-.28-.13-.54-.35-.71v-.02Zm-6.2 7.88c-.26 0-.47-.21-.47-.47s.21-.47.47-.47.47.21.47.47-.21.47-.47.47Zm1.77-5.18v-.53l3.49-.93v.53l-3.49.93Zm3.02 3.91c-.26 0-.47-.21-.47-.47s.21-.47.47-.47.47.21.47.47-.21.47-.47.47Z"/>
</g></svg>