<svg xmlns="http://www.w3.org/2000/svg" data-laicon-version="15.0" viewBox="0 0 20 20" fill="black"><g transform="translate(-2 -2)">
  <path d="M5.278 3.649a1.874 1.874 0 0 1 2.728.083l2.5571 2.889c.38.43.36 1.082-.045 1.489l-1.705 1.705c.002.017.006.04.012.067.028.125.098.324.244.598.292.547.874 1.37 1.977 2.474 1.103 1.103 1.927 1.685 2.474 1.977.274.146.473.216.598.244a.7577.7577 0 0 0 .067.012l1.705-1.704a1.0872 1.0872 0 0 1 1.49-.046l2.888 2.557c.809.715.847 1.965.083 2.728l-1.5 1.5c-.304.305-.816.53-1.463.627-.655.097-1.476.065-2.428-.171-1.906-.473-4.354-1.768-7.112-4.526S3.795 10.946 3.322 9.04c-.236-.952-.268-1.772-.17-2.427.095-.648.321-1.16.626-1.464l1.5-1.5Zm7.5661 1.569a1.1498 1.1498 0 0 1 1.9631-.8132 1.15 1.15 0 1 1-1.9631.8132Zm4.832 0a1.1498 1.1498 0 0 1 1.9631-.8132 1.15 1.15 0 1 1-1.9631.8132Z"/>
</g></svg>