<svg xmlns="http://www.w3.org/2000/svg" data-laicon-version="15.0" viewBox="0 0 20 20" fill="black"><g transform="translate(-2 -2)">
  <path d="M21.4533 8.9724h-3.6979v-1.3h3.6979v1.3Zm-.0001 3.7375H17.77v-1.3h3.6832v1.3ZM9.502 7.5735V5.0253h1.3v2.5482h-1.3Z"/>
  <path d="M8.0285 5.2027V7.532h-1.3v-2.63c0-.6694.6128-.9992 1.0782-.9992h12.6746c.4654 0 1.0782.3298 1.0782.9992v10.3364c0 .6695-.6129.9992-1.0782.9992h-2.7515V5.2027H8.0285Zm11.0013 0v9.7348h1.2297V5.2027h-1.2297Z"/>
  <path d="M3.4876 8.8268c-.492 0-1.0374.3678-1.0374.9909v6.8888l4.4277-4.4278 7.8185 7.8186h.7243c.4921 0 1.0375-.3678 1.0375-.9909V9.8176c0-.623-.5454-.9908-1.0375-.9908H3.4877Zm8.0126 3.4886a.8154.8154 0 1 1 1.6307 0 .8154.8154 0 0 1-1.6307 0Z"/>
  <path d="M12.8578 20.0973 6.8771 14.117l-4.4269 4.4279v.5615c0 .623.5452.9909 1.0374.9909h9.3702Z"/>
</g></svg>