<svg xmlns="http://www.w3.org/2000/svg" data-laicon-version="15.0" viewBox="0 0 20 20" fill="black"><g transform="translate(-2 -2)">
  <path d="m7.937 16.77.007.006-2.612 2.611-.001.003c-.488.491-.154 1.35.561 1.35H11.5v-7.533L7.937 16.77Zm4.563 3.642.009-.012a.842.842 0 0 0 .13-.106l3.474-3.474-3.613-3.613v7.205Zm4.32-4.299.005-.006 2.56 2.56c.5.5 1.355.146 1.355-.56V12.5h-7.533l3.613 3.613Zm3.608-4.613a.8435.8435 0 0 0-.08-.093l-3.524-3.524-3.617 3.617h7.221Zm-1.634-7a.7885.7885 0 0 0 .0024-.7899.7893.7893 0 0 0-.6834-.396H12.5v7.4789l6.294-6.294V4.5ZM11.5 3.64a.7751.7751 0 0 0-.038.057L7.933 7.226l3.567 3.567V3.639v.001ZM4.493 5.2a.793.793 0 0 0-1.18.692V11.5h7.48l-6.3-6.3Zm-.852 7.3a.7855.7855 0 0 0 .078.05c.01.012.021.023.033.034l3.478 3.479 3.563-3.563H3.64h.001Z"/>
</g></svg>