<svg xmlns="http://www.w3.org/2000/svg" data-laicon-version="15.0" viewBox="0 0 20 20" fill="black"><g transform="translate(-2 -2)">
  <path d="m21.1302 16.8887-.8979-1.556c-.189.107-.3811.207-.5741.307-.194.099-.389.193-.586.284-2.234 1.037-4.6489 1.564-7.0659 1.564-2.42 0-4.838-.527-7.078-1.565-.196-.092-.392-.185-.586-.285-.192-.099-.384-.199-.574-.306l-.891 1.544c-.229.397-.285.877-.154 1.316.13.432.421.782.821.983 2.655 1.333 5.564 2 8.469 2 2.907 0 5.81-.667 8.452-2.002.4-.202.6909-.551.8199-.981.129-.434.073-.908-.155-1.303Z"/>
  <path d="M14.542 13.2695c-.552 0-1-.448-1-1.001 0-.552.448-1 1-1 .553 0 1 .448 1 1 0 .553-.447 1.001-1 1.001Zm-3.636-3.088c-.552 0-1-.447-1-1 0-.552.448-1 1-1 .553 0 1 .448 1 1 0 .553-.447 1-1 1Zm-5.475 4.871c4.166 1.903 8.983 1.906 13.141.005.197-.09.391-.188.585-.286.161-.082.324-.159.483-.247v-.101h.068l-6.273-10.865c-.3-.518-.835-.826-1.433-.826-.6 0-1.138.31-1.439.831l-6.294 10.902c.19.107.381.208.574.306.194.1.391.191.588.281Z"/>
</g></svg>