<svg xmlns="http://www.w3.org/2000/svg" data-laicon-version="15.0" viewBox="0 0 20 20" fill="black"><g transform="translate(-2 -2)">
  <path d="M15.5574 12.5h-3.058v3.058h-1V12.5h-3.057v-1h3.057V8.442h1V11.5h3.058v1Zm4.995-5.429a4.1578 4.1578 0 0 0-3.624-3.622c-3.189-.397-6.668-.397-9.857 0a4.1588 4.1588 0 0 0-3.624 3.622c-.199 1.608-.299 3.266-.299 4.929 0 1.663.1 3.321.299 4.929a4.1578 4.1578 0 0 0 3.624 3.622c1.594.199 3.253.299 4.928.299 1.676 0 3.334-.1 4.929-.299a4.1588 4.1588 0 0 0 3.624-3.622c.198-1.608.299-3.266.299-4.929 0-1.663-.101-3.321-.299-4.929Z"/>
</g></svg>