<svg xmlns="http://www.w3.org/2000/svg" data-laicon-version="15.0" viewBox="0 0 20 20" fill="black"><g transform="translate(-2 -2)">
  <path d="M17.5295 14.7344c.532 0 .98-.1003 1.344-.301.3687-.2007.6464-.4737.833-.819.1914-.3453.287-.7327.287-1.162v-.602c0-.0747-.0373-.112-.112-.112h-2.191c-.0746 0-.112.0373-.112.112v.749c0 .0747.0374.112.112.112h.987c-.0373.252-.1563.4433-.357.574-.2006.1307-.4503.196-.749.196-.3826 0-.693-.1237-.931-.371-.238-.2473-.357-.5927-.357-1.036s.1167-.7887.35-1.036c.2334-.252.546-.378.938-.378.2054 0 .3944.0443.567.133a1.04 1.04 0 0 1 .413.378c.0327.056.0794.077.14.063l1.071-.294c.0794-.014.1027-.0607.07-.14-.1726-.448-.4573-.7933-.854-1.036-.392-.2427-.868-.364-1.428-.364-.3733 0-.721.0653-1.043.196-.3173.126-.595.308-.833.546-.2333.2333-.4153.5133-.546.84-.1306.3267-.196.6883-.196 1.085 0 .532.1074.9987.322 1.4.2194.3967.5227.707.91.931.392.224.847.336 1.365.336Zm-12.5297-.21c0 .0747.0373.112.112.112h1.064c.0746 0 .112-.0373.112-.112v-1.26h.539c.7093 0 1.246-.1587 1.61-.476.364-.322.546-.791.546-1.407 0-.6207-.182-1.0897-.546-1.407-.364-.3174-.9007-.476-1.61-.476h-1.715c-.0747 0-.112.0373-.112.112v4.914Zm1.288-3.934h.504c.266 0 .476.0607.63.182.154.1167.231.315.231.595 0 .294-.077.5017-.231.623-.154.1213-.364.182-.63.182h-.504v-1.582Zm3.3998 3.934c0 .0747.0373.112.112.112h1.029c.0747 0 .112-.0373.112-.112v-3.031l1.841 3.066c.028.0513.0723.077.133.077h1.127c.0747 0 .112-.0373.112-.112v-4.914c0-.0747-.0373-.112-.112-.112h-1.029c-.0747 0-.112.0373-.112.112v3.017l-1.834-3.052c-.0373-.0514-.0817-.077-.133-.077h-1.134c-.0747 0-.112.0373-.112.112v4.914ZM2.2617 6.2909c0-1.0477.8493-1.897 1.897-1.897h15.7061c1.0476 0 1.897.8493 1.897 1.897v11.422c0 1.0477-.8494 1.897-1.897 1.897H4.1588c-1.0478 0-1.897-.8493-1.897-1.897V6.2909Z"/>
</g></svg>