<svg xmlns="http://www.w3.org/2000/svg" data-laicon-version="15.0" viewBox="0 0 20 20" fill="black"><g transform="translate(-2 -2)">
  <path d="M3.0794 7.6113h16.957v-2.083c0-.624-.507-1.131-1.131-1.131H2.9484c-.623 0-1.131.507-1.131 1.131v2.083h1.262Zm1.6844 6.5017v-3.26h1v3.26h-1Zm1.964 0v-3.26h.7v3.26h-.7Zm1.665 0v-3.26h1v3.26h-1Zm1.815 0v-3.26h1v3.26h-1Zm1.964 0v-3.26h.7v3.26h-.7Zm3.221 4.243c-.422-.681-.678-1.477-.678-2.336 0-2.325 1.79-4.217 4.06-4.427a3.6627 3.6627 0 0 0 .1428-.0174c.0873-.0118.1744-.0236.2652-.0236.0428 0 .0843.0057.1257.0114h.0001c.0322.0044.0644.0089.0972.0106.213.011.426.025.631.064V8.611H1.8178v9.876c0 .624.507 1.131 1.131 1.131h13.611c-.254-.185-.482-.397-.691-.631-.177-.196-.337-.405-.476-.631Zm4.0129-3.3052h.138c.242 0 .436.169.493.394a.9727.9727 0 0 0 .0081.0305c.0085.0304.0169.0608.0169.0945 0 .0323-.0084.0628-.0169.0934-.0028.0102-.0056.0204-.0081.0306-.057.224-.251.393-.493.394h-.634c-.027 0-.05-.022-.05-.051v-.936c0-.029.023-.05.05-.05h.496Zm.6307 1.7422c-.135.048-.274.086-.425.086h-.206l-.49-.002c-.038 0-.055.017-.055.055v1.007c0 .06-.037.103-.086.13l-.0118.0074c-.0189.0122-.0382.0246-.0622.0246h-.593c-.072 0-.123-.053-.143-.119a.0783.0783 0 0 0-.0081-.0161c-.005-.0083-.0099-.0164-.0099-.0269v-3.518a.16.16 0 0 1 .161-.16h1.522c.145.002.278.042.407.088.509.177.88.649.88 1.221 0 .325-.13.612-.325.841-.149.174-.335.305-.555.382Zm0-4.279c-.204-.05-.415-.076-.631-.09-.0314-.0021-.0621-.0065-.0928-.0108-.0427-.0061-.0854-.0122-.1302-.0122-.0975 0-.1921.0128-.2868.0256a4.8316 4.8316 0 0 1-.1212.0154c-1.801.206-3.209 1.722-3.209 3.578 0 .894.339 1.705.879 2.336.201.237.424.454.679.631.52.363 1.142.579 1.81.625.0347.0025.0687.0073.1027.0122.0482.0069.0964.0138.1463.0138 1.996 0 3.619-1.623 3.619-3.618 0-1.7-1.182-3.12-2.765-3.506Z"/>
</g></svg>