<svg xmlns="http://www.w3.org/2000/svg" data-laicon-version="15.0" viewBox="0 0 20 20" fill="black"><g transform="translate(-2 -2)">
  <path d="M20.8 12.6491c-.7-.7-1.9-.7-2-.7h-1v-3c0-1.4-1.1-2.6-2.6-2.6h-3v-1c0-.1.1-1.3-.6-2-.7-.8-2.2-.8-2.9 0-.6.8-.6 2-.6 2.1v1h-3c-1.4 0-2.6 1.1-2.6 2.6v2.8c0 .4.3.6.6.6H5c1 0 1.3.7 1.3 1.4s-.3 1.4-1.3 1.4H3.3c-.4 0-.6.3-.6.7v3.1c0 1.4 1.1 2.6 2.6 2.6h3c.4 0 .6-.3.6-.7v-1.7c0-.8.5-1.3 1.4-1.3.9 0 1.4.5 1.4 1.3v1.8c0 .4.3.7.6.7h2.9c.7 0 1.3-.3 1.8-.8s.7-1.1.7-1.8v-3h1c.1 0 1.3 0 2-.7.4-.4.6-.8.6-1.4 0-.6-.1-1-.5-1.4Z"/>
</g></svg>