<svg xmlns="http://www.w3.org/2000/svg" data-laicon-version="15.0" viewBox="0 0 20 20" fill="black"><g transform="translate(-2 -2)">
  <path d="M16.3889 7.487V5.423h2.064v2.064h-2.064Zm2.576-3.374h-5.307v1.31h1.421v3.374h1.524v1.638h-2.945v1.636h-1.637v1.511h1.637v1.637h1.307v1.31h-1.307v2.063h-1.637v1.311h1.637v-1.31h2.945v-2.064h1.637v-1.31h1.523v-1.637h-1.523v-1.51h1.523v-1.637h-1.523V8.797h1.523V4.911c0-.44-.357-.798-.798-.798Zm-.725 6.322v1.636h-1.636v-1.636h1.636Zm0 3.147v1.637h-1.636v-1.637h1.636Zm-4.582 0v-1.511h2.945v1.511h-2.945Zm4.7951 5.0108h-1.849v1.311h2.361c.441 0 .798-.358.798-.798v-2.576h-1.31v2.063Zm-12.906.0002V16.53h1.89v2.063h-1.89Zm0-3.374h-1.31v3.886c0 .441.357.798.798.798h4.039v-4.684H5.547Zm8.1106-.0007v1.311h-1.637v2.063h-1.31v-3.374h-1.637v-1.636h2.947v1.636h1.637Zm-1.6372-4.7837h1.637v-5.012h-1.6365V4.113h-1.31v1.31h1.3095v2.0646h-1.31v1.309H9.0739V4.113H5.035c-.441 0-.798.358-.798.798v3.886h4.8365v3.274H7.437v1.511h1.637v-1.5104h2.9465v-1.637Zm0-1.638v1.638h-1.31v-1.638h1.31ZM7.4369 7.487h-1.89V5.423h1.89v2.064Zm-1.89 2.9476h-1.31v3.147h1.31v-1.51h1.89v-1.637h-1.89Z"/>
</g></svg>