<svg xmlns="http://www.w3.org/2000/svg" data-laicon-version="15.0" viewBox="0 0 20 20" fill="black"><g transform="translate(-2 -2)">
  <path d="M3.4502 4.6c0-.64.51-1.15 1.15-1.15h14.8c.64 0 1.15.51 1.15 1.15v14.8c0 .64-.51 1.15-1.15 1.15h-14.8c-.64 0-1.15-.51-1.15-1.15V4.6Zm9.1999 9.18.01.01v-.33c0-.5.21-.65.72-.98l.0048-.0031c.4796-.3098 1.146-.7401 1.3652-1.6969.17-.75.01-1.48-.45-2.06-.52-.66-1.4-1.07-2.29-1.07-1.52 0-2.76 1.24-2.76 2.76h1.3c0-.81.66-1.46 1.46-1.46.49 0 .99.23 1.27.58.22.27.28.59.2.96-.1.42-.36.6-.81.89-.56.35-1.32.84-1.32 2.07v.33h1.3Zm-.64.9799c-.5 0-.9.4-.9.9s.4.9.9.9.9-.4.9-.9-.4-.9-.9-.9Z"/>
</g></svg>