<svg xmlns="http://www.w3.org/2000/svg" data-laicon-version="16.13" viewBox="0 0 20 20" fill="black"><g transform="translate(-2 -2)">
  <path d="M5.06 4.59c0-.635.517-1.15 1.152-1.15h13.752a1.15 1.15 0 0 1 1.151 1.15v14.82a1.15 1.15 0 0 1-1.151 1.15H6.212a1.15 1.15 0 0 1-1.151-1.15v-3.312H2.89v-1.3h2.17V9.312H2.89v-1.3h2.17V4.591Zm7.968 3.11a2.678 2.678 0 0 0-2.678 2.678h1.263l.006-.137a1.415 1.415 0 0 1 1.409-1.278c.911 0 1.618.682 1.43 1.497-.079.346-.241.52-.72.828l-.255.165c-.758.515-1.087.984-1.087 1.89v.325h1.263v-.326l.003-.102c.02-.356.16-.507.66-.827l.26-.17c.624-.425.95-.812 1.107-1.5.39-1.694-1.008-3.043-2.661-3.043Zm.011 6.917a.874.874 0 1 0 0 1.748.874.874 0 0 0 0-1.748Z"/>
</g></svg>