<svg xmlns="http://www.w3.org/2000/svg" data-laicon-version="15.0" viewBox="0 0 20 20" fill="black"><g transform="translate(-2 -2)">
  <path d="M14.699 10.6563c-.214.936-.851 1.343-1.362 1.67-.566.361-.837.562-.837 1.182v.351h-1v-.351c0-1.194.72-1.655 1.298-2.025.449-.287.803-.514.926-1.051.102-.442.019-.834-.245-1.166-.327-.411-.908-.676-1.479-.676-.945 0-1.712.768-1.712 1.712h-1c0-1.496 1.217-2.712 2.712-2.712.877 0 1.744.404 2.262 1.053.45.567.605 1.281.437 2.013Zm-2.687 6.074c-.497 0-.899-.403-.899-.9s.402-.901.899-.901c.498 0 .901.404.901.901s-.403.9-.901.9ZM12 2.7503c-5.101 0-9.25 4.149-9.25 9.25 0 5.1 4.149 9.25 9.25 9.25 5.1 0 9.25-4.15 9.25-9.25 0-5.101-4.15-9.25-9.25-9.25Z"/>
</g></svg>