<svg xmlns="http://www.w3.org/2000/svg" data-laicon-version="15.0" viewBox="0 0 20 20" fill="black"><g transform="translate(-2 -2)">
  <path d="M8.4686 15.8428h.001c.33 0 .604-.272.605-.601 0-.327-.275-.601-.604-.601h-.001c-.328 0-.598.271-.598.6 0 .33.27.602.597.602Zm2.8213-.002a.6.6 0 0 0 .6-.601.599.599 0 0 0-.6-.599c-.332 0-.6.268-.6.599a.6.6 0 0 0 .6.601Zm2.7705 0a.6.6 0 0 0 .6-.601.599.599 0 0 0-.6-.599c-.332 0-.6.268-.6.599a.6.6 0 0 0 .6.601Zm6.3393-11.54h-16.8c-.623 0-1.131.507-1.131 1.131v2.513h19.062v-2.513c0-.624-.507-1.131-1.131-1.131Z"/>
  <path d="M5.8172 15.2129c0-.668.542-1.21 1.21-1.21h.056v.638h-.056c-.316 0-.572.256-.572.572v1.207h-.638v-1.207Zm2.405-1.173c.092-.018.183-.027.273-.027.591 0 1.096.393 1.199 1.043.016.102.022.208.023.311.003.327 0 .654.002.98 0 .048-.011.065-.059.065h-.004c-.083-.001-.166-.002-.249-.002-.086 0-.173.001-.26.002h-.003c-.044 0-.061-.014-.058-.06.003-.05.001-.1.001-.169-.05.034-.084.053-.114.079-.179.153-.387.216-.591.216-.254 0-.503-.098-.682-.241-.265-.21-.419-.484-.461-.819-.083-.663.325-1.246.983-1.378Zm1.83 1.199v-2.199h.638v1.185c.178-.146.377-.222.6-.222.683 0 1.237.554 1.237 1.237 0 .684-.554 1.239-1.237 1.239-.684 0-1.238-.555-1.238-1.239v-.001Zm2.77 0v-2.199h.638v1.185c.178-.146.378-.222.6-.222.684 0 1.238.554 1.238 1.237 0 .684-.554 1.239-1.238 1.239-.683 0-1.238-.555-1.238-1.239l.001-.001h-.001Zm2.812 1.181v-2.341h.638v2.341h-.638Zm1.038-1.779v-1.601h.637v1.04h.628v.561h-.628v.938c0 .165.134.299.299.299h.329v.542h-.543a.7217.7217 0 0 1-.722-.722v-1.057Zm3.597-5.697h-17.8v9.624c0 .624.507 1.131 1.131 1.131h16.8c.623 0 1.13-.507 1.13-1.131v-9.624h-1.261Z"/>
</g></svg>