<svg xmlns="http://www.w3.org/2000/svg" data-laicon-version="17.2" viewBox="0 0 20 20" fill="black"><g transform="translate(-2 -2)">
  <path d="M5 3.85A1.15 1.15 0 0 0 3.85 5v7c0 .635.515 1.15 1.15 1.15h5.25A1.15 1.15 0 0 0 11.4 12V5a1.15 1.15 0 0 0-1.15-1.15H5Zm8.75 0A1.15 1.15 0 0 0 12.6 5v3.75c0 .635.515 1.15 1.15 1.15H19a1.15 1.15 0 0 0 1.15-1.15V5A1.15 1.15 0 0 0 19 3.85h-5.25ZM5 14.1a1.15 1.15 0 0 0-1.15 1.15V19c0 .635.515 1.15 1.15 1.15h5.25A1.15 1.15 0 0 0 11.4 19v-3.75a1.15 1.15 0 0 0-1.15-1.15H5Zm8.75-3.25A1.15 1.15 0 0 0 12.6 12v7c0 .635.515 1.15 1.15 1.15H19A1.15 1.15 0 0 0 20.15 19v-7A1.15 1.15 0 0 0 19 10.85h-5.25Z"/>
</g></svg>