<svg xmlns="http://www.w3.org/2000/svg" data-laicon-version="15.0" viewBox="0 0 20 20" fill="black"><g transform="translate(-2 -2)">
  <path d="m16.0002 5-4 3V5.8c-1.08 0-2.15.29-3.1.83-.94.54-1.72 1.33-2.27 2.27-.55.95-.84 2.02-.84 3.1s.29 2.15.84 3.1c.54.94 1.33 1.72 2.27 2.27a6.2664 6.2664 0 0 0 6.19 0c.94-.54 1.72-1.33 2.27-2.27s.83-2.01.83-3.1c0-1.09-.29-2.15-.83-3.1l1.38-.8a7.7871 7.7871 0 0 1 1.05 3.9c0 1.36-.36 2.71-1.05 3.9a7.789 7.789 0 0 1-2.85 2.85 7.7856 7.7856 0 0 1-3.895 1.05 7.7858 7.7858 0 0 1-3.895-1.05 7.8667 7.8667 0 0 1-2.85-2.85 7.7868 7.7868 0 0 1-1.05-3.9c0-1.36.36-2.71 1.05-3.9a7.79 7.79 0 0 1 2.85-2.85 7.76 7.76 0 0 1 3.9-1.05V2l4 3Zm-4.005 14.8h-.005.01-.005Z"/>
</g></svg>