<svg xmlns="http://www.w3.org/2000/svg" data-laicon-version="15.0" viewBox="0 0 20 20" fill="black"><g transform="translate(-2 -2)">
  <path d="M18.6999 12.01 18.7 12l-.0101.01h.01Z"/>
  <path d="M12 18.7c3.6867 0 6.6945-3.0046 6.6999-6.69H20.29c0 4.58-3.72 8.3001-8.3 8.3001S3.69 16.59 3.69 12.01s3.72-8.3 8.3-8.3c2.26 0 4.39.92 5.96 2.53l1.03-1.03c.13-.13.32-.17.49-.1.17.07.28.23.28.41V8.7c0 .25-.2.45-.45.45h-3.18c-.18 0-.34-.11-.41-.28-.07-.17-.0299-.36.1001-.49L16.83 7.36c-1.27-1.31-3-2.06-4.83-2.06-3.69 0-6.7 3.01-6.7 6.7 0 3.69 3.01 6.7 6.7 6.7Z"/>
  <path d="M10.3599 9.56c0-.16.08-.31.23-.39v.01a.4653.4653 0 0 1 .4701.02l3.6599 2.44c.12.08.19.22.19.37s-.07.29-.19.37L11.06 14.8199c-.08.05-.16.0701-.25.0701-.08 0-.1501-.0201-.2201-.0601-.14-.08-.23-.22-.23-.39V9.56Z"/>
</g></svg>