<svg xmlns="http://www.w3.org/2000/svg" data-laicon-version="15.0" viewBox="0 0 20 20" fill="black"><g transform="translate(-2 -2)">
  <path d="M3.9623 8.0258c1.0003-1.039 2.5181-1.6733 4.5792-1.6733h7.0771v1.6H8.5415c-1.7234 0-2.7892.521-3.4265 1.183-.647.672-.9408 1.5812-.9408 2.5103 0 .7779.0891 1.4677.3556 2.124.2645.6515.7238 1.319 1.5341 2.0187l-1.0458 1.211c-.9738-.841-1.5979-1.7094-1.9707-2.6277-.371-.9135-.4732-1.8274-.4732-2.726 0-1.2536.3976-2.591 1.3881-3.62Z"/>
  <path d="m13.2559 3.658 3.4944 3.4945-3.4944 3.4944-1.1314-1.1314 2.363-2.363-2.363-2.363 1.1314-1.1314Zm6.7818 12.3242c-1.0002 1.0391-2.518 1.6734-4.5791 1.6734H8.3813v-1.6h7.0773c1.7234 0 2.7892-.521 3.4265-1.183.6469-.6721.9407-1.5812.9407-2.5103 0-.7779-.0891-1.4677-.3556-2.1241-.2645-.6514-.7238-1.319-1.534-2.0186l1.0457-1.211c.9738.841 1.5979 1.7094 1.9708 2.6277.3709.9135.4731 1.8274.4731 2.726 0 1.2535-.3976 2.591-1.3881 3.6199Z"/>
  <path d="m10.7877 20.3464-3.5455-3.4893 3.544-3.5069 1.1254 1.1373-2.3915 2.3665 2.3899 2.3521-1.1223 1.1403Z"/>
</g></svg>