<svg xmlns="http://www.w3.org/2000/svg" data-laicon-version="15.0" viewBox="0 0 20 20" fill="black"><g transform="translate(-2 -2)">
  <path d="M10.426 9.6035H4.717c-.192 0-.374.085-.498.232a.6542.6542 0 0 0-.143.531l1.776 10.12c.054.31.325.538.64.538h2.159a.651.651 0 0 0 .64-.538l1.776-10.12a.6542.6542 0 0 0-.143-.531.6515.6515 0 0 0-.498-.232ZM7.571 8.249c1.454 0 2.6371-1.183 2.6371-2.637s-1.183-2.636-2.637-2.636-2.637 1.182-2.637 2.636c0 1.454 1.183 2.637 2.637 2.637Zm10.5774 1.8926a.6511.6511 0 0 0-.641-.538h-2.158a.65.65 0 0 0-.64.538l-1.776 10.12c-.033.19.02.383.143.53.124.148.305.233.498.233h5.709c.192 0 .374-.085.498-.233a.647.647 0 0 0 .142-.53l-1.775-10.12ZM16.4285 8.249c1.454 0 2.637-1.183 2.637-2.637s-1.183-2.636-2.637-2.636-2.637 1.182-2.637 2.636c0 1.454 1.183 2.637 2.637 2.637Z"/>
</g></svg>