<svg xmlns="http://www.w3.org/2000/svg" data-laicon-version="15.0" viewBox="0 0 20 20" fill="black"><g transform="translate(-2 -2)">
  <path d="M6.86 6.58h10.2701c.9113 0 1.65.7387 1.65 1.65v10.26c0 .9112-.7387 1.65-1.65 1.65H6.86c-.9112 0-1.65-.7388-1.65-1.65V9.9074c.0001 0 0 0 0 0V8.23c0-.9113.7388-1.65 1.65-1.65Zm1.5042 5.7088c0 .5543.4493 1.0036 1.0035 1.0036s1.0035-.4493 1.0035-1.0036c0-.5542-.4493-1.0036-1.0035-1.0036s-1.0035.4494-1.0035 1.0036Zm6.2693-1.0035c-.5542 0-1.0035.4493-1.0035 1.0035 0 .5543.4493 1.0036 1.0035 1.0036s1.0035-.4493 1.0035-1.0036c0-.5542-.4493-1.0035-1.0035-1.0035Zm5.1463-.9599c1.1203.672 1.8699 1.898 1.8699 3.2996 0 1.4015-.7496 2.6275-1.8699 3.2995v-6.5991ZM4.21 16.9185h.0001c-1.1148-.6732-1.86-1.8961-1.86-3.2935s.7452-2.6204 1.8599-3.2936v6.5871Z"/>
  <path d="M11.3472 6.9029V3.9286h1.3v2.9743h-1.3Z"/>
</g></svg>