<svg xmlns="http://www.w3.org/2000/svg" data-laicon-version="15.0" viewBox="0 0 20 20" fill="black"><g transform="translate(-2 -2)">
  <path d="M16.5868 9.21a1.7992 1.7992 0 0 1-.5272 1.2728 1.801 1.801 0 0 1-1.2728.5272 1.801 1.801 0 0 1-1.2728-.5272 1.801 1.801 0 0 1-.5272-1.2728 1.8003 1.8003 0 0 1 1.8-1.8 1.8 1.8 0 0 1 1.8 1.8Z"/>
  <path d="M16.1971 2.87c1.77-.42 4.08-.67 4.77.03 1.33 1.33.34 7.53-2.93 11.05-.23.25-.51.5-.8.74-.89.64-2.2 1.45-3.22 1.81-1.65.58-3.13.85-4.16.78-.23-.03-.45-.07-.65-.13l-.12-.04-2.32-2.32-.04-.13c-.027-.098-.045-.212-.063-.32l-.007-.04c-.18-1.27.37-3.07.82-4.34.26-.73.76-1.61 1.25-2.39.42-.6.86-1.15 1.31-1.6 1.35-1.36 3.6-2.49 6.16-3.1Zm-1.41 9.15c.72 0 1.43-.27 1.98-.82a2.819 2.819 0 0 0 0-3.97 2.807 2.807 0 0 0-3.96 0 2.819 2.819 0 0 0 0 3.97c.54.55 1.26.82 1.98.82Zm-4.58 6.27c1.48 0 3.16-.5 4.14-.85l.01-.01c.39-.14.81-.34 1.23-.56.24 2.02-.69 3.37-2.87 4.19-.46.17-1.94.47-3.1.47-.73 0-1.33-.11-1.5-.45-.03-.05-.23-.49.32-.83 1.13-.69 1.48-1.34 1.55-1.98.04 0 .075.005.11.01s.07.01.11.01Zm-3.67-8.67c.14-.4.34-.82.55-1.23-1.99-.22-3.33.72-4.15 2.88-.29.76-.9 4.19-.02 4.62.05.03.5.23.83-.32.66-1.07 1.27-1.45 1.87-1.55-.07-1.4.44-3.06.92-4.41v.01Z"/>
</g></svg>