<svg xmlns="http://www.w3.org/2000/svg" data-laicon-version="15.0" viewBox="0 0 20 20" fill="black"><g transform="translate(-2 -2)">
  <path d="m12.2029 12.5947-.886-.204c-1.227-.275-1.824-.902-1.824-1.916 0-1.237 1.023-2.068 2.545-2.068 1.434 0 2.474.823 2.531 2.001v.005h-1.179c-.128-.637-.636-.98-1.356-.98-.792 0-1.303.376-1.303.956 0 .46.345.726 1.19.919l.785.18c1.401.315 1.973.876 1.973 1.935 0 1.334-1.031 2.163-2.688 2.163-1.56 0-2.608-.797-2.669-2.03v-.004h1.205c.124.644.714 1.003 1.539 1.003.802 0 1.383-.413 1.383-.981 0-.489-.36-.773-1.246-.979Zm4.667-9.445h-9.74c-2.195 0-3.981 1.785-3.981 3.98v9.741c0 2.195 1.785 3.98 3.98 3.98h9.741c2.194 0 3.98-1.785 3.98-3.98v-9.741c0-2.195-1.786-3.98-3.98-3.98Z"/>
</g></svg>