<svg xmlns="http://www.w3.org/2000/svg" data-laicon-version="16.11" viewBox="0 0 20 20" fill="black"><g transform="translate(-2 -2)">
  <path d="M20.74 14.02 14.82 12l5.93-2.02a.97.97 0 0 0 .6-1.21.964.964 0 0 0-1.19-.62l-8.82 2.66-1.629-.552c-.15-.05-.214-.226-.15-.37.038-.083.07-.168.099-.258.26-.81.09-1.72-.49-2.5-.51-.69-1.29-1.23-2.2-1.53-.91-.29-1.86-.31-2.67-.06-.92.29-1.6.92-1.87 1.74-.26.81-.08 1.72.49 2.5.51.69 1.29 1.23 2.2 1.52l2.29.69-2.08.63-.21.06c-.91.3-1.69.84-2.2 1.53-.58.78-.75 1.69-.49 2.5s.95 1.44 1.87 1.74c.38.12.79.18 1.21.18.48 0 .98-.08 1.47-.24.91-.3 1.69-.84 2.2-1.53.58-.78.75-1.69.49-2.5a2.367 2.367 0 0 0-.099-.259c-.065-.144-.001-.32.148-.37l1.631-.561 8.82 2.66a.969.969 0 0 0 1.19-.62.97.97 0 0 0-.6-1.21l-.02.02ZM7.75 9.01c-.06.19-.26.35-.57.45-.42.13-.95.12-1.45-.05-.51-.17-.95-.46-1.21-.81-.19-.25-.26-.5-.2-.69.06-.19.26-.35.57-.45.42-.13.95-.11 1.46.05s.95.46 1.21.81c.19.26.26.5.2.7l-.01-.01Zm0 5.98c.06.19 0 .44-.2.69-.26.35-.7.65-1.21.81-.51.16-1.04.18-1.46.05-.3-.1-.5-.25-.57-.45-.06-.19 0-.44.2-.69.26-.35.7-.65 1.21-.81.51-.16 1.04-.18 1.45-.05.3.1.5.25.57.45h.01Z"/>
</g></svg>