<svg xmlns="http://www.w3.org/2000/svg" data-laicon-version="15.3" viewBox="0 0 20 20" fill="black"><g transform="translate(-2 -2)">
  <path d="M13.461 10.6v2.726h.594c.908 0 1.398-.448 1.398-1.363 0-.916-.49-1.363-1.398-1.363h-.594Z"/>
  <path d="M3.45 4.6c0-.635.515-1.15 1.15-1.15h14.8c.635 0 1.15.515 1.15 1.15v14.8a1.15 1.15 0 0 1-1.15 1.15H4.6a1.15 1.15 0 0 1-1.15-1.15V4.6Zm4.157 8.663c.287.88 1.006 1.362 1.978 1.362 1.132 0 1.922-.649 1.922-1.558 0-.846-.447-1.307-1.356-1.615l-.384-.126c-.525-.173-.713-.321-.713-.538 0-.215.209-.341.489-.341.258 0 .468.097.622.461.028.062.07.09.14.07l1.02-.273c.063-.014.098-.07.07-.14-.287-.873-.972-1.265-1.831-1.265-1.02 0-1.838.644-1.838 1.559 0 .761.496 1.271 1.279 1.544l.53.189c.427.153.65.279.65.538 0 .237-.23.35-.565.35-.412 0-.671-.155-.825-.525-.028-.063-.077-.084-.14-.07l-.971.238c-.07.021-.098.07-.077.14Zm4.568 1.153c0 .07.042.112.112.112h1.894c1.656 0 2.6-.915 2.6-2.565 0-1.664-.944-2.565-2.6-2.565h-1.894c-.07 0-.112.042-.112.112v4.906Z"/>
</g></svg>