<svg xmlns="http://www.w3.org/2000/svg" data-laicon-version="15.0" viewBox="0 0 20 20" fill="black"><g transform="translate(-2 -2)">
  <path d="M20.119 14.4214H3v-4.842h17.119v4.842Zm-13.44-1.774v-1.3h-1.3v1.3h1.3Zm13.44-8.057v3.989H3v-3.989a1.151 1.151 0 0 1 1.15-1.15h14.814a1.152 1.152 0 0 1 1.155 1.15Zm-13.44.72h-1.3v1.3h1.3v-1.3ZM3 19.4084v-3.987h10.1322L10.543 18.658l1.5211 1.9014H4.15A1.1521 1.1521 0 0 1 3 19.4084Zm2.379-.717h1.3v-1.3h-1.3v1.3Z"/>
  <path d="m16.7243 15.3132-1.8947 6.3158 1.2452.3736 1.8947-6.3158-1.2452-.3736Zm-3.1479.8334 1.0152.8121-1.3594 1.6992 1.3594 1.6992-1.0152.8121-2.009-2.5113 2.009-2.5113Zm5.6467 0-1.0151.8121 1.3594 1.6992-1.3594 1.6992 1.0151.8121 2.0091-2.5113-2.0091-2.5113Z"/>
</g></svg>