<svg xmlns="http://www.w3.org/2000/svg" data-laicon-version="15.0" viewBox="0 0 20 20" fill="black"><g transform="translate(-2 -2)">
  <path d="M11.8005 13.3529c0-.9129.74-1.6529 1.6529-1.6529h7.1006V9.582H3.436v4.843h8.361v1H3.436v3.986c0 .6351.515 1.15 1.15 1.15h7.2145v-7.2081ZM3.436 8.582V4.593c0-.6351.515-1.15 1.15-1.15h14.818c.6351 0 1.15.5149 1.15 1.15v3.989H3.436Zm3.679-3.269h-1.3v1.3h1.3v-1.3Zm-1.3 6.037h1.3v1.3h-1.3v-1.3Zm1.3 6.044v1.3h-1.3v-1.3h1.3Z"/>
  <path d="M18.7806 15.1745c-.3705 0-.6713.2996-.6713.67 0 .3703.3008.6699.6713.6699s.6714-.2997.6714-.6699c0-.3704-.3009-.67-.6714-.67Zm.3489 3.8227-2.1725-3.387-2.1726 3.387h4.3451Zm-6.5792-5.6444a.9029.9029 0 0 1 .9029-.9028h7.4842a.9028.9028 0 0 1 .9029.9028v7.4848a.903.903 0 0 1-.9029.9029h-7.4842a.903.903 0 0 1-.9029-.9029v-7.4848Z"/>
</g></svg>