<svg xmlns="http://www.w3.org/2000/svg" data-laicon-version="15.0" viewBox="0 0 20 20" fill="black"><g transform="translate(-2 -2)">
  <path d="M3.2236 4.4254v4.3804h17.5528V4.4255c0-.6352-.5149-1.15-1.15-1.15H4.3736c-.6351 0-1.15.5148-1.15 1.15Zm10.6169 2.6868h-1.25v-1.3h1.25v1.3Zm3.9961 0h-1.2455v-1.3h1.2455v1.3Zm-3.2461 0v-1.3h1.25v1.3h-1.25ZM3.2236 9.8058v4.379h17.5528v-4.379H3.2236Zm14.613 2.84h-1.2455v-1.3h1.2455v1.3Zm-5.2461 0v-1.3h1.25v1.3h-1.25Zm3.25 0h-1.25v-1.3h1.25v1.3Zm4.9359 2.539H3.2236v4.3898c0 .6351.5149 1.15 1.15 1.15h15.2528c.6351 0 1.15-.5149 1.15-1.15v-4.3898Zm-4.1853 2.8917v-1.3h1.2455v1.3h-1.2455Zm-2.7506 0h-1.25v-1.3h1.25v1.3Zm.75 0v-1.3h1.25v1.3h-1.25Z"/>
</g></svg>