<svg xmlns="http://www.w3.org/2000/svg" data-laicon-version="15.0" viewBox="0 0 20 20" fill="black"><g transform="translate(-2 -2)">
  <path d="M16.2844 15.6079c-.555 0-1.056.217-1.437.563l-6.092-3.517c.066-.206.111-.421.111-.648 0-.227-.045-.441-.111-.647l6.091-3.517c.382.346.883.563 1.438.563 1.186 0 2.15-.964 2.15-2.15s-.964-2.15-2.15-2.15-2.15.964-2.15 2.15c0 .16.021.315.054.465l-6.188 3.573c-.359-.27-.801-.436-1.284-.436-1.186 0-2.15.964-2.15 2.149 0 1.186.964 2.15 2.15 2.15.483 0 .925-.166 1.284-.436l6.188 3.572c-.033.15-.054.306-.054.466 0 1.185.964 2.15 2.15 2.15s2.15-.965 2.15-2.15c0-1.186-.964-2.15-2.15-2.15Z"/>
</g></svg>