<svg xmlns="http://www.w3.org/2000/svg" data-laicon-version="15.0" viewBox="0 0 20 20" fill="black"><g transform="translate(-2 -2)">
  <path d="m15.4269 9.8994-4.037 4.037-2.698-2.697.707-.707 1.991 1.99 3.33-3.33.707.707Zm4.915-5.469a.6513.6513 0 0 0-.486-.627c-1.1-.286-4.064-.953-7.815-.953-4.221 0-7.288.832-7.859.999a.6513.6513 0 0 0-.469.624v8.813c0 3.941 6.133 7.288 8.016 8.22.091.046.212.076.312.076.064 0 .146-.016.206-.034a.567.567 0 0 0 .103-.041c1.881-.931 8.017-4.279 8.017-8.223l-.025-8.854Z"/>
</g></svg>