<svg xmlns="http://www.w3.org/2000/svg" data-laicon-version="15.0" viewBox="0 0 20 20" fill="black"><g transform="translate(-2 -2)">
  <path d="M12.0002 2.6348c-3.7494 0-6.7074.6633-7.8589.9991a.65.65 0 0 0-.468.624v8.812c0 1.7055 1.17 3.3216 2.6517 4.6756 1.5099 1.3797 3.4801 2.6125 5.366 3.5469a.7034.7034 0 0 0 .3091.0729.6492.6492 0 0 0 .1612-.0203l.0207-.0053a.6503.6503 0 0 0 .1274-.0473c1.8857-.9344 3.856-2.1672 5.3659-3.5469 1.4817-1.354 2.6517-2.9701 2.6517-4.6756l-.0264-8.855a.65.65 0 0 0-.4861-.627c-1.1089-.289-4.0629-.953-7.8143-.953Z"/>
</g></svg>