<svg xmlns="http://www.w3.org/2000/svg" data-laicon-version="15.0" viewBox="0 0 20 20" fill="black"><g transform="translate(-2 -2)">
  <path d="M12.0002 2.9834c1.52 0 2.758 1.186 2.831 2.702l-5.663.007c.07-1.521 1.311-2.709 2.832-2.709Zm-4.01 6.74v-1h1v1h-1Zm7.02 0v-1h1v1h-1Zm4.589-2.871c0-.645-.527-1.171-1.173-1.171l-2.292.003-.001-.03c-.092-2.227-1.907-3.972-4.133-3.972s-4.041 1.745-4.133 3.972l-.002.039-2.31.003c-.645.003-1.169.528-1.169 1.172v11.381c0 1.507 1.226 2.734 2.734 2.734h9.757c.731 0 1.419-.285 1.935-.803.516-.517.8-1.205.799-1.935l-.012-11.393Z"/>
</g></svg>