<svg xmlns="http://www.w3.org/2000/svg" data-laicon-version="15.0" viewBox="0 0 20 20" fill="black"><g transform="translate(-2 -2)">
  <path d="M5.4996 3.8498c-1.1874 0-2.15.9626-2.15 2.15v10c0 1.1874.9626 2.15 2.15 2.15h5.6v-4.15c0-1.3255 1.0745-2.4 2.4-2.4h6.15v-5.6c0-1.1874-.9626-2.15-2.15-2.15h-12Zm5.4541 7.1907c.0716.2308-.1451.4472-.3758.3753l-3.8328-1.195c-.2153-.0672-.2823-.339-.1228-.4985l.8603-.8603-2.3727-2.3727.9192-.9192 2.3727 2.3727.863-.863c.1596-.1596.4317-.0923.4986.1233l1.1903 3.8374Z"/>
  <path d="M12.0996 14c0-.7732.6268-1.4 1.4-1.4h7c.7732 0 1.4.6268 1.4 1.4v5c0 .7732-.6268 1.4-1.4 1.4h-7c-.7732 0-1.4-.6268-1.4-1.4v-5Z"/>
</g></svg>