<svg xmlns="http://www.w3.org/2000/svg" data-laicon-version="15.0" viewBox="0 0 20 20" fill="black"><g transform="translate(-2 -2)">
  <path d="M11.8001 11.3c-.3-.7-.7-1.4-1.1-2 1.1-1.6 2.5-2.7 4-3.4 1-.5 1.9-.8 2.9-.9l-.8-.8 1.4-1.4 3.1 3.2-3.2 3.2-1.4-1.4.7-.7c-.6.1-1.3.3-1.9.7-1.5.6-2.8 1.8-3.7 3.5Zm-2.7 1.2c-1.9 3.2-4.9 4.4-6.5 4.4v2c2 0 5.2-1.3 7.5-4.3-.3-.5-.6-1-.8-1.5-.1-.2-.2-.4-.2-.6Zm9.1 2.2-1.4 1.4.8.8c-.6-.1-1.2-.3-1.9-.7-1.7-.8-3.3-2.2-4.1-4.1-2-5-6.4-7.1-9-7.1v2c1.8 0 5.4 1.5 7.2 5.9 1 2.5 3.1 4.2 5 5.2.9.4 1.9.7 2.7.9l-.8.8 1.4 1.4 3.2-3.2-3.1-3.3Z"/>
</g></svg>