<svg xmlns="http://www.w3.org/2000/svg" data-laicon-version="15.0" viewBox="0 0 20 20" fill="black"><g transform="translate(-2 -2)">
  <path d="m14.1846 18.6172-9.57.064-.065-13.18 9.571-.064v2.945h1.6v-2.945c0-.847-.689-1.535-1.536-1.535h-9.635c-.846 0-1.535.688-1.535 1.535v13.244c0 .847.689 1.536 1.535 1.536h9.635c.847 0 1.536-.689 1.536-1.536v-2.945h-1.6l.064 2.881Z"/>
  <path d="m17.6374 8.5503-1.132 1.132 1.578 1.577h-7.807v1.6h7.807l-1.578 1.577 1.132 1.132 3.508-3.509-3.508-3.509Z"/>
</g></svg>