<svg xmlns="http://www.w3.org/2000/svg" data-laicon-version="15.0" viewBox="0 0 20 20" fill="black"><g transform="translate(-2 -2)">
  <path d="M7.8643 5.378c0-.8481.6875-1.5357 1.5358-1.5357h9.6343c.8482 0 1.5358.6876 1.5358 1.5358V18.622c0 .8482-.6876 1.5357-1.5358 1.5357H9.4001c-.8482 0-1.5358-.6875-1.5358-1.5357v-2.945h1.6v2.8807h9.5059V5.4423h-9.506V8.323h-1.6V5.378Z"/>
  <path d="M3.5698 11.2h9.7382v1.6H3.5698v-1.6Z"/>
  <path d="M12.1768 12 9.7993 9.6226l1.1314-1.1314L14.4395 12l-3.5088 3.5088-1.1314-1.1314L12.1768 12Z"/>
</g></svg>