<svg xmlns="http://www.w3.org/2000/svg" data-laicon-version="15.0" viewBox="0 0 20 20" fill="black"><g transform="translate(-2 -2)">
  <path d="M2.5254 12.001c0-5.1837 4.216-9.401 9.4-9.401 5.1839 0 9.4 4.2173 9.4 9.401 0 5.1829-4.2162 9.399-9.4 9.399-5.1838 0-9.4-4.2161-9.4-9.399Zm1.6 0c0 4.2991 3.4997 7.799 7.8 7.799 4.3002 0 7.8-3.4999 7.8-7.799 0-4.3003-3.5-7.801-7.8-7.801s-7.8 3.5007-7.8 7.801Z"/>
  <path d="M20.4749 12.1085c-6.7306-.114-12.0515 3.6311-14.6847 5.928a.8.8 0 0 1-1.0517-1.2058c2.7368-2.3872 8.438-6.446 15.7634-6.322a.8.8 0 0 1-.027 1.5998Z"/>
  <path d="M2.9228 9.8458a.8.8 0 0 1 1.128.0865c.0148.0172.0343.041.0587.0707.2968.3622 1.3252 1.617 3.5014 2.8393 2.3595 1.3254 6.1081 2.6318 11.7747 2.6318a.8.8 0 0 1 0 1.6c-5.9244 0-9.9454-1.3691-12.5583-2.8368-2.4284-1.3639-3.6062-2.7963-3.9306-3.1907-.0253-.0307-.0453-.0552-.0604-.0728a.8.8 0 0 1 .0865-1.128Z"/>
</g></svg>