<svg xmlns="http://www.w3.org/2000/svg" data-laicon-version="15.0" viewBox="0 0 20 20" fill="black"><g transform="translate(-2 -2)">
  <path d="M18.9325 13a7.062 7.062 0 0 0 .0709-1c0-1.5723-.5184-3.0236-1.3936-4.1922l-9.7985 9.7986C8.9798 18.4816 10.431 19 12.0034 19c1.1593 0 2.2528-.2818 3.2158-.7807l1.4676 1.4676C15.3224 20.52 13.719 21 12.0034 21c-4.9705 0-9-4.0294-9-9s4.0294-9 9-9c4.9705 0 9 4.0294 9 9 0 .338-.0186.6717-.0549 1h-2.016Zm-6.9291-8c-3.866 0-7 3.134-7 7 0 1.5723.5184 3.0236 1.3936 4.1922l9.7986-9.7986C15.027 5.5184 13.5757 5 12.0034 5Z"/>
  <path d="M16.5 15.25h2.75c1.3807 0 2.5 1.1193 2.5 2.5s-1.1193 2.5-2.5 2.5H19v-1.5h.25c.5523 0 1-.4477 1-1s-.4477-1-1-1H16.5v-1.5Z"/>
  <path d="m17.7697 13.4697 1.0606 1.0606L17.3607 16l1.4696 1.4697-1.0606 1.0606L15.2393 16l2.5304-2.5303Z"/>
</g></svg>