<svg xmlns="http://www.w3.org/2000/svg" data-laicon-version="15.0" viewBox="0 0 20 20" fill="black"><g transform="translate(-2 -2)">
  <path d="M16.7081 5.16v6.86a2.2928 2.2928 0 0 0 0 4.297v2.523h1.6v-2.523a2.2937 2.2937 0 0 0 1.4932-2.149 2.2934 2.2934 0 0 0-1.4932-2.149V5.16h-1.6Zm1.492 9.008a.692.692 0 1 1-1.384 0 .692.692 0 0 1 1.384 0Zm-7-9.008v13.68h1.6V5.16h-1.6Zm-3.908 2.524V5.16h-1.6v2.524a2.293 2.293 0 0 0 0 4.297v6.859h1.6v-6.86A2.2935 2.2935 0 0 0 8.784 9.8315 2.293 2.293 0 0 0 7.292 7.683v.001Zm-.8 1.456a.692.692 0 1 1 0 1.384.692.692 0 0 1 0-1.384Z"/>
</g></svg>