<svg xmlns="http://www.w3.org/2000/svg" data-laicon-version="15.0" viewBox="0 0 20 20" fill="black"><g transform="translate(-2 -2)">
  <path d="M14.916 11.1802c-.553 0-1-.448-1-1s.447-1 1-1c.553 0 1 .448 1 1s-.447 1-1 1Zm-6.371 2.118c.236-.138.544-.058.684.182.571.986 1.632 1.599 2.771 1.599s2.2-.613 2.771-1.599c.139-.24.447-.32.684-.182.238.138.32.445.182.683-.749 1.294-2.143 2.098-3.637 2.098-1.494 0-2.888-.804-3.637-2.098-.138-.238-.056-.545.182-.683Zm.539-4.118c.553 0 1 .448 1 1s-.447 1-1 1c-.553 0-1-.448-1-1s.447-1 1-1ZM12 2.7502c-5.101 0-9.25 4.149-9.25 9.25 0 5.1 4.149 9.25 9.25 9.25s9.25-4.15 9.25-9.25c0-5.101-4.149-9.25-9.25-9.25Z"/>
</g></svg>