<svg xmlns="http://www.w3.org/2000/svg" data-laicon-version="15.0" viewBox="0 0 20 20" fill="black"><g transform="translate(-2 -2)">
  <path d="M11.1479 3.9461a.65.65 0 0 0-1.2956 0l-.008.0974c-.2576 3.0907-2.7101 5.5432-5.8008 5.8007l-.0974.0081a.65.65 0 0 0 0 1.2956l.0974.0081c3.0907.2576 5.5432 2.71 5.8007 5.8007l.0081.0974a.65.65 0 0 0 1.2956 0l.0081-.0974c.2575-3.0907 2.71-5.5431 5.8007-5.8007l.0974-.0081a.65.65 0 0 0 0-1.2956l-.0974-.008c-3.0907-.2576-5.5432-2.7101-5.8007-5.8008l-.0081-.0974Zm6.6012 10.5332a.25.25 0 0 0-.4982 0l-.02.2395c-.1115 1.3385-1.1736 2.4006-2.5121 2.5121l-.2396.02a.25.25 0 0 0 0 .4983l.2396.0199c1.3385.1116 2.4006 1.1737 2.5121 2.5122l.02.2395a.25.25 0 0 0 .4982 0l.02-.2395c.1115-1.3385 1.1736-2.4006 2.5121-2.5122l.2396-.0199a.25.25 0 0 0 0-.4983l-.2396-.02c-1.3385-.1115-2.4006-1.1736-2.5121-2.5121l-.02-.2395Z"/>
</g></svg>