<svg xmlns="http://www.w3.org/2000/svg" data-laicon-version="15.0" viewBox="0 0 20 20" fill="black"><g transform="translate(-2 -2)">
  <path d="M5.5145 12.7541c-.5358 0-.9419.2888-1.19.5746-.2318.2672-.4246.646-.4246 1.0086v4.0236c0 .8546.6691 1.6901 1.6145 1.6901H9.635c.513 0 .9166-.2601 1.1736-.5817.2507-.3136.3914-.7165.3914-1.1084v-4.0236c0-.363-.1809-.7452-.4343-1.0254-.2723-.3011-.6938-.5578-1.238-.5578H5.5145Zm0-8.8051c-.5358 0-.9419.2887-1.19.5745-.2318.2672-.4246.646-.4246 1.0086v4.0236c0 .8546.6691 1.6901 1.6145 1.6901H9.635c.513 0 .9166-.2602 1.1736-.5818.2507-.3135.3914-.7164.3914-1.1083V5.532c0-.363-.1809-.7452-.4343-1.0254-.2723-.3011-.6938-.5578-1.238-.5578H5.5145Zm8.8998 8.8051c-.5357 0-.9418.2888-1.1898.5746-.2319.2672-.4247.646-.4247 1.0086v4.0236c0 .8546.6691 1.6901 1.6145 1.6901h4.1205c.5131 0 .9166-.2601 1.1737-.5817.2506-.3136.3913-.7165.3913-1.1084v-4.0236c0-.363-.1809-.7452-.4342-1.0254-.2724-.3011-.6939-.5578-1.238-.5578h-4.0133Zm0-8.8051c-.5357 0-.9418.2887-1.1898.5745-.2319.2672-.4247.646-.4247 1.0086v4.0236c0 .8546.6691 1.6901 1.6145 1.6901h4.1205c.5131 0 .9166-.2602 1.1737-.5818.2506-.3135.3913-.7164.3913-1.1083V5.532c0-.363-.1809-.7452-.4342-1.0254-.2724-.3011-.6939-.5578-1.238-.5578h-4.0133Z"/>
</g></svg>