<svg xmlns="http://www.w3.org/2000/svg" data-laicon-version="17.1" viewBox="0 0 20 20" fill="black"><g transform="translate(-2 -2)">
  <path d="M3.6 4.75c0-.635.515-1.15 1.15-1.15h5.5c.635 0 1.15.515 1.15 1.15v5.5a1.15 1.15 0 0 1-1.15 1.15h-5.5a1.15 1.15 0 0 1-1.15-1.15v-5.5Zm0 9c0-.635.515-1.15 1.15-1.15h5.5c.635 0 1.15.515 1.15 1.15v5.5a1.15 1.15 0 0 1-1.15 1.15h-5.5a1.15 1.15 0 0 1-1.15-1.15v-5.5Zm9 0c0-.635.515-1.15 1.15-1.15h5.5c.635 0 1.15.515 1.15 1.15v5.5a1.15 1.15 0 0 1-1.15 1.15h-5.5a1.15 1.15 0 0 1-1.15-1.15v-5.5Zm4.55-6.9v-3h-1.3v3h-3v1.3h3v3h1.3v-3h3v-1.3h-3Z"/>
</g></svg>