<svg xmlns="http://www.w3.org/2000/svg" data-laicon-version="15.0" viewBox="0 0 20 20" fill="black"><g transform="translate(-2 -2)">
  <path d="M5.5001 6.3502c-1.1874 0-2.15.9626-2.15 2.15v10c0 1.1874.9626 2.15 2.15 2.15h10c1.1874 0 2.15-.9626 2.15-2.15v-10c0-1.1874-.9626-2.15-2.15-2.15h-10Z"/>
  <path d="M16.5 4.3h-2V2.7h2c2.651 0 4.8 2.1491 4.8 4.8v2h-1.6v-2c0-1.7672-1.4327-3.2-3.2-3.2Z"/>
  <path d="M13.1075 3.7348c-.1433-.1207-.1433-.3486 0-.4694l1.4211-1.1976c.1893-.1596.4714-.019.4714.2347v2.3952c0 .2538-.2821.3943-.4714.2348l-1.4211-1.1977Z"/>
</g></svg>