<svg xmlns="http://www.w3.org/2000/svg" data-laicon-version="15.0" viewBox="0 0 20 20" fill="black"><g transform="translate(-2 -2)">
  <path d="M12.2001 20.5h2.8a.5004.5004 0 0 0 .3536-.1464.5004.5004 0 0 0 .1464-.3536v-2.3a.5004.5004 0 0 0-.1464-.3536.5004.5004 0 0 0-.3536-.1464h-2.8v3.3Zm-1-3.3h-3.3v3.3h3.3v-3.3Zm-7.6-4.3h3.3v3.3h-3.3v-3.3Zm3.3-1h-3.3V9.1a.5.5 0 0 1 .5-.5h2.3a.5.5 0 0 1 .5.5v2.8Zm1 1v3.3h3.3v-2.8a.5004.5004 0 0 0-.1464-.3536.5004.5004 0 0 0-.3536-.1464h-2.8Zm-1 4.3h-3.3V20a.5002.5002 0 0 0 .5.5h2.8v-3.3Zm9.8-13a.6999.6999 0 0 1 .7-.7h2.2a.7002.7002 0 0 1 .7.7v2.2a.7003.7003 0 0 1-.7.7h-2.2a.7.7 0 0 1-.7-.7V4.2Zm-2 5.3a.6999.6999 0 0 1 .7-.7h2.2a.7002.7002 0 0 1 .7.7v2.2a.7003.7003 0 0 1-.7.7h-2.2a.6999.6999 0 0 1-.7-.7V9.5Z"/>
</g></svg>