<svg xmlns="http://www.w3.org/2000/svg" data-laicon-version="15.0" viewBox="0 0 20 20" fill="black"><g transform="translate(-2 -2)">
  <path d="M21.4003 11.15c-.02.03-.0701.0799-.0701.0799v.0201c-.72.73-1.3899 1.3999-1.9699 1.9699h-5.86V19.75c-.65-.34-1.19-.6301-1.5-.8001-.7.38-2.49 1.3301-4.24 2.2201-.22.08-.43.12-.64.12-.35 0-.68-.1101-.98-.3201-.48-.34-.77-.8699-.77-1.4099v-.1001c.3-1.92.65-3.9799.79-4.7799-.56-.52-1.94-1.84-3.41-3.37-.4-.46-.51-1.07-.31-1.64.2-.57.64-.98 1.16-1.09 2.05-.38 4.01-.63 4.8-.72.35-.73 1.23-2.55 2.1799-4.35a.2747.2747 0 0 0 .0072-.0156c.0081-.018.0176-.0392.0329-.0545.61-.88 2.17-.88 2.79 0 .96 1.9 1.87 3.71 2.22 4.42.75.1 2.6399.36 4.7099.71.53.08.9401.4 1.1601.91.24.55.19 1.2501-.1 1.6701Z"/>
  <path d="M15 17.7h7V19h-7v-1.3Zm7-3h-7V16h7v-1.3Zm-7 6h7V22h-7v-1.3Z"/>
</g></svg>