<svg xmlns="http://www.w3.org/2000/svg" data-laicon-version="15.0" viewBox="0 0 20 20" fill="black"><g transform="translate(-2 -2)">
  <path d="M17.4443 10.2383H5.2563v9.5c0 .628.51 1.139 1.137 1.139h5.107v-3.919h1v3.919h5.107c.627 0 1.137-.511 1.137-1.139v-9.5h-1.3ZM19.45 3.631h-3.783v5.658h3.783c.089 0 .169-.026.25-.051.372-.11.65-.442.65-.849V4.531c0-.496-.404-.9-.9-.9Zm-4.7828 5.6073v-5.607h-5.134v5.658h5.134v-.051Zm-8.7618.0508h2.628v-5.658h-3.983c-.497 0-.9.404-.9.9v3.858c0 .407.277.739.65.849.081.025.161.051.25.051h1.355Z"/>
</g></svg>