<svg xmlns="http://www.w3.org/2000/svg" data-laicon-version="15.0" viewBox="0 0 20 20" fill="black"><g transform="translate(-2 -2)">
  <path d="M11.3501 5V2h1.3v3h-1.3Zm0 17v-3h1.3v3h-1.3ZM6.5906 7.5099 4.4692 5.3885l.9193-.9192 2.1213 2.1213-.9192.9193Zm12.0209 12.0208-2.1213-2.1213.9193-.9193 2.1213 2.1213-.9193.9193ZM5 12.6498H2v-1.3h3v1.3Zm17 .0001h-3v-1.3h3v1.3ZM7.5098 17.4094l-2.1213 2.1213-.9193-.9192 2.1214-2.1213.9192.9192Zm12.021-12.0209L17.4094 7.51l-.9192-.9193 2.1213-2.1213.9193.9192ZM12 6.5c-3.0376 0-5.5 2.4624-5.5 5.4999 0 3.0376 2.4624 5.5 5.5 5.5s5.5-2.4624 5.5-5.5c0-3.0375-2.4624-5.5-5.5-5.5Z"/>
</g></svg>