<svg xmlns="http://www.w3.org/2000/svg" data-laicon-version="15.0" viewBox="0 0 20 20" fill="black"><g transform="translate(-2 -2)">
  <path d="M11.913 3.762c-2.527 0-4.865 1.136-6.386 3.137L7.12 8.11c1.133-1.491 2.876-2.347 4.793-2.347 2.865 0 5.326 2.058 5.87 5h-1.907l3.003 4.096 2.997-4.096H19.81c-.572-4.034-3.9-7-7.897-7v-.001Zm.194 16.476c2.527 0 4.865-1.136 6.386-3.137l-1.592-1.21c-1.134 1.491-2.877 2.347-4.794 2.347-2.886 0-5.345-1.98-5.877-4.998h1.894L5.127 9.143 2.124 13.24h2.083c.56 4.135 3.904 6.998 7.9 6.998Z"/>
</g></svg>