<svg xmlns="http://www.w3.org/2000/svg" data-laicon-version="15.0" viewBox="0 0 20 20" fill="black"><g transform="translate(-2 -2)">
  <path d="m3.14 7.554.826.386A9 9 0 0 1 12.0002 3a9.002 9.002 0 0 1 8.83 7.25h-2.05a7.0032 7.0032 0 0 0-13-1.464l.786.366a.547.547 0 0 1-.022 1.002L3.96 11.222a.5463.5463 0 0 1-.4397-.0098.5467.5467 0 0 1-.2903-.3302l-.843-2.667a.547.547 0 0 1 .753-.66v-.001Zm2.08 6.196H3.17a9.0034 9.0034 0 0 0 7.6069 7.1668 9.003 9.003 0 0 0 9.2562-4.8528l.825.385a.5464.5464 0 0 0 .5918-.0844.5474.5474 0 0 0 .1612-.5756l-.842-2.667a.5465.5465 0 0 0-.731-.34l-2.584 1.068a.5464.5464 0 0 0-.3375.4933.5469.5469 0 0 0 .3155.5077l.786.367a7.0032 7.0032 0 0 1-12.998-1.468Z"/>
</g></svg>