<svg xmlns="http://www.w3.org/2000/svg" data-laicon-version="15.0" viewBox="0 0 20 20" fill="black"><g transform="translate(-2 -2)">
  <path d="M17.9139 4.3124c-.0949-.1026-.2829-.2263-.6751-.2263H6.7158c-.3237 0-.5287.0902-.6381.1824-.0942.0793-.17.2012-.17.4225v14.6477c0 .1765.2289.5752.8082.5752h10.3628c.4639 0 .7244-.1098.85-.2072.1021-.0792.1638-.1836.1638-.368V4.8333c0-.225-.0714-.4051-.1786-.5209Zm1.1744-1.0866c.4294.464.6042 1.0574.6042 1.6075v14.5054c0 .6495-.2677 1.2327-.7836 1.6326-.4925.3817-1.1389.5426-1.8302.5426H6.7159c-1.3143 0-2.4083-.9733-2.4083-2.1752V4.691c0-.6636.2622-1.2442.7391-1.646.4617-.3891 1.0609-.5589 1.6692-.5589h10.5229c.7692 0 1.408.2624 1.8495.7397Z"/>
  <path d="M11.8938 17.7164a.675.675 0 1 0 .0001 1.3501.675.675 0 0 0-.0001-1.3501Z"/>
</g></svg>