<svg xmlns="http://www.w3.org/2000/svg" data-laicon-version="15.0" viewBox="0 0 20 20" fill="black"><g transform="translate(-2 -2)">
  <path d="M3.8256 4.3408c.2126-.0307.4367-.0331.6326-.0331h15.4004c.52 0 1.065.1296 1.3838.67.1345.2279.1983.4838.2327.7299.0348.2487.045.5306.045.8357V8.3H2.4844V6.1949c0-.66.1451-1.2509.646-1.5979.2293-.1588.4791-.225.6952-.2562ZM2.4844 9.3v4.45h9.0154V9.3H2.4844Zm0 5.45v2.9338c0 .4643.0297 1.0031.318 1.4113.3386.4791.878.5968 1.4054.5968h7.292V14.75H2.4844ZM12.5 19.6919h7.3588c.4744 0 .9579-.1385 1.2873-.5744.2957-.3912.3742-.9084.3742-1.4337V14.75H12.5v4.9419Zm9.0203-5.9419V9.3H12.5v4.45h9.0203Z"/>
</g></svg>