<svg xmlns="http://www.w3.org/2000/svg" data-laicon-version="15.0" viewBox="0 0 20 20" fill="black"><g transform="translate(-2 -2)">
  <path d="M11.9999 4.9c-5.3 0-9.6 4.3-9.6 9.6 0 0 0 1.2.3 2.3.5 2.2 1.6 2.7 2.4 2.7h13.9c2.6 0 2.6-4.5 2.6-5 0-5.3-4.3-9.6-9.6-9.6Zm0 2c.4 0 .7.3.7.7 0 .4-.3.8-.7.8-.4 0-.7-.3-.7-.7 0-.4.3-.8.7-.8Zm-6.8 8.1c-.4 0-.7-.3-.7-.7 0-.4.3-.7.7-.7.4 0 .7.3.7.7 0 .4-.3.7-.7.7Zm9.2-.2c0 1.3-1.1 2.4-2.4 2.4-1.3 0-2.4-1.1-2.4-2.4 0-1.3 1.1-2.4 2.4-2.4.4 0 .8.1 1.1.3l3.8-3.8.7.7-3.7 3.7c.3.5.5 1 .5 1.5Zm4.4.2c-.4 0-.7-.3-.7-.7 0-.4.3-.7.7-.7.4 0 .7.3.7.7 0 .4-.3.7-.7.7Z"/>
  <path d="M12.0001 13.4c-.8 0-1.4.6-1.4 1.4 0 .8.6 1.4 1.4 1.4.8 0 1.4-.6 1.4-1.4 0-.8-.6-1.4-1.4-1.4Z"/>
</g></svg>