<svg xmlns="http://www.w3.org/2000/svg" data-laicon-version="15.0" viewBox="0 0 20 20" fill="black"><g transform="translate(-2 -2)">
  <path d="M12 18.5913c-3.635 0-6.592-2.957-6.592-6.591 0-3.635 2.957-6.592 6.592-6.592s6.592 2.957 6.592 6.592c0 3.634-2.957 6.591-6.592 6.591Zm10-7.391h-1.85c-.377-3.879-3.471-6.973-7.35-7.351v-1.849h-1.6v1.849c-3.879.378-6.973 3.472-7.35 7.351H2v1.599h1.85c.377 3.879 3.471 6.973 7.35 7.351v1.85h1.6v-1.85c3.879-.378 6.973-3.472 7.35-7.351H22v-1.599Z"/>
  <path d="M12 10.5c-.828 0-1.5.671-1.5 1.5s.672 1.5 1.5 1.5 1.5-.671 1.5-1.5-.672-1.5-1.5-1.5Z"/>
</g></svg>