<svg xmlns="http://www.w3.org/2000/svg" data-laicon-version="15.0" viewBox="0 0 20 20" fill="black"><g transform="translate(-2 -2)">
  <path d="M18.9861 3.7002h-3.117v1.6h2.832v2.831h1.599v-3.117c0-.725-.589-1.314-1.314-1.314ZM5.3007 5.2998h2.832v-1.6h-3.117c-.725 0-1.315.59-1.315 1.315v3.117h1.6v-2.832Zm0 10.5689h-1.6v3.117c0 .725.59 1.314 1.315 1.314h3.117v-1.599h-2.832v-2.832Zm13.4004 2.8315h-2.832v1.6h3.117c.725 0 1.315-.59 1.315-1.315v-3.117h-1.6v2.832Zm-2.8253-8.0674v-2.641h-7.824v2.641h1.599v-1.041h1.513v5.16h-.825v1.599h3.278v-1.599h-.853v-5.16h1.512v1.041h1.6Z"/>
</g></svg>