<svg xmlns="http://www.w3.org/2000/svg" data-laicon-version="15.0" viewBox="0 0 20 20" fill="black"><g transform="translate(-2 -2)">
  <path d="M13.2604 12.5h-.591v1.972h.591c.543 0 .986-.443.986-.986 0-.544-.443-.986-.986-.986Z"/>
  <path d="M13.2605 15.4717h-.591v1.028h-1v-1.028h-2.225v-6.943h2.225v-1.029h1v1.029h.216c1.096 0 1.987.89 1.987 1.985 0 .508-.192.972-.507 1.323.531.358.881.963.881 1.65 0 1.094-.891 1.985-1.986 1.985Zm-1.26-12.722c-5.101 0-9.25 4.15-9.25 9.25 0 5.101 4.149 9.25 9.25 9.25 5.1 0 9.25-4.149 9.25-9.25 0-5.1-4.15-9.25-9.25-9.25ZM10.4442 11.5h1.225V9.528h-1.225V11.5Zm0 2.972h1.225V12.5h-1.225v1.972Zm2.4421-4.9433c.544 0 .986.442.986.985 0 .544-.442.986-.986.986h-.217v-1.971h.217Z"/>
</g></svg>