<svg xmlns="http://www.w3.org/2000/svg" data-laicon-version="15.0" viewBox="0 0 20 20" fill="black"><g transform="translate(-2 -2)">
  <path d="M9.7651 14.175h1.103V12.5h-1.103v1.675ZM12.249 12.5h-.581v1.675h.581c.462 0 .838-.376.838-.838 0-.462-.376-.837-.838-.837Z"/>
  <path d="M11.6682 15.1748h.581c1.014 0 1.838-.824 1.838-1.838 0-.614-.304-1.159-.768-1.493.269-.319.431-.731.431-1.181 0-1.013-.824-1.838-1.837-1.838h-.245v-.875h-.801v.875h-2.102v6.35h2.102v.875h.801v-.875Zm2.654 2.378c0 .561.115 1.093.303 1.589.078.206.175.398.28.589.107.191.222.375.354.548-1.227.603-2.6.952-4.057.952-5.09 0-9.23-4.141-9.23-9.231s4.14-9.23 9.23-9.23c5.09 0 9.231 4.14 9.231 9.23 0 .441-.042.871-.102 1.295-.206-.072-.411-.141-.629-.183-.21-.041-.429-.055-.647-.066a1.0043 1.0043 0 0 1-.0931-.0098c-.0369-.0051-.0737-.0102-.1119-.0102-2.497 0-4.528 2.031-4.528 4.527ZM9.7652 11.5h1.103V9.825h-1.103V11.5Zm2.985-.8369c0-.462-.375-.838-.837-.838h-.245V11.5h.245c.462 0 .837-.375.837-.837Zm6.2578 9.001-.566-.566.061-.062 1.084-1.083h-2.933v-.801h2.933l-.454-.453-.471-.471-.159-.159-.061-.061.566-.567.034.035.486.485 1.59 1.592-2.11 2.111Zm1.166-5.532c-.2-.078-.406-.144-.622-.186a3.6162 3.6162 0 0 0-.654-.066.1519.1519 0 0 1-.0247-.0026c-.0078-.0012-.0154-.0024-.0233-.0024-2.028 0-3.678 1.65-3.678 3.678 0 .413.084.802.21 1.174.071.209.16.409.267.6.106.191.226.368.363.536.676.827 1.689 1.367 2.838 1.367 2.027 0 3.678-1.65 3.678-3.677 0-1.56-.981-2.887-2.354-3.421Z"/>
</g></svg>