<svg xmlns="http://www.w3.org/2000/svg" data-laicon-version="15.0" viewBox="0 0 20 20" fill="black"><g transform="translate(-2 -2)">
  <path d="M15 4.3002H9v-1.6h6v1.6Zm-2.2515 9.0805c0-.7105.1157-1.2077.3066-1.5223.1848-.3047.4427-.4442.7674-.4442.3296 0 .5895.1401.7751.4445.1918.3144.3074.8114.3074 1.522s-.1156 1.2075-.3074 1.522c-.1856.3044-.4455.4445-.7751.4445-.3247 0-.5826-.1396-.7674-.4442-.1909-.3146-.3066-.8118-.3066-1.5223Z"/>
  <path d="M12.0002 5.4502c-4.4459 0-8.05 3.6041-8.05 8.05 0 4.4459 3.6041 8.05 8.05 8.05 4.4459 0 8.05-3.6041 8.05-8.05 0-4.4459-3.6041-8.05-8.05-8.05Zm1.8221 4.542c.8053 0 1.4566.3218 1.902.9176.4413.5903.6705 1.4355.6705 2.4709 0 1.0353-.2292 1.8806-.6705 2.4709-.4454.5957-1.0967.9176-1.902.9176-.8012 0-1.4504-.3221-1.8946-.9178-.4401-.5902-.6694-1.4354-.6694-2.4707 0-1.0354.2293-1.8805.6694-2.4707.4442-.5957 1.0934-.9178 1.8946-.9178Zm-4.4003.119h.663c.0656 0 .1343.0211.1868.0737.0525.0525.0737.1212.0737.1868v6.018c0 .0656-.0212.1343-.0737.1868-.0525.0525-.1212.0737-.1868.0737h-.9265c-.0656 0-.1343-.0212-.1868-.0737-.0526-.0525-.0737-.1212-.0737-.1868v-4.3779l-.9322.3687c-.0546.0229-.1233.0336-.1933.0062-.069-.027-.1136-.081-.1413-.1358l-.1665-.3154c-.021-.0491-.0336-.1089-.0202-.1728.0135-.0649.0503-.116.0956-.154l1.6445-1.4072c.0793-.0765.1647-.0903.2374-.0903Z"/>
</g></svg>