<svg xmlns="http://www.w3.org/2000/svg" data-laicon-version="15.0" viewBox="0 0 20 20" fill="black"><g transform="translate(-2 -2)">
  <path d="M15 4.3002H9v-1.6h6v1.6Zm-2.9998 1.15c-4.4459 0-8.05 3.6041-8.05 8.05 0 4.4459 3.6041 8.05 8.05 8.05 4.4459 0 8.05-3.6041 8.05-8.05 0-4.4459-3.6041-8.05-8.05-8.05Zm-.0603 4.542c1.2576 0 2.2495.7522 2.2495 1.8415 0 .5766-.2938 1.0653-.7829 1.3839.2444.1235.451.2884.6085.4936.2184.2845.3359.6383.3359 1.0465 0 .6015-.2495 1.1095-.6817 1.4642-.4297.3528-1.031.5473-1.7293.5473-1.1806 0-2.0465-.6734-2.3625-1.757l-.0027-.0094c-.0143-.0642-.0119-.1395.0325-.2061.0427-.064.1071-.0939.1615-.1077l.8598-.2299c.0578-.0144.1283-.0162.1948.0217.0642.0367.0987.096.1181.1477.082.2227.2017.4012.3609.5234.1579.121.3649.1953.6376.1953.301 0 .5315-.082.6841-.211.15-.1269.2369-.3092.2369-.54 0-.2247-.0902-.3893-.2487-.5028-.1646-.118-.4149-.1887-.7403-.1887h-.2635c-.0656 0-.1343-.0212-.1868-.0737-.0525-.0525-.0737-.1212-.0737-.1868v-.7565c0-.0656.0212-.1343.0737-.1868.0525-.0526.1212-.0737.1868-.0737h.2635c.2648 0 .4754-.0683.6157-.1731.1374-.1026.2118-.2423.2118-.4079 0-.3442-.2982-.632-.785-.632-.4556 0-.7584.2745-.9217.7178-.0194.0518-.0542.1119-.1184.1485-.0665.038-.137.0362-.1948.0217l-.0023-.0006-.8575-.2292c-.0544-.0138-.1188-.0437-.1615-.1077-.0444-.0666-.0465-.1418-.0322-.2061l.0024-.0094c.3154-1.0813 1.171-1.757 2.3115-1.757Z"/>
</g></svg>