<svg xmlns="http://www.w3.org/2000/svg" data-laicon-version="15.0" viewBox="0 0 20 20" fill="black"><g transform="translate(-2 -2)">
  <path d="M6.35 2H14c.8284 0 1.5.6716 1.5 1.5v.7H4.85v-.7c0-.8284.6717-1.5 1.5-1.5Zm-1.5 3.2H15.5V12h-2.3787a1.5 1.5 0 0 0-1.0607.4393l-1.7207 1.7208a1.4998 1.4998 0 0 0-.419.8141L9.5834 17H4.85V5.2ZM9.7779 18 11 20.2H6.35c-.8284 0-1.5-.6716-1.5-1.5V18h4.9278Z"/>
  <path d="M14.3999 12.6c-2.2368 0-4.05 1.8133-4.05 4.05 0 2.2368 1.8132 4.05 4.05 4.05 2.2367 0 4.05-1.8132 4.05-4.05 0-2.2367-1.8133-4.05-4.05-4.05Zm-5.3501 4.05c0-2.9547 2.3953-5.35 5.3501-5.35 2.9547 0 5.35 2.3953 5.35 5.35 0 2.9548-2.3953 5.35-5.35 5.35-2.9548 0-5.3501-2.3952-5.3501-5.35Z"/>
  <path d="M12.7998 14.4501h1.9001c.7179 0 1.2999.582 1.2999 1.3 0 .7179-.582 1.3-1.3 1.3h-1.9v-2.6Zm.8.8v1h1.1a.5004.5004 0 0 0 .5001-.5.4997.4997 0 0 0-.1465-.3535.4997.4997 0 0 0-.3535-.1465h-1.1001Z"/>
  <path d="M12.7998 16.25h2.1c.718 0 1.3.5821 1.3 1.3 0 .718-.582 1.3-1.2999 1.3h-2.1001v-2.6Zm.8.8v1h1.3001a.5.5 0 1 0-.0001-1h-1.3Z"/>
  <path d="M14 19.35v-5.4h.8v5.4H14Z"/>
</g></svg>