<svg xmlns="http://www.w3.org/2000/svg" data-laicon-version="15.0" viewBox="0 0 20 20" fill="black"><g transform="translate(-2 -2)">
  <path d="M18.5001 2.6494h-13c-.634 0-1.15.517-1.15 1.15v8.565h15.3v-8.565c0-.633-.516-1.15-1.15-1.15ZM7.7256 15.4512c.513 0 .93.415.93.928 0 .511-.417.926-.93.926-.514 0-.93-.415-.93-.926 0-.513.416-.928.93-.928Zm8.749-.002c.514 0 .93.416.93.93 0 .512-.416.928-.93.928-.513 0-.93-.416-.93-.928 0-.514.417-.93.93-.93Zm1.875-2.085h-14v5.114c0 .634.517 1.151 1.15 1.151h1.057v2.071h1.301v-2.071h8.285v2.071h1.301v-2.071h1.056c.634 0 1.151-.517 1.151-1.151v-5.114h-1.301Z"/>
</g></svg>