<svg xmlns="http://www.w3.org/2000/svg" data-laicon-version="15.0" viewBox="0 0 20 20" fill="black"><g transform="translate(-2 -2)">
  <path d="M8.7246 4.7178c0-.193.156-.35.35-.35h5.053c.194 0 .35.157.35.35v.899h-5.753v-.899Zm.586 11.75v-6.8h1v6.8h-1Zm3.579 0v-6.8h1v6.8h-1Zm2.889-10.851v-.899c0-.91-.741-1.65-1.651-1.65h-5.053c-.911 0-1.651.74-1.651 1.65v.899h-4.324v1.301h1.608l.405 12.418c.029.895.753 1.597 1.648 1.597h9.678c.895 0 1.62-.702 1.649-1.597l.404-12.418h1.608v-1.301h-4.321Z"/>
</g></svg>