<svg xmlns="http://www.w3.org/2000/svg" data-laicon-version="15.0" viewBox="0 0 20 20" fill="black"><g transform="translate(-2 -2)">
  <path d="M18.75 8.1a7.791 7.791 0 0 0-2.85-2.85A7.7861 7.7861 0 0 0 12 4.2V2L8 5l4 3V5.8c1.08 0 2.15.29 3.1.84.94.54 1.72 1.33 2.27 2.27s.83 2.01.83 3.1c0 1.09-.29 2.15-.83 3.1-.54.94-1.33 1.73-2.27 2.27-1.89 1.09-4.31 1.09-6.19 0a6.1797 6.1797 0 0 1-2.27-2.27 6.1379 6.1379 0 0 1 0-6.2l-1.38-.8a7.7871 7.7871 0 0 0-1.05 3.9c0 1.36.36 2.71 1.05 3.9a7.7895 7.7895 0 0 0 2.85 2.85c1.19.69 2.54 1.05 3.9 1.05 1.36 0 2.71-.36 3.9-1.05a7.7905 7.7905 0 0 0 2.85-2.85 7.7603 7.7603 0 0 0 0-7.8l-.01-.01Z"/>
</g></svg>