<svg xmlns="http://www.w3.org/2000/svg" data-laicon-version="15.0" viewBox="0 0 20 20" fill="black"><g transform="translate(-2 -2)">
  <path d="M11.2617 11.4258c1.931.231 2.217 1.298 2.259 1.619.094.719-.366 1.409-1.144 1.719-.232.093-.457.146-.675.183v1.17h-1v-1.18c-.868-.163-1.522-.689-1.824-1.073l.394-.309.391-.311.002.002c.045.057.944 1.151 2.342.588.341-.135.556-.406.523-.66-.037-.276-.421-.64-1.387-.756-1.93-.23-2.217-1.297-2.259-1.618-.094-.719.365-1.41 1.144-1.72.232-.092.457-.148.674-.183v-1.17h1v1.178c.87.164 1.523.691 1.825 1.076l-.787.617c-.037-.045-.937-1.151-2.342-.588-.341.135-.556.407-.523.66.036.277.421.64 1.387.756Zm3.363 7.716c-.187-.496-.302-1.028-.302-1.589 0-2.496 2.031-4.527 4.527-4.527.07 0 .136.017.205.02.219.011.437.026.647.066.218.042.423.111.629.183.06-.424.102-.854.102-1.295 0-5.09-4.141-9.23-9.231-9.23-5.089 0-9.23 4.14-9.23 9.23 0 5.09 4.141 9.231 9.23 9.231 1.457 0 2.831-.349 4.057-.952-.132-.173-.247-.357-.353-.548-.106-.191-.203-.383-.281-.589Z"/>
  <path d="m18.5029 19.0361 1.084-1.083h-2.934v-.801h2.934l-.454-.453-.471-.471-.159-.159-.062-.061.567-.567.034.034.485.486 1.591 1.592-2.11 2.111-.567-.566.062-.062Zm1.671-4.904c-.2-.078-.406-.144-.622-.186a3.6162 3.6162 0 0 0-.654-.066c-.017 0-.032-.005-.048-.005-2.028 0-3.678 1.65-3.678 3.678 0 .413.084.802.21 1.173.071.21.16.41.267.601.106.19.226.368.363.536.676.827 1.689 1.367 2.838 1.367 2.027 0 3.677-1.65 3.677-3.677 0-1.56-.98-2.887-2.353-3.421Z"/>
</g></svg>