<svg xmlns="http://www.w3.org/2000/svg" data-laicon-version="15.0" viewBox="0 0 20 20" fill="black"><g transform="translate(-2 -2)">
  <path d="M12.0595 11.5039c2.104.252 2.416 1.403 2.461 1.75.102.772-.395 1.517-1.235 1.853-.272.108-.532.166-.786.204v1.35h-1v-1.355c-.971-.168-1.704-.756-2.039-1.183l.394-.308.392-.311c.042.054 1.07 1.313 2.669.673.401-.16.654-.486.614-.793-.045-.343-.486-.755-1.589-.888-2.105-.252-2.416-1.403-2.461-1.75-.102-.772.395-1.516 1.235-1.852.272-.109.532-.168.785-.205v-1.35h1v1.359c.971.168 1.705.753 2.039 1.179l-.787.617c-.041-.052-1.071-1.31-2.667-.671-.401.16-.654.487-.614.793.045.343.486.755 1.589.888Zm-.06-8.754c-5.1 0-9.25 4.15-9.25 9.25 0 5.101 4.15 9.25 9.25 9.25 5.101 0 9.25-4.149 9.25-9.25 0-5.1-4.149-9.25-9.25-9.25Z"/>
</g></svg>