<svg xmlns="http://www.w3.org/2000/svg" data-laicon-version="15.0" viewBox="0 0 20 20" fill="black"><g transform="translate(-2 -2)">
  <path d="M20.3137 16.2876s-3.227-2.081-4.019-2.608c-.387-.258-.148-1.056.007-1.315.156-.258.332-.621.538-1.048.1-.206.207-.428.324-.661.296-.177.627-.527.741-1.352.065-.47-.057-.841-.186-1.085-.058-2.431-1.542-4.116-3.646-4.116-.434 0-.833.088-1.207.223.177.157.342.329.493.517.149.185.288.379.411.592.415.725.678 1.592.727 2.577.186.436.252.921.185 1.407-.112.807-.42 1.411-.917 1.806-.079.161-.153.315-.224.462-.113.232-.216.444-.314.635-.094.184-.181.347-.262.482-.037.064-.073.186-.088.285.129.085.29.19.469.307 1.218.794 3.364 2.178 3.364 2.178.937.642 1.476 1.678 1.476 2.794v2.293h3.216v-2.293c0-.836-.401-1.61-1.088-2.08Z"/>
  <path d="M16.2482 16.2876s-1.937-1.249-3.177-2.056c-.206-.134-.389-.255-.545-.356-.116-.077-.22-.145-.297-.196-.108-.072-.164-.187-.19-.319.024-.123.022-.26 0-.396.038-.244.125-.48.197-.6.054-.089.114-.205.172-.317.11-.208.225-.439.356-.71.004-.007.006-.013.01-.021.1-.206.207-.428.324-.661.296-.177.627-.527.741-1.352.065-.47-.057-.841-.186-1.085-.023-.977-.286-1.825-.718-2.5-.119-.186-.247-.362-.392-.519-.154-.168-.321-.321-.503-.454-.567-.411-1.257-.643-2.033-.643-2.096 0-3.574 1.669-3.644 4.11-.13.245-.254.618-.188 1.092.116.838.457 1.186.741 1.351.116.233.224.455.323.661.206.427.383.79.537 1.048.157.259.396 1.057.008 1.315-.792.527-4.017 2.608-4.033 2.618-.672.46-1.073 1.234-1.073 2.07v2.293h14.658v-2.293c0-.836-.401-1.61-1.088-2.08Z"/>
</g></svg>