<svg xmlns="http://www.w3.org/2000/svg" data-laicon-version="15.0" viewBox="0 0 20 20" fill="black"><g transform="translate(-2 -2)">
  <path d="M10.1045 14.5605c-.244-.386-.514-.828-.907-1.562-.102-.058-.492-.304-.612-1.119-.055-.384.102-.655.193-.777 0-.01-.001-.018-.001-.028 0-2.031 1.4-3.443 3.223-3.443 1.822 0 3.222 1.412 3.222 3.443 0 .01-.001.018-.001.028.091.122.248.393.193.777-.12.815-.51 1.061-.612 1.119-.393.734-.663 1.176-.907 1.562-.286.452-.339 1.251.189 1.622.332.232 1.787 1.233 2.902 2.001-1.365 1.103-3.099 1.767-4.986 1.767-1.888 0-3.622-.664-4.987-1.767.905-.623 2.615-1.801 2.902-2.001.528-.371.475-1.17.189-1.622Zm1.896-11.811c-5.101 0-9.25 4.15-9.25 9.25 0 5.101 4.149 9.25 9.25 9.25 5.1 0 9.25-4.149 9.25-9.25 0-5.1-4.15-9.25-9.25-9.25Z"/>
</g></svg>