<svg xmlns="http://www.w3.org/2000/svg" data-laicon-version="15.0" viewBox="0 0 20 20" fill="black"><g transform="translate(-2 -2)">
  <path d="M6.117 19.2422c0-.65.317-1.257.854-1.626 1.069-.736 2.803-1.93 3.132-2.161.484-.338.436-1.069.174-1.483-.223-.353-.47-.757-.83-1.428-.093-.053-.45-.278-.559-1.023-.051-.352.092-.6.176-.711 0-.009-.002-.017-.002-.026 0-1.857 1.283-3.148 2.949-3.148s2.947 1.291 2.947 3.148c0 .009-.001.017-.001.026.083.111.227.359.176.711-.11.745-.466.97-.559 1.023-.36.671-.606 1.075-.83 1.428-.262.414-.31 1.145.174 1.483.329.231 2.063 1.425 3.133 2.161.536.369.853.976.853 1.626v.208H6.117v-.208Zm11.982-15.992H5.9c-1.461 0-2.65 1.188-2.65 2.65v12.2c0 1.461 1.189 2.65 2.65 2.65h12.199c1.461 0 2.651-1.189 2.651-2.65v-12.2c0-1.462-1.19-2.65-2.651-2.65Z"/>
</g></svg>