<svg xmlns="http://www.w3.org/2000/svg" data-laicon-version="15.0" viewBox="0 0 20 20" fill="black"><g transform="translate(-2 -2)">
  <path d="M12.091 20.3021v-3.0805l2.346-2.346c-.9581-.5889-2.0299-1.2496-2.45-1.5155-.1141-.0722-.1794-.1668-.2106-.3062-.0761-.3394.0799-.7997.2087-1.0035.1628-.2564.3481-.6182.5636-1.0414.1053-.2087.2194-.433.3432-.668.3062-.1706.6534-.5139.7753-1.3457.0692-.472-.0595-.8445-.195-1.0892-.0634-2.4126-1.5993-4.084-3.7787-4.084-2.1687 0-3.7007 1.6558-3.7748 4.079-.1365.2448-.2682.6193-.198 1.0952.1239.8425.4788 1.1838.7743 1.3447.1133.2135.218.419.316.6116l.0321.0632c.2136.4203.3979.7792.5588 1.0346.1297.2038.2857.6641.2097 1.0035-.0322.1394-.0976.234-.2117.3062-.7524.4769-3.6016 2.2233-4.1437 2.5557l-.0894.0547a2.453 2.453 0 0 0-1.1165 2.0605v2.2711H12.091Z"/>
  <path d="M12.8906 17.553v2.7578l2.7577-.0001 6.13-6.1301-2.7577-2.7577-6.13 6.1301Z"/>
</g></svg>