<svg xmlns="http://www.w3.org/2000/svg" data-laicon-version="15.0" viewBox="0 0 20 20" fill="black"><g transform="translate(-2 -2)">
  <path d="M16.3401 21.3584H2.3989v-2.512c0-.7266.3737-1.4117.9862-1.8166l4.7334-3.083c.654-.4567.5917-1.4532.2388-2.0138-.301-.4775-.6332-1.0276-1.1211-1.941-.135-.0728-.6228-.3738-.7682-1.3807-.0726-.4775.1246-.82.2388-.9654v-.0311c0-2.5224 1.7335-4.2663 3.9965-4.2663 2.2629 0 3.9964 1.7542 3.9964 4.2663v.0311c.1142.1454.3114.488.2388.9654-.1454 1.007-.6332 1.3183-.7578 1.391-.4879.9135-.82 1.4532-1.1211 1.9411-.3529.5606-.4152 1.5571.2388 2.0138l2.3492 1.5301-2.5398 2.3452 3.2323 3.5259Z"/>
  <path d="m17.3334 19.0381 3.1875-3.4773.9584.8784-4.1458 4.5227-2.8125-3.068.9582-.8785 1.8542 2.0227Z"/>
</g></svg>