<svg xmlns="http://www.w3.org/2000/svg" data-laicon-version="17.1" viewBox="0 0 20 20" fill="black"><g transform="translate(-2 -2)">
  <path d="m13.015 18.695 2.326-2.326a3.71 3.71 0 0 1 .278-1.67l-2.142-1.395c-.094-.069-.166-.193-.178-.399a1.052 1.052 0 0 1 .14-.586l.004-.005c.266-.431.563-.914.984-1.694.108-.083.24-.206.371-.384.212-.29.396-.697.477-1.259a1.827 1.827 0 0 0-.217-1.188c-.077-2.572-1.92-4.439-4.355-4.439-2.434 0-4.277 1.857-4.354 4.439a1.824 1.824 0 0 0-.217 1.188c.081.562.265.97.482 1.26.131.176.267.297.38.38.417.776.713 1.265.983 1.693.09.142.154.368.14.586-.011.205-.083.33-.177.398l-4.38 2.853-.004.002a2.68 2.68 0 0 0-1.206 2.228v2.98H12.5l.003-1.427c0-.463.185-.907.512-1.235Zm4.321-4.264a2.4 2.4 0 1 1 1.01 3.997l-.554.553a.15.15 0 0 1-.106.044h-.66v.66a.15.15 0 0 1-.043.106l-.252.251a.15.15 0 0 1-.106.044h-.659v.66a.15.15 0 0 1-.044.105l-.375.376a.45.45 0 0 1-.319.131l-.978-.001a.45.45 0 0 1-.45-.451l.002-.974a.45.45 0 0 1 .132-.317l2.8-2.8a2.4 2.4 0 0 1 .602-2.384Zm1.697 1.097a.6.6 0 1 0 0 1.2.6.6 0 0 0 0-1.2Z"/>
</g></svg>