<svg xmlns="http://www.w3.org/2000/svg" data-laicon-version="17.1" viewBox="0 0 20 20" fill="black"><g transform="translate(-2 -2)">
  <path d="M7.785 13.68c-.792.527-4.019 2.608-4.019 2.608a2.506 2.506 0 0 0-1.088 2.08v2.293h3.216v-2.293c0-1.116.539-2.152 1.476-2.794 0 0 2.146-1.384 3.364-2.178l.11-.072.359-.235a.948.948 0 0 0-.088-.285 8.339 8.339 0 0 1-.262-.482 33.126 33.126 0 0 1-.298-.603l-.016-.032-.04-.085-.184-.377c-.497-.395-.805-1-.917-1.806a2.656 2.656 0 0 1 .185-1.407c.049-.985.312-1.852.727-2.577a4.645 4.645 0 0 1 .904-1.11 3.521 3.521 0 0 0-1.207-.222c-2.104 0-3.588 1.685-3.646 4.116a1.776 1.776 0 0 0-.186 1.085c.114.825.445 1.175.741 1.352.1.2.194.392.282.573l.042.088c.206.427.382.79.538 1.048.155.259.394 1.057.007 1.315Z"/>
  <path d="m14.002 19.465-.003 1.129v.067H6.744v-2.293c0-.836.401-1.61 1.088-2.08 0 0 1.937-1.25 3.177-2.056l.276-.18.005-.004.264-.172.19-.125.107-.071a.473.473 0 0 0 .19-.32 1.144 1.144 0 0 1 0-.395 1.856 1.856 0 0 0-.196-.6 5.768 5.768 0 0 1-.171-.314l-.002-.003c-.11-.208-.224-.44-.355-.71l-.006-.012a.172.172 0 0 0-.005-.01l-.042-.087c-.088-.18-.18-.373-.281-.573-.296-.177-.627-.527-.741-1.352-.066-.47.056-.841.186-1.085.023-.977.286-1.825.718-2.5a3.429 3.429 0 0 1 .895-.973 3.415 3.415 0 0 1 2.032-.643c2.097 0 3.575 1.669 3.645 4.11.13.245.254.618.188 1.092-.117.838-.457 1.186-.742 1.35a52.7 52.7 0 0 0-.323.662c-.206.427-.383.79-.537 1.048-.157.259-.396 1.057-.008 1.315l.84.55a3.09 3.09 0 0 0-.61 2.15l-2.123 2.122c-.256.255-.4.601-.4.963Zm4.122-4.851a2.095 2.095 0 1 1 .863 3.482l-.505.505a.1.1 0 0 1-.07.029h-.585a.033.033 0 0 0-.033.033v.584a.1.1 0 0 1-.03.071l-.222.223a.1.1 0 0 1-.071.03h-.584a.033.033 0 0 0-.033.032v.584a.1.1 0 0 1-.03.071l-.332.333a.366.366 0 0 1-.26.107l-.867-.002A.366.366 0 0 1 15 20.33l.002-.863c0-.097.038-.19.107-.258l2.495-2.495a2.094 2.094 0 0 1 .52-2.1Zm1.482.93a.55.55 0 1 0 0 1.1.55.55 0 0 0 0-1.1Z"/>
</g></svg>