<svg xmlns="http://www.w3.org/2000/svg" data-laicon-version="15.0" viewBox="0 0 20 20" fill="black"><g transform="translate(-2 -2)">
  <path d="m15.6317 15.477-2.1698 2.1698 3.7116 3.7116H2.3989v-2.512c0-.7266.3737-1.4117.9862-1.8166l4.7334-3.083c.654-.4567.5917-1.4532.2388-2.0138-.301-.4775-.6332-1.0276-1.1211-1.941-.135-.0728-.6228-.3738-.7682-1.3807-.0726-.4775.1246-.82.2388-.9654v-.0311c0-2.5224 1.7335-4.2663 3.9965-4.2663 2.2629 0 3.9964 1.7542 3.9964 4.2663v.0311c.1142.1454.3114.488.2388.9654-.1454 1.007-.6332 1.3183-.7578 1.391-.4879.9135-.8201 1.4532-1.1211 1.9411-.3529.5606-.4152 1.5571.2388 2.0138l2.3333 1.5198Z"/>
  <path d="m17.365 18.2968 2.2948 2.2948-.9192.9193-3.8641-3.8641 3.8641-3.8641.9192.9192-2.2948 2.2949h4.5588v1.3H17.365Z"/>
</g></svg>