<svg xmlns="http://www.w3.org/2000/svg" data-laicon-version="15.0" viewBox="0 0 20 20" fill="black"><g transform="translate(-2 -2)">
  <path d="M19.3941 16.7227s-3.866-2.369-4.816-2.969c-.086-.055-.316-.2-.296-.694.014-.348.151-.712.271-.902.185-.291.395-.702.639-1.183.124-.244.258-.507.404-.782.339-.184.729-.559.866-1.493.078-.531-.07-.945-.223-1.214-.064-2.721-1.789-4.607-4.239-4.607-2.439 0-4.16 1.869-4.236 4.602-.154.269-.304.685-.226 1.22.138.941.535 1.314.866 1.49.145.276.28.54.404.784.244.481.454.892.639 1.183.12.19.257.554.271.902.02.494-.21.639-.297.694-.949.6-4.815 2.969-4.83 2.979a2.7233 2.7233 0 0 0-1.241 2.29v2.518h17.3v-2.518c0-.928-.464-1.784-1.256-2.3Z"/>
</g></svg>