<svg xmlns="http://www.w3.org/2000/svg" data-laicon-version="15.4" viewBox="0 0 20 20" fill="black"><g transform="translate(-2 -2)">
  <path d="M5.262 15.77c1.09-.669 2.932-1.798 3.518-2.17l-.02.02c.08-.05.29-.19.27-.63-.01-.31-.13-.64-.24-.81-.17-.27-.36-.64-.58-1.07-.11-.22-.23-.46-.36-.71-.3-.16-.66-.49-.78-1.34-.07-.48.06-.86.2-1.1.07-2.47 1.61-4.15 3.82-4.15s3.76 1.7 3.82 4.15c.14.24.27.61.2 1.09-.12.84-.47 1.17-.78 1.34-.13.24-.25.48-.36.7-.22.44-.41.81-.58 1.07-.1.17-.23.5-.24.81-.01.45.19.58.27.63.6.38 2.48 1.54 3.56 2.2l-1.14 4.81H3.31v-2.27c0-.83.42-1.6 1.12-2.06l.832-.51Zm13.748-4.05a.96.96 0 1 1 1.92 0 .96.96 0 0 1-1.92 0Zm-1.35 2.01c0-.13.1-.23.23-.23h1.78c.39.02.7.35.7.75 0 .06 0 .11-.02.17l-1.17 5s-.02.08-.02.13c0 .24.16.45.38.52.05.02.11.03.17.03h.34c.13 0 .23.1.23.23s-.1.22-.23.22h-1.78a.746.746 0 0 1-.7-.75c0-.06 0-.11.02-.17l1.17-5s.01-.08.01-.13a.55.55 0 0 0-.38-.52.508.508 0 0 0-.17-.03h-.34c-.13 0-.23-.1-.23-.23l.01.01Z"/>
</g></svg>