<svg xmlns="http://www.w3.org/2000/svg" data-laicon-version="15.0" viewBox="0 0 20 20" fill="black"><g transform="translate(-2 -2)">
  <path d="M16.5 16s-3.5-2.1-4.4-2.6c-.1 0-.3-.2-.3-.6 0-.3.1-.6.2-.8.2-.3.4-.6.6-1 .1-.2.2-.4.4-.7.3-.2.7-.5.8-1.3.1-.5-.1-.8-.2-1.1-.1-2.4-1.6-4.1-3.8-4.1-2.2 0-3.7 1.7-3.8 4.1-.1.2-.3.6-.2 1 .1.8.5 1.2.8 1.3.1.2.3.5.4.7.2.4.4.8.6 1 .1.2.2.5.2.8 0 .4-.2.6-.3.6-.9.6-4.4 2.7-4.4 2.7-.7.4-1.1 1.2-1.1 2v2.2001h15.7V18c0-.7-.4-1.5-1.2-2Z"/>
  <path d="M21.9998 6.1001h-6.7v1.3h6.7v-1.3Zm0 3.0999h-6.7v1.3h6.7V9.2Zm0 3h-6.7v1.3h6.7v-1.3Z"/>
</g></svg>