<svg xmlns="http://www.w3.org/2000/svg" data-laicon-version="15.0" viewBox="0 0 20 20" fill="black"><g transform="translate(-2 -2)">
  <path d="M10.2335 13.4092c-.23-.363-.483-.778-.854-1.468-.094-.055-.461-.286-.574-1.053-.052-.361.095-.615.181-.729 0-.01-.001-.018-.001-.027 0-1.909 1.316-3.237 3.029-3.237 1.713 0 3.03 1.328 3.03 3.237 0 .009-.001.017-.001.027.086.114.233.368.18.729-.112.767-.479.998-.574 1.053-.37.69-.623 1.105-.853 1.468-.269.425-.318 1.176.178 1.524.33.232 1.843 1.273 2.907 2.005-1.367 1.265-3.184 2.423-4.859 3.275-1.701-.867-3.513-2.022-4.872-3.277 1.064-.732 2.574-1.771 2.904-2.003.496-.348.448-1.099.179-1.524Zm10.082-8.979a.6501.6501 0 0 0-.486-.626c-1.099-.287-4.06-.954-7.815-.954-4.22 0-7.287.832-7.858.999a.6513.6513 0 0 0-.469.624v8.813c0 3.941 6.133 7.288 8.016 8.221.091.046.211.075.311.075.061 0 .141-.015.199-.031a.7085.7085 0 0 0 .111-.043c1.881-.932 8.017-4.28 8.017-8.224l-.026-8.854Z"/>
</g></svg>