<svg xmlns="http://www.w3.org/2000/svg" data-laicon-version="15.0" viewBox="0 0 20 20" fill="black"><g transform="translate(-2 -2)">
  <path d="M2.2002 18.3919V20.82h14.0525v-2.3473h-3.3425v-3.3h2.6195l-2.5092-1.611c-.6509-.4502-.5874-1.4208-.2345-1.9692.3013-.4686.6334-1.0062 1.1188-1.8958.1249-.0713.606-.3704.7529-1.3593a1.2473 1.2473 0 0 0-.2367-.9436c0-.006.0002-.0113.0005-.0167a.2929.2929 0 0 0 .0006-.0167c0-2.466-1.726-4.1804-3.9714-4.1804-2.2464 0-3.9724 1.7145-3.9724 4.1804a.314.314 0 0 0 .0006.0167.3254.3254 0 0 1 .0005.0167 1.2469 1.2469 0 0 0-.2367.9436c.1469.989.628 1.288.7529 1.3593.4854.8896.8175 1.4272 1.1188 1.8958.3529.5484.4164 1.519-.2334 1.9692l-4.676 3.0014c-.6267.4027-1.0048 1.0904-1.0048 1.8288Z"/>
  <path d="M13.9102 16.1728h7.986v1.3h-7.986v-1.3Z"/>
  <path d="M18.5524 12.83v7.986h-1.3V12.83h1.3Z"/>
</g></svg>