<svg xmlns="http://www.w3.org/2000/svg" data-laicon-version="16.3" viewBox="0 0 20 20" fill="black"><g transform="translate(-2 -2)">
  <path d="M18.951 5.922 5.918 18.969a9.247 9.247 0 0 1-3.168-6.964c0-5.103 4.148-9.255 9.245-9.255 2.779 0 5.257 1.23 6.956 3.172Zm-6.956 1.71c-1.819 0-3.218 1.411-3.218 3.443v.03c-.09.13-.24.4-.19.78.12.82.51 1.06.61 1.12.11.21.21.4.31.57l4.867-4.872a3.1 3.1 0 0 0-2.379-1.07Zm3.368 3.723 4.388-4.393a9.14 9.14 0 0 1 1.499 5.033c0 5.103-4.148 9.255-9.245 9.255a9.223 9.223 0 0 1-5.027-1.5l.94-.941a7.895 7.895 0 0 0 4.087 1.14c1.889 0 3.628-.67 4.987-1.77-.659-.458-1.442-.998-2.038-1.408-.407-.28-.726-.5-.86-.594-.53-.37-.48-1.17-.19-1.62.25-.38.52-.831.91-1.562.1-.06.49-.3.61-1.12.03-.21-.01-.38-.06-.52Z"/>
</g></svg>