<svg xmlns="http://www.w3.org/2000/svg" data-laicon-version="18.8" viewBox="0 0 20 20" fill="black"><g transform="translate(-2 -2)">
  <path d="M10.44 3.14c2.175 0 3.846 1.675 3.846 4.084l-.002.032c.11.143.297.466.23.922-.142.966-.607 1.257-.729 1.327a29.07 29.07 0 0 1-1.083 1.852c-.342.536-.404 1.484.226 1.923l.476.309c-.392.356-.638.87-.638 1.442v5.03c0 .105.01.208.027.31H2.449v-2.31c0-.76.387-1.468 1.029-1.883L7.95 13.28c.632-.44.568-1.387.227-1.923a28.105 28.105 0 0 1-1.082-1.852c-.123-.07-.588-.361-.73-1.327a1.22 1.22 0 0 1 .23-.922l-.002-.032c0-2.41 1.671-4.084 3.847-4.084Zm6.892 17.87h-2.616a.95.95 0 0 1-.95-.95v-2.703h3.566v3.653Zm4.573-.95a.95.95 0 0 1-.949.95h-2.624v-3.653h3.573v2.703Zm-4.573-3.703h-3.566V15.03a.95.95 0 0 1 .95-.95h1.55l-.903-.903.92-.92 1.049 1.05v3.049Zm3.624-2.277a.95.95 0 0 1 .95.95v1.327h-3.574v-3.044l1.055-1.055.92.92-.903.903h1.552Z"/>
</g></svg>