<svg xmlns="http://www.w3.org/2000/svg" data-laicon-version="15.0" viewBox="0 0 20 20" fill="black"><g transform="translate(-2 -2)">
  <path d="m15.3162 13.897 5.7273 5.7273-.9192.9192-5.7273-5.7273.9192-.9192Z"/>
  <path d="m21.0435 14.8162-5.7273 5.7273-.9192-.9192 5.7272-5.7273.9193.9192Zm-18.087 5.2569v-2.2872c0-.6956.3509-1.3434.9326-1.7228l4.3395-2.8272c.603-.4241.5441-1.3383.2166-1.855-.2796-.4413-.5878-.9478-1.0383-1.7858-.116-.0671-.5624-.3488-.6987-1.2804-.064-.4393.116-.7495.2197-.8889 0-.0055-.0003-.0106-.0005-.0157a.2998.2998 0 0 1-.0005-.0158c0-2.3228 1.6017-3.9378 3.6866-3.9378 2.0838 0 3.6855 1.615 3.6855 3.9378a.2622.2622 0 0 1-.0005.0158l-.0004.0085-.0001.0072c.1037.1394.2838.4496.2197.8889-.1363.9316-.5828 1.2133-.6987 1.2804-.4505.838-.7587 1.3445-1.0383 1.7858-.3275.5167-.3865 1.4309.2176 1.855l1.0759.7012-.8791.879 2.3383 2.4694-2.3386 2.3387.449.4489H2.9565Z"/>
</g></svg>