<svg xmlns="http://www.w3.org/2000/svg" data-laicon-version="15.0" viewBox="0 0 20 20" fill="black"><g transform="translate(-2 -2)">
  <path d="M13.7068 14.3723a2.143 2.143 0 0 0-.1569.8077v4.125c0 .4208.1209.8134.33 1.145h-11.73v-2.2642c0-.7453.377-1.4408 1.002-1.8481l4.3594-2.8416c.6153-.4312.5536-1.3607.221-1.8861-.2838-.4496-.5969-.9631-1.0552-1.8168-.1191-.0682-.573-.3542-.7117-1.3021-.065-.4474.118-.7627.2243-.9035a.3193.3193 0 0 0-.0006-.017.291.291 0 0 1-.0005-.0155c0-2.3628 1.6282-4.0051 3.7483-4.0051s3.7494 1.6423 3.7494 4.005c0 .0054-.0005.0104-.001.0155a.1508.1508 0 0 0-.0011.017c.1061.1409.2892.4561.2242.9036-.1387.9479-.5926 1.2339-.7107 1.3021-.4593.8537-.7724 1.3672-1.0551 1.8168-.3337.5254-.3944 1.4549.2199 1.8861l1.3443.8762Zm2.0134-1.3203c0-1.371 1.111-2.482 2.482-2.482 1.371 0 2.482 1.111 2.482 2.482v1.622h-1.3v-1.622c0-.653-.529-1.182-1.182-1.182-.653 0-1.182.529-1.182 1.182v1.622h-1.3v-1.622Z"/>
  <path d="M14.5498 15.18c0-.635.515-1.15 1.15-1.15h5.008c.6331 0 1.15.5142 1.15 1.15v4.125c0 .6359-.5169 1.15-1.15 1.15h-5.008c-.635 0-1.15-.515-1.15-1.15V15.18Zm3.15 1.24v1.775h1V16.42h-1Z"/>
</g></svg>