<svg xmlns="http://www.w3.org/2000/svg" data-laicon-version="15.0" viewBox="0 0 20 20" fill="black"><g transform="translate(-2 -2)">
  <path d="M7.309 3.9766c-2.135 0-3.873 1.737-3.873 3.873 0 1.86 1.321 3.417 3.073 3.787v8.736h1.6v-8.736c1.752-.37 3.072-1.927 3.072-3.787 0-2.136-1.737-3.873-3.872-3.873Zm11.8049.6504V7.85c0 1.053-.681 1.943-1.623 2.275V4.627h-1.6v5.498c-.941-.332-1.622-1.222-1.622-2.275V4.627h-1.6V7.85c0 1.944 1.386 3.568 3.222 3.94v8.583h1.6V11.79c1.836-.372 3.223-1.996 3.223-3.94V4.627h-1.6Z"/>
</g></svg>