<svg xmlns="http://www.w3.org/2000/svg" data-laicon-version="17.5" viewBox="0 0 20 20" fill="black"><g transform="translate(-2 -2)">
  <path d="M17.33 4.46s2.13 3.12 2.13 7.54-2.11 7.51-2.13 7.54l-.32.46h1.92c.64-1.09 2.13-4.04 2.13-8s-1.49-6.91-2.13-8h-1.92l.32.46ZM6.67 19.54S4.54 16.42 4.54 12s2.11-7.51 2.13-7.54L6.99 4H5.07c-.64 1.09-2.13 4.04-2.13 8s1.49 6.91 2.13 8h1.92l-.32-.46ZM16 9.3h.8V7.7H16c-1.2 0-2.33.58-3.02 1.56l-.8 1.12-.42-.98a2.796 2.796 0 0 0-2.57-1.7h-.98v1.6h.98c.48 0 .91.29 1.1.73l.8 1.87-1.37 1.91c-.4.55-1.04.89-1.72.89h-.8v1.6H8c1.2 0 2.33-.58 3.02-1.56l.8-1.12.42.98c.44 1.03 1.45 1.7 2.57 1.7h.98v-1.6h-.98c-.48 0-.91-.29-1.1-.73l-.8-1.87 1.37-1.91c.4-.55 1.04-.89 1.72-.89Z"/>
</g></svg>