<svg xmlns="http://www.w3.org/2000/svg" data-laicon-version="15.0" viewBox="0 0 20 20" fill="black"><g transform="translate(-2 -2)">
  <path d="M8.6786 4.5576h8.036l-.561-2.035c-.079-.282-.335-.478-.627-.478l-7.01.001a.652.652 0 0 0-.627.478l-.56 2.034h1.349Zm6.6885 14.9209h-8.037l.561 2.035c.079.282.335.478.627.478l7.011-.001a.652.652 0 0 0 .627-.478l.56-2.034h-1.349Zm-6.2208-7.542.707-.707 1.593 1.593 2.706-2.705.707.707-3.413 3.412-2.3-2.3Zm8.692-6.078a2.5108 2.5108 0 0 0-.842-.284c-.124-.019-.247-.038-.376-.038h-9.194c-.129 0-.253.019-.377.038-.301.045-.583.143-.841.284-.798.435-1.347 1.272-1.347 2.244v7.833c0 .971.549 1.807 1.346 2.242.258.141.54.239.842.284.124.019.247.038.376.038h9.195c.129 0 .252-.019.376-.038.302-.045.584-.143.842-.284.798-.435 1.346-1.271 1.346-2.242v-7.834c0-.971-.549-1.808-1.346-2.243Z"/>
</g></svg>