<svg xmlns="http://www.w3.org/2000/svg" data-laicon-version="15.0" viewBox="0 0 20 20" fill="black"><g transform="translate(-2 -2)">
  <path d="M11.2998 6.9817c1.0253-.285 1.7799-1.2268 1.7799-2.3417 0-1.34-1.09-2.43-2.43-2.43s-2.43 1.09-2.43 2.43c0 1.115.7547 2.0568 1.78 2.3417V14.73h5.8501l3.15 4.76c.2.3.6.38.9.18.3-.2.38-.6.18-.9l.01.01-3.54-5.35h-5.25v-1.7h3.13c.36 0 .65-.29.65-.65 0-.36-.29-.65-.65-.65h-3.13V6.9817Z"/>
  <path d="M8.6496 16.08V8.23c-2.76.85-4.76 3.42-4.76 6.45 0 3.73 3.02 6.75 6.7601 6.75 2.48 0 4.64-1.34 5.81-3.33l-1.34-2.02h-6.47Z"/>
</g></svg>