<svg xmlns="http://www.w3.org/2000/svg" data-laicon-version="15.0" viewBox="0 0 20 20" fill="black"><g transform="translate(-2 -2)">
  <path d="M12.0001 4c3.67 0 7.13 1.49 9.72 4.18.38.39.37 1.03-.03 1.41-.19.19-.43.28-.69.28-.26 0-.52-.11-.72-.31-2.21-2.3-5.15-3.57-8.28-3.57-3.13 0-6.07 1.27-8.28 3.57-.38.4-1.01.41-1.41.03-.4-.38-.41-1.01-.03-1.41 2.59-2.7 6.05-4.18 9.72-4.18Zm-1.3702 13.98c0-.76.61-1.38 1.37-1.38.75 0 1.37.63 1.37 1.38 0 .75-.62 1.37-1.37 1.37-.75 0-1.37-.61-1.37-1.37Z"/>
  <path d="M11.995 8.3c-2.528.0014-4.8961 1.0413-6.685 2.9301-.38.4-.36 1.03.04 1.41.4.38 1.03.36 1.41-.04 1.4-1.48 3.26-2.3001 5.23-2.3001 1.97 0 3.83.8201 5.23 2.3001.2.21.46.31.7301.31.25 0 .4899-.09.6899-.27.4-.38.42-1.01.04-1.41-1.7788-1.8888-4.1568-2.9287-6.685-2.93Z"/>
  <path d="M8.2703 14.22c.99-1.1 2.32-1.71 3.73-1.71 1.42 0 2.74.61 3.73 1.71.37.41.33 1.04-.08 1.41-.19.17-.43.25-.67.25-.28 0-.55-.11-.75-.33-1.21-1.35-3.26-1.35-4.47 0-.37.41-1 .45-1.41.08-.41-.37-.45-1-.08-1.41Z"/>
</g></svg>