<svg xmlns="http://www.w3.org/2000/svg" data-laicon-version="15.0" viewBox="0 0 20 20" fill="black"><g transform="translate(-2 -2)">
  <path d="M13.6241 11.6348v1h-1.956v1.105h1.956v1h-1.956v1.254h-1v-1.254h-1.955v-1h1.955v-1.105h-1.955v-1h1.589l-1.736-3.008h1.155l1.447 2.508 1.448-2.508h1.155l-1.736 3.008h1.589Zm1.002 7.507c-.188-.496-.303-1.028-.303-1.589 0-2.496 2.03-4.527 4.527-4.527.07 0 .135.017.205.02.219.01.437.026.647.066.217.042.423.111.628.183.06-.425.102-.854.102-1.295 0-5.09-4.141-9.23-9.23-9.23s-9.229 4.14-9.229 9.23c0 5.09 4.14 9.231 9.229 9.231 1.457 0 2.831-.349 4.057-.952-.132-.173-.247-.357-.353-.548-.106-.191-.203-.384-.28-.589Z"/>
  <path d="m18.5034 19.0371 1.083-1.084h-2.934v-.801h2.934l-.454-.454-.47-.471-.159-.159-.061-.06.565-.567.035.034.484.485 1.593 1.593-2.112 2.111-.565-.566.061-.061Zm1.67-4.906c-.2-.077-.406-.143-.622-.185-.212-.042-.43-.063-.654-.066-.016 0-.031-.005-.047-.005-2.028 0-3.678 1.65-3.678 3.678 0 .412.084.802.21 1.172.071.211.161.411.267.602.106.19.227.368.363.535.675.828 1.689 1.368 2.838 1.368 2.028 0 3.677-1.65 3.677-3.677 0-1.56-.981-2.888-2.354-3.422Z"/>
</g></svg>