<svg xmlns="http://www.w3.org/2000/svg" data-laicon-version="15.0" viewBox="0 0 20 20" fill="black"><g transform="translate(-2 -2)">
  <path d="M6.3605 4.74v14.5196h13.4543V4.7399H6.3605Zm-1.3-.1494c0-.636.516-1.1507 1.151-1.1507h13.7523c.6352 0 1.151.5147 1.151 1.1507V19.409c0 .6359-.5159 1.1506-1.151 1.1506H6.2116c-.6354 0-1.151-.5148-1.151-1.1506V4.5906Z"/>
  <path d="M11.4719 9.1184a.6801.6801 0 0 1 .0009.035v.2175l-.0933.1238a1.3233 1.3233 0 0 0-.0339.12 1.1894 1.1894 0 0 0-.0258.1469c-.0037.0352-.0029.0519-.003.0531.0221.1456.0638.1958.0688.2019.0046.0056.0068.0069.0059.0062l.0013.0009.0047.0027.0176.0101.1589.0923.0871.162c.2221.4132.3775.6724.516.893.1279.1413.2046.3037.2513.4309.0607.1655.0967.3428.1118.5095.015.1644.0123.3476-.0239.5221-.0299.144-.1116.4267-.3729.61l-.0034.0023-2.3873 1.6524-.0076.0049c-.1231.0803-.2889.218-.4163.3675-.0627.0736-.1046.1366-.1285.1841a.2847.2847 0 0 0-.0165.0385v.2733h7.8089v-.2754a.2892.2892 0 0 0-.0172-.0413c-.0234-.0476-.0644-.1104-.1255-.1834-.1245-.1486-.2864-.2847-.4069-.3633l-.0076-.0049-2.3908-1.6547c-.2572-.1804-.3429-.456-.3756-.6039-.0386-.1747-.0434-.3576-.031-.5206.0126-.1654.0451-.34.1001-.5023.0429-.1266.1148-.2918.2384-.4364.14-.2226.2967-.4833.5219-.9023l.0869-.1617.1587-.0924c.0299-.0174.032-.0181.0338-.0192a.0556.0556 0 0 0 .0141-.0124c.0057-.0065.0458-.0526.0668-.1867-.0001-.0042-.0003-.0182-.0035-.0437a1.1349 1.1349 0 0 0-.0288-.1433 1.29 1.29 0 0 0-.041-.1294c0-.0001 0 0 0 0l-.0987-.1313v-.2172a.6793.6793 0 0 1 .0009-.0352c-.0097-.9296-.8078-1.6628-1.5936-1.6628-.7961 0-1.6122.7435-1.6222 1.6629Zm-1.2971-.1143c.0722-1.59 1.4469-2.8486 2.9193-2.8486 1.4807 0 2.8173 1.2654 2.8905 2.8437a2.5867 2.5867 0 0 1 .0991.3016c.0434.165.1002.4394.0628.697-.0552.3762-.1975.6576-.3729.8597a1.3574 1.3574 0 0 1-.2097.1957 15.083 15.083 0 0 1-.52.8846l-.0432.0682-.0251.0238a.3538.3538 0 0 0-.0062.0169.7873.7873 0 0 0-.035.1837.8162.8162 0 0 0-.0024.059l2.229 1.5427c.2189.1439.4756.3617.6855.6123.1925.2297.4462.605.4462 1.0465v1.5884H7.8837v-1.5884c0-.4463.262-.8234.4557-1.0507.2128-.2498.4715-.4659.6877-.608l2.2215-1.5376a.8418.8418 0 0 0-.003-.0528c-.0065-.0705-.0213-.1347-.0376-.179a.3447.3447 0 0 0-.005-.013l-.0364-.0316-.0509-.0804c-.1457-.2301-.3046-.4906-.5224-.8888a1.339 1.339 0 0 1-.2087-.2029c-.1677-.2025-.3008-.4797-.3548-.8478-.0359-.2468.0109-.5137.0502-.6808a2.537 2.537 0 0 1 .0775-.2666c.0043-.012.01-.028.0173-.0469Zm-.0004.193-.0001-.0015.0001.0014Zm-7.2843 5.601H6.371v1.3H2.8901v-1.3Zm0-6.7861H6.371v1.3H2.8901v-1.3Z"/>
</g></svg>