<svg xmlns="http://www.w3.org/2000/svg" data-laicon-version="15.0" viewBox="0 0 20 20" fill="black"><g transform="translate(-2 -2)">
  <path d="m12.2357 9.7694-3.455 5.3857h6.91l-3.455-5.3857ZM15.481 10.1943a.4248.4248 0 1 0 0-.8496.4248.4248 0 0 0 0 .8496Z"/>
  <path d="M15.4811 8.6946c-.5936 0-1.0749.4812-1.0749 1.0748 0 .5936.4813 1.0748 1.0749 1.0748.5936 0 1.0748-.4812 1.0748-1.0748 0-.5936-.4812-1.0748-1.0748-1.0748Z"/>
  <path d="M5.9494 4.75v14.5h13.4242V4.75H5.9494Zm-1.3-.15c0-.6351.515-1.15 1.15-1.15h13.7242c.6351 0 1.15.5149 1.15 1.15v14.8c0 .6351-.5149 1.1499-1.15 1.1499H5.7994c-.6353 0-1.15-.5149-1.15-1.1499V4.6Z"/>
  <path d="M2.4512 14.8043h2.8484v1.3H2.4512v-1.3Zm0-6.7882h2.8484v1.3H2.4512v-1.3Z"/>
</g></svg>