<svg xmlns="http://www.w3.org/2000/svg" data-laicon-version="15.0" viewBox="0 0 20 20" fill="black"><g transform="translate(-2 -2)">
  <path d="M11.3501 21.8335v-10.667h1.3v10.667h-1.3Z"/>
  <path d="M10.4751 11.1661c0-.842.683-1.525 1.525-1.525.842 0 1.525.683 1.525 1.525 0 .843-.683 1.526-1.525 1.526-.842 0-1.525-.683-1.525-1.526Z"/>
  <path d="M14.0001 16.0944c1.9452-.7902 3.3165-2.6986 3.3165-4.9279 0-2.936-2.38-5.317-5.317-5.317-2.9362 0-5.316 2.3812-5.316 5.317 0 2.2294 1.3714 4.138 3.3165 4.9281v-1.4435c-1.205-.6932-2.0165-1.9939-2.0165-3.4846 0-2.2182 1.7982-4.017 4.016-4.017 2.2189 0 4.017 1.7989 4.017 4.017 0 1.4905-.8113 2.7911-2.0165 3.4844v1.4435Z"/>
  <path d="M14.0001 19.5841c3.8128-.9027 6.65-4.329 6.65-8.4176 0-4.777-3.873-8.65-8.65-8.65s-8.65 3.873-8.65 8.65c0 4.0886 2.8372 7.515 6.65 8.4176v-1.343c-3.0872-.8712-5.35-3.7089-5.35-7.0746 0-4.059 3.291-7.35 7.35-7.35 4.059 0 7.35 3.291 7.35 7.35 0 3.3657-2.2628 6.2034-5.35 7.0745v1.3431Z"/>
</g></svg>