<svg xmlns="http://www.w3.org/2000/svg" data-laicon-version="15.0" viewBox="0 0 20 20" fill="black"><g transform="translate(-2 -2)">
  <path d="M12.1001 14.3c-2.7 0-5-2.1-5-4.7s2.2-4.7 5-4.7 5 2.1 5 4.7-2.3 4.7-5 4.7Zm0-8.1c-2 0-3.7 1.5-3.7 3.4s1.6 3.4 3.7 3.4 3.7-1.5 3.7-3.4-1.7-3.4-3.7-3.4Z"/>
  <path d="M19.8998 21.1h-15.6c-.4 0-.6-.3-.6-.7 0-2.2.1-3.9 1.7-4.8.1-.5.4-1 .8-1.3-.4-.3-.6-.8-.7-1.3-1.2-.5-1.4-1.9-1.4-2.9 0-1.3.2-2.2.7-2.7.2-.2.4-.3.7-.4.8-2.9 3.2-4.5 6.7-4.5s5.8 1.6 6.6 4.5c.3.1.5.2.7.4.5.5.7 1.3.7 2.7 0 1.1-.2 2.5-1.4 2.9-.1.4-.3 1-.6 1.5.4.3.6.7.7 1.2 1.9.9 1.8 3 1.7 4.8 0 .3-.3.6-.7.6Zm-15-1.3h14.4c0-1.7-.1-2.7-1.3-3.1-.3-.1-.5-.4-.4-.7 0-.4-.2-.7-.6-.7-.3 0-.6-.2-.6-.5-.1-.3.1-.6.4-.7.2-.1.7-1 .8-1.8 0-.3.3-.5.5-.5s.7-.1.7-1.8c0-1.4-.2-1.7-.3-1.7h-.1c-.3.1-.7-.2-.8-.5v-.1c-.5-2.5-2.4-3.9-5.4-3.9-4.1 0-5.2 2.4-5.5 3.9-.1.3-.5.6-.8.6h-.2s-.3.4-.3 1.7c0 1.7.5 1.7.7 1.8.3 0 .5.3.5.5.1.7.4 1.3.9 1.8.2.2.3.5.2.7-.1.3-.3.5-.6.5s-.6.3-.6.6-.1.6-.4.7c-.8.5-1.1 1.2-1.2 3.2Z"/>
  <path d="M16.6999 20.4h-1.3v-1.3c0-.2-.2-.3-.3-.3h-6.1c-.2 0-.4.2-.4.3v1.3h-1.2v-1.3c0-.9.7-1.7 1.6-1.7h6c.9 0 1.7.7 1.7 1.7v1.3ZM13.9573 7.6101l-1.0305.7925.9753 1.2683 1.0305-.7925-.9753-1.2683Z"/>
</g></svg>