<svg xmlns="http://www.w3.org/2000/svg" data-laicon-version="15.0" viewBox="0 0 20 20" fill="black"><g transform="translate(-2 -2)">
  <path d="M5.7003 14.3c0-.4 0-.8.1-1.3h-2.3c0-.7.1-1.4.1-1.6.5-1 1.4-1.4 1.4-1.4.3-.1.5-.3.5-.6s-.2-.5-.4-.6c-.3-.1-.5-.5-.6-.8-.1-.3-.3-.4-.6-.4 0 0-.1-.1-.1-.3v-.1c0-.2 0-.7.1-.9.2 0 .5-.2.5-.4.2-.7.9-2 2.7-2 1.8 0 2.5 1.2 2.7 2 .1.2.2999.4.4999.4.1.2.1.7.1.9v.1c0 .2-.1.3 0 .3-.3 0-.5.2-.6.4 0 .1-.1.3-.2.5.6-.3 1.3-.4 2-.5.1-.2.2-.5.2-.7v-.1c0-.6 0-1.4-.5-1.9-.1-.1-.2-.2-.3-.2-.6-1.6-2-2.5-3.8-2.5-1.8 0-3.2.9-3.9 2.5-.1 0-.2.1-.3.2-.5.5-.5 1.2-.5 1.9v.1c0 .8.4 1.3.9 1.5.1.1.2.3.3.5-.4.3-.9.8-1.2 1.6-.2.6-.2 2.3-.2 2.8 0 .4.3.6.6.6h2.8Zm15.7995-3.4c-.3-.8-.8-1.3-1.2-1.6.1-.2.2-.4.3-.5.5-.2.9-.7.9-1.5v-.1c0-.6 0-1.4-.5-1.9-.1-.1-.2-.2-.3-.2-.6-1.6-2-2.5-3.8-2.5-1.8 0-3.2.9-3.8 2.5-.1.1-.2.1-.3.2-.5.5-.5 1.2-.5 1.9v.1c0 .3.1.5.2.7.7 0 1.4.2 2 .5-.1-.2-.2-.3-.3-.5-.1-.2-.3-.4-.5-.4 0 0-.1-.1-.1-.3v-.1c0-.2 0-.7.1-.9.2 0 .5-.2.5-.4.2-.7.9-2 2.7-2 1.8 0 2.5 1.2 2.7 2 .1.2.3.4.5.4.1.2.1.7.1.9v.1c0 .2-.1.3 0 .3-.3 0-.5.2-.6.4-.1.3-.4.7-.6.8-.3.1-.4.3-.4.6s.2.5.4.6c0 0 1 .3 1.4 1.3.1.2.1.9.1 1.6h-2.3c.1.5.1.9.1 1.3h2.8c.4 0 .6-.3.7-.6 0-.5 0-2.1-.3-2.7Z"/>
  <path d="M16.9 18.2001c-.3-.8-.9-1.3-1.3-1.7.2-.2.3-.4.4-.6.5-.2.9-.7.9-1.6v-.1c0-.7 0-1.5-.5-2-.1-.1-.2-.2-.3-.2-.7-1.7-2.2-2.7-4-2.7-1.9 0-3.4 1-4 2.7-.1.1-.2.1-.3.2-.5.5-.5 1.3-.5 2v.1c0 .8.4 1.4.9 1.6.1.2.2.4.4.6-.5.3-1 .9-1.3 1.7-.3.6-.3 2.4-.3 2.9 0 .4.3.6.6.6h9.1c.4 0 .6-.3.7-.6-.2-.5-.2-2.2-.5-2.9Zm-4 2.3h-1.7v-.5h1.7v.5Zm1.3 0v-1.2c0-.4-.3-.7-.7-.7h-3c-.4 0-.6.3-.6.7v1.2H8.1c0-.8.1-1.6.2-1.8.4-1.1 1.4-1.4 1.5-1.4.3-.1.5-.3.5-.6s-.2-.5-.4-.6c-.2-.1-.5-.6-.7-.9-.1-.2-.3-.4-.5-.4 0 0-.1-.1-.1-.4v-.1c0-.2 0-.8.1-1 .3 0 .5-.2.6-.5.2-.8 1-2.1 2.9-2.1 2 0 2.7 1.3 2.9 2.1.1.2.3.4.6.4.1.2.1.7.1 1v.1c0 .3-.1.4-.1.4-.3 0-.5.2-.6.4-.1.3-.4.8-.7.9-.3.1-.4.3-.4.6s.2.5.4.6c0 0 1.1.4 1.5 1.4.1.2.1 1 .2 1.8h-1.9v.1Z"/>
</g></svg>