<svg xmlns="http://www.w3.org/2000/svg" data-laicon-version="16.11" viewBox="0 0 20 20" fill="black"><g transform="translate(-2 -2)">
  <path d="M5.15 12a6.85 6.85 0 1 1 13.538 1.489c-.076.343-.252.84-.55 1.235-.288.383-.65.626-1.138.626a.85.85 0 0 1-.85-.85V9a.65.65 0 0 0-1.3-.016 4.15 4.15 0 1 0 .05 5.984A2.15 2.15 0 0 0 17 16.65c1.012 0 1.723-.541 2.176-1.143.444-.59.68-1.278.781-1.737A8.15 8.15 0 1 0 12 20.15a.65.65 0 1 0 0-1.3A6.85 6.85 0 0 1 5.15 12Zm9.7 0a2.85 2.85 0 1 1-5.7 0 2.85 2.85 0 0 1 5.7 0Z"/>
</g></svg>