<svg xmlns="http://www.w3.org/2000/svg" data-laicon-version="15.0" viewBox="0 0 20 20" fill="black"><g transform="translate(-2 -2)">
  <path d="m15.9541 13.3173-2.9737 8.0446a.65.65 0 0 1-1.2205-.0032l-2.8737-7.8992 1.2217-.4444 2.2677 6.2335 2.3591-6.382 1.2194.4507Z"/>
  <path d="M14.5508 6.8954a8.805 8.805 0 0 0-.45-1.401c.9233-.8165 2.1518-1.2434 3.5602-.9796 1.3834.2592 2.3429 1.1987 2.8493 2.3548.5017 1.1456.5762 2.5303.2077 3.8004-.7445 2.5656-3.3335 4.0307-5.4557 3.4563-.6877-.1862-1.2782-.5724-1.7467-1.0878a6.8082 6.8082 0 0 0 .676-1.243c.3612.5486.8571.9262 1.4104 1.0759 1.3561.3671 3.2961-.5944 3.8675-2.5636.2893-.9973.2218-2.0677-.15-2.9166-.3673-.8384-1.0129-1.4328-1.8979-1.5986-1.1508-.2156-2.1689.2306-2.8708 1.1028Z"/>
  <path d="M4.8752 5.749c-.4852 1.124-.5687 2.5354-.1886 3.849.7535 2.6049 3.298 3.9 5.1048 3.4097 1.764-.4787 3.0648-2.7446 2.5284-5.4021-.5374-2.663-2.5318-4.4402-4.9282-3.992-1.18.2208-2.0356 1.0217-2.5164 2.1354Zm-1.1935-.5152c.6173-1.43 1.7858-2.5828 3.4709-2.898 3.334-.6237 5.817 1.9184 6.4415 5.0126.6257 3.0998-.8335 6.2006-3.4623 6.9139-2.586.7017-5.7716-1.1144-6.694-4.303-.458-1.583-.369-3.3057.2439-4.7255Z"/>
  <path d="M5.6871 5.9503c.6786-1.2922 1.7033-1.5415 2.2122-1.6265l.2141 1.2823c-.3173.053-.8665.1701-1.2753.9486-.2414.4596-.2747 1.124-.1574 1.7276l-1.276.248c-.1482-.7621-.1478-1.7607.2824-2.58Z"/>
</g></svg>