<svg xmlns="http://www.w3.org/2000/svg" data-laicon-version="15.0" viewBox="0 0 20 20" fill="black"><g transform="translate(-2 -2)">
  <path d="M8.1402 17.331c1.3179 1.2513 3.0992 2.019 5.06 2.019 4.0592 0 7.35-3.2907 7.35-7.35 0-4.0593-3.2908-7.35-7.35-7.35-1.9608 0-3.7421.7677-5.06 2.019l-.9195-.9195C8.774 4.2631 10.8804 3.35 13.2002 3.35c4.7772 0 8.65 3.8727 8.65 8.65s-3.8728 8.65-8.65 8.65c-2.3197 0-4.4261-.9131-5.9795-2.3995l.9195-.9195Z"/>
  <path d="M13.1999 11.25a.75.75 0 1 0 0 1.5.75.75 0 0 0 0-1.5Zm-2.05.75c0-1.1322.9179-2.05 2.05-2.05 1.1322 0 2.05.9178 2.05 2.05 0 1.1322-.9178 2.05-2.05 2.05-1.1321 0-2.05-.9178-2.05-2.05Zm-1.75-1.85h-5.5v-1.3h5.5v1.3ZM7.5 12.65H2v-1.3h5.5v1.3Z"/>
  <path d="m13.7095 10.6469 2.8501-2.625.8807.9562-2.85 2.625-.8808-.9562ZM9.3999 15.15h-5.5v-1.3h5.5v1.3Z"/>
</g></svg>