<svg xmlns="http://www.w3.org/2000/svg" data-laicon-version="15.0" viewBox="0 0 20 20" fill="black"><g transform="translate(-2 -2)">
  <path d="M17.9999 5.55h-15.31v-1.3H18v1.3Zm-8.01 12.092h-7.3v-1.3h7.3v1.3Zm-7.3-6.046h11v-1.3h-11v1.3Zm9.83 5.504a2.6504 2.6504 0 0 1 2.6718-2.6496 2.6504 2.6504 0 0 1 1.3282.3696V9.146c0-.964 1.19-1.418 1.832-.7l2.736 3.057-.97.867-2.298-2.57v7.149h-.004a2.6492 2.6492 0 0 1-.6958 1.9397 2.6488 2.6488 0 0 1-1.8751.8547 2.6494 2.6494 0 0 1-1.9206-.7472 2.65 2.65 0 0 1-.8045-1.8972v.001Zm2.65-1.35a1.35 1.35 0 1 0 0 2.7 1.35 1.35 0 0 0 0-2.7Z"/>
</g></svg>