<svg xmlns="http://www.w3.org/2000/svg" data-laicon-version="15.0" viewBox="0 0 20 20" fill="black"><g transform="translate(-2 -2)">
  <path d="M12.0001 4.15c-4.3354 0-7.85 3.5145-7.85 7.85 0 4.3354 3.5146 7.85 7.85 7.85s7.85-3.5146 7.85-7.85c0-4.3355-3.5146-7.85-7.85-7.85ZM2.8501 12c0-5.0534 4.0966-9.15 9.15-9.15 5.0534 0 9.15 4.0966 9.15 9.15 0 5.0534-4.0966 9.15-9.15 9.15-5.0534 0-9.15-4.0966-9.15-9.15Z"/>
  <path d="M7.0102 7.3703a.65.65 0 0 1 .9124.1113c.291.3718.5508.77.775 1.191a.65.65 0 1 1-1.1475.611 6.8423 6.8423 0 0 0-.6512-1.0008.65.65 0 0 1 .1113-.9125Zm1.8275 3.4416a.65.65 0 0 1 .7336.554 8.2475 8.2475 0 0 1 .0743 1.4184.65.65 0 0 1-1.2992-.044 6.9474 6.9474 0 0 0-.0626-1.1948.65.65 0 0 1 .554-.7336Zm-.1381 3.8959a.65.65 0 0 1 .3586.8464 8.1422 8.1422 0 0 1-.6462 1.2654.65.65 0 1 1-1.1019-.6898 6.8437 6.8437 0 0 0 .543-1.0634.65.65 0 0 1 .8465-.3586Zm8.2266-7.2684a.65.65 0 0 1 .1226.911 6.843 6.843 0 0 0-.5584.8582.65.65 0 0 1-1.1397-.6254 8.1362 8.1362 0 0 1 .6645-1.0212.65.65 0 0 1 .911-.1226Zm-1.7843 3.464a.65.65 0 0 1 .563.7267 6.9467 6.9467 0 0 0-.0537 1.0248.65.65 0 0 1-1.2997.0279 8.2947 8.2947 0 0 1 .0637-1.2163.65.65 0 0 1 .7267-.5631Zm.1865 3.8938a.65.65 0 0 1 .8509.348c.1326.3163.2885.621.4656.9118a.6499.6499 0 0 1-.2172.8932.65.65 0 0 1-.8932-.2171 8.1489 8.1489 0 0 1-.5541-1.0851.65.65 0 0 1 .348-.8508Z"/>
</g></svg>