<svg xmlns="http://www.w3.org/2000/svg" data-laicon-version="15.0" viewBox="0 0 20 20" fill="black"><g transform="translate(-2 -2)">
  <path d="M11.9996 5.6501c-3.783 0-6.85 3.0669-6.85 6.85v4.0164a5.5501 5.5501 0 0 1-.932 3.0786l-.177.2655a.65.65 0 0 1-1.0818-.7211l.177-.2655a4.2504 4.2504 0 0 0 .7139-2.3575v-4.0164c0-4.5011 3.6489-8.15 8.1499-8.15a.65.65 0 1 1 0 1.3Zm7.5 6.2a.65.65 0 0 1 .65.65v4.0164a5.55 5.55 0 0 1-.9321 3.0786l-.177.2655a.65.65 0 0 1-1.0817-.7211l.1771-.2655a4.2505 4.2505 0 0 0 .7137-2.3575v-4.0164a.65.65 0 0 1 .65-.65Z"/>
  <path d="M6.8496 12.5001a.65.65 0 0 1 .65-.65h9a.65.65 0 0 1 .65.65v2.5c0 2.8443-2.3057 5.15-5.15 5.15-2.8443 0-5.15-2.3057-5.15-5.15v-2.5Zm1.3.65v1.85c0 2.1263 1.7237 3.85 3.85 3.85s3.85-1.7237 3.85-3.85v-1.85h-7.7ZM16.5322 3.5724a.3333.3333 0 0 0-.6643 0l-.0133.1597a1.6667 1.6667 0 0 1-1.5225 1.5225l-.1597.0133a.3334.3334 0 0 0 0 .6643l.1597.0133a1.6667 1.6667 0 0 1 1.5225 1.5225l.0133.1597a.3333.3333 0 0 0 .6643 0l.0133-.1597a1.6667 1.6667 0 0 1 1.5225-1.5225l.1597-.0133a.3334.3334 0 0 0 0-.6643l-.1597-.0133a1.6667 1.6667 0 0 1-1.5225-1.5225l-.0133-.1597Zm2.9171 3.907a.25.25 0 0 0-.4983 0l-.01.1197a1.25 1.25 0 0 1-1.1418 1.1419l-.1198.01a.25.25 0 0 0 0 .4983l.1198.01a1.25 1.25 0 0 1 1.1418 1.1418l.01.1197a.25.25 0 0 0 .4983 0l.01-.1197a1.25 1.25 0 0 1 1.1419-1.1419l.1197-.01a.25.25 0 0 0 0-.4982l-.1197-.01a1.25 1.25 0 0 1-1.1419-1.1419l-.01-.1197Z"/>
</g></svg>