<svg xmlns="http://www.w3.org/2000/svg" data-laicon-version="15.0" viewBox="0 0 20 20" fill="black"><g transform="translate(-2 -2)">
  <path d="M18.9998 16.7h-1.7v-1.3h1.7c.2 0 .3-.1.3-.3V9.6c0-.1-.1-.3-.3-.3h-1.7V8h1.7c.9 0 1.6.7 1.6 1.6v5.5c0 .9-.7 1.6-1.6 1.6Z"/>
  <path d="M16.4 21.2999H7.1c-.9 0-1.6-.7-1.6-1.6v-6.5h1.3v6.5c.1.1.2.3.3.3h9.2c.2 0 .3-.1.3-.3v-12h1.3v12c0 .9-.7 1.6-1.5 1.6Z"/>
  <path d="M7.4 13.6999c-2.7 0-3.9-2-3.9-4.1 0-1.2.7-2.3 1.8-2.9.4-2 2-3.5 4-3.9 1.9-.4 3.8.3 5.1 1.8.4-.1.9-.2 1.4-.1 1.6.3 2.2 1.8 2.2 3.2v.6h-4c-2 0-2.5 1.1-3.1 2.5-.6 1.3-1.3 2.9-3.5 2.9Zm2.9-9.7c-.3 0-.5 0-.8.1-1.6.3-2.8 1.6-3 3.2l-.1.4-.3.1c-.8.3-1.3 1-1.3 1.8 0 .5.1 2.8 2.6 2.8 1.3 0 1.7-.7 2.3-2.1.6-1.4 1.4-3.3 4.3-3.3h2.7c-.1-.5-.4-1.1-1.1-1.3-.4-.1-1 .1-1.2.2l-.5.2-.3-.5c-.8-.9-2-1.6-3.3-1.6ZM10.9001 15.5h-1.3v2.2h1.3v-2.2Zm3-4.1h-1.3v6.4h1.3v-6.4Z"/>
</g></svg>