<svg xmlns="http://www.w3.org/2000/svg" data-laicon-version="16.13" viewBox="0 0 20 20" fill="black"><g transform="translate(-2 -2)">
  <path d="M19.85 5.699c0-2.33-2.575-3.74-4.538-2.486L12 5.329 8.688 3.213C6.725 1.958 4.15 3.369 4.15 5.699v9.424a2.65 2.65 0 0 0 1.19 2.212l5.31 3.504c.82.54 1.88.54 2.7 0l5.31-3.504a2.65 2.65 0 0 0 1.19-2.212V5.7Zm-3.838-1.39c1.098-.702 2.538.086 2.538 1.39v9.424c0 .454-.228.877-.607 1.127l-5.293 3.492V6.457l3.362-2.148ZM11.35 6.455v13.286L6.057 16.25a1.35 1.35 0 0 1-.607-1.127V5.7c0-1.304 1.44-2.092 2.538-1.39l3.362 2.147Z"/>
</g></svg>