<svg xmlns="http://www.w3.org/2000/svg" data-laicon-version="16.9" viewBox="0 0 20 20" fill="black"><g transform="translate(-2 -2)">
  <path d="M18.072 7.013A6.874 6.874 0 0 0 5.126 10.24v4.588c0 1.162-.356 2.24-.963 3.132a.65.65 0 0 0 .537 1.016h1.41l-1.567 1.566.916.916 15.5-15.5-.916-.916-1.97 1.971ZM7.409 17.676h-1.6a6.851 6.851 0 0 0 .617-2.848V10.24A5.574 5.574 0 0 1 17.1 7.985l-9.691 9.691Zm11.466-7.436c0-.133-.004-.265-.012-.397l-1.288 1.289v3.696c0 1.015.22 1.98.616 2.848h-7.16l-1.3 1.3h1.619v2.009h1.3v-2.009h6.65a.65.65 0 0 0 .537-1.016 5.545 5.545 0 0 1-.962-3.133V10.24Z"/>
</g></svg>