<svg xmlns="http://www.w3.org/2000/svg" data-laicon-version="15.0" viewBox="0 0 20 20" fill="black"><g transform="translate(-2 -2)">
  <path d="M6.5092 11.5434c-1.7449 0-3.1594 1.4145-3.1594 3.1594 0 1.7449 1.4145 3.1595 3.1594 3.1595 1.745 0 3.1595-1.4146 3.1595-3.1595s-1.4146-3.1594-3.1595-3.1594Zm-4.4594 3.1594c0-2.4628 1.9966-4.4594 4.4594-4.4594 2.463 0 4.4595 1.9966 4.4595 4.4594 0 2.4629-1.9966 4.4595-4.4595 4.4595-2.4628 0-4.4594-1.9966-4.4594-4.4595Zm15.4409-3.1594c-1.7449 0-3.1595 1.4145-3.1595 3.1594 0 1.7449 1.4146 3.1595 3.1595 3.1595s3.1593-1.4146 3.1593-3.1595-1.4144-3.1594-3.1593-3.1594Zm-4.4595 3.1594c0-2.4628 1.9966-4.4594 4.4595-4.4594 2.4629 0 4.4594 1.9966 4.4594 4.4594 0 2.4629-1.9965 4.4595-4.4594 4.4595-2.4629 0-4.4595-1.9966-4.4595-4.4595Z"/>
  <path d="M12.2236 5.4877a.65.65 0 0 1 .65-.65h1.7176l3.5098 9.6428a.6501.6501 0 0 1-1.2216.4446l-3.1985-8.7874h-.8073a.65.65 0 0 1-.65-.65Z"/>
  <path d="M8.2848 7.9237h6.8226a.65.65 0 1 1 0 1.3H9.1951l-2.0752 5.7015a.65.65 0 0 1-1.2216-.4446l2.3865-6.5569Z"/>
</g></svg>