<svg xmlns="http://www.w3.org/2000/svg" data-laicon-version="17.5" viewBox="0 0 20 20" fill="black"><g transform="translate(-2 -2)">
  <path d="M3.85 4.68c0-.629.51-1.138 1.138-1.138h14.024c.629 0 1.138.509 1.138 1.137v13.936c0 .453-.268.862-.683 1.043l-1.387.605c-.29.127-.62.127-.91 0l-1.42-.62-1.42.62c-.29.127-.62.127-.91 0l-1.42-.62-1.42.62c-.29.127-.62.127-.91 0l-1.42-.62-1.42.62c-.29.127-.62.127-.91 0l-1.387-.605a1.138 1.138 0 0 1-.683-1.043V4.68Zm1.3.162v13.667l1.225.535 1.42-.62c.29-.127.62-.127.91 0l1.42.62 1.42-.62c.29-.127.62-.127.91 0l1.42.62 1.42-.62c.29-.127.62-.127.91 0l1.42.62 1.225-.535V4.842H5.15Z"/>
  <path d="M15.4 9.65H8.6v-1.3h6.8v1.3Zm0 3.85-6.8-.002v-1.3l6.8.002v1.3Z"/>
</g></svg>