<svg xmlns="http://www.w3.org/2000/svg" data-laicon-version="15.0" viewBox="0 0 20 20" fill="black"><g transform="translate(-2 -2)">
  <path d="M3.9702 4.68c0-1.077.873-1.95 1.95-1.95h11.02c1.0769 0 1.95.873 1.95 1.95v8.9199h-1.3v-8.92a.6493.6493 0 0 0-.1904-.4596.6496.6496 0 0 0-.4596-.1904h-11.02a.65.65 0 0 0-.65.65v13.79c0 .359.291.65.65.65h5.73v1.3h-5.73c-1.077 0-1.95-.873-1.95-1.95v-13.79Z"/>
  <path d="M14.6292 8.709H8.2349v-1.3h6.3943v1.3Zm0 3.519H8.2349v-1.3h6.3943v1.3Zm-.9439 3.8384a.0141.0141 0 0 1 .0023-.0035c-.0012.0023-.0021.0035-.0023.0035Zm.0729-.0663c.0961.0702.2608.153.5035.2313.4991.161 1.2199.2687 2.0385.2687s1.5394-.1077 2.0385-.2687c.2427-.0783.4074-.1611.5035-.2313-.0961-.0702-.2608-.153-.5035-.2313-.4991-.161-1.2199-.2687-2.0385-.2687s-1.5394.1077-2.0385.2687c-.2427.0783-.4074.1611-.5035.2313Zm5.1568.0663a.0146.0146 0 0 1-.0022-.0035c.0017.0023.0024.0035.0022.0035Zm-.0022-.1291a.0115.0115 0 0 1 .0022-.0035c.0002 0-.0005.0012-.0022.0035Zm-5.2252 0a.0192.0192 0 0 1-.0023-.0035c.0002 0 .0011.0012.0023.0035Zm.2671-1.1202c.6228-.2009 1.452-.317 2.3455-.317s1.7227.1161 2.3455.317c.3086.0996.5947.2288.8141.3962.2118.1615.4404.4227.4404.7868 0 .3641-.2286.6253-.4404.7868-.2194.1674-.5055.2966-.8141.3962-.6228.2009-1.452.317-2.3455.317s-1.7227-.1161-2.3455-.317c-.3087-.0996-.5947-.2288-.8141-.3962-.2118-.1615-.4404-.4227-.4404-.7868 0-.3641.2286-.6253.4404-.7868.2194-.1674.5054-.2966.8141-.3962Z"/>
  <path d="M13.7002 19.5514a.438.438 0 0 0 .0468.0403c.0943.0719.2623.1581.5147.2396.4991.161 1.2199.2687 2.0385.2687s1.5394-.1077 2.0385-.2687c.2524-.0815.4204-.1677.5147-.2396a.438.438 0 0 0 .0468-.0403V16h1v3.6c0 .3641-.2286.6253-.4404.7868-.2194.1674-.5055.2966-.8141.3962-.6228.2009-1.452.317-2.3455.317s-1.7227-.1161-2.3455-.317c-.3087-.0996-.5947-.2288-.8141-.3962-.2118-.1615-.4404-.4227-.4404-.7868V16h1v3.5514Zm5.2148-.0177c.0002 0-.0005.0012-.0022.0036a.0165.0165 0 0 1 .0022-.0036Zm-5.2274.0036a.017.017 0 0 1-.0023-.0036c.0002 0 .0011.0012.0023.0036Z"/>
  <path d="M14.2617 18.0312c.4991.161 1.2199.2687 2.0385.2687s1.5394-.1077 2.0385-.2687c.2524-.0815.4204-.1677.5147-.2396.0377-.0288.0539-.0472.0594-.0545-.0042.0078-.0126.0285-.0126.0628h1c0 .3641-.2286.6253-.4404.7868-.2194.1674-.5055.2966-.8141.3962-.6228.2009-1.452.317-2.3455.317s-1.7227-.1161-2.3455-.317c-.3087-.0996-.5947-.2288-.8141-.3962-.2118-.1615-.4404-.4227-.4404-.7868h1c0-.0343-.0084-.055-.0126-.0628.0055.0073.0217.0257.0594.0545.0943.0719.2623.1581.5147.2396Zm-.5764-.2976c.0002 0 .0011.0011.0023.0035a.0141.0141 0 0 1-.0023-.0035Zm5.2297 0c.0002 0-.0005.0012-.0022.0035a.0146.0146 0 0 1 .0022-.0035Z"/>
</g></svg>