<svg xmlns="http://www.w3.org/2000/svg" data-laicon-version="15.0" viewBox="0 0 20 20" fill="black"><g transform="translate(-2 -2)">
  <path d="M10.0034 9.2472V7.7914h1.3v1.4558h-1.3Zm2.0493 0V7.7914h1.3v1.4558h-1.3Zm-2.0493 7.1175v-1.4558h1.3v1.4558h-1.3Zm2.0493 0v-1.4558h1.3v1.4558h-1.3Z"/>
  <path d="M9.292 8.5972h3.3936c1.1407 0 2.0655.9247 2.0655 2.0654 0 1.1407-.9248 2.0655-2.0655 2.0655h-2.0319v-1.3h2.0319a.7655.7655 0 1 0 0-1.531H9.292v-1.3Z"/>
  <path d="M10.6537 11.4281h2.5272c1.1407 0 2.0655.9247 2.0655 2.0654 0 1.1407-.9249 2.0654-2.0655 2.0654h-3.889v-1.3h3.889a.7654.7654 0 1 0 0-1.5308h-2.5272v-1.3Z"/>
  <path d="M10.0034 14.9089V9.2472h1.3v5.6617h-1.3Z"/>
  <path d="M12 4.05c-4.3907 0-7.95 3.5593-7.95 7.95 0 4.3907 3.5593 7.95 7.95 7.95 4.3907 0 7.95-3.5593 7.95-7.95 0-4.3907-3.5593-7.95-7.95-7.95ZM2.75 12c0-5.1086 4.1414-9.25 9.25-9.25s9.25 4.1414 9.25 9.25-4.1414 9.25-9.25 9.25S2.75 17.1086 2.75 12Z"/>
</g></svg>