<svg xmlns="http://www.w3.org/2000/svg" data-laicon-version="15.0" viewBox="0 0 20 20" fill="black"><g transform="translate(-2 -2)">
  <path d="M19 4.5c0-.8284-.6716-1.5-1.5-1.5H6.25C5.0074 3 4 4.0074 4 5.25v13.5C4 19.9926 5.0074 21 6.25 21h9.2313a4.5724 4.5724 0 0 1-1.1026-1.3H6.25a.95.95 0 0 1-.95-.95.95.95 0 0 1 .95-.95h7.5525a4.6133 4.6133 0 0 1-.0125-.3401c0-.3293.0349-.6505.1014-.9599H6.25c-.3395 0-.6614.0751-.95.2098V5.25a.95.95 0 0 1 .95-.95H17.5a.2.2 0 0 1 .2.2v8.4546a4.5788 4.5788 0 0 1 .64-.0447c.2241 0 .4445.0162.66.0475V4.5Z"/>
  <path d="M14.6899 17.4601c0 2.0158 1.6342 3.65 3.65 3.65 2.0159 0 3.65-1.6342 3.65-3.65 0-2.0159-1.6341-3.65-3.65-3.65-2.0158 0-3.65 1.6341-3.65 3.65Zm3.2773-.7648-1.1453 1.1454-.5657-.5657 2.1111-2.1111 2.1109 2.1111-.5657.5657-1.1453-1.1453v2.9344h-.8v-2.9345Z"/>
</g></svg>