<svg xmlns="http://www.w3.org/2000/svg" data-laicon-version="15.0" viewBox="0 0 20 20" fill="black"><g transform="translate(-2 -2)">
  <path d="M9.5792 9.3979h-4.4v-1.3h4.4v1.3Zm0 2.9661h-4.4v-1.3h4.4v1.3Zm0 2.967h-4.4v-1.3h4.4v1.3Zm9.2148-5.9331h-4.4v-1.3h4.4v1.3Zm0 2.9661h-4.4v-1.3h4.4v1.3Zm0 2.967h-4.4v-1.3h4.4v1.3Z"/>
  <path d="M11.3492 6.849c0-1.4012 1.0985-2.58 2.507-2.58h6.082c.9135 0 1.612.763 1.612 1.65V17.44c0 .8866-.6971 1.65-1.612 1.65h-6.365c-.3122 0-.5934.1093-.8096.2338a1.994 1.994 0 0 0-.2444.1656 1.359 1.359 0 0 0-.0565.0473.6485.6485 0 0 1-.4635.1943h-.001a.6492.6492 0 0 1-.4723-.2033.6491.6491 0 0 1-.1767-.4829V6.8489v.0001Zm1.3 11.102c.2671-.0938.5788-.1611.924-.1611h6.365c.1491 0 .312-.1325.312-.35V5.9189c0-.217-.1635-.35-.312-.35h-6.082c-.6436 0-1.207.549-1.207 1.28V17.951Z"/>
  <path d="M4.067 5.569c-.1484 0-.312.133-.312.35v11.5208c0 .217.1636.35.312.35h6.3611c.3452 0 .6569.0673.924.1612V6.919c0-.7698-.5943-1.35-1.274-1.35H4.067Zm7.482 13.9781c.0006.0005.0005.0005 0 0l-.0102-.0093a1.3642 1.3642 0 0 0-.0579-.0487 1.9945 1.9945 0 0 0-.2439-.1654c-.2159-.1245-.4967-.2337-.8089-.2337h-6.361c-.9135 0-1.612-.7629-1.612-1.65V5.919c0-.887.6985-1.65 1.612-1.65h6.011c1.4443 0 2.574 1.2097 2.574 2.65v12.1619h-.65m0 .0001c-.4564.4629-.4563.463-.4561.4632l.0009.0008.0021.0021"/>
</g></svg>