<svg xmlns="http://www.w3.org/2000/svg" data-laicon-version="15.0" viewBox="0 0 20 20" fill="black"><g transform="translate(-2 -2)">
  <path d="M16.6501 4.6501h-1.3v-1.3h1.3v1.3Zm2.7 4h1.3v-1.3h-1.3v1.3Zm-10.7 3.9999h-1.3v-1.3h1.3v1.3Zm8 0h-1.3v-1.3h1.3v1.3Zm4 0h-1.3v-1.3h1.3v1.3Zm-1.3 4h1.3v-1.3h-1.3v1.3Zm-12-11.9999h1.3v-1.3h-1.3v1.3Zm13.3 0h-1.3v-1.3h1.3v1.3Zm-5.3 15.9999h1.3v-1.3h-1.3v1.3Zm-6.7 0h-1.3v-1.3h1.3v1.3Zm10.7 0h1.3v-1.3h-1.3v1.3Zm-6.6844.0001h-1.3v-17.3h1.3v17.3Zm-9.3-12h1.3v-1.3h-1.3v1.3ZM4.6501 12.65h-1.3v-1.3h1.3v1.3Zm-1.2844 4h1.3v-1.3h-1.3v1.3ZM4.6501 4.6501h-1.3v-1.3h1.3v1.3Zm-1.3 15.9999h1.3v-1.3h-1.3v1.3Z"/>
</g></svg>