<svg xmlns="http://www.w3.org/2000/svg" data-laicon-version="15.0" viewBox="0 0 20 20" fill="black"><g transform="translate(-2 -2)">
  <path d="M8.6501 3.3501v1.3h-1.3v-1.3h1.3Zm4 4v1.3h-1.3v-1.3h1.3Zm-4 3.9844v1.3h-1.3v-1.3h1.3Zm4 .0155v1.3h-1.3v-1.3h1.3Zm4 1.2845v-1.3h-1.3v1.3h1.3Zm-4 4.0155v-1.3h-1.3v1.3h1.3Zm0-11.9999v-1.3h-1.3v1.3h1.3Zm4-1.3v1.3h-1.3v-1.3h1.3Zm-12 5.3v-1.3h-1.3v1.3h1.3Zm0 2.6999v1.3h-1.3v-1.3h1.3Zm0 5.3v-1.3h-1.3v1.3h1.3Zm0-13.2999v1.3h-1.3v-1.3h1.3Zm16 9.2999v-1.3h-1.3v1.3h1.3Zm0-5.2999v1.3h-1.3v-1.3h1.3Zm0 9.2999v-1.3h-1.3v1.3h1.3Zm0-13.2999v1.3h-1.3v-1.3h1.3Zm0 17.2999v-1.3h-17.3v1.3h17.3Z"/>
</g></svg>