<svg xmlns="http://www.w3.org/2000/svg" data-laicon-version="15.0" viewBox="0 0 20 20" fill="black"><g transform="translate(-2 -2)">
  <path d="M4.6501 4.6501h-1.3v-1.3h1.3v1.3Zm10.7-1.3v1.3h1.3v-1.3h-1.3Zm-4 4v1.3h1.3v-1.3h-1.3Zm-4 5.2844v-1.3h1.3v1.3h-1.3Zm4-1.3v1.3h1.3v-1.3h-1.3Zm4 0v1.3h1.3v-1.3h-1.3Zm-4 5.3155v-1.3h1.3v1.3h-1.3Zm0-11.9999v-1.3h1.3v1.3h-1.3Zm-4-1.3v1.3h1.3v-1.3h-1.3Zm8 15.9999v1.3h1.3v-1.3h-1.3Zm-4 1.3v-1.3h1.3v1.3h-1.3Zm-4-1.3v1.3h1.3v-1.3h-1.3Zm-2.7 1.3h-1.3v-1.3h1.3v1.3Zm14.7-17.2999v17.3h1.3v-17.3h-1.3Zm-14.7 9.2844h-1.3v-1.3h1.3v1.3Zm-1.3 4.0155h1.3v-1.3h-1.3v1.3Zm1.3-7.9999h-1.3v-1.3h1.3v1.3Z"/>
</g></svg>