<svg xmlns="http://www.w3.org/2000/svg" data-laicon-version="15.0" viewBox="0 0 20 20" fill="black"><g transform="translate(-2 -2)">
  <path d="M3.3501 3.3501h1.3v1.3h-1.3v-1.3Zm12 0v1.3h1.3v-1.3h-1.3Zm-4 5.3v-1.3h1.3v1.3h-1.3Zm-4 4.0155v-1.3h1.3v1.3h-1.3Zm4-1.3v1.3h1.3v-1.3h-1.3Zm4 0v1.3h1.3v-1.3h-1.3Zm-4 3.9845v1.3h1.3v-1.3h-1.3Zm0-10.7v-1.3h1.3v1.3h-1.3Zm-4-1.3v1.3h1.3v-1.3h-1.3Z"/>
  <path d="M19.3501 3.3501v16h-16v1.3h17.3v-17.3h-1.3Zm-16 8.0155h1.3v1.3h-1.3v-1.3Zm1.3-4.0155h-1.3v1.3h1.3v-1.3Zm-1.3 8h1.3v1.3h-1.3v-1.3Z"/>
</g></svg>