<svg xmlns="http://www.w3.org/2000/svg" data-laicon-version="15.0" viewBox="0 0 20 20" fill="black"><g transform="translate(-2 -2)">
  <path d="M8.6501 4.6501v-1.3h-1.3v1.3h1.3Zm4 2.7v1.3h-1.3v-1.3h1.3Zm0 7.9999v1.3h-1.3v-1.3h1.3Zm0-11.9999v1.3h-1.3v-1.3h1.3Zm4 1.3v-1.3h-1.3v1.3h1.3Zm-12 2.7v1.3h-1.3v-1.3h1.3Zm0 9.2999v-1.3h-1.3v1.3h1.3Zm0-13.2999v1.3h-1.3v-1.3h1.3Zm16 5.3v-1.3h-1.3v1.3h1.3Zm0 6.6999v1.3h-1.3v-1.3h1.3Zm0-10.6999v-1.3h-1.3v1.3h1.3Zm0 6.6844v1.3h-17.3v-1.3h17.3Zm-12 9.3v-1.3h-1.3v1.3h1.3Zm4-1.2845v1.3h-1.3v-1.3h1.3Zm4 1.2845v-1.3h-1.3v1.3h1.3Zm-12-1.2845v1.3h-1.3v-1.3h1.3Zm16 1.3v-1.3h-1.3v1.3h1.3Z"/>
</g></svg>