<svg xmlns="http://www.w3.org/2000/svg" data-laicon-version="15.0" viewBox="0 0 20 20" fill="black"><g transform="translate(-2 -2)">
  <path d="M4.6501 20.6501v-16h16v-1.3h-17.3v17.3h1.3Z"/>
  <path d="M12.6501 8.6501v-1.3h-1.3v1.3h1.3Zm-4 3.9844v-1.3h-1.3v1.3h1.3Zm4 0v-1.3h-1.3v1.3h1.3Zm4-1.3v1.3h-1.3v-1.3h1.3Zm-4 4.0156v1.3h-1.3v-1.3h1.3Zm-4 5.3v-1.3h-1.3v1.3h1.3Zm4-1.3v1.3h-1.3v-1.3h1.3Zm4 1.3v-1.3h-1.3v1.3h1.3Zm4 0h-1.3v-1.3h1.3v1.3Zm0-8.0156h-1.3v-1.3h1.3v1.3Zm-1.3 4.0156h1.3v-1.3h-1.3v1.3Zm1.3-8h-1.3v-1.3h1.3v1.3Z"/>
</g></svg>