<svg xmlns="http://www.w3.org/2000/svg" data-laicon-version="15.0" viewBox="0 0 20 20" fill="black"><g transform="translate(-2 -2)">
  <path d="M3.3501 4.6501h17.3v-1.3h-17.3v1.3Zm0 4h1.3v-1.3h-1.3v1.3Zm7.9844 0h1.3v-1.3h-1.3v1.3Zm0 3.9999h1.3v-1.3h-1.3v1.3Zm1.3 4h-1.3v-1.3h1.3v1.3Zm-5.2844-4h1.3v-1.3h-1.3v1.3Zm9.3 0h-1.3v-1.3h1.3v1.3Zm-12 0h-1.3v-1.3h1.3v1.3Zm-1.3 4h1.3v-1.3h-1.3v1.3Zm1.3 2.7v1.3h-1.3v-1.3h1.3Zm14.7-10.6999h1.3v-1.3h-1.3v1.3Zm1.3 3.9999h-1.3v-1.3h1.3v1.3Zm-1.3 4h1.3v-1.3h-1.3v1.3Zm1.3 2.7v1.3h-1.3v-1.3h1.3Zm-8.0156 0v1.3h-1.3v-1.3h1.3Zm4.0156 1.3v-1.3h-1.3v1.3h1.3Zm-8-1.3v1.3h-1.3v-1.3h1.3Z"/>
</g></svg>