<svg xmlns="http://www.w3.org/2000/svg" data-laicon-version="15.0" viewBox="0 0 20 20" fill="black"><g transform="translate(-2 -2)">
  <path d="M4.6423 4.6501h-1.3v-1.3h1.3v1.3Zm2.7 0h1.3v-1.3h-1.3v1.3Zm9.3 0h-1.3v-1.3h1.3v1.3Zm2.7 4h1.3v-1.3h-1.3v1.3Zm0 7.9999h1.3v-1.3h-1.3v1.3Zm1.3-11.9999h-1.3v-1.3h1.3v1.3Zm-5.3 15.9999h1.3v-1.3h-1.3v1.3Zm-6.7 0h-1.3v-1.3h1.3v1.3Zm10.7 0h1.3v-1.3h-1.3v1.3Zm-6.6844.0001h-1.3v-8h-8v-1.3h8v-8h1.3v8h8v1.3h-8v8Zm-7.9999-12h-1.3v-1.3h1.3v1.3Zm-1.3 7.9999h1.3v-1.3h-1.3v1.3Zm-.0157 4h1.3v-1.3h-1.3v1.3Z"/>
</g></svg>