<svg xmlns="http://www.w3.org/2000/svg" data-laicon-version="15.0" viewBox="0 0 20 20" fill="black"><g transform="translate(-2 -2)">
  <path d="m11.326 14.5537 3.2461-3.246.9192.9192-4.1653 4.1652-2.8177-2.8177.9192-.9192 1.8985 1.8985Z"/>
  <path d="M6.6842 4.0371a1.6632 1.6632 0 0 1 1.176-.4872h8.2784a1.663 1.663 0 0 1 1.176.4872l3.2059 3.206c.3118.3117.4872.7347.4872 1.1759l.0007 10.3678c0 .9185-.7446 1.6632-1.6632 1.6632H4.6544c-.9185 0-1.6632-.7446-1.6632-1.6631V8.419c0-.441.1751-.864.487-1.176l3.206-3.2059Zm1.176.8128a.3632.3632 0 0 0-.2568.1064l-3.2059 3.206a.3631.3631 0 0 0-.1063.2567v10.368c0 .2005.1626.3631.3632.3631h14.6908a.3632.3632 0 0 0 .3632-.3632l-.0007-10.3677a.3636.3636 0 0 0-.1064-.2569l-3.2059-3.2059a.3633.3633 0 0 0-.2568-.1064H7.8602Z"/>
  <path d="M20.3588 8.6492H3.6416v-1.3h16.7172v1.3Z"/>
</g></svg>