<svg xmlns="http://www.w3.org/2000/svg" data-laicon-version="15.0" viewBox="0 0 20 20" fill="black"><g transform="translate(-2 -2)">
  <path d="M11.2002 3.4c.5-.3 1.1-.3 1.7 0l3.1 1.9c.5.3.8.8.8 1.4v3.6001c0 .6-.3 1.1-.8 1.4l-3.1 1.8c-.5.3-1.1.3-1.6 0l-3.3-1.8c-.5-.3-.8-.8-.8-1.4v-3.6c0-.6.3-1.1.8-1.4l3.2-1.9Zm1 1.2c-.1-.1-.2-.1-.4 0l-2.6 1.5 2.8 1.6 2.8-1.6-2.6-1.5Zm3.3 2.6-2.8 1.6v3.3001l2.7-1.5c.1-.1.2-.2.2-.3l-.1-3.1Zm-4.1 4.9001v-3.2l-2.9-1.7v3.1c0 .1.1.2.2.3l2.7 1.5Z"/>
  <path d="M15.2999 10.6c.5-.3 1.1-.3 1.6 0l3.1 1.8c.5.3.8.8.8 1.4v3.6c0 .6-.3 1.1-.8 1.4l-3 1.9c-.5.3-1.1.3-1.7 0l-3.1-1.8c-.5-.3-.8-.8-.8-1.4v-3.6c0-.6.3-1.1.8-1.4l3.1-1.9Zm1 1.1c-.1-.1-.2-.1-.3 0l-2.7 1.5 2.8 1.6c.1 0 .1-.1.2-.1l2.7-1.5-2.7-1.5Zm3.3 2.7-2.6 1.5c-.1.1-.2.2-.2.3v3.1l2.7-1.5c.1-.1.2001-.2.2001-.3v-3.1h-.1001Zm-4.1 4.9V16l-2.8-1.6v3.1c0 .1.1.2.2.3l2.6 1.5Z"/>
  <path d="M7.0001 10.6c.5-.3 1.1-.3 1.6 0l3.1 1.8c.5.3.8.8.8 1.4v3.6c0 .6-.3 1.1-.8 1.4l-3.1 1.8c-.4.4-1 .4-1.6.1l-3.1-1.8c-.5-.3-.8-.8-.8-1.4v-3.6c0-.6.3-1.1.8-1.4l3.1-1.9Zm1 1.1c-.1-.1-.2-.1-.3 0l-2.7 1.6 2.8 1.6c.1 0 .1-.1.2-.1l2.7-1.5-2.7-1.6Zm3.4 2.7-2.7 1.5c-.1.1-.2.2-.2.3v3.1l2.7-1.5c.1-.1.2-.2.2-.3v-3.1Zm-4.2 4.9V16l-2.8-1.6v3.1c0 .1.1.2.2.3l2.6 1.5Z"/>
</g></svg>