<svg xmlns="http://www.w3.org/2000/svg" data-laicon-version="16.12" viewBox="0 0 20 20" fill="black"><g transform="translate(-2 -2)">
  <path d="M7 4.35A2.65 2.65 0 0 0 4.35 7v3.498a.85.85 0 0 1-.846.85l-.507.002v1.3l.507.002a.85.85 0 0 1 .846.85V17A2.65 2.65 0 0 0 7 19.65h.5v-1.3H7A1.35 1.35 0 0 1 5.65 17v-3.498c0-.584-.233-1.114-.612-1.502.379-.388.612-.918.612-1.502V7c0-.746.604-1.35 1.35-1.35h1v-1.3H7Zm10 0A2.65 2.65 0 0 1 19.65 7v3.498a.85.85 0 0 0 .846.85l.507.002v1.3l-.507.002a.85.85 0 0 0-.846.85V17A2.65 2.65 0 0 1 17 19.65h-.5v-1.3h.5A1.35 1.35 0 0 0 18.35 17v-3.498c0-.584.233-1.114.612-1.502a2.143 2.143 0 0 1-.612-1.502V7A1.35 1.35 0 0 0 17 5.65h-1v-1.3h1ZM11.35 17.2v-7h1.3v7h-1.3ZM12 9a.9.9 0 1 0 0-1.8.9.9 0 0 0 0 1.8Z"/>
</g></svg>