<svg xmlns="http://www.w3.org/2000/svg" data-laicon-version="16.16" viewBox="0 0 20 20" fill="black"><g transform="translate(-2 -2)">
  <path d="M7.57 7.806v-1.3h1.3v1.3h-1.3Zm-2.195 0v-1.3h1.3v1.3h-1.3Z"/>
  <path d="M4.303 9.957v8.173c0 .115.003.199.007.26.073.006.174.01.317.01H15v1.3H4.627a3.75 3.75 0 0 1-.623-.04 1.193 1.193 0 0 1-.629-.292 1.138 1.138 0 0 1-.327-.625 3.223 3.223 0 0 1-.045-.613V5.774c0-.205.006-.418.047-.607.043-.204.141-.447.376-.626a1.21 1.21 0 0 1 .62-.223c.173-.018.378-.018.58-.018h15.077c.378 0 .814.097 1.08.504.21.322.214.721.214.97V13.5h-1.3V9.957H4.304Zm0-4.183v2.883h15.395V5.774c0-.072-.002-.128-.005-.174H4.627c-.14 0-.242 0-.321.004a4.516 4.516 0 0 0-.003.17Z"/>
  <path d="m19.13 16.73.945.944.919-.92-2.514-2.513-2.514 2.514.92.919.944-.945v2.991h1.3v-2.99Z"/>
</g></svg>