<svg xmlns="http://www.w3.org/2000/svg" data-laicon-version="16.17" viewBox="0 0 20 20" fill="black"><g transform="translate(-2 -2)">
  <path d="M5.375 6.506v1.3h1.3v-1.3h-1.3Zm2.195 1.3v-1.3h1.3v1.3h-1.3Z"/>
  <path d="M4.303 18.13V9.956h15.395V13.5h1.3V5.774c0-.249-.005-.648-.215-.97-.266-.407-.702-.504-1.08-.504H4.627c-.203 0-.408 0-.58.018a1.21 1.21 0 0 0-.621.223 1.034 1.034 0 0 0-.376.626c-.04.188-.047.402-.047.607V18.13c0 .208.007.421.045.613.04.2.125.435.327.625.199.186.435.259.629.292.19.034.406.04.623.04H14.75v-1.3H4.627c-.143 0-.244-.004-.317-.01a3.533 3.533 0 0 1-.007-.26Zm.003-12.526c.08-.003.182-.004.32-.004h15.067c.003.045.005.102.005.174v2.882H4.303V5.774c0-.066 0-.123.003-.17Z"/>
  <path d="m21.773 15.46-1.822 1.822 1.822 1.822-.92.919-1.821-1.822-1.822 1.822-.919-.92 1.822-1.821-1.822-1.822.92-.919 1.82 1.822 1.823-1.822.919.919Z"/>
</g></svg>