<svg xmlns="http://www.w3.org/2000/svg" data-laicon-version="15.0" viewBox="0 0 20 20" fill="black"><g transform="translate(-2 -2)">
  <path d="M4.3057 5.6036a4.516 4.516 0 0 0-.0028.1708v12.3552c0 .1155.003.1992.0076.2602.0724.0062.1733.0096.3162.0096l15.058.0001c.0086-.0651.0128-.1517.0128-.2699V5.7744c0-.0722-.0016-.129-.0045-.1741H4.6267c-.1388 0-.2415.0006-.321.0033Zm-.1743.0156.002-.0005-.002.0005Zm.4953-1.319h15.076c.3788 0 .8147.097 1.08.5041.21.3221.2148.721.2148.9701v12.3552c0 .2611-.0095.6518-.191.9787-.1032.1857-.258.3468-.4705.454-.2033.1025-.4224.1372-.6333.1372l-15.076-.0001c-.2166 0-.4323-.006-.6229-.0391-.1942-.0337-.4301-.1062-.6283-.2922-.2028-.1902-.288-.4251-.3278-.6255-.038-.1913-.0448-.405-.0448-.613V5.7744c0-.2053.0063-.419.0467-.6075.0438-.2042.1417-.4468.3762-.6258.2124-.1622.4533-.205.6212-.2227.1722-.0181.3773-.0181.5797-.0181Z"/>
  <path d="M20.3474 9.9566H3.6528v-1.3h16.6946v1.3ZM7.5698 7.8064v-1.3h1.3v1.3h-1.3Zm-2.1943 0v-1.3h1.3v1.3h-1.3Z"/>
</g></svg>