<svg xmlns="http://www.w3.org/2000/svg" data-laicon-version="15.0" viewBox="0 0 20 20" fill="black"><g transform="translate(-2 -2)">
  <path d="M5.0249 16.5203h14.6479v1.3H5.0249v-1.3Z"/>
  <path d="M12.4488 3.8558c-.7499-.017-1.3671.5862-1.3671 1.3364v6.1964a.6501.6501 0 0 1-.3451.574l-5.058 2.6862a.35.35 0 0 0-.1857.3092v2.2075c0 1.1736-.1904 2.2433-.3989 3.0893l13.4344.0005c.101 0 .1749-.0642.1943-.1493l.0003-.0012c.1454-.6323.381-1.8343.381-2.9393v-2.2052a.3502.3502 0 0 0-.1867-.3097s.0001.0001 0 0l-4.8154-2.5411a.65.65 0 0 1-.3466-.5748v-6.193c0-.8186-.6105-1.4456-1.2549-1.4847l-.0516-.0012Zm6.0796 17.6995L4.379 21.5548c-.341 0-.5528-.1892-.6483-.3216a.65.65 0 0 1-.0961-.5645c.254-.8592.5583-2.1092.5583-3.5032V14.958a1.65 1.65 0 0 1 .876-1.4573l4.7128-2.5029V5.1922c0-1.4797 1.2174-2.6697 2.6966-2.636l.0636.0014.0187.0008c1.4247.0752 2.4947 1.3603 2.4947 2.7834v5.8009l4.4687 2.3582c.541.2857.88.8472.88 1.4594v2.2052c0 1.2543-.2624 2.5709-.414 3.2306-.1569.6856-.7643 1.1592-1.4616 1.1592Z"/>
</g></svg>