<svg xmlns="http://www.w3.org/2000/svg" data-laicon-version="15.0" viewBox="0 0 20 20" fill="black"><g transform="translate(-2 -2)">
  <path d="M15.5501 3.825a.0735.0735 0 0 0-.0699.046.072.072 0 0 0-.0051.029c0 .043.032.075.075.075h3.44c.457 0 .825.368.825.825a.8236.8236 0 0 1-.509.7627.8229.8229 0 0 1-.316.0622h-4.265v-.75h4.265a.0727.0727 0 0 0 .0698-.046.074.074 0 0 0 .0052-.029.0739.0739 0 0 0-.0214-.0536.073.073 0 0 0-.0536-.0213h-3.44a.823.823 0 0 1-.825-.825c0-.457.368-.825.825-.825h4.265v.75h-4.265Zm-11.365-.74H8.36a.823.823 0 0 1 .696 1.27.823.823 0 0 1-.696 1.27H4.185v-2.54Zm4.212 1.65a.8452.8452 0 0 1-.037 0v-.01H5.12v-.75h3.24a.8616.8616 0 0 1 .037.001.0731.0731 0 0 0 .038-.066.0731.0731 0 0 0-.075-.075H4.935v1.04H8.36a.0728.0728 0 0 0 .075-.075.0731.0731 0 0 0-.038-.066v.001Zm6.128-1.65h-5.09v.75h2.17v1.79h.75v-1.79h2.17v-.75Zm-1.675 7.351a12.4022 12.4022 0 0 1 1.07 1.667c1.521-1.805 3.589-2.623 5.85-2.623v1.3c-2 0-3.744.737-5.005 2.343a6.784 6.784 0 0 0-.225.303c.848 2.078 1.34 4.6339 1.34 7.7139h-1.3c0-2.437-.322-4.4889-.872-6.1999-.662 1.548-1.058 3.5889-1.058 6.1999h-1.3c0-2.612-.396-4.6519-1.058-6.1999-.55 1.71-.872 3.7629-.872 6.1999h-1.3c0-3.08.492-5.6359 1.34-7.7139a6.9027 6.9027 0 0 0-.225-.303c-1.261-1.606-3.005-2.342-5.005-2.342v-1.3c2.261 0 4.329.817 5.85 2.622.325-.604.682-1.16 1.07-1.667-1.944-2.07-4.476-2.966-6.92-2.966v-1.3c2.723 0 5.568.987 7.77 3.274 2.2-2.287 5.047-3.274 7.77-3.274v1.3c-2.444 0-4.976.896-6.92 2.966Zm-1.921 2.876a11.1641 11.1641 0 0 1 1.071 2.571 11.1641 11.1641 0 0 1 1.071-2.571c-.318-.68-.679-1.292-1.072-1.84-.392.548-.752 1.16-1.07 1.84Z"/>
</g></svg>