<svg xmlns="http://www.w3.org/2000/svg" data-laicon-version="15.0" viewBox="0 0 20 20" fill="black"><g transform="translate(-2 -2)">
  <path d="M15 21.5499H9v-1.3h6v1.3ZM12.0502 4.15c-3.203 0-5.8 2.597-5.8 5.8 0 2.2823 1.318 4.2584 3.2375 5.205l.3625.1788V17.75h4.4v-2.4162l.3625-.1788c1.9194-.9466 3.2375-2.9227 3.2375-5.205 0-3.203-2.597-5.8-5.8-5.8Zm-7.1 5.8c0-3.921 3.179-7.1 7.1-7.1s7.1 3.179 7.1 7.1c0 2.6493-1.4512 4.9594-3.6 6.1789V18.3c0 .414-.336.75-.75.75h-5.5c-.414 0-.75-.336-.75-.75v-2.1711c-2.1488-1.2195-3.6-3.5296-3.6-6.179Z"/>
</g></svg>