<svg xmlns="http://www.w3.org/2000/svg" data-laicon-version="15.0" viewBox="0 0 20 20" fill="black"><g transform="translate(-2 -2)">
  <path d="M4.6501 5.6363v13.6116h14.7V5.6363h-14.7Zm-1.3-.15c0-.634.516-1.15 1.15-1.15h15c.634 0 1.15.516 1.15 1.15v13.9116c0 .634-.516 1.15-1.15 1.15h-15c-.634 0-1.15-.516-1.15-1.15V5.4863Z"/>
  <path d="M8.1745 2.102v2.8843h-1.3V2.102h1.3Zm8.8291 0v2.8843h-1.3V2.102h1.3ZM11.175 13.7911l4.0768-4.0769.9192.9193-4.996 4.996-3.3464-3.3464.9192-.9192 2.4272 2.4272Z"/>
</g></svg>