<svg xmlns="http://www.w3.org/2000/svg" data-laicon-version="15.0" viewBox="0 0 20 20" fill="black"><g transform="translate(-2 -2)">
  <path d="M4.5969 5.2423V18.95h14.8065V5.2423H4.5969Zm-1.3-.0897c0-.6683.5417-1.2103 1.2103-1.2103H19.493c.6684 0 1.2103.5419 1.2103 1.2103v13.8873c0 .6685-.5419 1.2102-1.2103 1.2102H4.5071c-.6682 0-1.2102-.5417-1.2102-1.2102V5.1526Z"/>
  <path d="M3.9468 7.404h16.1064v1.3H3.9468v-1.3ZM8.1677 2.4v2.1922h-1.3V2.4h1.3Zm8.9643 0v2.1922h-1.3V2.4h1.3Zm-.6598 13.8025h1.3v1.3h-1.3v-1.3Z"/>
</g></svg>