<svg xmlns="http://www.w3.org/2000/svg" data-laicon-version="15.3" viewBox="0 0 20 20" fill="black"><g transform="translate(-2 -2)">
  <path d="M12 8.421a3.97 3.97 0 0 0-3.967 3.967A3.97 3.97 0 0 0 12 16.355a3.97 3.97 0 0 0 3.966-3.967A3.97 3.97 0 0 0 12 8.421Zm-2.667 3.967A2.67 2.67 0 0 1 12 9.721a2.67 2.67 0 0 1 2.666 2.667A2.67 2.67 0 0 1 12 15.055a2.67 2.67 0 0 1-2.667-2.667Z"/>
  <path d="M9.589 3.093c-.383 0-.741.187-.96.5L7.735 4.87H5.1a1.95 1.95 0 0 0-1.95 1.95v11.138a1.95 1.95 0 0 0 1.95 1.95h13.8a1.95 1.95 0 0 0 1.95-1.95V6.806a1.95 1.95 0 0 0-1.959-1.95l-2.627.012-.958-1.298a1.172 1.172 0 0 0-.944-.477H9.59ZM8.413 6.17l1.242-1.776h4.643l1.312 1.778 3.287-.015a.65.65 0 0 1 .653.65v11.15a.65.65 0 0 1-.65.65H5.1a.65.65 0 0 1-.65-.65V6.82a.65.65 0 0 1 .65-.65h3.313Z"/>
</g></svg>