<svg xmlns="http://www.w3.org/2000/svg" data-laicon-version="15.3" viewBox="0 0 20 20" fill="black"><g transform="translate(-2 -2)">
  <path d="M14.915 8.954A4.4 4.4 0 0 0 7.603 12.1H7.15a.35.35 0 0 0-.28.56l1.1 1.466a.35.35 0 0 0 .56 0l1.1-1.467a.35.35 0 0 0-.28-.56h-.446a3.1 3.1 0 0 1 5.09-2.225l.92-.921ZM14.65 12.4h.447a3.1 3.1 0 0 1-5.09 2.224l-.922.922a4.4 4.4 0 0 0 7.313-3.146h.452a.35.35 0 0 0 .28-.56l-1.1-1.467a.35.35 0 0 0-.56 0l-1.1 1.467a.35.35 0 0 0 .28.56Z"/>
  <path d="M9.589 3.093c-.383 0-.741.187-.96.5L7.735 4.87H5.1a1.95 1.95 0 0 0-1.95 1.95v11.138a1.95 1.95 0 0 0 1.95 1.95h13.8a1.95 1.95 0 0 0 1.95-1.95V6.806a1.95 1.95 0 0 0-1.959-1.95l-2.627.012-.958-1.298a1.172 1.172 0 0 0-.944-.477H9.59ZM8.413 6.17l1.242-1.776h4.643l1.312 1.778 3.287-.015a.65.65 0 0 1 .653.65v11.15a.65.65 0 0 1-.65.65H5.1a.65.65 0 0 1-.65-.65V6.82a.65.65 0 0 1 .65-.65h3.313Z"/>
</g></svg>