<svg xmlns="http://www.w3.org/2000/svg" data-laicon-version="15.0" viewBox="0 0 20 20" fill="black"><g transform="translate(-2 -2)">
  <path d="M3.4256 3.1371a.65.65 0 0 1 .65 0l4.3842 2.5313h7.0998l4.3842-2.5313a.65.65 0 0 1 .975.563v8.3409c0 4.9204-3.9887 8.9091-8.9091 8.9091-4.9203 0-8.9091-3.9887-8.9091-8.9091V3.7a.65.65 0 0 1 .325-.5629Zm.975 1.6888v7.2151c0 4.2024 3.4068 7.609 7.6091 7.609 4.2024 0 7.6091-3.4066 7.6091-7.609V4.8259l-3.56 2.0554a.65.65 0 0 1-.325.087H8.2856a.65.65 0 0 1-.325-.087l-3.56-2.0554Z"/>
  <path d="M12.6599 13.1017v2.136h-1.3v-2.136h1.3Z"/>
  <path d="m9.835 15.7428 1.8498-1.068.65 1.1258-1.8498 1.068-.65-1.1258Z"/>
  <path d="m13.5345 16.8686-1.8499-1.068.65-1.1258 1.8499 1.068-.65 1.1258ZM14.9479 10.2227c-.5629 0-1.0192.4563-1.0192 1.0192 0 .5629.4563 1.0191 1.0192 1.0191.5628 0 1.0191-.4562 1.0191-1.0191s-.4563-1.0192-1.0191-1.0192Zm-5.8759 0c-.563 0-1.0193.4563-1.0193 1.0192 0 .5629.4563 1.0191 1.0192 1.0191.5628 0 1.0191-.4562 1.0191-1.0191s-.4563-1.0192-1.019-1.0192Z"/>
</g></svg>