<svg xmlns="http://www.w3.org/2000/svg" data-laicon-version="15.0" viewBox="0 0 20 20" fill="black"><g transform="translate(-2 -2)">
  <path d="M4.7502 4.75v14.5h14.5V4.75h-14.5Zm-1.3-.15c0-.6352.5148-1.15 1.15-1.15h14.8c.6352 0 1.15.5148 1.15 1.15v14.8c0 .6351-.5149 1.15-1.15 1.15h-14.8c-.6352 0-1.15-.5148-1.15-1.15V4.6Z"/>
  <path d="M9.281 14.7508c1.2673 0 2.1529-.7128 2.4625-1.7208.0144-.0576-.0144-.1008-.0864-.1224l-1.0944-.288c-.0648-.0216-.108.0072-.1368.0792-.1944.5328-.612.7488-1.1376.7488-.7632 0-1.2888-.5544-1.2888-1.44 0-.8784.5184-1.44 1.2888-1.44.4536 0 .792.1872 1.008.5544.036.0576.0864.0792.144.0576l1.1016-.2952c.072-.0144.1008-.072.072-.144-.3744-.9432-1.1736-1.476-2.3256-1.476-1.5336 0-2.6784 1.1016-2.6784 2.7432s1.0656 2.7432 2.6712 2.7432Zm5.6382 0c1.2672 0 2.1528-.7128 2.4624-1.7208.0144-.0576-.0144-.1008-.0864-.1224l-1.0944-.288c-.0648-.0216-.108.0072-.1368.0792-.1944.5328-.612.7488-1.1376.7488-.7632 0-1.2888-.5544-1.2888-1.44 0-.8784.5184-1.44 1.2888-1.44.4536 0 .792.1872 1.008.5544.036.0576.0864.0792.144.0576l1.1016-.2952c.072-.0144.1008-.072.072-.144-.3744-.9432-1.1736-1.476-2.3256-1.476-1.5336 0-2.6784 1.1016-2.6784 2.7432s1.0656 2.7432 2.6712 2.7432Z"/>
</g></svg>