<svg xmlns="http://www.w3.org/2000/svg" data-laicon-version="15.0" viewBox="0 0 20 20" fill="black"><g transform="translate(-2 -2)">
  <path d="M12 4.05c-4.3907 0-7.95 3.5593-7.95 7.95 0 4.3907 3.5593 7.95 7.95 7.95 4.3907 0 7.95-3.5593 7.95-7.95 0-4.3907-3.5593-7.95-7.95-7.95ZM2.75 12c0-5.1086 4.1414-9.25 9.25-9.25s9.25 4.1414 9.25 9.25-4.1414 9.25-9.25 9.25S2.75 17.1086 2.75 12Z"/>
  <path d="M10.4797 9.0655c-1.2301 1.2301-1.2301 3.2246 0 4.4548.2083.2082.4385.3812.6831.519l.7312-.7312a.846.846 0 0 0 .1841-.275 1.8423 1.8423 0 0 1-.6791-.4321c-.7225-.7225-.7225-1.8938 0-2.6163l1.4142-1.4142c.7224-.7225 1.8938-.7225 2.6163 0 .7224.7225.7224 1.8938 0 2.6163l-.2009.2009a4.1665 4.1665 0 0 1 .2023 1.6362l.9178-.9179c1.2302-1.2301 1.2302-3.2246 0-4.4547-1.2301-1.2302-3.2246-1.2302-4.4548 0l-1.4142 1.4142Z"/>
  <path d="M11.9217 10.9668c.2479.0894.4805.2335.6791.4321.7225.7225.7225 1.8939 0 2.6163l-1.4142 1.4142c-.7224.7225-1.8938.7225-2.6162 0-.7225-.7224-.7225-1.8938 0-2.6163l.2009-.2009a4.1651 4.1651 0 0 1-.2023-1.6361l-.9179.9178c-1.2301 1.2302-1.2301 3.2246 0 4.4548 1.2302 1.2301 3.2246 1.2301 4.4548 0l1.4142-1.4142c1.2301-1.2302 1.2301-3.2247 0-4.4548a3.1503 3.1503 0 0 0-.6831-.519l-.7311.7311a.848.848 0 0 0-.1842.275Z"/>
</g></svg>