<svg xmlns="http://www.w3.org/2000/svg" data-laicon-version="15.0" viewBox="0 0 20 20" fill="black"><g transform="translate(-2 -2)">
  <path d="M11.4764 3.9612v8.5459h8.5507l-.0657.71c-.3998 4.3176-4.0309 7.7681-8.4661 7.7681-4.6959 0-8.5026-3.8067-8.5026-8.5026 0-4.4835 3.6324-8.237 7.7957-8.481l.688-.0404Zm-1.3 1.4178c-3.1777.5499-5.8837 3.5513-5.8837 7.1036 0 3.9779 3.2247 7.2026 7.2026 7.2026 3.4991 0 6.425-2.5499 7.0702-5.8781h-8.3891V5.379Z"/>
  <path d="M21.0703 11.5096h-8.5298v-8.539l.6928.0456c4.0109.2643 7.3992 3.7898 7.7709 7.7832l.0661.7102Zm-1.465-1.3c-.577-2.8649-2.9617-5.2985-5.7648-5.8102v5.8102h5.7648Z"/>
</g></svg>