<svg xmlns="http://www.w3.org/2000/svg" data-laicon-version="15.0" viewBox="0 0 20 20" fill="black"><g transform="translate(-2 -2)">
  <path d="M9.0502 6.2123c-.6075 0-1.1.4925-1.1 1.1 0 .6075.4925 1.1 1.1 1.1.6075 0 1.0999-.4925 1.0999-1.1 0-.6075-.4924-1.1-1.0999-1.1Zm-1.188 6.2601c-.6075 0-1.1.4925-1.1 1.1 0 .6075.4925 1.1 1.1 1.1.6075 0 1.1-.4925 1.1-1.1 0-.6075-.4925-1.1-1.1-1.1Z"/>
  <path d="M21.0501 18.38H2.9477V5.9313h1.3V17.08h16.8024v1.3Z"/>
  <path d="M13.0199 10.3929c-.6075 0-1.1.4925-1.1 1.1 0 .6075.4925 1.1 1.1 1.1.6075 0 1.1-.4925 1.1-1.1 0-.6075-.4925-1.1-1.1-1.1Zm2.8418-4.7599c-.6075 0-1.1.4926-1.1 1.1 0 .6076.4925 1.1 1.1 1.1.6075 0 1.1-.4924 1.1-1.1 0-.6074-.4925-1.1-1.1-1.1Zm2.5254 7.2624c-.6075 0-1.1.4925-1.1 1.1 0 .6075.4925 1.1 1.1 1.1.6075 0 1.1-.4925 1.1-1.1 0-.6075-.4925-1.1-1.1-1.1Z"/>
</g></svg>