<svg xmlns="http://www.w3.org/2000/svg" data-laicon-version="18.1" viewBox="0 0 20 20" fill="black"><g transform="translate(-2 -2)">
  <path d="M21.05 18.83H2.948V6.378h1.3V17.53H21.05v1.3Z"/>
  <path d="M18.71 11.419a.65.65 0 0 1 .581 1.162l-4 2-.216.107-.232-.057-3.768-.943-3.784 1.893a.65.65 0 0 1-.582-1.162l4-2 .216-.107.232.057 3.768.941 3.784-1.891Zm-.138-5.409a.65.65 0 0 1 .856.98l-4.219 3.69-4.03-.503-3.79 2.843a.649.649 0 1 1-.779-1.04l4-3 .21-.158.261.033 3.71.463 3.781-3.307Z"/>
</g></svg>