<svg xmlns="http://www.w3.org/2000/svg" data-laicon-version="15.0" viewBox="0 0 20 20" fill="black"><g transform="translate(-2 -2)">
  <path d="M11.8722 10.2255a.9.9 0 1 0 0 1.8.9.9 0 0 0 0-1.8Zm-3.5386 0a.9.9 0 1 0 0 1.8.9.9 0 0 0 0-1.8Zm7.0767 0a.9.9 0 1 0 0 1.8.9.9 0 0 0 0-1.8Z"/>
  <path d="M6.5966 6.374c-1.256 1.2676-1.988 3.1338-1.988 5.5207 0 2.8387 1.6621 5.3506 2.8876 6.8107.6247-.8619 1.6496-1.7438 3.2265-1.7444h.0015l2.2892-.0098h.0028c3.4682 0 6.2909-2.8223 6.2909-6.2904 0-1.9386-.7072-3.4895-1.9291-4.5632C16.1475 5.0163 14.3376 4.37 12.0582 4.37c-2.3602 0-4.2063.7369-5.4616 2.004Zm-.9235-.915C7.2185 3.8991 9.4223 3.07 12.0582 3.07c2.5189 0 4.6585.7159 6.1779 2.051 1.5279 1.3427 2.371 3.2622 2.371 5.5398 0 4.1857-3.4041 7.5896-7.5894 7.5904h-.0015l-2.2892.0098h-.0028c-1.33 0-2.114.9634-2.5516 1.8265l-.4192.8269-.6345-.676c-1.2252-1.3055-3.8103-4.4963-3.8103-8.3437 0-2.6555.8198-4.8767 2.3645-6.4358Z"/>
</g></svg>