<svg xmlns="http://www.w3.org/2000/svg" data-laicon-version="15.0" viewBox="0 0 20 20" fill="black"><g transform="translate(-2 -2)">
  <path d="M5.1168 4.901h13.549c.1931 0 .35.157.35.35v11.567c0 .193-.1569.35-.35.35h-9.387a.6495.6495 0 0 0-.5539.3096l-1.3021 1.3021v-.9617a.65.65 0 0 0-.65-.65h-1.656a.7671.7671 0 0 0-.0215.0003.3504.3504 0 0 1-.3285-.3493V5.251c0-.193.157-.35.35-.35ZM9.573 18.468h9.0928c.911 0 1.65-.739 1.65-1.65V5.251c0-.911-.739-1.65-1.65-1.65H5.1168c-.911 0-1.65.739-1.65 1.65v11.568c0 .911.739 1.65 1.65 1.65a.73.73 0 0 0 .0364-.001h.9696v1.881a.65.65 0 0 0 1.1096.4596L9.573 18.468Z"/>
  <path d="M15.2179 11.685h-6.654v-1.3h6.654v1.3Z"/>
  <path d="M11.2407 14.362V7.709h1.3v6.653h-1.3Z"/>
</g></svg>