<svg xmlns="http://www.w3.org/2000/svg" data-laicon-version="15.0" viewBox="0 0 20 20" fill="black"><g transform="translate(-2 -2)">
  <path d="M10.6944 10.4922a.9.9 0 0 0-.9.9.9.9 0 1 0 1.8 0 .9.9 0 0 0-.9-.9Zm-3.3979 0a.9.9 0 1 0 0 1.8.9.9 0 0 0 0-1.8Zm6.7959 0a.9.9 0 1 0 0 1.8.9.9 0 0 0 0-1.8Z"/>
  <path d="M5.665 6.8657C4.469 8.073 3.7703 9.8518 3.7703 12.1308c0 2.6773 1.5506 5.0536 2.719 6.4581.6102-.8194 1.5981-1.6428 3.102-1.6432h.0012l3.1162-.0098.004 1.3-3.1181.0098h-.002c-1.2608 0-2.0107.9-2.4367 1.7252l-.423.8198-.6297-.6743c-1.1827-1.2666-3.6329-4.3144-3.6329-7.9856 0-2.5477.7866-4.6814 2.2714-6.18 1.4855-1.4994 3.6026-2.2952 6.1315-2.2952 2.4158 0 4.4706.6864 5.9311 1.969 1.4691 1.2903 2.279 3.1347 2.279 5.3211v.4464h-1.3v-.4464c0-1.8472-.6739-3.3229-1.8369-4.3443-1.1715-1.0289-2.8967-1.6458-5.0732-1.6458-2.2533 0-4.0126.7035-5.208 1.9101Z"/>
  <path d="M21.9982 17.6094h-7.5963v-1.3h7.5963v1.3Z"/>
  <path d="M17.5498 20.7577v-7.5963h1.3v7.5963h-1.3Z"/>
</g></svg>