<svg xmlns="http://www.w3.org/2000/svg" data-laicon-version="15.0" viewBox="0 0 20 20" fill="black"><g transform="translate(-2 -2)">
  <path d="M9.8999 8.668a.501.501 0 0 1 .75-.434l4.038 2.332a.5003.5003 0 0 1 .183.683.5003.5003 0 0 1-.183.183l-4.038 2.332a.5012.5012 0 0 1-.75-.433V8.668Zm2.938 2.331-1.638-.946v1.892l1.638-.946Z"/>
  <path d="M18.6658 18.468h-9.092l-2.341 2.34a.6502.6502 0 0 1-.7084.1414.6496.6496 0 0 1-.4016-.6004v-1.88h-.97a1.65 1.65 0 0 1-1.686-1.649V5.25c0-.91.74-1.65 1.65-1.65h13.55c.91 0 1.65.74 1.65 1.65v11.567a1.65 1.65 0 0 1-1.65 1.65l-.001.001Zm0-13.567H5.1168a.35.35 0 0 0-.35.35V16.82a.3498.3498 0 0 0 .35.35h1.656a.65.65 0 0 1 .65.65v.96l1.302-1.301a.6506.6506 0 0 1 .554-.31h9.387a.3503.3503 0 0 0 .35-.35V5.251a.3501.3501 0 0 0-.35-.35Z"/>
</g></svg>