<svg xmlns="http://www.w3.org/2000/svg" data-laicon-version="15.0" viewBox="0 0 20 20" fill="black"><g transform="translate(-2 -2)">
  <path d="M17.6001 11c-.3 0-.5.2-.5.5s.2.5.5.5.5-.2.5-.5-.2-.5-.5-.5Zm-1.7002 0c-.3 0-.5.2-.5.5s.2.5.5.5.5-.2.5-.5-.2-.5-.5-.5Zm-1.6001 1.1a.5.5 0 1 0-.0001-1.0001.5.5 0 0 0 .0001 1.0001Z"/>
  <path d="m14 16.8-.6-.7c-.7-.8-1.9-2.3-1.9-4.2 0-2.8 1.8-4.6 4.5-4.6s4.5 1.6 4.5 4c0 2.2-1.8 4-4 4h-1.1c-.4 0-.7.2-.9.7l-.5.8Zm2-8.2c-2 0-3.2 1.2-3.2 3.3 0 1.1.6 2.1 1.1 2.7.4-.4 1-.6 1.5-.6h1.1c1.5 0 2.7-1.2 2.7-2.7-.1-1.6-1.3-2.7-3.2-2.7Zm-4.3999-3.5h-2.5v1h2.5v-1Z"/>
  <path d="m15.6 16.6-.7 1.3V19c0 .5-.4.8-.8.8H6.6c-.5 0-.9-.4-.9-.8V5c0-.5.4-.9.9-.9H14c.5 0 .8.4.8.9v1.1c.5 0 .8-.1 1.2-.1h.2V5c0-1.2-1-2.1-2.2-2.1H6.6c-1.2 0-2.1 1-2.1 2.1v14c0 1.2 1 2.2 2.1 2.2H14c1.2 0 2.2-1 2.2-2.2v-2.4h-.6Z"/>
</g></svg>