<svg xmlns="http://www.w3.org/2000/svg" data-laicon-version="15.0" viewBox="0 0 20 20" fill="black"><g transform="translate(-2 -2)">
  <path d="M20.6418 4.302a1.0878 1.0878 0 0 0-1.088-1.088 1.0878 1.0878 0 0 0-1.088 1.088 1.0878 1.0878 0 0 0 1.088 1.088 1.0878 1.0878 0 0 0 1.088-1.088Zm-3.676 0c0 .206.024.407.07.6H5.1168a.35.35 0 0 0-.35.35v11.567a.3502.3502 0 0 0 .35.35h1.656a.65.65 0 0 1 .65.65v.96l1.302-1.301a.6495.6495 0 0 1 .554-.31h9.387a.3503.3503 0 0 0 .35-.35V6.834a2.59 2.59 0 0 0 1.3-.058v10.042c0 .4376-.1738.8573-.4833 1.1667a1.6496 1.6496 0 0 1-1.1667.4833h-9.093l-2.34 2.34a.6502.6502 0 0 1-.7084.1414.6496.6496 0 0 1-.4016-.6004v-1.88h-.97a1.65 1.65 0 0 1-1.686-1.649V5.25c0-.91.74-1.65 1.65-1.65h11.945a2.5833 2.5833 0 0 0-.096.701v.001Z"/>
</g></svg>