<svg xmlns="http://www.w3.org/2000/svg" data-laicon-version="15.0" viewBox="0 0 20 20" fill="black"><g transform="translate(-2 -2)">
  <path d="M19.545 3.273c-.6009 0-1.088.487-1.088 1.088 0 .6008.4871 1.0879 1.088 1.0879.6008 0 1.088-.4871 1.088-1.088 0-.601-.4871-1.088-1.088-1.088ZM6.519 7.203c-1.1602 1.171-1.8391 2.8973-1.8391 5.1116 0 2.6015 1.5084 4.9099 2.6432 6.2724.5903-.7955 1.5477-1.597 3.0078-1.5974h.0015l2.1323-.0091h.0028c3.2063 0 5.8158-2.6092 5.8158-5.8153 0-1.7943-.6542-3.2265-1.7819-4.2175-1.1364-.9985-2.8111-1.5983-4.9263-1.5983-2.1893 0-3.8967.6834-5.0562 1.8536Zm-.9235-.915C7.045 4.825 9.1102 4.0495 11.575 4.0495c2.3547 0 4.3591.6693 5.7844 1.9218 1.4338 1.26 2.2238 3.0607 2.2238 5.194 0 3.9238-3.1909 7.1145-7.1143 7.1153h-.0015l-2.1323.0091h-.0028c-1.2131-.0001-1.9318.8776-2.3373 1.6772l-.4193.8268-.6344-.676C5.799 18.9002 3.38 15.9169 3.38 12.3146c0-2.483.7667-4.5642 2.2156-6.0265Z"/>
</g></svg>