<svg xmlns="http://www.w3.org/2000/svg" data-laicon-version="15.7" viewBox="0 0 20 20" fill="black"><g transform="translate(-2 -2)">
  <path d="M10 3.55c-2.387 0-4.315.839-5.643 2.247C3.034 7.199 2.35 9.117 2.35 11.2c0 3.556 2.016 6.5 4.021 7.739.615.38 1.242-.123 1.29-.662.062-.689.356-1.108.713-1.369.1-.072.207-.134.32-.187.78 2.684 2.67 4.153 3.415 4.645.616.408 1.258-.1 1.303-.648.04-.5.188-.843.367-1.049.167-.191.395-.307.721-.307h1.143a5.976 5.976 0 0 0 6.007-6.007c0-1.551-.495-2.897-1.42-3.924-.823-.916-1.957-1.543-3.3-1.855a6.127 6.127 0 0 0-1.601-2.202C13.992 4.199 12.13 3.55 10 3.55ZM3.65 11.2c0-1.802.59-3.384 1.652-4.511 1.057-1.12 2.63-1.839 4.699-1.839 1.87 0 3.409.568 4.47 1.5 1.056.928 1.68 2.248 1.68 3.85 0 1.617-.585 2.856-1.472 3.694-.893.844-2.128 1.313-3.478 1.313H9.7c-.673 0-1.447.181-2.092.651-.5.366-.9.89-1.105 1.58C5.049 16.25 3.65 13.947 3.65 11.2Zm13.71-2.145c.788.286 1.427.713 1.907 1.245.688.765 1.085 1.791 1.085 3.055a4.676 4.676 0 0 1-4.707 4.707h-1.143c-.685 0-1.276.266-1.7.753a2.713 2.713 0 0 0-.548 1.037c-.727-.605-1.744-1.695-2.264-3.345h1.21c1.65 0 3.214-.575 4.371-1.668 1.163-1.099 1.879-2.688 1.879-4.639a7.06 7.06 0 0 0-.092-1.145Z"/>
</g></svg>