<svg xmlns="http://www.w3.org/2000/svg" data-laicon-version="15.0" viewBox="0 0 20 20" fill="black"><g transform="translate(-2 -2)">
  <path d="M9.3532 11.0379a.8999.8999 0 0 1-1.5364.6364.8998.8998 0 0 1 .6364-1.5364.9003.9003 0 0 1 .9.9Zm3.537 0a.8998.8998 0 0 1-.9.9.9.9 0 1 1 .9-.9Zm2.639.9a.9.9 0 1 0 0-1.8.9.9 0 0 0 0 1.8Z"/>
  <path d="M18.7659 18.468h-9.093l-2.34 2.34a.6502.6502 0 0 1-1.0003-.0979.6499.6499 0 0 1-.1097-.3611v-1.88h-.97a1.65 1.65 0 0 1-1.686-1.649V5.25c0-.91.739-1.65 1.65-1.65h13.549c.91 0 1.65.74 1.65 1.65v11.567a1.65 1.65 0 0 1-1.65 1.65v.001Zm-13.9-13.217V16.82a.3498.3498 0 0 0 .35.35h1.657a.65.65 0 0 1 .65.65v.96l1.302-1.301a.6506.6506 0 0 1 .554-.31h9.387a.3503.3503 0 0 0 .35-.35V5.251a.3501.3501 0 0 0-.35-.35h-13.55a.35.35 0 0 0-.35.35Z"/>
</g></svg>