<svg xmlns="http://www.w3.org/2000/svg" data-laicon-version="15.0" viewBox="0 0 20 20" fill="black"><g transform="translate(-2 -2)">
  <path d="M5.412 5.412C7.1288 3.695 9.4172 2.75 11.839 2.75s4.7102.945 6.4272 2.662c2.8754 2.8753 3.4863 7.2297 1.5648 10.7585l1.2894 4.136a.65.65 0 0 1-.8108.815l-4.1492-1.2705a9.1125 9.1125 0 0 1-4.332 1.0983c-2.4226 0-4.7002-.9455-6.4166-2.6619C3.6946 16.5701 2.75 14.2816 2.75 11.8497c0-2.4332.9454-4.71 2.6604-6.4363l.0015-.0015Zm.92.9184C4.8575 7.8148 4.05 9.7626 4.05 11.8497c0 2.0886.8087 4.046 2.2812 5.5185 1.4733 1.4734 3.4206 2.2811 5.4973 2.2811 1.3838 0 2.7393-.3703 3.9296-1.063a.6504.6504 0 0 1 .5173-.0598l3.2376.9915-1.0066-3.2289a.6499.6499 0 0 1 .0597-.5221c1.7939-3.0613 1.3074-6.9094-1.219-9.4358-1.4728-1.4728-3.4304-2.2812-5.508-2.2812-2.0773 0-4.0345.8081-5.5072 2.2804Z"/>
  <path d="M15.5501 11.05c-.5235 0-.95.4265-.95.95 0 .5234.4265.95.95.95.5234 0 .95-.4266.95-.95 0-.5235-.4266-.95-.95-.95Zm-3.5503 0c-.5235 0-.95.4265-.95.95 0 .5234.4265.95.95.95.5234 0 .95-.4266.95-.95 0-.5235-.4169-.95-.95-.95Zm-3.5996 0c-.5235 0-.95.4265-.95.95 0 .5234.4265.95.95.95s.95-.4266.95-.95c0-.5235-.4265-.95-.95-.95Z"/>
</g></svg>