<svg xmlns="http://www.w3.org/2000/svg" data-laicon-version="15.0" viewBox="0 0 20 20" fill="black"><g transform="translate(-2 -2)">
  <path d="M2.6499 11.4723c0-4.6194 4.2744-8.2152 9.35-8.2152s9.35 3.5958 9.35 8.2152c0 4.6194-4.2744 8.2152-9.35 8.2152-1.3287 0-2.5889-.2501-3.7325-.6897l-2.8458 1.6569a.65.65 0 0 1-.9668-.677l.5512-3.0607c-1.4519-1.438-2.3561-3.3395-2.3561-5.4447Zm9.35-6.9152c-4.5342 0-8.05 3.1784-8.05 6.9152 0 1.8178.8242 3.4839 2.1959 4.7349a.65.65 0 0 1 .2017.5955l-.3639 2.0204 1.9044-1.1088a.65.65 0 0 1 .5796-.0372c1.0681.4502 2.2632.7104 3.5323.7104 4.5342 0 8.05-3.1785 8.05-6.9152 0-3.7368-3.5158-6.9152-8.05-6.9152Z"/>
  <path d="M12.0001 10.484c-.5459 0-.9884.4425-.9884.9884 0 .5459.4425.9884.9884.9884.5459 0 .9884-.4425.9884-.9884 0-.5459-.4425-.9884-.9884-.9884Zm3.7827 0c-.5459 0-.9884.4425-.9884.9884 0 .5459.4425.9884.9884.9884.5459 0 .9884-.4425.9884-.9884 0-.5459-.4425-.9884-.9884-.9884Zm-7.5654 0c-.5459 0-.9884.4425-.9884.9884 0 .5459.4425.9884.9884.9884.5459 0 .9884-.4425.9884-.9884 0-.5459-.4425-.9884-.9884-.9884Z"/>
</g></svg>