<svg xmlns="http://www.w3.org/2000/svg" data-laicon-version="15.0" viewBox="0 0 20 20" fill="black"><g transform="translate(-2 -2)">
  <path d="M3.7997 12.1099c0 2.72 1.62 5.14 2.73 6.47h.02c.79-1.07 1.86-1.66 3.09-1.66h3.0801v1.31h-3.08c-1.28 0-2.02.94-2.42 1.73l-.42.83-.64-.68c-1.36-1.45-3.65-4.42-3.65-8 0-5.15 3.42-8.47 8.4-8.47s8.1999 2.86 8.1999 7.29c0 .0813-.0051.16-.0102.2374a3.4177 3.4177 0 0 0-.0097.2226h-1.3c.0099-.1497.0099-.3093.0099-.4591v-.0009c0-3.7-2.45-5.99-6.9-5.99s-7.1 2.68-7.1 7.17Zm2.6002-.71c0 .5.4.9.9.9s.9-.4.9-.9-.4-.9-.9-.9-.9.4-.9.9Zm14.6597 4.21-.92-.92-1.82 1.82-1.82-1.82-.92.92 1.82 1.82-1.82 1.82.92.92 1.82-1.82 1.82 1.82.92-.92-1.82-1.82 1.82-1.82Zm-10.3598-3.31c-.5 0-.9-.4-.9-.9s.4-.9.9-.9.9.4.9.9-.4.9-.9.9Zm3.3999-1.8c-.5 0-.9.4-.9.9s.4.9.9.9.9-.4.9-.9-.4-.9-.9-.9Z"/>
</g></svg>