<svg xmlns="http://www.w3.org/2000/svg" data-laicon-version="15.0" viewBox="0 0 20 20" fill="black"><g transform="translate(-2 -2)">
  <path d="M11.4349 11.2412c.8126.8414 1.5488 1.1631 1.5957 1.1166l.7984-.7988c.1247-.1235.4032-.1235.4943-.0366l1.1059.9311c.2294.2012.3462.7133.0508 1.0761l-.6614.6745c-.6058.4395-2.2591.4976-4.5761-1.7506-2.2612-2.3032-2.077-4.0739-1.6655-4.4817l.5957-.6015c.3202-.3173.8726-.3173 1.156 0l.9224 1.0731c.1168.1308.0807.4322-.0709.5698l-.7506.7436s.1077.5402 1.0053 1.4844Z"/>
  <path d="M6.6381 6.414c-1.256 1.2676-1.988 3.1339-1.988 5.5208 0 2.8387 1.6621 5.3506 2.8876 6.8107.6247-.8619 1.6497-1.7438 3.2265-1.7444h.0015l2.2892-.0098h.0028c3.4682 0 6.2909-2.8223 6.2909-6.2904 0-1.9386-.7072-3.4896-1.9291-4.5633C16.189 5.0564 14.3791 4.41 12.0997 4.41c-2.3602 0-4.2063.737-5.4616 2.004Zm-.9235-.915C7.26 3.9392 9.4638 3.11 12.0997 3.11c2.5189 0 4.6585.716 6.1779 2.051 1.5279 1.3427 2.371 3.2622 2.371 5.5399 0 4.1857-3.4041 7.5896-7.5894 7.5904h-.0015l-2.2892.0098h-.0028c-1.3299 0-2.114.9634-2.5516 1.8265l-.4192.827-.6345-.6761c-1.2252-1.3055-3.8103-4.4963-3.8103-8.3437 0-2.6556.8198-4.8767 2.3645-6.4358Z"/>
</g></svg>