<svg xmlns="http://www.w3.org/2000/svg" data-laicon-version="15.0" viewBox="0 0 20 20" fill="black"><g transform="translate(-2 -2)">
  <path d="M16.4996 11.6001a.8.8 0 0 0 .8-.8.8.8 0 1 0-1.5999 0c0 .4419.3581.8.7999.8Zm-3.9-.8c0-.44.36-.8.8-.8.45 0 .8.36.8.8 0 .44-.36.8-.8.8-.44 0-.8-.36-.8-.8Zm-2.2996.8a.8.8 0 0 0 .8-.8.8.8 0 1 0-1.6 0 .8.8 0 0 0 .8.8Z"/>
  <path d="m21.6199 18.3102-1.12-3.6c1.68-3.11 1.12-6.98-1.4-9.5-1.52-1.52-3.54-2.36-5.69-2.36-2.15 0-4.17.84-5.69 2.36-1.52 1.53-2.36 3.56-2.36 5.7s.84 4.18 2.36 5.7c1.52 1.52 3.5401 2.36 5.6801 2.36 1.33 0 2.6399-.33 3.8099-.96l3.61 1.1c.06.02.13.03.19.03.17 0 .34-.07.46-.19.17-.17.23-.42.16-.65l-.01.01Zm-2.45-3.48.84 2.69-2.7-.83c-.17-.06-.36-.03-.52.06-1.03.6-2.21.92-3.41.92-1.8 0-3.49-.7-4.77-1.98-1.28-1.27-1.98-2.97-1.98-4.78s.7-3.5 1.98-4.79c1.28-1.27 2.97-1.98 4.77-1.98 1.8 0 3.5001.7 4.7701 1.98 2.17 2.17 2.6099 5.54 1.0599 8.18-.09.16-.1099.35-.0599.52l.0199.01Z"/>
  <path d="M5.7799 19.3602c.65.38 1.39.58 2.14.58l-.01.01c.69 0 1.36-.17 1.96-.48.5099.21 1.0399.37 1.5899.49-1 .83-2.24 1.29-3.55 1.29-.89 0-1.76-.22-2.54-.62l-2.29.7c-.23.07-.48.01-.65-.16-.17-.17-.23-.42-.16-.65l.71-2.29c-.77-1.49-.81-3.2-.19-4.68.28-.65.68-1.26 1.2-1.78.03-.03.06-.0575.09-.085.03-.0275.06-.055.09-.085.04.56.13 1.11.27 1.64-.18.26-.33.53-.45.81-.5 1.2-.43 2.59.26 3.77.09.16.12.35.06.52l-.43 1.38 1.38-.42c.18-.05.3601-.03.5201.06Z"/>
</g></svg>