<svg xmlns="http://www.w3.org/2000/svg" data-laicon-version="15.0" viewBox="0 0 20 20" fill="black"><g transform="translate(-2 -2)">
  <path d="M6.6396 6.414c-1.256 1.2676-1.988 3.1339-1.988 5.5208 0 2.8387 1.6621 5.3506 2.8875 6.8107.6248-.8619 1.6497-1.7438 3.2266-1.7444h.0015l2.2892-.0098h.0028c3.4682 0 6.2909-2.8223 6.2909-6.2904 0-1.9386-.7072-3.4896-1.9291-4.5633C16.1905 5.0564 14.3806 4.41 12.1012 4.41c-2.3603 0-4.2063.737-5.4616 2.004Zm-.9235-.915C7.2615 3.9392 9.4653 3.11 12.1012 3.11c2.5189 0 4.6585.716 6.1779 2.051 1.5279 1.3427 2.371 3.2622 2.371 5.5399 0 4.1857-3.4041 7.5896-7.5894 7.5904h-.0015l-2.2892.0098h-.0028c-1.33 0-2.114.9634-2.5516 1.8265l-.4192.827-.6345-.6761c-1.2253-1.3055-3.8103-4.4963-3.8103-8.3437 0-2.6556.8197-4.8767 2.3645-6.4358Z"/>
  <path d="M7.3501 13.8158v-5.32h1.3v5.32h-1.3Z"/>
  <path d="M10.8671 11.8059H8v-1.3h2.8671v1.3Z"/>
  <path d="M10.2173 13.8158v-5.32h1.3v5.32h-1.3Zm2.375 0v-3.6046h1.3v3.6046h-1.3ZM13.2499 8.5134a.64.64 0 1 0 0 1.28.64.64 0 0 0 0-1.28Zm2.5025 3.9685a.6499.6499 0 1 0 0 1.2997.6499.6499 0 0 0 0-1.2997ZM15.1021 12.0673V8.5134h1.3v3.5539h-1.3Z"/>
</g></svg>