<svg xmlns="http://www.w3.org/2000/svg" data-laicon-version="15.0" viewBox="0 0 20 20" fill="black"><g transform="translate(-2 -2)">
  <path d="M9.419 8.9442c-1.009 1.0184-1.6044 2.5243-1.6044 4.4666 0 2.2293 1.2691 4.2181 2.2594 5.4248.5355-.6902 1.3859-1.366 2.6617-1.3665h.0015l1.885-.0081h.0028c2.7933 0 5.0669-2.2733 5.0669-5.0665 0-1.5668-.5705-2.8118-1.55-3.6725-.988-.8682-2.4496-1.3944-4.3059-1.3944-1.9198 0-3.4087.5988-4.417 1.6166Zm-.9236-.915c1.2986-1.3105 3.1452-2.0016 5.3406-2.0016 2.0958 0 3.8871.5958 5.164 1.7179 1.2855 1.1296 1.9919 2.7431 1.9919 4.649 0 3.5108-2.855 6.3657-6.3654 6.3665h-.0015l-1.885.0081h-.0028c-1.0289 0-1.645.7427-1.9994 1.4416l-.4192.8269-.6344-.676c-1.0122-1.0785-3.1696-3.735-3.1696-6.9508 0-2.2109.683-4.0717 1.9809-5.3816Z"/>
  <path d="M9.4304 4.33h.0001c-1.6335 0-2.9117.463-3.772 1.219-.8517.7483-1.3502 1.832-1.3502 3.203 0 1.9482 1.2682 3.6093 3.0255 4.1958l-.4116 1.2331c-2.2705-.7578-3.9139-2.9032-3.9139-5.4289 0-1.71.6344-3.1623 1.7921-4.1796C5.9496 3.5626 7.5574 3.03 9.4304 3.03c2.6866 0 4.7833 1.1624 5.8366 3.262l-1.1619.583c-.7945-1.5836-2.3879-2.545-4.6747-2.545Z"/>
</g></svg>