<svg xmlns="http://www.w3.org/2000/svg" data-laicon-version="15.0" viewBox="0 0 20 20" fill="black"><g transform="translate(-2 -2)">
  <path d="M19.3778 13.039V5.251a1.6501 1.6501 0 0 0-1.65-1.65H4.1798a1.65 1.65 0 0 0-1.65 1.65V16.82A1.6493 1.6493 0 0 0 3.026 18a1.6497 1.6497 0 0 0 1.1907.47h.97v1.88a.65.65 0 0 0 1.109.46l2.34-2.34h5.303v-1.3h-5.598a.6489.6489 0 0 0-.554.309l-1.302 1.301v-.962a.6502.6502 0 0 0-.65-.65h-1.677a.3505.3505 0 0 1-.329-.349V5.251a.35.35 0 0 1 .35-.35h13.55a.35.35 0 0 1 .35.35v7.788h1.3-.001Zm-1.29 5.449v2.65h1.3v-2.65h2.65v-1.3h-2.65v-2.65h-1.3v2.65h-2.65v1.3h2.65Z"/>
  <path d="M11.0298 11.9379a.9.9 0 1 0 0-1.8.9.9 0 0 0 0 1.8Zm-3.539 0a.9.9 0 1 0 0-1.7999.9.9 0 0 0 0 1.7999Zm7.077 0a.9.9 0 1 0 0-1.8.9.9 0 0 0 0 1.8Z"/>
</g></svg>