<svg xmlns="http://www.w3.org/2000/svg" data-laicon-version="15.0" viewBox="0 0 20 20" fill="black"><g transform="translate(-2 -2)">
  <path d="M17.6588 8.198V5.081c0-.817-.662-1.479-1.479-1.479H4.9458c-.817 0-1.479.662-1.479 1.48v9.5901c0 .817.662 1.48 1.479 1.48h.724v1.448a.6503.6503 0 0 0 .4011.6012.65.65 0 0 0 .7089-.1412l1.498-1.499v1.351c0 .74.6 1.341 1.341 1.341h6.195l1.556 1.557a.6497.6497 0 0 0 1.0007-.0985.6508.6508 0 0 0 .1093-.3615v-1.098h.495c.74 0 1.341-.6 1.341-1.34v-8.374c0-.74-.6-1.34-1.34-1.34h-1.317ZM4.7668 5.081c0-.099.08-.179.179-.179h11.234c.1 0 .179.08.179.18v9.5901c0 .1-.08.18-.179.18h-7.782a.6495.6495 0 0 0-.547.298l-.881.88v-.529a.6502.6502 0 0 0-.65-.65h-1.374a.179.179 0 0 1-.179-.179v-9.591Zm4.811 11.07h6.602c.817 0 1.479-.6619 1.479-1.4789v-5.174h1.316c.022 0 .041.019.041.041v8.3719c0 .023-.02.0411-.042.0411h-1.144a.6499.6499 0 0 0-.65.6499v.1791l-.54-.5401a.6505.6505 0 0 0-.54-.288h-6.48a.0404.0404 0 0 1-.042-.0399v-1.763.0009Z"/>
</g></svg>