<svg xmlns="http://www.w3.org/2000/svg" data-laicon-version="15.0" viewBox="0 0 20 20" fill="black"><g transform="translate(-2 -2)">
  <path d="M5.2169 4.901h13.549c.193 0 .35.157.35.35v11.567c0 .193-.157.35-.35.35h-9.387a.6495.6495 0 0 0-.5539.3096l-1.302 1.3022v-.9618a.65.65 0 0 0-.65-.65H5.217a.766.766 0 0 0-.0215.0003.3504.3504 0 0 1-.3285-.3493V5.251c0-.193.157-.35.35-.35ZM9.673 18.468h9.0928c.911 0 1.65-.739 1.65-1.65V5.251c0-.911-.739-1.65-1.65-1.65H5.2169c-.911 0-1.65.739-1.65 1.65v11.568c0 .911.739 1.65 1.65 1.65a.6261.6261 0 0 0 .0363-.001h.9697v1.881a.65.65 0 0 0 1.1096.4596l2.3406-2.3406Z"/>
  <path d="M16.1211 13.474h-8v-1.3h8v1.3Zm-.007-3.635h-7.993v-1.3h7.993v1.3Z"/>
</g></svg>