<svg xmlns="http://www.w3.org/2000/svg" data-laicon-version="15.0" viewBox="0 0 20 20" fill="black"><g transform="translate(-2 -2)">
  <path d="M8.142 4.959 5.0976 7.893l-2.068-1.9592.8942-.9437 1.166 1.1048 2.1499-2.072.9021.936ZM20.5 6.85h-10v-1.3h10v1.3ZM8.142 10.949l-3.0443 2.934-2.068-1.9592.8942-.9437 1.166 1.1048 2.1499-2.072.9021.9361ZM20.5 12.751h-10v-1.3h10v1.3ZM8.1418 16.977l-3.0442 2.9329-2.0678-1.9591.894-.9437 1.1663 1.1048 2.1498-2.0711.902.9362ZM20.5 18.6549h-10v-1.3h10v1.3Z"/>
</g></svg>