<svg xmlns="http://www.w3.org/2000/svg" data-laicon-version="15.0" viewBox="0 0 20 20" fill="black"><g transform="translate(-2 -2)">
  <path d="m11.1699 13.3637 4.1062-4.1062.9192.9192-5.0254 5.0254-3.3652-3.3651.9192-.9192 2.446 2.4459Z"/>
  <path d="M12.0035 4.0401C7.6074 4.0401 4.0436 7.604 4.0436 12c0 4.3961 3.5638 7.9598 7.9599 7.9598 4.3961 0 7.9598-3.5637 7.9598-7.9598 0-4.3961-3.5637-7.9599-7.9598-7.9599ZM2.7436 12c0-5.1141 4.1458-9.2599 9.2599-9.2599S21.2633 6.886 21.2633 12s-4.1457 9.2598-9.2598 9.2598c-5.114 0-9.2599-4.1457-9.2599-9.2598Z"/>
</g></svg>