<svg xmlns="http://www.w3.org/2000/svg" data-laicon-version="15.0" viewBox="0 0 20 20" fill="black"><g transform="translate(-2 -2)">
  <path d="m11.1702 15.202-3.365-3.365.919-.919 2.446 2.446 4.105-4.106.92.918-5.025 5.026Z"/>
  <path d="M11.9999 20.8511c-1.672 0-3.33-.101-4.929-.299-1.897-.234-3.388-1.724-3.623-3.623-.198-1.604-.299-3.262-.299-4.929 0-1.667.101-3.3261.299-4.9291.236-1.9 1.726-3.39 3.624-3.623 3.19-.396 6.669-.396 9.857 0 1.898.233 3.389 1.723 3.624 3.623.198 1.607.299 3.2661.299 4.9291 0 1.663-.101 3.321-.299 4.928a4.1609 4.1609 0 0 1-3.624 3.624c-1.599.198-3.257.299-4.929.299Zm0-16.4011c-1.622 0-3.227.097-4.77.289a2.8613 2.8613 0 0 0-2.492 2.492c-.192 1.55-.289 3.1551-.289 4.7691 0 1.613.097 3.218.289 4.769.162 1.307 1.187 2.332 2.493 2.492 3.093.385 6.445.386 9.539 0a2.8584 2.8584 0 0 0 2.492-2.492c.192-1.554.289-3.159.289-4.769 0-1.61-.097-3.2151-.289-4.7701a2.8603 2.8603 0 0 0-2.492-2.491c-1.543-.192-3.148-.289-4.77-.289Z"/>
</g></svg>