<svg xmlns="http://www.w3.org/2000/svg" data-laicon-version="15.0" viewBox="0 0 20 20" fill="black"><g transform="translate(-2 -2)">
  <path d="M2.75 12c0-5.1086 4.1414-9.25 9.25-9.25s9.25 4.1414 9.25 9.25-4.1414 9.25-9.25 9.25S2.75 17.1086 2.75 12ZM12 4.05c-4.3907 0-7.95 3.5593-7.95 7.95 0 4.3907 3.5593 7.95 7.95 7.95 4.3907 0 7.95-3.5593 7.95-7.95 0-4.3907-3.5593-7.95-7.95-7.95Z"/>
  <path d="m11.0195 8.6232 3.3382 3.383-3.3392 3.3693-.9233-.9151 2.4342-2.4562-2.4352-2.468.9253-.913Z"/>
</g></svg>