<svg xmlns="http://www.w3.org/2000/svg" data-laicon-version="15.0" viewBox="0 0 20 20" fill="black"><g transform="translate(-2 -2)">
  <path d="M12 19.95c-4.3907 0-7.95-3.5593-7.95-7.95 0-4.3907 3.5593-7.95 7.95-7.95 4.3907 0 7.95 3.5593 7.95 7.95 0 4.3907-3.5593 7.95-7.95 7.95ZM2.75 12c0 5.1086 4.1414 9.25 9.25 9.25s9.25-4.1414 9.25-9.25S17.1086 2.75 12 2.75 2.75 6.8914 2.75 12Z"/>
  <path d="m12.0041 11.4708-2.468 2.4352-.913-.9253 3.383-3.3382 3.3692 3.3392-.9151.9233-2.4561-2.4342Z"/>
</g></svg>