<svg xmlns="http://www.w3.org/2000/svg" data-laicon-version="15.0" viewBox="0 0 20 20" fill="black"><g transform="translate(-2 -2)">
  <path d="M12.0001 4.4c-4.1974 0-7.6 3.4026-7.6 7.6s3.4026 7.6 7.6 7.6 7.6-3.4026 7.6-7.6-3.4026-7.6-7.6-7.6Zm-8.9 7.6c0-4.9154 3.9847-8.9 8.9-8.9s8.9 3.9846 8.9 8.9c0 4.9153-3.9847 8.9-8.9 8.9s-8.9-3.9847-8.9-8.9Z"/>
  <path d="M7.5852 15.0001h4.097c.068 0 .1105-.0425.1105-.1105v-.8585c0-.068-.0425-.1105-.1105-.1105h-2.278l.493-.527c1.4025-1.4875 1.7085-2.1335 1.7085-2.975 0-1.0625-.8245-1.7765-2.04-1.7765-1.071 0-1.87.6205-2.193 1.6405-.0255.0765.0085.119.0765.136l.867.238c.068.017.1105-.0085.136-.0765.1955-.5355.5695-.816 1.054-.816.5525 0 .9095.2975.9095.7735 0 .5525-.2635.9775-1.3515 2.2015l-1.5385 1.734c-.034.0425-.051.085-.051.136v.2805c0 .068.0425.1105.1105.1105ZM12.5339 15h.9435c.0595 0 .102-.0255.136-.068l.9775-1.4365.969 1.4365c.034.0425.0765.068.136.068h1.0115c.085 0 .119-.0595.068-.136l-1.4875-2.125 1.4025-2.006c.051-.0765.017-.136-.068-.136h-.9435c-.0595 0-.102.0255-.136.068l-.8925 1.309-.884-1.309c-.034-.0425-.0765-.068-.136-.068h-1.0115c-.085 0-.119.0595-.068.136l1.4025 2.006-1.4875 2.125c-.051.0765-.017.136.068.136Z"/>
</g></svg>