<svg xmlns="http://www.w3.org/2000/svg" data-laicon-version="15.0" viewBox="0 0 20 20" fill="black"><g transform="translate(-2 -2)">
  <path d="M8.4996 11.6501c-1.8501 0-3.35 1.4998-3.35 3.35 0 1.8501 1.4998 3.35 3.35 3.35 1.2604 0 2.3593-.6958 2.9317-1.7274l1.1367.6308c-.7923 1.4278-2.3168 2.3966-4.0684 2.3966-2.5681 0-4.65-2.0819-4.65-4.65 0-2.5681 2.0819-4.65 4.65-4.65 1.7516 0 3.2761.9687 4.0684 2.3966l-1.1367.6308c-.5724-1.0316-1.6713-1.7274-2.9317-1.7274Z"/>
  <path d="M15.4996 11.6501c-1.8501 0-3.35 1.4998-3.35 3.35 0 1.8501 1.4999 3.35 3.35 3.35 1.8502 0 3.35-1.4999 3.35-3.35 0-1.8502-1.4998-3.35-3.35-3.35Zm-4.65 3.35c0-2.5681 2.0819-4.65 4.65-4.65 2.5682 0 4.65 2.0819 4.65 4.65 0 2.5681-2.0818 4.65-4.65 4.65-2.5681 0-4.65-2.0819-4.65-4.65Z"/>
  <path d="M11.9996 5.6501c-1.8501 0-3.35 1.4998-3.35 3.35a3.331 3.331 0 0 0 .4478 1.6745l-1.1253.651a4.6319 4.6319 0 0 1-.6225-2.3255c0-2.5681 2.0819-4.65 4.65-4.65 2.5682 0 4.65 2.0819 4.65 4.65a4.6321 4.6321 0 0 1-.6224 2.3255l-1.1253-.651a3.332 3.332 0 0 0 .4477-1.6745c0-1.8502-1.4998-3.35-3.35-3.35Z"/>
</g></svg>