<svg xmlns="http://www.w3.org/2000/svg" data-laicon-version="15.0" viewBox="0 0 20 20" fill="black"><g transform="translate(-2 -2)">
  <path d="M12.0001 4.4c-4.1974 0-7.6 3.4026-7.6 7.6s3.4026 7.6 7.6 7.6 7.6-3.4026 7.6-7.6-3.4026-7.6-7.6-7.6Zm-8.9 7.6c0-4.9154 3.9847-8.9 8.9-8.9s8.9 3.9846 8.9 8.9c0 4.9153-3.9847 8.9-8.9 8.9s-8.9-3.9847-8.9-8.9Z"/>
  <path d="M9.6192 15.0002h.9265c.068 0 .1105-.0425.1105-.1105v-6.018c0-.068-.0425-.1105-.1105-.1105h-.663c-.051 0-.0935.0085-.136.051l-1.649 1.411c-.051.0425-.0595.0935-.034.153l.1615.306c.034.068.085.085.1445.0595l1.139-.4505v4.5985c0 .068.0425.1105.1105.1105Zm2.1222 0h.9435c.0595 0 .102-.0255.136-.068l.9775-1.4365.969 1.4365c.034.0425.0765.068.136.068h1.0115c.085 0 .119-.0595.068-.136l-1.4875-2.125 1.4025-2.006c.051-.0765.017-.136-.068-.136h-.9435c-.0595 0-.102.0255-.136.068l-.8925 1.309-.884-1.309c-.034-.0425-.0765-.068-.136-.068h-1.0115c-.085 0-.119.0595-.068.136l1.4025 2.006-1.4875 2.125c-.051.0765-.017.136.068.136Z"/>
</g></svg>