<svg xmlns="http://www.w3.org/2000/svg" data-laicon-version="15.0" viewBox="0 0 20 20" fill="black"><g transform="translate(-2 -2)">
  <path d="M12.0001 4.4c-4.1974 0-7.6 3.4026-7.6 7.6s3.4026 7.6 7.6 7.6 7.6-3.4026 7.6-7.6-3.4026-7.6-7.6-7.6Zm-8.9 7.6c0-4.9154 3.9847-8.9 8.9-8.9s8.9 3.9846 8.9 8.9c0 4.9153-3.9847 8.9-8.9 8.9s-8.9-3.9847-8.9-8.9Z"/>
  <path d="M7.2872 14.952c.368 0 .648-.264.648-.632s-.28-.632-.648-.632-.648.264-.648.632.28.632.648.632Zm3.6123.032c1.232 0 2.088-.816 2.088-2 0-1.16-.744-1.936-1.832-1.936-.472 0-.888.144-1.224.416l.136-1.448h2.504c.064 0 .104-.04.104-.104v-.808c0-.064-.04-.104-.104-.104h-3.216c-.064 0-.096.024-.104.096l-.272 3c-.008.056.024.104.072.128l.464.216c.048.024.096.024.144-.008.432-.328.776-.448 1.176-.448.64 0 1.04.384 1.04.992 0 .584-.4.952-1.032.952-.528 0-.92-.272-1.104-.768-.024-.064-.064-.088-.128-.072l-.784.192c-.064.016-.096.064-.072.128.296.984 1.088 1.576 2.144 1.576Zm2.689-.112h.888c.056 0 .096-.024.128-.064l.92-1.352.912 1.352c.032.04.072.064.128.064h.952c.08 0 .112-.056.064-.128l-1.4-2 1.32-1.888c.048-.072.016-.128-.064-.128h-.888c-.056 0-.096.024-.128.064l-.84 1.232-.832-1.232c-.032-.04-.072-.064-.128-.064h-.952c-.08 0-.112.056-.064.128l1.32 1.888-1.4 2c-.048.072-.016.128.064.128Z"/>
</g></svg>