<svg xmlns="http://www.w3.org/2000/svg" data-laicon-version="15.0" viewBox="0 0 20 20" fill="black"><g transform="translate(-2 -2)">
  <path d="M7.5919 5.1501c-1.3486 0-2.4418 1.0932-2.4418 2.4418 0 1.3486 1.0932 2.4418 2.4418 2.4418 1.3486 0 2.4418-1.0932 2.4418-2.4418 0-1.3486-1.0932-2.4418-2.4418-2.4418ZM3.8501 7.5919c0-2.0665 1.6753-3.7418 3.7418-3.7418s3.7418 1.6753 3.7418 3.7418-1.6753 3.7418-3.7418 3.7418-3.7418-1.6753-3.7418-3.7418Zm12.5582-2.4418c-1.3486 0-2.4418 1.0932-2.4418 2.4418 0 1.3486 1.0932 2.4418 2.4418 2.4418 1.3486 0 2.4418-1.0932 2.4418-2.4418 0-1.3486-1.0932-2.4418-2.4418-2.4418Zm-3.7418 2.4418c0-2.0665 1.6753-3.7418 3.7418-3.7418s3.7418 1.6753 3.7418 3.7418-1.6753 3.7418-3.7418 3.7418-3.7418-1.6753-3.7418-3.7418Zm-5.0746 6.3744c-1.3486 0-2.4418 1.0932-2.4418 2.4418 0 1.3486 1.0932 2.4418 2.4418 2.4418 1.3486 0 2.4418-1.0932 2.4418-2.4418 0-1.3486-1.0932-2.4418-2.4418-2.4418Zm-3.7418 2.4418c0-2.0665 1.6753-3.7418 3.7418-3.7418s3.7418 1.6753 3.7418 3.7418-1.6753 3.7418-3.7418 3.7418-3.7418-1.6753-3.7418-3.7418Zm12.5582-2.4418c-1.3486 0-2.4418 1.0932-2.4418 2.4418 0 1.3486 1.0932 2.4418 2.4418 2.4418 1.3486 0 2.4418-1.0932 2.4418-2.4418 0-1.3486-1.0932-2.4418-2.4418-2.4418Zm-3.7418 2.4418c0-2.0665 1.6753-3.7418 3.7418-3.7418s3.7418 1.6753 3.7418 3.7418-1.6753 3.7418-3.7418 3.7418-3.7418-1.6753-3.7418-3.7418Z"/>
</g></svg>