<svg xmlns="http://www.w3.org/2000/svg" data-laicon-version="15.0" viewBox="0 0 20 20" fill="black"><g transform="translate(-2 -2)">
  <path d="M8.805 15.8379a.8047.8047 0 0 1 .7437.4969.805.805 0 1 1-.7437-.4969Zm.0024-7.1311a.805.805 0 1 1 0 1.61.805.805 0 0 1 0-1.61Zm-.0024 3.6119a.8049.8049 0 1 1 0 1.6098.8049.8049 0 0 1 0-1.6098Zm7.1144 5.0654h-4.9809v-1.3h4.9809v1.3Zm0-7.2223h-4.9809v-1.3h4.9809v1.3Zm0 3.612h-4.9809v-1.3h4.9809v1.3Z"/>
  <path d="M5.4768 5.2557v14.4666h13.0461V5.2557h-3.5568v-1.3h3.7087c.6332 0 1.1481.5155 1.1481 1.1483v14.77c0 .6328-.5149 1.1483-1.1481 1.1483h-13.35c-.6331 0-1.148-.5155-1.148-1.1483V5.104c0-.6328.5149-1.1483 1.148-1.1483h3.95v1.3h-3.798Z"/>
  <path d="M8.5054 3.6275a.65.65 0 0 1 .65-.65h5.6888a.65.65 0 0 1 .65.65v2.151a.65.65 0 0 1-.65.65H9.1554a.65.65 0 0 1-.65-.65v-2.151Zm1.3.65v.851h4.3888v-.851H9.8054Z"/>
</g></svg>