<svg xmlns="http://www.w3.org/2000/svg" data-laicon-version="15.0" viewBox="0 0 20 20" fill="black"><g transform="translate(-2 -2)">
  <path d="M21.5999 15.1491c-.2 2.2-2.2 3.7-4.6 3.9v-1.3c1.8-.1 3.1-1.3 3.3-2.7.2-1.7-1-3.1-2.9-3.3h-.1l-.1-.1c-.3-.2-.8-.6-.8-1.2 0-.8 0-1.2-.2-1.7-.5-1.4-2.2-2.4-3.9-2.4-1.8 0-3.2 1-3.8 2.3-.1.3-.3.5-.5.6-.1.1-.3.2-.4.2h-.2c-2.3.4-4 2.4-3.7 4.6.3 1.7 1.6 2.9 3.3 3.4v1.3c-2.3-.5-4.1-2.2-4.5-4.5-.5-3 1.8-5.5 4.6-6h.1v-.1c.7-1.9 2.7-3.2 5-3.2 2.1 0 4.4 1.1 5.1 3.2.3.8.3 1.4.3 2.2 2.5.4 4.2 2.3 4 4.8Z"/>
  <path d="m11.3998 19.2491-2.3-2.3-.9.9 3.9 3.9 3.9-3.9-.9-.9-2.5 2.3v-6h-1.3v6h.1Z"/>
</g></svg>