<svg xmlns="http://www.w3.org/2000/svg" data-laicon-version="15.0" viewBox="0 0 20 20" fill="black"><g transform="translate(-2 -2)">
  <path d="M21.6002 15.1491c-.2 2.3-2.4 3.9-4.8 3.9h-.8v-1.3h.7c1.9 0 3.4-1.2 3.6-2.7.2-1.7-1-3.1-2.9-3.3h-.1l-.1-.1c-.3-.2-.8-.6-.8-1.2 0-.8 0-1.2-.2-1.7-.5-1.4-2.2-2.4-3.9-2.4-1.8 0-3.2 1-3.8 2.3-.1.3-.3.5-.5.6-.1.1-.3.2-.4.2h-.2c-2.3.4-4 2.4-3.7 4.6.3 1.9 2 3.3 4.2 3.5v1.3c-2.7-.2-5.1-2-5.5-4.6-.5-3 1.8-5.5 4.6-6h.1v-.1c.7-1.9 2.7-3.2 5-3.2 2.1 0 4.4 1.1 5.1 3.2.3.8.3 1.4.3 2.2 2.6.4 4.3 2.3 4.1 4.8Z"/>
  <path d="m11.3998 14.649-2.3 2.3-.9-.9 3.9-3.9 3.9 3.9-.9.9-2.3-2.3v6h-1.3v-6h-.1Z"/>
</g></svg>