<svg xmlns="http://www.w3.org/2000/svg" data-laicon-version="15.0" viewBox="0 0 20 20" fill="black"><g transform="translate(-2 -2)">
  <path d="M7.2078 8.2218C7.9123 6.3433 9.873 5 12.2165 5c2.0629 0 4.3795 1.0801 5.1079 3.2187.3422.8105.3421 1.4218.3421 2.1976v.0073c2.4236.31 4.1283 2.2598 3.897 4.688l-.0006.0065C21.3201 17.4252 19.1663 19 16.7165 19h-8.2c-2.9506 0-5.5787-1.8678-6.0412-4.6431l-.0013-.0081c-.4587-2.9814 1.8007-5.538 4.6456-6.0253a3.8386 3.8386 0 0 0 .061-.0292l.0272-.0725Zm1.2487.3762c-.0461.3339-.2434.5607-.425.697-.1404.1053-.3324.1938-.4015.2257a1.0747 1.0747 0 0 0-.0229.0107l-.0911.0456-.1007.0154c-2.3078.355-3.9904 2.3719-3.657 4.5547C4.0976 16.1698 6.0686 17.7 8.5164 17.7h8.2001c1.9488 0 3.3944-1.2235 3.5532-2.7149.1609-1.707-1.0378-3.1174-2.9121-3.2878l-.1221-.0111-.1097-.0548c-.3324-.1662-.7593-.5504-.7593-1.1814 0-.8002-.0052-1.1786-.2475-1.744l-.0106-.0248-.0086-.0257C15.6184 7.2112 13.9453 6.3 12.2165 6.3c-1.8188 0-3.2372 1.0142-3.76 2.298Z"/>
</g></svg>