<svg xmlns="http://www.w3.org/2000/svg" data-laicon-version="16.12" viewBox="0 0 20 20" fill="black"><g transform="translate(-2 -2)">
  <path d="m12.37 7.842-2 8 1.26.316 2-8-1.26-.316Zm-2.844 1.79-1.052-.764L6.196 12l2.278 3.132 1.052-.764L7.804 12l1.722-2.368Zm6-.764-1.052.764L16.196 12l-1.722 2.368 1.052.764L17.804 12l-2.278-3.132Z"/>
  <path d="M6 3.35A2.65 2.65 0 0 0 3.35 6v12A2.65 2.65 0 0 0 6 20.65h12A2.65 2.65 0 0 0 20.65 18V6A2.65 2.65 0 0 0 18 3.35H6ZM4.65 6c0-.746.604-1.35 1.35-1.35h12c.746 0 1.35.604 1.35 1.35v12A1.35 1.35 0 0 1 18 19.35H6A1.35 1.35 0 0 1 4.65 18V6Z"/>
</g></svg>