<svg xmlns="http://www.w3.org/2000/svg" data-laicon-version="16.11" viewBox="0 0 20 20" fill="black"><g transform="translate(-2 -2)">
  <path d="M4.35 7a2.65 2.65 0 1 1 5.3 0v1.35h4.7V7A2.65 2.65 0 1 1 17 9.65h-1.35v4.7H17A2.65 2.65 0 1 1 14.35 17v-1.35h-4.7V17A2.65 2.65 0 1 1 7 14.35h1.35v-4.7H7A2.65 2.65 0 0 1 4.35 7Zm4 1.35V7A1.35 1.35 0 1 0 7 8.35h1.35Zm1.3 6h4.7v-4.7h-4.7v4.7Zm-1.3 1.3H7A1.35 1.35 0 1 0 8.35 17v-1.35Zm7.3 0V17A1.35 1.35 0 1 0 17 15.65h-1.35Zm0-7.3H17A1.35 1.35 0 1 0 15.65 7v1.35Z"/>
</g></svg>