<svg xmlns="http://www.w3.org/2000/svg" data-laicon-version="15.0" viewBox="0 0 20 20" fill="black"><g transform="translate(-2 -2)">
  <path d="M8.0977 3.9746a.65.65 0 0 1 .65-.65h6.522a.65.65 0 0 1 0 1.3h-6.522a.65.65 0 0 1-.65-.65Zm8.2067 9.2086h-8.591v-1.3h8.591v1.3Z"/>
  <path d="M9.3368 3.975a.65.65 0 0 1 .65-.65h4.027a.65.65 0 0 1 .65.65v4.64l6.0712 10.3273c0 .0001-.0001-.0001 0 0 .4514.7675-.104 1.7326-.9912 1.7326H4.2568c-.8893 0-1.4423-.9658-.9914-1.7323.0001-.0001 0 .0001 0 0L9.3368 8.615v-4.64Zm1.3.65v4.167a.6501.6501 0 0 1-.0897.3294L4.5192 19.375h14.9621L13.4535 9.1214a.6501.6501 0 0 1-.0897-.3294V4.625h-2.727Z"/>
</g></svg>