<svg xmlns="http://www.w3.org/2000/svg" data-laicon-version="15.0" viewBox="0 0 20 20" fill="black"><g transform="translate(-2 -2)">
  <path d="M3.1997 3.05a.65.65 0 0 1 .65-.65h12.99a.65.65 0 0 1 .65.65V6.5h-1.3V3.7h-11.69v13.28h2.5004v1.3H3.8497a.65.65 0 0 1-.65-.65V3.05Z"/>
  <path d="M6.52 6.36a.65.65 0 0 1 .65-.65h12.98a.65.65 0 0 1 .65.65l.0001 14.59a.65.65 0 0 1-.65.65h-12.98a.65.65 0 0 1-.65-.65V6.36Zm1.3.65V20.3h11.6801L19.5 7.01H7.82Z"/>
  <path d="M14.1296 10.1899h-4.53v-1.3h4.53v1.3Zm0 2.2001h-4.53v-1.3h4.53v1.3Z"/>
</g></svg>