<svg xmlns="http://www.w3.org/2000/svg" data-laicon-version="15.0" viewBox="0 0 20 20" fill="black"><g transform="translate(-2 -2)">
  <path d="M5.981 7.0306V4.753h1.3v2.2777h-1.3Zm0 4.0722V8.8251h1.3v2.2777h-1.3Zm0 4.0721v-2.2777h1.3v2.2777h-1.3Zm0 4.0722v-2.2777h1.3v2.2777h-1.3ZM13.9048 8.968l-.9041 1.832-2.0217.2938 1.4629 1.4259-.3454 2.0135 1.8083-.9507 1.8083.9507-.3453-2.0135 1.4629-1.4259L14.809 10.8l-.9042-1.8319Z"/>
  <path d="M3.8498 5.403v13.194h16.3V5.403h-16.3Zm-1.3-.15c0-.635.5147-1.15 1.15-1.15h16.6c.6351 0 1.15.5148 1.15 1.15v13.494c0 .635-.5147 1.15-1.15 1.15h-16.6c-.6353 0-1.15-.515-1.15-1.15V5.253Z"/>
</g></svg>