<svg xmlns="http://www.w3.org/2000/svg" data-laicon-version="15.0" viewBox="0 0 20 20" fill="black"><g transform="translate(-2 -2)">
  <path d="M3.6501 5.7687v12.4625h16.7V5.7687h-16.7Zm-1.3-.15c0-.635.5147-1.15 1.15-1.15h17c.6353 0 1.15.515 1.15 1.15v12.7626c0 .635-.5147 1.1499-1.15 1.1499h-17c-.6353 0-1.15-.5149-1.15-1.1499V5.6188Z"/>
  <path d="M6.0195 7.38V5.1188h1.3V7.38h-1.3Zm0 3.8337V8.9525h1.3v2.2612h-1.3Zm0 3.8338v-2.2612h1.3v2.2612h-1.3Zm0 3.8337V16.62h1.3v2.2612h-1.3Zm3.5207-9.0636h1.3081c.7477 0 1.3274.5799 1.3274 1.3003 0 .7207-.5797 1.3003-1.3274 1.3003h-.5688v1.0645a.1276.1276 0 0 1-.1277.1276h-.6116a.1276.1276 0 0 1-.1276-.1276V9.9453a.1276.1276 0 0 1 .1276-.1277Zm.7392.8128v.9752h.5688c.2655 0 .4605-.2113.4605-.4877 0-.2762-.195-.4875-.4605-.4875h-.5688Zm2.0536 1.6254c0-.8074.5851-1.4304 1.2949-1.4304.363 0 .6285.1246.8073.3306v-.1875a.0673.0673 0 0 1 .0672-.0673h.6783a.0673.0673 0 0 1 .0672.0673v2.5746a.0671.0671 0 0 1-.0672.0671h-.6783a.0671.0671 0 0 1-.0672-.0671v-.1875c-.1788.2059-.4443.3304-.8073.3304-.7098 0-1.2949-.6231-1.2949-1.4302Zm.8128 0c0 .4063.2709.6609.6447.6609.3738 0 .6447-.2546.6447-.6609 0-.4065-.2709-.6611-.6447-.6611-.3738 0-.6447.2546-.6447.6611ZM18.602 10.9012h-.6919a.112.112 0 0 0-.1041.0707l-.6237 1.571-.6449-1.5723a.112.112 0 0 0-.1036-.0695h-.6917a.0672.0672 0 0 0-.0622.0927l1.076 2.623-.3921.9878a.0672.0672 0 0 0 .0624.092h.692a.1121.1121 0 0 0 .1041-.0708l1.4421-3.6328a.0671.0671 0 0 0-.0624-.0918Z"/>
</g></svg>