<svg xmlns="http://www.w3.org/2000/svg" data-laicon-version="15.0" viewBox="0 0 20 20" fill="black"><g transform="translate(-2 -2)">
  <path d="m16.2864 10.3337-4.0565 4.0564-.707-.7072 4.0565-4.0563.707.7071Zm-3.8881-.1335a.3016.3016 0 1 0 0 .6031.3016.3016 0 0 0 0-.6031Zm-1.3016.3016c0-.7189.5827-1.3016 1.3016-1.3016.7189 0 1.3016.5827 1.3016 1.3016 0 .7189-.5827 1.3016-1.3016 1.3016-.7189 0-1.3016-.5827-1.3016-1.3016Zm4.3143 2.7115a.3016.3016 0 1 0 0 .6031.3016.3016 0 0 0 0-.6031Zm-1.3016.3016c0-.7189.5827-1.3016 1.3016-1.3016.7189 0 1.3016.5827 1.3016 1.3016 0 .7188-.5827 1.3016-1.3016 1.3016-.7189 0-1.3016-.5828-1.3016-1.3016ZM5.981 7.0306V4.753h1.3v2.2777h-1.3Zm0 4.0722V8.8251h1.3v2.2777h-1.3Zm0 4.0721v-2.2777h1.3v2.2777h-1.3Zm0 4.0722v-2.2777h1.3v2.2777h-1.3Z"/>
  <path d="M3.8498 5.403v13.194h16.3V5.403h-16.3Zm-1.3-.15c0-.6352.515-1.15 1.15-1.15h16.6c.6351 0 1.15.5148 1.15 1.15v13.494c0 .635-.5147 1.15-1.15 1.15h-16.6c-.635 0-1.15-.5149-1.15-1.15V5.253Z"/>
</g></svg>