<svg xmlns="http://www.w3.org/2000/svg" data-laicon-version="15.0" viewBox="0 0 20 20" fill="black"><g transform="translate(-2 -2)">
  <path d="M13.2583 15.7322V8.2678h1v7.4644h-1Z"/>
  <path d="M11.6279 9.0353h2.6317c.9567 0 1.7324.7755 1.7324 1.7324a1.725 1.725 0 0 1-.3776 1.0797c.42.3161.6916.8188.6916 1.3849 0 .9567-.7757 1.7324-1.7324 1.7324h-2.9457V9.0353Zm1 3.4647v1.4647h1.9457a.7324.7324 0 1 0 0-1.4647h-1.9457Zm0-1h1.6317a.7324.7324 0 0 0 0-1.4647h-1.6317V11.5ZM5.981 7.0306V4.753h1.3v2.2777h-1.3Zm0 4.0722V8.8251h1.3v2.2777h-1.3Zm0 4.0721v-2.2777h1.3v2.2777h-1.3Zm0 4.0722v-2.2777h1.3v2.2777h-1.3Z"/>
  <path d="M3.8498 5.403v13.194h16.3V5.403h-16.3Zm-1.3-.15c0-.635.5147-1.15 1.15-1.15h16.6c.6351 0 1.15.5148 1.15 1.15v13.494c0 .635-.5147 1.15-1.15 1.15h-16.6c-.6353 0-1.15-.515-1.15-1.15V5.253Z"/>
</g></svg>