<svg xmlns="http://www.w3.org/2000/svg" data-laicon-version="15.0" viewBox="0 0 20 20" fill="black"><g transform="translate(-2 -2)">
  <path d="M3.3 5.7h17.4v3.8725c-1.0909.2687-1.9 1.2536-1.9 2.4275 0 1.1739.8091 2.1588 1.9 2.4275V18.3H3.3v-3.8725C4.391 14.1588 5.2 13.1739 5.2 12c0-1.1739-.809-2.1588-1.9-2.4275V5.7ZM22 5.4c0-.5523-.4477-1-1-1H3c-.5523 0-1 .4477-1 1v5.4h.7c.6627 0 1.2.5373 1.2 1.2s-.5373 1.2-1.2 1.2H2v5.4c0 .5523.4477 1 1 1h18c.5523 0 1-.4477 1-1v-5.4h-.7c-.6627 0-1.2-.5373-1.2-1.2s.5373-1.2 1.2-1.2h.7V5.4Z"/>
  <path d="M7.1323 8.0876v-1.3h1.3v1.3h-1.3Zm0 2.2803v-1.3h1.3v1.3h-1.3Zm0 2.2803v-1.2999h1.3v1.2999h-1.3Zm0 2.2804v-1.3001h1.3v1.3001h-1.3Zm0 2.2803v-1.3001h1.3v1.3001h-1.3Z"/>
</g></svg>