<svg xmlns="http://www.w3.org/2000/svg" data-laicon-version="18.4" viewBox="0 0 20 20" fill="black"><g transform="translate(-2 -2)">
  <path d="M11.342 7.648a.845.845 0 0 1 1.382.097l2.338 3.898a.324.324 0 0 0 .44.113l3.074-1.786.122-.06c.616-.242 1.29.313 1.123.991l-1.69 6.883a.65.65 0 0 1-.632.494h-11a.65.65 0 0 1-.63-.494l-1.691-6.883a.845.845 0 0 1 1.122-.99l.123.059 3.072 1.786c.153.089.35.038.442-.113l2.338-3.898.067-.097Zm-1.291 4.664a1.624 1.624 0 0 1-2.21.568l-2.147-1.25 1.315 5.348h9.981l1.313-5.347-2.147 1.249a1.624 1.624 0 0 1-2.209-.569L12 9.064l-1.948 3.248ZM3.43 7.451a1.1 1.1 0 1 1 0 2.2 1.1 1.1 0 0 1 0-2.2Zm17.144 0a1.1 1.1 0 1 1-.001 2.2 1.1 1.1 0 0 1 .001-2.2ZM12.001 4.35A1.1 1.1 0 1 1 12 6.55a1.1 1.1 0 0 1 0-2.2Z"/>
</g></svg>