<svg xmlns="http://www.w3.org/2000/svg" data-laicon-version="15.0" viewBox="0 0 20 20" fill="black"><g transform="translate(-2 -2)">
  <path d="m13.575 2.8573 5.5385 3.1976a3.15 3.15 0 0 1 1.575 2.728v6.3954a3.1498 3.1498 0 0 1-1.575 2.7279m0 0-5.5385 3.1976a3.15 3.15 0 0 1-3.15 0l-5.5385-3.1976a3.15 3.15 0 0 1-1.575-2.7279V8.7829a3.15 3.15 0 0 1 1.575-2.728l5.5385-3.1976a3.15 3.15 0 0 1 3.15 0m-.65 1.1259a1.85 1.85 0 0 0-1.85 0L5.5365 7.1808a1.85 1.85 0 0 0-.925 1.6021v6.3954a1.85 1.85 0 0 0 .925 1.6021l5.5385 3.1976a1.8499 1.8499 0 0 0 1.85 0l5.5385-3.1976a1.85 1.85 0 0 0 .925-1.6021V8.7829a1.85 1.85 0 0 0-.925-1.6021L12.925 3.9832Z"/>
  <path d="M12.0001 11.3307a.65.65 0 0 1 .65.65v8.8953a.65.65 0 1 1-1.3 0v-8.8953a.65.65 0 0 1 .65-.65Z"/>
  <path d="M20.2667 7.208a.65.65 0 0 1-.2379.888l-7.7036 4.4476a.65.65 0 1 1-.65-1.1258l7.7036-4.4477a.65.65 0 0 1 .8879.238Z"/>
  <path d="M3.7337 7.2082a.65.65 0 0 1 .8879-.238l7.7032 4.4476a.65.65 0 1 1-.65 1.1258L3.9716 8.0961a.65.65 0 0 1-.238-.888Z"/>
</g></svg>