<svg xmlns="http://www.w3.org/2000/svg" data-laicon-version="15.0" viewBox="0 0 20 20" fill="black"><g transform="translate(-2 -2)">
  <path d="M7.389 3.835c-.7395 0-1.339.5995-1.339 1.339 0 .7395.5995 1.339 1.339 1.339.7395 0 1.339-.5995 1.339-1.339 0-.7395-.5995-1.339-1.339-1.339ZM4.75 5.174c0-1.4575 1.1815-2.639 2.639-2.639 1.4575 0 2.639 1.1815 2.639 2.639 0 1.4575-1.1815 2.639-2.639 2.639-1.4575 0-2.639-1.1815-2.639-2.639Zm2.8387 12.2871c-.7395 0-1.339.5995-1.339 1.339 0 .7395.5995 1.339 1.339 1.339.7395 0 1.339-.5995 1.339-1.339 0-.7395-.5995-1.339-1.339-1.339Zm-2.639 1.339c0-1.4575 1.1815-2.639 2.639-2.639 1.4575 0 2.6391 1.1815 2.6391 2.639 0 1.4574-1.1816 2.639-2.639 2.639-1.4576 0-2.639-1.1816-2.639-2.639Z"/>
  <path d="M15.0938 5.824h-5.21v-1.3h5.21c2.3666 0 4.7257 1.564 4.8442 3.9142.1231 2.4351-2.07 4.2919-4.5862 4.2919h-6.216c-.6097 0-.952.4152-.952.753v3.327h-1.3v-3.327c0-1.2123 1.0917-2.053 2.252-2.053h6.216c1.9558 0 3.3647-1.4052 3.2878-2.9262v-.0001c-.0715-1.4198-1.6044-2.6798-3.5458-2.6798Z"/>
</g></svg>