<svg xmlns="http://www.w3.org/2000/svg" data-laicon-version="15.0" viewBox="0 0 20 20" fill="black"><g transform="translate(-2 -2)">
  <path d="M5.7625 5.4277c-.286.2626-.359.4716-.359.6162 0 .1446.073.3536.359.6161.2866.263.7371.5297 1.3488.7672 1.219.4732 2.9473.7799 4.8889.7799 1.9416 0 3.6699-.3067 4.889-.78.6116-.2374 1.0622-.504 1.3488-.767.286-.2626.359-.4716.359-.6162 0-.1446-.073-.3536-.359-.6162-.2866-.263-.7372-.5297-1.3488-.7671-1.2191-.4732-2.9474-.78-4.889-.78-1.9416 0-3.6699.3068-4.889.78-.6116.2374-1.0621.5041-1.3487.7671Zm.8783-1.979c1.4037-.545 3.2988-.868 5.3594-.868 2.0607 0 3.9557.323 5.3595.868.6997.2717 1.3104.6111 1.7573 1.0213.4473.4106.78.9417.78 1.5739 0 .6322-.3327 1.1633-.78 1.5739-.4469.4101-1.0576.7496-1.7573 1.0212-1.4038.545-3.2988.868-5.3595.868-2.0606 0-3.9557-.323-5.3594-.868-.6998-.2716-1.3104-.611-1.7573-1.0212-.4474-.4106-.78-.9417-.78-1.574 0-.6321.3326-1.1632.78-1.5738.4469-.4102 1.0575-.7496 1.7573-1.0213Z"/>
  <path d="M5.4035 6.04v11.9132c0 .1446.073.3536.359.6161.2866.263.7371.5297 1.3488.7672 1.219.4732 2.9473.7799 4.8889.7799 1.9416 0 3.6699-.3067 4.889-.7799.6116-.2375 1.0622-.5042 1.3488-.7672.286-.2625.359-.4715.359-.6161V6.04h1.3v11.9132c0 .6322-.3327 1.1633-.78 1.5739-.4469.4101-1.0576.7496-1.7573 1.0213-1.4038.5449-3.2988.868-5.3595.868-2.0606 0-3.9557-.3231-5.3594-.868-.6998-.2717-1.3104-.6112-1.7573-1.0213-.4474-.4106-.78-.9417-.78-1.5739V6.04h1.3Z"/>
  <path d="M4.882 11.4976c-.4475-.4133-.7785-.9464-.7785-1.5795h1.3c0 .1487.0746.3604.3605.6245.2867.2647.7372.5331 1.3486.7719 1.2186.4761 2.9464.7846 4.8876.7846 1.9412 0 3.669-.3085 4.8877-.7846.6114-.2388 1.0619-.5072 1.3485-.7719.286-.2641.3606-.4758.3606-.6245h1.3c0 .6331-.331 1.1662-.7785 1.5795-.4468.4126-1.0575.7543-1.7575 1.0278-1.4042.5485-3.2997.8737-5.3608.8737-2.061 0-3.9566-.3252-5.3607-.8737-.7-.2735-1.3108-.6152-1.7575-1.0278Zm.0044 4.0198c-.4471-.4053-.7829-.9326-.7829-1.5631h1.3c0 .1367.0698.3405.356.6.2864.2596.7371.5232 1.3492.7579 1.22.4677 2.9491.7708 4.8915.7708 1.9424 0 3.6716-.3031 4.8915-.7708.6122-.2347 1.0629-.4983 1.3492-.7579.2863-.2595.3561-.4633.3561-.6h1.3c0 .6305-.3358 1.1578-.783 1.5631-.447.4053-1.0576.7405-1.7568 1.0086-1.403.5379-3.2971.857-5.357.857-2.0598 0-3.954-.3191-5.3569-.857-.6992-.2681-1.3098-.6033-1.7569-1.0086Z"/>
  <path d="M6.7104 9.3013a.5117.5117 0 1 0 0 1.0234.5117.5117 0 0 0 0-1.0234Zm0 3.8965a.5117.5117 0 1 0 0 1.0234.5117.5117 0 0 0 0-1.0234Zm0 4.0377a.5118.5118 0 1 0 .0002 1.0235.5118.5118 0 0 0-.0002-1.0235Z"/>
</g></svg>