<svg xmlns="http://www.w3.org/2000/svg" data-laicon-version="15.0" viewBox="0 0 20 20" fill="black"><g transform="translate(-2 -2)">
  <path d="M5.3633 17.3499c-.5595 0-1.013.4536-1.013 1.013 0 .5595.4535 1.013 1.013 1.013.5595 0 1.013-.4535 1.013-1.013 0-.5594-.4535-1.013-1.013-1.013Zm-2.313 1.013c0-1.2774 1.0355-2.313 2.313-2.313 1.2774 0 2.313 1.0356 2.313 2.313 0 1.2775-1.0356 2.3131-2.313 2.3131s-2.313-1.0356-2.313-2.3131ZM9.3628 3.75c-.5595 0-1.013.4536-1.013 1.013 0 .5595.4535 1.013 1.013 1.013.5595 0 1.0131-.4535 1.0131-1.013 0-.5594-.4536-1.013-1.0131-1.013Zm-2.313 1.013c0-1.2774 1.0356-2.313 2.313-2.313 1.2775 0 2.3131 1.0356 2.3131 2.313 0 1.2775-1.0356 2.313-2.3131 2.313-1.2774 0-2.313-1.0355-2.313-2.313Zm11.6133 9.0869c-.5595 0-1.013.4536-1.013 1.013 0 .5595.4535 1.013 1.013 1.013.5595 0 1.013-.4535 1.013-1.013 0-.5594-.4535-1.013-1.013-1.013Zm-2.313 1.013c0-1.2774 1.0356-2.313 2.313-2.313s2.313 1.0356 2.313 2.313c0 1.2775-1.0356 2.3131-2.313 2.3131s-2.313-1.0356-2.313-2.3131ZM17.3557 8.6c.6263 0 1.134-.5077 1.134-1.134 0-.6263-.5077-1.134-1.134-1.134-.6263 0-1.134.5077-1.134 1.134 0 .6263.5077 1.134 1.134 1.134ZM12.653 20.789c.6263 0 1.134-.5077 1.134-1.134 0-.6263-.5077-1.134-1.134-1.134-.6262 0-1.134.5077-1.134 1.134 0 .6263.5078 1.134 1.134 1.134Zm-8.4082-8.5691c.6263 0 1.134-.5077 1.134-1.134 0-.6263-.5077-1.134-1.134-1.134-.6262 0-1.134.5077-1.134 1.134 0 .6263.5078 1.134 1.134 1.134ZM11.6631 11.65c-.5595 0-1.013.4535-1.013 1.013 0 .5595.4535 1.013 1.013 1.013.5595 0 1.013-.4535 1.013-1.013 0-.5595-.4535-1.013-1.013-1.013Zm-2.313 1.013c0-1.2774 1.0356-2.313 2.313-2.313s2.313 1.0356 2.313 2.313-1.0356 2.313-2.313 2.313-2.313-1.0356-2.313-2.313Z"/>
  <path d="m10.4826 6.315 1.052 4.46-1.2653.2984-1.052-4.46 1.2653-.2985Zm6.8763 8.9455-4.354-1.309.3743-1.245 4.354 1.309-.3743 1.245ZM10.666 14.31l-3.601 3.38-.8897-.9478 3.601-3.38.8897.9478Z"/>
</g></svg>