<svg xmlns="http://www.w3.org/2000/svg" data-laicon-version="15.3" viewBox="0 0 20 20" fill="black"><g transform="translate(-2 -2)">
  <path d="M5.35 5a2.65 2.65 0 1 1 3.3 2.57v5.15c.395-.235.857-.37 1.35-.37h4A1.35 1.35 0 0 0 15.35 11V7.57a2.651 2.651 0 1 1 1.3 0V11A2.65 2.65 0 0 1 14 13.65h-4A1.35 1.35 0 0 0 8.65 15v1.43a2.651 2.651 0 1 1-1.3 0V7.57a2.65 2.65 0 0 1-2-2.57ZM8 3.65a1.35 1.35 0 1 0 0 2.7 1.35 1.35 0 0 0 0-2.7Zm8 0a1.35 1.35 0 1 0 0 2.7 1.35 1.35 0 0 0 0-2.7ZM6.65 19a1.35 1.35 0 1 0 2.7 0 1.35 1.35 0 0 0-2.7 0Z"/>
</g></svg>