<svg xmlns="http://www.w3.org/2000/svg" data-laicon-version="15.0" viewBox="0 0 20 20" fill="black"><g transform="translate(-2 -2)">
  <path d="m16.9154 16.1432-8.809-9.861.9695-.866 8.809 9.8609-.9695.8661Z"/>
  <path d="m17.8822 9.0416-8.763 9.1919-.941-.897 8.7631-9.192.9409.897Z"/>
  <path d="M17.7808 15.2761v-6.237h1.3v6.237h-1.3Zm-.98-7.3631-7.71-2.386.3843-1.242 7.71 2.386-.3843 1.242ZM6.354 16.7409v-9.894h1.3v9.894h-1.3Zm10.9896 1.3635-7.956 2.258-.3549-1.2506 7.956-2.258.3549 1.2506Z"/>
  <path d="M7.238 3.511c-.7705 0-1.395.6246-1.395 1.395 0 .7705.6245 1.395 1.395 1.395.7704 0 1.395-.6245 1.395-1.395 0-.7704-.6246-1.395-1.395-1.395ZM4.543 4.906c0-1.4883 1.2066-2.695 2.695-2.695s2.695 1.2067 2.695 2.695c0 1.4885-1.2066 2.695-2.695 2.695S4.543 6.3946 4.543 4.906Zm2.695 12.8949c-.7705 0-1.395.6245-1.395 1.395 0 .7704.6245 1.395 1.395 1.395.7704 0 1.395-.6246 1.395-1.395 0-.7705-.6246-1.395-1.395-1.395Zm-2.695 1.395c0-1.4884 1.2066-2.695 2.695-2.695s2.695 1.2066 2.695 2.695-1.2066 2.695-2.695 2.695-2.695-1.2066-2.695-2.695Zm13.8879-12.438a.816.816 0 1 0 0 1.632.816.816 0 1 0 0-1.632Zm-2.116.816c0-1.1686.9474-2.116 2.116-2.116s2.116.9474 2.116 2.116-.9474 2.116-2.116 2.116-2.116-.9474-2.116-2.116Zm2.116 8.351a.816.816 0 0 0-.816.816.816.816 0 1 0 .816-.816Zm-2.116.816c0-1.1686.9474-2.116 2.116-2.116s2.116.9474 2.116 2.116-.9474 2.116-2.116 2.116-2.116-.9474-2.116-2.116Z"/>
</g></svg>