<svg xmlns="http://www.w3.org/2000/svg" data-laicon-version="15.0" viewBox="0 0 20 20" fill="black"><g transform="translate(-2 -2)">
  <path d="M3.9939 6.0424V16.297a.1174.1174 0 0 0 .0137.0354c.0158.0298.0443.0679.0865.1062a.5072.5072 0 0 0 .1251.0843.241.241 0 0 0 .036.0135h15.5812a.4147.4147 0 0 0 .0743-.0714.5468.5468 0 0 0 .0803-.1286c.0114-.0265.0146-.0418.0154-.0456V6.0476a.2305.2305 0 0 0-.0086-.0186.5563.5563 0 0 0-.0896-.1229.564.564 0 0 0-.093-.0805H4.2433c-.0007 0-.018.0008-.0516.0167a.43.43 0 0 0-.1122.0809.4122.4122 0 0 0-.0784.1031.1814.1814 0 0 0-.0072.0161Zm15.825 10.5047.0015-.0007-.0015.0007ZM3.1689 4.9954c.2496-.245.629-.4698 1.0745-.4698h15.6405c.2347 0 .4361.0887.5737.1692.1476.0862.2825.1987.3965.3196.2041.2165.4523.582.4523 1.0099v10.2736c0 .387-.1906.7516-.397.9993-.1981.2378-.5565.5392-1.0255.5392H4.2433c-.3942 0-.768-.2038-1.0228-.4351-.2619-.2376-.5267-.6215-.5267-1.1034V6.0243c0-.4224.233-.7914.4751-1.029Z"/>
  <path d="M11.3501 20.8244V17.181h1.3v3.6434h-1.3Z"/>
  <path d="M16.0199 20.8198H8.0166v-1.3h8.0033v1.3Z"/>
</g></svg>