<svg xmlns="http://www.w3.org/2000/svg" data-laicon-version="18.1" viewBox="0 0 20 20" fill="black"><g transform="translate(-2 -2)">
  <path d="M15.5 5.85A6.15 6.15 0 1 1 12 17.056a6.15 6.15 0 1 1 0-10.112 6.12 6.12 0 0 1 3.5-1.094Zm-7 1.3a4.85 4.85 0 1 0 2.477 9.018A6.129 6.129 0 0 1 9.35 12c0-1.608.617-3.073 1.627-4.169a4.826 4.826 0 0 0-2.477-.68Zm7 0c-.906 0-1.753.249-2.479.681A6.128 6.128 0 0 1 14.651 12a6.128 6.128 0 0 1-1.63 4.168A4.85 4.85 0 1 0 15.5 7.15ZM12 8.644A4.833 4.833 0 0 0 10.65 12c0 1.303.514 2.484 1.35 3.355A4.832 4.832 0 0 0 13.35 12 4.833 4.833 0 0 0 12 8.644Z"/>
</g></svg>