<svg xmlns="http://www.w3.org/2000/svg" data-laicon-version="15.0" viewBox="0 0 20 20" fill="black"><g transform="translate(-2 -2)">
  <path d="M4.0002 19.2999v-11.2h4.1V4h8.6v9.4c.4 0 .9.1 1.3.2V3.9c0-.6-.5-1.2-1.2-1.2h-9.6l-4.5 4.5v12.3c0 .6.5 1.2 1.2 1.2h7.7c-.4-.4-.7-.8-.9-1.3h-6.7v-.1001Zm2.8-14.3v1.9h-1.8l1.8-1.9Zm14.6 12.9001c-1-1.9-2.9-3.1-4.9-3.1-2 0-3.8 1.2-4.9 3.1l-.2.3.2.3c1 1.9 2.9 3.1 4.9 3.1 2 0 3.8-1.2 4.9-3.1l.2-.3-.2-.3Zm-4.9 2.3999c-1.4 0-2.7-.7999-3.5-2.0999.8-1.3 2.2-2.1 3.5-2.1 1.3 0 2.7.8 3.5 2.1-.7 1.3-2.1 2.0999-3.5 2.0999Zm1.4-2.0999c0 .8-.6 1.4-1.4 1.4-.8 0-1.4-.6-1.4-1.4 0-.8.6-1.4 1.4-1.4.8 0 1.4.6 1.4 1.4Z"/>
</g></svg>