<svg xmlns="http://www.w3.org/2000/svg" data-laicon-version="16.11" viewBox="0 0 20 20" fill="black"><g transform="translate(-2 -2)">
  <path d="M6.03 4.93a1.1 1.1 0 1 0 0 2.2 1.1 1.1 0 0 0 0-2.2Zm5.97 0a1.1 1.1 0 1 0 0 2.2 1.1 1.1 0 0 0 0-2.2ZM10.9 12a1.1 1.1 0 1 1 2.2 0 1.1 1.1 0 0 1-2.2 0Zm0 5.97a1.1 1.1 0 1 1 2.2 0 1.1 1.1 0 0 1-2.2 0Zm5.97-11.94a1.1 1.1 0 1 1 2.2 0 1.1 1.1 0 0 1-2.2 0Zm0 5.97a1.1 1.1 0 1 1 2.2 0 1.1 1.1 0 0 1-2.2 0ZM6.03 10.9a1.1 1.1 0 1 0 0 2.2 1.1 1.1 0 0 0 0-2.2Zm-1.1 7.07a1.1 1.1 0 1 0 2.2 0 1.1 1.1 0 0 0-2.2 0Zm11.94 0a1.1 1.1 0 1 0 2.2 0 1.1 1.1 0 0 0-2.2 0Z"/>
</g></svg>