<svg xmlns="http://www.w3.org/2000/svg" data-laicon-version="15.0" viewBox="0 0 20 20" fill="black"><g transform="translate(-2 -2)">
  <path d="M12.1001 4.05c-4.391 0-7.95 3.559-7.95 7.95s3.559 7.95 7.95 7.95c4.39 0 7.95-3.559 7.95-7.95s-3.56-7.95-7.95-7.95ZM2.8501 12c0-5.109 4.141-9.25 9.25-9.25 5.1079 0 9.25 4.141 9.25 9.25s-4.1421 9.25-9.25 9.25c-5.109 0-9.25-4.141-9.25-9.25Z"/>
  <path d="M10.452 6.145C9.9076 7.6117 9.5578 9.6816 9.5578 12c0 2.3183.3498 4.3882.8942 5.8551.2732.7359.5828 1.286.8938 1.6404.312.3555.5685.4545.754.4545.1854 0 .442-.099.754-.4545.3109-.3544.6206-.9045.8937-1.6404.5445-1.4669.8943-3.5368.8943-5.8551 0-2.3183-.3498-4.3882-.8943-5.855-.2731-.736-.5828-1.2861-.8937-1.6405-.312-.3555-.5686-.4545-.754-.4545-.1855 0-.442.099-.754.4545-.311.3544-.6206.9045-.8938 1.6404Zm-.0833-2.498c.4518-.5148 1.035-.897 1.7311-.897.696 0 1.2793.3822 1.731.897.4529.516.831 1.2252 1.1355 2.0456.6108 1.6457.9755 3.8758.9755 6.3074 0 2.4317-.3647 4.6617-.9755 6.3074-.3045.8204-.6826 1.5296-1.1355 2.0456-.4517.5148-1.035.897-1.731.897-.6961 0-1.2793-.3822-1.7311-.897-.4528-.516-.831-1.2252-1.1354-2.0456-.6108-1.6457-.9755-3.8757-.9755-6.3074 0-2.4316.3647-4.6617.9755-6.3074.3045-.8204.6826-1.5296 1.1354-2.0456Z"/>
  <path d="M3.398 9.252a.65.65 0 0 1 .65-.65h16.104a.65.65 0 1 1 0 1.3H4.048a.65.65 0 0 1-.65-.65Zm0 5.498a.65.65 0 0 1 .65-.65h16.104a.65.65 0 1 1 0 1.3H4.048a.65.65 0 0 1-.65-.65Z"/>
</g></svg>