<svg xmlns="http://www.w3.org/2000/svg" data-laicon-version="15.0" viewBox="0 0 20 20" fill="black"><g transform="translate(-2 -2)">
  <path d="M5.687 3.5A.892.892 0 0 1 6.759 3l.105.038 12.1699 5.166a.8976.8976 0 0 1 .521 1.069l-.035.098-3.963 9.336-.56-.238-.556-.244c-4.394-1.99-7.347-4.856-6.505-6.84.442-1.041 1.74-1.493 3.557-1.44l.24.01-.063 1.216c-1.486-.078-2.414.218-2.614.69-.451 1.064 1.952 3.404 5.614 5.128l.245.113 3.355-7.901L6.6759 4.28 3.32 12.19l3.332 1.413.1.203c.753 1.523 2.55 3.185 4.847 4.406 3.683 1.958 7.353 2.094 8.157.583.293-.55.193-1.336-.307-2.238l-.406.958-1.12-.475 1.215-2.863L22 15.393l-.476 1.12-.931-.395c.616 1.185.73 2.32.236 3.25-1.231 2.315-5.6 2.154-9.802-.08-2.288-1.216-4.14-2.852-5.113-4.478l-.148-.259-3.21-1.363a.898.898 0 0 1-.522-1.069l.035-.098 3.618-8.522V3.5Z"/>
  <path d="m7.37 6.257 2.408 1.022-.476 1.12-2.407-1.022.475-1.12Z"/>
</g></svg>