<svg xmlns="http://www.w3.org/2000/svg" data-laicon-version="15.0" viewBox="0 0 20 20" fill="black"><g transform="translate(-2 -2)">
  <path d="m18.9807 3.0726 2.4745 2.473-9.0562 9.0561H9.9248v-2.4743l9.0559-9.0548Zm.0002 1.8382-7.7561 7.7552v.6357h.6358l7.7558-7.7559-.6355-.635Z"/>
  <path d="M18.7337 10.1762v8.6147c0 .193-.157.35-.35.35H5.6827c-.193 0-.35-.157-.35-.35V6.0899c0-.193.157-.35.35-.35h8.7202l1.3-1.3H5.6827c-.911 0-1.65.739-1.65 1.65v12.701c0 .911.739 1.65 1.65 1.65h12.701c.911 0 1.65-.739 1.65-1.65V8.8765l-1.3 1.2997Z"/>
</g></svg>