<svg xmlns="http://www.w3.org/2000/svg" data-laicon-version="15.0" viewBox="0 0 20 20" fill="black"><g transform="translate(-2 -2)">
  <path d="M11.9999 4.928c-.6075 0-1.1.4925-1.1 1.1 0 .6075.4925 1.1 1.1 1.1.6075 0 1.1-.4925 1.1-1.1 0-.6075-.4925-1.1-1.1-1.1Zm0 5.972c-.6075 0-1.1.4925-1.1 1.1 0 .6075.4925 1.1 1.1 1.1.6075 0 1.1-.4925 1.1-1.1 0-.6075-.4925-1.1-1.1-1.1Zm-1.1 7.0719c0-.6075.4925-1.1 1.1-1.1.6075 0 1.1.4925 1.1 1.1 0 .6075-.4925 1.1-1.1 1.1-.6075 0-1.1-.4925-1.1-1.1Z"/>
</g></svg>