<svg xmlns="http://www.w3.org/2000/svg" data-laicon-version="15.0" viewBox="0 0 20 20" fill="black"><g transform="translate(-2 -2)">
  <path d="M3.1001 6.5c0-1.1874.9626-2.15 2.15-2.15h13.5c1.1874 0 2.15.9626 2.15 2.15v11c0 1.1874-.9626 2.15-2.15 2.15h-13.5c-1.1874 0-2.15-.9626-2.15-2.15v-11Zm2.15-.85a.85.85 0 0 0-.85.85v11a.85.85 0 0 0 .85.85h13.5a.85.85 0 0 0 .85-.85v-11a.85.85 0 0 0-.85-.85h-13.5Z"/>
  <path d="M3.4956 5.8902a.65.65 0 0 1 .9144-.0946l7.5901 6.1669 7.5901-6.167a.65.65 0 0 1 .8198 1.009l-8 6.5a.6501.6501 0 0 1-.8198 0l-8-6.5a.65.65 0 0 1-.0945-.9143Z"/>
</g></svg>