<svg xmlns="http://www.w3.org/2000/svg" data-laicon-version="15.0" viewBox="0 0 20 20" fill="black"><g transform="translate(-2 -2)">
  <path d="M3.843 19.1566c-.0388-.0255-.0703-.0627-.0926-.1171-.0502-.1227-.0408-.3109.0568-.4637l.0078-.0123.0073-.0126c2.0265-3.51 3.0292-5.2257 4.0094-6.9026l.0335-.0573c.9674-1.6549 1.9242-3.2917 3.8318-6.5958.1206-.1729.248-.2102.3245-.2102.0756 0 .1982.0361.3125.206 1.908 3.3048 2.8566 4.9429 3.8014 6.5745.987 1.7046 1.9701 3.4021 4.0386 6.9854l.0129.0225.0147.0213c.0259.0377.0579.1087.0716.1979.0134.0876.0046.1617-.0148.2133-.0162.0434-.0429.0821-.101.117-.0643.0388-.201.0921-.4615.0921H4.093c-.1378 0-.2121-.0333-.25-.0584Zm-1.14-1.2669c-.3044.4861-.3733 1.1108-.1556 1.6424.2379.5809.7912.9829 1.5456.9829h15.603c.4335 0 .8173-.0887 1.1325-.2786.3215-.1937.5332-.4703.6471-.7738.2103-.5607.0795-1.1778-.1868-1.581-2.0502-3.5515-3.038-5.2573-4.0295-6.9695-.9518-1.6438-1.907-3.2933-3.8089-6.5875l-.0082-.0143-.009-.0138c-.3276-.5062-.8434-.8115-1.4116-.8115-.5668 0-1.0831.3036-1.4165.8043l-.0115.0173-.0104.018c-1.9139 3.315-2.8714 4.953-3.8401 6.6102l-.0336.0575c-.98 1.6764-1.9827 3.3923-4.0064 6.8974Z"/>
  <path d="M11.9857 16.1023a.8373.8373 0 0 0-.8373.8373c0 .4625.3748.8373.8373.8373a.8372.8372 0 0 0 .8372-.8373.8373.8373 0 0 0-.8372-.8373ZM11.3359 14.5409V8.9998h1.3v5.5411h-1.3Z"/>
</g></svg>