<svg xmlns="http://www.w3.org/2000/svg" data-laicon-version="15.3" viewBox="0 0 20 20" fill="black"><g transform="translate(-2 -2)">
  <path d="M3.794 17.31c.02.014.07.04.178.04h7.962c.05.452.157.888.313 1.3H3.972c-.696 0-1.212-.373-1.434-.915a1.69 1.69 0 0 1 .142-1.516c1.784-3.09 2.668-4.601 3.531-6.079l.03-.05c.854-1.461 1.698-2.905 3.385-5.827l.01-.018.011-.017c.307-.46.785-.743 1.313-.743.53 0 1.008.285 1.31.75l.008.014.008.014c1.676 2.902 2.518 4.357 3.357 5.806l.805 1.39a5.314 5.314 0 0 0-1.29.366l-.639-1.103c-.832-1.437-1.668-2.88-3.349-5.792-.087-.129-.172-.145-.21-.145-.039 0-.128.018-.22.15-1.681 2.91-2.524 4.353-3.377 5.81l-.03.051c-.863 1.478-1.747 2.99-3.533 6.084l-.007.012-.008.013a.393.393 0 0 0-.044.338.14.14 0 0 0 .053.068Z"/>
  <path d="m10.44 13-.1-4h1.2l-.1 4h-1Zm.5.8a.75.75 0 1 0 0 1.5.75.75 0 0 0 0-1.5Zm6.91 2.632V14.6h-1.2v2.468l1.814 1.229.673-.994-1.287-.871Z"/>
  <path d="M12.9 16.75a4.35 4.35 0 1 1 8.7 0 4.35 4.35 0 0 1-8.7 0Zm4.35-3.15a3.15 3.15 0 1 0 0 6.3 3.15 3.15 0 0 0 0-6.3Z"/>
</g></svg>