<svg xmlns="http://www.w3.org/2000/svg" data-laicon-version="15.0" viewBox="0 0 20 20" fill="black"><g transform="translate(-2 -2)">
  <path d="M11.9957 14.7303c-.4519 0-.818.3683-.818.8224 0 .4543.3661.8224.818.8224.4517 0 .8179-.3681.8179-.8224 0-.4541-.3662-.8224-.8179-.8224Z"/>
  <path d="M7.998 3.037a.65.65 0 0 1 .4608-.1915h7.0824a.65.65 0 0 1 .4608.1916l4.9617 4.9883a.6502.6502 0 0 1 .1891.4584v7.0324a.6502.6502 0 0 1-.1891.4584l-4.9617 4.9883a.6498.6498 0 0 1-.4608.1916H8.4589a.65.65 0 0 1-.461-.1917l-4.9617-4.9901a.6501.6501 0 0 1-.189-.4583V8.4838a.65.65 0 0 1 .1891-.4584L7.998 3.0371Zm.7311 1.1085L4.1471 8.752v6.4942l4.582 4.6083h6.5418l4.5819-4.6065V8.752l-4.5819-4.6065H8.7291Z"/>
  <path d="M11.3457 13.142V7.6145h1.3v5.5275h-1.3Z"/>
</g></svg>