<svg xmlns="http://www.w3.org/2000/svg" data-laicon-version="15.3" viewBox="0 0 20 20" fill="black"><g transform="translate(-2 -2)">
  <path d="M3.971 17.35c-.108 0-.158-.026-.178-.039a.14.14 0 0 1-.052-.068.393.393 0 0 1 .043-.338l.008-.012.007-.013c1.787-3.093 2.67-4.606 3.534-6.084l.03-.05c.852-1.458 1.695-2.9 3.376-5.811.093-.132.182-.15.22-.15.039 0 .123.017.21.146 1.682 2.912 2.518 4.355 3.35 5.792l.638 1.102c.407-.173.84-.297 1.29-.365l-.805-1.391-3.356-5.805-.008-.015-.01-.013c-.3-.466-.778-.75-1.308-.75-.529 0-1.007.282-1.313.742l-.012.018-.01.018C7.938 7.185 7.095 8.629 6.24 10.09l-.03.05c-.863 1.478-1.747 2.99-3.53 6.079a1.69 1.69 0 0 0-.142 1.517c.221.541.738.914 1.433.914h8.276a5.318 5.318 0 0 1-.314-1.3H3.971Z"/>
  <path d="m10.34 9 .1 4h1l.1-4h-1.2Zm-.15 5.55a.75.75 0 1 1 1.5 0 .75.75 0 0 1-1.5 0Zm7.06 1.422 1.132-1.131.777.778-1.131 1.131 1.131 1.131-.778.778-1.13-1.131-1.132 1.131-.778-.778 1.131-1.131-1.131-1.131.778-.778 1.131 1.131Z"/>
  <path d="M17.25 12.4a4.35 4.35 0 1 0 0 8.7 4.35 4.35 0 0 0 0-8.7Zm-3.15 4.35a3.15 3.15 0 1 1 6.3 0 3.15 3.15 0 0 1-6.3 0Z"/>
</g></svg>