<svg xmlns="http://www.w3.org/2000/svg" data-laicon-version="15.0" viewBox="0 0 20 20" fill="black"><g transform="translate(-2 -2)">
  <path d="m9.8101 9.3498 2.4749 2.4749-.9192.9193-2.4749-2.4749-.8643.8643c-.1597.1597-.4318.0924-.4987-.1232L6.3376 7.1726c-.0716-.2308.1452-.4472.3759-.3752l3.8327 1.195c.2153.0671.2823.339.1228.4985l-.8589.859Z"/>
  <path d="M3.3501 5.9997c0-1.1874.9626-2.15 2.15-2.15h12c1.1874 0 2.15.9626 2.15 2.15v6.6001h.85c.7732 0 1.4.6268 1.4 1.4v5c0 .7732-.6268 1.4-1.4 1.4h-7c-.7732 0-1.4-.6268-1.4-1.4v-.85h-6.6c-1.1874 0-2.15-.9626-2.15-2.15v-10Zm15 6.6001v-6.6a.85.85 0 0 0-.85-.85h-12a.85.85 0 0 0-.85.85v10a.85.85 0 0 0 .85.85h6.6v-2.85c0-.7732.6268-1.4 1.4-1.4h4.85Z"/>
</g></svg>