<svg xmlns="http://www.w3.org/2000/svg" data-laicon-version="17.5" viewBox="0 0 20 20" fill="black"><g transform="translate(-2 -2)">
  <path d="M5.6 7a2.15 2.15 0 0 1 2.15-2.15h11.5A2.15 2.15 0 0 1 21.4 7v8.5a2.15 2.15 0 0 1-2.15 2.15h-5.5v-1.3h5.5c.47 0 .85-.38.85-.85V7a.85.85 0 0 0-.85-.85H7.75A.85.85 0 0 0 6.9 7v3.3H5.6V7Z"/>
  <path d="M4.25 11.65A1.65 1.65 0 0 0 2.6 13.3v5c0 .911.739 1.65 1.65 1.65h6.5a1.65 1.65 0 0 0 1.65-1.65v-5a1.65 1.65 0 0 0-1.65-1.65h-6.5ZM3.9 13.3a.35.35 0 0 1 .35-.35h6.5a.35.35 0 0 1 .35.35v5a.35.35 0 0 1-.35.35h-6.5a.35.35 0 0 1-.35-.35v-5Z"/>
</g></svg>