<svg xmlns="http://www.w3.org/2000/svg" data-laicon-version="15.0" viewBox="0 0 20 20" fill="black"><g transform="translate(-2 -2)">
  <path d="M9.2165 18.2538c.8973.2596 1.829.3962 2.7777.3962 4.0241 0 7.7424-2.4557 9.8181-6.3439L21.9757 12l-.1634-.3061c-.7024-1.3158-1.5929-2.4675-2.6198-3.4155l-.9195.9195c.852.7787 1.6062 1.7202 2.2235 2.8021-1.9098 3.3472-5.1302 5.35-8.5023 5.35a8.6022 8.6022 0 0 1-1.7029-.1709l-1.0747 1.0747Zm-1.3463-.4929c-2.3404-1.0428-4.357-2.9521-5.6931-5.4548L2.0137 12l.1634-.3061c2.0757-3.8882 5.794-6.344 9.8171-6.344 2.2342 0 4.3741.757 6.191 2.096l-.9309.9309c-1.5762-1.114-3.395-1.7268-5.2601-1.7268-3.3711 0-6.5915 2.0028-8.5013 5.35 1.3034 2.2844 3.2173 3.9426 5.3729 4.7653l-.9956.9956Z"/>
  <path d="M11.9939 9.5439c-1.3564 0-2.4561 1.0996-2.4561 2.4561 0 .8102.3916 1.5288.9987 1.9772l-.7725 1.0456C8.8395 14.3399 8.2378 13.2401 8.2378 12c0-2.0744 1.6816-3.7561 3.7561-3.7561 1.2657 0 2.3849.6266 3.0644 1.5836l-1.06.7526c-.4461-.6284-1.1776-1.0362-2.0044-1.0362Z"/>
  <path d="m4.5586 19.2344 15.0669-15.067.9193.9192-15.067 15.067-.9192-.9192Z"/>
</g></svg>