<svg xmlns="http://www.w3.org/2000/svg" data-laicon-version="15.0" viewBox="0 0 20 20" fill="black"><g transform="translate(-2 -2)">
  <path d="M3.4929 12c1.9098 3.3472 5.1302 5.35 8.5013 5.35 3.3721 0 6.5925-2.0028 8.5023-5.35-1.9098-3.3472-5.1302-5.35-8.5023-5.35-3.3711 0-6.5915 2.0028-8.5013 5.35Zm-1.3158-.3061c2.0757-3.8882 5.794-6.344 9.8171-6.344 4.0241 0 7.7424 2.4558 9.8181 6.344l.1634.3061-.1634.3061c-2.0757 3.8882-5.794 6.3439-9.8181 6.3439-4.0231 0-7.7414-2.4557-9.8171-6.3439L2.0137 12l.1634-.3061Z"/>
  <path d="M11.9939 9.5439c-1.3565 0-2.4561 1.0996-2.4561 2.4561 0 1.3565 1.0996 2.4561 2.4561 2.4561 1.3565 0 2.4561-1.0996 2.4561-2.4561 0-1.3565-1.0996-2.4561-2.4561-2.4561ZM8.2378 12c0-2.0744 1.6816-3.7561 3.7561-3.7561 2.0744 0 3.7561 1.6817 3.7561 3.7561s-1.6817 3.7561-3.7561 3.7561c-2.0745 0-3.7561-1.6817-3.7561-3.7561Z"/>
</g></svg>