<svg xmlns="http://www.w3.org/2000/svg" data-laicon-version="15.0" viewBox="0 0 20 20" fill="black"><g transform="translate(-2 -2)">
  <path d="M9.2231 10.1964c-.5523 0-1 .4477-1 1s.4477 1 1 1c.5522 0 1-.4477 1-1s-.4478-1-1-1Zm4.5542 1c0-.5523.4478-1 1-1 .5523 0 1 .4477 1 1s-.4477 1-1 1c-.5522 0-1-.4477-1-1Zm-3.6776 5.0201a.65.65 0 1 1-.998-.8331c.6515-.7804 1.7883-1.2335 2.999-1.2335 1.2108 0 2.3476.4531 2.999 1.2335a.65.65 0 0 1-.0824.9155.6499.6499 0 0 1-.9155-.0824c-.3467-.4153-1.0754-.7666-2.0011-.7666-.9256 0-1.6543.3513-2.001.7666Zm5.6725-8.9438a.65.65 0 0 1-.2362.8883l-1.2098.7015a.65.65 0 0 1-.6521-1.1246l1.2098-.7015a.65.65 0 0 1 .8883.2363Zm-7.1453.8583a.65.65 0 0 1 .7465-1.0644l1.0001.7015a.65.65 0 0 1-.7466 1.0643l-1-.7015Z"/>
  <path d="M12 2.75c-5.1086 0-9.25 4.1414-9.25 9.25s4.1414 9.25 9.25 9.25c5.1087 0 9.25-4.1414 9.25-9.25S17.1087 2.75 12 2.75ZM4.05 12c0-4.3907 3.5593-7.95 7.95-7.95 4.3906 0 7.9501 3.5593 7.9501 7.95 0 4.3907-3.5595 7.95-7.9501 7.95-4.3907 0-7.95-3.5593-7.95-7.95Z"/>
</g></svg>