<svg xmlns="http://www.w3.org/2000/svg" data-laicon-version="15.0" viewBox="0 0 20 20" fill="black"><g transform="translate(-2 -2)">
  <path d="M8.2988 13.6777a.65.65 0 0 1 .65-.65h6.1026a.65.65 0 0 1 .65.65h-.65c.65 0 .65.0004.65.0007v.007l-.0002.0118a2.5735 2.5735 0 0 1-.0078.1503 3.7253 3.7253 0 0 1-.0504.3793c-.0564.3061-.1703.7225-.4041 1.1455-.2359.4267-.5961.8635-1.1391 1.191-.5441.3282-1.2357.5247-2.0997.5247-.864 0-1.5556-.1965-2.0997-.5247-.543-.3275-.9032-.7643-1.139-1.191-.2339-.423-.3477-.8394-.4041-1.1455a3.7307 3.7307 0 0 1-.0505-.3793 2.7322 2.7322 0 0 1-.0078-.1503l-.0001-.0118v-.007c0-.0003 0-.0007.65-.0007h-.65Zm1.4217.65c.0433.1338.1012.2757.1786.4157.1455.2634.3575.5166.6726.7067.3141.1894.7668.3379 1.4284.3379.6616 0 1.1143-.1485 1.4284-.3379.3151-.1901.5271-.4433.6726-.7067a2.358 2.358 0 0 0 .1786-.4157H9.7205ZM14.7773 9.2964c-.5522 0-1 .4477-1 1s.4478 1 1 1c.5523 0 1-.4477 1-1s-.4477-1-1-1Zm-5.5546 0c-.5523 0-1 .4477-1 1s.4477 1 1 1c.5522 0 1-.4477 1-1s-.4478-1-1-1Z"/>
  <path d="M12 4.05c-4.3907 0-7.95 3.5593-7.95 7.95 0 4.3907 3.5593 7.95 7.95 7.95 4.3907 0 7.95-3.5593 7.95-7.95 0-4.3907-3.5593-7.95-7.95-7.95ZM2.75 12c0-5.1086 4.1414-9.25 9.25-9.25s9.25 4.1414 9.25 9.25-4.1414 9.25-9.25 9.25S2.75 17.1086 2.75 12Z"/>
</g></svg>