<svg xmlns="http://www.w3.org/2000/svg" data-laicon-version="15.0" viewBox="0 0 20 20" fill="black"><g transform="translate(-2 -2)">
  <path d="M8.9497 14.5a.65.65 0 0 1 .65-.65h5a.65.65 0 1 1 0 1.3h-5a.65.65 0 0 1-.65-.65ZM14.7773 9.2964c-.5522 0-1 .4477-1 1s.4478 1 1 1c.5523 0 1-.4477 1-1s-.4477-1-1-1Zm-5.5546 0c-.5523 0-1 .4477-1 1s.4477 1 1 1c.5522 0 1-.4477 1-1s-.4478-1-1-1Z"/>
  <path d="M12 4.0499c-4.3907 0-7.95 3.5593-7.95 7.95 0 4.3907 3.5593 7.95 7.95 7.95 4.3907 0 7.95-3.5593 7.95-7.95 0-4.3907-3.5593-7.95-7.95-7.95Zm-9.25 7.95c0-5.1086 4.1414-9.25 9.25-9.25s9.25 4.1414 9.25 9.25-4.1414 9.25-9.25 9.25-9.25-4.1414-9.25-9.25Z"/>
</g></svg>