<svg xmlns="http://www.w3.org/2000/svg" data-laicon-version="15.0" viewBox="0 0 20 20" fill="black"><g transform="translate(-2 -2)">
  <path d="M5.6315 4.35v15.3h9.0251l3.7114-3.7114V4.3501H5.6315Zm-1.3-.1312c0-.6455.5233-1.1687 1.1687-1.1687h12.9991c.6455 0 1.1687.5232 1.1687 1.1686V16.477l-4.473 4.473H5.5002c-.6454 0-1.1687-.5232-1.1687-1.1687V4.2188Z"/>
  <path d="M10.9653 4.9394h1.9231v1.3h-1.9231v-1.3Zm0 1.9231h1.9231v1.3h-1.9231v-1.3Zm0 3.8464h1.9231v1.3h-1.9231v-1.3Zm0-1.9233h1.9231v1.3h-1.9231v-1.3Z"/>
</g></svg>