<svg xmlns="http://www.w3.org/2000/svg" data-laicon-version="15.0" viewBox="0 0 20 20" fill="black"><g transform="translate(-2 -2)">
  <path d="M5.632 19.65h6.3683v1.3001H5.5007c-.6455 0-1.1687-.5233-1.1687-1.1688V7.523L8.805 3.05h9.6948c.6455 0 1.1687.5234 1.1687 1.1688V16h-1.3V4.35h-9.025L5.632 8.0616V19.65Z"/>
  <path d="M9.724 8.442H4.982v-1.3h3.442V3.7h1.3v4.7423-.0002ZM12 15.0001h8c.5523 0 1 .4477 1 1v5c0 .5523-.4477 1-1 1h-8c-.5523 0-1-.4477-1-1v-5c0-.5523.4477-1 1-1Zm.9778 4.84h.7046c.0404 0 .0661-.0257.0661-.0661v-1.8423h.7267c.0403 0 .066-.0257.066-.0661v-.6533c0-.0403-.0257-.066-.066-.066h-2.2901c-.0404 0-.0661.0257-.0661.066v.6533c0 .0404.0257.0661.0661.0661h.7266v1.8423c0 .0404.0257.0661.0661.0661Zm1.7576 0h.7854c.0367 0 .0587-.0184.0771-.0478l.3853-.6936.3817.6936c.0183.0294.0404.0478.0771.0478h.822c.0514 0 .0698-.0367.0441-.0808l-.7927-1.3028.7413-1.2295c.0257-.044.0073-.0807-.044-.0807h-.7744c-.0367 0-.0587.0183-.0771.0477l-.3413.6349-.345-.6349c-.0183-.0294-.0403-.0477-.077-.0477h-.8111c-.0514 0-.0697.0367-.044.0807l.7376 1.2331-.789 1.2992c-.0257.0441-.0074.0808.044.0808Zm4.2872 0c.0403 0 .066-.0257.066-.0661v-1.8423h.7267c.0404 0 .0661-.0257.0661-.0661v-.6533c0-.0403-.0257-.066-.0661-.066h-2.2901c-.0404 0-.066.0257-.066.066v.6533c0 .0404.0256.0661.066.0661h.7267v1.8423c0 .0404.0257.0661.066.0661h.7047Z"/>
</g></svg>