<svg xmlns="http://www.w3.org/2000/svg" data-laicon-version="15.0" viewBox="0 0 20 20" fill="black"><g transform="translate(-2 -2)">
  <path d="M5.632 19.65h6.3683v1.2999H5.5007c-.6455 0-1.1687-.523-1.1687-1.1687V7.5231L8.805 3.05h9.6948c.6455 0 1.1687.5232 1.1687 1.1687V16h-1.3V4.35h-9.025L5.632 8.0617V19.65Z"/>
  <path d="M9.724 8.442H4.982v-1.3h3.442V3.7h1.3v4.7423-.0002ZM12 14.9999h8c.5523 0 1 .4477 1 1v5c0 .5523-.4477 1-1 1h-8c-.5523 0-1-.4477-1-1v-5c0-.5523.4477-1 1-1Zm3.9117 4.8913c.6202 0 1.0606-.3559 1.0606-.8587 0-.4441-.2348-.6937-.7046-.8515l-.2092-.0697c-.2459-.0807-.3119-.1358-.3119-.2019 0-.077.077-.1174.1541-.1174.0807 0 .1688.0294.2422.1908.0147.0404.0441.0551.0844.0441l.6386-.1762c.0404-.011.0587-.0404.044-.0844-.1651-.4698-.5431-.6716-.9945-.6716-.5542 0-1.0129.356-1.0129.8698 0 .411.2605.6899.6569.8294l.3083.1101c.1871.0661.2679.1028.2679.1872 0 .066-.0771.1027-.1872.1027-.1725 0-.2899-.055-.3633-.2165-.0147-.0367-.0441-.0514-.0808-.044l-.6165.1541c-.0404.011-.0587.0404-.0441.0844.1578.4588.5542.7193 1.068.7193Zm-2.7852-.0513h.7046c.0404 0 .0661-.0257.0661-.0661v-1.8423h.7266c.0404 0 .0661-.0257.0661-.0661v-.6533c0-.0403-.0257-.066-.0661-.066h-2.29c-.0404 0-.0661.0257-.0661.066v.6533c0 .0404.0257.0661.0661.0661h.7266v1.8423c0 .0404.0257.0661.0661.0661Zm5.5478 0c.0367 0 .0624-.0184.0771-.0514l1.0386-2.5654c.0183-.044-.0074-.077-.0551-.077h-.8037c-.0367 0-.0661.0183-.0771.055l-.4477 1.4203-.4588-1.4203c-.011-.0367-.0403-.055-.077-.055h-.8148c-.0477 0-.0734.033-.055.077l1.0386 2.5654c.0147.033.0404.0514.0771.0514h.5578Z"/>
</g></svg>