<svg xmlns="http://www.w3.org/2000/svg" data-laicon-version="15.0" viewBox="0 0 20 20" fill="black"><g transform="translate(-2 -2)">
  <path d="M5.632 19.65h7.3682v1.3001H5.5007c-.6455 0-1.1687-.5233-1.1687-1.1688V7.523L8.805 3.05h9.6948c.6455 0 1.1687.5234 1.1687 1.1688V16h-1.3V4.35h-9.025L5.632 8.0616V19.65Z"/>
  <path d="M9.724 8.442H4.982v-1.3h3.442V3.7h1.3v4.7423-.0002Zm8.8961 9.7283c0-.2789-.1505-.3633-.356-.3633h-.1982v.7266h.1982c.2055 0 .356-.0844.356-.3633Z"/>
  <path d="M13 15.0001h7c.5523 0 1 .4477 1 1v5c0 .5522-.4477 1-1 1h-7c-.5523 0-1-.4478-1-1v-5c0-.5523.4477-1 1-1Zm.5099 4.84h2.0625c.0404 0 .0661-.0256.0661-.066v-.6533c0-.0403-.0257-.066-.0661-.066h-.8955l.9102-1.5488c.0147-.0293.022-.0514.022-.0807v-.2129c0-.0403-.0257-.066-.0661-.066h-1.9524c-.0404 0-.0661.0257-.0661.066v.6533c0 .0404.0257.066.0661.066h.7817l-.9065 1.5488c-.0147.0293-.022.0514-.022.0807v.2129c0 .0404.0257.066.0661.066Zm2.4954 0h.7046c.0404 0 .0661-.0256.0661-.066v-2.5617c0-.0403-.0257-.066-.0661-.066h-.7046c-.0404 0-.0661.0257-.0661.066v2.5617c0 .0404.0257.066.0661.066Zm1.9944 0c.0404 0 .0661-.0256.0661-.066v-.5799h.2129c.778 0 1.1854-.3376 1.1854-1.0239 0-.69-.4074-1.0239-1.1854-1.0239h-.9653c-.0403 0-.066.0257-.066.066v2.5617c0 .0404.0257.066.066.066h.6863Z"/>
</g></svg>