<svg xmlns="http://www.w3.org/2000/svg" data-laicon-version="15.3" viewBox="0 0 20 20" fill="black"><g transform="translate(-2 -2)">
  <path d="M18.36 11.873V4.15H5.63v15.7h6.704c.222.473.508.91.846 1.3h-7.7c-.647 0-1.15-.53-1.15-1.15V4c0-.647.53-1.15 1.15-1.15h13.03c.648 0 1.15.53 1.15 1.15v8.249a5.612 5.612 0 0 0-1.3-.376Z"/>
  <path d="M12.32 7.52H7.83v-1.3h4.49v1.3Zm0 2.24H7.83v-1.3h4.49v1.3Zm5.73 5.54v1.832l1.287.871-.673.994-1.814-1.229V15.3h1.2Z"/>
  <path d="M13.1 17.45a4.35 4.35 0 1 1 8.7 0 4.35 4.35 0 0 1-8.7 0Zm4.35-3.15a3.15 3.15 0 1 0 0 6.3 3.15 3.15 0 0 0 0-6.3Z"/>
</g></svg>