<svg xmlns="http://www.w3.org/2000/svg" data-laicon-version="15.3" viewBox="0 0 20 20" fill="black"><g transform="translate(-2 -2)">
  <path d="M5 6.15a.35.35 0 0 0-.35.35V17c0 .193.157.35.35.35h5v1.3H5A1.65 1.65 0 0 1 3.35 17V6.5c0-.911.739-1.65 1.65-1.65h13c.911 0 1.65.739 1.65 1.65v4h-1.3v-4a.35.35 0 0 0-.35-.35H5Z"/>
  <path d="M11 11.59H6.5v-1.3H11v1.3ZM6.5 9.35H11v-1.3H6.5v1.3Zm9.6 8.447 2.343-2.344-.707-.707-1.636 1.636-.987-.986-.707.707 1.694 1.694Z"/>
  <path d="M15.445 11.334a1.45 1.45 0 0 1 2.03 0l.726.712 1.018.01a1.45 1.45 0 0 1 1.435 1.435l.01 1.018.712.726a1.45 1.45 0 0 1 0 2.03l-.712.726-.01 1.018a1.45 1.45 0 0 1-1.435 1.435l-1.018.01-.726.712a1.45 1.45 0 0 1-2.03 0l-.726-.712-1.018-.01a1.45 1.45 0 0 1-1.435-1.435l-.01-1.018-.712-.726a1.45 1.45 0 0 1 0-2.03l.712-.726.01-1.018a1.45 1.45 0 0 1 1.435-1.435l1.018-.01.726-.712Zm1.12.929a.15.15 0 0 0-.21 0l-.913.894a.65.65 0 0 1-.449.186l-1.278.013a.15.15 0 0 0-.149.149l-.013 1.278a.65.65 0 0 1-.186.449l-.894.913a.15.15 0 0 0 0 .21l.894.913a.65.65 0 0 1 .186.449l.013 1.278a.15.15 0 0 0 .149.149l1.278.013a.65.65 0 0 1 .449.186l.913.894a.15.15 0 0 0 .21 0l.914-.894a.65.65 0 0 1 .448-.186l1.278-.013a.15.15 0 0 0 .149-.149l.013-1.278a.65.65 0 0 1 .186-.448l.894-.914a.15.15 0 0 0 0-.21l-.894-.913a.65.65 0 0 1-.186-.449l-.013-1.278a.15.15 0 0 0-.149-.149l-1.278-.013a.65.65 0 0 1-.448-.186l-.914-.894Z"/>
</g></svg>