<svg xmlns="http://www.w3.org/2000/svg" data-laicon-version="15.0" viewBox="0 0 20 20" fill="black"><g transform="translate(-2 -2)">
  <path d="M5.632 19.65h5.3682v1.2999H5.5007c-.6455 0-1.1687-.523-1.1687-1.1687V7.5231L8.805 3.05h9.6948c.6455 0 1.1687.5232 1.1687 1.1687V16h-1.3V4.35h-9.025L5.632 8.0617V19.65Z"/>
  <path d="M9.724 8.442H4.982v-1.3h3.442V3.7h1.3v4.7423-.0002Zm2.752 9.3648c.2055 0 .356.0844.356.3634 0 .2789-.1505.3633-.356.3633h-.1982v-.7267h.1982Z"/>
  <path d="M11 14.9999h9c.5523 0 1 .4478 1 1v5c0 .5523-.4477 1-1 1h-9c-.5523 0-1-.4477-1-1v-5c0-.5522.4477-1 1-1Zm8.6067 3.6877v-.3229c0-.0404-.0257-.0661-.0661-.0661h-1.1707c-.0404 0-.0661.0257-.0661.0661v.4183c0 .0404.0257.0661.0661.0661h.3927c-.033.1578-.2055.2496-.4514.2496-.3193 0-.5542-.2056-.5542-.6019 0-.3964.2275-.5982.5542-.5982.1468 0 .3009.0587.3927.1761.022.0294.0477.0441.0844.0331l.6973-.1872c.0403-.011.0587-.0404.044-.0844-.1835-.4771-.6276-.7414-1.2331-.7414-.7964 0-1.4019.5726-1.4019 1.3983 0 .8258.5541 1.3983 1.3872 1.3983.8551 0 1.3249-.5248 1.3249-1.2038ZM11.5253 19.84h.6862c.0404 0 .0661-.0257.0661-.0661v-.5798h.2129c.778 0 1.1854-.3377 1.1854-1.0239 0-.69-.4074-1.024-1.1854-1.024h-.9652c-.0404 0-.0661.0257-.0661.0661v2.5616c0 .0404.0257.0661.0661.0661Zm2.584 0h.668c.0403 0 .066-.0257.066-.0661v-1.3652l.7707 1.3836a.0816.0816 0 0 0 .0771.0477h.734c.0404 0 .066-.0257.066-.0661v-2.5616c0-.0404-.0256-.0661-.066-.0661h-.668c-.0403 0-.066.0257-.066.0661v1.3542l-.7707-1.3726c-.0184-.0293-.0404-.0477-.0771-.0477h-.734c-.0404 0-.066.0257-.066.0661v2.5616c0 .0404.0256.0661.066.0661Z"/>
</g></svg>