<svg xmlns="http://www.w3.org/2000/svg" data-laicon-version="15.0" viewBox="0 0 20 20" fill="black"><g transform="translate(-2 -2)">
  <path d="M5.632 19.65h3.3682v1.3001H5.5007c-.6455 0-1.1687-.5233-1.1687-1.1688V7.523L8.805 3.05h9.6948c.6455 0 1.1687.5234 1.1687 1.1688V16h-1.3V4.35h-9.025L5.632 8.0616V19.65Z"/>
  <path d="M9.724 8.442H4.982v-1.3h3.442V3.7h1.3v4.7423-.0002Zm5.5675 10.6382c-.3193 0-.5542-.2349-.5542-.5872 0-.3523.2349-.5872.5542-.5872.3193 0 .5541.2349.5541.5872 0 .3523-.2348.5872-.5541.5872Z"/>
  <path d="M9 14.9999h11c.5523 0 1 .4478 1 1v5c0 .5523-.4477 1-1 1H9c-.5523 0-1-.4477-1-1v-5c0-.5522.4477-1 1-1Zm4.6427 4.0326c0-.4441-.2349-.6936-.7046-.8515l-.2092-.0697c-.2459-.0807-.312-.1358-.312-.2018 0-.0771.0771-.1175.1542-.1175.0807 0 .1688.0294.2422.1909.0147.0403.044.055.0844.044l.6386-.1762c.0403-.011.0587-.0403.044-.0844-.1651-.4697-.5432-.6716-.9946-.6716-.5541 0-1.0129.356-1.0129.8698 0 .4111.2606.69.6569.8294l.3083.1101c.1872.0661.2679.1028.2679.1872 0 .0661-.077.1028-.1871.1028-.1725 0-.29-.0551-.3634-.2166-.0146-.0367-.044-.0513-.0807-.044l-.6166.1541c-.0403.011-.0587.0404-.044.0844.1578.4588.5542.7194 1.068.7194.6202 0 1.0606-.356 1.0606-.8588Zm-2.4086-.2349v-1.5854c0-.0404-.0256-.0661-.066-.0661H9.7808c-.0403 0-.066.0257-.066.0661v.6532c0 .0404.0257.0661.066.0661h.6166v.8221c0 .1908-.0551.3266-.2312.3266-.1138 0-.1652-.0587-.2019-.1468-.0146-.0367-.044-.0551-.0844-.044l-.6055.1651c-.0404.011-.0587.0404-.0477.0807.1101.4368.4147.7561.9688.7561.6166 0 1.0386-.2936 1.0386-1.0937Zm4.0575 1.0937c.811 0 1.4166-.5726 1.4166-1.3983 0-.8258-.6056-1.3983-1.4166-1.3983-.8111 0-1.4167.5725-1.4167 1.3983 0 .8257.6056 1.3983 1.4167 1.3983Zm2.5552-.0514c.0404 0 .0661-.0257.0661-.0661v-1.3652l.7707 1.3836a.0822.0822 0 0 0 .0771.0477h.734c.0403 0 .066-.0257.066-.0661v-2.5616c0-.0404-.0257-.0661-.066-.0661h-.668c-.0404 0-.066.0257-.066.0661v1.3542l-.7707-1.3726c-.0184-.0293-.0404-.0477-.0771-.0477h-.734c-.0404 0-.0661.0257-.0661.0661v2.5616c0 .0404.0257.0661.0661.0661h.6679Z"/>
</g></svg>