<svg xmlns="http://www.w3.org/2000/svg" data-laicon-version="15.0" viewBox="0 0 20 20" fill="black"><g transform="translate(-2 -2)">
  <path d="m17.3001 11.7-4.1-4.1-3.4-3.5-1.8-1.8-1 1 1.8 1.8-5.2 5.2c-1 1-1 2.7 0 3.7l4.2 4.2c.6.5 1.3.8 2 .8s1.4-.3 1.9-.8l6.1-6.1-.5-.4Zm-7.5-5.7 2.6 2.6 2.9 2.9h-10.9c.1-.1.1-.2.2-.3l5.2-5.2Zm.9 11.3c-.5.5-1.4.5-1.9 0l-4.2-4.2c-.1-.1-.1-.2-.2-.3h10.9l-4.6 4.5Zm7.7997 4.5c-1.5 0-2.7-1.2-2.7-2.7 0-2 2.2-3.7 2.3-3.7l.4-.3.4.3c.1.1 2.3 1.7 2.3 3.7 0 1.5-1.2 2.7-2.7 2.7Zm0-5c-.6.5-1.3 1.5-1.3 2.3 0 .7.6 1.3 1.3 1.3.7 0 1.3-.6 1.3-1.3 0-.9-.7-1.8-1.3-2.3Z"/>
</g></svg>