<svg xmlns="http://www.w3.org/2000/svg" data-laicon-version="15.0" viewBox="0 0 20 20" fill="black"><g transform="translate(-2 -2)">
  <path d="M4.1936 4.98v14.0732h15.6902V4.9799H4.1935Zm-1.3-.1636c0-.6872.5942-1.1365 1.1876-1.1365h15.915c.5933 0 1.1876.4493 1.1876 1.1365v14.4003c0 .6873-.5944 1.1365-1.1876 1.1365H4.0812c-.5934 0-1.1877-.4493-1.1877-1.1365V4.8164Z"/>
  <path d="M10.1074 9.2518a.5.5 0 0 1 .501.0018l3.9931 2.3303a.5.5 0 0 1-.0019.8647l-3.993 2.3074a.5.5 0 0 1-.7501-.4329V9.6854a.5.5 0 0 1 .2509-.4336Zm.749 1.3044v2.9005l2.4974-1.4431-2.4974-1.4574ZM7.192 4.2968v15.4064h-1.3V4.2968h1.3Zm11.024 0v15.4064h-1.3V4.2968h1.3Z"/>
  <path d="M7.0388 9.6607H2.9722v-1.3h4.0666v1.3Zm13.9546 6.0097h-4.0666v-1.3h4.0666v1.3Zm.0342-6.0097h-4.0667v-1.3h4.0667v1.3ZM7.0388 15.6704H2.9722v-1.3h4.0666v1.3Z"/>
</g></svg>