<svg xmlns="http://www.w3.org/2000/svg" data-laicon-version="15.0" viewBox="0 0 20 20" fill="black"><g transform="translate(-2 -2)">
  <path d="M11.6233 3.752c1.8625-.3817 3.853-.7239 7.4241.1278a.65.65 0 0 1 .4992.6323v11.9343a.6502.6502 0 0 1-.8008.6323c-3.3254-.7931-5.1116-.4774-6.8615-.1189l-.2208.0454c-1.7557.362-3.5696.7361-6.694.0772a.65.65 0 0 1-.5159-.636V4.5121a.65.65 0 0 1 .7841-.636c2.8594.603 4.4621.2724 6.1622-.0782l.2234-.046ZM5.7536 5.2969v10.6148c2.5419.4607 4.0512.1495 5.6462-.1795l.2235-.0459c1.7185-.3521 3.5459-.6707 6.6233-.0489V5.031c-3.0091-.6473-4.7021-.3457-6.3623-.0055-.0736.015-.1471.0302-.2207.0454-1.6035.3307-3.2555.6713-5.91.226Z"/>
  <path d="M5.1036 3.7983a.65.65 0 0 1 .65.65V21a.65.65 0 1 1-1.3 0V4.4483a.65.65 0 0 1 .65-.65Z"/>
</g></svg>