<svg xmlns="http://www.w3.org/2000/svg" data-laicon-version="15.3" viewBox="0 0 20 20" fill="black"><g transform="translate(-2 -2)">
  <path d="M11.35 19.6a.65.65 0 0 0 1.3 0v-1.2a.65.65 0 0 0-1.3 0v1.2ZM9.65 12a.65.65 0 0 0-.193-.462l-5.25-5.196a.65.65 0 0 0-1.107.462v10.392a.65.65 0 0 0 1.107.462l5.25-5.196A.65.65 0 0 0 9.65 12ZM4.4 15.638V8.362L8.076 12 4.4 15.638ZM14.35 12c0-.174.07-.34.193-.462l5.25-5.196a.65.65 0 0 1 1.107.462v10.392a.65.65 0 0 1-1.107.462l-5.25-5.196A.65.65 0 0 1 14.35 12Zm5.25-3.638L15.924 12l3.676 3.638V8.362ZM12 16.75a.65.65 0 0 1-.65-.65v-1.2a.65.65 0 0 1 1.3 0v1.2a.65.65 0 0 1-.65.65Zm-.65-4.15a.65.65 0 0 0 1.3 0v-1.2a.65.65 0 0 0-1.3 0v1.2ZM12 9.75a.65.65 0 0 1-.65-.65V7.9a.65.65 0 0 1 1.3 0v1.2a.65.65 0 0 1-.65.65Zm-.65-4.15a.65.65 0 0 0 1.3 0V4.4a.65.65 0 0 0-1.3 0v1.2Z"/>
</g></svg>