<svg xmlns="http://www.w3.org/2000/svg" data-laicon-version="16.15" viewBox="0 0 20 20" fill="black"><g transform="translate(-2 -2)">
  <path d="M8.166 12.002c0-1.314.962-2.18 2.132-2.18 1.17 0 2.132.866 2.132 2.18 0 .349-.125.709-.273 1.022-.104.22-.23.441-.363.65l1.075.609c.45.254.727.73.727 1.246v1.17H7v-1.17c0-.515.277-.992.726-1.246l1.076-.61a5.957 5.957 0 0 1-.363-.649c-.148-.313-.273-.673-.273-1.022Zm2.132-1.18c-.633 0-1.132.433-1.132 1.18 0 .13.053.332.177.596.12.255.287.527.468.788a.69.69 0 0 1-.225.993l-1.367.774a.433.433 0 0 0-.219.376v.17h4.596v-.17c0-.155-.084-.3-.22-.376l-1.366-.774a.69.69 0 0 1-.225-.993c.18-.261.348-.533.468-.788.124-.264.177-.465.177-.597 0-.746-.5-1.178-1.132-1.178Zm4.069 5.876H17V15.53c0-.515-.277-.992-.726-1.246l-1.076-.61c.133-.208.26-.428.363-.649.148-.313.273-.673.273-1.022 0-1.314-.962-2.18-2.132-2.18-.423 0-.819.114-1.152.32.066.073.126.15.18.232.132.195.236.413.312.64.185-.125.412-.191.66-.191.633 0 1.132.432 1.132 1.178 0 .132-.053.333-.177.597-.12.255-.287.527-.468.788a.69.69 0 0 0 .225.993l1.367.774c.135.077.219.22.219.376v.17h-1.633v1Z"/>
  <path d="M4.773 4.068c-.634 0-1.15.516-1.15 1.15V18.77c0 .634.516 1.15 1.15 1.15h14.454c.633 0 1.15-.517 1.15-1.15V7.357c0-.634-.517-1.15-1.15-1.15h-7.088l-2.133-2.14H4.772Zm.15 14.551V5.368h4.543L11.6 7.507h7.476v11.112H4.923Z"/>
</g></svg>