<svg xmlns="http://www.w3.org/2000/svg" data-laicon-version="15.0" viewBox="0 0 20 20" fill="black"><g transform="translate(-2 -2)">
  <path d="M4.7507 4.75v14.5h14.499V4.75H4.7507Zm-1.3-.15c0-.6351.5149-1.15 1.15-1.15h14.799c.6351 0 1.15.5149 1.15 1.15v14.8c0 .6351-.5149 1.1499-1.15 1.1499H4.6007c-.6351 0-1.15-.5148-1.15-1.1499V4.6Z"/>
  <path d="M8.2017 8.1422h7.5244v2.1904h-1.3v-.8904H9.5017v.8904h-1.3V8.1422Z"/>
  <path d="M11.314 15.5515V8.7922h1.3v6.7593h-1.3Z"/>
  <path d="M13.3172 16.2015h-2.678v-1.3h2.678v1.3Z"/>
</g></svg>