<svg xmlns="http://www.w3.org/2000/svg" data-laicon-version="15.0" viewBox="0 0 20 20" fill="black"><g transform="translate(-2 -2)">
  <path d="M4.7507 4.75v14.5h14.499V4.75H4.7507Zm-1.3-.15c0-.635.5149-1.15 1.15-1.15h14.799c.6351 0 1.15.515 1.15 1.15v14.8c0 .6351-.5149 1.15-1.15 1.15H4.6007c-.6351 0-1.15-.5149-1.15-1.15V4.6Z"/>
  <path d="M9 7.8501h1v1.3H9v-1.3Zm0 7h1v1.3H9v-1.3Z"/>
  <path d="M9.3501 7.8501h2.9c1.3255 0 2.4 1.0745 2.4 2.4 0 1.3254-1.0745 2.4-2.4 2.4h-2.9v-4.8Zm1.3 1.3v2.2h1.6c.6075 0 1.1-.4925 1.1-1.1 0-.6075-.4925-1.1-1.1-1.1h-1.6Z"/>
  <path d="M9.3501 11.3501h3.4c1.3255 0 2.4 1.0745 2.4 2.4 0 1.3254-1.0745 2.4-2.4 2.4h-3.4v-4.8Zm1.3 1.3v2.2h2.1c.6075 0 1.1-.4925 1.1-1.1 0-.6076-.4925-1.1-1.1-1.1h-2.1Z"/>
</g></svg>