<svg xmlns="http://www.w3.org/2000/svg" data-laicon-version="15.0" viewBox="0 0 20 20" fill="black"><g transform="translate(-2 -2)">
  <path d="M16 17.55H8v-1.3h8v1.3Zm-5.4304-8.7703H8v-1.3h2.5696v1.3Zm5.4302.0003h-2.5696v-1.3h2.5696v1.3Z"/>
  <path d="m15.3644 8.0915.0456 3.4956c.0073 1.0929-.2859 1.9974-.9198 2.6257-.6318.6262-1.5036.8804-2.4514.8804-.8886 0-1.7565-.2273-2.4065-.8248-.66-.6067-.9975-1.5045-.9975-2.6386V8.127h1.3v3.5028c0 .8749.2533 1.3838.5772 1.6815.334.307.8432.4819 1.5268.4819.7276 0 1.223-.1932 1.5362-.5037.3109-.3081.5405-.8289.535-1.6917l-.0455-3.4893 1.2999-.017Z"/>
  <path d="M4.7507 4.75v14.5001h14.499v-14.5H4.7507Zm-1.3-.15c0-.635.5149-1.15 1.15-1.15h14.799c.6351 0 1.15.515 1.15 1.15v14.8001c0 .6351-.5149 1.15-1.15 1.15H4.6007c-.6351 0-1.15-.5149-1.15-1.15v-14.8Z"/>
</g></svg>