<svg xmlns="http://www.w3.org/2000/svg" data-laicon-version="15.0" viewBox="0 0 20 20" fill="black"><g transform="translate(-2 -2)">
  <path d="M7.2212 4.6201h5.0956c.7847 0 1.7399.225 2.5221.7994.8161.5992 1.4042 1.555 1.4042 2.877 0 1.1239-.4488 2.0211-1.1328 2.6598 1.2995.7111 2.2696 2.115 2.2696 3.9853 0 1.1735-.3301 2.263-1.0975 3.0839-.7692.8228-1.8809 1.2722-3.2392 1.353l-.0253.0015H7.2212V4.6201Zm1.7 7.5161V17.68h4.0453c1.0281-.0656 1.6779-.3917 2.074-.8155.4012-.4291.6394-1.0624.6394-1.9229 0-1.7874-1.3179-2.8054-2.5808-2.8054h-4.178Zm0-1.7h2.9628c.7087 0 1.3978-.2061 1.8879-.5734.4658-.3492.7712-.8525.7712-1.5662 0-.7547-.3089-1.212-.7104-1.5069-.4354-.3197-1.0184-.4696-1.5159-.4696H8.9212v4.1161Z"/>
  <path d="M8.0709 6.3201h-1.441v-1.7h1.441v1.7Zm0 13.0598h-1.441v-1.7h1.441v1.7Z"/>
</g></svg>