<svg xmlns="http://www.w3.org/2000/svg" data-laicon-version="16.11" viewBox="0 0 20 20" fill="black"><g transform="translate(-2 -2)">
  <path d="M7.2 8.28c0 .66.145 1.384.659 2.07h1.945a3.508 3.508 0 0 1-.706-.548C8.624 9.314 8.5 8.805 8.5 8.28c0-.84.429-1.479 1.078-1.932A4.069 4.069 0 0 1 11.8 5.65c1.422 0 2.336.522 2.897 1.104.59.611.783 1.276.783 1.526h1.3c0-.65-.372-1.625-1.147-2.429-.804-.833-2.055-1.501-3.833-1.501-.948 0-2.068.305-2.966.932C7.921 5.919 7.2 6.92 7.2 8.28Zm7.599 5.37h1.723c.3.511.478 1.13.478 1.88 0 1.414-1.348 4.1-4.95 4.1-2.042 0-3.365-.637-4.174-1.5-.791-.843-1.026-1.834-1.026-2.45h1.3c0 .334.14.992.674 1.561.516.55 1.468 1.089 3.226 1.089 2.798 0 3.65-2.014 3.65-2.8 0-.896-.349-1.462-.901-1.88Zm-10.299-1h15v-1.3h-15v1.3Z"/>
</g></svg>