<svg xmlns="http://www.w3.org/2000/svg" data-laicon-version="15.0" viewBox="0 0 20 20" fill="black"><g transform="translate(-2 -2)">
  <path d="M14.0502 9.069h-2.6v-1.3h2.6v1.3Zm-4.1503 7.3001v-1.3h2.6v1.3h-2.6Z"/>
  <path d="m10.4688 15.5634 1.8-7.3 1.2621.3113-1.8 7.2999-1.2621-.3112Z"/>
  <path d="M4.7507 4.75v14.4999h14.4989v-14.5H4.7506Zm-1.3-.15c0-.6351.5149-1.15 1.15-1.15h14.7989c.6351 0 1.15.5149 1.15 1.15v14.7999c0 .6351-.5149 1.15-1.15 1.15H4.6006c-.635 0-1.15-.5149-1.15-1.15v-14.8Z"/>
</g></svg>