<svg xmlns="http://www.w3.org/2000/svg" data-laicon-version="15.0" viewBox="0 0 20 20" fill="black"><g transform="translate(-2 -2)">
  <path d="M13.6022 5.1869c-.1388.0889-.1865.2004-.1865.269v2.184c0 .346-.271.6317-.6164.6496-6.5958.3414-9.2652 4.867-9.2652 7.305a.6516.6516 0 0 1-.0006.0276c-.0343.8054.1564 1.5467.3987 2.1459.7206-1.8355 2.2335-2.9856 3.7052-3.6898 1.875-.8971 3.7918-1.1312 4.2887-1.175a9.633 9.633 0 0 0 .2791-.0291l.0305-.0036a6.0694 6.0694 0 0 1 .1994-.0212c.0642-.0052.1707-.0122.2831.0046.1254.0188.315.0758.4675.2495.1401.1595.1755.3363.1877.4282.0126.0942.011.1883.0093.2525a10.465 10.465 0 0 1-.0058.1509 7.8647 7.8647 0 0 0-.0093.3739v1.6197c0 .1024.0728.2304.1999.2901a.3084.3084 0 0 0 .1873.0249c.0693-.0117.1755-.051.3068-.1698a.6798.6798 0 0 1 .0272-.0233l6.3193-5.1149a.307.307 0 0 0 .0302-.0639.5827.5827 0 0 0 .032-.1831c.0008-.0582-.0073-.1007-.0149-.1249l-.0064-.005-6.7062-5.4317c-.0341.0065-.0847.0241-.1406.0599Zm.1706-.063-.0014-.0001h.0014ZM4.1798 19.526c-.505.4092-.5051.409-.5053.4088l-.001-.0012-.0018-.0023-.0052-.0065-.016-.0204a3.812 3.812 0 0 1-.0531-.0704 5.808 5.808 0 0 1-.176-.253 7.5917 7.5917 0 0 1-.5118-.9107c-.3624-.7619-.7254-1.8474-.6755-3.0899.0092-3.1102 3.1088-7.9274 9.8816-8.5454V5.4558c0-.6282.3834-1.1063.7855-1.3637.3728-.2387.9878-.4194 1.5123-.089a.6585.6585 0 0 1 .0626.0449l6.7729 5.4857c.4259.3048.5262.8221.5211 1.1738-.0055.3782-.1306.8408-.4545 1.1618a.6875.6875 0 0 1-.0485.0435l-6.3476 5.1378c-.5981.5325-1.3145.6221-1.9049.3447-.5519-.2593-.947-.8269-.947-1.4667v-1.6197c0-.0395.0003-.0772.0008-.1132l-.0281.0025c-.4281.0377-2.1685.2521-3.8418 1.0527-1.667.7977-3.1578 2.116-3.3716 4.3375a.65.65 0 0 1-1.1524.3465l.5054-.4088Z"/>
</g></svg>