<svg xmlns="http://www.w3.org/2000/svg" data-laicon-version="15.0" viewBox="0 0 20 20" fill="black"><g transform="translate(-2 -2)">
  <path d="M8.6233 16.0006a.65.65 0 0 0 .8882-.237c.4976-.8597 1.4262-1.4359 2.4887-1.4359 1.0626 0 1.9912.5762 2.4888 1.4359a.65.65 0 1 0 1.1251-.6512c-.7206-1.2449-2.0688-2.0847-3.6139-2.0847-1.545 0-2.8932.8398-3.6138 2.0847a.65.65 0 0 0 .237.8882ZM14.7773 9.2964c-.5522 0-1 .4477-1 1s.4478 1 1 1c.5523 0 1-.4477 1-1s-.4477-1-1-1Zm-5.5542 0c-.5523 0-1 .4477-1 1s.4477 1 1 1c.5522 0 1-.4477 1-1s-.4478-1-1-1Z"/>
  <path d="M12 4.05c-4.3907 0-7.95 3.5593-7.95 7.95 0 4.3907 3.5593 7.95 7.95 7.95 4.3907 0 7.95-3.5593 7.95-7.95 0-4.3907-3.5593-7.95-7.95-7.95ZM2.75 12c0-5.1086 4.1414-9.25 9.25-9.25 5.1087 0 9.25 4.1414 9.25 9.25s-4.1413 9.25-9.25 9.25c-5.1086 0-9.25-4.1414-9.25-9.25Z"/>
</g></svg>