<svg xmlns="http://www.w3.org/2000/svg" data-laicon-version="15.0" viewBox="0 0 20 20" fill="black"><g transform="translate(-2 -2)">
  <path d="M10.1538 3.1729a.65.65 0 0 1 .6374-.5225h2.4185a.65.65 0 0 1 .6374.5225l.3116 1.5584a7.5307 7.5307 0 0 1 1.4546.6036l1.3233-.8822a.65.65 0 0 1 .8202.0812l1.7101 1.71a.65.65 0 0 1 .0812.8202l-.8821 1.3232a7.528 7.528 0 0 1 .6035 1.4547l1.5583.3117a.65.65 0 0 1 .5225.6374v2.4185a.65.65 0 0 1-.5226.6374l-1.5581.3116a7.5384 7.5384 0 0 1-.6036 1.4548l.8821 1.3232a.6498.6498 0 0 1-.0812.8201l-1.7101 1.7101a.6501.6501 0 0 1-.8202.0813l-1.3233-.8823a7.5278 7.5278 0 0 1-1.4546.6036l-.3116 1.5583a.65.65 0 0 1-.6374.5225h-2.4185a.65.65 0 0 1-.6374-.5225l-.3117-1.5583a7.5328 7.5328 0 0 1-1.4547-.6035l-1.3231.8821a.65.65 0 0 1-.8202-.0812L4.534 17.7567a.65.65 0 0 1-.0812-.8201l.882-1.3232a7.5407 7.5407 0 0 1-.6035-1.4548L3.173 13.847a.65.65 0 0 1-.5226-.6374v-2.4185a.65.65 0 0 1 .5225-.6374l1.5585-.3117a7.5344 7.5344 0 0 1 .6034-1.4547l-.882-1.3232a.65.65 0 0 1 .0812-.8201l1.71-1.7101a.65.65 0 0 1 .8202-.0813l1.3233.8821a7.5342 7.5342 0 0 1 1.4546-.6034l.3117-1.5584Zm1.1702.7775-.2864 1.4322a.6501.6501 0 0 1-.4879.505 6.2391 6.2391 0 0 0-1.845.7653.65.65 0 0 1-.702-.0123L6.7866 5.83l-.9565.9565.8107 1.2162a.65.65 0 0 1 .0122.7021 6.2392 6.2392 0 0 0-.7652 1.845.65.65 0 0 1-.5051.4878l-1.4322.2865v1.3527l1.432.2863a.6502.6502 0 0 1 .5051.4877 6.244 6.244 0 0 0 .7654 1.8453.65.65 0 0 1-.0122.702L5.83 17.2143l.9565.9565 1.2162-.8109a.6501.6501 0 0 1 .7022-.0122 6.2319 6.2319 0 0 0 1.8448.7653.6501.6501 0 0 1 .4879.5051l.2864 1.4321h1.3528l.2864-1.4321a.6503.6503 0 0 1 .4879-.5051 6.2337 6.2337 0 0 0 1.8447-.7653.65.65 0 0 1 .7021.0122l1.2165.8109.9565-.9565-.8108-1.2162a.65.65 0 0 1-.0122-.7022 6.2359 6.2359 0 0 0 .7653-1.845.6503.6503 0 0 1 .5051-.4879l1.432-.2863V11.324l-1.432-.2865a.65.65 0 0 1-.5051-.4878 6.2364 6.2364 0 0 0-.7653-1.8449.65.65 0 0 1 .0122-.7022l.8108-1.2162-.9565-.9565-1.2165.811a.6499.6499 0 0 1-.7021.012 6.2364 6.2364 0 0 0-1.8447-.7652.6501.6501 0 0 1-.4879-.5051l-.2864-1.4322H11.324Z"/>
  <path d="M12.0004 9.5405c-1.3585 0-2.4597 1.1013-2.4597 2.4597 0 1.3585 1.1012 2.4597 2.4597 2.4597 1.3584 0 2.4597-1.1012 2.4597-2.4597 0-1.3584-1.1013-2.4597-2.4597-2.4597Zm-3.7597 2.4597c0-2.0764 1.6833-3.7597 3.7597-3.7597s3.7597 1.6832 3.7597 3.7597c0 2.0764-1.6833 3.7597-3.7597 3.7597s-3.7597-1.6833-3.7597-3.7597Z"/>
</g></svg>