<svg xmlns="http://www.w3.org/2000/svg" data-laicon-version="15.0" viewBox="0 0 20 20" fill="black"><g transform="translate(-2 -2)">
  <path d="M8.92 12c0-1.7 1.3799-3.08 3.0799-3.08s3.08 1.38 3.08 3.08c0 1.7-1.38 3.08-3.08 3.08-1.7 0-3.08-1.38-3.08-3.08Zm1.2999 0c0 .9799.8 1.7799 1.78 1.7799s1.78-.8 1.78-1.7799c0-.98-.8-1.78-1.78-1.78s-1.78.8-1.78 1.78Z"/>
  <path d="m19.0398 12.8699 1.62 1.27.01.01c.4.31.51.87.26 1.31l-1.45 2.5c-.25.43-.81.63-1.27.43l-1.89-.75h-.02c-.47.36-.98.66-1.52.89h-.02l-.29 2.0401c-.07.5-.51.8799-1.01.8799h-2.89c-.51 0-.94-.3799-1.01-.8799l-.3-2.0301c-.54-.23-1.05-.53-1.52-.89h-.01l-1.91.77c-.41.18-1.01-.01-1.26-.44l-1.44-2.5c-.26-.43-.15-1 .25-1.31l1.61-1.26v-.02c-.04-.3-.06-.6-.06-.9 0-.29.01-.57.05-.86v-.02l-1.62-1.27c-.4-.31-.51-.87-.26-1.31l1.45-2.5c.24-.42.79-.63 1.26-.44l1.9.76h.01c.47-.36.98-.65 1.52-.89h.02l.29-2.04c.07-.5.5-.88 1.01-.88h2.89c.51 0 .94.38 1.01.88l.3 2.03c.54.23 1.05.53 1.52.89h.02l1.91-.77c.41-.18 1.01 0 1.26.43l1.45 2.5c.25.44.14 1-.26 1.31l-1.61 1.26v.02c.04.3.06.61.06.9 0 .29-.02.57-.06.86v.02Zm-2.93 3.27 2.36.95-.01-.01 1.2-2.08-2.01-1.57.09-.75c.03-.23.04-.46.04-.7 0-.24-.02-.49-.05-.73l-.1-.76 2-1.56-1.2-2.08-2.37.96-.6-.45c-.38-.28-.8-.52-1.24-.71l-.7-.29-.35-2.51h-2.4l-.35 2.53-.7.29c-.43.19-.85.43-1.23.72l-.6.46-2.36-.95-1.2 2.08 2.01 1.57-.09.75c-.03.23-.04.47-.04.7 0 .25.02.5.05.74l.1.75-2 1.56 1.2 2.08 2.37-.96.6.46c.38.28.8.52 1.24.71l.7.29.35 2.51h2.4l.35-2.53.7-.29c.44-.19.86-.43 1.24-.72l.6-.46Z"/>
</g></svg>