<svg xmlns="http://www.w3.org/2000/svg" data-laicon-version="15.3" viewBox="0 0 20 20" fill="black"><g transform="translate(-2 -2)">
  <path d="M8.78 13.7h-.92c-.06 0-.08-.04-.06-.1l1.31-3.22c.02-.04.1-.06.1-.06h.7c.05 0 .1.06.1.06l1.31 3.22c.03.06 0 .1-.06.1h-.92c-.05 0-.1-.07-.1-.07l-.15-.44H9.02l-.14.44c-.02.05-.1.07-.1.07Zm.77-2.13-.27.83h.55l-.28-.83Zm3.06 2.13h-.86c-.05 0-.08-.03-.08-.08v-3.21c0-.05.03-.08.08-.08h1.21c.98 0 1.49.42 1.49 1.28 0 .86-.51 1.28-1.49 1.28h-.27v.73c0 .05-.03.08-.08.08Zm.78-2.09c0-.35-.19-.46-.45-.46v.01h-.25v.91h.25c.26 0 .45-.11.45-.46Zm2.48 2.09h-.88c-.05 0-.08-.03-.08-.08v-3.21c0-.05.03-.08.08-.08h.88c.05 0 .08.03.08.08v3.21c0 .05-.03.08-.08.08Z"/>
  <path d="M10.57 21.45h2.89l-.02.01c.51 0 .94-.38 1.01-.88l.29-2.05h.02c.54-.23 1.05-.53 1.52-.9h.02l1.89.76c.46.19 1.02 0 1.27-.43l1.44-2.5c.26-.43.15-1-.25-1.31l-1.62-1.27v-.02c.03-.29.05-.58.05-.86 0-.3-.02-.6-.06-.9v-.02l1.61-1.26c.4-.31.51-.87.26-1.31l-1.45-2.5c-.24-.44-.83-.62-1.26-.44l-1.91.76h-.02c-.46-.35-.98-.64-1.52-.87l-.3-2.03c-.07-.5-.51-.88-1.01-.88h-2.89c-.51 0-.94.38-1.01.88l-.29 2.05h-.02c-.54.23-1.05.52-1.52.89h-.01l-1.89-.76c-.46-.19-1.02 0-1.27.43l-1.44 2.5c-.25.44-.14 1 .26 1.31l1.62 1.27v.02c-.03.29-.05.56-.05.86 0 .3.02.6.06.9v.02l-1.61 1.26c-.4.31-.51.87-.26 1.31l1.45 2.5c.24.44.77.63 1.26.44l1.91-.76h.02c.46.35.98.64 1.52.87l.3 2.03c.07.5.51.88 1.01.88Zm2.64-1.3h-2.4l-.01-.01-.35-2.51-.7-.29c-.44-.18-.86-.42-1.24-.71l-.6-.45-2.37.96-1.2-2.08 2-1.56-.1-.75c-.03-.25-.05-.49-.05-.74 0-.23.01-.46.04-.7l.09-.75-2.01-1.57 1.2-2.08 2.36.95.6-.46c.38-.29.8-.53 1.24-.72l.7-.29.35-2.53h2.4l.35 2.51.7.29c.44.18.86.42 1.24.71l.6.46 2.37-.96 1.2 2.08-2 1.56.1.76c.03.24.05.49.05.73 0 .23-.01.47-.04.7l-.09.75 2.01 1.57-1.2 2.08-2.36-.95-.6.46c-.38.29-.79.53-1.23.72l-.7.29-.35 2.53Z"/>
</g></svg>