<svg xmlns="http://www.w3.org/2000/svg" data-laicon-version="15.0" viewBox="0 0 20 20" fill="black"><g transform="translate(-2 -2)">
  <path d="M3.1001 7.85c0-1.4636 1.1865-2.65 2.65-2.65h12.5c1.4636 0 2.65 1.1864 2.65 2.65v10c0 1.4635-1.1864 2.65-2.65 2.65h-12.5c-1.4635 0-2.65-1.1865-2.65-2.65v-10Zm2.65-1.35c-.7456 0-1.35.6044-1.35 1.35v10c0 .7455.6044 1.35 1.35 1.35h12.5c.7456 0 1.35-.6045 1.35-1.35v-10c0-.7456-.6044-1.35-1.35-1.35h-12.5Z"/>
  <path d="M11.3477 19.35V5.85h1.3v13.5h-1.3Z"/>
  <path d="m8.3403 3.1097.9193-.9193 2.7403 2.7404 2.7404-2.7404.9192.9193-3.6596 3.6595-3.6596-3.6595Z"/>
</g></svg>