<svg xmlns="http://www.w3.org/2000/svg" data-laicon-version="18.8" viewBox="0 0 20 20" fill="black"><g transform="translate(-2 -2)">
  <path d="m14.454 3.93-1.56 1.56h5.147c.372.003.725.156.984.42s.403.619.406.986v5.913a4.991 4.991 0 0 0-1.174-.202l-.126-.003v-1.517h-6.428v7.178h1.343c.06.455.182.891.356 1.3h-9.33a1.39 1.39 0 0 1-.986-.42 1.419 1.419 0 0 1-.396-.851l-.007-.138L2.66 6.901v-.005c.003-.367.147-.722.405-.986.26-.264.614-.417.986-.42h5.162L7.65 3.93l.92-.921 2.48 2.481h.003l2.481-2.481.92.92ZM3.984 18.153a.12.12 0 0 0 .032.083.09.09 0 0 0 .063.029h6.323v-7.178H3.97l.013 7.066Zm.042-11.355a.099.099 0 0 0-.032.021.125.125 0 0 0-.033.086l.006 2.881h6.435V6.791H4.06l-.034.007Zm7.677 2.988h6.428v-2.88l-.01-.049a.12.12 0 0 0-.024-.038.099.099 0 0 0-.032-.021l-.034-.007h-6.328v2.995Z"/>
  <path d="M18 13.6a4 4 0 1 1 0 8 4 4 0 0 1 0-8Zm-.059 2.117-.317.319 1.114 1.114h-2.914v.9h2.914l-1.114 1.113.317.319.319.318 1.883-1.883.318-.317-2.201-2.2-.319.318Z"/>
</g></svg>