<svg xmlns="http://www.w3.org/2000/svg" data-laicon-version="15.0" viewBox="0 0 20 20" fill="black"><g transform="translate(-2 -2)">
  <path d="M21.25 12c0-5.1-4.15-9.25-9.25-9.25S2.75 6.9 2.75 12 6.9 21.25 12 21.25h.06c5.07-.04 9.19-4.17 9.19-9.25Zm-2.3.24c-.59-.18-1-.38-1.23-.71-.21-.31-.21-.78.06-1.29s.72-.88 1.12-.98c.02 0 .05 0 .11-.01.05 0 .12-.01.19-.02.4 1.09.62 2.12.63 3.23-.2-.05-.4-.1-.57-.14l-.31-.08ZM11.49 7.8c-.41.18-.93.44-1.2.88-.36.58.07 1.13.33 1.46-.02 0-.03.02-.04.02-.58-.55-1.25-.35-1.59-.26-.36.1-1.03.28-1.3.94-.04.1-.1.31-.12.54-.43-.31-.79-.65-1.11-1.08-.41-.55-.8-1.16-1.16-1.81.16-.54.52-1.52 1.05-2.07.5-.52 1.17-.89 1.59-1.08.45.42 1.16.95 2.38.4.75-.34 1.03-.91 1.04-1.46.38.2.86.55 1.02.97.13.44-.11.73-.52 1.15-.25.26-.51.53-.53.91 0 .19.06.35.15.47l.01.02Zm-1.44-3.5v.04c-.03.1-.16.17-.27.22-.33.15-.51.15-.68.05.31-.12.63-.22.95-.3V4.3Zm-6 7.7c0-.84.14-1.66.38-2.42.31.53.64 1.04.98 1.5.89 1.2 2.09 1.86 3.16 2.43.03.02.07.03.1.04.37.13.74.35 1 .6.04.06.09.1.14.14.12.14.2.27.21.39.02.18.01.36 0 .55-.01.35-.03.75.1 1.16.13.42.39.72.6.96.13.15.25.28.31.42.16.33.24.73.25 1.2 0 .38 0 .68.02.95-4.06-.36-7.25-3.77-7.25-7.91V12Zm9.21 6.19s-.24.62-.35.93c0 0-.1.36-.15.75h-.15c-.02-.4-.03-.86-.03-.92 0-.65-.13-1.24-.37-1.74-.14-.29-.33-.52-.51-.71-.15-.18-.29-.33-.33-.48-.06-.21-.05-.45-.04-.74 0-.25.02-.5-.01-.75-.01-.11-.04-.22-.07-.32.02 0 .04-.02.05-.03.13-.06.34-.17.41-.18.53-.02 1.78-.09 1.78-.09.01 0 1.2-.05 1.39.67.05.17-.05.75-.16.98-.08.17-.22.32-.38.5s-.35.39-.5.65c-.28.48-.58 1.43-.59 1.49l.01-.01Zm.87 1.46c0-.05.01-.1.02-.11.1-.29.33-.88.34-.92.11-.34.33-.99.49-1.26.08-.14.21-.29.34-.44.2-.22.42-.47.58-.8.2-.42.44-1.47.22-1.96-.36-1.34-1.87-1.61-2.7-1.55 0 0-1.25.07-1.77.09-.33.01-.64.17-.93.31-.05.02-.11.05-.16.08-.13-.25-.33-.57-.82-.95-.21-.16-.41-.25-.58-.32-.2-.09-.26-.12-.3-.18 0-.09.02-.24.03-.29.03-.07.32-.16.45-.19l.1-.03c.17-.05.22-.04.26-.01.74.8 1.68.1 2.04-.17.19-.14.31-.34.34-.57.06-.42-.2-.75-.43-1.05a.6257.6257 0 0 1-.09-.12c.17-.11.42-.22.57-.29.41-.18.76-.33.89-.71.14-.39-.04-.71-.21-.91.42-.43 1.18-1.22.81-2.47-.1-.26-.25-.49-.41-.7 2.39.37 4.43 1.8 5.62 3.8-.08 0-.16.02-.21.03h-.03c-.85.21-1.57.89-1.97 1.65-.4.76-.56 1.78.02 2.63.5.74 1.32 1.04 1.92 1.22.1.03.55.15.94.25l.23.06c-.65 2.84-2.83 5.09-5.61 5.87l.01.01Z"/>
</g></svg>