<svg xmlns="http://www.w3.org/2000/svg" data-laicon-version="15.0" viewBox="0 0 20 20" fill="black"><g transform="translate(-2 -2)">
  <path d="M11.9998 2.7c-5.1 0-9.2 4.1-9.2 9.2s4.1 9.3 9.2 9.3 9.2-4.2 9.2-9.3c0-5-4.1-9.2-9.2-9.2Zm0 1.3c.7 0 1.4.1 2.1.3l-2.3 1.9c-.2.1-.2.3-.2.5s.1.4.3.5l.7.5V10c-.3 0-.5.1-.7.3l-.8 1.1c-.3-.1-.6-.1-.8.2l-.6.7c-.2.3-.2.7.1.9l.7.6-.1.1h-1l-1-2.2c-.1-.2-.3-.3-.5-.4-.2 0-.4 0-.6.2l-1 1h-2.3V12c0-4.4 3.6-8 8-8Zm-7.7 9.8h2.4c.2 0 .3-.1.5-.2l.5-.5.8 1.7c0 .2.3.4.5.4h1.6c.1 0 .3 0 .4-.1l.5-.4c.1-.1.2-.2.2-.4l.1-.6c0-.2 0-.4-.2-.6l-.2-.2c.2 0 .3-.1.5-.3l.8-1.2.3.1c.2.1.4.1.6-.1.2-.1.3-.3.3-.5V7.4c0-.2-.1-.4-.3-.5l-.3-.2 2.2-1.8c2.6 1.3 4.4 4 4.4 7.1 0 1.1-.2 2.1-.6 3l-.1-.3-.3-1c-.1-.2-.2-.4-.5-.5-.2-.1-.5 0-.6.2l-.3.3c-.1-.2-.2-.3-.4-.4l-.5-.2h-.6c-.1 0-.3 0-.4.1l-1 .7-1.1.5c-.1 0-.2.1-.2.1l-.6.6c-.1.1-.2.3-.2.5v.9c0 .2.1.4.2.5l1.2 1c.2.1.4.2.6.1l1-.3.5.6c.1.1.2.1.3.2-1.3.8-2.8 1.3-4.4 1.3-3.7 0-6.8-2.6-7.6-6.1Zm12.2 1.9c.2.1.5.1.7 0l.7-.4c.1 0 .1-.1.1-.1v.1l.4.8-.1.4-.3.4-.5.6-.5-.1-.6-.7c-.2-.2-.4-.3-.7-.2l-1 .3-.7-.6v-.3l.3-.3 1.1-.4c.1 0 .1-.1.2-.1l.8-.6v.6c-.2.2-.1.4.1.6Z"/>
</g></svg>