<svg xmlns="http://www.w3.org/2000/svg" data-laicon-version="18.11" viewBox="0 0 20 20" fill="black"><g transform="translate(-2 -2)">
  <path d="M9.52 7.43c-.13.25-.48.7-.83.92-.25.16-.51.21-.75.06-.54-.34-.1-.85-.1-.85l.89-.89s.26-.27.53-.16c.32.13.39.64.26.91ZM21.25 12c0 5.1-4.15 9.25-9.25 9.25S2.75 17.1 2.75 12 6.9 2.75 12 2.75c2.67 0 5.07 1.14 6.76 2.96l.01.01c.34.34.64.72.89 1.11.12.18.23.37.34.55.58 1 .97 2.13 1.14 3.32.03.15.04.25.04.29.04.33.06.66.06 1Zm-2.22.08c0-.13.04-.26.11-.37l.63-.94s.04-.05.05-.07c-.13-.63-.43-1.8-1.07-2.88-.04-.07-.08-.14-.13-.21-.03-.05-.07-.1-.1-.14-.11-.16-.22-.31-.34-.46-.1-.12-.2-.24-.31-.35l-.02-.02c-1.92-1.92-3.62-2.24-4.08-2.29-.68.31-1.45.8-1.56 1.09-.12.32-.08.68-.03 1.03.04.31.08.6 0 .89-.21.79-.68 1.08-.99 1.27-.19.11-.27.17-.33.29 0 .03-.06.3.04.51.08.16.24.28.5.37.13.04.19.03.46-.09.33-.15.84-.36 1.56-.15.32.1.48.31.56.47.08 0 .11-.02.11-.02.01-.01.05-.08.08-.12.11-.19.29-.51.71-.67l.9-.48c.25-.14.57-.09.77.12.2.21.24.52.1.77-.02.05 0 .14.08.23.08.1.47.16.78.12.32-.04.63.16.71.47.09.31-.07.64-.37.77-.11.05-.24.14-.31.21 0 .01.01.02.01.03.27.57.75 1.16.96 1.18.24.03.44.18.53.4 0-.27 0-.59-.01-.94Zm-4.75 2.08c.03-.13.06-.27.07-.41-.29.26-.85.63-1.57.15-.4-.27-.58-.54-.68-.71H12c-.3.02-.52 0-.69-.01q-.21-.02-.48.21c-.33.28-.45.48-.5.57.04.6.14 1.47.23 1.73.06.16.62.33 1 .45l.16.05c.79.25 1.11.48 1.2.55.12.1.21.24.23.4.13.75.35 1.56.46 1.73.07.1.16.22.2.25.02 0 .08.01.16.03.02 0 .04 0 .06.01-.19-.69-.06-1.18.38-1.41.2-.11.41-.13.57-.13-.02-.41-.11-.76-.11-.77-.09-.34.11-.7.45-.8.15-.04.32-.1.46-.16-.49-.12-1.16-.44-1.48-1.36-.04-.12-.05-.25-.02-.37Zm4.81 1.41h-.11c-.27 0-.51-.18-.6-.44l-.45-1.33c-.82-.37-1.38-1.43-1.54-1.75-.19-.29-.24-.63-.15-.94v-.02c-.19-.09-.37-.21-.52-.39-.1-.12-.18-.24-.24-.36l-.06.03s-.07.03-.1.04-.02.06-.04.1c-.14.25-.41.73-1.2.8-.61.05-1.01-.13-1.21-.56-.16-.02-.29.04-.5.13-.33.14-.78.34-1.4.13-.76-.26-1.1-.72-1.26-1.06-.35-.75-.08-1.49-.04-1.57.25-.52.59-.73.84-.88.24-.15.34-.21.42-.5 0-.05-.02-.25-.03-.39-.05-.43-.13-1.03.11-1.65.13-.34.41-.64.73-.91-4.26.15-7.68 3.64-7.68 7.94s3.57 7.95 7.95 7.95c.26 0 .52-.01.78-.04-.07-.08-.13-.16-.21-.26-.3-.4-.53-1.37-.65-1.98-.12-.06-.32-.14-.6-.23l-.15-.05c-.77-.24-1.56-.49-1.83-1.25-.2-.55-.3-1.94-.31-2.21v-.14c.02-.15.16-.71.96-1.39.58-.49.91-.56 1.43-.51.12.01.27.02.49 0 .74-.05 1.04.19 1.28.59.07.11.12.19.28.31l.1-.1c.23-.22.66-.64 1.31-.46.67.18.93.93.71 2.02.16.31.41.37.78.43.11.02.21.04.29.06.29.08.53.27.66.53.14.28.15.62.03.96-.15.41-.62.69-1.11.89.04.26.06.59.03.91-.03.34-.15.59-.36.76-.19.15-.4.2-.57.18.02.06.06.13.09.2 1.59-.76 2.88-2.03 3.67-3.59Z"/>
</g></svg>