<svg xmlns="http://www.w3.org/2000/svg" data-laicon-version="15.0" viewBox="0 0 20 20" fill="black"><g transform="translate(-2 -2)">
  <path d="M11.6475 3.437a.65.65 0 0 1 .65 0l9.2728 5.3538a.6504.6504 0 0 1 .3249.5629.6504.6504 0 0 1-.3249.5629l-9.2728 5.3537a.6504.6504 0 0 1-.65 0L2.3748 9.9166a.65.65 0 0 1 0-1.1258l9.2727-5.3536V3.437ZM3.9998 9.3539l7.9727 4.6031 7.9728-4.603-7.9728-4.6032-7.9727 4.603Z"/>
  <path d="m6.6999 15.9549 5.2728 3.0442 5.2728-3.0442v-4.6653h1.3v5.0405a.6501.6501 0 0 1-.325.563l-5.9228 3.4195a.6495.6495 0 0 1-.65 0l-5.9228-3.4195a.6502.6502 0 0 1-.325-.563v-5.0405h1.3v4.6653Zm13.8958-1.7956V9.3536h1.3v4.8057h-1.3Z"/>
</g></svg>