<svg xmlns="http://www.w3.org/2000/svg" data-laicon-version="18.12" viewBox="0 0 20 20" fill="black"><g transform="translate(-2 -2)">
  <path d="M12.056 2.441c.842 0 1.558.536 1.833 1.284.216-.1.452-.159.695-.173l.038-.001h.002c1.055 0 1.92.753 1.989 1.8h.002l.065.735a1.85 1.85 0 0 1 .663-.161l.034-.001h.002c1.012 0 1.844.72 1.92 1.722l.014.101c.276 2.498.468 4.396.542 5.338.11 1.394.123 3.588-1.205 5.654-1.544 2.397-4.234 2.855-6.073 2.855-1.941 0-3.987-.858-5.347-2.229l-.263-.281c-.904-1.027-2.396-2.884-3.276-3.98l-.001-.002-.001-.001-.005-.006-.019-.024-.066-.083-.21-.26a65.75 65.75 0 0 0-.385-.476v-.002c-.759-.922-.868-2.36.05-3.19l.003-.003c.38-.34.857-.52 1.368-.52.61 0 1.18.26 1.622.687l.694.6.703-6.67A1.955 1.955 0 0 1 9.392 3.35h.031c.309.014.6.092.86.224a1.964 1.964 0 0 1 1.773-1.133Zm0 1.301a.658.658 0 0 0-.655.64v.031L11.344 5.6l.001.004-.16 5.157a.65.65 0 0 1-1.299-.04l.16-5.158V5.34a.63.63 0 0 0-.163-.463.71.71 0 0 0-.5-.227.655.655 0 0 0-.646.641l-.833 7.91a.65.65 0 0 1-1.073.423l-1.634-1.417a.657.657 0 0 1-.035-.031c-.235-.235-.5-.338-.737-.338a.733.733 0 0 0-.5.186c-.266.242-.361.86.081 1.4l.397.49.21.262.067.083.019.023.004.006.001.002 1.623 2.008c.589.72 1.176 1.429 1.616 1.929l.215.228c1.11 1.117 2.82 1.84 4.42 1.84 1.7 0 3.802-.431 4.978-2.258l.192-.32c.782-1.394.89-2.85.842-4.014l-.031-.515c-.072-.918-.263-2.797-.54-5.297l-.009-.086a.675.675 0 0 1-.004-.045c-.015-.281-.234-.528-.611-.534a.573.573 0 0 0-.514.471l-.006.107.001.032v.47l.202 3.22a.65.65 0 0 1-1.296.08l-.203-3.232-.26-2.905-.001-.025c-.017-.312-.262-.583-.675-.591a.627.627 0 0 0-.578.643v.068l.16 5.158a.65.65 0 0 1-1.3.04l-.16-5.157.002-.013-.001-.007-.038-.82-.01-.239-.005-.067v-.023a.657.657 0 0 0-.656-.692Z"/>
</g></svg>