<svg xmlns="http://www.w3.org/2000/svg" data-laicon-version="15.0" viewBox="0 0 20 20" fill="black"><g transform="translate(-2 -2)">
  <path d="M11.9999 5.1236c-.9655 0-1.7482.7827-1.7482 1.7482h-1.3c0-1.6835 1.3647-3.0482 3.0482-3.0482s3.0482 1.3647 3.0482 3.0482c0 1.4604-1.027 2.6809-2.3982 2.9787v2.1121h-1.3V9.2699a.65.65 0 0 1 .65-.65c.9655 0 1.7482-.7826 1.7482-1.748 0-.9656-.7827-1.7483-1.7482-1.7483Z"/>
  <path d="M11.5834 11.4635a.65.65 0 0 1 .8328 0l9.0651 7.5638a.65.65 0 0 1-.4164 1.1491H2.9347a.65.65 0 0 1-.4164-1.1491l9.0651-7.5638Zm-6.8551 7.4129h14.543l-7.2715-6.0672-7.2715 6.0672Z"/>
</g></svg>