<svg xmlns="http://www.w3.org/2000/svg" data-laicon-version="15.0" viewBox="0 0 20 20" fill="black"><g transform="translate(-2 -2)">
  <path d="M12.8368 5.582c2.0434-2.0436 5.3566-2.0435 7.4 0 2.0435 2.0434 2.0435 5.3566-.0001 7.4l-1.2961 1.2962-6.9404 6.9404-6.9405-6.9403-1.2962-1.2962c-2.0434-2.0434-2.0434-5.3566 0-7.4 2.0435-2.0435 5.3566-2.0435 7.4001 0l.8366.8364.8366-.8366Zm6.4808.9192c-1.5358-1.5358-4.0258-1.5359-5.5616 0L12.0002 8.257l-1.7558-1.7557c-1.5358-1.5358-4.0259-1.5358-5.5616 0-1.5358 1.5357-1.5358 4.0258 0 5.5616l7.3174 7.3173 7.3173-7.3174c1.5358-1.5358 1.5358-4.0259.0001-5.5616Z"/>
</g></svg>