<svg xmlns="http://www.w3.org/2000/svg" data-laicon-version="15.0" viewBox="0 0 20 20" fill="black"><g transform="translate(-2 -2)">
  <path d="M4.2183 12c0-4.6425 3.7634-8.4059 8.4058-8.4059 4.6424 0 8.4059 3.7634 8.4059 8.4059 0 4.6424-3.7635 8.4058-8.4059 8.4058-2.3646 0-4.5022-.9772-6.0288-2.5482l.9323-.906c1.292 1.3295 3.0974 2.1542 5.0965 2.1542 3.9245 0 7.1059-3.1814 7.1059-7.1058 0-3.9245-3.1814-7.1059-7.1059-7.1059S5.5183 8.0755 5.5183 12c0 .3942.032.7805.0935 1.1564l-1.283.2098A8.4582 8.4582 0 0 1 4.2183 12Z"/>
  <path d="m7.9707 11.5438-3.0461 2.9344-2.9226-3.03.9357-.9025 2.0207 2.0949 2.1103-2.033.902.9362Zm5.3836.0728 2.5499 1.43-.6359 1.1339-3.214-1.8025V7.4017h1.3v4.2149Z"/>
</g></svg>