<svg xmlns="http://www.w3.org/2000/svg" data-laicon-version="15.0" viewBox="0 0 20 20" fill="black"><g transform="translate(-2 -2)">
  <path d="M18.8002 3.3v1.3h-13.6V3.3h13.6Zm0 16.2v1.3h-13.6v-1.3h13.6Z"/>
  <path d="M17.5002 20.1h-1.3v-1.9c0-2.5-1.6-3.3-2.7-4-.8-.4-1.3-1.3-1.3-2.2 0-.9.5-1.7 1.2-2.1 1.1-.6 2.8-1.5 2.8-4V4h1.3v1.9c0 3.2-2.2 4.5-3.4 5.1-.4.2-.6.6-.6 1s.2.8.5 1c1.2.7 3.4 1.9 3.5 5.1v2Zm-9.6001 0h-1.3v-1.9c0-3.2 2.2-4.5 3.4-5.1.4-.2.6-.6.6-1s-.2-.8-.5-1c-1.2-.7-3.5-1.9-3.5-5.2V4h1.3v1.9c0 2.5 1.6 3.4 2.7 4 .8.4 1.3 1.3 1.3 2.2 0 .9-.5 1.7-1.2 2.1-1.2.7-2.8 1.6-2.8 4v1.9Z"/>
</g></svg>