<svg xmlns="http://www.w3.org/2000/svg" data-laicon-version="15.0" viewBox="0 0 20 20" fill="black"><g transform="translate(-2 -2)">
  <path d="M14.0602 10.97c1.19-.66 3.39-1.88 3.39-5.12V4.6h1.35V3.3h-13.6v1.3h1.35v1.25c0 3.24 2.21 4.46 3.46 5.16.32.18.53.58.53 1.01 0 .43-.21.83-.6 1.04-1.18.66-3.39 1.89-3.39 5.12v1.31h-1.35v1.3001h13.6V19.49h-1.35v-1.32c0-3.22-2.21-4.45-3.46-5.14-.32-.18-.53-.58-.53-1.01 0-.43.21-.83.59-1.04l.01-.01Zm-6.21-6.37h8.3v1.25c0 .81-.19 1.44-.46 1.96h-7.38c-.27-.52-.46-1.15-.46-1.96V4.6Zm2.79 9.56c.28-.16.51-.4.71-.67v2.75c-.4.02-.8.05-1.2.12l-2.08.47c.47-1.47 1.67-2.16 2.58-2.66l-.01-.01Zm-2.79 5.33v-1.28l2.54-.57c1.03-.16 2.07-.16 3.05 0l2.72.62v1.24h-8.3l-.01-.01Zm8.11-2.62-2.28-.52c-.34-.05-.69-.09-1.03-.11v-2.77c.21.29.46.55.78.73.91.51 2.09 1.18 2.53 2.68v-.01Zm-2.6-7c-.72.4-1.19 1.24-1.19 2.14h-.33c0-.9-.47-1.73-1.26-2.17-.35-.19-.75-.43-1.14-.73h5.14c-.41.31-.83.56-1.2.76h-.02Z"/>
</g></svg>