<svg xmlns="http://www.w3.org/2000/svg" data-laicon-version="15.0" viewBox="0 0 20 20" fill="black"><g transform="translate(-2 -2)">
  <path d="M5.0786 7.5194c0-2.7998 2.2696-5.0694 5.0694-5.0694h3.7044a.65.65 0 0 1 .65.65c0 2.0818 1.6877 3.7693 3.7694 3.7693a.65.65 0 0 1 .65.65v9.7001a.65.65 0 0 1-.65.65H5.7286a.65.65 0 0 1-.65-.65v-9.7ZM10.148 3.75c-2.0818 0-3.7694 1.6875-3.7694 3.7694v9.05h11.2432V8.1281c-2.2799-.2919-4.0863-2.0982-4.3781-4.3781H10.148Z"/>
  <path d="M11.3501 21.9v-4.6806h1.3V21.9h-1.3Z"/>
</g></svg>