<svg xmlns="http://www.w3.org/2000/svg" data-laicon-version="15.0" viewBox="0 0 20 20" fill="black"><g transform="translate(-2 -2)">
  <path d="M17.2744 11.4461h-4.5879v-1.3h4.5879v1.3Zm0 2.7558h-4.5879v-1.3h4.5879v1.3Z"/>
  <path d="M4.2502 5.4304v13.1392h15.5V5.4304h-15.5Zm-1.3-.15c0-.6351.515-1.15 1.15-1.15h15.8c.6351 0 1.15.5149 1.15 1.15v13.4392c0 .6351-.5149 1.15-1.15 1.15h-15.8c-.635 0-1.15-.5149-1.15-1.15V5.2804Z"/>
  <path d="M10.9061 10.0851v4.1776H6.7295v-4.1776h4.1766Zm-1.3 1.3H8.0295v1.5776H9.606v-1.5776Z"/>
</g></svg>