<svg xmlns="http://www.w3.org/2000/svg" data-laicon-version="15.3" viewBox="0 0 20 20" fill="black"><g transform="translate(-2 -2)">
  <path d="m19.611 20.53 1.43 1.43.918-.92-19-19-.919.92 1.43 1.429c-.013.068-.02.139-.02.21V19.4c0 .635.515 1.15 1.15 1.15h14.8c.072 0 .143-.007.211-.02Zm-1.28-1.28H4.75V5.67l5.636 5.636-2.697 4.205h6.902l3.739 3.739ZM6.17 3.45l1.3 1.3h11.78v11.78l1.3 1.3V4.6a1.15 1.15 0 0 0-1.15-1.15H6.17Z"/>
  <path d="M14.057 9.527a1.077 1.077 0 0 1 2.155 0 1.076 1.076 0 0 1-2.155 0Z"/>
</g></svg>