<svg xmlns="http://www.w3.org/2000/svg" data-laicon-version="15.0" viewBox="0 0 20 20" fill="black"><g transform="translate(-2 -2)">
  <path d="M4.7507 4.75v14.5h14.499V4.75H4.7507Zm-1.3-.15c0-.6351.5149-1.15 1.15-1.15h14.799c.6351 0 1.15.5149 1.15 1.15v14.8c0 .6351-.5149 1.1499-1.15 1.1499H4.6007c-.6351 0-1.15-.5148-1.15-1.1499V4.6Z"/>
  <path d="M14.0571 9.5268c0-.5936.4824-1.0748 1.0775-1.0748s1.0775.4812 1.0775 1.0748c0 .5935-.4824 1.0748-1.0775 1.0748s-1.0775-.4812-1.0775-1.0748ZM7.69 15.511l3.8388-5.9841 3.8388 5.9841H7.6899Z"/>
</g></svg>