<svg xmlns="http://www.w3.org/2000/svg" data-laicon-version="15.0" viewBox="0 0 20 20" fill="black"><g transform="translate(-2 -2)">
  <path d="M4.6501 4.65v13.109h13.108V4.65H4.6501Zm-1.3-.193c0-.6091.4932-1.107 1.106-1.107h13.495c.611 0 1.107.496 1.107 1.107v13.496c0 .6128-.4979 1.106-1.107 1.106H4.4561c-.611 0-1.106-.495-1.106-1.106V4.457Z"/>
  <path d="M14.0998 14.2697h-6.651l3.325-5.184 3.326 5.184Zm-.9709-4.252c0 .514.418.931.934.931.515 0 .932-.417.932-.931s-.417-.932-.932-.932c-.516 0-.934.418-.934.932Z"/>
  <path d="M20.2807 20.2815V5.6025h1.3v14.867c0 .614-.498 1.112-1.112 1.112H5.7637v-1.3h14.517Z"/>
</g></svg>