<svg xmlns="http://www.w3.org/2000/svg" data-laicon-version="15.0" viewBox="0 0 20 20" fill="black"><g transform="translate(-2 -2)">
  <path d="M3.4502 8.6a.65.65 0 0 1 .65-.65h9.25v1.3h-8.6v10h10v-5.5h1.3v6.15a.65.65 0 0 1-.65.65h-11.3a.65.65 0 0 1-.65-.65V8.6Z"/>
  <path d="M14.3501 10a.85.85 0 0 1 .85-.85h1.9a.85.85 0 0 1 .85.85v1.9a.85.85 0 0 1-.85.85h-1.9a.85.85 0 0 1-.85-.85V10Zm1.3.45v1h1v-1h-1Zm.7-6.25a.85.85 0 0 1 .85-.85h2.6a.85.85 0 0 1 .85.85v2.6a.85.85 0 0 1-.85.85h-2.6a.85.85 0 0 1-.85-.85V4.2Zm1.3.45v1.7h1.7v-1.7h-1.7ZM9.4897 12.756l-2.29 3.579h4.5921l-2.302-3.579Zm2.1561-.643a.6429.6429 0 0 0-.6284.7697.6426.6426 0 0 0 .5056.5041.643.643 0 1 0 .1258-1.2738h-.003Z"/>
</g></svg>