<svg xmlns="http://www.w3.org/2000/svg" data-laicon-version="15.0" viewBox="0 0 20 20" fill="black"><g transform="translate(-2 -2)">
  <path d="M15.5519 8.5134c-.5769 0-1.0446.4678-1.0446 1.0447 0 .577.4677 1.0447 1.0446 1.0447s1.0446-.4677 1.0446-1.0447c0-.5769-.4677-1.0447-1.0446-1.0447ZM8.6929 10.2734l8.5795 8.5796a.6498.6498 0 0 1 0 .9192.6498.6498 0 0 1-.9192 0l-7.6603-7.6604-4.4334 4.4335a.65.65 0 1 1-.9192-.9192l5.3526-5.3527Z"/>
  <path d="M4.4499 5.3375v13.3251h15.1V5.3375h-15.1Zm-1.3-.15c0-.6353.515-1.15 1.15-1.15h15.4c.635 0 1.15.5147 1.15 1.15v13.6251c0 .6353-.515 1.15-1.15 1.15h-15.4c-.635 0-1.15-.5149-1.15-1.15V5.1875Z"/>
</g></svg>