<svg xmlns="http://www.w3.org/2000/svg" data-laicon-version="15.3" viewBox="0 0 20 20" fill="black"><g transform="translate(-2 -2)">
  <path d="M14.4 10.233a.933.933 0 1 1-1.867 0 .933.933 0 0 1 1.867 0Zm-3.734.267 3.266 5.133H7.4l3.267-5.133Z"/>
  <path d="M2.6 5c0-.911.739-1.65 1.65-1.65h3.293c.305 0 .597.121.813.337L9.519 4.85h8.231c.635 0 1.15.515 1.15 1.15v1.35h1.35c.635 0 1.15.515 1.15 1.15v10.25a1.9 1.9 0 0 1-1.9 1.9H4.75A2.15 2.15 0 0 1 2.6 18.5V5Zm17.5 13.75V8.65h-1.2v10.1a.6.6 0 1 0 1.2 0Zm-2.403.6a1.896 1.896 0 0 1-.097-.6V6.15H8.98l-1.5-1.5H4.25A.35.35 0 0 0 3.9 5v13.5c0 .47.38.85.85.85h12.947Z"/>
</g></svg>