<svg xmlns="http://www.w3.org/2000/svg" data-laicon-version="15.0" viewBox="0 0 20 20" fill="black"><g transform="translate(-2 -2)">
  <path d="M15.2445 7.9999c.5951 0 1.0775.4812 1.0775 1.0748 0 .5935-.4824 1.0748-1.0775 1.0748s-1.0775-.4812-1.0775-1.0748c0-.5936.4824-1.0748 1.0775-1.0748Zm-3.6059 1.0749 3.8388 5.9841H7.7998l3.8388-5.9841Z"/>
  <path d="M12 2.7504c5.1086 0 9.25 4.1413 9.25 9.25 0 5.1086-4.1414 9.25-9.25 9.25s-9.25-4.1414-9.25-9.25c0-5.1087 4.1414-9.25 9.25-9.25Zm-7.95 9.25c0 4.3906 3.5593 7.95 7.95 7.95 4.3907 0 7.95-3.5594 7.95-7.95 0-4.3907-3.5593-7.95-7.95-7.95-4.3907 0-7.95 3.5593-7.95 7.95Z"/>
</g></svg>