<svg xmlns="http://www.w3.org/2000/svg" data-laicon-version="16.1" viewBox="0 0 20 20" fill="black"><g transform="translate(-2 -2)">
  <path d="M14.73 10.481a.84.84 0 1 0 0-1.679.84.84 0 0 0 0 1.68Zm-2.809-.839-2.99 4.662h5.981l-2.99-4.662Z"/>
  <path d="M7.126 3.35a1.15 1.15 0 0 0-1.151 1.151V19.5a1.15 1.15 0 0 0 1.151 1.151h9.748a1.15 1.15 0 0 0 1.151-1.151v-15a1.15 1.15 0 0 0-1.151-1.151H7.126Zm.149 16V4.65h9.45v14.7h-9.45ZM2.35 6.26c0-.64.52-1.16 1.16-1.16H5v1.3H3.65v11.2H5v1.3H3.51c-.64 0-1.16-.52-1.16-1.16V6.26ZM19 5.1h1.49c.64 0 1.16.52 1.16 1.16v11.48c0 .64-.52 1.16-1.16 1.16H19v-1.3h1.35V6.4H19V5.1Z"/>
</g></svg>