<svg xmlns="http://www.w3.org/2000/svg" data-laicon-version="15.0" viewBox="0 0 20 20" fill="black"><g transform="translate(-2 -2)">
  <path d="M4 12.6571h5.04l.1865.3313c.7919 1.4072 2.0775 1.6687 2.7696 1.6687.8291.0001 2.1117-.4548 2.7646-1.6597l.1844-.3403H20v1.3h-4.3009c-.9716 1.4627-2.599 2.0001-3.703 2-.9173 0-2.5881-.3315-3.6996-2H4v-1.3Z"/>
  <path d="M5.5013 4.492a1.15 1.15 0 0 1 1.1052-.832h10.7872a1.15 1.15 0 0 1 1.1051.832l2.4213 8.4164V18.7c0 .9113-.7387 1.65-1.65 1.65h-14.54c-.9113 0-1.65-.7387-1.65-1.65v-5.7916l2.4212-8.4163Zm1.2181.468-2.3393 8.1316V18.7a.35.35 0 0 0 .35.35h14.54a.35.35 0 0 0 .35-.35v-5.6084L17.2807 4.96H6.7194Z"/>
</g></svg>