<svg xmlns="http://www.w3.org/2000/svg" data-laicon-version="18.12" viewBox="0 0 20 20" fill="black"><g transform="translate(-2 -2)">
  <path d="M6.17 5.2a1.962 1.962 0 0 1 2.596.586l1.568 2.278c.661-.716 1.684-.918 2.498-.529.354-.312.778-.5 1.23-.542.502-.046.999.092 1.423.384.299-.108.613-.157.935-.132.478.037.925.23 1.328.538.788.603 1.459 1.68 2.009 3.149.57 1.523.742 3.168.334 4.69-.412 1.537-1.402 2.905-3.063 3.864a7.33 7.33 0 0 1-7.53-.122L5.722 17.02a2.155 2.155 0 0 1 1.774-3.888l.719.223L5.4 7.785A1.962 1.962 0 0 1 6.17 5.2Zm1.525 1.324a.661.661 0 0 0-1.133.673l3.506 6.938a.65.65 0 0 1-.772.914l-2.184-.675a.854.854 0 0 0-.704 1.54l3.776 2.346a6.028 6.028 0 0 0 6.194.1c1.37-.791 2.137-1.88 2.457-3.075.324-1.209.201-2.572-.295-3.896-.517-1.38-1.079-2.188-1.582-2.572-.242-.185-.455-.262-.638-.276a1.044 1.044 0 0 0-.61.16.651.651 0 0 1-.794-.112c-.23-.239-.5-.324-.735-.303-.233.022-.496.153-.704.47a.651.651 0 0 1-.483.29.651.651 0 0 1-.526-.197c-.331-.342-1.201-.317-1.45.608a.652.652 0 0 1-1.163.201l-2.16-3.134ZM3.839 7.637a.65.65 0 0 1 .65 1.126l-.565.326a.65.65 0 1 1-.65-1.126l.565-.326ZM3.375 4.94l.63.17a.651.651 0 0 1-.336 1.256l-.63-.169a.651.651 0 0 1 .336-1.256Z"/>
  <path d="M10.03 4.062a.651.651 0 0 1 .65 1.127l-.564.326a.651.651 0 0 1-.65-1.127l.564-.326ZM4.7 2.64a.65.65 0 0 1 .888.24l.326.564a.651.651 0 0 1-1.126.65l-.326-.565a.651.651 0 0 1 .237-.888Zm3.453-.458a.65.65 0 0 1 .46.797l-.169.63a.651.651 0 0 1-1.256-.336l.169-.631a.651.651 0 0 1 .796-.46Z"/>
</g></svg>