<svg xmlns="http://www.w3.org/2000/svg" data-laicon-version="18.12" viewBox="0 0 20 20" fill="black"><g transform="translate(-2 -2)">
  <path d="M6.17 5.2a1.962 1.962 0 0 1 2.596.586l1.568 2.278c.662-.716 1.684-.918 2.498-.529a2.15 2.15 0 0 1 1.23-.542c.502-.046 1 .092 1.423.384.299-.108.613-.157.935-.132.478.037.925.23 1.328.538.788.603 1.46 1.68 2.01 3.149.57 1.523.74 3.168.333 4.69-.412 1.536-1.402 2.905-3.063 3.864a7.328 7.328 0 0 1-7.53-.122l-3.775-2.346a2.153 2.153 0 0 1 1.774-3.887l.72.223L5.4 7.784a1.962 1.962 0 0 1 .77-2.583Zm.65 1.127a.66.66 0 0 0-.258.87l3.507 6.938a.65.65 0 0 1-.773.914l-2.184-.675a.854.854 0 0 0-.703 1.54l3.775 2.346a6.027 6.027 0 0 0 6.194.1c1.37-.791 2.137-1.88 2.457-3.075.324-1.21.202-2.572-.294-3.896-.517-1.38-1.08-2.188-1.582-2.573-.243-.185-.456-.26-.64-.274a1.043 1.043 0 0 0-.61.16.651.651 0 0 1-.793-.113c-.23-.238-.5-.324-.735-.302-.233.02-.495.152-.704.468a.65.65 0 0 1-1.01.093c-.33-.342-1.2-.316-1.449.61a.651.651 0 0 1-1.164.2L7.695 6.524a.66.66 0 0 0-.874-.197Z"/>
</g></svg>