<svg xmlns="http://www.w3.org/2000/svg" data-laicon-version="15.0" viewBox="0 0 20 20" fill="black"><g transform="translate(-2 -2)">
  <path d="M11.902 6.7316c-.603 0-1.0919.4888-1.0919 1.0919 0 .603.4889 1.092 1.0919 1.092.603 0 1.0919-.489 1.0919-1.092 0-.603-.4888-1.092-1.0919-1.092ZM13.212 16.5441h-2.4303v-1.3h2.4303v1.3Z"/>
  <path d="M11.3497 11.27h-.63v-1.3h1.23a.7.7 0 0 1 .7.7V16h-1.3v-4.73Z"/>
  <path d="M4.7502 4.75v14.5h14.5V4.75h-14.5Zm-1.3-.15c0-.6352.5148-1.15 1.15-1.15h14.8c.6352 0 1.15.5148 1.15 1.15v14.8c0 .6351-.5149 1.15-1.15 1.15h-14.8c-.6352 0-1.15-.5148-1.15-1.15V4.6Z"/>
</g></svg>