<svg xmlns="http://www.w3.org/2000/svg" data-laicon-version="15.0" viewBox="0 0 20 20" fill="black"><g transform="translate(-2 -2)">
  <path d="M12 4.0499c-4.3907 0-7.95 3.5593-7.95 7.95 0 4.3907 3.5593 7.95 7.95 7.95 4.3907 0 7.95-3.5593 7.95-7.95 0-4.3907-3.5593-7.95-7.95-7.95Zm-9.25 7.95c0-5.1086 4.1414-9.25 9.25-9.25s9.25 4.1414 9.25 9.25-4.1414 9.25-9.25 9.25-9.25-4.1414-9.25-9.25Z"/>
  <path d="M12 7.2593a.8838.8838 0 1 0 0 1.7676.8838.8838 0 0 0 0-1.7676ZM11.3501 16.7404v-5.9797h1.3v5.9797h-1.3Z"/>
</g></svg>