<svg xmlns="http://www.w3.org/2000/svg" data-laicon-version="15.0" viewBox="0 0 20 20" fill="black"><g transform="translate(-2 -2)">
  <path d="M5.8887 11.3348V8.417h1.3v2.9178h-1.3Zm2.243 0V8.417h1.3v2.9178h-1.3Zm2.2433 0V8.417h1.3v2.9178h-1.3Zm2.2427 0V8.417h1.3v2.9178h-1.3Zm3.0815 3.2951a.65.65 0 0 1 .65-.65h4.4506v1.3h-3.8006v3.8005h-1.3v-4.4505Z"/>
  <path d="M2.5498 5.4252c0-.6384.5177-1.1557 1.1558-1.1557h16.5885c.6383 0 1.1558.5174 1.1558 1.1557v9.2046a.65.65 0 0 1-.1904.4596L16.8089 19.54a.6495.6495 0 0 1-.4722.1903H3.7056c-.6383 0-1.1558-.5173-1.1558-1.1557V5.4252Zm13.5304 13.0051 4.0697-4.0697v-8.791H3.8498v12.8607h12.2304Z"/>
</g></svg>