<svg xmlns="http://www.w3.org/2000/svg" data-laicon-version="15.0" viewBox="0 0 20 20" fill="black"><g transform="translate(-2 -2)">
  <path d="M4.1592 5.694a.597.597 0 0 0-.597.597v11.4219a.597.597 0 0 0 .597.597h15.706a.597.597 0 0 0 .597-.597V6.2909a.597.597 0 0 0-.597-.597H4.1592Zm-1.897.597c0-1.0478.8493-1.897 1.897-1.897h15.706c1.0477 0 1.897.8492 1.897 1.897v11.4219c0 1.0477-.8493 1.897-1.897 1.897H4.1592c-1.0477 0-1.897-.8493-1.897-1.897V6.2909Z"/>
  <path d="M6.7139 14.7344c-.462 0-.8377-.1213-1.127-.364-.2847-.2427-.4783-.5647-.581-.966-.0187-.07.007-.1167.077-.14l.959-.259c.07-.0187.1167.007.14.077.042.1167.1027.21.182.28.084.07.1913.105.322.105.2147 0 .3617-.0747.441-.224.0793-.1493.119-.3407.119-.574v-1.946h-1.288c-.0747 0-.112-.035-.112-.105v-1.008c0-.0747.0373-.112.112-.112h2.485c.0747 0 .112.0373.112.112v3.15c0 .4713-.077.8517-.231 1.141-.1493.2893-.3617.5017-.637.637-.2753.1307-.5997.196-.973.196Zm2.7721-.098c-.0746 0-.112-.0373-.112-.112v-4.914c0-.0747.0374-.112.112-.112h1.7151c.7093 0 1.246.1587 1.61.476.364.3173.546.7863.546 1.407 0 .616-.182 1.085-.546 1.407-.364.3173-.9007.476-1.61.476h-.539v1.26c0 .0747-.0374.112-.112.112h-1.064Zm1.6801-4.046h-.504v1.582h.504c.266 0 .476-.0607.63-.182.154-.1213.231-.329.231-.623 0-.28-.077-.4783-.231-.595-.154-.1213-.364-.182-.63-.182Zm5.2078 4.144c-.518 0-.973-.112-1.365-.336-.3873-.224-.6907-.5343-.91-.931-.2147-.4013-.322-.868-.322-1.4 0-.3967.0653-.7583.196-1.085s.3127-.6067.546-.84c.238-.238.5157-.42.833-.546.322-.1307.6697-.196 1.043-.196.56 0 1.036.1213 1.428.364.3967.2427.6813.588.854 1.036.0327.0793.0093.126-.07.14l-1.071.294c-.0607.014-.1073-.007-.14-.063a1.0406 1.0406 0 0 0-.413-.378c-.1727-.0887-.3617-.133-.567-.133-.392 0-.7047.126-.938.378-.2333.2473-.35.5927-.35 1.036s.119.7887.357 1.036c.238.2473.5483.371.931.371.2987 0 .5483-.0653.749-.196s.3197-.322.357-.574h-.987c-.0747 0-.112-.0373-.112-.112v-.749c0-.0747.0373-.112.112-.112h2.191c.0747 0 .112.0373.112.112v.602c0 .4293-.0957.8167-.287 1.162-.1867.3453-.4643.6183-.833.819-.364.2007-.812.301-1.344.301Z"/>
</g></svg>