<svg xmlns="http://www.w3.org/2000/svg" data-laicon-version="17.1" viewBox="0 0 20 20" fill="black"><g transform="translate(-2 -2)">
  <path d="M7.5 8.75a1 1 0 1 0 0-2 1 1 0 0 0 0 2Z"/>
  <path d="M3.1 7.75a4.4 4.4 0 1 1 6.7 3.752v1.616a.65.65 0 0 1-.19.46l-.494.493.494.494a.65.65 0 0 1 .19.46v.593a.65.65 0 0 1-.19.46l-.494.493.494.494a.65.65 0 0 1 .19.46v1.504c0 .324-.137.633-.376.85l-1.15 1.046a1.15 1.15 0 0 1-1.548 0l-1.15-1.045a1.15 1.15 0 0 1-.376-.851v-7.527A4.397 4.397 0 0 1 3.1 7.75Zm4.4-3.1a3.1 3.1 0 0 0-1.364 5.885.65.65 0 0 1 .364.583v7.844l1 .91 1-.91v-1.168l-.586-.586a.9.9 0 0 1 0-1.273l.586-.587v-.054l-.586-.586a.9.9 0 0 1 0-1.273l.586-.587v-1.73a.65.65 0 0 1 .364-.583A3.1 3.1 0 0 0 7.5 4.65Zm6.222 3.7c-.62 0-1.122.502-1.122 1.122v2.056c0 .62.502 1.122 1.122 1.122h6.056c.62 0 1.122-.502 1.122-1.122V9.472c0-.62-.502-1.122-1.122-1.122h-6.056Zm.178 3v-1.7h5.7v1.7h-5.7Zm-.178 2c-.62 0-1.122.502-1.122 1.122v2.056c0 .62.502 1.122 1.122 1.122h6.056c.62 0 1.122-.502 1.122-1.122v-2.056c0-.62-.502-1.122-1.122-1.122h-6.056Zm.178 3v-1.7h5.7v1.7h-5.7Z"/>
</g></svg>