<svg xmlns="http://www.w3.org/2000/svg" data-laicon-version="15.0" viewBox="0 0 20 20" fill="black"><g transform="translate(-2 -2)">
  <path d="M15.219 7.577c-.5777 0-1.046.4683-1.046 1.046 0 .5777.4683 1.046 1.046 1.046.5777 0 1.046-.4683 1.046-1.046 0-.5777-.4683-1.046-1.046-1.046Zm-2.346 1.046c0-1.2957 1.0503-2.346 2.346-2.346 1.2956 0 2.346 1.0503 2.346 2.346 0 1.2956-1.0504 2.346-2.346 2.346-1.2957 0-2.346-1.0504-2.346-2.346Z"/>
  <path d="M9.3601 8.623c0-3.236 2.623-5.859 5.859-5.859 3.2222 0 5.8366 2.6007 5.8589 5.8176a.6445.6445 0 0 1 .0008.0607.7206.7206 0 0 1 .0003.0207c0 3.23-2.618 5.8481-5.848 5.8481-.2922 0-.785-.0749-1.1493-.138L13 15.5358a.6499.6499 0 0 1-.4759.2073h-1.722v1.637c0 .6388-.5178 1.154-1.154 1.154h-1.483v1.309c0 .6531-.5436 1.1742-1.1935 1.15H3.7071a.65.65 0 0 1-.65-.65v-4.025a.6502.6502 0 0 1 .1904-.4597l6.214-6.2139c-.062-.3243-.1014-.6648-.1014-1.0215Zm10.418-.0165c-.0089-2.5104-2.0465-4.5425-4.559-4.5425-2.518 0-4.559 2.041-4.559 4.559 0 .3597.0548.714.1434 1.0754a.6504.6504 0 0 1-.1717.6143l-6.2747 6.2746v3.1058h2.508v-1.308c0-.636.515-1.151 1.151-1.151h1.486v-1.637c0-.637.517-1.154 1.154-1.154h1.585l1.1312-1.2158a.6496.6496 0 0 1 .5971-.1958c.3398.0645 1.0031.1796 1.2617.1796 2.5024 0 4.5324-2.0205 4.5479-4.5192a.6566.6566 0 0 1-.0009-.0854Z"/>
</g></svg>