<svg xmlns="http://www.w3.org/2000/svg" data-laicon-version="15.0" viewBox="0 0 20 20" fill="black"><g transform="translate(-2 -2)">
  <path d="M18.2816 15.153h-1.2474v-1.3h1.2474v1.3Zm-11.3028.0042H5.6982v-1.3h1.2806v1.3Zm9.0775-.0042H7.9346v-1.3h8.1217v1.3Zm-9.2257-2.5606v-1.2473h1.3v1.2473h-1.3Zm2.2573 0v-1.2473h1.3v1.2473h-1.3Zm2.2578 0v-1.2473h1.3v1.2473h-1.3Zm2.2573 0v-1.2473h1.3v1.2473h-1.3Zm2.2574 0v-1.2473h1.3v1.2473h-1.3ZM5.7021 10.2479V9.0005h1.3v1.2474h-1.3Zm2.2574 0V9.0005h1.3v1.2474h-1.3Zm2.2573 0V9.0005h1.3v1.2474h-1.3Zm2.2573 0V9.0005h1.3v1.2474h-1.3Zm2.2573 0V9.0005h1.3v1.2474h-1.3Zm2.2574 0V9.0005h1.3v1.2474h-1.3Z"/>
  <path d="M4.1545 7.866c.0245-.1219.073-.199.1195-.241.0399-.036.1304-.0955.3493-.0802a.6526.6526 0 0 0 .0454.0016h14.6626c.2532 0 .3679.0498.4132.0823.021.0152.0751.057.101.2259v8.3382c0 .015-.0061.0679-.0927.1359-.0875.0688-.2344.1291-.4215.1291H4.6687c-.1872 0-.334-.0603-.4216-.1291-.0865-.068-.0926-.1208-.0926-.1359V7.866Zm.535-1.6196c-.5077-.0301-.9527.1121-1.2867.4137-.3276.2958-.4876.6899-.5415 1.057a.6503.6503 0 0 0-.0068.0943v8.3814c0 1.0015.9668 1.565 1.8142 1.565h14.6626c.8474 0 1.8142-.5636 1.8142-1.565V7.8114a.6566.6566 0 0 0-.0046-.0768c-.0566-.4761-.2575-.8875-.6364-1.1606-.3561-.2565-.7834-.3276-1.1732-.3276H4.6895Z"/>
</g></svg>