<svg xmlns="http://www.w3.org/2000/svg" data-laicon-version="15.0" viewBox="0 0 20 20" fill="black"><g transform="translate(-2 -2)">
  <path d="M6.0297 4.93c-.6075 0-1.1.4924-1.1 1.1 0 .6074.4925 1.1 1.1 1.1.6075 0 1.1-.4926 1.1-1.1 0-.6076-.4925-1.1-1.1-1.1Zm5.9702 0c-.6075 0-1.1.4924-1.1 1.1 0 .6074.4925 1.1 1.1 1.1.6075 0 1.1-.4926 1.1-1.1 0-.6076-.4925-1.1-1.1-1.1Zm0 5.97c-.6075 0-1.1.4925-1.1 1.1 0 .6075.4925 1.1 1.1 1.1.6075 0 1.1-.4925 1.1-1.1 0-.6075-.4925-1.1-1.1-1.1Zm-1.1 7.0701c0-.6075.4925-1.1 1.1-1.1.6075 0 1.1.4925 1.1 1.1 0 .6075-.4925 1.1-1.1 1.1-.6075 0-1.1-.4925-1.1-1.1ZM17.9701 4.93c-.6075 0-1.1.4924-1.1 1.1 0 .6074.4925 1.1 1.1 1.1.6075 0 1.1-.4926 1.1-1.1 0-.6076-.4924-1.1-1.1-1.1Zm-1.1 7.07c0-.6075.4925-1.1 1.1-1.1.6076 0 1.1.4925 1.1 1.1 0 .6075-.4925 1.1-1.1 1.1-.6075 0-1.1-.4925-1.1-1.1ZM4.9297 12c0-.6075.4925-1.1 1.1-1.1.6075 0 1.1.4925 1.1 1.1 0 .6075-.4925 1.1-1.1 1.1-.6075 0-1.1-.4925-1.1-1.1Z"/>
</g></svg>