<svg xmlns="http://www.w3.org/2000/svg" data-laicon-version="15.0" viewBox="0 0 20 20" fill="black"><g transform="translate(-2 -2)">
  <path d="M21.1067 20.6601 17.9039 5.1345l-.0003-.0013c-.1555-.7459-.8119-1.2834-1.5763-1.2834l-.0181.0002H7.706a1.65 1.65 0 0 0-1.6166 1.3165v.0001L2.8926 20.6601H4.22l.9626-4.6654h7.327l-.9627 4.6654h1.3274l3.1496-15.2629a.3102.3102 0 0 1 .2955-.2473h.0079a.311.311 0 0 1 .3036.2481l.0001.0005 3.1484 15.2616h1.3273ZM7.706 5.15h7.0415l-.8507 4.1222H6.5696l.793-3.8428a.35.35 0 0 1 .3434-.2795Zm-1.4046 5.4223h7.3272l-.8507 4.1224h-7.327l.8505-4.1224Z"/>
</g></svg>