<svg xmlns="http://www.w3.org/2000/svg" data-laicon-version="15.0" viewBox="0 0 20 20" fill="black"><g transform="translate(-2 -2)">
  <path d="m6.5138 11.5682 8-9 .9717.8637-7.0384 7.9182h8.5525a.65.65 0 0 1 .4859 1.0818l-8 9-.9717-.8637 7.0384-7.9181H6.9996a.65.65 0 0 1-.4858-1.0819ZM15.5885 21.6h.868c.049 0 .084-.021.105-.07l.364-.959h2.135l.364.959c.021.049.056.07.105.07h.882c.063 0 .098-.042.07-.105l-2.051-4.963c-.021-.049-.056-.07-.105-.07h-.651c-.049 0-.084.021-.105.07l-2.051 4.963c-.028.063.007.105.07.105Zm1.666-1.904.735-1.946.735 1.946h-1.47Z"/>
</g></svg>