<svg xmlns="http://www.w3.org/2000/svg" data-laicon-version="15.0" viewBox="0 0 20 20" fill="black"><g transform="translate(-2 -2)">
  <path d="M11.9282 4.399c-2.0756-2.0756-5.4409-2.0756-7.5165 0-2.0756 2.0756-2.0756 5.441 0 7.5166l2.3617 2.3617a5.354 5.354 0 0 0 .5128.4515 6.3496 6.3496 0 0 1-.0988-1.876L5.331 10.9963c-1.568-1.568-1.568-4.11 0-5.678 1.568-1.568 4.1102-1.568 5.6781 0L13.3707 7.68c1.568 1.568 1.568 4.1101 0 5.6781-.7528.7527-1.7301 1.1441-2.7164 1.1741.1467.3865.3757.749.687 1.0603l.154.1539c1.0237-.1877 2.003-.6774 2.7946-1.4691 2.0757-2.0756 2.0757-5.441 0-7.5166L11.9282 4.399Z"/>
  <path d="M12.5097 8.2332c-1.0238.1877-2.0031.6774-2.7948 1.4691-2.0756 2.0757-2.0756 5.4409 0 7.5166l2.3618 2.3617c2.0756 2.0756 5.4409 2.0756 7.5165 0 2.0757-2.0756 2.0757-5.4409 0-7.5165l-2.3617-2.3618a5.3663 5.3663 0 0 0-.5127-.4515 6.351 6.351 0 0 1 .0988 1.8761l1.8564 1.8564c1.568 1.568 1.568 4.1101 0 5.6781-1.5679 1.5679-4.1101 1.5679-5.6781 0l-2.3617-2.3618c-1.568-1.5679-1.568-4.1101 0-5.678.7528-.7529 1.7302-1.1442 2.7164-1.1742a3.0033 3.0033 0 0 0-.687-1.0603l-.1539-.154Z"/>
</g></svg>