<svg xmlns="http://www.w3.org/2000/svg" data-laicon-version="15.0" viewBox="0 0 20 20" fill="black"><g transform="translate(-2 -2)">
  <path d="M2 12c0-.2 0-.3.1-.5.045-.0562.1266-.1692.24-.3263C3.2355 9.9329 6.1147 5.9438 8.6 5.5c1.262-.1941 1.9585.2714 2.5471.6647L11.2 6.2c.7.5.9.5 1.5 0 .0546-.0364.11-.0744.1667-.1133.5657-.3884 1.2516-.8594 2.4333-.5867 2.8.5 6.2 5.5 6.5 6.1.1.1.1.3.1.5.1 0-1.4 6.4-9.9 6.4S2 12.1 2 12Zm1.5729.6c.6146 1.5063 2.6903 4.7 8.4271 4.7 5.8251 0 7.8333-3.1937 8.4308-4.7H3.5728Zm16.489-1.3C18.8314 9.574 16.6374 7.0563 15.1 6.8c-.6336-.0905-1.0214.1467-1.46.415-.046.0281-.0926.0566-.14.085-.0544.0408-.1088.0835-.164.1267C12.9856 7.7014 12.6048 8 12 8c-.7 0-1.1-.3-1.5-.6-.5-.4-.9-.7-1.7-.6-1.5374.2563-3.6584 2.774-4.8676 4.5h16.1295Z"/>
</g></svg>