<svg xmlns="http://www.w3.org/2000/svg" data-laicon-version="15.0" viewBox="0 0 20 20" fill="black"><g transform="translate(-2 -2)">
  <path d="M8.8005 7.6197c-.45 0-.82.37-.82.82 0 .45.37.82.82.82.45 0 .82-.37.82-.82 0-.45-.37-.82-.82-.82Zm7.1097.1701h-4.98v1.3h4.98v-1.3Zm-4.98 3.5601h4.98v1.3h-4.98v-1.3Zm-2.1297-.1701c-.45 0-.82.37-.82.82 0 .45.37.82.82.82.45 0 .82-.37.82-.82 0-.45-.37-.82-.82-.82Zm2.1297 3.73h4.98v1.3h-4.98v-1.3Zm-2.1297-.1701c-.45 0-.82.37-.82.82 0 .45.37.82.82.82.45 0 .82-.37.82-.82 0-.45-.37-.82-.82-.82Z"/>
  <path d="M16.9303 3.4498c1.89.23 3.38 1.72 3.62 3.62.2 1.6.3 3.26.3 4.93s-.1 3.33-.3 4.93a4.142 4.142 0 0 1-3.62 3.62c-1.59.2-3.25.3-4.93.3-1.68 0-3.34-.1-4.93-.3-1.89-.23-3.38-1.72-3.62-3.62-.2-1.6-.3-3.26-.3-4.93s.1-3.33.3-4.93c.23-1.9 1.72-3.39 3.62-3.62 3.18-.4 6.68-.4 9.86 0Zm-.16 15.81c1.3-.16 2.33-1.18 2.49-2.49.19-1.55.29-3.15.29-4.77 0-1.62-.1-3.22-.29-4.77-.16-1.31-1.18-2.33-2.49-2.49-1.54-.19-3.14-.29-4.77-.29-1.63 0-3.23.1-4.77.29-1.3.16-2.33 1.18-2.49 2.49-.19 1.55-.29 3.15-.29 4.77 0 1.62.1 3.22.29 4.77.16 1.31 1.18 2.33 2.49 2.49 3.08.38 6.46.38 9.54 0Z"/>
</g></svg>