<svg xmlns="http://www.w3.org/2000/svg" data-laicon-version="15.0" viewBox="0 0 20 20" fill="black"><g transform="translate(-2 -2)">
  <path d="M5.5001 9.6617a.35.35 0 0 0-.35.35v9.7177a.3502.3502 0 0 0 .35.35h13a.3503.3503 0 0 0 .35-.35v-9.7177a.3501.3501 0 0 0-.35-.35h-13Zm-1.65.35c0-.9113.7387-1.65 1.65-1.65h13c.9113 0 1.65.7387 1.65 1.65v9.7177c0 .9113-.7387 1.65-1.65 1.65h-13c-.9113 0-1.65-.7387-1.65-1.65v-9.7177Z"/>
  <path d="M7.5571 7.0473c0-2.4286 1.969-4.3973 4.3974-4.3973 2.4286 0 4.3974 1.9687 4.3974 4.3973v1.9644h-1.3V7.0473c0-1.7106-1.3868-3.0973-3.0974-3.0973S8.8571 5.3367 8.8571 7.0473v1.9644h-1.3V7.0473ZM12 14.3692a.5292.5292 0 0 1-.5288-.5288.5291.5291 0 0 1 .5288-.5283.5292.5292 0 0 1 .5288.5283.5296.5296 0 0 1-.5288.5288Z"/>
  <path d="M11.9998 12.662c.6509 0 1.1785.5276 1.1785 1.1785 0 .6509-.5276 1.1785-1.1785 1.1785-.6509 0-1.1785-.5276-1.1785-1.1785 0-.6509.5276-1.1785 1.1785-1.1785Z"/>
  <path d="M11.3501 17.035v-2.4502h1.3v2.4502h-1.3Z"/>
</g></svg>