<svg xmlns="http://www.w3.org/2000/svg" data-laicon-version="15.0" viewBox="0 0 20 20" fill="black"><g transform="translate(-2 -2)">
  <path d="M14.5302 10.37c0 1.4-1.13 2.53-2.53 2.53s-2.53-1.13-2.53-2.53 1.13-2.53 2.53-2.53 2.53 1.13 2.53 2.53Zm-1.3 0a1.23 1.23 0 1 0-2.4602-.0002 1.23 1.23 0 0 0 2.4602.0002Z"/>
  <path d="M12 2.39c2.26 0 4.53.95 6.13 2.86 2.77 3.3 2.35 8.18-.65 11.19a287.5124 287.5124 0 0 0-4.578 4.747l-.182.193a.9847.9847 0 0 1-1.43 0c-.72-.76-2.9-3.06-4.77-4.94-3-3.01-3.42-7.9-.65-11.19A7.962 7.962 0 0 1 12 2.39Zm0 17.85c.88-.93 2.84-2.99 4.56-4.72h-.02c2.56-2.57 2.88-6.7.58-9.43a6.6832 6.6832 0 0 0-10.26 0c-2.3 2.73-1.98 6.86.58 9.43 1.72 1.73 3.68 3.79 4.56 4.72Z"/>
</g></svg>