<svg xmlns="http://www.w3.org/2000/svg" data-laicon-version="15.3" viewBox="0 0 20 20" fill="black"><g transform="translate(-2 -2)">
  <path d="M15.46 9a.3.3 0 0 0-.3.3v3H14a.2.2 0 0 0-.15.331l2.16 2.495a.2.2 0 0 0 .302 0l2.16-2.495a.2.2 0 0 0-.151-.331h-1.16v-3a.3.3 0 0 0-.3-.3h-1.4Zm-9.432 6h1.176c.08 0 .128-.048.128-.128v-3.28l1.352 2.2c.032.064.08.088.144.088h.744a.146.146 0 0 0 .144-.088l1.352-2.256v3.336c0 .08.048.128.128.128h1.176c.08 0 .128-.048.128-.128V9.256c0-.08-.048-.128-.128-.128H11.1a.16.16 0 0 0-.144.088l-1.72 2.944-1.768-2.944a.146.146 0 0 0-.144-.088H6.028c-.08 0-.128.048-.128.128v5.616c0 .08.048.128.128.128Z"/>
  <path d="M4.5 4.85A1.65 1.65 0 0 0 2.85 6.5v11c0 .911.739 1.65 1.65 1.65h15a1.65 1.65 0 0 0 1.65-1.65v-11a1.65 1.65 0 0 0-1.65-1.65h-15ZM4.15 6.5a.35.35 0 0 1 .35-.35h15a.35.35 0 0 1 .35.35v11a.35.35 0 0 1-.35.35h-15a.35.35 0 0 1-.35-.35v-11Z"/>
</g></svg>