<svg xmlns="http://www.w3.org/2000/svg" data-laicon-version="15.0" viewBox="0 0 20 20" fill="black"><g transform="translate(-2 -2)">
  <path d="M15.1182 14.2766H8.8818v-1.3h6.2364v1.3Z"/>
  <path d="M11.3501 16.7448v-6.2364h1.3v6.2364h-1.3Z"/>
  <path d="M4.5749 7.9355v11.3821h14.85V7.9355h-14.85Zm-1.3-.15c0-.635.515-1.15 1.15-1.15h15.15c.6351 0 1.15.515 1.15 1.15v11.6821c0 .6353-.515 1.15-1.15 1.15h-15.15c-.635 0-1.15-.5147-1.15-1.15V7.7855Z"/>
  <path d="M9.7365 4.6825v2.603h-1.3v-2.753c0-.6352.5148-1.15 1.15-1.15h4.827c.6352 0 1.15.5148 1.15 1.15v2.753h-1.3v-2.603h-4.527Z"/>
</g></svg>