<svg xmlns="http://www.w3.org/2000/svg" data-laicon-version="15.0" viewBox="0 0 20 20" fill="black"><g transform="translate(-2 -2)">
  <path d="M19.928 2.8425a.65.65 0 0 1 .343.5729v17.17a.6499.6499 0 0 1-1.01.5412l-6.0805-4.0452h-1.9822l.3631 3.4357a.6502.6502 0 0 1-.6464.7183H7.889a.65.65 0 0 1-.6464-.5817l-.3775-3.5723H4.859c-.6231 0-1.13-.5051-1.13-1.129v-7.905c0-.6239.5069-1.129 1.13-1.129h8.3216l6.0804-4.0442a.65.65 0 0 1 .667-.0317Zm-.957 1.7859-5.234 3.4812a.6502.6502 0 0 1-.36.1088H5.029v7.563H7.45a.65.65 0 0 1 .6464.5817l.3775 3.5723h1.7188l-.3631-3.4357a.65.65 0 0 1 .6464-.7183h2.901a.6502.6502 0 0 1 .36.1088l5.234 3.4821V4.6283Z"/>
</g></svg>