<svg xmlns="http://www.w3.org/2000/svg" data-laicon-version="15.0" viewBox="0 0 20 20" fill="black"><g transform="translate(-2 -2)">
  <path d="M10.19 10.65a3.15 3.15 0 1 0 .0002 6.3 3.15 3.15 0 0 0-.0002-6.3ZM8.34 13.8c0-1.02.83-1.85 1.85-1.85s1.85.83 1.85 1.85-.83 1.85-1.85 1.85-1.85-.83-1.85-1.85Z"/>
  <path d="M20.5701 4.3c.14-.25.09-.56-.11-.76l-.01-.01c-.2-.2-.51-.25-.76-.12l-4.57 2.38.22-.77c.07-.23 0-.48-.18-.65a.6437.6437 0 0 0-.66-.14l-1.14.41c-.69.26-1.64.62-2.64 1.04-1 .42-2.07.9-3.01 1.4-.92.48-1.78 1.01-2.31 1.54a7.0315 7.0315 0 0 0-1.5266 7.6679A7.031 7.031 0 0 0 5.4001 18.57a7.0304 7.0304 0 0 0 7.6678 1.5266 7.031 7.031 0 0 0 2.2822-1.5266c.53-.52 1.07-1.39 1.56-2.33.5-.96.99-2.05 1.42-3.07a61.8894 61.8894 0 0 0 1.224-3.15c.059-.157.108-.292.146-.4l.11-.32a.6481.6481 0 0 0-.82-.83l-.81.27 2.39-4.44Zm-9.34 2.59c.95-.4 1.84-.75 2.52-1v.01l-.28 1a.652.652 0 0 0 .93.75l4.02-2.1-2.17 4.03a.67.67 0 0 0 .08.73c.17.2.45.29.7.2l1.09-.37c-.26.69-.6 1.59-1 2.54-.42 1.01-.89 2.06-1.37 2.97-.48.93-.94 1.64-1.32 2.02a5.7342 5.7342 0 0 1-8.11 0 5.7328 5.7328 0 0 1-1.68-4.055 5.7342 5.7342 0 0 1 1.68-4.055c.39-.39 1.09-.84 2-1.32.9-.47 1.93-.94 2.91-1.35Z"/>
</g></svg>