<svg xmlns="http://www.w3.org/2000/svg" data-laicon-version="15.0" viewBox="0 0 20 20" fill="black"><g transform="translate(-2 -2)">
  <path d="M8.27 7.585v.005l.01-.01-.01.005Z"/>
  <path d="M8.2598 7.47c.005.038.01.076.01.115-.178.083-.359.173-.545.265l-.385.19c-.09.04-.18.09-.27.14-.06-.27-.11-.54-.11-.83 0-.92.36-1.79 1.01-2.44.84-.84 5.29-2.33 6.64-2.76.26-.08.54 0 .71.22.17.21.18.51.04.74l-1 1.61h.12a.6614.6614 0 0 1 .6218.5937.6625.6625 0 0 1-.0418.3063c-.04.09-.16.37-.32.75-.21.02-.43.06-.62.16l-.09.04a6.459 6.459 0 0 0-.123.057l-.247.113c-.082.039-.17.08-.265.122-.126.058-.262.12-.405.188.17-.35.34-.72.49-1.08h-.29a.673.673 0 0 1-.55-.35c-.11-.21-.1-.45.02-.65l.63-1.01c-2.1.74-4.08 1.54-4.41 1.87-.41.41-.63.95-.63 1.52 0 .04.005.08.01.12Zm7.65 2c1.68-.73 4.03-1.51 4.95-1.81h.01c.26-.08.54 0 .71.22.17.21.18.51.04.74l-1 1.6099h.12a.6617.6617 0 0 1 .5197.302.6611.6611 0 0 1 .0603.598l-.002.006c-.152.367-1.363 3.309-2.218 4.164-.65.65-1.52 1.01-2.44 1.01-.7 0-1.37-.21-1.94-.6.047-.1.098-.201.148-.299l.072-.14.192-.39.178-.36c.83.66 2.1.62 2.86-.14.4-.4 1.07-1.76 1.57-2.9h-.29a.6725.6725 0 0 1-.55-.35c-.11-.21-.1-.45.02-.65l.63-1.01c-1.29.45-2.53.92-3.38 1.3l-.043-.072c-.023-.04-.046-.082-.077-.119-.16-.18-.34-.31-.55-.41l.41-.7Zm-10.63 5.8099a2.2998 2.2998 0 0 0 3.1802 2.125 2.2998 2.2998 0 0 0 1.4198-2.125 2.3 2.3 0 0 0-4.6 0Zm1.3 0c0-.55.45-1 1-1s1 .45 1 1-.45 1-1 1-1-.45-1-1Z"/>
  <path d="M7.6901 20.51a5.3303 5.3303 0 0 1-3.78-1.56c-2.08-2.08-2.08-5.47 0-7.56 1.35-1.35 5.793-3.316 6.341-3.558l.05-.022c.21-.09.46-.06.64.07.19.14.29.36.26.6l-.08.69c1.098-.515 2.458-1.208 3.041-1.505.176-.09.281-.143.288-.145.22-.12.5-.09.7.06.26.2.32.58.15.86l-.04.068a64.5409 64.5409 0 0 0-1.63 2.892l.89-.26c.24-.07.5 0 .67.2.17.19.21.46.11.69l-.022.05c-.337.756-2.453 5.505-3.808 6.86a5.3315 5.3315 0 0 1-3.78 1.56v.01Zm-2.86-8.2a4.0436 4.0436 0 0 0-1.1846 2.86 4.0445 4.0445 0 0 0 6.9046 2.86c.8-.8 2.13-3.42 2.97-5.23l-.92.26c-.24.07-.49 0-.66-.19a.6537.6537 0 0 1-.12-.68c.26-.66.78-1.64 1.27-2.52-.88.43-1.86.9-2.5 1.15a.6504.6504 0 0 1-.833-.3535.6497.6497 0 0 1-.047-.3265l.079-.67c-1.64.76-4.14 2.02-4.959 2.84Z"/>
</g></svg>