<svg xmlns="http://www.w3.org/2000/svg" data-laicon-version="15.0" viewBox="0 0 20 20" fill="black"><g transform="translate(-2 -2)">
  <path d="M6.3898 11.5062c0 3.0985 2.5118 5.6103 5.6103 5.6103 3.0985 0 5.6103-2.5118 5.6103-5.6103h1.3c0 3.8165-3.0938 6.9103-6.9103 6.9103-3.8164 0-6.9103-3.0938-6.9103-6.9103h1.3Z"/>
  <path d="M12.6501 17.7665v3.569h-1.3v-3.569h1.3Z"/>
  <path d="M14.6263 21.9855H9.3735v-1.3h5.2528v1.3ZM7.9531 6.0737c0-2.235 1.8118-4.0468 4.0468-4.0468 2.235 0 4.0468 1.8118 4.0468 4.0468v5.2989c0 2.235-1.8118 4.0468-4.0468 4.0468-2.235 0-4.0468-1.8118-4.0468-4.0468v-5.299ZM12 3.3269c-1.517 0-2.7468 1.2298-2.7468 2.7468v5.2989c0 1.517 1.2298 2.7468 2.7468 2.7468s2.7468-1.2298 2.7468-2.7468v-5.299c0-1.517-1.2298-2.7467-2.7468-2.7467Z"/>
</g></svg>