<svg xmlns="http://www.w3.org/2000/svg" data-laicon-version="15.3" viewBox="0 0 20 20" fill="black"><g transform="translate(-2 -2)">
  <path d="m16.799 16.608 3.735 3.845.932-.906-17-17.5-.932.906L8.15 7.705v2.945a3.85 3.85 0 0 0 5.978 3.209l1.76 1.812A6.35 6.35 0 0 1 5.65 10.65V9.499h-1.3v1.15a7.65 7.65 0 0 0 7 7.623V21a.65.65 0 1 0 1.3 0v-2.727a7.614 7.614 0 0 0 4.149-1.665Zm-3.6-3.706A2.55 2.55 0 0 1 9.45 10.65V9.043l3.747 3.859Zm2.491-1.153c.104-.348.16-.717.16-1.099v-4.6a3.85 3.85 0 0 0-7.32-1.672l1.001 1.03a2.551 2.551 0 0 1 5.019.642v4.525l1.14 1.174Zm3.96-1.099c0 1.47-.415 2.843-1.133 4.008l-.94-.968a6.321 6.321 0 0 0 .773-3.04V9.5h1.3v1.15Z"/>
</g></svg>