<svg xmlns="http://www.w3.org/2000/svg" data-laicon-version="15.0" viewBox="0 0 20 20" fill="black"><g transform="translate(-2 -2)">
  <path d="M8.5354 10.0123c-.0735-.084-.1277-.0885-.1294-.0885H4.2394a.1721.1721 0 0 0-.0088.0046c-.0255.014-.0626.042-.1014.0857a.5295.5295 0 0 0-.0883.136c-.0198.0455-.0221.0731-.0221.08v8.1783a.2243.2243 0 0 0 .0126.0288c.0193.0379.0526.0856.098.1326.0456.0472.0902.0799.122.0975l.0057.0031h4.1164a.3994.3994 0 0 0 .0153-.0076c.0363-.0194.0846-.0539.1329-.102.0482-.048.083-.0961.1027-.1332a.2295.2295 0 0 0 .0111-.0238v-8.1737c0-.0406-.0254-.1324-.1-.2178Zm-.1741 8.6629.0015-.0004-.0015.0004Zm-4.0885.0023-.0025-.0009a.0094.0094 0 0 1 .0025.0009Zm5.2412-9.521c.2458.281.4215.6674.4215 1.0736v8.1946c0 .4497-.2687.8305-.4967 1.0575-.2239.2228-.6006.4882-1.0328.4882H4.2168c-.4359 0-.807-.2745-1.0222-.4971-.223-.2309-.4758-.6089-.4758-1.0486v-8.1946c0-.426.2016-.8121.4375-1.0783.228-.2573.6027-.528 1.0605-.528H8.406c.4754 0 .861.2503 1.108.5327Zm2.6623 9.3842v-3.622h1.3v3.622h-1.3Z"/>
  <path d="M16.4244 18.8652h-5.1402v-1.3h5.1402v1.3ZM5.7596 5.4287c-.0744.072-.0885.138-.0885.157v1.69h-1.3v-1.69c0-.4367.2083-.8237.484-1.0908.2788-.27.6746-.4654 1.1218-.4654h13.7945c.4671 0 .8437.2663 1.0741.5209.2301.2542.4359.6293.4359 1.0353v8.9851c0 .4832-.2524.8803-.5239 1.136-.2648.2494-.6516.4622-1.067.4622h-8.4012v-1.3h8.3962c.0029-.0006.0194-.0037.0487-.0172a.517.517 0 0 0 .1321-.0914c.0983-.0927.1151-.1697.1151-.1896V5.5921a.2087.2087 0 0 0-.0154-.0437.506.506 0 0 0-.0843-.1257c-.0382-.0422-.0753-.0698-.1025-.0845a.1458.1458 0 0 0-.0186-.0087H5.9769c-.0638 0-.146.03-.2173.0991Z"/>
</g></svg>