<svg xmlns="http://www.w3.org/2000/svg" data-laicon-version="15.0" viewBox="0 0 20 20" fill="black"><g transform="translate(-2 -2)">
  <path d="M13.3601 5.701h-2.72v-1h2.72v1Z"/>
  <path d="M16.5579 5.008c0-.5077-.341-.8594-.7205-.8594h-7.672c-.1228 0-.3023.071-.4689.255-.164.1813-.2544.408-.2544.6044v14.1518c0 .0988.0664.2747.2523.45.1876.1768.3793.2416.471.2416h7.672c.1022 0 .2923-.0665.4735-.2392.1801-.1717.247-.3479.247-.4524V5.008Zm-.7205-2.1594c1.3005 0 2.0205 1.155 2.0205 2.1594v14.1518c0 .5679-.3028 1.0623-.6501 1.3934-.3463.33-.8415.5982-1.3704.5982h-7.672c-.5223 0-1.0172-.2699-1.3628-.5958-.3473-.3274-.6605-.8223-.6605-1.3958V5.008c0-.566.2441-1.094.5906-1.4768.344-.38.8511-.6826 1.4327-.6826h7.672Z"/>
</g></svg>