<svg xmlns="http://www.w3.org/2000/svg" data-laicon-version="15.0" viewBox="0 0 20 20" fill="black"><g transform="translate(-2 -2)">
  <path d="M11.3 3.1691a.65.65 0 0 1-.0582.7305c-.871 1.0807-1.392 2.4538-1.392 3.9503 0 3.4794 2.8206 6.3 6.3 6.3 1.4964 0 2.8693-.5209 3.9499-1.3917a.6501.6501 0 0 1 1.051.6008c-.658 4.4643-4.5037 7.8904-9.1507 7.8904-5.1086 0-9.25-4.1413-9.25-9.25 0-4.6472 3.4265-8.493 7.891-9.1508a.65.65 0 0 1 .659.3205ZM9.3202 4.5122C6.2482 5.6118 4.05 8.5494 4.05 11.9994c0 4.3907 3.5593 7.95 7.95 7.95 3.4498 0 6.3872-2.1979 7.487-5.2696-1.0076.4931-2.1405.7701-3.3372.7701-4.1974 0-7.6-3.4026-7.6-7.6 0-1.197.277-2.33.7704-3.3377Z"/>
</g></svg>