<svg xmlns="http://www.w3.org/2000/svg" data-laicon-version="15.0" viewBox="0 0 20 20" fill="black"><g transform="translate(-2 -2)">
  <path d="M12.9307 15.3122c0-1.6062 1.3021-2.9083 2.9084-2.9083 1.6061 0 2.9084 1.3021 2.9084 2.9083s-1.3021 2.9083-2.9084 2.9083c-1.6063 0-2.9084-1.3021-2.9084-2.9083Zm2.9084-1.6083c-.8883 0-1.6084.7201-1.6084 1.6083 0 .8882.7201 1.6083 1.6084 1.6083.8883 0 1.6084-.7201 1.6084-1.6083 0-.8882-.7201-1.6083-1.6084-1.6083ZM8.2515 8.877 17.93 6.296l.335 1.2561-9.6786 2.5811-.335-1.2562Zm-4.9991 9.0162c0-1.6062 1.3022-2.9083 2.9084-2.9083 1.6062 0 2.9083 1.3021 2.9083 2.9083 0 1.6063-1.302 2.9083-2.9083 2.9083-1.6061 0-2.9084-1.3021-2.9084-2.9083Zm2.9084-1.6083c-.8883 0-1.6084.7201-1.6084 1.6083 0 .8882.7202 1.6083 1.6084 1.6083.8883 0 1.6083-.72 1.6083-1.6083 0-.8882-.72-1.6083-1.6083-1.6083Z"/>
  <path d="M17.3013 3.2376c.7302-.1948 1.4463.3558 1.4463 1.1111v10.9636h-1.3V4.544L9.069 6.7783v11.115h-1.3V6.6631a1.15 1.15 0 0 1 .8537-1.1112l8.6786-2.3143s.0001 0 0 0Z"/>
</g></svg>