<svg xmlns="http://www.w3.org/2000/svg" data-laicon-version="15.0" viewBox="0 0 20 20" fill="black"><g transform="translate(-2 -2)">
  <path d="M9.9971 15.253V4.844l8.353 1.656v8.03a3.3236 3.3236 0 0 0-2.0772-.6863 3.3225 3.3225 0 0 0-3.1938 2.6207 3.3224 3.3224 0 0 0 1.8268 3.7056 3.323 3.323 0 0 0 4.7442-3.003V6.374c0-.549-.387-1.02-.925-1.127l-8.657-1.715a1.1479 1.1479 0 0 0-1.37 1.127v7.956a3.3243 3.3243 0 0 0-4.1323.067 3.3236 3.3236 0 0 0-.873 4.0396A3.324 3.324 0 0 0 9.998 15.252l-.001.001Zm-3.323-2.024a2.0258 2.0258 0 0 0-1.4602.5765 2.024 2.024 0 1 0 1.4602-.5765Zm9.653 1.913a2.0233 2.0233 0 0 0-2.0235 2.0235 2.0236 2.0236 0 1 0 2.0235-2.0235Z"/>
</g></svg>