<svg xmlns="http://www.w3.org/2000/svg" data-laicon-version="15.3" viewBox="0 0 20 20" fill="black"><g transform="translate(-2 -2)">
  <path d="M9.216 8.625a.267.267 0 0 1 .191-.075h1.035a.311.311 0 0 1 .269.148l.001.001 2.676 4.137v-4.02c0-.067.022-.137.075-.19a.267.267 0 0 1 .192-.076h.936a.27.27 0 0 1 .192.075.267.267 0 0 1 .075.192v6.372a.267.267 0 0 1-.075.191.266.266 0 0 1-.192.076h-1.026a.311.311 0 0 1-.269-.148v-.002l-2.686-4.145v4.028a.267.267 0 0 1-.075.191.266.266 0 0 1-.192.076h-.936a.267.267 0 0 1-.191-.075.267.267 0 0 1-.076-.192V8.817c0-.068.022-.138.076-.192Z"/>
  <path d="M7.13 20.85h-.013a3.98 3.98 0 0 1-3.967-3.979V7.13a3.98 3.98 0 0 1 3.98-3.98h9.74a3.98 3.98 0 0 1 3.98 3.98v9.742a3.98 3.98 0 0 1-3.98 3.98H7.13ZM4.45 7.13v9.741c0 1.48 1.2 2.68 2.68 2.68h9.74c1.48 0 2.68-1.2 2.68-2.68V7.129c0-1.48-1.2-2.68-2.68-2.68H7.13a2.68 2.68 0 0 0-2.68 2.68Z"/>
</g></svg>