<svg xmlns="http://www.w3.org/2000/svg" data-laicon-version="15.0" viewBox="0 0 20 20" fill="black"><g transform="translate(-2 -2)">
  <path d="M15.1001 8.65h-4v-1.3h4v1.3Zm0 2.667h-4v-1.3h4v1.3Zm-.0004 2.666h-8.9v-1.3h8.9v1.3Zm0 2.667h-8.9v-1.3h8.9v1.3Z"/>
  <path d="M4.4499 5.181v12.788c0 .469.381.85.85.85h13.57v1.3h-13.57c-1.187 0-2.15-.963-2.15-2.15V5.031c0-.634.516-1.15 1.15-1.15h12.746c.634 0 1.15.516 1.15 1.15v13.111h-1.3V5.181H4.4499Z"/>
  <path d="M19.55 8.507h-2.004v-1.3H19.7c.634 0 1.15.516 1.15 1.15v9.7851c0 1.0919-.885 1.977-1.977 1.977s-1.977-.8851-1.977-1.977h1.3c0 .374.303.677.677.677.374 0 .677-.303.677-.677v-9.635ZM6.1929 7.35h3.534v3.967h-3.534V7.35Zm1.3 1.3v1.367h.934V8.65h-.934Z"/>
</g></svg>