<svg xmlns="http://www.w3.org/2000/svg" data-laicon-version="17.1" viewBox="0 0 20 20" fill="black"><g transform="translate(-2 -2)">
  <path d="M13.5 9.85H8.25v-1.3h5.25v1.3Zm-1.5 2.8H8.25v-1.3H12v1.3Zm.75 2.8h-4.5v-1.3h4.5v1.3Zm1.7-5.6h1.3v-1.3h-1.3v1.3Zm0 2.8h1.3v-1.3h-1.3v1.3Zm0 2.8h1.3v-1.3h-1.3v1.3Z"/>
  <path d="M4.35 4.86c0-.91.739-1.65 1.65-1.65h12c.911 0 1.65.74 1.65 1.65v14.28A1.65 1.65 0 0 1 18 20.79H6a1.65 1.65 0 0 1-1.65-1.65V4.86ZM6 4.51a.35.35 0 0 0-.35.35v14.28c0 .193.157.35.35.35h12a.35.35 0 0 0 .35-.35V4.86a.35.35 0 0 0-.35-.35H6Z"/>
</g></svg>