<svg xmlns="http://www.w3.org/2000/svg" data-laicon-version="15.0" viewBox="0 0 20 20" fill="black"><g transform="translate(-2 -2)">
  <path d="M6.0001 4.5104a.35.35 0 0 0-.35.35v14.2792a.35.35 0 0 0 .35.35h12a.35.35 0 0 0 .35-.35V4.8604a.35.35 0 0 0-.35-.35h-12Zm-1.65.35c0-.9112.7387-1.65 1.65-1.65h12c.9113 0 1.65.7388 1.65 1.65v14.2792c0 .9113-.7387 1.65-1.65 1.65h-12c-.9113 0-1.65-.7387-1.65-1.65V4.8604Z"/>
  <path d="M15.0534 12.65H8.9468v-1.3h6.1066v1.3Zm0-3.3413H8.9468v-1.3h6.1066v1.3Zm0 6.6827H8.9468v-1.3h6.1066v1.3Z"/>
</g></svg>