<svg xmlns="http://www.w3.org/2000/svg" data-laicon-version="16.12" viewBox="0 0 20 20" fill="black"><g transform="translate(-2 -2)">
  <path d="M17.925 6.94c-1.59 0-2.826.938-3.229 2.374a.243.243 0 0 0 .01.183.234.234 0 0 0 .15.11l.766.207c.061.02.125.016.18-.015a.246.246 0 0 0 .112-.14v-.002c.274-.87.99-1.451 1.998-1.451 1.081 0 1.837.648 1.837 1.512 0 .815-.707 1.473-1.772 1.473h-.546a.23.23 0 0 0-.165.065.23.23 0 0 0-.065.165v.676a.25.25 0 0 0 .063.174.222.222 0 0 0 .167.069h.52c.627 0 1.132.168 1.478.456.345.287.541.7.541 1.212 0 1-.815 1.772-2.032 1.772-.533 0-.988-.147-1.352-.43-.364-.284-.643-.71-.814-1.28v-.003a.23.23 0 0 0-.116-.137.269.269 0 0 0-.165-.021l-.76.21a.214.214 0 0 0-.147.093.228.228 0 0 0-.018.185c.414 1.697 1.756 2.649 3.372 2.649 1.967 0 3.35-1.256 3.35-2.921 0-.618-.178-1.15-.51-1.573a2.613 2.613 0 0 0-1.15-.816c.921-.427 1.452-1.237 1.452-2.187 0-1.516-1.364-2.61-3.155-2.61Zm-9.309.624c.553-.407 1.244-.624 2.036-.624.878 0 1.624.26 2.153.722.53.463.833 1.125.833 1.913 0 .625-.094 1.191-.495 1.922-.398.725-1.097 1.61-2.301 2.879l-1.192 1.26h4.135a.23.23 0 0 1 .165.066.23.23 0 0 1 .065.165v.754a.25.25 0 0 1-.062.174.224.224 0 0 1-.168.069H7.753a.244.244 0 0 1-.176-.067.243.243 0 0 1-.067-.176v-.234c0-.095.04-.168.085-.23l.006-.006 2.314-2.561c1.033-1.13 1.635-1.879 1.979-2.462.34-.578.426-.992.426-1.462 0-.46-.173-.821-.468-1.07-.296-.249-.723-.39-1.239-.39-.482 0-.893.128-1.223.37-.33.243-.585.605-.749 1.083a.246.246 0 0 1-.111.14.226.226 0 0 1-.181.015l-.76-.206a.225.225 0 0 1-.16-.101.24.24 0 0 1-.019-.194l.001-.003c.24-.745.65-1.339 1.205-1.746Zm-3.22-.442a.314.314 0 0 0-.236.091L2.797 9.199a.252.252 0 0 0-.092.142.232.232 0 0 0 .031.168l.168.285c.03.053.073.105.137.126a.229.229 0 0 0 .177-.022l1.7-.946v7.669a.25.25 0 0 0 .064.174.222.222 0 0 0 .167.069h.819a.224.224 0 0 0 .167-.07.25.25 0 0 0 .063-.173V7.35a.23.23 0 0 0-.065-.164.23.23 0 0 0-.165-.065h-.572Z"/>
</g></svg>