<svg xmlns="http://www.w3.org/2000/svg" data-laicon-version="16.11" viewBox="0 0 20 20" fill="black"><g transform="translate(-2 -2)">
  <path d="M9.946 7.195a.9.9 0 1 1 1.607.81.9.9 0 0 1-1.607-.81Zm3.8.234a.9.9 0 1 1 1.608.81.9.9 0 0 1-1.608-.81Zm-5.74 5.619a.9.9 0 1 0-.81 1.608.9.9 0 0 0 .81-1.608Zm-.974-3.402a.9.9 0 1 1 1.608.81.9.9 0 0 1-1.608-.81Z"/>
  <path d="M3.35 12a8.65 8.65 0 1 1 17.3 0 2.795 2.795 0 0 1-3.22 2.762l-.559-.086a2.136 2.136 0 0 0-2.454 2.275l.078 1.005A2.502 2.502 0 0 1 12 20.65 8.65 8.65 0 0 1 3.35 12ZM12 4.65a7.35 7.35 0 1 0 0 14.7c.7 0 1.252-.596 1.198-1.294l-.077-1.005a3.436 3.436 0 0 1 3.948-3.66l.559.086A1.495 1.495 0 0 0 19.35 12 7.35 7.35 0 0 0 12 4.65Z"/>
</g></svg>