<svg xmlns="http://www.w3.org/2000/svg" data-laicon-version="15.0" viewBox="0 0 20 20" fill="black"><g transform="translate(-2 -2)">
  <path d="M11.2998 19.1c-.6.5-1.5.9-2.4.9-2.2 0-3.8-1.6-3.8-3.8 0-.9.3-1.9.9-2.5l9.2-9.3c.4-.3.9-.4 1.4-.4 1.3 0 2.3 1 2.3 2.3 0 .5-.2 1.1-.5 1.5l-.4.4-8.2 8.2c-.2.2-.4.3-.6.3-.4 0-.8-.4-.8-.8 0-.3.1-.4.4-.7l7-7-.9-.9-7 7c-.3.3-.7.7-.7 1.6 0 1.2.9 2.1 2.1 2.1.5 0 1.1-.2 1.5-.7l8.3-8.3.4-.4c.5-.6.8-1.5.8-2.3 0-2-1.6-3.6-3.6-3.6-.8 0-1.6.2-2.3.8l-9.4 9.4c-.7.9-1.2 2.1-1.2 3.3 0 2.9 2.2 5.0999 5.1 5.0999 1.3 0 2.5-.5999 3.2-1.1999l7.9-7.9-.9-.9-7.8 7.8Z"/>
</g></svg>