<svg xmlns="http://www.w3.org/2000/svg" data-laicon-version="15.0" viewBox="0 0 20 20" fill="black"><g transform="translate(-2 -2)">
  <path d="m7.2948 4.362 2.555 2.888a.137.137 0 0 1-.005.188l-1.771 1.771a.723.723 0 0 0-.183.316.8889.8889 0 0 0-.031.215 1.42 1.42 0 0 0 .038.351c.052.23.16.51.333.836.348.654.995 1.551 2.143 2.699 1.148 1.148 2.045 1.795 2.7 2.144.325.173.605.28.835.332.113.025.233.042.351.038a.8881.8881 0 0 0 .215-.031.7244.7244 0 0 0 .316-.183l1.771-1.772a.1367.1367 0 0 1 .188-.005l2.889 2.556a.9241.9241 0 0 1 .04 1.346l-1.5 1.5c-.11.11-.4.28-.93.358-.516.076-1.21.058-2.06-.153-1.7-.422-4.002-1.608-6.67-4.276-2.667-2.667-3.853-4.97-4.275-6.668-.21-.851-.23-1.545-.153-2.06.079-.53.248-.821.358-.93l1.5-1.501a.9239.9239 0 0 1 1.346.04v.001Zm.973-.862a2.224 2.224 0 0 0-3.238-.099l-1.5 1.5c-.376.377-.623.97-.725 1.66-.104.707-.068 1.573.178 2.564.492 1.982 1.827 4.484 4.618 7.274 2.79 2.791 5.292 4.126 7.275 4.618.99.246 1.856.282 2.563.178.69-.102 1.283-.349 1.66-.725l1.5-1.5a2.2247 2.2247 0 0 0 .4408-2.5167 2.2252 2.2252 0 0 0-.5398-.7213l-2.889-2.557a1.4369 1.4369 0 0 0-1.968.06l-1.565 1.565a2.7941 2.7941 0 0 1-.393-.177c-.509-.27-1.305-.828-2.392-1.915-1.087-1.088-1.644-1.883-1.915-2.392a2.6894 2.6894 0 0 1-.177-.393l1.564-1.565c.537-.537.563-1.4.06-1.968L8.2678 3.5Z"/>
</g></svg>