<svg xmlns="http://www.w3.org/2000/svg" data-laicon-version="15.0" viewBox="0 0 20 20" fill="black"><g transform="translate(-2 -2)">
  <path d="M5.0298 3.401a2.2242 2.2242 0 0 1 3.238.1l2.557 2.888a1.4372 1.4372 0 0 1-.06 1.968l-1.564 1.565c.032.094.087.225.177.393.27.509.828 1.305 1.915 2.392 1.088 1.087 1.883 1.644 2.392 1.915.168.09.3.145.393.177l1.565-1.564a1.4369 1.4369 0 0 1 1.968-.06l2.889 2.557c.96.85 1.005 2.332.099 3.238l-1.5 1.5c-.377.376-.97.623-1.66.725-.707.104-1.573.068-2.563-.178-1.983-.492-4.484-1.827-7.275-4.617-2.791-2.791-4.126-5.293-4.618-7.275-.246-.99-.282-1.857-.178-2.564.102-.69.349-1.283.725-1.66l1.5-1.5Zm.92.92-1.5 1.5c-.11.11-.28.4-.359.93-.076.516-.058 1.21.153 2.06.422 1.7 1.608 4.002 4.276 6.67 2.667 2.667 4.97 3.853 6.669 4.275.85.21 1.544.23 2.06.153.53-.078.82-.248.93-.358l1.5-1.5a.9234.9234 0 0 0 .1843-1.046.9241.9241 0 0 0-.2243-.3l-2.89-2.556a.1373.1373 0 0 0-.187.005l-1.771 1.772a.7244.7244 0 0 1-.316.183.89.89 0 0 1-.214.031 1.4184 1.4184 0 0 1-.352-.038 3.4524 3.4524 0 0 1-.836-.332c-.654-.349-1.551-.996-2.699-2.144-1.148-1.148-1.795-2.045-2.143-2.7a3.4485 3.4485 0 0 1-.333-.835 1.416 1.416 0 0 1-.038-.351.8889.8889 0 0 1 .031-.215c.02-.072.068-.2.183-.316l1.772-1.771a.137.137 0 0 0 .005-.188l-2.556-2.888a.9242.9242 0 0 0-1.345-.042v.001Zm8.043-.103a1 1 0 1 0 0 2 1 1 0 0 0 0-2Zm4.833 0a1 1 0 1 0 0 2 1 1 0 0 0 0-2Z"/>
</g></svg>