<svg xmlns="http://www.w3.org/2000/svg" data-laicon-version="15.0" viewBox="0 0 20 20" fill="black"><g transform="translate(-2 -2)">
  <path d="M5.0298 3.402a2.224 2.224 0 0 1 3.238.098l2.557 2.889a1.4372 1.4372 0 0 1-.06 1.968l-1.564 1.565c.0488.1354.108.2668.177.3931.27.509.828 1.305 1.915 2.392 1.088 1.087 1.883 1.644 2.392 1.915.168.09.3.145.393.178l1.565-1.565a1.437 1.437 0 0 1 1.968-.06l2.889 2.557c.96.85 1.005 2.332.099 3.238l-1.5 1.5c-.377.376-.97.623-1.66.725-.707.105-1.573.068-2.563-.178-1.983-.491-4.484-1.826-7.275-4.617-2.791-2.791-4.126-5.293-4.618-7.275-.246-.99-.282-1.857-.178-2.563.102-.692.349-1.284.725-1.66l1.5-1.5Zm.92.919-1.5 1.5c-.11.11-.28.4-.359.93-.076.516-.058 1.21.153 2.06.422 1.7001 1.608 4.0021 4.276 6.6701 2.667 2.667 4.97 3.853 6.669 4.275.85.21 1.544.23 2.06.153.53-.078.82-.248.93-.358l1.5-1.5a.9237.9237 0 0 0 .1843-1.0461.9248.9248 0 0 0-.2243-.2999l-2.89-2.556a.1367.1367 0 0 0-.187.005l-1.771 1.772a.7254.7254 0 0 1-.316.183.8904.8904 0 0 1-.214.032 1.419 1.419 0 0 1-.352-.04 3.4512 3.4512 0 0 1-.836-.331c-.654-.349-1.551-.996-2.699-2.144-1.148-1.148-1.795-2.045-2.143-2.7a3.4497 3.4497 0 0 1-.333-.835 1.4155 1.4155 0 0 1-.038-.351.8893.8893 0 0 1 .031-.214.717.717 0 0 1 .183-.316l1.772-1.772a.137.137 0 0 0 .005-.188l-2.556-2.888a.9242.9242 0 0 0-1.345-.042v.001Zm8.14.097a.8421.8421 0 0 0 .2476.5958.8434.8434 0 0 0 .9189.1817.8436.8436 0 0 0 .4557-.4568.8435.8435 0 0 0-.1838-.9185.843.843 0 0 0-1.4384.5978Zm2.479 0a.8425.8425 0 0 0 .2369.6145.844.844 0 0 0 .6066.2566.8427.8427 0 0 0 .7863-.5416.8446.8446 0 0 0 .0552-.3314.843.843 0 0 0-1.686.002h.001Zm3.32.842a.8417.8417 0 0 1-.7779-.5197.8423.8423 0 0 1 .1825-.9176.8419.8419 0 0 1 1.4374.5953.842.842 0 0 1-.842.842Zm-.842 1.636a.8424.8424 0 1 0 1.685 0 .8436.8436 0 0 0-.8425-.8943.8443.8443 0 0 0-.7934.5563.8422.8422 0 0 0-.0491.338Zm-1.437.644a.8426.8426 0 0 1-.7791-1.1644.8427.8427 0 0 1 .7781-.5206.8425.8425 0 0 1 0 1.685h.001Z"/>
  <path d="M13.5942 9.87a.8427.8427 0 0 0 .2376.615.8431.8431 0 0 0 .937.1889.8442.8442 0 0 0-.3326-1.6204.844.844 0 0 0-.842.8165Zm2.423-.738a.842.842 0 1 1 0-1.684.842.842 0 0 1 0 1.684Zm3.03.242a.842.842 0 1 0 1.684 0 .842.842 0 0 0-1.684 0Z"/>
</g></svg>