<svg xmlns="http://www.w3.org/2000/svg" data-laicon-version="15.0" viewBox="0 0 20 20" fill="black"><g transform="translate(-2 -2)">
  <path d="M16.4798 13.75c-.6-.52-1.5-.48-2.06.07l-1.41 1.41c-.43-.17-1.41-.71-2.78-2.08-1.37-1.37-1.91-2.37-2.08-2.78l1.41-1.41c.56-.56.59-1.46.08-2.06l-1.83-2.12c-.41-.46-1.01-.73-1.66-.74h-.07c-.6 0-1.15.24-1.55.64l-1.2 1.2c-.49.49-.77 1.35-.78 2.41 0 1.42.59 4.37 4.38 8.16 3.81 3.81 6.77 4.38 8.19 4.38 1.01 0 1.88-.28 2.38-.78l1.2-1.2c.41-.41.64-.95.66-1.54v-.11c-.02-.62-.29-1.21-.77-1.63l-2.1-1.82h-.01Zm1.3 4.18-1.2 1.2c-.18.18-.68.4-1.46.4-1.22 0-3.79-.52-7.27-4-3.46-3.46-3.99-6.03-4-7.29 0-.77.22-1.25.4-1.43l1.2-1.2c.16-.16.39-.25.65-.26h.03c.28 0 .54.11.7.29l1.82 2.11c.07.08.06.21-.01.29l-1.66 1.66c-.12.12-.18.27-.19.44-.02.66.75 2.17 2.52 3.94 1.83 1.83 3.35 2.58 3.99 2.51.15-.02.28-.08.38-.19l1.66-1.66c.08-.08.2-.08.29-.01l2.1 1.81c.2.18.32.43.33.75 0 .24-.1.47-.28.64Z"/>
  <path d="M21.1698 3.75c0-.28-.13-.54-.35-.71-.22-.17-.51-.23-.78-.15l-4.29 1.14c-.39.1-.67.46-.67.87v3.86c-.15-.04-.3-.07-.47-.07-.97 0-1.77.79-1.77 1.77s.79 1.77 1.77 1.77 1.77-.79 1.77-1.77V7.09l3.49-.93v1.33c-.15-.04-.3-.07-.47-.07-.97 0-1.77.79-1.77 1.77s.79 1.77 1.77 1.77 1.77-.79 1.77-1.77V3.75Zm-6.55 7.17c-.26 0-.47-.21-.47-.47s.21-.47.47-.47.47.21.47.47-.21.47-.47.47Zm1.77-5.18v-.53l3.49-.93v.53l-3.49.93Zm3.02 3.91c-.26 0-.47-.21-.47-.47s.21-.47.47-.47.47.21.47.47-.21.47-.47.47Z"/>
</g></svg>