<svg xmlns="http://www.w3.org/2000/svg" data-laicon-version="15.0" viewBox="0 0 20 20" fill="black"><g transform="translate(-2 -2)">
  <path d="M21.4533 8.9725h-3.6979v-1.3h3.6979v1.3Zm-.0001 3.7375H17.77v-1.3h3.6832v1.3ZM9.502 7.5734V5.0253h1.3v2.5481h-1.3Z"/>
  <path d="M8.0285 5.2027V7.532h-1.3v-2.63c0-.6694.6128-.9992 1.0782-.9992h12.6746c.4654 0 1.0782.3298 1.0782.9992v10.3364c0 .6695-.6129.9992-1.0782.9992h-2.7515V5.2027H8.0285Zm11.0013 0v9.7348h1.2297V5.2027h-1.2297Z"/>
  <path d="M3.7502 10.1268v8.6705h11.408v-8.6705H3.7502Zm-1.3-.3091c0-.6231.5453-.991 1.0374-.991h11.9332c.4921 0 1.0374.3679 1.0374.991v9.2887c0 .6231-.5453.9909-1.0374.9909H3.4876c-.4922 0-1.0374-.3679-1.0374-.9909V9.8176Z"/>
  <path d="M12.3153 11.5a.8154.8154 0 1 0 .0001 1.6307.8154.8154 0 0 0-.0001-1.6307Zm-5.4379.7787 6.3942 6.3942a.65.65 0 0 1-.8387.9878l-.0805-.0686-5.4757-5.4751-3.1157 3.1167a.6502.6502 0 0 1-.8387.0686l-.0805-.0686a.65.65 0 0 1-.0686-.8386l.0685-.0806 4.0358-4.0358Z"/>
</g></svg>