<svg xmlns="http://www.w3.org/2000/svg" data-laicon-version="15.0" viewBox="0 0 20 20" fill="black"><g transform="translate(-2 -2)">
  <path d="M2.875 5.4671 18.3496 20.48l-.0088.0091.9524.924.9052-.9331-3.9681-3.8497h2.7977a.6501.6501 0 0 0 .5465-1.0018l-2.911-4.5228V4.1991a.65.65 0 0 0-.65-.65H7.9861a.65.65 0 0 0-.65.65v3.8024L3.7714 4.543l-.8964.924Zm4.2628 5.9468L4.425 15.6285a.65.65 0 0 0 .5466 1.0018h6.3781v4.7373a.65.65 0 1 0 1.3 0v-4.606l-1.4753-1.4313H6.163l1.9265-2.9931-.9517-.9233ZM8.636 9.2627V4.849h6.7274v6.4477a.65.65 0 0 0 .1034.3518l2.3697 3.6817h-2.9463L8.6361 9.2627Z"/>
</g></svg>