<svg xmlns="http://www.w3.org/2000/svg" data-laicon-version="15.0" viewBox="0 0 20 20" fill="black"><g transform="translate(-2 -2)">
  <path d="M19.5987 16.2916a.6501.6501 0 0 1-.5706.3387H4.9718a.65.65 0 0 1-.5466-1.0018l2.911-4.5228V4.1991a.65.65 0 0 1 .65-.65h8.0274a.65.65 0 0 1 .65.65v6.9066l2.911 4.5228c.1288.2.138.4543.0241.6631Zm-1.762-.9613-2.3697-3.6817a.65.65 0 0 1-.1034-.3518V4.8491H8.6362v6.4477a.6498.6498 0 0 1-.1034.3518l-2.3697 3.6817h11.6736Z"/>
  <path d="M12.0001 15.3304a.65.65 0 0 1 .65.65v5.3873a.65.65 0 1 1-1.3 0v-5.3873a.65.65 0 0 1 .65-.65Z"/>
</g></svg>