<svg xmlns="http://www.w3.org/2000/svg" data-laicon-version="15.0" viewBox="0 0 20 20" fill="black"><g transform="translate(-2 -2)">
  <path d="M11.503 3.658a.8273.8273 0 0 0-.042.04L8.038 7.12 4.724 3.805a.826.826 0 0 0-1.41.584v7.4359c0 .291.15.548.38.695a.8345.8345 0 0 0 .057.064l3.373 3.373-3.319 3.318-.002.002c-.51.514-.16 1.41.586 1.41h7.435a.8229.8229 0 0 0 .562-.22.8315.8315 0 0 0 .252-.173l3.368-3.369 3.266 3.267a.829.829 0 0 0 1.415-.586v-7.427a.8267.8267 0 0 0-.147-.473.8323.8323 0 0 0-.192-.3l-3.418-3.416 3.083-3.083.191-.19c.52-.52.149-1.402-.58-1.402H12.17a.8203.8203 0 0 0-.668.344l.001-.001Zm1.147 6.7729v-5.817h5.817l-5.817 5.817Zm-1.3-4.784v4.784l-2.392-2.391 2.392-2.392v-.001Zm1.3 12.796v-4.873l2.437 2.436-2.437 2.437Zm-2.22-5.792-2.387 2.387-2.387-2.387h4.775-.001Zm5.58-3.742 2.442 2.441H13.57l2.442-2.441h-.002ZM4.614 5.533l5.818 5.818H4.613V5.533h.001Zm8.956 7.117h5.818v5.818L13.57 12.65Zm-8.037 6.737 5.819-5.818v5.818H5.53h.003Z"/>
</g></svg>