<svg xmlns="http://www.w3.org/2000/svg" data-laicon-version="15.0" viewBox="0 0 20 20" fill="black"><g transform="translate(-2 -2)">
  <path d="M10.9102 8.7299c-.55 0-1 .45-1 1s.45 1 1 1 1-.45 1-1-.45-1-1-1Zm4.6298 4.08c0 .55-.45 1-1 1s-1-.45-1-1 .45-1 1-1 1 .45 1 1Z"/>
  <path d="m21.1301 16.8899-7.7-13.33c-.3-.52-.83-.83-1.43-.83s-1.14.31-1.44.83l-7.68 13.32c-.23.4-.29.88-.15 1.32.13.43.42.78.82.98 2.66 1.33 5.56 2 8.47 2 2.91 0 5.81-.67 8.45-2 .4-.2.69-.55.82-.98.13-.43.07-.91-.15-1.3l-.01-.01Zm-9.44-12.68c.09-.16.25-.18.31-.18s.21.02.31.18l5.9 10.21c-3.88 2-8.51 2-12.41 0l5.89-10.21Zm8.35 13.61c-.02.06-.06.14-.16.19-4.92 2.48-10.81 2.48-15.75 0-.1-.05-.14-.13-.16-.19-.03-.1-.02-.21.03-.29l1.13-1.96c2.15 1.12 4.51 1.68 6.87 1.68 2.36 0 4.72-.56 6.86-1.68l1.14 1.97c.07.12.05.23.04.28Z"/>
</g></svg>