<svg xmlns="http://www.w3.org/2000/svg" data-laicon-version="15.0" viewBox="0 0 20 20" fill="black"><g transform="translate(-2 -2)">
  <path d="M6.4702 19.44c-.06 0-.11 0-.17-.02-.17-.04-.31-.15-.39-.3l-3.82-6.62c-.13-.23-.11-.51.05-.72.16-.21.42-.3.68-.24l4.44 1.14 1.63-.94-4.34-4.73c-.13-.15-.19-.34-.16-.54s.15-.37.32-.46l2.26-1.3c.33-.19.74-.2 1.08-.02l6.87 3.59 2.84-1.64c1.28-.74 2.93-.42 3.75.72.46.64.63 1.45.46 2.21-.17.76-.65 1.43-1.33 1.82l-13.81 7.97c-.1.06-.21.09-.33.09l-.03-.01Zm-2.49-6.26 2.72 4.72 13.25-7.65c.36-.21.62-.56.71-.97.09-.41 0-.83-.25-1.18-.43-.6-1.33-.76-2.04-.35l-3.15 1.82c-.19.11-.43.12-.63.01l-7.1-3.71-1.47.85 4.34 4.73c.13.15.19.34.16.54s-.15.37-.32.46l-2.56 1.48c-.15.08-.32.11-.49.07l-3.19-.82h.02Z"/>
</g></svg>