<svg xmlns="http://www.w3.org/2000/svg" data-laicon-version="15.0" viewBox="0 0 20 20" fill="black"><g transform="translate(-2 -2)">
  <path d="M9.4992 11.9999 4.3 15.29V8.7099l5.1992 3.29ZM3 16.8905c0 .33.3639.5303.6427.3539l7.7283-4.8906a.4203.4203 0 0 0 .1012-.0891.421.421 0 0 0 0-.5295.4206.4206 0 0 0-.1012-.0892L3.6427 6.7555C3.364 6.5791 3 6.7795 3 7.1095v9.781Zm9.7722 0c0 .33.3639.5303.6427.3539l7.7283-4.8906c.2598-.1644.2598-.5433 0-.7077l-7.7283-4.8906c-.2788-.1764-.6427.024-.6427.354v9.781Zm1.3-8.1806 5.1991 3.29-5.1991 3.2901V8.7099Zm6.3759 4.0347c.0002.0001-.0003-.0002 0 0Z"/>
</g></svg>