<svg xmlns="http://www.w3.org/2000/svg" data-laicon-version="15.0" viewBox="0 0 20 20" fill="black"><g transform="translate(-2 -2)">
  <path d="m14.501 11.9999 5.1992 3.2901V8.7099l-5.1992 3.29Zm6.4992 4.8906c0 .33-.3639.5303-.6427.3539l-7.7283-4.8906a.4203.4203 0 0 1-.1012-.0891.421.421 0 0 1 0-.5295.4206.4206 0 0 1 .1012-.0892l7.7283-4.8905c.2788-.1764.6427.024.6427.354v9.781Zm-9.7722 0c0 .33-.3639.5303-.6427.3539L2.857 12.3538c-.2598-.1644-.2598-.5433 0-.7077l7.7283-4.8906c.2788-.1764.6427.024.6427.354v9.781Zm-1.3-8.1806-5.1992 3.29L9.928 15.29V8.7099Zm-6.3759 4.0347c-.0002.0001.0003-.0002 0 0Z"/>
</g></svg>