<svg xmlns="http://www.w3.org/2000/svg" data-laicon-version="15.0" viewBox="0 0 20 20" fill="black"><g transform="translate(-2 -2)">
  <path d="M3 5.5V3h9v2.5c0 .8284-.6716 1.5-1.5 1.5v1.5a.5.5 0 0 0 .5.5h3.5c2.7614 0 5 2.2386 5 5v3c.8284 0 1.5.6716 1.5 1.5V21h-9v-2.5c0-.8284.6716-1.5 1.5-1.5v-1.5a.5.5 0 0 0-.5-.5H9.5c-2.7614 0-5-2.2386-5-5V7C3.6716 7 3 6.3284 3 5.5Zm1.3-1.2v1.2a.2.2 0 0 0 .2.2h6a.2.2 0 0 0 .2-.2V4.3H4.3Zm7.1 6H11c-.9941 0-1.8-.8059-1.8-1.8V7H5.8v3c0 2.0435 1.6566 3.7 3.7 3.7h1.9v-3.4Zm1.2 3.4h.4c.9941 0 1.8.8059 1.8 1.8V17h3.4v-3c0-2.0434-1.6565-3.7-3.7-3.7h-1.9v3.4Zm.7 4.8v1.2h6.4v-1.2a.2.2 0 0 0-.2-.2h-6a.2.2 0 0 0-.2.2Z"/>
</g></svg>