<svg xmlns="http://www.w3.org/2000/svg" data-laicon-version="15.0" viewBox="0 0 20 20" fill="black"><g transform="translate(-2 -2)">
  <path d="M11.3501 15.6349v-2.9848H8.3652v-1.3h2.9849V8.3652h1.3v2.9849h2.9848v1.3h-2.9848v2.9848h-1.3Z"/>
  <path d="M12.0003 2.5986c-5.1921 0-9.4012 4.2091-9.4012 9.4013 0 5.1921 4.209 9.4012 9.4012 9.4012s9.4012-4.2091 9.4012-9.4012c0-5.1922-4.209-9.4013-9.4012-9.4013ZM3.8991 12c0-4.4742 3.627-8.1013 8.1012-8.1013 4.4742 0 8.1012 3.627 8.1012 8.1013 0 4.4741-3.627 8.1012-8.1012 8.1012-4.4741 0-8.1012-3.6271-8.1012-8.1012Z"/>
</g></svg>