<svg xmlns="http://www.w3.org/2000/svg" data-laicon-version="15.0" viewBox="0 0 20 20" fill="black"><g transform="translate(-2 -2)">
  <path d="M3.0988 5.6785v12.6589h15.807a.15.15 0 0 0-.15.15h1.3c0 .6353-.515 1.15-1.15 1.15H2.9488c-.635 0-1.15-.5149-1.15-1.15V5.5285c0-.635.515-1.15 1.15-1.15h15.957c.6353 0 1.15.515 1.15 1.15V13h-1.3V5.6785H3.0988Z"/>
  <path d="M5.1133 14.1123v-3.2601h1.3v3.2601h-1.3Zm1.9648 0v-3.2601h1v3.2601h-1Zm1.6646 0v-3.2601h1.3v3.2601h-1.3Zm1.8149 0v-3.2601h1.3v3.2601h-1.3Zm1.9644 0v-3.2601h1v3.2601h-1Zm6.7176-5.3506H2.6152v-1.3h16.6244v1.3ZM19.5441 16.0875h-.6337a.05.05 0 0 1-.05-.0499v-.9373a.05.05 0 0 1 .05-.05h.6337a.5186.5186 0 0 1 0 1.0372Z"/>
  <path d="M15.5654 16.0195c0-1.9982 1.6198-3.618 3.618-3.618s3.618 1.6198 3.618 3.618-1.6198 3.618-3.618 3.618-3.618-1.6198-3.618-3.618Zm4.0644-1.7593h-1.5222a.1606.1606 0 0 0-.1605.1609v3.5184c0 .0889.0718.161.1605.161h.593a.1608.1608 0 0 0 .1605-.161v-1.0077c0-.0383.0164-.0548.0547-.0548l.6956.0023c.7211 0 1.3058-.5864 1.3058-1.3096 0-.7169-.5749-1.2994-1.2874-1.3095Z"/>
</g></svg>