<svg xmlns="http://www.w3.org/2000/svg" data-laicon-version="15.0" viewBox="0 0 20 20" fill="black"><g transform="translate(-2 -2)">
  <path d="M18.8001 11.4491h-1v-2.5c0-1.4-1.1-2.6-2.6-2.6h-2.5v-1c0-1-.7-2.5-2.6-2.5-1.9 0-2.6 1.5-2.6 2.5v1h-2.3c-1.4 0-2.6 1.1-2.6 2.6v2.8c0 .4.3.6.6.6h1.8c1 0 1.3.7 1.3 1.4s-.3 1.4-1.3 1.4h-1.7c-.4 0-.6.3-.6.7v3.1c0 1.4 1.1 2.6 2.6 2.6h3c.4 0 .6-.3.6-.7v-1.7c0-.8.5-1.3 1.4-1.3.9 0 1.4.5 1.4 1.3v1.8c0 .4.3.7.6.7h2.9c.7 0 1.3-.3 1.8-.8s.7-1.1.7-1.8v-2.5h1c1 0 2.5-.7 2.5-2.6.2-1.8-1.3-2.5-2.4-2.5Zm0 3.9h-1.7c-.2 0-.3.1-.5.2s-.2.3-.2.5v3.1c0 .3-.1.7-.4.9-.2.2-.6.4-.9.4h-2.1v-1.2c0-1.5-1.1-2.6-2.7-2.6s-2.7 1.1-2.7 2.6v1.1h-2.3c-.7 0-1.3-.6-1.3-1.3v-2.4h1c1.5 0 2.6-1.1 2.6-2.7s-1-2.8-2.6-2.8h-1.1v-2.2c0-.7.6-1.3 1.3-1.3h3.1c.2 0 .3-.1.5-.2.1 0 .2-.2.2-.4v-1.7c0-.3.1-1.2 1.3-1.2s1.3 1 1.3 1.2v1.7c0 .4.3.6.6.6h3.1c.7 0 1.3.6 1.3 1.3v3.1c0 .4.3.6.7.6h1.7c.3 0 1.2.1 1.2 1.3s-1.1 1.4-1.4 1.4Z"/>
</g></svg>