<svg xmlns="http://www.w3.org/2000/svg" data-laicon-version="15.0" viewBox="0 0 20 20" fill="black"><g transform="translate(-2 -2)">
  <path d="M10.8115 9.163h2.109V3.5h-2.109v5.663ZM3.5 13.075h2.4457v-2.1073H3.5v2.1073Zm13.0336-2.1071h-1.6997v3.8679h-1.8288v-3.8679h-5.051v2.1074h2.8577v7.4234h2.1933v-4.0094h3.5285v-3.414h3.9656v-2.1074h-3.9656Z"/>
  <path d="M5.2014 7.4638V5.1982h2.2663v2.2656H5.2014ZM7.7092 3.5H4.957c-.8012 0-1.457.6558-1.457 1.4568V9.163h5.6662V3.5h-1.457ZM5.2014 18.801v-2.2656h2.2663v2.2656H5.2014Zm3.9649 1.6989v-5.6643H3.5v4.2066c0 .8009.6558 1.4577 1.4571 1.4577h4.2091Zm7.3669-13.0361V5.1982h2.2662v2.2656h-2.2662ZM14.834 3.5v5.663h5.6662V4.9568c0-.801-.6558-1.4568-1.4571-1.4568H14.834ZM18.2317 14.8356v3.3961H14.834v2.2669h4.214c.7974-.0026 1.4493-.6545 1.4516-1.4519v-4.2111h-2.2679Z"/>
</g></svg>