<svg xmlns="http://www.w3.org/2000/svg" data-laicon-version="15.0" viewBox="0 0 20 20" fill="black"><g transform="translate(-2 -2)">
  <path d="M12.0002 7.6304c-1.52 0-2.76 1.24-2.76 2.76h1.3c0-.8.65-1.46 1.46-1.46.49 0 .99.23 1.27.58.22.27.28.6.2.96-.1.42-.36.61-.81.89l-.0115.0074c-.5589.3592-1.3085.841-1.3085 2.0626v.33h1.3v-.33c0-.5.21-.65.72-.98.49-.31 1.15-.74 1.37-1.7.17-.75.01-1.48-.45-2.06-.52-.66-1.4-1.07-2.29-1.07l.01.01Zm.0097 7.1299c-.5 0-.9.4-.9.9s.4.9.9.9.9-.4.9-.9-.4-.9-.9-.9Z"/>
  <path d="M2.75 12.0003c0-5.1 4.15-9.25 9.25-9.25s9.25 4.15 9.25 9.25-4.15 9.25-9.25 9.25-9.25-4.15-9.25-9.25Zm1.3 0c0 4.38 3.57 7.95 7.95 7.95 4.38 0 7.95-3.57 7.95-7.95 0-4.38-3.57-7.95-7.95-7.95-4.38 0-7.95 3.57-7.95 7.95Z"/>
</g></svg>