<svg xmlns="http://www.w3.org/2000/svg" data-laicon-version="15.0" viewBox="0 0 20 20" fill="black"><g transform="translate(-2 -2)">
  <path d="M19.4 20.5H4.6c-.6 0-1.1-.5-1.1-1.2V4.6c0-.6.5-1.2 1.1-1.2h14.8c.6 0 1.2.5 1.2 1.1v14.8c0 .7-.6 1.2-1.2 1.2ZM4.8 19.2h14.5V4.7H4.8v14.5Z"/>
  <path d="M12.6997 13.8h-1.3v-.3c0-1.2.8-1.7 1.3-2.1.4-.3.7-.5.8-.9.1-.4 0-.7-.2-1-.3-.3-.8-.6-1.3-.6-.8 0-1.5.7-1.5 1.5h-1.3c0-1.5 1.2-2.8 2.8-2.8.9 0 1.8.4 2.3 1.1.5.6.6 1.3.5 2.1-.2 1-.9 1.4-1.4 1.7-.5.3-.7.5-.7 1v.3Zm-.6996 1c-.5 0-.9.4-.9.9s.4.9.9.9.9-.4.9-.9-.4-.9-.9-.9Z"/>
</g></svg>