<svg xmlns="http://www.w3.org/2000/svg" data-laicon-version="16.13" viewBox="0 0 20 20" fill="black"><g transform="translate(-2 -2)">
  <path d="M13.028 7.7c1.653 0 3.05 1.349 2.661 3.043-.158.688-.482 1.075-1.107 1.5l-.26.17c-.5.32-.64.47-.66.827l-.003.102v.326h-1.263v-.326c0-.905.33-1.374 1.087-1.889l.255-.165c.479-.308.641-.482.72-.828.188-.815-.519-1.497-1.43-1.497-.736 0-1.34.56-1.409 1.278l-.006.137H10.35A2.678 2.678 0 0 1 13.028 7.7Zm-.863 7.79a.874.874 0 1 1 1.749 0 .874.874 0 0 1-1.749 0Z"/>
  <path d="M5.06 4.59c0-.635.517-1.15 1.152-1.15h13.752a1.15 1.15 0 0 1 1.151 1.15v14.82a1.15 1.15 0 0 1-1.151 1.15H6.212a1.15 1.15 0 0 1-1.151-1.15v-3.312H2.89v-1.3h2.17V9.312H2.89v-1.3h2.17V4.591Zm1.3.15v14.52h13.455V4.74H6.361Z"/>
</g></svg>