<svg xmlns="http://www.w3.org/2000/svg" data-laicon-version="15.0" viewBox="0 0 20 20" fill="black"><g transform="translate(-2 -2)">
  <path d="M3.7502 5.5817v12.8365h16.5V5.5817h-16.5Zm-1.3-.15c0-.634.516-1.15 1.15-1.15h16.8c.634 0 1.15.516 1.15 1.15v13.1365c0 .6342-.5161 1.15-1.15 1.15h-16.8c-.634 0-1.15-.516-1.15-1.15V5.4317Z"/>
  <path d="M20.9001 9.0943h-17.8v-1.3h17.8v1.3ZM8.222 14.0398a1.3793 1.3793 0 0 1 .273-.0276c.591 0 1.0962.3943 1.1989 1.0434.0162.1026.0225.2078.0234.3118.0016.181.0015.362.0014.5431-.0001.1455-.0002.291.0006.4366.0003.0472-.0113.0653-.0595.0653l-.0036-.0001a13.717 13.717 0 0 0-.2485-.002c-.0868 0-.1735.0006-.2602.0017h-.0031c-.0442 0-.0611-.0147-.0581-.0607a1.3795 1.3795 0 0 0 .0012-.1066 4.643 4.643 0 0 1-.0005-.0625 2.3742 2.3742 0 0 1-.0456.0305.6774.6774 0 0 0-.068.0484c-.1797.1536-.3876.2166-.5914.2166-.2545 0-.5027-.098-.682-.2402-.2646-.2099-.4185-.4842-.4607-.8198-.0834-.6631.3252-1.2459.9828-1.3779Zm.2463 1.8032h.0013c.3295 0 .6045-.2731.6048-.6009.0003-.3272-.2753-.6019-.6038-.6019h-.0012c-.3276.0007-.5973.272-.5974.601-.0001.3293.269.6011.5963.6018Zm1.5839-2.8028h.6376v1.1842c.1783-.1447.3778-.2216.6001-.2216.6836 0 1.2377.5541 1.2377 1.2378 0 .6835-.5541 1.2377-1.2377 1.2377-.6835 0-1.2377-.5542-1.2377-1.2377l.0003-.0015-.0003-2.1989Zm.6376 2.2003a.6001.6001 0 0 0 1.2003 0 .6003.6003 0 1 0-1.2003 0Zm2.133-2.2003h.6376v1.1842c.1783-.1447.3778-.2216.6001-.2216.6836 0 1.2377.5541 1.2377 1.2378 0 .6835-.5541 1.2377-1.2377 1.2377-.6835 0-1.2377-.5542-1.2377-1.2377l.0003-.0015-.0003-2.1989Zm.6377 2.2003a.6001.6001 0 0 0 1.2003 0 .6003.6003 0 1 0-1.2003 0ZM16.2724 14.0796h-.6376v2.3401h.6376v-2.3401Zm1.0376-1.0394h-.6376v2.6577c0 .3987.3232.7218.7218.7218h.5433v-.542h-.329a.2986.2986 0 0 1-.2985-.2986v-.9388h.6275v-.5607H17.31v-1.0394Zm-10.2262.9624-.056.0001c-.6684 0-1.2104.5419-1.2104 1.2104v1.2065h.6376v-1.2065a.573.573 0 0 1 .5729-.5729l.0559-.0001v-.6375Z"/>
</g></svg>