<svg xmlns="http://www.w3.org/2000/svg" data-laicon-version="15.0" viewBox="0 0 20 20" fill="black"><g transform="translate(-2 -2)">
  <path d="M9.4402 8.484a.65.65 0 0 1 .6553.0094l4.9 2.9545a.65.65 0 0 1-.0024 1.1147l-4.9 2.9255a.65.65 0 0 1-.9832-.5581V9.05a.65.65 0 0 1 .3303-.566Zm.9697 1.7169v3.584l2.9866-1.7831-2.9866-1.8009Z"/>
  <path d="M4.8999 4.5c0-.718.582-1.3 1.3-1.3h11.6c.718 0 1.3.582 1.3 1.3v14.8999c0 .718-.582 1.3-1.3 1.3h-11.6c-.718 0-1.3-.582-1.3-1.3v-14.9Zm12.9 0h-11.6v14.8999h11.6v-14.9Z"/>
</g></svg>