<svg xmlns="http://www.w3.org/2000/svg" data-laicon-version="17.2" viewBox="0 0 20 20" fill="black"><g transform="translate(-2 -2)">
  <path d="M3.85 5c0-.635.515-1.15 1.15-1.15h5.25c.635 0 1.15.515 1.15 1.15v7a1.15 1.15 0 0 1-1.15 1.15H5A1.15 1.15 0 0 1 3.85 12V5Zm1.3.15v6.7h4.95v-6.7H5.15ZM12.6 5c0-.635.515-1.15 1.15-1.15H19c.635 0 1.15.515 1.15 1.15v3.75A1.15 1.15 0 0 1 19 9.9h-5.25a1.15 1.15 0 0 1-1.15-1.15V5Zm1.3.15V8.6h4.95V5.15H13.9ZM3.85 15.25c0-.635.515-1.15 1.15-1.15h5.25c.635 0 1.15.515 1.15 1.15V19a1.15 1.15 0 0 1-1.15 1.15H5A1.15 1.15 0 0 1 3.85 19v-3.75Zm1.3.15v3.45h4.95V15.4H5.15ZM12.6 12c0-.635.515-1.15 1.15-1.15H19c.635 0 1.15.515 1.15 1.15v7A1.15 1.15 0 0 1 19 20.15h-5.25A1.15 1.15 0 0 1 12.6 19v-7Zm1.3.15v6.7h4.95v-6.7H13.9Z"/>
</g></svg>