<svg xmlns="http://www.w3.org/2000/svg" data-laicon-version="15.0" viewBox="0 0 20 20" fill="black"><g transform="translate(-2 -2)">
  <path d="m16.0001 5-4 3V5.65c-1.11 0-2.21.29-3.17.85s-1.77 1.36-2.32 2.32c-.56.97-.86 2.07-.86 3.17s.3 2.2.86 3.17a6.4497 6.4497 0 0 0 2.32 2.32c1.94 1.12 4.41 1.12 6.34 0 .96-.56 1.77-1.36 2.32-2.32.56-.96.85-2.06.85-3.17 0-1.11-.3-2.21-.85-3.17l1.12-.65a7.6793 7.6793 0 0 1 1.03 3.82 7.672 7.672 0 0 1-7.65 7.65l.01.01a7.672 7.672 0 0 1-7.65-7.65 7.672 7.672 0 0 1 7.65-7.65V2l4 3Z"/>
</g></svg>