<svg xmlns="http://www.w3.org/2000/svg" data-laicon-version="15.0" viewBox="0 0 20 20" fill="black"><g transform="translate(-2 -2)">
  <path d="M12.0001 5.15c-3.7831 0-6.85 3.0668-6.85 6.85 0 3.7832 3.0669 6.85 6.85 6.85 3.7832 0 6.85-3.0668 6.85-6.85h1.3c0 4.5011-3.6489 8.15-8.15 8.15-4.5011 0-8.15-3.6489-8.15-8.15 0-4.5011 3.6489-8.15 8.15-8.15 2.4885 0 4.7169 1.116 6.2108 2.8726l-.9903.8422C15.9632 6.0863 14.0913 5.15 12.0001 5.15Z"/>
  <path d="M19.6001 8.7V5.5242c0-.2672-.3231-.401-.5121-.2121l-3.1758 3.1757c-.189.189-.0551.5122.2122.5122h3.1757a.3.3 0 0 0 .3-.3Zm-4.9745 3.0504c.1781.1187.1781.3805 0 .4992l-3.6592 2.4395c-.1994.1329-.4664-.01-.4664-.2497V9.5605c0-.2396.267-.3825.4664-.2496l3.6592 2.4395Z"/>
</g></svg>