<svg xmlns="http://www.w3.org/2000/svg" data-laicon-version="15.0" viewBox="0 0 20 20" fill="black"><g transform="translate(-2 -2)">
  <path d="M4.0703 8.1298c.9662-1.0037 2.4417-1.6274 4.471-1.6274h7.0773v1.3H8.5414c-1.7551 0-2.8633.5317-3.5346 1.229-.6792.7055-.9827 1.6549-.9827 2.6144 0 .7892.0904 1.5.3666 2.1805.2747.6765.7495 1.3628 1.575 2.0758l-.8496.9839c-.9585-.8278-1.5672-1.6773-1.9299-2.5707-.361-.8893-.462-1.7823-.462-2.6695 0-1.2231.3878-2.5205 1.346-3.516Z"/>
  <path d="m13.1497 3.7642 3.3883 3.3883-3.3883 3.3883-.9192-.9192 2.4691-2.4691-2.4691-2.4691.9192-.9192Zm6.78 12.114c-.9662 1.0037-2.4417 1.6274-4.4711 1.6274H8.3813v-1.3h7.0773c1.7551 0 2.8632-.5317 3.5345-1.229.6792-.7055.9827-1.6548.9827-2.6143 0-.7892-.0903-1.5001-.3666-2.1805-.2746-.6765-.7494-1.3629-1.575-2.0758l.8497-.984c.9585.8278 1.5671 1.6774 1.9298 2.5707.3611.8894.4621 1.7823.4621 2.6696 0 1.2231-.3878 2.5205-1.3461 3.5159Z"/>
  <path d="m10.8927 20.2395-3.4371-3.3826 3.4359-3.4001.9144.924-2.4996 2.4735 2.4983 2.4587-.9119.9265Z"/>
</g></svg>