<svg xmlns="http://www.w3.org/2000/svg" data-laicon-version="15.0" viewBox="0 0 20 20" fill="black"><g transform="translate(-2 -2)">
  <path d="M11.0986 4.092c.4021.2575.7855.7356.7855 1.3638v1.5793c6.7727.618 9.8723 5.4351 9.8815 8.5454.05 1.2424-.3131 2.328-.6754 3.0899a7.5988 7.5988 0 0 1-.5119.9107 5.806 5.806 0 0 1-.1759.253 3.7672 3.7672 0 0 1-.0532.0704l-.016.0204-.0051.0065-.0019.0023-.0007.0009c-.0001.0001-.0006.0007-.5056-.4085l.5056.4085a.6512.6512 0 0 1-.693.2139.65.65 0 0 1-.4596-.5601c-.2139-2.2215-1.7046-3.5398-3.3717-4.3375-1.6732-.8006-3.4136-1.015-3.8417-1.0527l-.0281-.0025c.0005.036.0008.0737.0008.1132v1.6197c0 .6398-.3951 1.2074-.947 1.4667-.5904.2774-1.3068.1878-1.9049-.3447l-6.3476-5.1378a.6544.6544 0 0 1-.0485-.0435c-.324-.321-.449-.7836-.4545-1.1618-.0051-.3517.0952-.869.521-1.1738l6.773-5.4857a.6491.6491 0 0 1 .0626-.0449c.5245-.3304 1.1395-.1497 1.5123.089Zm8.9689 13.676c.2424-.5992.4331-1.3405.3988-2.1459a.6353.6353 0 0 1-.0006-.0276c0-2.438-2.6695-6.9636-9.2652-7.305a.65.65 0 0 1-.6164-.6492V5.4558c0-.0685-.0476-.18-.1865-.269-.0559-.0357-.1065-.0533-.1406-.0598l-6.7062 5.4317a.2398.2398 0 0 1-.0064.005c-.0076.0242-.0157.0667-.0149.1249a.583.583 0 0 0 .032.1831.3063.3063 0 0 0 .0302.0639l6.3193 5.1149a.7414.7414 0 0 1 .0272.0233c.1313.1188.2375.1581.3068.1698a.3084.3084 0 0 0 .1873-.0249c.1271-.0597.1999-.1877.1999-.2901v-1.6197c0-.1584-.0048-.2702-.0093-.3739a10.465 10.465 0 0 1-.0058-.1509c-.0017-.0642-.0033-.1583.0093-.2525.0122-.0919.0476-.2687.1877-.4282.1525-.1737.3421-.2307.4675-.2495.1124-.0168.2189-.0098.2831-.0046.061.005.132.0133.1994.0212l.0305.0036a9.633 9.633 0 0 0 .2791.0291c.4969.0438 2.4137.2779 4.2886 1.175 1.4718.7042 2.9847 1.8543 3.7052 3.6898ZM10.227 5.1239l.0014-.0001h-.0014Z"/>
</g></svg>