<svg xmlns="http://www.w3.org/2000/svg" data-laicon-version="15.0" viewBox="0 0 20 20" fill="black"><g transform="translate(-2 -2)">
  <path d="M3.7397 9.5875a.65.65 0 0 1 .5016-.2367h6.6597a.6497.6497 0 0 1 .638.7743L9.4686 20.7517a.65.65 0 0 1-.638.5257H6.3117a.65.65 0 0 1-.638-.5257L3.6033 10.1251a.65.65 0 0 1 .1364-.5376Zm1.2905 1.0633 1.817 9.3266H8.295l1.8171-9.3266h-5.082Zm2.541-6.4746c-.793 0-1.4358.6428-1.4358 1.4357 0 .793.6428 1.4357 1.4358 1.4357.7929 0 1.4356-.6428 1.4356-1.4357 0-.7929-.6427-1.4357-1.4356-1.4357ZM4.8354 5.612c0-1.5109 1.2249-2.7357 2.7358-2.7357 1.5108 0 2.7356 1.2248 2.7356 2.7357 0 1.511-1.2248 2.7357-2.7357 2.7357-1.5108 0-2.7357-1.2248-2.7357-2.7357Zm9.6957 4.2645a.65.65 0 0 1 .638-.5257h2.5189a.65.65 0 0 1 .638.5257l2.0704 10.6266a.6499.6499 0 0 1-.638.7743h-6.6597a.6499.6499 0 0 1-.638-.7743l2.0704-10.6266Zm1.1736.7743-1.8171 9.3266h5.0819l-1.8171-9.3266h-1.4477Zm.7239-6.4746c-.7929 0-1.4357.6428-1.4357 1.4357 0 .793.6428 1.4357 1.4357 1.4357.7929 0 1.4357-.6428 1.4357-1.4357 0-.7929-.6428-1.4357-1.4357-1.4357ZM13.6929 5.612c0-1.5109 1.2248-2.7357 2.7357-2.7357s2.7357 1.2248 2.7357 2.7357c0 1.511-1.2248 2.7357-2.7357 2.7357s-2.7357-1.2248-2.7357-2.7357Z"/>
</g></svg>