<svg xmlns="http://www.w3.org/2000/svg" data-laicon-version="15.0" viewBox="0 0 20 20" fill="black"><g transform="translate(-2 -2)">
  <path d="M5.21 8.23c0-.9113.7387-1.65 1.65-1.65h10.27c.9113 0 1.65.7387 1.65 1.65v10.26c0 .9112-.7387 1.65-1.65 1.65H6.86c-.9113 0-1.65-.7388-1.65-1.65V8.23Zm1.65-.35a.35.35 0 0 0-.35.35v10.26a.35.35 0 0 0 .35.35h10.27a.35.35 0 0 0 .35-.35V8.23a.35.35 0 0 0-.35-.35H6.86Z"/>
  <path d="M9.3678 11.2852c-.5542 0-1.0035.4494-1.0035 1.0036 0 .5543.4493 1.0036 1.0035 1.0036s1.0034-.4493 1.0034-1.0036c0-.5542-.4492-1.0036-1.0034-1.0036Zm5.2656.0001c-.5542 0-1.0035.4493-1.0035 1.0035 0 .5543.4493 1.0036 1.0035 1.0036s1.0035-.4493 1.0035-1.0036c0-.5542-.4493-1.0035-1.0035-1.0035ZM6.1951 11.0801c-1.4056 0-2.545 1.1394-2.545 2.545 0 1.4055 1.1394 2.545 2.545 2.545v1.3c-2.1235 0-3.845-1.7215-3.845-3.845 0-2.1236 1.7215-3.845 3.845-3.845v1.3Zm14.1551 2.545c0-1.4056-1.1394-2.545-2.545-2.545v-1.3c2.1235 0 3.845 1.7214 3.845 3.845 0 2.1235-1.7215 3.845-3.845 3.845v-1.3c1.4056 0 2.545-1.1395 2.545-2.545Zm-9.003-6.7222V3.9286h1.3v2.9743h-1.3Z"/>
</g></svg>