<svg xmlns="http://www.w3.org/2000/svg" data-laicon-version="15.0" viewBox="0 0 20 20" fill="black"><g transform="translate(-2 -2)">
  <path d="M14.8001 6.25a2.9502 2.9502 0 0 0-2.086 5.036 2.9503 2.9503 0 0 0 4.172 0 2.9503 2.9503 0 0 0 0-4.172 2.9502 2.9502 0 0 0-2.086-.864Zm-1.65 2.95a1.6504 1.6504 0 0 1 1.0186-1.5244 1.6498 1.6498 0 0 1 1.7981 2.6911 1.6496 1.6496 0 0 1-2.3334 0A1.6496 1.6496 0 0 1 13.1501 9.2Z"/>
  <path d="M20.1001 2.396c.326.06.695.18.96.444.263.263.384.633.447.96.067.346.088.752.075 1.184-.025.869-.187 1.93-.464 3.025-.546 2.158-1.5779 4.614-3.0499 6.043-.65.716-1.53 1.395-2.513 1.957.289 1.219.2459 2.269-.2001 3.148-.503.99-1.4469 1.62-2.6159 2.047-.817.345-2.0821.495-2.992.508-.45.006-.908-.018-1.215-.11a1.0937 1.0937 0 0 1-.297-.135.7467.7467 0 0 1-.33-.51.7423.7423 0 0 1 .194-.608c.086-.094.186-.16.266-.207.983-.628 1.303-1.198 1.416-1.66.085-.345.071-.663.035-1.022a4.9847 4.9847 0 0 1-.685-.133l-.168-.045-2.345-2.345-.046-.168a4.694 4.694 0 0 1-.121-.62c-.355-.048-.68-.06-1.007.029-.444.12-.994.456-1.58 1.446-.046.08-.112.183-.206.271a.7384.7384 0 0 1-.617.2.7381.7381 0 0 1-.515-.352 1.0958 1.0958 0 0 1-.12-.297c-.08-.302-.093-.756-.08-1.202.025-.915.179-2.169.462-2.963l.001-.003c.428-1.178 1.061-2.128 2.054-2.633.885-.449 1.944-.489 3.174-.194.576-.965 1.25-1.837 1.92-2.506 1.4209-1.474 3.8539-2.537 5.9949-3.11 1.083-.29 2.132-.466 2.991-.502a5.385 5.385 0 0 1 1.177.063Zm-7.3629 13.439c.256-.08.5129-.172.7699-.276 1.453-.583 2.7891-1.482 3.6101-2.394l.0149-.017.017-.016c1.22-1.174 2.181-3.358 2.708-5.441.26-1.03.404-1.994.426-2.744.011-.377-.01-.68-.052-.9-.038-.195-.083-.271-.091-.287-.016-.008-.09-.05-.277-.086a4.1228 4.1228 0 0 0-.886-.042c-.74.03-1.692.186-2.709.458-2.057.551-4.221 1.537-5.4 2.76l-.008.01c-.891.89-1.82 2.222-2.44 3.638a9.259 9.259 0 0 0-.567 1.706 4.929 4.929 0 0 0-.105 1.346l.057.735 1.826 1.827.055.011-.002-.026.763.054c.706.05 1.4921-.074 2.2901-.316Zm-1.6121 1.645c.03.393.032.85-.081 1.312-.135.552-.42 1.09-.925 1.606.773-.043 1.6271-.183 2.1251-.396l.0169-.007.017-.006c1.024-.372 1.623-.841 1.918-1.421.233-.46.32-1.079.16-1.946-.405.174-.825.33-1.25.46a9.2985 9.2985 0 0 1-1.981.398Zm-4.688-4.642c.03-.3.078-.6.144-.9.155-.761.429-1.543.776-2.298-.857-.155-1.47-.067-1.925.165-.58.294-1.048.893-1.42 1.915-.176.493-.306 1.31-.361 2.058.46-.449.948-.72 1.455-.856a3.643 3.643 0 0 1 1.331-.084Z"/>
</g></svg>