<svg xmlns="http://www.w3.org/2000/svg" data-laicon-version="15.0" viewBox="0 0 20 20" fill="black"><g transform="translate(-2 -2)">
  <path d="M7.1297 4.4497h9.7405c1.48 0 2.6797 1.1997 2.6797 2.6797v9.7414c0 1.48-1.1997 2.6798-2.6798 2.6798H7.1407l-.0115-.0001c-1.4797 0-2.6793-1.1996-2.6793-2.6793V7.1295c0-1.48 1.1998-2.6798 2.6798-2.6798Zm-.013 16.4008.0125.0001h9.7409c2.198 0 3.9798-1.7818 3.9798-3.9798V7.1294c0-2.198-1.7818-3.9797-3.9797-3.9797H7.1297c-2.198 0-3.9798 1.7818-3.9798 3.9798v9.7417c0 2.1935 1.7748 3.9725 3.9668 3.9793Z"/>
  <path d="M12.0359 8.4824c-1.5064 0-2.5188.8298-2.5188 2.065 0 1.0158.5921 1.6433 1.8112 1.9175l.8435.1936c.7901.184 1.1133.4271 1.1133.8406 0 .4858-.5145.8381-1.222.8381-.7698 0-1.3094-.3407-1.3745-.8682l-.0107-.0873H9.3491l.0058.1044c.0602 1.2293 1.0949 2.0237 2.6363 2.0237 1.6375 0 2.6547-.8255 2.6547-2.1548 0-1.0488-.5834-1.6278-1.952-1.936l-.7483-.1713c-.9299-.2126-1.059-.5013-1.059-.7819 0-.4955.4494-.8153 1.1454-.8153.6649 0 1.1249.3246 1.1997.8474l.0117.0854h1.3046l-.0059-.1044c-.0572-1.1753-1.0871-1.9965-2.5062-1.9965Z"/>
</g></svg>