<svg xmlns="http://www.w3.org/2000/svg" data-laicon-version="16.11" viewBox="0 0 20 20" fill="black"><g transform="translate(-2 -2)">
  <path d="m5.22 10.98.18.06 3.2.97-3.2.96c-.06.02-.13.04-.19.06-.85.28-1.56.78-2.02 1.4-.46.62-.69 1.41-.44 2.19.25.78.9 1.28 1.64 1.51.74.23 1.61.22 2.46-.06.85-.28 1.56-.78 2.02-1.4.46-.62.69-1.41.44-2.19a2.03 2.03 0 0 0-.196-.438c-.112-.188-.047-.453.16-.524l2.046-.698 8.93 2.69c.32.1.65-.08.76-.4a.62.62 0 0 0-.38-.77l-6.9-2.35 6.9-2.35c.32-.11.49-.45.38-.77a.616.616 0 0 0-.76-.4l-8.93 2.69-2.046-.698c-.207-.071-.272-.336-.16-.524.08-.134.147-.28.196-.438.25-.78.02-1.57-.44-2.19-.46-.62-1.17-1.12-2.02-1.4-.85-.28-1.72-.29-2.46-.06-.74.23-1.39.73-1.64 1.51s-.02 1.57.44 2.19c.46.62 1.17 1.12 2.02 1.4l.01.03Zm.4-1.24c-.62-.2-1.1-.56-1.38-.94-.28-.38-.34-.74-.25-1.01.08-.27.34-.53.79-.67.45-.15 1.05-.15 1.67.05.62.2 1.1.56 1.38.94.28.38.34.74.25 1.01-.08.27-.34.53-.79.67-.45.15-1.05.15-1.67-.05Zm0 4.52c.62-.2 1.22-.2 1.67-.05.45.14.71.4.79.67.09.27.03.63-.25 1.01s-.76.74-1.38.94c-.62.2-1.22.2-1.67.05-.45-.14-.71-.4-.79-.67-.09-.27-.03-.63.25-1.01s.76-.74 1.38-.94Z"/>
</g></svg>