<svg xmlns="http://www.w3.org/2000/svg" data-laicon-version="15.3" viewBox="0 0 20 20" fill="black"><g transform="translate(-2 -2)">
  <path d="M7.607 13.263c-.021-.07.007-.119.077-.14l.97-.238c.064-.014.113.007.14.07.155.37.414.525.826.525.335 0 .566-.113.566-.35 0-.259-.224-.385-.65-.538l-.531-.189c-.783-.273-1.28-.783-1.28-1.544 0-.915.819-1.559 1.839-1.559.859 0 1.544.392 1.83 1.265.029.07-.006.126-.07.14l-1.02.273c-.07.02-.111-.008-.14-.07-.153-.364-.363-.461-.621-.461-.28 0-.49.126-.49.341 0 .217.189.365.714.538l.384.126c.909.308 1.356.769 1.356 1.615 0 .909-.79 1.558-1.922 1.558-.972 0-1.691-.482-1.978-1.362Zm4.568-3.753v4.906c0 .07.042.112.112.112h1.894c1.656 0 2.6-.915 2.6-2.565 0-1.664-.944-2.565-2.6-2.565h-1.894c-.07 0-.112.042-.112.112Zm1.286 3.816V10.6h.594c.908 0 1.398.447 1.398 1.363 0 .915-.49 1.363-1.398 1.363h-.594Z"/>
  <path d="M3.45 4.6c0-.635.515-1.15 1.15-1.15h14.8c.635 0 1.15.515 1.15 1.15v14.8a1.15 1.15 0 0 1-1.15 1.15H4.6a1.15 1.15 0 0 1-1.15-1.15V4.6Zm1.3.15v14.5h14.5V4.75H4.75Z"/>
</g></svg>