<svg xmlns="http://www.w3.org/2000/svg" data-laicon-version="15.0" viewBox="0 0 20 20" fill="black"><g transform="translate(-2 -2)">
  <path d="m19.8906 20.8096-5.6723-5.6723.9192-.9192 5.6723 5.6723-.9192.9192Z"/>
  <path d="M10.2564 4.65c-3.0963 0-5.6063 2.51-5.6063 5.6063 0 3.0963 2.51 5.6063 5.6063 5.6063 3.0963 0 5.6063-2.51 5.6063-5.6063 0-3.0963-2.51-5.6063-5.6063-5.6063Zm-6.9063 5.6063c0-3.8143 3.092-6.9063 6.9063-6.9063 3.8142 0 6.9063 3.092 6.9063 6.9063 0 3.8142-3.0921 6.9063-6.9063 6.9063s-6.9063-3.0921-6.9063-6.9063Z"/>
  <path d="M13.8143 10.9063H6.6987v-1.3h7.1156v1.3Z"/>
</g></svg>