<svg xmlns="http://www.w3.org/2000/svg" data-laicon-version="15.0" viewBox="0 0 20 20" fill="black"><g transform="translate(-2 -2)">
  <path d="M7.5031 16.73h-1.3v1.3h1.3v-1.3Zm-1.3-5.38h1.3v1.3h-1.3v-1.3Zm1.3-5.38h-1.3v1.3h1.3v-1.3Z"/>
  <path d="M4.3781 3.277c-.637 0-1.154.517-1.154 1.154v15.137c0 .637.517 1.154 1.154 1.154h15.245c.637 0 1.154-.517 1.154-1.154V4.43c0-.637-.517-1.154-1.154-1.154H4.3781v.001Zm.146 16.145V15.34h14.953v4.082H4.5241Zm14.953-5.382H4.5241V9.96h14.953v4.082-.002Zm0-5.381H4.5241V4.577h14.953v4.082Z"/>
</g></svg>