<svg xmlns="http://www.w3.org/2000/svg" data-laicon-version="15.0" viewBox="0 0 20 20" fill="black"><g transform="translate(-2 -2)">
  <path d="M7.2692 7.399h-1.3v-1.3h1.3v1.3Zm-1.3 5.251v-1.3h1.3v1.3h-1.3Zm0 3.948h1.3v1.3h-1.3v-1.3Z"/>
  <path d="M4.09 3.45c-.6352 0-1.15.515-1.15 1.15v14.8001c0 .6351.5148 1.15 1.15 1.15h6.2598v-1.3H4.2399V15.29h6.1099v-1.3H4.2399v-3.9799H18.76v3.6901h1.3V4.6001c0-.6352-.5149-1.15-1.15-1.15H4.09Zm.15 5.26V4.75h14.52v3.96H4.24Z"/>
  <path d="m13.5764 16.1466 1.0152.8121-1.3594 1.6992 1.3594 1.6992-1.0152.8121-2.009-2.5113 2.009-2.5113Zm5.6468 0-1.0152.8121 1.3594 1.6992-1.3594 1.6992 1.0152.8121 2.009-2.5113-2.009-2.5113Zm-4.3936 5.4824 1.8947-6.3158 1.2452.3736-1.8948 6.3158-1.2451-.3736Z"/>
</g></svg>