<svg xmlns="http://www.w3.org/2000/svg" data-laicon-version="15.0" viewBox="0 0 20 20" fill="black"><g transform="translate(-2 -2)">
  <path d="M19.254 11.2V4.743H4.736v9.241h6.5645v1.3H4.736v3.977h6.5645v1.3H4.586c-.635 0-1.15-.5149-1.15-1.15V4.593c0-.6351.515-1.15 1.15-1.15h14.818c.6351 0 1.15.5149 1.15 1.15V11.2h-1.3Z"/>
  <path d="M13.8503 13.75v6.6905h6.69V13.75h-6.69Zm-1.3-.3971a.903.903 0 0 1 .9029-.9029h7.4842a.903.903 0 0 1 .9029.9029v7.4847a.9028.9028 0 0 1-.9029.9029h-7.4842a.9028.9028 0 0 1-.9029-.9029v-7.4847ZM7.7702 6.096h-1.3v1.3h1.3v-1.3Zm0 5.251h-1.3v1.3h1.3v-1.3Zm0 5.248h-1.3v1.3h1.3v-1.3ZM19.8432 10.01H4.4712v-1.3h15.372v1.3Z"/>
  <path d="M18.7807 15.1746c-.3705 0-.6713.2996-.6713.67 0 .3703.3008.6699.6713.6699s.6714-.2997.6714-.6699c0-.3704-.3009-.67-.6714-.67Zm.3491 3.8226-2.1725-3.387-2.1726 3.387h4.3451Z"/>
</g></svg>