<svg xmlns="http://www.w3.org/2000/svg" data-laicon-version="15.0" viewBox="0 0 20 20" fill="black"><g transform="translate(-2 -2)">
  <path d="M13.8403 7.1123h-1.25v-1.3h1.25v1.3Zm3.9965 0h-1.2455v-1.3h1.2455v1.3Zm-3.2465 0h1.25v-1.3h-1.25v1.3Zm3.2465 5.5335h-1.2455v-1.3h1.2455v1.3Zm-5.2465 0h1.25v-1.3h-1.25v1.3Zm3.25 0h-1.25v-1.3h1.25v1.3Zm.751 5.4307h1.2455v-1.3h-1.2455v1.3Zm-2.751 0h-1.25v-1.3h1.25v1.3Zm.75 0h1.25v-1.3h-1.25v1.3Z"/>
  <path d="M3.2236 4.4255c0-.6351.5149-1.15 1.15-1.15h15.2528c.6351 0 1.15.5149 1.15 1.15v15.1491c0 .6351-.5149 1.15-1.15 1.15H4.3736c-.6351 0-1.15-.5149-1.15-1.15V4.4256Zm1.3.15v14.8491h14.9528V4.5756H4.5236Z"/>
  <path d="M20.449 9.9559H4.1963v-1.3H20.449v1.3Zm0 5.3789H4.1963v-1.3H20.449v1.3Z"/>
</g></svg>