<svg xmlns="http://www.w3.org/2000/svg" data-laicon-version="15.0" viewBox="0 0 20 20" fill="black"><g transform="translate(-2 -2)">
  <path d="M16.2839 16.3978c-.7511 0-1.3599.6088-1.3599 1.3599 0 .7511.6088 1.3599 1.3599 1.3599.7511 0 1.3599-.6088 1.3599-1.3599 0-.7511-.6088-1.3599-1.3599-1.3599Zm-2.6599 1.3599c0-1.469 1.1909-2.6599 2.6599-2.6599 1.469 0 2.6599 1.1909 2.6599 2.6599 0 1.469-1.1909 2.6599-2.6599 2.6599-1.469 0-2.6599-1.1909-2.6599-2.6599Zm-6.908-7.1114c-.751 0-1.3598.6088-1.3598 1.3599 0 .7511.6088 1.3599 1.3598 1.3599.7511 0 1.36-.6088 1.36-1.3599 0-.7511-.6089-1.3599-1.36-1.3599Zm-2.6599 1.3599c0-1.469 1.191-2.6599 2.66-2.6599s2.6598 1.1909 2.6598 2.6599c0 1.469-1.1908 2.6599-2.6598 2.6599s-2.66-1.1909-2.66-2.6599Z"/>
  <path d="m14.2215 17.311-6.1937-3.5759.65-1.1258 6.1937 3.5759-.65 1.1258Zm2.0624-12.4162c-.7511 0-1.3599.6089-1.3599 1.36 0 .751.6088 1.3598 1.3599 1.3598.7511 0 1.3599-.6088 1.3599-1.3599 0-.751-.6088-1.3598-1.3599-1.3598Zm-2.6599 1.36c0-1.469 1.1909-2.66 2.6599-2.66 1.469 0 2.6599 1.191 2.6599 2.66s-1.1909 2.6598-2.6599 2.6598c-1.469 0-2.6599-1.1908-2.6599-2.6599Z"/>
  <path d="M14.8715 7.8273 8.6778 11.403l-.65-1.1258 6.1937-3.5759.65 1.1259Z"/>
</g></svg>