<svg xmlns="http://www.w3.org/2000/svg" data-laicon-version="15.0" viewBox="0 0 20 20" fill="black"><g transform="translate(-2 -2)">
  <path d="m9.4999 10.4301 1.8899 1.88 3.22-3.22.92.92-4.14 4.14-2.8-2.8.91-.92Z"/>
  <path d="M19.85 3.8001c.29.08.49.34.49.63l.01.01.0199 8.85c0 3.94-6.1399 7.29-8.0199 8.22-.0113.0037-.0239.0103-.0368.017-.0218.0112-.0445.023-.0632.023-.07.03-.1401.04-.2101.04-.1 0-.2199-.04-.31-.08-1.88-.93-8.02-4.28-8.02-8.22v-8.82c0-.29.19-.54.47-.62.57-.17 3.64-1 7.86-1 3.74 0 6.7101.66 7.8101.95Zm-14.84 9.49c0 2.47 3.73 5.24 7.0299 6.92v-.01c3.26-1.65 7.0201-4.43 7.0201-6.92l-.0201-8.34c-1.3-.3-3.86-.79-7-.79-3.37 0-5.95.55-7.03.82v8.32Z"/>
</g></svg>