<svg xmlns="http://www.w3.org/2000/svg" data-laicon-version="15.0" viewBox="0 0 20 20" fill="black"><g transform="translate(-2 -2)">
  <path d="M4.9733 4.7551V13.07c0 1.1304.8076 2.4173 2.2287 3.7159 1.3244 1.2103 3.0692 2.327 4.7981 3.2072 1.7289-.8802 3.4737-1.9968 4.7981-3.2071 1.4208-1.2983 2.2283-2.5849 2.2287-3.7151 0-.0003 0 .0003 0 0L19.002 4.726c-1.2942-.3044-3.856-.7912-7.0019-.7912-3.1637 0-5.7328.4923-7.0268.8203Zm-.832-1.1212c1.1515-.3359 4.1095-.9991 7.8588-.9991 3.7514 0 6.7054.664 7.8143.953a.65.65 0 0 1 .4861.6271l.0264 8.855c0 1.7055-1.17 3.3216-2.6517 4.6756-1.5099 1.3797-3.4801 2.6125-5.3659 3.5469a.6503.6503 0 0 1-.1274.0473l-.0207.0053a.6486.6486 0 0 1-.1612.0203.7001.7001 0 0 1-.3091-.0729c-1.8858-.9344-3.856-2.1672-5.3659-3.5469-1.4817-1.354-2.6517-2.9701-2.6517-4.6756v-8.812a.65.65 0 0 1 .468-.624Z"/>
</g></svg>