<svg xmlns="http://www.w3.org/2000/svg" data-laicon-version="15.0" viewBox="0 0 20 20" fill="black"><g transform="translate(-2 -2)">
  <path d="M4.9729 4.7555v8.3147c0 1.1304.8075 2.4173 2.2285 3.7159 1.3245 1.2102 3.0692 2.3268 4.798 3.207 1.7288-.8802 3.4735-1.9968 4.7979-3.207 1.4207-1.2982 2.2282-2.5848 2.2286-3.7151 0-.0003 0 .0003 0 0l-.0245-8.3447c-1.2941-.3044-3.8556-.7912-7.0015-.7912-3.1639 0-5.7328.4925-7.027.8204Zm6.6937 16.5253c-1.8786-.933-3.8386-2.1612-5.3421-3.5351-1.4817-1.3539-2.6516-2.97-2.6516-4.6755v-8.812a.65.65 0 0 1 .4682-.6241c1.1516-.3355 4.1091-.999 7.8588-.999 3.7516 0 6.7052.6643 7.8138.953a.65.65 0 0 1 .4862.6271l.026 8.855c0 1.7055-1.17 3.3216-2.6517 4.6755-1.5098 1.3797-3.48 2.6124-5.3657 3.5469a.6523.6523 0 0 1-.138.0499l-.021.005a.6533.6533 0 0 1-.1506.0177.7073.7073 0 0 1-.2472-.0457l-.002-.0007a.6599.6599 0 0 1-.0831-.038Z"/>
  <path d="M15.1179 11.6422h-6.237v-1.3h6.237v1.3Z"/>
  <path d="M11.3501 14.11V7.874h1.3v6.236h-1.3Z"/>
</g></svg>