<svg xmlns="http://www.w3.org/2000/svg" data-laicon-version="15.0" viewBox="0 0 20 20" fill="black"><g transform="translate(-2 -2)">
  <path d="M16.4998 21.7h-9c-1 0-2-.4-2.6-1.2-.7-.7-1-1.7-.9-2.7l1-10.8c0-.3.3-.6.6-.6h12.6c.3 0 .6.3.6.6l1.2 10.7c.1 1-.2 2-.9 2.7-.7.8-1.6 1.3-2.6 1.3Zm-10.2-14-1 10.1c-.1.6.1 1.3.6 1.7.4.5 1 .7 1.7.7h9c.6 0 1.2-.3 1.7-.7.4-.5.6-1.1.6-1.7l-1-10.1h-11.6Z"/>
  <path d="M14.8 9.3c-.4 0-.7-.3-.7-.6V5.8c0-1.2-1-2.2-2.2-2.2-1.2 0-2.2 1-2.2 2.2v2.8c0 .4-.3.6-.6.6s-.6-.2-.6-.6V5.8c0-1.9 1.6-3.5 3.5-3.5s3.5 1.6 3.5 3.5v2.8c0 .4-.3.7-.7.7Z"/>
</g></svg>