<svg xmlns="http://www.w3.org/2000/svg" data-laicon-version="15.0" viewBox="0 0 20 20" fill="black"><g transform="translate(-2 -2)">
  <path d="m18.2982 6.982-12.612.0147v11.2522c0 .792.6422 1.4341 1.4342 1.4341h9.7567c.7926 0 1.435-.6431 1.4341-1.4358l-.013-11.2652ZM5.5559 5.6969l12.8697-.015c.647-.0008 1.1717.523 1.1724 1.1696m0 0 .0132 11.3943c.0017 1.5112-1.2229 2.7372-2.7341 2.7372H7.1204c-1.5099 0-2.7342-1.2241-2.7342-2.7341V6.8679c0-.646.5233-1.1703 1.1697-1.171"/>
  <path d="m9.1662 5.7077-.0265.65-1.2989-.053.0265-.6502c.0917-2.225 1.908-3.9715 4.1329-3.9715 2.2249 0 4.0411 1.7463 4.1328 3.9712l.0266.6506-1.299.053-.0264-.65c-.0631-1.5301-1.3079-2.7248-2.834-2.7248-1.526 0-2.7707 1.1947-2.834 2.7247ZM14.86 9.8734v-1.3h1.3v1.3h-1.3Zm-7.0196 0v-1.3h1.3v1.3h-1.3Z"/>
</g></svg>