<svg xmlns="http://www.w3.org/2000/svg" data-laicon-version="15.0" viewBox="0 0 20 20" fill="black"><g transform="translate(-2 -2)">
  <path d="m6.0068 7.3886 2.475 2.4749-.859.8589c-.1595.1595-.0925.4314.1229.4985l3.8327 1.1951c.2307.0719.4474-.1445.3759-.3753L10.764 8.2032c-.0669-.2156-.3391-.2829-.4987-.1233l-.8643.8643-2.475-2.4748-.9192.9192Z"/>
  <path d="M3.3501 5.9997c0-1.1874.9626-2.15 2.15-2.15h12c1.1874 0 2.15.9626 2.15 2.15v6.6001h.85c.7732 0 1.4.6268 1.4 1.4v5c0 .7732-.6268 1.4-1.4 1.4h-7c-.7732 0-1.4-.6268-1.4-1.4v-.85h-6.6c-1.1874 0-2.15-.9626-2.15-2.15v-10Zm15 0a.85.85 0 0 0-.85-.85h-12a.85.85 0 0 0-.85.85v10.0001a.85.85 0 0 0 .85.85h6.6v-2.85c0-.7732.6268-1.4 1.4-1.4h4.85v-6.6Z"/>
</g></svg>