<svg xmlns="http://www.w3.org/2000/svg" data-laicon-version="15.0" viewBox="0 0 20 20" fill="black"><g transform="translate(-2 -2)">
  <path d="M9.6001 12.9c.1.3.3.7.5 1-2.2 3.3-5.5 4.6-7.5 4.6v-1.3c1.7 0 4.9-1.3 6.8-4.7.1.1.2.3.2.4Zm5.9-5.5c.9-.4 1.7-.6 2.5-.8.1 0 .3 0 .4-.1l-1.5 1.5 1 1 3-3-3-3-1 1 1.3 1.3c-.2 0-.3 0-.5.1-.9.1-1.8.4-2.8.9-1.6.7-3.2 2-4.3 3.7.3.4.5.9.7 1.4 1-1.9 2.6-3.2 4.2-4Zm2.5 7.5-1 1 1.5 1.5c-.2 0-.3 0-.5-.1-.7-.1-1.6-.4-2.5-.8-1.7-.8-3.4-2.2-4.2-4.2-2-5-6.3-7-8.7-7v1.3c1.9 0 5.7 1.6 7.5 6.1 1 2.4 3 4 4.9 4.9 1 .4 1.9.7 2.8.9.2 0 .4.1.6.1l-1.4 1.3.9.9 3-3-2.9-2.9Z"/>
</g></svg>