<svg xmlns="http://www.w3.org/2000/svg" data-laicon-version="15.0" viewBox="0 0 20 20" fill="black"><g transform="translate(-2 -2)">
  <path d="M4.5499 5.3514a.0858.0858 0 0 0-.0858.0858V18.681c0 .0473.0383.0857.0858.0857h9.6344a.0857.0857 0 0 0 .0858-.0857v-2.945h1.3v2.945c0 .7653-.6205 1.3857-1.3858 1.3857H4.5499c-.7654 0-1.3858-.6204-1.3858-1.3857V5.4371c0-.7653.6204-1.3857 1.3858-1.3857h9.6344c.7654 0 1.3858.6204 1.3858 1.3858v2.945h-1.3v-2.945a.0858.0858 0 0 0-.0858-.0858H4.5499Z"/>
  <path d="M20.0141 12.7091h-9.7382v-1.3h9.7382v1.3Z"/>
  <path d="m19.0953 12.0591-2.4835-2.4835.9192-.9192 3.4027 3.4027-3.4027 3.4027-.9192-.9192 2.4835-2.4835Z"/>
</g></svg>