<svg xmlns="http://www.w3.org/2000/svg" data-laicon-version="15.0" viewBox="0 0 20 20" fill="black"><g transform="translate(-2 -2)">
  <path d="M8.0142 5.3781c0-.7654.6204-1.3858 1.3858-1.3858h9.6343c.7654 0 1.3858.6204 1.3858 1.3858V18.622c0 .7653-.6205 1.3857-1.3858 1.3857H9.4c-.7654 0-1.3858-.6204-1.3858-1.3857v-2.945h1.3v2.945c0 .0472.0383.0857.0858.0857h9.6343a.0858.0858 0 0 0 .0858-.0857V5.3781a.0858.0858 0 0 0-.0858-.0858H9.4a.0858.0858 0 0 0-.0858.0858v2.945h-1.3v-2.945Z"/>
  <path d="M3.5698 11.35h9.7382v1.3H3.5698v-1.3Z"/>
  <path d="M12.3888 12 9.9053 9.5165l.9193-.9192L14.2273 12l-3.4027 3.4027-.9193-.9192L12.3888 12Z"/>
</g></svg>