<svg xmlns="http://www.w3.org/2000/svg" data-laicon-version="15.0" viewBox="0 0 20 20" fill="black"><g transform="translate(-2 -2)">
  <path d="M2.6753 12.001c0-5.1009 4.1489-9.251 9.25-9.251s9.25 4.1501 9.25 9.251c0 5.1-4.1491 9.249-9.25 9.249-5.101 0-9.25-4.149-9.25-9.249Zm1.3 0c0 4.382 3.567 7.949 7.95 7.949 4.3831 0 7.95-3.567 7.95-7.949 0-4.3831-3.5671-7.951-7.95-7.951-4.383 0-7.95 3.5679-7.95 7.951Z"/>
  <path d="M20.4778 11.9584C13.6915 11.8435 8.335 15.618 5.692 17.9233a.65.65 0 1 1-.8545-.9796c2.727-2.3787 8.3926-6.4082 15.6623-6.2851a.65.65 0 0 1-.022 1.2998Z"/>
  <path d="M3.0209 9.9597a.65.65 0 0 1 .9165.0703 4.337 4.337 0 0 1 .0587.0709c.2995.3652 1.3419 1.6366 3.5417 2.8722 2.3833 1.3387 6.1574 2.651 11.8482 2.651a.65.65 0 1 1 0 1.3c-5.9002 0-9.8957-1.3632-12.4849-2.8175-2.4047-1.3507-3.5685-2.7664-3.8903-3.1578a5.0755 5.0755 0 0 0-.0603-.0726.65.65 0 0 1 .0704-.9165Z"/>
</g></svg>