<svg xmlns="http://www.w3.org/2000/svg" data-laicon-version="15.0" viewBox="0 0 20 20" fill="black"><g transform="translate(-2 -2)">
  <path d="M19.286 13a7.413 7.413 0 0 0 .0675-1c0-1.7956-.6439-3.4409-1.7134-4.7174l-10.354 10.354c1.2766 1.0695 2.9218 1.7134 4.7174 1.7134 1.2569 0 2.4402-.3155 3.4748-.8717l.9537.9537c-1.2954.7735-2.8101 1.218-4.4285 1.218-4.7773 0-8.65-3.8727-8.65-8.65s3.8728-8.65 8.65-8.65c4.7772 0 8.65 3.8727 8.65 8.65 0 .3382-.0194.6719-.0572 1H19.286Zm-7.2825-8.35c-4.0593 0-7.35 3.2907-7.35 7.35 0 1.7956.644 3.4408 1.7134 4.7174l10.354-10.354C15.4443 5.2939 13.7991 4.65 12.0035 4.65Z"/>
  <path d="M16.5 15.35h2.75c1.3255 0 2.4 1.0745 2.4 2.4s-1.0745 2.4-2.4 2.4H19v-1.3h.25c.6075 0 1.1-.4925 1.1-1.1 0-.6075-.4925-1.1-1.1-1.1H16.5v-1.3Z"/>
  <path d="m17.8405 13.5404.9192.9192L17.2193 16l1.5404 1.5404-.9192.9192L15.3809 16l2.4596-2.4596Z"/>
</g></svg>