<svg xmlns="http://www.w3.org/2000/svg" data-laicon-version="15.0" viewBox="0 0 20 20" fill="black"><g transform="translate(-2 -2)">
  <path d="M16.858 5.16v6.966a2.1435 2.1435 0 0 0-1.4929 2.042 2.1428 2.1428 0 0 0 1.4929 2.042v2.63h1.3v-2.63a2.1428 2.1428 0 0 0 1.0798-3.3067 2.1429 2.1429 0 0 0-1.0798-.7773V5.16h-1.3Zm1.492 9.008a.842.842 0 1 1-1.6841 0 .842.842 0 0 1 1.6841 0Zm-7-9.008v13.68h1.3V5.16h-1.3ZM7.142 7.79V5.16h-1.3v2.63a2.143 2.143 0 0 0 0 4.084v6.966h1.3v-6.966a2.1425 2.1425 0 0 0 1.4928-2.042A2.143 2.143 0 0 0 7.142 7.79Zm-.65 1.2a.842.842 0 1 1 0 1.6839.842.842 0 0 1 0-1.6839Z"/>
</g></svg>