<svg xmlns="http://www.w3.org/2000/svg" data-laicon-version="15.0" viewBox="0 0 20 20" fill="black"><g transform="translate(-2 -2)">
  <path d="M10.5001 3.3502a.65.65 0 0 1 .6477.596l.0081.0974c.2576 3.0907 2.7101 5.5432 5.8008 5.8008l.0974.008a.65.65 0 0 1 0 1.2955l-.0974.0081c-3.0907.2576-5.5432 2.7101-5.8008 5.8008l-.0081.0974a.65.65 0 0 1-1.2955 0l-.008-.0974c-.2576-3.0907-2.7101-5.5432-5.8008-5.8008l-.0974-.0081a.65.65 0 0 1 0-1.2954l.0974-.0081c3.0907-.2576 5.5432-2.71 5.8007-5.8008l.0081-.0974a.65.65 0 0 1 .6478-.596Zm0 3.2907a7.6657 7.6657 0 0 1-3.8594 3.8593 7.666 7.666 0 0 1 3.8594 3.8593 7.666 7.666 0 0 1 3.8593-3.8593 7.6658 7.6658 0 0 1-3.8593-3.8593ZM17.7491 14.4794a.25.25 0 0 0-.4983 0l-.0199.2395c-.1116 1.3385-1.1737 2.4006-2.5121 2.5122l-.2396.0199a.25.25 0 0 0 0 .4983l.2396.02c1.3384.1115 2.4005 1.1736 2.5121 2.5121l.0199.2395a.2501.2501 0 0 0 .4983 0l.02-.2395c.1115-1.3385 1.1736-2.4006 2.5121-2.5121l.2395-.02a.25.25 0 0 0 0-.4983l-.2395-.0199c-1.3385-.1116-2.4006-1.1737-2.5121-2.5122l-.02-.2395Z"/>
</g></svg>