<svg xmlns="http://www.w3.org/2000/svg" data-laicon-version="17.6" viewBox="0 0 20 20" fill="black"><g transform="translate(-2 -2)">
  <path d="M9.8 9.698v4.604a.499.499 0 0 0 .747.431l3.963-2.29a.495.495 0 0 0 .002-.861L10.55 9.268a.499.499 0 0 0-.75.43Z"/>
  <path d="M4.9 3.35A1.55 1.55 0 0 0 3.35 4.9v14.2c0 .856.694 1.55 1.55 1.55h14.2a1.55 1.55 0 0 0 1.55-1.55V4.9a1.55 1.55 0 0 0-1.55-1.55H4.9ZM4.65 4.9a.25.25 0 0 1 .25-.25h14.2a.25.25 0 0 1 .25.25v14.2a.25.25 0 0 1-.25.25H4.9a.25.25 0 0 1-.25-.25V4.9Z"/>
</g></svg>