<svg xmlns="http://www.w3.org/2000/svg" data-laicon-version="15.0" viewBox="0 0 20 20" fill="black"><g transform="translate(-2 -2)">
  <path d="M19.2502 17.9002V5.9082h1.3v11.992c0 1.464-1.186 2.65-2.65 2.65H5.9082v-1.3h11.992c.7461 0 1.35-.604 1.35-1.35Z"/>
  <path d="M4.7502 4.75v11.8381h11.838V4.7501H4.7502Zm-1.3-.15c0-.635.5149-1.15 1.15-1.15h12.138c.6351 0 1.15.515 1.15 1.15v12.1381c0 .6351-.5149 1.15-1.15 1.15H4.6002c-.6351 0-1.15-.5149-1.15-1.15V4.6001Z"/>
  <path d="M19.2502 17.9002V5.9082h1.3v11.992c0 1.464-1.186 2.65-2.65 2.65H5.9082v-1.3h11.992c.7461 0 1.35-.604 1.35-1.35Z"/>
  <path d="M4.7502 4.75v11.8381h11.838V4.7501H4.7502Zm-1.3-.15c0-.635.5149-1.15 1.15-1.15h12.138c.6351 0 1.15.515 1.15 1.15v12.1381c0 .6351-.5149 1.15-1.15 1.15H4.6002c-.6351 0-1.15-.5149-1.15-1.15V4.6001Z"/>
</g></svg>