<svg xmlns="http://www.w3.org/2000/svg" data-laicon-version="15.0" viewBox="0 0 20 20" fill="black"><g transform="translate(-2 -2)">
  <path d="M5.1999 14.3602v4.0008c0 .1077.0431.2128.1124.2886.068.0744.1417.1014.2021.1014H9.635c.0428 0 .0967-.0166.1581-.0935.068-.0849.1068-.2019.1068-.2965v-4.0093a.2481.2481 0 0 0-.0138-.0385.4908.4908 0 0 0-.0846-.1292c-.0756-.0836-.1652-.1298-.2738-.1298H5.5144c-.042 0-.1182.0232-.208.1267a.5972.5972 0 0 0-.093.144.3123.3123 0 0 0-.0135.0353Zm-.8753-1.0314c.248-.2858.6541-.5746 1.1898-.5746h4.0133c.5441 0 .9656.2567 1.238.5578.2533.2802.4342.6624.4342 1.0254v4.0236c0 .3919-.1407.7947-.3913 1.1083-.2571.3216-.6606.5818-1.1736.5818H5.5144c-.9454 0-1.6145-.8355-1.6145-1.6901v-4.0236c0-.3626.1928-.7414.4247-1.0086Zm.8753-7.774v4.0008c0 .1077.0431.2128.1124.2886.068.0745.1417.1016.2021.1016H9.635c.0428 0 .0967-.0167.1581-.0935.068-.085.1068-.2021.1068-.2967V5.5463a.2517.2517 0 0 0-.0138-.0385.4913.4913 0 0 0-.0846-.1292c-.0756-.0836-.1652-.1297-.2738-.1297H5.5144c-.042 0-.1182.0231-.208.1266a.5978.5978 0 0 0-.093.144.3087.3087 0 0 0-.0135.0353Zm-.8753-1.0314c.248-.2858.6541-.5745 1.1898-.5745h4.0133c.5441 0 .9656.2566 1.238.5577.2533.2802.4342.6624.4342 1.0254v4.0236c0 .392-.1407.7949-.3913 1.1084-.2571.3216-.6606.5818-1.1736.5818H5.5144c-.9454 0-1.6145-.8356-1.6145-1.6902V5.532c0-.3626.1928-.7414.4247-1.0086Zm9.7752 9.8368v4.0008c0 .1077.0431.2128.1124.2886.068.0744.1417.1014.2021.1014h4.1206c.0428 0 .0967-.0166.1581-.0935.0679-.0849.1068-.2019.1068-.2965v-4.0093a.2422.2422 0 0 0-.0138-.0385.4902.4902 0 0 0-.0846-.1292c-.0756-.0836-.1652-.1298-.2738-.1298h-4.0133c-.042 0-.1182.0232-.208.1267a.5988.5988 0 0 0-.093.144.315.315 0 0 0-.0135.0353Zm-.8753-1.0314c.248-.2858.6541-.5746 1.1898-.5746h4.0133c.5441 0 .9656.2567 1.238.5578.2533.2802.4342.6624.4342 1.0254v4.0236c0 .3919-.1407.7947-.3913 1.1083-.2571.3216-.6606.5818-1.1736.5818h-4.1206c-.9454 0-1.6145-.8355-1.6145-1.6901v-4.0236c0-.3626.1928-.7414.4247-1.0086Zm.8753-7.774v4.0008c0 .1077.0431.2128.1124.2886.068.0745.1417.1016.2021.1016h4.1206c.0428 0 .0967-.0167.1581-.0935.0679-.085.1068-.2021.1068-.2967V5.5463a.2456.2456 0 0 0-.0138-.0385.4907.4907 0 0 0-.0846-.1292c-.0756-.0836-.1652-.1297-.2738-.1297h-4.0133c-.042 0-.1182.0231-.208.1266a.5994.5994 0 0 0-.093.144.3113.3113 0 0 0-.0135.0353Zm-.8753-1.0314c.248-.2858.6541-.5745 1.1898-.5745h4.0133c.5441 0 .9656.2566 1.238.5577.2533.2802.4342.6624.4342 1.0254v4.0236c0 .392-.1407.7949-.3913 1.1084-.2571.3216-.6606.5818-1.1736.5818h-4.1206c-.9454 0-1.6145-.8356-1.6145-1.6902V5.532c0-.3626.1928-.7414.4247-1.0086Z"/>
</g></svg>