<svg xmlns="http://www.w3.org/2000/svg" data-laicon-version="15.0" viewBox="0 0 20 20" fill="black"><g transform="translate(-2 -2)">
  <path d="M12.0002 20.9c-1.7 0-3.3-.1-4.9-.3-1.9-.2-3.4-1.7-3.6-3.6-.2-1.6-.3-3.3-.3-4.9 0-1.7.1-3.3.3-4.9.2-1.9 1.7-3.4 3.6-3.6 3.2-.4 6.7-.4 9.9 0 1.9.2 3.4 1.7 3.6 3.6.2 1.6.3 3.3.3 4.9 0 1.6-.1 3.3-.3 4.9-.2 1.9-1.7 3.4-3.6 3.6-1.7.2-3.3.3-5 .3Zm0-16.5c-1.6 0-3.2.1-4.8.3-1.3.2-2.3 1.2-2.5 2.5-.2 1.6-.3 3.2-.3 4.8 0 1.6.1 3.2.3 4.8.2 1.3 1.2 2.3 2.5 2.5 3.1.4 6.4.4 9.5 0 1.3-.2 2.3-1.2 2.5-2.5.2-1.6.3-3.2.3-4.8 0-1.6-.1-3.2-.3-4.8-.2-1.3-1.2-2.3-2.5-2.5-1.5-.2-3.1-.3-4.7-.3Z"/>
</g></svg>