<svg xmlns="http://www.w3.org/2000/svg" data-laicon-version="15.0" viewBox="0 0 20 20" fill="black"><g transform="translate(-2 -2)">
  <path d="M16.3498 4.3c0-.635.515-1.15 1.15-1.15h2c.635 0 1.15.515 1.15 1.15v2a1.1503 1.1503 0 0 1-1.15 1.15h-2a1.1501 1.1501 0 0 1-1.15-1.15v-2Zm1.3.15v1.7h1.7v-1.7h-1.7Zm-14.1 4.75c0-.635.515-1.15 1.15-1.15h2.7c.635 0 1.15.515 1.15 1.15v2.55h2.55c.635 0 1.15.515 1.15 1.15v2.55h2.55c.635 0 1.15.515 1.15 1.15v2.7a1.15 1.15 0 0 1-1.15 1.15h-10.1a1.1498 1.1498 0 0 1-1.15-1.15V9.2Zm7.4 7.55h-2.4v2.4h2.4v-2.4Zm0-1.3v-2.4h-2.4v2.4h2.4Zm1.3 3.7h2.4v-2.4h-2.4v2.4Zm-7.4-6.1v2.4h2.4v-2.4h-2.4Zm0 3.7v2.4h2.4v-2.4h-2.4Zm0-7.4v2.4h2.4v-2.4h-2.4Zm10.65-.9a1.1501 1.1501 0 0 0-1.15 1.15v2c0 .635.515 1.15 1.15 1.15h2a1.15 1.15 0 0 0 1.15-1.15v-2a1.1503 1.1503 0 0 0-1.15-1.15h-2Zm.15 3v-1.7h1.7v1.7h-1.7Z"/>
</g></svg>