<svg xmlns="http://www.w3.org/2000/svg" data-laicon-version="17.1" viewBox="0 0 20 20" fill="black"><g transform="translate(-2 -2)">
  <path d="M4.75 3.6A1.15 1.15 0 0 0 3.6 4.75v5.5c0 .635.515 1.15 1.15 1.15h5.5a1.15 1.15 0 0 0 1.15-1.15v-5.5a1.15 1.15 0 0 0-1.15-1.15h-5.5Zm.15 6.5V4.9h5.2v5.2H4.9Zm-.15 2.5a1.15 1.15 0 0 0-1.15 1.15v5.5c0 .635.515 1.15 1.15 1.15h5.5a1.15 1.15 0 0 0 1.15-1.15v-5.5a1.15 1.15 0 0 0-1.15-1.15h-5.5Zm.15 6.5v-5.2h5.2v5.2H4.9Zm7.7-5.35c0-.635.515-1.15 1.15-1.15h5.5c.635 0 1.15.515 1.15 1.15v5.5a1.15 1.15 0 0 1-1.15 1.15h-5.5a1.15 1.15 0 0 1-1.15-1.15v-5.5Zm1.3.15v5.2h5.2v-5.2h-5.2Zm3.25-7.05v-3h-1.3v3h-3v1.3h3v3h1.3v-3h3v-1.3h-3Z"/>
</g></svg>