<svg xmlns="http://www.w3.org/2000/svg" data-laicon-version="15.0" viewBox="0 0 20 20" fill="black"><g transform="translate(-2 -2)">
  <path d="M3.3501 5.4997c0-1.1874.9626-2.15 2.15-2.15h13c1.1875 0 2.15.9626 2.15 2.15v13.0001c0 1.1874-.9625 2.15-2.15 2.15h-13c-1.1874 0-2.15-.9626-2.15-2.15v-13Zm2.15-.85a.85.85 0 0 0-.85.85v13.0001a.85.85 0 0 0 .85.85h13a.85.85 0 0 0 .85-.85v-13a.85.85 0 0 0-.85-.85h-13Z"/>
  <path d="M3.3501 5.4997c0-1.1874.9626-2.15 2.15-2.15h7.15v7.6501c0 .9112-.7387 1.65-1.65 1.65h-7.65v-7.15Zm2.15-.85a.85.85 0 0 0-.85.85v5.8501h6.35a.35.35 0 0 0 .35-.35v-6.35h-5.85Z"/>
</g></svg>