<svg xmlns="http://www.w3.org/2000/svg" data-laicon-version="15.0" viewBox="0 0 20 20" fill="black"><g transform="translate(-2 -2)">
  <path d="M3.3501 8.5002c0-1.1874.9626-2.15 2.15-2.15h10c1.1875 0 2.15.9626 2.15 2.15v10c0 1.1875-.9625 2.15-2.15 2.15h-10c-1.1874 0-2.15-.9625-2.15-2.15v-10Zm2.15-.85a.85.85 0 0 0-.85.85v10a.85.85 0 0 0 .85.85h10a.85.85 0 0 0 .85-.85v-10a.85.85 0 0 0-.85-.85h-10Zm10.9999-3.5h-2v-1.3h2c2.5682 0 4.65 2.0819 4.65 4.65v2h-1.3v-2c0-1.8501-1.4998-3.35-3.35-3.35Z"/>
  <path d="M13.1075 3.735c-.1433-.1208-.1433-.3487 0-.4695l1.4211-1.1976c.1893-.1595.4714-.019.4714.2347V4.698c0 .2537-.2821.3942-.4714.2347L13.1075 3.735Z"/>
</g></svg>