<svg xmlns="http://www.w3.org/2000/svg" data-laicon-version="15.0" viewBox="0 0 20 20" fill="black"><g transform="translate(-2 -2)">
  <path d="M20.2898 9.95c-.04-.07-.08-.1-.16-.11l-.03-.01c-2.64-.45-4.99-.75-5.01-.75-.22-.02-.4-.16-.5-.35l-2.32-4.65c-.02-.01-.14-.07-.28-.07-.13 0-.24.05-.31.13-1.1277 2.1332-2.1494 4.284-2.2767 4.5521l-.0133.0279c-.1.2-.3.34-.52.37-.02 0-2.48.27-5.05.74-.02 0-.12.09-.17.25-.02.08-.05.22.04.33 1.6989 1.7635 3.304 3.2627 3.556 3.498l.034.032c.16.15.24.37.2.59 0 0-.46 2.61-.84 5.03.02.11.1.24.22.32.06.04.21.13.36.07 2.16-1.1 4.46-2.34 4.46-2.34.19-.11.43-.11.62 0 .01.01.4801.27 1.1801.64v1.47c-.65-.34-1.19-.63-1.5-.8-.2069.1078-.5054.2648-.8679.4554-.8817.4638-2.1422 1.1269-3.3822 1.7646-.22.08-.43.12-.64.12-.35 0-.68-.11-.98-.32-.48-.34-.77-.87-.77-1.41v-.1c.3-1.91.66-3.97.8-4.77-.56-.53-1.94-1.84-3.41-3.37-.39-.47-.5-1.07-.3-1.64.2-.57.64-.99 1.15-1.1 2.05-.38 4.01-.63 4.8-.72.35-.73 1.24-2.55 2.19-4.35.005-.01.0125-.02.02-.03a.208.208 0 0 0 .02-.03c.31-.44.83-.71 1.39-.71.54.03 1.1.26 1.41.71l2.22 4.42c.75.1 2.64.36 4.71.71.53.08.95.41 1.16.92.23.56.19 1.26-.1 1.67a.262.262 0 0 1-.035.0399.2684.2684 0 0 0-.035.0401c-.72.74-1.39 1.41-1.97 1.98h-1.86c.67-.65 1.69-1.65 2.84-2.82.02-.07.03-.28-.05-.43Z"/>
  <path d="M15 14.7h7V16h-7v-1.3Zm7 3h-7V19h7v-1.3Zm-7 3h7V22h-7v-1.3Z"/>
</g></svg>