<svg xmlns="http://www.w3.org/2000/svg" data-laicon-version="15.0" viewBox="0 0 20 20" fill="black"><g transform="translate(-2 -2)">
  <path d="m16.6826 12.4452-.5933 1.7067-1.8066.0371 1.4399 1.0915-.5232 1.7295 1.4832-1.0321 1.4832 1.0321-.5233-1.7295 1.4399-1.0915-1.8066-.0371-.5932-1.7067Z"/>
  <path d="M3.7502 5.5817v12.8365h16.5V5.5817h-16.5Zm-1.3-.15c0-.634.516-1.15 1.15-1.15h16.8c.634 0 1.15.516 1.15 1.15v13.1365c0 .6342-.5161 1.15-1.15 1.15h-16.8c-.634 0-1.15-.516-1.15-1.15V5.4317Z"/>
  <path d="M20.9001 9.0943h-17.8v-1.3h17.8v1.3Z"/>
</g></svg>