<svg xmlns="http://www.w3.org/2000/svg" data-laicon-version="15.3" viewBox="0 0 20 20" fill="black"><g transform="translate(-2 -2)">
  <path d="M11.225 3.54a.85.85 0 0 1 1.55 0l2.162 4.817 5.25.568a.85.85 0 0 1 .479 1.475l-3.913 3.544 1.082 5.168a.85.85 0 0 1-1.255.911L12 17.397l-4.58 2.626a.85.85 0 0 1-1.255-.911l1.082-5.168L3.334 10.4a.85.85 0 0 1 .48-1.475l5.249-.568 2.162-4.817ZM12 4.987 9.943 9.57l-4.993.54 3.722 3.372-1.03 4.916L12 15.899l4.357 2.498-1.03-4.916 3.723-3.372-4.994-.54L12 4.987Z"/>
</g></svg>