<svg xmlns="http://www.w3.org/2000/svg" data-laicon-version="15.0" viewBox="0 0 20 20" fill="black"><g transform="translate(-2 -2)">
  <path d="M6.5554 19.5761h-.0001 10.889V9.6382h1.3v10.1003c0 .6283-.5093 1.1376-1.1376 1.1376H6.393c-.6283 0-1.1376-.5093-1.1376-1.1376V9.6381h1.3v9.938Z"/>
  <path d="M4.9499 4.6556v4.3326h14.1V4.6556h-14.1Zm-1.3-.15c0-.635.515-1.15 1.15-1.15h14.4c.6351 0 1.15.515 1.15 1.15v4.6326c0 .6353-.515 1.15-1.15 1.15h-14.4c-.635 0-1.15-.515-1.15-1.15V4.5056Z"/>
  <path d="M8.7832 9.631V4.0128h1.3V9.631h-1.3Zm5.1333 0V4.0128h1.3V9.631h-1.3Zm-2.5664 10.5951v-4.268h1.3v4.268h-1.3Z"/>
</g></svg>