<svg xmlns="http://www.w3.org/2000/svg" data-laicon-version="15.0" viewBox="0 0 20 20" fill="black"><g transform="translate(-2 -2)">
  <path d="M8.312 4.0222a.65.65 0 0 1 .65-.65h6.076a.65.65 0 0 1 .65.65v2.718h-1.3v-2.068H9.612v2.068h-1.3v-2.718ZM6.6206 21v-1.2605h1.3V21h-1.3Zm10.7585-1.2605V21h-1.3v-1.2605h1.3Z"/>
  <path d="M5.9889 7.5506c-.7456 0-1.35.6044-1.35 1.35v8.4477c0 .7456.6044 1.35 1.35 1.35h12.0223c.7456 0 1.35-.6045 1.35-1.35V8.9006c0-.7456-.6044-1.35-1.35-1.35H5.9889Zm-2.65 1.35c0-1.4636 1.1864-2.65 2.65-2.65h12.0223c1.4636 0 2.65 1.1864 2.65 2.65v8.4477c0 1.4635-1.1864 2.65-2.65 2.65H5.9889c-1.4636 0-2.65-1.1864-2.65-2.65V8.9006ZM16.4684 4.65H7.5313v-1.3h8.9371v1.3Z"/>
</g></svg>