<svg xmlns="http://www.w3.org/2000/svg" data-laicon-version="15.0" viewBox="0 0 20 20" fill="black"><g transform="translate(-2 -2)">
  <path d="M11.3501 5V2h1.3v3h-1.3Zm0 17v-3h1.3v3h-1.3ZM6.5906 7.51 4.4692 5.3885l.9193-.9192 2.1213 2.1213-.9192.9192Zm12.0209 12.0207-2.1213-2.1213.9193-.9193 2.1213 2.1213-.9193.9193ZM5 12.6499H2v-1.3h3v1.3Zm17 0h-3v-1.3h3v1.3ZM7.5098 17.4094l-2.1213 2.1213-.9193-.9192 2.1214-2.1213.9192.9192Zm12.021-12.0209-2.1214 2.1213-.9192-.9192 2.1213-2.1214.9193.9193ZM12 7.7999c-2.3196 0-4.2 1.8804-4.2 4.2 0 2.3196 1.8804 4.2 4.2 4.2 2.3196 0 4.2-1.8804 4.2-4.2 0-2.3196-1.8804-4.2-4.2-4.2Zm-5.5 4.2c0-3.0376 2.4624-5.5 5.5-5.5s5.5 2.4624 5.5 5.5-2.4624 5.5-5.5 5.5-5.5-2.4624-5.5-5.5Z"/>
</g></svg>