<svg xmlns="http://www.w3.org/2000/svg" data-laicon-version="15.0" viewBox="0 0 20 20" fill="black"><g transform="translate(-2 -2)">
  <path d="M11.913 4.112c-2.42 0-4.654 1.087-6.107 3l1.035.786c1.201-1.581 3.048-2.486 5.072-2.486 3.063 0 5.676 2.216 6.227 5.3501h-2.264l3.003 4.097 2.997-4.097h-2.42c-.567-3.844-3.744-6.65-7.543-6.65Zm.194 15.7761c2.42 0 4.655-1.087 6.108-3l-1.035-.786c-1.202 1.581-3.049 2.486-5.073 2.486-3.08 0-5.694-2.134-6.232-5.348h2.249l-2.997-4.097-3.003 4.097H4.56c.557 3.94 3.745 6.648 7.547 6.648Z"/>
</g></svg>