<svg xmlns="http://www.w3.org/2000/svg" data-laicon-version="15.0" viewBox="0 0 20 20" fill="black"><g transform="translate(-2 -2)">
  <path d="m3.0344 7.7807 1.1391.5312c1.3844-2.9328 4.3686-4.9622 7.8268-4.9622 4.1777 0 7.6636 2.9616 8.4728 6.8999h-1.3325c-.7851-3.2144-3.6841-5.5999-7.1403-5.5999-2.9366 0-5.471 1.7222-6.6483 4.2117l1.1087.517c.2346.1094.2271.4454-.012.5443L3.8649 10.991a.2973.2973 0 0 1-.3971-.1852l-.8425-2.666c-.078-.2467.1746-.4684.4091-.359Zm1.8254 5.9689H3.5273c.8091 3.9384 4.2952 6.9002 8.473 6.9002 3.4566 0 6.4396-2.0275 7.8248-4.9581l1.1384.5308c.2345.1094.4871-.1123.4092-.359l-.8425-2.666a.2974.2974 0 0 0-.3972-.1852l-2.5838 1.0683c-.2391.0989-.2465.4349-.012.5442l1.1094.5174c-1.1781 2.4873-3.7113 4.2076-6.6463 4.2076-3.4563 0-6.3554-2.3857-7.1405-5.6002Z"/>
</g></svg>