<svg xmlns="http://www.w3.org/2000/svg" data-laicon-version="15.0" viewBox="0 0 20 20" fill="black"><g transform="translate(-2 -2)">
  <path d="M18.0239 4.2105c-.1274-.1377-.3577-.2744-.7852-.2744H6.7157c-.3504 0-.5924.0977-.7348.2176-.13.1096-.2234.2745-.2234.5373v14.6477c0 .2727.31.7252.9583.7252h10.3628c.4852 0 .7819-.1146.9418-.2387.141-.1092.222-.2585.222-.4865V4.8332c0-.2554-.0811-.4742-.2185-.6227Zm.9542-.8829c.3992.4314.5643.986.5643 1.5056v14.5055c0 .6059-.2484 1.1442-.7255 1.514-.4581.3551-1.0684.5112-1.7383.5112H6.7158c-1.2454 0-2.2583-.9195-2.2583-2.0252V4.691c0-.6222.2447-1.1598.6858-1.5314.4287-.3612.9909-.5235 1.5725-.5235h10.5229c.7338 0 1.3304.2494 1.7394.6915Z"/>
  <path d="M11.8938 17.7164a.675.675 0 1 0 .0001 1.3501.675.675 0 0 0-.0001-1.3501Z"/>
</g></svg>