<svg xmlns="http://www.w3.org/2000/svg" data-laicon-version="15.0" viewBox="0 0 20 20" fill="black"><g transform="translate(-2 -2)">
  <path d="M3.841 5.7233c-.027.0744-.0566.217-.0566.4715v11.489c0 .2238.0106.3842.0312.5013.0196.1114.043.1513.048.159a.1436.1436 0 0 0 .0223.01c.044.0163.139.0378.3219.0378h15.6508c.219 0 .2474-.0529.25-.0579a.0014.0014 0 0 0 .0002-.0003c.0348-.046.1113-.2078.1113-.6499V6.5432c0-.285-.0102-.4963-.0324-.6556-.0224-.1601-.052-.2272-.0646-.2488-.0236-.0099-.0965-.0312-.2645-.0312H4.4582c-.1985 0-.337.004-.4466.0198-.106.0153-.1378.036-.141.0382-.0005.0003-.0011.0007-.0034.0038-.0032.0043-.0136.0195-.0261.054Zm-.0154-1.3825c.2126-.0308.4367-.0332.6326-.0332h15.4004c.52 0 1.0651.1296 1.3838.67.1345.228.1983.4838.2327.7299.0348.2487.045.5307.045.8357v11.1406c0 .5253-.0785 1.0425-.3742 1.4337-.3294.4359-.8129.5744-1.2873.5744H4.2078c-.5274 0-1.0668-.1177-1.4053-.5968-.2884-.4082-.3181-.9471-.3181-1.4113V6.1948c0-.66.1451-1.2509.646-1.5978.2293-.1589.4791-.225.6952-.2562Z"/>
  <path d="M11.3501 19.0029V8.177h1.3v10.8259h-1.3Z"/>
  <path d="M20.8452 14.1103H3.1519v-1.3h17.6933v1.3Zm0-5.2833H3.1519v-1.3h17.6933v1.3Z"/>
</g></svg>