<svg xmlns="http://www.w3.org/2000/svg" data-laicon-version="15.0" viewBox="0 0 20 20" fill="black"><g transform="translate(-2 -2)">
  <path d="M18.8999 19.4h-13.8c-.8 0-1.9-.5-2.4-2.7-.3-1.1-.3-2.3-.3-2.3 0-5.3 4.3-9.6 9.6-9.6s9.6 4.3 9.6 9.6c0 .6-.1 5-2.7 5Zm-6.9-13.2c-4.6 0-8.3 3.7-8.3 8.3 0 1.1.3 3.7 1.3 3.7h13.9c1 0 1.3-2.5 1.3-3.7.1-4.6-3.6-8.3-8.2-8.3Z"/>
  <path d="m16.887 8.792.919.9193-4.1024 4.1-.9189-.9194 4.1023-4.1ZM5.2 13.6c.4 0 .7.3.7.7 0 .4-.3.7-.7.7-.4 0-.7-.3-.7-.7 0-.4.3-.7.7-.7Zm6.7998-6.7c.4 0 .7.4.7.7 0 .4-.3.7-.7.7-.4 0-.7-.3-.7-.7 0-.4.3-.7.7-.7Zm6.8003 6.7c.4 0 .8.3.7.7 0 .4-.3.7-.7.7-.4 0-.7-.3-.7-.7 0-.4.3-.7.7-.7Z"/>
  <path d="M12 17.4c-1.4 0-2.5-1.1-2.5-2.5s1.1-2.5 2.5-2.5 2.5 1.1 2.5 2.5c0 1.3-1.1 2.5-2.5 2.5Zm0-3.8c-.7 0-1.2.6-1.2 1.2 0 .7.6 1.2 1.2 1.2.7 0 1.2-.6 1.2-1.2 0-.7-.5-1.2-1.2-1.2Z"/>
</g></svg>