<svg xmlns="http://www.w3.org/2000/svg" data-laicon-version="15.0" viewBox="0 0 20 20" fill="black"><g transform="translate(-2 -2)">
  <path d="m15.2722 6.1 5.3264 5.9001-5.3264 5.9H3.3v-11.8h11.9722ZM3.3 4.8c-.718 0-1.3.582-1.3 1.3v11.8001c0 .718.582 1.3 1.3 1.3h11.9722c.3679 0 .7185-.1558.965-.4289l5.3869-5.967a1.2 1.2 0 0 0 0-1.6082l-5.3869-5.967a1.3 1.3 0 0 0-.965-.429H3.3Z"/>
  <path d="M15.8368 10.7983c-.6636 0-1.2015.538-1.2015 1.2017 0 .6636.538 1.2014 1.2015 1.2014.6636 0 1.2016-.5378 1.2016-1.2014 0-.6637-.538-1.2017-1.2016-1.2017Z"/>
</g></svg>