<svg xmlns="http://www.w3.org/2000/svg" data-laicon-version="15.0" viewBox="0 0 20 20" fill="black"><g transform="translate(-2 -2)">
  <path d="M11.9998 5.2587C8.2767 5.2587 5.2585 8.277 5.2585 12c0 3.7231 3.0182 6.7413 6.7413 6.7413 3.7231 0 6.7413-3.0182 6.7413-6.7413 0-3.723-3.0182-6.7413-6.7413-6.7413ZM3.9585 12c0-4.441 3.6002-8.0413 8.0413-8.0413S20.0411 7.559 20.0411 12c0 4.4411-3.6002 8.0413-8.0413 8.0413-4.441 0-8.0413-3.6002-8.0413-8.0413Z"/>
  <path d="M12.6501 2v2.6087h-1.3V2h1.3ZM2 11.35h2.6087v1.3H2v-1.3Zm9.3501 10.6501v-2.6087h1.3v2.6087h-1.3ZM21.9998 12.65h-2.6087v-1.3h2.6087v1.3ZM12.0002 12.55a.55.55 0 1 0 0-1.1.55.55 0 0 0 0 1.1Z"/>
  <path d="M11.9998 10.8c-.6627 0-1.2.5373-1.2 1.2s.5373 1.2 1.2 1.2 1.2-.5373 1.2-1.2-.5373-1.2-1.2-1.2Z"/>
</g></svg>