<svg xmlns="http://www.w3.org/2000/svg" data-laicon-version="15.0" viewBox="0 0 20 20" fill="black"><g transform="translate(-2 -2)">
  <path d="M18.8511 5.15h-2.1817v-1.3h2.3168c.6434 0 1.1649.5215 1.1649 1.1649v2.3168h-1.3V5.15Zm-13.7001 0h2.1818v-1.3H5.016c-.6434 0-1.165.5215-1.165 1.1649v2.3168h1.3V5.15Zm0 13.7v-2.1817h-1.3v2.3168c0 .6434.5216 1.1649 1.165 1.1649h2.3168v-1.3H5.151Zm13.7001 0v-2.1817h1.3v2.3168c0 .6434-.5215 1.1649-1.1649 1.1649h-2.3168v-1.3h2.1817ZM8.2017 8.1422h7.5244v2.1904h-1.3v-.8904H9.5017v.8904h-1.3V8.1422Z"/>
  <path d="M11.314 15.5515V8.7922h1.3v6.7593h-1.3Z"/>
  <path d="M13.3172 16.2015h-2.678v-1.3h2.678v1.3Z"/>
</g></svg>