<svg xmlns="http://www.w3.org/2000/svg" data-laicon-version="15.0" viewBox="0 0 20 20" fill="black"><g transform="translate(-2 -2)">
  <path d="M12 4.05c-4.3907 0-7.95 3.5593-7.95 7.95 0 4.3907 3.5593 7.95 7.95 7.95 4.3907 0 7.95-3.5593 7.95-7.95 0-4.3907-3.5593-7.95-7.95-7.95ZM2.75 12c0-5.1086 4.1414-9.25 9.25-9.25s9.25 4.1414 9.25 9.25-4.1414 9.25-9.25 9.25S2.75 17.1086 2.75 12Z"/>
  <path d="M11.6689 16.5v-9h1v9h-1Z"/>
  <path d="M9.2935 8.3782h3.5922c1.1796 0 2.1359.9563 2.1359 2.136 0 .4871-.1631.9361-.4377 1.2955.4946.3911.812.9965.812 1.6761 0 1.1797-.9563 2.136-2.1359 2.136H9.2935V8.3782Zm1.3 4.2718v1.6718H13.26a.836.836 0 0 0 0-1.6718h-2.6665Zm0-1.3h2.2922a.836.836 0 0 0 0-1.6718h-2.2922V11.35Z"/>
</g></svg>