<svg xmlns="http://www.w3.org/2000/svg" data-laicon-version="15.0" viewBox="0 0 20 20" fill="black"><g transform="translate(-2 -2)">
  <path d="M10.7671 16.05v-8.1h1v8.1h-1Z"/>
  <path d="M8.6148 8.6754h3.2979c1.0976 0 1.9873.8897 1.9873 1.9873 0 .4307-.137.8294-.3698 1.1548.4321.3646.7066.9101.7066 1.5197 0 1.0977-.8897 1.9873-1.9873 1.9873H8.6148v-6.649Zm3.3098 2.6745a.6873.6873 0 0 0-.0119-1.3745h-1.998V11.35h2.0099ZM9.9147 12.65v1.3745h2.3348a.6873.6873 0 0 0 0-1.3746h-.3167a1.3468 1.3468 0 0 1-.0201.0001h-1.998Z"/>
  <path d="M11.2024 4.0703c-4.3795 0-7.9297 3.5502-7.9297 7.9297s3.5502 7.9297 7.9297 7.9297c1.6435 0 3.1685-.4993 4.4339-1.3544l.7278 1.0771c-1.4735.9958-3.2507 1.5773-5.1617 1.5773-5.0975 0-9.2297-4.1323-9.2297-9.2297 0-5.0975 4.1322-9.2297 9.2297-9.2297 5.0974 0 9.2297 4.1322 9.2297 9.2297 0 1.1341-.2049 2.2219-.5801 3.2273l-1.218-.4546c.3219-.8622.4981-1.7961.4981-2.7727 0-4.3795-3.5502-7.9297-7.9297-7.9297Z"/>
  <path d="M14.6729 17.5524c0-2.0309 1.6464-3.6773 3.6773-3.6773s3.6773 1.6464 3.6773 3.6773-1.6464 3.6773-3.6773 3.6773-3.6773-1.6464-3.6773-3.6773Zm3.2694-1.5453 1.1453 1.1453h-2.9345v.8h2.9345l-1.1453 1.1453.5656.5657 2.1111-2.111-2.111-2.111-.5657.5657Z"/>
</g></svg>