<svg xmlns="http://www.w3.org/2000/svg" data-laicon-version="18.9" viewBox="0 0 20 20" fill="black"><g transform="translate(-2 -2)">
  <path d="M12.874 21.65a2.229 2.229 0 0 0 2.229-2.228v-4.173h4.045a2.229 2.229 0 0 0 2.204-2.557L20.244 5.25a2.228 2.228 0 0 0-2.204-1.9H3.784a.65.65 0 0 0-.65.65v9.02c0 .36.29.65.65.65H7.71c.916.981 1.646 2.26 2.2 3.515a19.846 19.846 0 0 1 1.133 3.355c.151.656.736 1.11 1.4 1.11h.43Zm-.43-1.3a.134.134 0 0 1-.134-.103 21.14 21.14 0 0 0-1.21-3.586c-.588-1.333-1.396-2.769-2.462-3.902V4.65h9.402c.46 0 .85.337.918.791l1.108 7.443a.929.929 0 0 1-.918 1.065h-5.345v5.473a.928.928 0 0 1-.929.927h-.43Zm-8.01-15.7h2.904v7.72H4.434V4.65Z"/>
</g></svg>