<svg xmlns="http://www.w3.org/2000/svg" data-laicon-version="15.0" viewBox="0 0 20 20" fill="black"><g transform="translate(-2 -2)">
  <path d="M3.1338 11.1845a.65.65 0 0 1 .65-.65H7.988a.65.65 0 0 1 .65.65v9.0206a.65.65 0 0 1-.65.65H3.7838a.65.65 0 0 1-.65-.65v-9.0206Zm1.3.65v7.7206H7.338v-7.7206H4.4338Z"/>
  <path d="M11.044 3.6656c.152-.6566.7356-1.1102 1.4009-1.1102h.4302c1.2307 0 2.2285.9976 2.2285 2.2284v4.1724h4.0441c1.3614 0 2.4047 1.2101 2.2041 2.5567 0 .0001 0 0 0 0l-1.1083 7.4422c-.1626 1.0919-1.1001 1.9002-2.2041 1.9002H7.988v-1.3h10.0514c.46 0 .8505-.3367.9183-.7916l1.1083-7.4422c.0836-.561-.3511-1.0653-.9183-1.0653h-5.3441V4.7838a.9284.9284 0 0 0-.9285-.9284h-.4302c-.0689 0-.1207.0446-.1343.1034-.1915.827-.5852 2.169-1.21 3.586-.6224 1.4113-1.4922 2.9387-2.653 4.0996l-.9193-.9192c1.0016-1.0016 1.793-2.3673 2.3828-3.705.5874-1.332.9572-2.5951 1.1329-3.3546Z"/>
</g></svg>