<svg xmlns="http://www.w3.org/2000/svg" data-laicon-version="15.0" viewBox="0 0 20 20" fill="black"><g transform="translate(-2 -2)">
  <path d="M12.0001 6.9c-3.645 0-6.6 2.9549-6.6 6.6s2.955 6.6 6.6 6.6c3.6451 0 6.6-2.9549 6.6-6.6s-2.9549-6.6-6.6-6.6Zm-7.9 6.6c0-4.363 3.537-7.9 7.9-7.9s7.9 3.537 7.9 7.9-3.537 7.9-7.9 7.9-7.9-3.537-7.9-7.9ZM15 4.15H9v-1.3h6v1.3Z"/>
  <path d="M9.1583 16.5001h.9265c.068 0 .1105-.0425.1105-.1105v-6.018c0-.068-.0425-.1105-.1105-.1105h-.663c-.051 0-.0935.0085-.136.051l-1.649 1.411c-.051.0425-.0595.0935-.034.153l.1615.306c.034.068.085.085.1445.0595l1.139-.4505v4.5985c0 .068.0425.1105.1105.1105Zm4.6639.119c1.5215 0 2.4225-1.207 2.4225-3.2385 0-2.0315-.901-3.2385-2.4225-3.2385-1.513 0-2.414 1.207-2.414 3.2385 0 2.0315.901 3.2385 2.414 3.2385Zm0-1.122c-.7565 0-1.224-.6715-1.224-2.1165 0-1.445.4675-2.1165 1.224-2.1165.765 0 1.2325.6715 1.2325 2.1165 0 1.445-.4675 2.1165-1.2325 2.1165Z"/>
</g></svg>