<svg xmlns="http://www.w3.org/2000/svg" data-laicon-version="15.0" viewBox="0 0 20 20" fill="black"><g transform="translate(-2 -2)">
  <path d="M12.0001 6.9c-3.645 0-6.6 2.9549-6.6 6.6s2.955 6.6 6.6 6.6c3.6451 0 6.6-2.9549 6.6-6.6s-2.9549-6.6-6.6-6.6Zm-7.9 6.6c0-4.363 3.537-7.9 7.9-7.9s7.9 3.537 7.9 7.9-3.537 7.9-7.9 7.9-7.9-3.537-7.9-7.9ZM15 4.15H9v-1.3h6v1.3Z"/>
  <path d="M11.9396 16.6191c1.343 0 2.261-.748 2.261-1.8615 0-.7565-.4335-1.2835-1.139-1.5215.612-.2805.9775-.7905.9775-1.4025 0-.9775-.8925-1.6915-2.0995-1.6915-1.071 0-1.87.629-2.1675 1.649-.017.0765.017.119.085.136l.8585.2295c.068.017.1105-.0085.136-.0765.1785-.4845.527-.816 1.0625-.816.544 0 .935.3315.935.782 0 .4335-.3995.731-.9775.731h-.2635c-.068 0-.1105.0425-.1105.1105v.7565c0 .068.0425.1105.1105.1105h.2635c.6885 0 1.139.2975 1.139.8415s-.4165.901-1.071.901c-.6035 0-.9605-.3315-1.139-.816-.0255-.068-.068-.0935-.136-.0765l-.8585.2295c-.068.017-.102.0595-.085.136.2975 1.02 1.105 1.649 2.2185 1.649Z"/>
</g></svg>