<svg xmlns="http://www.w3.org/2000/svg" data-laicon-version="15.0" viewBox="0 0 20 20" fill="black"><g transform="translate(-2 -2)">
  <path d="M12.0035 4.65c-4.0593 0-7.35 3.2907-7.35 7.35 0 4.0593 3.2907 7.35 7.35 7.35 4.0593 0 7.35-3.2907 7.35-7.35 0-4.0593-3.2907-7.35-7.35-7.35ZM3.3535 12c0-4.7773 3.8728-8.65 8.65-8.65 4.7773 0 8.65 3.8727 8.65 8.65s-3.8727 8.65-8.65 8.65-8.65-3.8727-8.65-8.65Z"/>
  <path d="m8.7905 14.2904 5.5-5.5.9192.9192-5.5 5.5-.9192-.9192Z"/>
  <path d="m14.2905 15.2096-5.5-5.5.9193-.9192 5.4999 5.5-.9192.9192Z"/>
</g></svg>