<svg xmlns="http://www.w3.org/2000/svg" data-laicon-version="15.0" viewBox="0 0 20 20" fill="black"><g transform="translate(-2 -2)">
  <path d="M4.25 4.15C4.25 2.9626 5.2126 2 6.4 2h7.4c1.1874 0 2.15.9626 2.15 2.15v7.9h-1.3v-7.9a.85.85 0 0 0-.85-.85H6.4a.85.85 0 0 0-.85.85v13.9a.85.85 0 0 0 .85.85h4.1001v1.3H6.4c-1.1874 0-2.15-.9626-2.15-2.15V4.15Z"/>
  <path d="M15 5.8H5V4.5h10v1.3Zm-5 11.9H5v-1.3h5v1.3Z"/>
  <path d="M14.3999 12.6c-2.2368 0-4.05 1.8133-4.05 4.05 0 2.2368 1.8132 4.05 4.05 4.05 2.2367 0 4.05-1.8132 4.05-4.05 0-2.2367-1.8133-4.05-4.05-4.05Zm-5.3501 4.05c0-2.9547 2.3953-5.35 5.3501-5.35 2.9547 0 5.35 2.3953 5.35 5.35 0 2.9547-2.3953 5.35-5.35 5.35-2.9548 0-5.3501-2.3953-5.3501-5.35Z"/>
  <path d="M12.7998 14.45h1.9001c.7179 0 1.2999.5821 1.2999 1.3 0 .718-.582 1.3-1.3 1.3h-1.9v-2.6Zm.8.8v1h1.1a.5.5 0 0 0 .0001-1h-1.1001Z"/>
  <path d="M12.7998 16.25h2.1c.718 0 1.3.5821 1.3 1.3 0 .718-.582 1.3-1.2999 1.3h-2.1001v-2.6Zm.8.8v1h1.3001a.5.5 0 0 0-.0001-1h-1.3Z"/>
  <path d="M14 19.35v-5.4h.8v5.4H14Z"/>
</g></svg>