<svg xmlns="http://www.w3.org/2000/svg" data-laicon-version="15.0" viewBox="0 0 20 20" fill="black"><g transform="translate(-2 -2)">
  <path d="M8.1254 14.9941c-.5134 0-.9296.415-.9296.927s.4162.9269.9296.9269.9296-.415.9296-.9269-.4163-.927-.9296-.927Zm7.7495-.0025a.9296.9296 0 1 0 0 1.8592.9296.9296 0 0 0 0-1.8592Z"/>
  <path d="M5.6501 3.95v14.3782h12.7002V3.95H5.6501Zm-1.3-.15c0-.635.5147-1.15 1.15-1.15h13.0002c.6353 0 1.15.515 1.15 1.15v14.6782c0 .6352-.5148 1.15-1.15 1.15H5.5001c-.6352 0-1.15-.5148-1.15-1.15V3.8Z"/>
  <path d="M7.0571 21.6999v-2.7218h1.3v2.7218h-1.3Zm8.586 0v-2.7218h1.3v2.7218h-1.3Zm3.3571-8.1858H5v-1.3h14.0002v1.3Z"/>
</g></svg>