<svg xmlns="http://www.w3.org/2000/svg" data-laicon-version="15.0" viewBox="0 0 20 20" fill="black"><g transform="translate(-2 -2)">
  <path d="M20.1001 6.9177h-17v-1.3h17v1.3Z"/>
  <path d="m18.5125 6.2888-.4244 13.0472v.0001c-.0291.8898-.7588 1.5963-1.6492 1.5963h-9.678c-.8904 0-1.6202-.7065-1.6491-1.5964L4.6875 6.2888l1.2993-.0422.4243 13.0472a.35.35 0 0 0 .3499.3386h9.6779a.35.35 0 0 0 .3498-.3387l.4244-13.0471 1.2994.0422Z"/>
  <path d="M9.1602 16.4675V9.6676h1.3v6.7999h-1.3Zm3.5795 0V9.6676h1.3v6.7999h-1.3ZM9.0748 4.3676a.35.35 0 0 0-.35.35v1.5501h-1.3v-1.55c0-.9113.7387-1.65 1.65-1.65h5.0529c.9113 0 1.65.7387 1.65 1.65v1.55h-1.3v-1.55a.35.35 0 0 0-.35-.35H9.0748Z"/>
</g></svg>