<svg xmlns="http://www.w3.org/2000/svg" data-laicon-version="15.0" viewBox="0 0 20 20" fill="black"><g transform="translate(-2 -2)">
  <path d="M18.6199 8.18a7.672 7.672 0 0 0-6.62-3.83V2l-4 3 4 3V5.65c1.11 0 2.2.3 3.17.86.96.56 1.77 1.36 2.32 2.32.56.97.86 2.06.86 3.17 0 1.11-.3 2.2-.86 3.17-.56.96-1.36 1.77-2.32 2.32-1.93 1.12-4.41 1.12-6.34 0a6.3722 6.3722 0 0 1-2.32-2.32 6.3301 6.3301 0 0 1 0-6.34l-1.12-.65a7.6512 7.6512 0 0 0-1.03 3.82 7.6722 7.6722 0 0 0 7.65 7.65 7.6718 7.6718 0 0 0 7.65-7.65c0-1.33-.36-2.66-1.03-3.82h-.01Z"/>
</g></svg>