<svg xmlns="http://www.w3.org/2000/svg" data-laicon-version="15.0" viewBox="0 0 20 20" fill="black"><g transform="translate(-2 -2)">
  <path d="M4.1476 9.647a.35.35 0 0 0-.35.35v9.7176a.35.35 0 0 0 .35.35h12.9999a.35.35 0 0 0 .35-.35V9.9969a.35.35 0 0 0-.35-.35h-13Zm-1.65.35c0-.9114.7387-1.65 1.65-1.65h12.9999c.9113 0 1.6501.7386 1.6501 1.65v9.7176c0 .9113-.7388 1.65-1.6501 1.65h-13c-.9112 0-1.65-.7387-1.65-1.65V9.9969Z"/>
  <path d="M12.7075 7.0325c0-2.4286 1.9688-4.3972 4.3974-4.3972 2.4286 0 4.3974 1.9686 4.3974 4.3972V8.997h-1.3V7.0324c0-1.7105-1.3868-3.0972-3.0974-3.0972s-3.0974 1.3867-3.0974 3.0972V8.997h-1.3V7.0324ZM9.4692 13.8025c0-.6509.5276-1.1785 1.1785-1.1785.6509 0 1.1785.5276 1.1785 1.1785 0 .4107-.21.7723-.5285.9832v2.2113h-1.3v-2.2113a1.1774 1.1774 0 0 1-.5285-.9832Z"/>
</g></svg>