<svg xmlns="http://www.w3.org/2000/svg" data-laicon-version="15.0" viewBox="0 0 20 20" fill="black"><g transform="translate(-2 -2)">
  <path d="M10.6198 10.6004c.04.3.51.65 1.46.76l-.01-.02c2.21.27 2.54 1.51 2.59 1.88.11.84-.43 1.65-1.33 2.01-.24.09-.47.16-.69.2v1.22h-1.3v-1.24c-.96-.2-1.67-.78-2.01-1.21l1.02-.8c.04.05 1.01 1.22 2.5.63.34-.13.55-.39.52-.63-.04-.3-.51-.65-1.46-.76-2.21-.27-2.54-1.51-2.59-1.88-.11-.84.43-1.65 1.33-2.01.24-.09.47-.16.69-.2v-1.21h1.3v1.23c.96.21 1.67.79 2.01 1.22l-1.02.8c-.03-.04-1-1.21-2.49-.62-.34.13-.55.39-.52.63Z"/>
  <path d="M2.75 12.0003c0-5.1 4.15-9.25 9.25-9.25s9.25 4.15 9.25 9.25-4.15 9.25-9.25 9.25-9.25-4.15-9.25-9.25Zm1.3 0c0 4.38 3.57 7.95 7.95 7.95 4.38 0 7.95-3.57 7.95-7.95 0-4.38-3.57-7.95-7.95-7.95-4.38 0-7.95 3.57-7.95 7.95Z"/>
</g></svg>