<svg xmlns="http://www.w3.org/2000/svg" data-laicon-version="15.0" viewBox="0 0 20 20" fill="black"><g transform="translate(-2 -2)">
  <path d="M10.0195 10.6602c.04.24.44.52 1.26.62v.01c2.04.25 2.3399 1.4 2.3899 1.75.1.79-.4 1.54-1.24 1.88-.2.08-.39.13-.58.17v1.04h-1.3v-1.06c-.85-.19-1.49-.71-1.79-1.1l1.0201-.8c.09.11.9 1.05 2.17.55.31-.12.45-.34.43-.5-.04-.24-.4401-.53-1.2601-.63-2.04-.25-2.34-1.4-2.39-1.75-.1-.79.4-1.54 1.24-1.88.2-.08.39-.13.58-.17v-1.05h1.3v1.06c.85.19 1.4901.72 1.7901 1.1l-1.0201.8a.613.613 0 0 0-.0066-.0075c-.1179-.1321-.9202-1.0318-2.1633-.5325-.31.12-.45.34-.43.5Z"/>
  <path d="M20.4395 12.0002c0 .81-.11 1.6-.31 2.35h.01c1.13.63 1.9 1.82 1.9 3.2 0 2.03-1.65 3.68-3.68 3.68-1.06 0-2.01-.46-2.68-1.18-1.33.74-2.85 1.18-4.47 1.18-5.1 0-9.23-4.13-9.23-9.23 0-5.1 4.13-9.23 9.23-9.23 5.1 0 9.23 4.13 9.23 9.23Zm-17.16 0c0 4.38 3.55 7.93 7.93 7.93 1.36 0 2.63-.36 3.75-.96-.18-.43-.28-.91-.28-1.41 0-2.03 1.65-3.68 3.68-3.68.19 0 .36.02.54.05.15-.62.24-1.26.24-1.93 0-4.38-3.55-7.93-7.93-7.93s-7.93 3.55-7.93 7.93Zm14.67 7.09.57.57v-.02l2.11-2.11-2.11-2.11-.57.57 1.15 1.15h-2.93v.8h2.93l-1.15 1.15Z"/>
</g></svg>