<svg xmlns="http://www.w3.org/2000/svg" data-laicon-version="15.0" viewBox="0 0 20 20" fill="black"><g transform="translate(-2 -2)">
  <path d="M16.0528 20.7999H2v-2.8935c0-.9111.4744-1.7514 1.2467-2.2395l4.3808-2.7659c.095-.068.162-.1843.173-.3718.0119-.2027-.0505-.4152-.1387-.55-.274-.4191-.5744-.8968-.9972-1.6519-.1087-.0804-.2427-.1998-.3741-.3736-.2158-.2853-.402-.6864-.4857-1.2411-.0766-.5095.07-.9089.2166-1.1648C6.0992 5.0073 7.9728 3.2 10.4005 3.2c2.4268 0 4.3003 1.8074 4.3781 4.3478.1467.256.2933.655.2166 1.1645-.0837.5547-.2699.9561-.4857 1.2414-.1314.1738-.2653.2932-.3741.3736-.4228.7551-.7231 1.2327-.9972 1.6518-.0882.1349-.1505.3473-.1386.5498.0111.1874.0782.3038.1737.372l2.8795 1.8185v.1334h-2.2233l-1.3714-.8661-.0092-.0062c-.5123-.3486-.7182-.8876-.747-1.3749-.0282-.4766.1051-.9661.3483-1.338.2755-.4214.5792-.9047 1.0267-1.7114l.0894-.1613.1609-.0902.0011-.0007c.0137-.0075.0735-.0408.1444-.1346.074-.0978.1828-.2917.237-.6506.0285-.1898-.0486-.3187-.095-.3792l-.1346-.1751v-.2209a.904.904 0 0 1 .0006-.0324l.0004-.0086c-.0047-1.9248-1.3441-3.2027-3.0806-3.2027-1.7376 0-3.077 1.278-3.0816 3.2027l.0004.0086a.8539.8539 0 0 1 .0006.0324v.2209l-.1346.1751c-.0464.0605-.1235.189-.095.379.0542.359.163.553.237.6508.0709.0938.1307.127.1444.1346l.0011.0007.1609.0902.0894.1613c.4476.8067.7512 1.29 1.0267 1.7114.2432.3719.3764.8613.3485 1.3378-.0286.487-.234 1.026-.7457 1.3748l-.0094.0064-4.402 2.7793c-.4051.2561-.6412.6869-.6412 1.1405V19.5h12.7528v1.2999Z"/>
  <path d="M14.0103 16.1528h7.986v1.3h-7.986v-1.3Z"/>
  <path d="M18.6525 12.8101v7.986h-1.3v-7.986h1.3Z"/>
</g></svg>