<svg xmlns="http://www.w3.org/2000/svg" data-laicon-version="15.0" viewBox="0 0 20 20" fill="black"><g transform="translate(-2 -2)">
  <path d="M20.3102 4.43c0-.29-.2-.55-.49-.63-1.1-.29-4.06-.95-7.81-.95-4.22 0-7.29.83-7.86 1-.28.08-.47.33-.47.62v8.82c0 3.94 6.13 7.29 8.02 8.22.09.05.21.08.31.08.06 0 .14-.01.2-.03.04-.01.07-.02.11-.04 1.88-.93 8.02-4.28 8.02-8.22l-.03-8.85v-.02Zm-8.29 15.78c-1.5-.76-3.08-1.75-4.37-2.83 1.06-.73 2.46-1.69 2.78-1.91.8-.56.81-1.69.35-2.41-.22-.35-.47-.75-.83-1.42l-.09-.16-.15-.09c-.09-.06-.21-.24-.26-.59-.02-.12.02-.2.06-.25l.13-.2v-.22c0-1.5 1-2.59 2.38-2.59s2.38 1.09 2.38 2.61v.22l.13.17s.07.13.06.25c-.05.35-.17.53-.26.58l-.16.09-.09.16c-.36.67-.6 1.07-.83 1.43-.45.72-.45 1.84.36 2.4l2.78 1.92c-1.29 1.09-2.88 2.08-4.36 2.83l-.01.01Zm5.33-3.74-3.01-2.07c-.15-.1-.13-.45 0-.64.22-.35.46-.74.81-1.37.27-.21.6-.63.72-1.4.06-.44-.05-.78-.18-1.01-.08-2.13-1.63-3.72-3.68-3.72-2.05 0-3.59 1.58-3.67 3.72-.13.23-.24.58-.18 1.02.09.61.34 1.1.72 1.4.34.63.58 1.02.8 1.37.12.2.14.54 0 .65l-3.01 2.07c-1.02-1.05-1.69-2.14-1.69-3.19V4.97c1.08-.27 3.66-.82 7.03-.82 3.14 0 5.7.49 7 .79l.02 8.34c0 1.05-.67 2.15-1.69 3.19h.01Z"/>
</g></svg>