<svg xmlns="http://www.w3.org/2000/svg" data-laicon-version="15.0" viewBox="0 0 20 20" fill="black"><g transform="translate(-2 -2)">
  <path d="M16.3389 21.3569H2.3501v-2.9803c0-.8967.46-1.734 1.2064-2.2274l.0036-.0024 4.38-2.8527c.0935-.0685.1658-.1928.1779-.3985.0128-.2178-.0513-.4437-.1405-.5855-.27-.4282-.566-.9175-.9838-1.6926-.1128-.083-.2481-.2049-.3798-.3811-.2167-.2902-.4006-.6972-.4821-1.2592-.0776-.5145.0661-.9235.217-1.1882.077-2.582 1.9204-4.439 4.3548-4.439 2.4351 0 4.2774 1.867 4.3547 4.439.1509.2647.2947.6738.217 1.1884-.0814.5617-.2649.9686-.4771 1.2587-.1301.1778-.263.3007-.3712.3836-.4212.7806-.718 1.2629-.9844 1.6947l-.0031.005c-.0893.1418-.1535.3678-.1407.5858.012.2057.0843.33.1779.3985l2.6598 1.7324-.9852.9097-2.404-1.5657-.0086-.006c-.51-.3562-.7091-.905-.7377-1.3928-.0281-.4791.0997-.974.3367-1.3519.276-.4473.5758-.9346 1.0183-1.7632l.0868-.1625.1591-.0928.0009-.0005c.0117-.0067.0733-.0422.1463-.142.0763-.1044.1864-.3082.2399-.6792l.0007-.005c.032-.2099-.0547-.3512-.0899-.396l-.1389-.1769v-.2532c0-2.002-1.3471-3.3081-3.0573-3.3081-1.7113 0-3.0573 1.297-3.0573 3.3076v.2537l-.139.1768c-.0352.0449-.1219.1862-.0899.3962l.0008.0049c.0535.3709.163.5698.2373.6692.0714.0956.131.1273.1395.1317l.1733.0934.0924.173c.4446.8325.7448 1.3294 1.0165 1.7603.2381.3782.3667.8747.3385 1.3549-.0285.4877-.2277 1.0366-.7376 1.3927l-.0087.0061-4.3978 2.8643c-.3888.2578-.6215.6911-.6215 1.1418v1.6803h11.4971l1.1917 1.3Z"/>
  <path d="m17.3334 19.0381 3.1875-3.4773.9584.8784-4.1458 4.5227-2.8125-3.068.9582-.8785 1.8542 2.0227Z"/>
</g></svg>