<svg xmlns="http://www.w3.org/2000/svg" data-laicon-version="15.0" viewBox="0 0 20 20" fill="black"><g transform="translate(-2 -2)">
  <path d="m13.4988 15.2478-1.975-1.2864-.0086-.006c-.4823-.3369-.6689-.8549-.6956-1.3108-.0263-.4471.0927-.9091.3147-1.2631.2505-.406.5222-.8477.9235-1.599l.0867-.1624.1591-.0929c.0065-.0036.0558-.0314.1157-.1133.0632-.0863.1598-.2622.2072-.5905l.0007-.005c.0258-.1695-.0441-.2818-.0697-.3144l-.1389-.1767v-.2505c0-1.7892-1.2002-2.9468-2.7188-2.9468-1.5196 0-2.7187 1.1494-2.7187 2.9462v.251l-.139.1768c-.0255.0326-.0955.145-.0697.3144l.0008.005c.0473.3282.1435.4995.2044.581a.4514.4514 0 0 0 .0765.0818.194.194 0 0 0 .0314.0214l.1727.093.0924.1731c.4033.7551.6754 1.2054.9215 1.5959.2232.3544.343.8179.3168 1.2662-.0268.4559-.2134.974-.6957 1.3108l-.0086.0061-3.9951 2.602-.0016.0011c-.337.2235-.5381.5987-.5381.9879v1.4675h8.3409v1.3H2.0498v-2.7675c0-.8351.4283-1.6143 1.1228-2.0735l.0037-.0024 3.9785-2.5912c.0666-.0494.1261-.1435.1363-.3168.0109-.1861-.0445-.3792-.1189-.4972-.2445-.388-.5124-.8309-.8895-1.5296a1.7254 1.7254 0 0 1-.3466-.3506c-.2035-.2724-.374-.6517-.4493-1.171-.0716-.4753.0576-.855.197-1.1049.0775-2.368 1.7738-4.0765 4.016-4.0765 2.243 0 3.9383 1.7176 4.016 4.0765.1395.2498.2687.6297.197 1.105-.0753.5191-.2453.898-.4443 1.1701a1.7674 1.7674 0 0 1-.3389.3528c-.3804.7044-.6492 1.1412-.8903 1.5319l-.0031.005c-.0744.1181-.1298.3111-.1189.4972.0102.1733.0697.2674.1363.3168l2.1847 1.423-.9395.9395Zm3.8511 5.0585-.005.0049h.005v-.0049Z"/>
  <path d="M12.8911 20.3108V17.553l6.13-6.1301 2.7577 2.7577-6.13 6.1301-2.7577.0001Zm1.3-1.3001h.9192l4.83-4.8301-.9192-.9192-4.83 4.83v.9193Z"/>
</g></svg>