<svg xmlns="http://www.w3.org/2000/svg" data-laicon-version="15.0" viewBox="0 0 20 20" fill="black"><g transform="translate(-2 -2)">
  <path d="M12 2.7502c-5.1 0-9.25 4.15-9.25 9.2501 0 5.1 4.15 9.25 9.25 9.25s9.25-4.15 9.25-9.25-4.15-9.25-9.25-9.25ZM7.56 18.5903c1.09-.75 2.41-1.66 2.73-1.88.83-.58.84-1.75.36-2.5-.24-.38-.5-.81-.88-1.52l-.09-.16-.16-.09c-.1-.06-.24-.26-.29-.65-.02-.14.03-.24.07-.29l.13-.2v-.22c0-1.62 1.08-2.79 2.57-2.79 1.49 0 2.57 1.17 2.57 2.82v.22l.13.17c.04.06.09.15.07.29-.06.39-.19.59-.29.65l-.16.09-.09.16c-.38.71-.65 1.15-.88 1.52-.47.75-.47 1.92.37 2.5.32.22 1.64 1.13 2.72 1.88-1.27.86-2.79 1.36-4.44 1.36-1.65 0-3.17-.5-4.44-1.36Zm9.92-.85c-1.13-.77-2.68-1.85-3.03-2.09-.19-.13-.14-.54-.01-.74.23-.36.49-.78.86-1.46.28-.22.64-.65.76-1.47.07-.46-.06-.82-.19-1.06-.08-2.25-1.71-3.93-3.87-3.93s-3.78 1.66-3.87 3.93c-.13.24-.26.6-.19 1.07.12.82.48 1.25.76 1.47.37.69.63 1.11.86 1.46.13.2.18.61-.01.74-.34.24-1.87 1.29-3.03 2.09-1.51-1.45-2.46-3.48-2.46-5.74 0-4.38 3.57-7.95 7.95-7.95 4.38 0 7.95 3.57 7.95 7.95 0 2.26-.95 4.29-2.46 5.74l-.02-.01Z"/>
</g></svg>