<svg xmlns="http://www.w3.org/2000/svg" data-laicon-version="18.8" viewBox="0 0 20 20" fill="black"><g transform="translate(-2 -2)">
  <path d="M10.438 3.137c2.335 0 4.104 1.792 4.178 4.263.14.253.28.642.207 1.137-.079.541-.256.935-.462 1.216a1.785 1.785 0 0 1-.355.363 27.52 27.52 0 0 1-.94 1.614l-.002.001a.965.965 0 0 0-.13.538c.01.19.078.3.163.359l.588.384-.037.037a2.262 2.262 0 0 0-.909.898l-.37-.242-.01-.006-.01-.007c-.494-.347-.686-.878-.713-1.35-.026-.464.1-.943.33-1.308.26-.413.548-.884.972-1.67l.087-.163.16-.093c.006-.004.062-.033.128-.124.069-.093.172-.283.223-.634a.483.483 0 0 0-.087-.366l-.13-.173v-.26c-.005-1.891-1.276-3.112-2.882-3.113-1.609 0-2.881 1.227-2.881 3.125v.248l-.13.173a.482.482 0 0 0-.088.366c.051.351.155.54.224.633a.544.544 0 0 0 .085.095l.041.03.163.091.087.164c.423.788.71 1.26.97 1.672.23.365.358.843.332 1.307-.027.472-.22 1.003-.716 1.35l-.008.007-.01.006-4.108 2.678a1.43 1.43 0 0 0-.648 1.196v1.485h8.71v.997c0 .103.01.204.022.302H2.45V17.58c0-.864.41-1.675 1.099-2.187l.141-.099 4.09-2.665c.084-.06.151-.169.162-.36a1.002 1.002 0 0 0-.074-.426l-.056-.112a25.73 25.73 0 0 1-.943-1.613 1.795 1.795 0 0 1-.354-.364c-.206-.28-.383-.674-.462-1.215A1.784 1.784 0 0 1 6.259 7.4c.074-2.47 1.843-4.262 4.178-4.262Zm9.866 10.043-.903.902h1.553a.95.95 0 0 1 .95.95v5.029a.95.95 0 0 1-.95.95h-6.24a.95.95 0 0 1-.95-.95v-5.03a.95.95 0 0 1 .95-.95h1.549l-.903-.902.92-.92 1.552 1.552 1.552-1.552.92.92Zm-5.24 4.628v1.903h2.118v-1.903h-2.117Zm3.418 0v1.903h2.122v-1.903h-2.122Zm-3.417-1.3h2.117v-1.126h-2.117v1.125Zm3.417 0h2.122v-1.126h-2.122v1.125Z"/>
</g></svg>