<svg xmlns="http://www.w3.org/2000/svg" data-laicon-version="16.3" viewBox="0 0 20 20" fill="black"><g transform="translate(-2 -2)">
  <path d="M18.941 5.922 5.918 18.959a9.247 9.247 0 0 1-3.168-6.964c0-5.103 4.148-9.255 9.235-9.245 2.779 0 5.257 1.23 6.956 3.172Zm-9.05 6.99.095.174 3.918-3.923a2.43 2.43 0 0 0-1.909-.88c-1.49 0-2.569 1.17-2.569 2.792v.22l-.13.2c-.04.05-.09.15-.07.29.05.39.19.59.29.65l.16.09.09.16.124.226Zm7.241-6.98a7.898 7.898 0 0 0-5.137-1.891l.02-.02c-4.378 0-7.946 3.572-7.946 7.954 0 1.961.71 3.752 1.89 5.143l3.088-3.092c-.11-.18-.22-.37-.34-.6-.29-.22-.64-.65-.76-1.471-.07-.46.06-.82.19-1.06.09-2.272 1.72-3.933 3.868-3.933 1.14 0 2.129.49 2.829 1.271l2.298-2.301Zm1.669 1.971.94-.94h.01a9.14 9.14 0 0 1 1.5 5.032c0 5.103-4.149 9.255-9.246 9.255a9.223 9.223 0 0 1-5.027-1.5l.94-.941a7.895 7.895 0 0 0 4.087 1.14c1.65 0 3.168-.5 4.438-1.36-.53-.369-1.12-.776-1.621-1.121-.518-.358-.94-.648-1.098-.76-.84-.58-.84-1.751-.37-2.502.23-.37.5-.81.88-1.52l.09-.16.16-.09c.08-.04.18-.19.25-.441l1.139-1.14v.06c.13.24.26.6.19 1.06-.12.82-.48 1.25-.76 1.47-.37.681-.63 1.101-.86 1.462-.13.2-.18.61.01.74.333.228 1.749 1.207 2.858 1.973l.171.118a7.942 7.942 0 0 0 2.459-5.743c0-1.5-.42-2.892-1.14-4.092Z"/>
</g></svg>