<svg xmlns="http://www.w3.org/2000/svg" data-laicon-version="15.4" viewBox="0 0 20 20" fill="black"><g transform="translate(-2 -2)">
  <path d="M3.31 17.79c0-.85.43-1.64 1.14-2.1l.03.01 4.07-2.66c.2-.15.15-.61 0-.84-.24-.38-.52-.84-.92-1.57-.3-.23-.67-.68-.8-1.55-.07-.49.06-.87.2-1.12.08-2.4 1.8-4.16 4.08-4.16 2.28 0 4.02 1.78 4.09 4.17.14.25.27.63.2 1.11-.13.87-.51 1.32-.8 1.55-.4.74-.68 1.19-.92 1.57-.14.23-.2.69.03.85l3.41 2.22-.32 1.34-3.82-2.49c-.86-.6-.9-1.84-.4-2.62.24-.38.52-.85.94-1.63l.09-.16.16-.09.002-.001c.044-.033.25-.187.328-.729a.425.425 0 0 0-.08-.34l-.13-.17v-.22c0-1.78-1.17-3.05-2.79-3.05S8.31 6.38 8.31 8.13v.22l-.13.2c-.04.05-.1.17-.08.34.06.43.21.66.33.73l.16.09.09.16c.42.78.71 1.25.95 1.63.5.78.46 2.02-.38 2.61l-4.09 2.67c-.34.22-.55.6-.55 1.01v1.52h11.54l-.31 1.3H3.31v-2.82Zm15.7-6.07a.96.96 0 1 1 1.92 0 .96.96 0 0 1-1.92 0Zm-1.35 2.01c0-.13.1-.23.23-.23h1.78c.39.02.7.35.7.75 0 .06 0 .11-.02.17l-1.17 5s-.02.08-.02.13c0 .24.16.45.38.52.05.02.11.03.17.03h.34c.13 0 .23.1.23.23s-.1.22-.23.22h-1.78a.746.746 0 0 1-.7-.75c0-.06 0-.11.02-.17l1.17-5s.01-.08.01-.13a.55.55 0 0 0-.38-.52.508.508 0 0 0-.17-.03h-.34c-.13 0-.23-.1-.23-.23l.01.01Z"/>
</g></svg>