<svg xmlns="http://www.w3.org/2000/svg" data-laicon-version="17.1" viewBox="0 0 20 20" fill="black"><g transform="translate(-2 -2)">
  <path d="m13.477 13.304 1.817 1.184-.756 1.059-1.79-1.167-.01-.006c-.51-.356-.708-.905-.737-1.393a2.35 2.35 0 0 1 .337-1.352c.276-.447.575-.934 1.018-1.763l.087-.162.159-.093a.49.49 0 0 0 .147-.143c.076-.104.186-.308.24-.679v-.005a.521.521 0 0 0-.09-.396l-.138-.177v-.253c0-2.002-1.347-3.308-3.058-3.308-1.71 0-3.057 1.297-3.057 3.308v.253l-.139.177a.522.522 0 0 0-.09.396l.001.005c.054.371.163.57.237.67a.436.436 0 0 0 .14.131l.173.093.093.174c.444.832.744 1.329 1.016 1.76.238.378.367.874.339 1.355-.029.488-.228 1.036-.738 1.393l-.009.005-4.398 2.865a1.38 1.38 0 0 0-.621 1.142v1.68h8.85v1.3H2.35v-2.98c0-.897.46-1.734 1.206-2.228l.004-.002 4.38-2.853c.094-.068.166-.193.178-.398a1.052 1.052 0 0 0-.14-.586 26.21 26.21 0 0 1-.984-1.693 1.827 1.827 0 0 1-.38-.38c-.217-.29-.4-.698-.482-1.26a1.827 1.827 0 0 1 .217-1.188c.077-2.582 1.92-4.439 4.354-4.439 2.436 0 4.278 1.867 4.355 4.439.151.265.295.674.217 1.188-.081.562-.265.969-.477 1.26-.13.177-.263.3-.371.383-.421.78-.718 1.263-.984 1.694l-.004.005a1.053 1.053 0 0 0-.14.586c.012.206.084.33.178.399Zm3.859 1.127a2.4 2.4 0 1 1 1.01 3.997l-.554.553a.15.15 0 0 1-.106.044h-.66v.66a.15.15 0 0 1-.043.106l-.252.251a.15.15 0 0 1-.106.044h-.659v.66a.15.15 0 0 1-.044.105l-.375.376a.45.45 0 0 1-.319.131l-.978-.001a.45.45 0 0 1-.45-.451l.002-.974a.45.45 0 0 1 .132-.317l2.8-2.8a2.4 2.4 0 0 1 .602-2.384Zm1.697 1.097a.6.6 0 1 0 0 1.2.6.6 0 0 0 0-1.2Z"/>
</g></svg>