<svg xmlns="http://www.w3.org/2000/svg" data-laicon-version="15.0" viewBox="0 0 20 20" fill="black"><g transform="translate(-2 -2)">
  <path d="M18.1 3.2501H5.9c-1.46 0-2.65 1.19-2.65 2.65v12.2c0 1.46 1.19 2.65 2.65 2.65h12.2c1.46 0 2.65-1.19 2.65-2.65v-12.2c0-1.46-1.19-2.65-2.65-2.65Zm-7.27 10.38c-.22-.34-.46-.74-.81-1.39l-.09-.16-.16-.09c-.06-.04-.19-.2-.24-.55-.02-.11.02-.18.05-.23l.13-.2v-.22c0-1.47.94-2.5 2.3-2.5 1.36 0 2.3 1.05 2.3 2.52v.22l.13.17s.07.12.05.23c-.05.36-.18.52-.24.55l-.16.09-.09.16c-.35.65-.59 1.04-.81 1.39-.45.71-.44 1.81.35 2.36.33.23 2.07 1.43 3.14 2.16.36.25.57.65.57 1.09v.21H6.76v-.21c0-.44.21-.84.57-1.09 1.07-.74 2.81-1.93 3.14-2.17.79-.55.79-1.66.35-2.36l.01.02Zm8.62 4.48c0 .58-.38 1.07-.9 1.26v-.12c0-.86-.42-1.67-1.13-2.16-1.07-.73-2.8-1.93-3.13-2.16-.13-.09-.11-.42 0-.6.22-.34.45-.72.78-1.33.26-.21.59-.62.7-1.38.06-.43-.05-.76-.17-.99-.07-2.08-1.59-3.64-3.59-3.64-2 0-3.51 1.54-3.59 3.63-.12.23-.24.57-.17 1 .11.75.44 1.16.7 1.37.33.61.57.99.78 1.33.11.18.14.51 0 .6-.33.23-2.06 1.42-3.13 2.16-.71.49-1.13 1.3-1.13 2.16v.12c-.53-.18-.92-.67-.92-1.26v-12.2c0-.74.61-1.35 1.35-1.35h12.2c.74 0 1.35.61 1.35 1.35v12.21Z"/>
</g></svg>