<svg xmlns="http://www.w3.org/2000/svg" data-laicon-version="17.1" viewBox="0 0 20 20" fill="black"><g transform="translate(-2 -2)">
  <path d="M11.35 8.58v-.22c0-1.72 1.15-2.96 2.73-2.96s2.73 1.25 2.73 2.99v.22l.13.17c.05.07.1.18.08.33-.078.53-.273.675-.318.708l-.002.002-.16.09-.09.16c-.41.76-.69 1.22-.93 1.6-.49.77-.49 1.98.37 2.58.065.047.178.126.328.229l.362.251.83-1.01a46.515 46.515 0 0 1-.77-.53c-.21-.15-.16-.6-.02-.82.24-.38.51-.82.9-1.54.29-.23.66-.67.79-1.53.07-.48-.06-.85-.2-1.1-.07-2.35-1.78-4.1-4.03-4.1s-3.94 1.74-4.03 4.1c-.14.25-.27.62-.2 1.1.1.67.37 1.21.79 1.53.39.72.66 1.17.9 1.54.14.23.2.67-.02.82-.3.21-1.63 1.13-2.78 1.92l-.93.64a2.64 2.64 0 0 0-1.15 2.18v2.72h6.83v-1.3H7.96v-1.42c0-.44.22-.86.58-1.11l1.296-.892c1.053-.723 2.155-1.48 2.424-1.668.86-.6.86-1.81.37-2.58-.24-.38-.52-.83-.93-1.6l-.09-.16-.16-.09c-.12-.07-.27-.29-.33-.71a.44.44 0 0 1 .08-.33l.13-.2.02-.01Z"/>
  <path d="m4.39 16.82 1.02-.7c.341-.236.695-.48 1.031-.71A158.36 158.36 0 0 0 8.1 14.26c.86-.6.86-1.81.37-2.58-.24-.38-.52-.84-.93-1.6l-.09-.16-.16-.09c-.12-.07-.26-.29-.33-.71a.44.44 0 0 1 .08-.33l.13-.2v-.22c0-1.54.93-2.7 2.27-2.92.27-.48.6-.92 1-1.29l-.137-.017A3.116 3.116 0 0 0 9.9 4.11c-2.24 0-3.94 1.74-4.03 4.1-.14.25-.27.62-.2 1.11.13.85.5 1.3.79 1.52.39.71.66 1.16.9 1.54.14.23.2.67-.02.82-.236.17-1.119.777-2.043 1.412L3.64 15.75a2.64 2.64 0 0 0-1.15 2.18v2.72H5.3v-1.3H3.79v-1.42c0-.44.22-.86.58-1.11h.02Zm13.74-2.21c.81-.82 2.14-.82 2.96 0l-.03.03c.82.81.82 2.14 0 2.96-.55.55-1.35.75-2.1.52l-.5.5c-.02.02-.07.03-.07.03h-.58c-.02 0-.03.03-.03.03v.58c0 .03-.03.07-.03.07l-.22.22c-.02.02-.07.03-.07.03h-.58c-.02 0-.03.03-.03.03v.58c0 .03-.03.07-.03.07l-.33.33c-.07.07-.16.11-.26.11h-.87c-.1 0-.2-.04-.26-.11a.4.4 0 0 1-.1-.26v-.86c0-.1.04-.19.11-.26l2.5-2.5c-.23-.75-.03-1.55.52-2.1Zm1.48 2.03c.3 0 .55-.25.55-.55 0-.3-.25-.55-.55-.55-.3 0-.55.25-.55.55 0 .3.25.55.55.55Z"/>
</g></svg>