<svg xmlns="http://www.w3.org/2000/svg" data-laicon-version="15.0" viewBox="0 0 20 20" fill="black"><g transform="translate(-2 -2)">
  <path d="M3.65 20.0601h9.2701l-.07.01 1.2999 1.3H2.29v-2.98c0-.9.46-1.73 1.21-2.23l4.38-2.85c.1-.07.17-.19.18-.4.01-.22-.05-.45-.14-.59-.27-.43-.56-.91-.98-1.69-.11-.08-.25-.2-.38-.38-.21-.29-.4-.7-.48-1.26-.07-.52.07-.93.22-1.19.08-2.58 1.93-4.44 4.3601-4.44 2.43 0 4.27 1.87 4.35 4.44.15.27.3.68.22 1.19-.08.56-.2701.97-.4801 1.26-.13.17-.2599.3-.3699.38-.42.78-.7101 1.26-.9801 1.7-.09.15-.1499.37-.1399.59.01.21.0899.33.1799.4l.9701.63-.9401.94-.75-.49v-.01c-.51-.35-.7099-.9-.7399-1.39-.02-.48.1-.97.34-1.35.28-.44.5799-.93 1.0199-1.76l.09-.16.16-.09c.01 0 .08-.04.15-.14.08-.1.1901-.3.2401-.68.03-.21-.09-.4-.09-.4l-.1401-.18v-.26c0-2-1.35-3.31-3.06-3.31s-3.06 1.3-3.06 3.32v.24l-.14.18c-.04.04-.12.19-.09.4.06.37.17.57.24.67.07.09.14.13.14.13l.17.09.09.17c.45.83.75 1.33 1.02 1.76.24.37.37.87.34 1.35-.03.48-.23 1.03-.74 1.39v.01l-4.39 2.86c-.39.26-.62.69-.62 1.14v1.68Z"/>
  <path d="m20.1699 14.4402.92.92-2.4101 2.4 2.4101 2.41-.92.92-2.41-2.41-2.4001 2.41-.9199-.92 2.4-2.41-2.4-2.4.9199-.92 2.4001 2.4 2.41-2.4Z"/>
</g></svg>