<svg xmlns="http://www.w3.org/2000/svg" data-laicon-version="15.0" viewBox="0 0 20 20" fill="black"><g transform="translate(-2 -2)">
  <path d="m16.098 15.011-2.6213-1.7073c-.0936-.0685-.1659-.1928-.1779-.3985-.0128-.218.0514-.444.1407-.5858l.0031-.005c.2664-.4318.5632-.9141.9844-1.6947.1082-.0829.2411-.2058.3712-.3836.2122-.2901.3957-.697.4771-1.2587.0777-.5146-.0661-.9237-.217-1.1885-.0773-2.572-1.9196-4.439-4.3547-4.439-2.4344 0-4.2778 1.8571-4.3548 4.439-.1509.2648-.2946.6738-.217 1.1883.0815.562.2654.969.4821 1.2592.1317.1762.267.2981.3798.3811.4179.7751.7138 1.2644.9838 1.6926.0892.1418.1533.3677.1405.5855-.012.2057-.0844.33-.178.3985l-4.3799 2.8527-.0036.0024C2.81 16.6426 2.35 17.4799 2.35 18.3766v2.9803h14.8222l-1.3-1.3H3.6501v-1.6803c0-.4507.2327-.884.6215-1.1418l4.3978-2.8643.0087-.0061c.51-.3561.709-.905.7376-1.3927.0282-.4802-.1004-.9767-.3385-1.3549-.2717-.4309-.5719-.9278-1.0165-1.7603l-.0924-.173L7.795 9.59c-.0084-.0044-.0681-.036-.1395-.1317-.0743-.0994-.1838-.2983-.2374-.6692l-.0007-.005c-.032-.2099.0547-.3512.09-.396l.1389-.1769v-.2537c0-2.0105 1.346-3.3076 3.0573-3.3076 1.7102 0 3.0573 1.306 3.0573 3.308v.2533l.1389.1768c.0352.0449.1219.1862.0899.3962l-.0007.0049c-.0535.371-.1636.5748-.2399.6792-.073.0998-.1346.1353-.1463.142l-.0009.0005-.1591.0928-.0868.1625c-.4425.8286-.7423 1.3159-1.0183 1.7632-.237.3779-.3648.8728-.3367 1.3519.0286.4878.2277 1.0366.7377 1.3928l.0086.006 2.4111 1.5704.9396-.9395Z"/>
  <path d="m17.365 18.2968 2.2948 2.2948-.9192.9193-3.8641-3.8641 3.8641-3.8641.9192.9192-2.2948 2.2949h4.5588v1.3H17.365Z"/>
</g></svg>