<svg xmlns="http://www.w3.org/2000/svg" data-laicon-version="15.0" viewBox="0 0 20 20" fill="black"><g transform="translate(-2 -2)">
  <path d="M20.6501 21.541h-17.3v-3.075c0-.927.464-1.783 1.241-2.289l4.562-2.975c.281-.197.21-.764.032-1.045-.273-.432-.587-.945-1.032-1.766-.319-.243-.736-.736-.876-1.691-.078-.534.073-.951.226-1.219.089-2.651 1.992-4.602 4.497-4.602 2.517 0 4.426 1.969 4.499 4.606.153.269.302.684.225 1.215-.141.955-.558 1.448-.877 1.691-.451.832-.763 1.341-1.033 1.767-.178.281-.248.846.053 1.057l4.542 2.961c.777.507 1.242 1.362 1.242 2.29v3.075h-.001Zm-16-1.301h14.7v-1.774c0-.486-.243-.935-.65-1.2l-4.562-2.974c-.925-.649-.958-1.983-.422-2.831.272-.429.589-.947 1.062-1.826l.087-.162.159-.092c.073-.043.32-.231.413-.87.033-.22-.052-.371-.105-.442l-.132-.174v-.218c.001-2.041-1.345-3.498-3.2-3.498-1.855 0-3.202 1.457-3.202 3.464v.217l-.128.208c-.066.087-.137.235-.107.444.094.638.34.826.414.869l.159.092.087.162c.466.868.785 1.391 1.061 1.826.536.847.502 2.181-.402 2.818l-4.581 2.986c-.407.266-.651.714-.651 1.2v1.775Z"/>
</g></svg>