<svg xmlns="http://www.w3.org/2000/svg" data-laicon-version="15.0" viewBox="0 0 20 20" fill="black"><g transform="translate(-2 -2)">
  <path d="M17.4 20.3001H2v-2.7c0-.8.4-1.6 1.1-2l4-2.5c.2-.1.1-.5 0-.8-.2-.4-.5-.8-.9-1.5-.2-.3-.6-.7-.7-1.6-.1-.5.1-.8.2-1.1.1-2.3 1.8-4 4-4s4 1.7 4 4c.2.3.3.6.3 1.1-.1.8-.5 1.3-.8 1.5-.4.7-.7 1.1-.9 1.5-.1.2-.2.6 0 .8l4 2.5c.7.5 1.1 1.2 1.1 2v2.8Zm-14.1-1.3h12.8v-1.4c0-.4-.2-.7-.5-.9l-4-2.5c-.9-.6-.9-1.8-.4-2.6.2-.4.5-.8.9-1.6l.1-.2.2-.1c.1-.1.3-.3.3-.7 0-.1 0-.2-.1-.3l-.1-.2v-.2c0-1.7-1.1-2.9-2.7-2.9s-2.8 1.2-2.8 2.9v.2l-.1.2c0 .1-.1.2-.1.3 0 .4.2.6.3.7l.2.1.1.2c.4.7.7 1.2.9 1.6.5.8.5 2-.4 2.5l-4 2.6c-.3.2-.5.6-.5.9v1.4h-.1Zm18.6998-12.9h-6.7v1.3h6.7v-1.3Zm0 3.0999h-6.7v1.3h6.7V9.2Z"/>
  <path d="M21.9998 12.2h-6.7v1.3h6.7v-1.3Z"/>
</g></svg>