<svg xmlns="http://www.w3.org/2000/svg" data-laicon-version="15.0" viewBox="0 0 20 20" fill="black"><g transform="translate(-2 -2)">
  <path d="M9.9902 3.55c-2.28 0-4.02 1.77-4.11 4.18-.14.25-.27.63-.2 1.12.13.87.51 1.33.8 1.56.353.65.615 1.08.882 1.518l.038.062c.15.23.2.7 0 .85l-4.02 2.62a2.6902 2.6902 0 0 0-1.22 2.25v2.74h11.73c-.21-.33-.34-.72-.34-1.15v-.16h-10.1V17.7c0-.47.24-.9.63-1.16l4.04-2.64c.87-.61.88-1.84.38-2.62l-.034-.055a23.5655 23.5655 0 0 1-.916-1.585l-.09-.17-.16-.09s-.25-.16-.34-.73c-.02-.17.03-.28.08-.35l.13-.2v-.22c0-1.77 1.18-3.05 2.81-3.05 1.63 0 2.81 1.28 2.81 3.08v.22l.13.17c.04.06.11.17.08.35-.06.43-.22.67-.34.73l-.16.09-.09.16c-.42.77-.7 1.23-.95 1.64-.5.79-.47 2.03.4 2.63l1.69 1.1c.03-.47.21-.89.5-1.23l-1.46-.95c-.23-.16-.18-.63-.03-.86.25-.4.53-.85.92-1.58.3-.23.67-.68.8-1.56.07-.49-.06-.87-.2-1.12-.07-2.4-1.82-4.19-4.11-4.19l.02.04Zm7.56 12.87v1.775h1.3V16.42h-1.3Z"/>
  <path d="M20.7201 14.0299h-.03v-.98a2.48 2.48 0 0 0-4.96 0v.98h-.02c-.63 0-1.15.51-1.15 1.15v4.12c0 .64.52 1.15 1.15 1.15h5.01c.63 0 1.15-.51 1.15-1.15v-4.12c0-.64-.52-1.15-1.15-1.15Zm-3.7-.98c0-.65.53-1.18 1.18-1.18.65 0 1.18.53 1.18 1.18v.98h-2.36v-.98Zm3.54 6.1h-4.71v-3.83h4.71v3.83Z"/>
</g></svg>