<svg xmlns="http://www.w3.org/2000/svg" data-laicon-version="15.0" viewBox="0 0 20 20" fill="black"><g transform="translate(-2 -2)">
  <path d="m15.3597 15.1801.8301.57h-.0101c.72.49 1.1501 1.31 1.1501 2.18v2.72h-14.82v-2.95c0-.73.36-1.41.96-1.82l.57-.39c1.23-.84 2.97-2.04 3.32-2.29.21-.15.16-.6.02-.82-.24-.38-.51-.83-.9-1.54-.29-.23-.66-.68-.79-1.53-.07-.48.06-.85.2-1.1.09-2.36 1.78-4.1 4.03-4.1 2.2499 0 3.96 1.75 4.03 4.1.14.25.27.62.2 1.1-.1.67-.3801 1.21-.7901 1.53-.39.72-.6599 1.17-.8999 1.54-.15.22-.2001.67.0199.82.1331.0902.4671.3204.8975.6171.5722.3944 1.3148.9064 1.9825 1.3629Zm-11.55 4.17h12.2101v-1.42c0-.44-.21-.86-.58-1.11l-.8301-.57-.3964-.2721c-1.079-.7405-2.2177-1.5221-2.4936-1.7179-.86-.6-.8699-1.81-.3799-2.58.24-.38.52-.83.93-1.6l.0899-.16.1501-.09c.06-.03.25-.19.33-.71.02-.17-.04-.28-.08-.33l-.13-.17v-.22c0-1.74-1.15-2.99-2.73-2.99s-2.73 1.24-2.73 2.96v.22l-.13.2c-.04.05-.1.16-.08.33.07.42.21.64.33.71l.16.09.09.16c.41.76.69 1.22.93 1.6.49.77.49 1.98-.37 2.58-.2226.159-1.0111.702-1.872 1.2949-.4932.3396-1.01.6956-1.458 1.0051l-.57.39c-.24.17-.39.45-.39.75v1.65Z"/>
  <path d="m19.9198 15.4601.43.29-.01.01c.72.49 1.15 1.31 1.15 2.18v2.72h-2.81v-1.3h1.51v-1.42c0-.44-.21-.86-.58-1.11l-.43-.3c-1.23-.85-2.94-2.03-3.29-2.27-.86-.6-.86-1.81-.37-2.58.25-.4.53-.85.93-1.6l.09-.16.16-.09c.12-.07.27-.29.33-.71.02-.17-.04-.28-.08-.33l-.13-.17v-.22c0-1.57-.93-2.73-2.27-2.95-.28-.48-.6-.92-1-1.29a8.7239 8.7239 0 0 0 .1374-.0167c.1314-.0167.2615-.0333.4026-.0333 2.25 0 3.96 1.75 4.03 4.1.14.25.27.62.2 1.1-.1.68-.38 1.21-.79 1.53-.4.73-.67 1.18-.9 1.54-.15.22-.2.67.02.82.34.24 2.04 1.42 3.27 2.26Z"/>
</g></svg>