<svg xmlns="http://www.w3.org/2000/svg" data-laicon-version="15.0" viewBox="0 0 20 20" fill="black"><g transform="translate(-2 -2)">
  <path d="M4.5435 7.2783c0-2.3803 1.7267-4.446 4.015-4.446 2.2891 0 4.0159 2.0656 4.0159 4.446 0 2.149-1.4074 4.0424-3.3657 4.39v9.3809h-1.3v-9.3808c-1.9578-.3476-3.3652-2.2412-3.3652-4.3901Zm4.015-3.146c-1.4277 0-2.715 1.3322-2.715 3.146 0 1.814 1.2875 3.147 2.715 3.147 1.4286 0 2.7159-1.3332 2.7159-3.147 0-1.8136-1.2871-3.146-2.716-3.146ZM14.314 3.483h1.3005l-.4815 17.566h-1.3005l.4815-17.566Zm3.0762 17.566h1.3005l-.4815-17.566h-1.3005l.4815 17.566Z"/>
</g></svg>