<svg xmlns="http://www.w3.org/2000/svg" data-laicon-version="15.0" viewBox="0 0 20 20" fill="black"><g transform="translate(-2 -2)">
  <path d="M7.3088 5.277c-1.4206 0-2.5723 1.1516-2.5723 2.5722 0 1.4207 1.1517 2.5723 2.5723 2.5723 1.4207 0 2.5723-1.1516 2.5723-2.5723 0-1.4206-1.1516-2.5723-2.5723-2.5723ZM3.4365 7.8491c0-2.1386 1.7337-3.8723 3.8723-3.8723 2.1386 0 3.8723 1.7337 3.8723 3.8723 0 2.1386-1.7337 3.8723-3.8723 3.8723-2.1386 0-3.8723-1.7337-3.8723-3.8723ZM14.1188 4.627v3.2222c0 1.4208 1.1517 2.5725 2.5723 2.5725 1.4206 0 2.5723-1.1517 2.5723-2.5724V4.6268h1.3v3.2223c0 2.1387-1.7337 3.8725-3.8723 3.8725-2.1386 0-3.8723-1.7338-3.8723-3.8725V4.627h1.3Z"/>
  <path d="M6.6587 20.3731v-9.3014h1.3v9.3014h-1.3Zm9.3823-.0001V4.627h1.3v15.746h-1.3Z"/>
</g></svg>