<svg xmlns="http://www.w3.org/2000/svg" data-laicon-version="17.5" viewBox="0 0 20 20" fill="black"><g transform="translate(-2 -2)">
  <path d="M17.45 4.37S19.6 7.53 19.6 12s-2.13 7.6-2.15 7.63l-.26.37h1.56c.6-1.01 2.15-3.97 2.15-8 0-4.03-1.55-6.99-2.15-8h-1.56l.26.37ZM6.55 19.63S4.4 16.47 4.4 12s2.13-7.6 2.15-7.63L6.81 4H5.25c-.6 1.01-2.15 3.97-2.15 8 0 4.03 1.55 6.99 2.15 8h1.56l-.26-.37ZM16 9.15h.65v-1.3H16c-1.15 0-2.23.56-2.9 1.49l-.96 1.34-.53-1.23a2.643 2.643 0 0 0-2.44-1.61h-.83v1.3h.83c.54 0 1.03.32 1.24.82l.84 1.95-.17.23-1.25 1.75c-.42.59-1.11.95-1.84.95h-.65v1.3h.65c1.15 0 2.23-.56 2.9-1.49l.96-1.34.53 1.23c.42.98 1.38 1.61 2.44 1.61h.83v-1.3h-.83c-.54 0-1.03-.32-1.24-.82l-.84-1.95 1.42-1.98A2.27 2.27 0 0 1 16 9.15Z"/>
</g></svg>