<svg xmlns="http://www.w3.org/2000/svg" data-laicon-version="15.0" viewBox="0 0 20 20" fill="black"><g transform="translate(-2 -2)">
  <path d="M10.2687 9.1133a.65.65 0 0 1 .6513.0023l3.9794 2.3223a.6498.6498 0 0 1-.0024 1.1242l-3.9794 2.2995a.6502.6502 0 0 1-.9752-.5628V9.677a.65.65 0 0 1 .3263-.5637Zm.9737 1.6956v2.3636l2.035-1.176-2.035-1.1876Z"/>
  <path d="M4.7502 4.75v14.5h14.5V4.75h-14.5Zm-1.3-.15c0-.635.5147-1.15 1.15-1.15h14.8c.6352 0 1.15.515 1.15 1.15v14.8c0 .6351-.5149 1.15-1.15 1.15h-14.8c-.6353 0-1.15-.515-1.15-1.15V4.6Z"/>
</g></svg>