<svg xmlns="http://www.w3.org/2000/svg" data-laicon-version="15.0" viewBox="0 0 20 20" fill="black"><g transform="translate(-2 -2)">
  <path d="M20.6797 6.981c.5013-.2886 1.127.0733 1.127.6516v8.7346c0 .5782-.6258.9404-1.1273.6513 0 0 .0001 0 0 0l-4.8039-2.7696.6494-1.1262 3.9818 2.2957v-6.837l-3.9818 2.2956-.6494-1.1262 4.8042-2.7697Z"/>
  <path d="M2.1499 6.5c0-.9113.7387-1.65 1.65-1.65h11.5c.9113 0 1.65.7387 1.65 1.65v11c0 .9113-.7387 1.65-1.65 1.65h-11.5c-.9113 0-1.65-.7387-1.65-1.65v-11Zm1.65-.35a.35.35 0 0 0-.35.35v11a.35.35 0 0 0 .35.35h11.5a.35.35 0 0 0 .35-.35v-11a.35.35 0 0 0-.35-.35h-11.5Z"/>
</g></svg>