<svg xmlns="http://www.w3.org/2000/svg" data-laicon-version="15.0" viewBox="0 0 20 20" fill="black"><g transform="translate(-2 -2)">
  <path d="M10.1501 12.65V15h-1.3v-2.35H6.5005v-1.3H8.85V9h1.3v2.35h2.3504v1.3H10.15Z"/>
  <path d="M2.1504 6.5c0-.9113.7387-1.65 1.65-1.65h11.5c.9113 0 1.65.7387 1.65 1.65v2.087l3.8508-1.5363c.4531-.1808.9457.153.9457.6409v8.6166c0 .4879-.4926.8217-.9457.6409l-3.8508-1.5362v2.087c0 .9113-.7387 1.65-1.65 1.65h-11.5c-.9113 0-1.65-.7387-1.65-1.65v-11Zm1.65-.35a.35.35 0 0 0-.35.35v10.9999a.35.35 0 0 0 .35.35h11.5a.35.35 0 0 0 .35-.35v-4.0053l4.7965 1.9135V8.5917l-4.7965 1.9135V6.5a.35.35 0 0 0-.35-.35h-11.5Z"/>
</g></svg>