<svg xmlns="http://www.w3.org/2000/svg" data-laicon-version="15.0" viewBox="0 0 20 20" fill="black"><g transform="translate(-2 -2)">
  <path d="m15.873 14.0348 5.1088-4.9867.908.9303-5.1088 4.9867-.908-.9303Z"/>
  <path d="m20.9814 14.9648-5.1088-4.9867.908-.9302 5.1089 4.9866-.9081.9303ZM14.1003 3.0544a.65.65 0 0 1 .3897.5956v16.7a.65.65 0 0 1-1.0915.477L8.3454 16.15H2.65A.65.65 0 0 1 2 15.5v-7a.65.65 0 0 1 .65-.65h5.6954l5.0531-4.677a.65.65 0 0 1 .7018-.1186Zm-.9103 2.083L9.0415 8.977A.65.65 0 0 1 8.6 9.15H3.3v5.7h5.3a.65.65 0 0 1 .4415.173l4.1485 3.8397V5.1373Z"/>
</g></svg>