<svg xmlns="http://www.w3.org/2000/svg" data-laicon-version="15.0" viewBox="0 0 20 20" fill="black"><g transform="translate(-2 -2)">
  <path d="M14.1 3.054a.6498.6498 0 0 1 .39.596v9.636l4.063 4.05-.917.92L4.541 5.209l.918-.921L8.702 7.52 13.4 3.173a.6501.6501 0 0 1 .701-.119H14.1ZM9.624 8.438l3.566 3.553V5.137l-3.566 3.3v.001Zm3.566 7.182 1.3 1.295v3.435a.6502.6502 0 0 1-.7579.6405.6505.6505 0 0 1-.3331-.1635L8.345 16.15H2.65A.65.65 0 0 1 2 15.5v-7a.65.65 0 0 1 .65-.65h2.742l1.305 1.3H3.3v5.7h5.3a.6502.6502 0 0 1 .442.173l4.148 3.84v-3.244.001Z"/>
</g></svg>