<svg xmlns="http://www.w3.org/2000/svg" data-laicon-version="15.0" viewBox="0 0 20 20" fill="black"><g transform="translate(-2 -2)">
  <path d="M14.1 3.05a.644.644 0 0 0-.7.12L8.35 7.85h-5.7c-.36 0-.65.29-.65.65v7c0 .36.29.65.65.65h5.7l5.05 4.68c.19.18.46.22.7.12.24-.1.39-.34.39-.6V3.65c0-.26-.15-.49-.39-.6Zm-.91 15.81-4.15-3.84a.6556.6556 0 0 0-.44-.17H3.3v-5.7h5.3c.16 0 .32-.06.44-.17l4.15-3.84v13.72Zm4.57-9.81c-.22-.22-.46-.41-.72-.57l-.69 1.1c.18.11.34.24.49.4a2.855 2.855 0 0 1 0 4.03c-.15.15-.32.28-.49.4l.69 1.1c.26-.16.5-.36.72-.57a4.1521 4.1521 0 0 0 0-5.87v-.02Z"/>
  <path d="M18.6402 5.94a7.152 7.152 0 0 1 0 12.0899l-.69-1.1a5.8537 5.8537 0 0 0 0-9.89l.69-1.1Z"/>
</g></svg>