<svg xmlns="http://www.w3.org/2000/svg" data-laicon-version="15.0" viewBox="0 0 20 20" fill="black"><g transform="translate(-2 -2)">
  <path d="M4.8618 8.2596c0-1.572 1.273-2.845 2.845-2.845h8.633c1.571 0 2.844 1.273 2.844 2.844v7.483c0 1.571-1.273 2.844-2.844 2.844h-8.634c-1.571 0-2.844-1.273-2.844-2.844v-7.482Zm2.845-1.545c-.854 0-1.545.691-1.545 1.545v7.482c0 .853.691 1.544 1.544 1.544h8.634c.853 0 1.544-.691 1.544-1.544v-7.483c0-.853-.691-1.544-1.544-1.544h-8.633Z"/>
  <path d="M8.1562 2.1357a.651.651 0 0 1 .3612-.1093h7.009a.65.65 0 0 1 .6266.477l.878 3.18a.65.65 0 0 1-1.2532.346l-.7463-2.703H9.0119l-.7438 2.7025a.65.65 0 0 1-1.2534-.345L7.888 2.511a.6512.6512 0 0 1 .2682-.3754ZM7.4686 17.517a.65.65 0 0 1 .7994.4538l.7454 2.7028h6.0205l.7438-2.7025a.65.65 0 0 1 1.2534.345l-.875 3.179a.651.651 0 0 1-.167.2871l-.001.001a.6502.6502 0 0 1-.4597.1904h-7.01a.65.65 0 0 1-.6266-.4772l-.877-3.18a.65.65 0 0 1 .4538-.7994Zm3.9774-4.9447 2.6002-2.5994.9191.9194-3.5197 3.5186L9.04 12.0041l.9195-.919 1.4865 1.4872Z"/>
</g></svg>