<svg xmlns="http://www.w3.org/2000/svg" data-laicon-version="15.0" viewBox="0 0 20 20" fill="black"><g transform="translate(-2 -2)">
  <path d="M10.6498 7.07c1.34 0 2.43-1.09 2.43-2.43s-1.09-2.43-2.43-2.43-2.43 1.09-2.43 2.43 1.09 2.43 2.43 2.43Zm0-3.55c.62 0 1.13.5 1.13 1.13 0 .63-.51 1.13-1.13 1.13-.62 0-1.13-.51-1.13-1.13 0-.62.5-1.13 1.13-1.13ZM20.09 18.78l-3.54-5.35H11.3v-1.7h3.13c.36 0 .65-.29.65-.65 0-.36-.29-.65-.65-.65H11.3V8.57c0-.36-.29-.65-.65-.65-.36 0-.65.29-.65.65v6.16h5.85L19 19.49c.2.3.6.38.9.18.3-.2.38-.6.18-.9l.01.01Z"/>
  <path d="M5.1897 14.69c0 3.01 2.45 5.45 5.46 5.45 2.23 0 4.15-1.35 4.99-3.27l.82 1.24c-1.17 1.99-3.33 3.3299-5.81 3.3299-3.74 0-6.76-3.0199-6.76-6.7499 0-3.03 2-5.6 4.76-6.45v1.38c-2.03.8-3.46 2.76-3.46 5.07Z"/>
</g></svg>