<svg xmlns="http://www.w3.org/2000/svg" data-laicon-version="15.0" viewBox="0 0 20 20" fill="black"><g transform="translate(-2 -2)">
  <path d="M12 16.9512c-.5657 0-1.0244.4586-1.0244 1.0244S11.4342 19 12 19s1.0244-.4586 1.0244-1.0244c0-.5657-.4586-1.0244-1.0244-1.0244ZM12.0001 9.9456c-2.2853 0-4.3533.9255-5.8514 2.4236a.6499.6499 0 0 1-.9192 0 .65.65 0 0 1 0-.9192C6.9613 9.718 9.3561 8.6456 12 8.6456c2.6439 0 5.0384 1.0725 6.7705 2.8044a.65.65 0 1 1-.9192.9192C16.353 10.8711 14.2853 9.9456 12 9.9456Z"/>
  <path d="M2.1919 8.4125C4.7012 5.9033 8.1695 4.35 11.9999 4.35c3.83 0 7.2985 1.5531 9.8078 4.0626a.65.65 0 1 1-.9192.9192C18.613 7.0562 15.4713 5.65 11.9999 5.65c-3.4716 0-6.6132 1.4063-8.8888 3.6818a.65.65 0 0 1-.9192-.9192Zm9.8083 5.7505c-1.1207 0-2.1342.4534-2.869 1.1884a.65.65 0 0 1-.9194-.9192c.9688-.9688 2.3091-1.5692 3.7884-1.5692 1.4792 0 2.8195.6004 3.7883 1.5692a.6498.6498 0 0 1 0 .9192.6498.6498 0 0 1-.9192 0c-.735-.735-1.7485-1.1884-2.8691-1.1884Z"/>
  <path d="M5.2294 11.45c1.732-1.732 4.1268-2.8044 6.7707-2.8044 2.6439 0 5.0385 1.0724 6.7705 2.8044a.6498.6498 0 0 1 0 .9192.6498.6498 0 0 1-.9192 0c-1.4982-1.4982-3.566-2.4236-5.8513-2.4236-2.2853 0-4.3533.9255-5.8514 2.4236a.65.65 0 1 1-.9192-.9192Zm2.9824 2.9822c.9688-.9688 2.3091-1.5692 3.7884-1.5692 1.4791 0 2.8194.6004 3.7883 1.5692a.65.65 0 1 1-.9192.9192c-.7351-.735-1.7486-1.1884-2.8691-1.1884-1.1207 0-2.1342.4534-2.869 1.1884a.65.65 0 0 1-.9194-.9192Z"/>
</g></svg>