<svg xmlns="http://www.w3.org/2000/svg" data-laicon-version="15.0" viewBox="0 0 20 20" fill="black"><g transform="translate(-2 -2)">
  <path d="M11.2024 4.0703c-4.3795 0-7.9297 3.5502-7.9297 7.9297s3.5502 7.9297 7.9297 7.9297c1.6435 0 3.1685-.4993 4.4339-1.3544l.7278 1.0771c-1.4735.9958-3.2507 1.5773-5.1617 1.5773-5.0975 0-9.2297-4.1323-9.2297-9.2297 0-5.0975 4.1322-9.2297 9.2297-9.2297 5.0974 0 9.2297 4.1322 9.2297 9.2297a9.2288 9.2288 0 0 1-.3981 2.6891l-1.2437-.3782A7.9303 7.9303 0 0 0 19.1321 12c0-4.3795-3.5502-7.9297-7.9297-7.9297Z"/>
  <path d="M14.6729 17.5524c0-2.0309 1.6464-3.6773 3.6773-3.6773s3.6773 1.6464 3.6773 3.6773-1.6464 3.6773-3.6773 3.6773-3.6773-1.6464-3.6773-3.6773Zm3.2694-1.5453 1.1453 1.1453h-2.9345v.8h2.9345l-1.1453 1.1453.5656.5657 2.1111-2.111-2.1111-2.111-.5656.5657ZM13.9445 8.6272H12.443l-1.2744 2.2073-1.2745-2.2073H8.3926l1.6497 2.8572H8.713v1.3008h1.8057v.8046H8.713v1.3008h1.8057v1.1035h1.2998v-1.1035h1.8056v-1.3008h-1.8056v-.8046h1.8056v-1.3008h-1.3293l1.6497-2.8572Z"/>
</g></svg>