<svg xmlns="http://www.w3.org/2000/svg" data-laicon-version="15.0" viewBox="0 0 20 20" fill="black"><g transform="translate(-2 -2)">
  <path d="M12 4.05c-4.3907 0-7.95 3.5593-7.95 7.95 0 4.3907 3.5593 7.95 7.95 7.95 4.3907 0 7.95-3.5593 7.95-7.95 0-4.3907-3.5593-7.95-7.95-7.95ZM2.75 12c0-5.1086 4.1414-9.25 9.25-9.25s9.25 4.1414 9.25 9.25-4.1414 9.25-9.25 9.25S2.75 17.1086 2.75 12Z"/>
  <path d="M15.0037 8.156h-1.5014l-1.5024 2.6023-1.5024-2.6023H8.9961l1.8776 3.2522H9.1972v1.3008H11.35v1.1015H9.1972v1.3008H11.35v1.3516h1.2998v-1.3516h2.1528v-1.3008h-2.1528V12.709h2.1528v-1.3008h-1.6765l1.8776-3.2522Z"/>
</g></svg>