<svg xmlns="http://www.w3.org/2000/svg" data-laicon-version="15.0" viewBox="0 0 20 20" fill="black"><g transform="translate(-2 -2)">
  <path d="M6.611 4.99v14.0197h12.9542V4.99H6.611Zm-1.8-.3994c0-.7742.628-1.4006 1.401-1.4006h13.7522c.7731 0 1.401.6265 1.401 1.4006v14.8185c0 .7742-.6279 1.4006-1.401 1.4006H6.2121c-.7733 0-1.401-.6265-1.401-1.4006V4.5906Z"/>
  <path d="M11.6221 9.1158a.816.816 0 0 1 .0008.0376v.2677l-.1084.1439a1.233 1.233 0 0 0-.0228.084 1.0521 1.0521 0 0 0-.0226.128.4366.4366 0 0 0-.002.0267c.0093.0556.0211.088.0278.1036a.0826.0826 0 0 0 .0012.0027l.1901.1105.1071.1992c.2167.4032.369.6578.5043.8736.1403.1587.2227.3361.2717.4697.0659.1794.1043.3698.1204.5476.0159.175.0136.3736-.0264.5662-.0321.155-.1244.4853-.4336.7023l-.0042.0029-2.389 1.6535-.0093.0061c-.1123.0731-.267.2016-.3841.3391-.0574.0674-.0917.1204-.1086.1542a.0093.0093 0 0 0-.0006.0011v.0933h7.5089v-.0969l-.0017-.0035c-.0167-.0339-.0502-.0868-.106-.1534-.1143-.1365-.2648-.2629-.3738-.3339l-.0093-.0061-2.3933-1.6564c-.3037-.2131-.4006-.5345-.436-.6944-.0425-.1927-.0472-.3909-.034-.5642.0134-.1763.048-.3635.1075-.5391.0451-.1329.1225-.3142.2592-.4771.137-.2181.2908-.4745.5111-.8845l.107-.1991.1953-.1136.0136-.0078.0014-.003c.0056-.0123.016-.0394.0245-.0868a.3848.3848 0 0 0-.0017-.0164.9775.9775 0 0 0-.0251-.1235 1.1865 1.1865 0 0 0-.0291-.0953l-.1154-.1534v-.2675a.818.818 0 0 1 .0008-.0377c-.0112-.8471-.7429-1.5102-1.4436-1.5102-.7133 0-1.4606.6757-1.4721 1.5103Zm5.2276 6.433s-.0003-.0006-.0006-.0019l.0006.0019Zm-7.5237.0051.0007-.0021-.0007.0021Zm2.294-6.472-.0002-.0023.0002.0022Zm-1.5937-.1088c.0885-1.659 1.5231-2.9676 3.0679-2.9676 1.5548 0 2.9492 1.3167 3.0391 2.9612l.0059.0153a2.739 2.739 0 0 1 .0897.2806c.0445.1692.1082.468.0661.7567-.0591.4034-.213.7119-.408.9366a1.5212 1.5212 0 0 1-.2065.197 15.0245 15.0245 0 0 1-.5098.8651l-.0531.084-.0116.0109a.6539.6539 0 0 0-.0193.1011l2.1584 1.4938c.2299.1513.4971.3783.7165.6403.198.2363.4812.6464.4812 1.1428v1.7384H7.7338v-1.7384c0-.5023.2926-.9146.4915-1.148.2224-.2609.4913-.4858.718-.6351l2.1489-1.4873a.6055.6055 0 0 0-.0176-.0836l-.0228-.0199-.0627-.099a15.1978 15.1978 0 0 1-.5127-.8705 1.496 1.496 0 0 1-.2072-.2057c-.1865-.2251-.33-.5284-.3877-.9217-.04-.2757.0123-.5652.0526-.737a2.7045 2.7045 0 0 1 .0922-.31Zm-7.5961 5.575H6.411v1.8H2.4302v-1.8Zm0-6.7861H6.411v1.8H2.4302v-1.8Z"/>
</g></svg>