<svg xmlns="http://www.w3.org/2000/svg" data-laicon-version="15.0" viewBox="0 0 20 20" fill="black"><g transform="translate(-2 -2)">
  <path d="m16.148 15.4054-3.9122-6.0993-3.912 6.0993h7.8242Zm-.6669-6.9608c-.7316 0-1.3249.5931-1.3249 1.3248s.5933 1.3248 1.3249 1.3248c.7317 0 1.3248-.5931 1.3248-1.3248s-.5931-1.3248-1.3248-1.3248Z"/>
  <path d="M6.1994 5v14h12.9242V5H6.1994Zm-1.8-.4c0-.7731.6269-1.4 1.4-1.4h13.7242c.7732 0 1.4.6268 1.4 1.4v14.8c0 .7732-.6268 1.4-1.4 1.4H5.7994c-.7734 0-1.4-.627-1.4-1.4V4.6Z"/>
  <path d="M2.4512 14.5543h2.8484v1.8H2.4512v-1.8Zm0-6.7882h2.8484v1.8H2.4512v-1.8Z"/>
</g></svg>