<svg xmlns="http://www.w3.org/2000/svg" data-laicon-version="15.0" viewBox="0 0 20 20" fill="black"><g transform="translate(-2 -2)">
  <path d="M11.1001 21.8335v-10.667h1.8v10.667h-1.8Z"/>
  <path d="M11.9998 9.3412c1.0077 0 1.825.8173 1.825 1.825 0 1.0085-.8172 1.826-1.825 1.826s-1.825-.8175-1.825-1.826c0-1.0077.8173-1.825 1.825-1.825Z"/>
  <path d="M14.3001 16.2376V14.15c.8921-.6888 1.4665-1.7689 1.4665-2.9835 0-2.08-1.6862-3.767-3.767-3.767-2.0797 0-3.766 1.6869-3.766 3.767 0 1.2148.5745 2.2949 1.4665 2.9837v2.0876c-1.9267-.8752-3.2665-2.8165-3.2665-5.0713 0-3.0738 2.4917-5.567 5.566-5.567 3.0752 0 5.567 2.493 5.567 5.567 0 2.2547-1.3396 4.1958-3.2665 5.0711Z"/>
  <path d="M14.3001 19.7664v-1.8808c2.7923-.9557 4.8-3.6031 4.8-6.7191 0-3.921-3.179-7.1-7.1-7.1s-7.1 3.179-7.1 7.1c0 3.116 2.0077 5.7634 4.8 6.7191v1.8808c-3.8004-1.0139-6.6-4.4802-6.6-8.5999 0-4.915 3.985-8.9 8.9-8.9 4.9151 0 8.9 3.985 8.9 8.9 0 4.1197-2.7996 7.586-6.6 8.5999Z"/>
</g></svg>