<svg xmlns="http://www.w3.org/2000/svg" data-laicon-version="15.0" viewBox="0 0 20 20" fill="black"><g transform="translate(-2 -2)">
  <path d="m11.2881 11.5298 7.8306-7.8293 1.2727 1.2729-7.8306 7.8293-1.2727-1.2729Z"/>
  <path d="M19.2077 4.872h-4.2878v-1.8h6.0878v6.0758h-1.8V4.872ZM4.9001 6.3014V19.008c0 .0424.008.0647.0126.0748a.0988.0988 0 0 0 .0251.0333.186.186 0 0 0 .1149.0447h12.5511c.1244 0 .1794-.0399.1944-.0535l.0038-.0036v-7.9366h1.8v7.9591c0 1.0626-.9232 1.8346-1.9982 1.8346H5.0527c-.916 0-1.9526-.7021-1.9526-1.9528V6.2136c0-.5518.3182-.9966.6038-1.26.2966-.2736.7481-.5303 1.2715-.5303h7.9551v1.8H5.0022l-.0016.0006a.3087.3087 0 0 0-.0764.0528.3227.3227 0 0 0-.0241.0247Z"/>
</g></svg>