<svg xmlns="http://www.w3.org/2000/svg" data-laicon-version="15.0" viewBox="0 0 20 20" fill="black"><g transform="translate(-2 -2)">
  <path d="M12.0999 14.6c-2.9 0-5.2-2.2-5.2-4.9s2.3-4.9 5.2-4.9c2.9 0 5.2 2.2 5.2 4.9s-2.3 4.9-5.2 4.9Zm0-8.1c-1.9 0-3.4 1.4-3.4 3.1 0 1.7 1.5 3.1 3.4 3.1s3.4-1.4 3.4-3.1c0-1.7-1.5-3.1-3.4-3.1Z"/>
  <path d="M19.8999 21.4h-15.6c-.5 0-.9-.4-.9-.9 0-2.2.1-4 1.8-5 .1-.5.3-.9.7-1.2-.2-.4-.4-.8-.5-1.2-1.4-.6-1.4-2.5-1.4-3.1 0-1.4.2-2.3.8-2.8 0-.2.2-.3.5-.4.9-2.9 3.4-4.6 6.9-4.6 3.5 0 6 1.7 6.8 4.6.2.1.5.2.6.4.5.5.8 1.4.8 2.8 0 .7 0 2.5-1.4 3.1-.1.4-.3.8-.5 1.2.3.3.5.7.6 1.1 1.9 1 1.8 3.2 1.8 5-.1.6-.5 1-1 1Zm-14.7-1.8h13.8c0-1.6-.2-2.3-1.1-2.6-.4-.1-.6-.5-.6-.9 0-.2-.1-.4-.3-.4-.4 0-.8-.3-.9-.7-.1-.4.1-.8.5-1 .1-.1.5-.9.7-1.6.1-.4.4-.7.7-.7.2 0 .5-.1.5-1.5 0-1.3-.2-1.6-.2-1.6-.5.1-.9-.2-1-.6v-.1c-.5-2.6-2.3-3.9-5.2-3.9-3.7 0-4.9 2-5.2 3.7-.1.5-.6.8-1 .8 0 0-.2.4-.2 1.5 0 1.4.4 1.5.5 1.5.4.1.7.4.7.7.1.7.4 1.3.8 1.8.3.2.4.6.3 1-.1.4-.4.6-.8.6-.2 0-.3.2-.3.3 0 .4-.2.8-.6 1-.7.3-1.1.8-1.1 2.7Z"/>
  <path d="M16.9001 20.4h-1.8v-1.3c0-.1 0-.1-.1-.1h-6c-.1 0-.1 0-.1.1v1.3h-1.8v-1.3c0-1 .9-1.9 1.9-1.9h6c1 0 1.9.9 1.9 1.9v1.3Zm-2.785-12.9126-1.2679.976.976 1.2678 1.2679-.976-.976-1.2678Z"/>
</g></svg>