<svg xmlns="http://www.w3.org/2000/svg" data-laicon-version="15.0" viewBox="0 0 20 20" fill="black"><g transform="translate(-2 -2)">
  <path d="M17.2 18.1c-.3-.8-.8-1.3-1.2-1.6.1-.1.1-.2.2-.3.5-.3 1-.9 1-1.8v-.1c0-.7 0-1.6-.5-2.1-.1-.1-.2-.2-.3-.2-.9-1.9-2.4-2.9-4.4-2.9-2 0-3.5 1-4.2 2.8-.1.1-.2.1-.3.2-.6.6-.6 1.4-.6 2.1v.1c0 .9.4 1.5 1 1.8 0 .1.1.3.1.4-.5.4-.9.9-1.2 1.6-.3.7-.3 2.3-.3 3 .1.5.5.9 1 .9h9.1c.5 0 .9-.4.9-.9-.1-.6-.1-2.3-.3-3Zm-4.6 2.1h-1.2V20h1.2v.2Zm1.8 0v-1.1c0-.5-.4-.9-.9-.9h-3c-.5 0-.9.4-.9.9v1.1H8.4c0-.7.1-1.3.1-1.5.4-1 1.3-1.3 1.3-1.3.4-.1.6-.5.6-.8 0-.4-.2-.7-.6-.9-.1 0-.4-.4-.5-.7-.1-.3-.3-.5-.6-.5v-1c.3-.1.5-.3.6-.6.2-.7.9-2 2.7-2 1.8 0 2.5 1.2 2.7 1.9.1.3.3.5.6.6v1c-.3.1-.5.3-.6.5-.1.3-.4.7-.5.7-.4.1-.6.5-.6.9s.3.7.6.8c0 0 .9.3 1.3 1.3.1.2.1.8.1 1.5h-1.2v.1Z"/>
  <path d="M22 13.8c0 .5-.4.9-.9.9h-2.9v-.4c0-.4 0-.9-.1-1.3h2c0-.6-.1-1.1-.1-1.3-.3-.9-1.2-1.2-1.2-1.2-.4-.1-.6-.5-.6-.8 0-.4.2-.7.6-.9.1 0 .4-.4.5-.7.1-.3.3-.5.6-.5v-.9c-.3-.1-.5-.3-.6-.6-.3-.8-.9-1.8-2.5-1.8s-2.2 1-2.5 1.8c-.1.3-.3.5-.6.6v.9c.3.1.5.3.6.5.1.2.2.4.3.5-.7-.4-1.6-.6-2.5-.6-.1-.2-.1-.3-.1-.4 0 .2 0 .3-.1.4-1 0-1.9.2-2.6.6.1-.1.2-.3.3-.5.1-.3.3-.5.6-.5v-.9c-.3-.1-.5-.3-.6-.6-.2-.8-.9-1.8-2.5-1.8s-2.2 1-2.5 1.8c0 .3-.2.5-.5.6v.9c.3.1.5.3.6.5.1.3.3.6.5.7.4.1.6.5.6.9s-.2.7-.6.8c0 0-.9.3-1.2 1.2-.1.2-.1.7-.1 1.3h2c-.1.5-.1 1-.1 1.3v.4H2.9c-.5 0-.9-.4-.9-.9 0-.7 0-2.2.3-2.9.2-.6.7-1.1 1.1-1.5l-.2-.2c-.5-.3-.9-.9-.9-1.7v-.1c0-.7 0-1.5.5-2 .1-.2.2-.3.3-.3.7-1.6 2.2-2.6 4-2.6 1.9 0 3.3 1 4 2.6.1.1.2.1.3.2.5.4.6 1 .6 1.5 0-.5.1-1.1.5-1.5.1-.1.2-.2.3-.2.7-1.6 2.2-2.6 4-2.6 1.9 0 3.3 1 4 2.6.1.1.2.1.3.2.5.5.5 1.4.5 2v.1c0 .8-.4 1.4-.9 1.7 0 .1-.1.2-.2.3.4.3.8.8 1.1 1.5.4.7.4 2.3.4 2.9Z"/>
</g></svg>