<svg xmlns="http://www.w3.org/2000/svg" data-laicon-version="16.11" viewBox="0 0 20 20" fill="black"><g transform="translate(-2 -2)">
  <path d="M5.4 12a6.6 6.6 0 1 1 13.044 1.435c-.071.32-.236.781-.506 1.139-.256.34-.551.526-.938.526a.6.6 0 0 1-.6-.6V9a.9.9 0 0 0-1.676-.456 4.4 4.4 0 1 0 .055 6.867A2.4 2.4 0 0 0 17 16.9c1.113 0 1.89-.598 2.376-1.243.472-.627.718-1.352.825-1.833A8.4 8.4 0 1 0 12 20.4a.9.9 0 0 0 0-1.8A6.6 6.6 0 0 1 5.4 12Zm9.2 0a2.6 2.6 0 1 1-5.2 0 2.6 2.6 0 0 1 5.2 0Z"/>
</g></svg>