<svg xmlns="http://www.w3.org/2000/svg" data-laicon-version="15.0" viewBox="0 0 20 20" fill="black"><g transform="translate(-2 -2)">
  <path d="m16.1882 13.404-2.9737 8.0445a.8999.8999 0 0 1-1.6899-.0043L8.6509 13.545l1.6915-.6154 2.0347 5.5929 2.1227-5.7426 1.6884.6241Z"/>
  <path d="M14.8219 6.96c-.143-.6549-.3538-1.282-.6255-1.8674.9397-.7204 2.143-1.0798 3.5109-.8235 1.4793.2771 2.4991 1.283 3.0322 2.5002.5268 1.2026.6027 2.6477.2189 3.9704-.7778 2.6803-3.4916 4.2422-5.7611 3.6279-.6371-.1725-1.1928-.5034-1.6524-.9416.3763-.4958.6893-1.0555.9291-1.6617.3236.4456.7432.7439 1.1936.8658 1.2088.3272 3.0239-.5374 3.5621-2.392.2741-.9448.2079-1.9548-.1389-2.7466-.3405-.7774-.9258-1.3053-1.7149-1.4532-1.0021-.1877-1.9053.1718-2.554.9217Z"/>
  <path d="M5.1047 5.8541c-.4607 1.0672-.543 2.4186-.178 3.6805.721 2.4926 3.1421 3.6874 4.7992 3.2378 1.5977-.4336 2.8681-2.539 2.3489-5.1113-.5208-2.58-2.4212-4.2103-4.6372-3.7957-1.083.2025-1.8783.9358-2.3329 1.9887Zm-1.6526-.7134c.6436-1.4909 1.8722-2.7112 3.6545-3.0446 3.5143-.6574 6.0913 2.0317 6.7326 5.2088.6428 3.1849-.8469 6.4462-3.6419 7.2047-2.7358.7423-6.0448-1.174-6.9997-4.4748-.473-1.6348-.383-3.4174.2545-4.894Z"/>
  <path d="M5.8059 6.1424c.7097-1.3515 1.7893-1.616 2.3202-1.7047l.2636 1.5782c-.17.0283-.3592.0715-.5527.184-.1854.1077-.4123.3011-.6146.6864-.2195.418-.2566 1.044-.1429 1.6293l-1.5706.3053c-.1517-.7806-.155-1.8177.297-2.6785Z"/>
</g></svg>