<svg xmlns="http://www.w3.org/2000/svg" data-laicon-version="15.0" viewBox="0 0 20 20" fill="black"><g transform="translate(-2 -2)">
  <path d="M8.217 17.1542c1.2726 1.206 2.9914 1.9458 4.8831 1.9458 3.9212 0 7.1-3.1788 7.1-7.1s-3.1788-7.1-7.1-7.1c-1.8917 0-3.6105.7398-4.883 1.9459L6.9438 5.5727C8.5425 4.041 10.7113 3.1 13.1 3.1c4.9153 0 8.9 3.9847 8.9 8.9s-3.9847 8.9-8.9 8.9c-2.3887 0-4.5576-.9411-6.1562-2.4727l1.2731-1.2731Z"/>
  <path d="M13.1999 11.5a.5.5 0 1 0 0 1 .5.5 0 0 0 0-1Zm-2.3.5c0-1.2703 1.0298-2.3 2.3-2.3 1.2703 0 2.3 1.0297 2.3 2.3 0 1.2702-1.0297 2.3-2.3 2.3-1.2702 0-2.3-1.0298-2.3-2.3Zm-1.5-1.8h-5.5V8.4h5.5v1.8ZM7.5 12.9H2v-1.8h5.5v1.8Z"/>
  <path d="m13.54 10.463 2.85-2.625 1.2195 1.324-2.8501 2.625-1.2194-1.324ZM9.3999 15.6h-5.5v-1.8h5.5v1.8Z"/>
</g></svg>