<svg xmlns="http://www.w3.org/2000/svg" data-laicon-version="15.0" viewBox="0 0 20 20" fill="black"><g transform="translate(-2 -2)">
  <path d="M12.0001 4.4c-4.1974 0-7.6 3.4026-7.6 7.6s3.4026 7.6 7.6 7.6 7.6-3.4026 7.6-7.6-3.4026-7.6-7.6-7.6Zm-9.4 7.6c0-5.1915 4.2085-9.4 9.4-9.4 5.1915 0 9.4 4.2085 9.4 9.4 0 5.1915-4.2085 9.4-9.4 9.4-5.1915 0-9.4-4.2085-9.4-9.4Z"/>
  <path d="M6.856 7.1735a.9.9 0 0 1 1.2635.154c.3.3832.5676.7937.7987 1.2276a.9.9 0 0 1-1.5888.846 6.5928 6.5928 0 0 0-.6273-.9642.9.9 0 0 1 .154-1.2634Zm1.9472 3.3908a.9.9 0 0 1 1.0157.7671 8.4934 8.4934 0 0 1 .0766 1.4613.8999.8999 0 0 1-.93.869.9.9 0 0 1-.869-.9299 6.7005 6.7005 0 0 0-.0603-1.1518.9.9 0 0 1 .767-1.0157Zm-.0098 3.9117a.9.9 0 0 1 .4965 1.172 8.3962 8.3962 0 0 1-.666 1.3043.9.9 0 0 1-1.2404.2852.9.9 0 0 1-.2852-1.2404 6.595 6.595 0 0 0 .5231-1.0245.9.9 0 0 1 1.172-.4966Zm8.2844-7.2354a.9.9 0 0 1 .1697 1.2615 6.5972 6.5972 0 0 0-.538.8268.9.9 0 0 1-1.2219.356.9.9 0 0 1-.3561-1.222 8.3825 8.3825 0 0 1 .6849-1.0525.9.9 0 0 1 1.2614-.1698Zm-1.9045 3.4148c.4931.0626.8422.513.7796 1.0061a6.7438 6.7438 0 0 0-.0518.988.8999.8999 0 0 1-.8804.9191.8999.8999 0 0 1-.9191-.8805 8.5028 8.5028 0 0 1 .0656-1.2531.9.9 0 0 1 1.0061-.7796Zm.0584 3.9112a.9001.9001 0 0 1 1.1781.4819c.1278.3047.278.5982.4486.8785a.9.9 0 1 1-1.5374.9361 8.3852 8.3852 0 0 1-.5711-1.1184.9.9 0 0 1 .4818-1.1781Z"/>
</g></svg>