<svg xmlns="http://www.w3.org/2000/svg" data-laicon-version="15.0" viewBox="0 0 20 20" fill="black"><g transform="translate(-2 -2)">
  <path d="M12.0002 5.9c-3.645 0-6.6 2.9549-6.6 6.6v4.0164a5.7996 5.7996 0 0 1-.9741 3.2172l-.177.2656a.9.9 0 0 1-1.2481.2496.9.9 0 0 1-.2496-1.248l.177-.2656a4.0001 4.0001 0 0 0 .6718-2.2188V12.5c0-4.6392 3.7608-8.4 8.4-8.4a.9.9 0 0 1 .9.9.9.9 0 0 1-.9.9Zm7.5 5.7a.9.9 0 0 1 .9.9v4.0164a5.7993 5.7993 0 0 1-.9741 3.2172l-.1771.2656a.8998.8998 0 0 1-1.248.2496.8998.8998 0 0 1-.2496-1.248l.177-.2656a4.0004 4.0004 0 0 0 .6718-2.2188V12.5a.9.9 0 0 1 .9-.9Z"/>
  <path d="M6.6001 12.5a.9.9 0 0 1 .9-.9h9a.9.9 0 0 1 .9.9V15c0 2.9823-2.4177 5.4-5.4 5.4-2.9823 0-5.4-2.4177-5.4-5.4v-2.5Zm1.8.9V15c0 1.9882 1.6118 3.6 3.6 3.6 1.9882 0 3.6-1.6118 3.6-3.6v-1.6h-7.2ZM16.5322 3.5722a.3333.3333 0 0 0-.6644 0l-.0133.1597a1.6667 1.6667 0 0 1-1.5225 1.5226l-.1597.0133a.3333.3333 0 0 0 0 .6643l.1597.0133a1.6667 1.6667 0 0 1 1.5225 1.5225l.0133.1597a.3333.3333 0 0 0 .6644 0l.0133-.1597a1.6667 1.6667 0 0 1 1.5225-1.5225l.1597-.0133a.3333.3333 0 0 0 0-.6643l-.1597-.0133a1.6667 1.6667 0 0 1-1.5225-1.5226l-.0133-.1597Zm2.9171 3.907a.25.25 0 0 0-.4982 0l-.01.1198a1.25 1.25 0 0 1-1.1419 1.1419l-.1197.01a.25.25 0 0 0 0 .4982l.1197.01a1.25 1.25 0 0 1 1.1419 1.1419l.01.1198a.25.25 0 0 0 .4982 0l.01-.1198a1.25 1.25 0 0 1 1.1419-1.1419l.1198-.01a.25.25 0 0 0 0-.4982l-.1198-.01a1.25 1.25 0 0 1-1.1419-1.1419l-.01-.1198Z"/>
</g></svg>