<svg xmlns="http://www.w3.org/2000/svg" data-laicon-version="15.0" viewBox="0 0 20 20" fill="black"><g transform="translate(-2 -2)">
  <path d="M18.9998 16.9h-1.7v-1.8h1.7V9.5h-1.7V7.7h1.7c1 0 1.8.8 1.8 1.8V15c0 1.1-.8 1.9-1.8 1.9Z"/>
  <path d="M16.4002 21.5h-9.3c-1 0-1.8-.8-1.8-1.8v-6.5h1.8v6.5h9.2v-12h1.8v12c.1 1-.7 1.8-1.7 1.8Z"/>
  <path d="M7.3997 13.9c-2.9 0-4.2-2.2-4.2-4.3 0-1.3.7-2.4 1.9-3 .5-2 2.1-3.6 4.1-4 2.0001-.4 3.9001.3 5.2001 1.8.4-.1.9-.2 1.4-.1 1.8.3 2.4 2 2.4 3.4v.9h-4.3c-1.8 0-2.3 1-2.8 2.3-.6 1.3-1.3 3-3.7 3Zm2.9001-9.6c-.2 0-.5 0-.7.1-1.5.3-2.6 1.5-2.9 3l-.1.5-.4.2c-.8.2-1.2.8-1.2 1.5 0 .6.2 2.5 2.4 2.5 1.2 0 1.5-.6 2.1-1.9.6-1.4 1.5-3.4 4.5-3.4h2.3c-.1-.4-.4-.7-.8-.8-.3-.1-.9.1-1 .2l-.7.3-.4-.7c-.8-.9-1.9-1.5-3.1-1.5Zm.8004 11.2h-1.8v2.2h1.8v-2.2Z"/>
  <path d="M14.1999 11.4h-1.8v6.4h1.8v-6.4Z"/>
</g></svg>