<svg xmlns="http://www.w3.org/2000/svg" data-laicon-version="16.13" viewBox="0 0 20 20" fill="black"><g transform="translate(-2 -2)">
  <path d="M20.1 5.699c0-2.528-2.793-4.058-4.923-2.697L12 5.032l-3.177-2.03C6.693 1.642 3.9 3.172 3.9 5.7v9.424a2.9 2.9 0 0 0 1.303 2.421l5.31 3.503a2.7 2.7 0 0 0 2.974 0l5.31-3.503a2.9 2.9 0 0 0 1.303-2.42V5.698Zm-3.954-1.18a1.4 1.4 0 0 1 2.154 1.18v9.424a1.1 1.1 0 0 1-.494.919L12.9 19.278V6.593l3.246-2.074ZM11.1 6.593v12.685l-4.906-3.236a1.1 1.1 0 0 1-.494-.919V5.7a1.4 1.4 0 0 1 2.154-1.18L11.1 6.593Z"/>
</g></svg>