<svg xmlns="http://www.w3.org/2000/svg" data-laicon-version="16.9" viewBox="0 0 20 20" fill="black"><g transform="translate(-2 -2)">
  <path d="M17.973 6.354A7.124 7.124 0 0 0 4.876 10.24v4.588a5.3 5.3 0 0 1-.92 2.992.9.9 0 0 0 .744 1.406h.401l-1.137 1.138 1.272 1.272 15.5-15.5-1.272-1.272-1.491 1.49ZM6.9 17.426h-.714a7.118 7.118 0 0 0 .489-2.598V10.24a5.324 5.324 0 0 1 9.986-2.575l-9.76 9.761Zm12.225-7.186v-.055l-1.8 1.8v2.843c0 .916.173 1.793.489 2.598h-5.93l-1.8 1.8H11.1v1.964h1.8v-1.964h6.4a.9.9 0 0 0 .744-1.406 5.295 5.295 0 0 1-.92-2.992V10.24Z"/>
</g></svg>