<svg xmlns="http://www.w3.org/2000/svg" data-laicon-version="15.0" viewBox="0 0 20 20" fill="black"><g transform="translate(-2 -2)">
  <path d="M6.6158 11.7974c-1.5757 0-2.853 1.2774-2.853 2.8531 0 1.5758 1.2773 2.8532 2.853 2.8532 1.5758 0 2.8532-1.2774 2.8532-2.8532 0-1.5757-1.2774-2.8531-2.8532-2.8531Zm-4.6182 2.8531c0-2.5506 2.0676-4.6182 4.6182-4.6182 2.5506 0 4.6183 2.0676 4.6183 4.6182 0 2.5506-2.0677 4.6183-4.6183 4.6183-2.5506 0-4.6182-2.0677-4.6182-4.6183Zm15.3868-2.8531c-1.5757 0-2.8531 1.2774-2.8531 2.8531 0 1.5758 1.2774 2.8532 2.8531 2.8532 1.5758 0 2.8531-1.2774 2.8531-2.8532 0-1.5757-1.2773-2.8531-2.8531-2.8531Zm-4.6183 2.8531c0-2.5506 2.0677-4.6182 4.6183-4.6182 2.5506 0 4.6183 2.0676 4.6183 4.6182 0 2.5506-2.0677 4.6183-4.6183 4.6183-2.5506 0-4.6183-2.0677-4.6183-4.6183Z"/>
  <path d="M11.9746 5.6137a.8826.8826 0 0 1 .8826-.8825h1.8559l3.5006 9.6175a.8826.8826 0 0 1-1.6587.6037l-3.0778-8.456h-.62a.8826.8826 0 0 1-.8826-.8827Z"/>
  <path d="M8.185 7.7574h6.8622a.8826.8826 0 0 1 0 1.7652H9.4209l-1.9763 5.4298a.8826.8826 0 1 1-1.6587-.6037l2.399-6.5913Z"/>
</g></svg>