<svg xmlns="http://www.w3.org/2000/svg" data-laicon-version="17.5" viewBox="0 0 20 20" fill="black"><g transform="translate(-2 -2)">
  <path d="M3.6 4.68c0-.767.621-1.388 1.388-1.388h14.024c.767 0 1.388.62 1.388 1.387v13.936c0 .552-.327 1.052-.833 1.272l-1.387.606a1.388 1.388 0 0 1-1.11 0l-1.32-.576-1.32.576a1.388 1.388 0 0 1-1.11 0L12 19.917l-1.32.576a1.388 1.388 0 0 1-1.11 0l-1.32-.576-1.32.576a1.388 1.388 0 0 1-1.11 0l-1.387-.606a1.388 1.388 0 0 1-.833-1.272V4.68Zm1.8.412v13.253l.975.426 1.32-.576a1.388 1.388 0 0 1 1.11 0l1.32.576 1.32-.576a1.388 1.388 0 0 1 1.11 0l1.32.576 1.32-.576a1.388 1.388 0 0 1 1.11 0l1.32.576.975-.426V5.092H5.4Z"/>
  <path d="M15.4 9.9H8.6V8.1h6.8v1.8Zm0 3.85-6.8-.002v-1.8l6.8.002v1.8Z"/>
</g></svg>