<svg xmlns="http://www.w3.org/2000/svg" data-laicon-version="15.0" viewBox="0 0 20 20" fill="black"><g transform="translate(-2 -2)">
  <path d="M3.7202 4.68c0-1.215.985-2.2 2.2-2.2h11.02c1.215 0 2.2.985 2.2 2.2v8.9199h-1.8v-8.92a.4.4 0 0 0-.4-.4h-11.02a.4.4 0 0 0-.4.4v13.79a.3999.3999 0 0 0 .4.4h5.73v1.8h-5.73c-1.215 0-2.2-.9849-2.2-2.2v-13.79Z"/>
  <path d="M14.6292 8.959H8.2349v-1.8h6.3943v1.8Zm0 3.519H8.2349v-1.8h6.3943v1.8ZM13.9522 16c.0852.0433.1975.0901.3401.1361.4867.157 1.1967.2639 2.0078.2639.8111 0 1.5211-.1069 2.0078-.2639.1426-.046.2549-.0928.3401-.1361-.0852-.0433-.1975-.0901-.3401-.1361-.4867-.157-1.1967-.2639-2.0078-.2639-.8111 0-1.5211.1069-2.0078.2639-.1426.046-.2549.0928-.3401.1361Zm-.0283-1.2781c.6352-.2049 1.4752-.3219 2.3762-.3219.901 0 1.741.117 2.3762.3219.3143.1013.6121.2349.844.4118.2228.1699.4798.457.4798.8663 0 .4093-.257.6964-.4798.8663-.2319.1769-.5297.3105-.844.4118-.6352.2049-1.4752.3219-2.3762.3219-.901 0-1.741-.117-2.3762-.3219-.3143-.1013-.6121-.2349-.8441-.4118-.2228-.1699-.4797-.457-.4797-.8663 0-.4093.2569-.6964.4797-.8663.232-.1769.5298-.3105.8441-.4118Z"/>
  <path d="m13.8001 19.5064.0075.0058c.0817.0623.2379.1443.4847.2239.4867.157 1.1967.2639 2.0078.2639.8111 0 1.5211-.1069 2.0078-.2639.2468-.0796.4029-.1616.4847-.2239l.0075-.0058V16h1.2v3.6c0 .4093-.257.6964-.4798.8663-.2319.1769-.5297.3105-.844.4118-.6352.2049-1.4752.3219-2.3762.3219-.901 0-1.741-.117-2.3762-.3219-.3143-.1013-.6121-.2349-.8441-.4118-.2228-.1699-.4797-.457-.4797-.8663V16h1.2v3.5064Zm5.0349-.0321c.0002 0-.0008.0014-.0034.0042a.0272.0272 0 0 1 .0034-.0042Zm-5.0664.0042a.0279.0279 0 0 1-.0035-.0042.0178.0178 0 0 1 .0035.0042Z"/>
  <path d="M14.2923 17.9361c.4867.157 1.1967.2639 2.0078.2639.8111 0 1.5211-.1069 2.0078-.2639.2468-.0796.4029-.1616.4847-.2239a.3207.3207 0 0 0 .039-.0337c-.0089.0124-.0315.0521-.0315.1215h1.2c0 .4093-.257.6964-.4798.8663-.2319.1769-.5297.3105-.844.4118-.6352.2049-1.4752.3219-2.3762.3219-.901 0-1.741-.117-2.3762-.3219-.3143-.1013-.6121-.2349-.8441-.4118-.2228-.1699-.4797-.457-.4797-.8663h1.2c0-.0694-.0226-.1091-.0315-.1215a.3207.3207 0 0 0 .039.0337c.0817.0623.2379.1443.4847.2239Zm-.5272-.2618a.02.02 0 0 1 .0035.0042.0279.0279 0 0 1-.0035-.0042Zm5.0699 0c.0002 0-.0008.0014-.0034.0042a.0272.0272 0 0 1 .0034-.0042Z"/>
</g></svg>