<svg xmlns="http://www.w3.org/2000/svg" data-laicon-version="15.0" viewBox="0 0 20 20" fill="black"><g transform="translate(-2 -2)">
  <path d="M9.7534 9.2472V7.59h1.8v1.6572h-1.8Zm2.1465 0V7.59h1.8v1.6572h-1.8ZM9.7534 16.56v-1.6511h1.8V16.56h-1.8Zm2.1465 0v-1.6511h1.8V16.56h-1.8Z"/>
  <path d="M9.0898 8.3472h3.5955c1.2788 0 2.3155 1.0366 2.3155 2.3154s-1.0368 2.3155-2.3155 2.3155h-2.0319v-1.8h2.0319a.5154.5154 0 1 0 0-1.0309H9.0898v-1.8Z"/>
  <path d="M10.6534 11.1781h2.5272c1.2788 0 2.3155 1.0366 2.3155 2.3154s-1.0368 2.3154-2.3155 2.3154H9.0898v-1.8h4.0908a.5155.5155 0 1 0 0-1.0308h-2.5272v-1.8Z"/>
  <path d="M9.7534 14.9089V9.2472h1.8v5.6617h-1.8Z"/>
  <path d="M12 4.3c-4.2526 0-7.7 3.4474-7.7 7.7s3.4474 7.7 7.7 7.7 7.7-3.4474 7.7-7.7-3.4474-7.7-7.7-7.7ZM2.5 12c0-5.2467 4.2533-9.5 9.5-9.5s9.5 4.2533 9.5 9.5-4.2533 9.5-9.5 9.5-9.5-4.2533-9.5-9.5Z"/>
</g></svg>