<svg xmlns="http://www.w3.org/2000/svg" data-laicon-version="17.5" viewBox="0 0 20 20" fill="black"><g transform="translate(-2 -2)">
  <path d="M7.05 10.298c0-.593.639-.982 1.16-.672l2.878 1.711a.783.783 0 0 1-.002 1.345l-2.878 1.693c-.522.307-1.158-.082-1.158-.673v-3.404Z"/>
  <path d="M2.1 5.139c0-.789.64-1.428 1.428-1.428h16.944c.789 0 1.428.64 1.428 1.428V18.86c0 .789-.64 1.428-1.428 1.428H3.528c-.789 0-1.428-.64-1.428-1.428V5.14Zm1.8.372V18.49h10.2V5.51H3.9ZM20.1 18.49V14.9h-4.2v3.589h4.2Zm0-5.389v-7.59h-4.2V13.1h4.2Z"/>
</g></svg>