<svg xmlns="http://www.w3.org/2000/svg" data-laicon-version="15.0" viewBox="0 0 20 20" fill="black"><g transform="translate(-2 -2)">
  <path d="M19.0999 4.5c0-.8836-.7163-1.6-1.6-1.6h-11.25c-1.2979 0-2.35 1.0522-2.35 2.35v13.5c0 1.2979 1.0521 2.35 2.35 2.35h8.7209a4.8183 4.8183 0 0 1-1.1686-1.5H6.2499a.85.85 0 0 1 0-1.7h7.0699a4.8498 4.8498 0 0 1-.0199-.44c0-.3642.0406-.719.1174-1.06H6.2499c-.2996 0-.5863.0561-.85.1585V5.25a.85.85 0 0 1 .85-.85h11.25a.1.1 0 0 1 .1.1v8.1857a4.8599 4.8599 0 0 1 1.5.0786V4.5Zm-1 16.86c-2.1539 0-3.9-1.746-3.9-3.9 0-2.1539 1.7461-3.9 3.9-3.9s3.9 1.7461 3.9 3.9c0 2.154-1.7461 3.9-3.9 3.9Zm-.4727-4.4233v2.6931h1v-2.693l.9745.9746.7072-.7071-2.1817-2.1818-2.1818 2.1818.7071.7071.9747-.9747Z"/>
</g></svg>