<svg xmlns="http://www.w3.org/2000/svg" data-laicon-version="15.0" viewBox="0 0 20 20" fill="black"><g transform="translate(-2 -2)">
  <path d="M9.5792 9.648h-4.4v-1.8h4.4v1.8Zm0 2.966h-4.4v-1.8h4.4v1.8Zm0 2.967h-4.4v-1.8h4.4v1.8Zm9.2148-5.933h-4.4v-1.8h4.4v1.8Zm0 2.966h-4.4v-1.8h4.4v1.8Zm0 2.967h-4.4v-1.8h4.4v1.8Z"/>
  <path d="M11.0992 6.849c0-1.53 1.2014-2.83 2.757-2.83h6.082c1.0606 0 1.862.884 1.862 1.9V17.44c0 1.0153-.7998 1.9-1.862 1.9h-6.365c-.2546 0-.4925.0897-.6849.2004a1.7594 1.7594 0 0 0-.2133.1445 1.1102 1.1102 0 0 0-.0408.0339.8967.8967 0 0 1-.635.2622h-.001a.8987.8987 0 0 1-.6515-.2787.9022.9022 0 0 1-.1919-.3066.901.901 0 0 1-.0556-.3574V6.849Zm1.8 10.7691a2.9752 2.9752 0 0 1 .674-.0782h6.365c.006 0 .0166-.001.0317-.0167.0157-.0164.0303-.044.0303-.0833V5.9189c0-.0386-.0144-.0663-.0305-.083-.0155-.016-.0263-.017-.0315-.017h-6.082c-.4965 0-.957.428-.957 1.03v10.7692Z"/>
  <path d="M4.0355 5.836c-.016.0166-.0304.0443-.0304.083v11.5209c0 .0387.0144.0664.0304.0831.0156.0161.0263.0169.0316.0169h6.361c.2269.0002.453.0265.674.0782V6.9189c0-.6408-.4913-1.1-1.024-1.1h-6.011c-.0053 0-.016.001-.0316.017Zm7.9666 13.2449v.0001c-.632.6409-.6313.6415-.6311.6417l.001.0013.0013.0009.0022.0022.0021.002-.0056-.0051a1.0853 1.0853 0 0 0-.047-.0394 1.7313 1.7313 0 0 0-.2129-.1443c-.192-.1107-.4295-.2003-.684-.2003h-6.361c-1.0606 0-1.862-.8841-1.862-1.9V5.919c0-1.0159.8014-1.9 1.862-1.9h6.011c1.5913 0 2.824 1.3308 2.824 2.9v12.1619h-.9Z"/>
</g></svg>