<svg xmlns="http://www.w3.org/2000/svg" data-laicon-version="15.0" viewBox="0 0 20 20" fill="black"><g transform="translate(-2 -2)">
  <path d="M4.9001 3.1h-1.8v1.8h1.8V3.1Zm4 0h-1.8v1.8h1.8V3.1Zm4 0h-1.8v1.8h1.8V3.1Zm4 0h-1.8v1.8h1.8V3.1Zm4 0h-1.8v17.8h1.8V3.1Zm-16 4h-1.8v1.8h1.8V7.1Zm8 0h-1.8v1.8h1.8V7.1Zm-8 3.9845h-1.8v1.8h1.8v-1.8Zm4 0h-1.8v1.8h1.8v-1.8Zm4 0h-1.8v1.8h1.8v-1.8Zm4 0h-1.8v1.8h1.8v-1.8Zm-12 4.0155h-1.8v1.8h1.8v-1.8Zm8 0h-1.8v1.8h1.8v-1.8Zm-8 4h-1.8v1.8h1.8v-1.8Zm4 0h-1.8v1.8h1.8v-1.8Zm4 0h-1.8v1.8h1.8v-1.8Zm4 0h-1.8v1.8h1.8v-1.8Z"/>
</g></svg>