<svg xmlns="http://www.w3.org/2000/svg" data-laicon-version="15.0" viewBox="0 0 20 20" fill="black"><g transform="translate(-2 -2)">
  <path d="M4.8923 3.1h-1.8v1.8h1.8V3.1Zm4 0h-1.8v1.8h1.8V3.1Zm4.0155 0h-1.8v8h-8v1.8h8v8h1.8v-8h8v-1.8h-8v-8Zm3.9845 0h-1.8v1.8h1.8V3.1Zm4 0h-1.8v1.8h1.8V3.1Zm-15.9844 4h-1.8v1.8h1.8V7.1Zm15.9844 0h-1.8v1.8h1.8V7.1Zm-15.9844 8h-1.8v1.8h1.8v-1.8Zm15.9844 0h-1.8v1.8h1.8v-1.8Zm-16 4h-1.8v1.8h1.8v-1.8Zm4 0h-1.8v1.8h1.8v-1.8Zm8 0h-1.8v1.8h1.8v-1.8Zm4 0h-1.8v1.8h1.8v-1.8Z"/>
</g></svg>