<svg xmlns="http://www.w3.org/2000/svg" data-laicon-version="15.0" viewBox="0 0 20 20" fill="black"><g transform="translate(-2 -2)">
  <path d="m11.326 14.2001 3.0693-3.0692 1.2728 1.2728-4.3421 4.342-2.9945-2.9945 1.2728-1.2728 1.7217 1.7217Z"/>
  <path d="M6.5074 3.8603A1.9132 1.9132 0 0 1 7.8602 3.3h8.2784c.5075 0 .9941.2017 1.3528.5604l3.2059 3.206a1.913 1.913 0 0 1 .5604 1.3526l.0007 10.3678c0 1.0567-.8565 1.9133-1.9132 1.9133H4.6544c-1.0566 0-1.9132-.8565-1.9132-1.9131V8.419c0-.5073.2015-.994.5603-1.3528l3.206-3.2059ZM7.8602 5.1a.1132.1132 0 0 0-.08.0332L4.5743 8.339a.1131.1131 0 0 0-.033.08v10.3679a.113.113 0 0 0 .1131.1131h14.6908a.1132.1132 0 0 0 .1132-.1132l-.0007-10.3677a.1134.1134 0 0 0-.0332-.0801l-3.2059-3.2059a.1131.1131 0 0 0-.08-.0332H7.8602Z"/>
  <path d="M20.3588 8.8993H3.6416v-1.8h16.7172v1.8Z"/>
</g></svg>