<svg xmlns="http://www.w3.org/2000/svg" data-laicon-version="15.0" viewBox="0 0 20 20" fill="black"><g transform="translate(-2 -2)">
  <path d="M11.1 3.2c.6-.3 1.3-.3 1.9 0L16.1 5c.6.4.9 1 .9 1.7v3.6c0 .7-.4 1.3-1 1.6l-3 1.8c-.6.3-1.3.3-1.9 0L8 11.9c-.6-.3-1-1-1-1.6V6.7c0-.7.3-1.3.9-1.7l3.2-1.8Zm1 1.6H12L9.7 6.1 12 7.4h.1l2.3-1.3-2.3-1.3Zm3.1 2.9L13 9l-.1.1v2.6l2.3-1.3.1-.1V7.7h-.1Zm-4.1 4V9L8.8 7.7v2.6s0 .1.1.1l2.2 1.3Z"/>
  <path d="M15.2001 10.4c.6-.3 1.3-.3 1.9 0l3.1 1.8c.6.3 1 1 1 1.6v3.6c0 .7-.4 1.3-.9 1.6l-3.1 1.8c-.6.3-1.3.3-1.9 0l-3.3-1.7c-.6-.3-.9-1-.9-1.6v-3.6c0-.7.4-1.3 1-1.6l3.1-1.9Zm1 1.5h-.1l-2.3 1.3 2.3 1.3h.1l2.3-1.3-2.3-1.3Zm3.2 2.9-2.3 1.3-.1.1v2.6l2.3-1.3v-2.7h.1Zm-4.2 4.1v-2.7l-2.3-1.3v2.6s0 .1.1.1l2.2 1.3Z"/>
  <path d="M6.9 10.4c.6-.3 1.3-.3 1.9 0l3.1 1.8c.6.3 1 1 1 1.6v3.6c0 .7-.4 1.3-.9 1.6l-3.1 1.8c-.6.3-1.3.3-1.9 0L3.9 19c-.6-.3-.9-1-.9-1.6v-3.6c0-.7.4-1.3 1-1.6l2.9-1.8Zm1 1.5-2.4 1.3 2.3 1.3h.1l2.3-1.3-2.3-1.3Zm3.2 2.9-2.3 1.3-.1.1v2.6l2.3-1.3v-2.7h.1ZM7 18.9v-2.7l-2.3-1.3v2.7L7 18.9Z"/>
</g></svg>