<svg xmlns="http://www.w3.org/2000/svg" data-laicon-version="16.12" viewBox="0 0 20 20" fill="black"><g transform="translate(-2 -2)">
  <path d="M4.1 7A2.9 2.9 0 0 1 7 4.1h1v1.8H7A1.1 1.1 0 0 0 5.9 7v3.498A2.39 2.39 0 0 1 5.372 12c.33.411.528.934.528 1.502V17A1.1 1.1 0 0 0 7 18.1h.5v1.8H7A2.9 2.9 0 0 1 4.1 17v-3.498a.6.6 0 0 0-.597-.6l-.508-.002v-1.8l.508-.003a.6.6 0 0 0 .597-.6V7Zm15.8 0A2.9 2.9 0 0 0 17 4.1h-1v1.8h1A1.1 1.1 0 0 1 18.1 7v3.498c0 .568.198 1.09.528 1.502a2.39 2.39 0 0 0-.528 1.502V17a1.1 1.1 0 0 1-1.1 1.1h-.5v1.8h.5a2.9 2.9 0 0 0 2.9-2.9v-3.498a.6.6 0 0 1 .597-.6l.508-.002v-1.8l-.508-.003a.6.6 0 0 1-.597-.6V7Zm-8.8 3.2v7h1.8v-7h-1.8Zm.9-3.25a1.15 1.15 0 1 0 0 2.3 1.15 1.15 0 0 0 0-2.3Z"/>
</g></svg>