<svg xmlns="http://www.w3.org/2000/svg" data-laicon-version="16.16" viewBox="0 0 20 20" fill="black"><g transform="translate(-2 -2)">
  <path d="M5.38 6.56h1.5v1.5h-1.5v-1.5Zm2.29 0h1.5v1.5h-1.5v-1.5Z"/>
  <path d="M4.553 10.4v7.75H15v1.8H4.627c-.218 0-.453-.006-.666-.043a1.443 1.443 0 0 1-.757-.357 1.387 1.387 0 0 1-.402-.759 3.463 3.463 0 0 1-.05-.661V5.774c0-.206.007-.443.053-.66.051-.238.17-.544.47-.772.267-.204.564-.253.746-.272.185-.02.401-.02.597-.02h15.085c.415 0 .957.107 1.29.618.255.392.255.863.255 1.104V13.5h-1.8v-3.1H4.553Zm0-1.8h14.895V5.85H4.553V8.6Z"/>
  <path d="m18.48 13.887-2.886 2.887 1.272 1.272.714-.713v2.387h1.8v-2.387l.714.713 1.272-1.272-2.886-2.887Z"/>
</g></svg>