<svg xmlns="http://www.w3.org/2000/svg" data-laicon-version="15.0" viewBox="0 0 20 20" fill="black"><g transform="translate(-2 -2)">
  <path d="M4.553 5.8504v12.2988a8.558 8.558 0 0 0 .0737.0003l14.8208.0001V5.8503H4.6267l-.0738.0001Zm14.8774 12.5529.0003-.0011-.0003.0011ZM4.6182 4.0503h15.0845c.4152 0 .9568.1072 1.2895.6175.2553.3918.2553.8632.2553 1.1047v12.3572c0 .2574-.0058.7099-.2225 1.1001-.1255.2259-.3157.4243-.5764.5558-.2479.125-.5085.164-.7459.164l-15.076-.0001c-.218 0-.4522-.0057-.6656-.0427-.2185-.038-.5086-.1235-.7567-.3563-.2544-.2386-.3563-.5295-.402-.759-.043-.2172-.0495-.4518-.0495-.6618V5.7745c0-.2062.0059-.4431.0523-.66.051-.2382.1705-.5443.4689-.772.2678-.2045.5648-.2535.7467-.2727.1854-.0195.4012-.0195.5974-.0194Z"/>
  <path d="M20.3474 10.4H3.6528V8.6h16.6946v1.8ZM6.8799 6.56h-1.5v1.5h1.5v-1.5Zm2.29 0h-1.5v1.5h1.5v-1.5Z"/>
</g></svg>