<svg xmlns="http://www.w3.org/2000/svg" data-laicon-version="15.0" viewBox="0 0 20 20" fill="black"><g transform="translate(-2 -2)">
  <path d="M5.0249 16.2703h14.6479v1.8H5.0249v-1.8Z"/>
  <path d="M12.4432 4.1059c-.6097-.0139-1.1115.4766-1.1115 1.0865v6.1963a.9.9 0 0 1-.4779.7949L5.796 14.8697a.1.1 0 0 0-.053.0883v2.2075c0 1.0594-.1518 2.0341-.3331 2.8393l13.0794.0006c.1446-.637.3647-1.7879.3647-2.8398v-2.2053a.1.1 0 0 0-.0534-.0884l-4.8153-2.5412a.9.9 0 0 1-.48-.796V5.3418c0-.7013-.5205-1.2018-1.0152-1.2349l-.0469-.001Zm6.0852 17.6995L4.379 21.8048c-.4421 0-.7222-.2467-.851-.4253a.9.9 0 0 1-.1332-.7816c.251-.8492.5481-2.0729.5481-3.4324V14.958c0-.7027.388-1.3483 1.0088-1.6781l4.58-2.4323V5.1924c0-1.62 1.3326-2.9226 2.952-2.886l.0628.0013a.942.942 0 0 1 .0274.001c1.5741.0832 2.7314 1.4945 2.7314 3.0331v5.6502l4.3355 2.2879a1.9001 1.9001 0 0 1 1.0132 1.6804v2.2053c0 1.2831-.2675 2.6217-.4204 3.2866-.1833.8011-.8933 1.3532-1.7052 1.3532 0 0-.0001 0 0 0Z"/>
</g></svg>