<svg xmlns="http://www.w3.org/2000/svg" data-laicon-version="15.0" viewBox="0 0 20 20" fill="black"><g transform="translate(-2 -2)">
  <path d="M15.5501 3.825a.0735.0735 0 0 0-.0699.046.072.072 0 0 0-.0051.029c0 .043.032.075.075.075h3.44c.457 0 .825.368.825.825a.8236.8236 0 0 1-.509.7628.8227.8227 0 0 1-.316.0622h-4.265v-.75h4.265a.0728.0728 0 0 0 .075-.075.0739.0739 0 0 0-.0214-.0536.073.073 0 0 0-.0536-.0214h-3.44a.8228.8228 0 0 1-.825-.825c0-.457.368-.825.825-.825h4.265v.75h-4.265Zm-11.365-.74H8.36a.823.823 0 0 1 .696 1.27.823.823 0 0 1-.696 1.27H4.185v-2.54Zm4.212 1.65a.8452.8452 0 0 1-.037 0v-.01H5.12v-.75h3.24a.8616.8616 0 0 1 .037.001.073.073 0 0 0 .038-.066.0731.0731 0 0 0-.075-.075H4.935v1.04H8.36a.073.073 0 0 0 .075-.075.0731.0731 0 0 0-.038-.066v.001Zm6.128-1.65h-5.09v.75h2.17v1.79h.75v-1.79h2.17v-.75Zm-1.347 7.371c.28.38.543.785.788 1.216 1.55-1.679 3.593-2.442 5.804-2.442v1.8c-1.933 0-3.6.709-4.808 2.248-.047.06-.093.12-.139.182.83 2.089 1.307 4.636 1.307 7.68h-1.8c0-2.089-.238-3.887-.653-5.424-.489 1.416-.777 3.205-.777 5.425h-1.8c0-2.22-.288-4.009-.777-5.425-.415 1.537-.653 3.335-.653 5.424h-1.8c0-3.044.477-5.592 1.307-7.68a6.5434 6.5434 0 0 0-.139-.182C7.83 11.738 6.163 11.03 4.23 11.03v-1.8c2.211 0 4.255.763 5.803 2.442.246-.43.51-.836.79-1.216C8.95 8.549 6.552 7.72 4.23 7.72v-1.8c2.71 0 5.543.957 7.77 3.167 2.227-2.21 5.06-3.167 7.77-3.167v1.8c-2.322 0-4.721.829-6.592 2.736Zm-1.968 2.844h-.001c.3143.561.5787 1.1486.79 1.756.2113-.6074.4756-1.195.79-1.756a11.649 11.649 0 0 0-.79-1.39c-.283.425-.548.888-.789 1.39Z"/>
</g></svg>