<svg xmlns="http://www.w3.org/2000/svg" data-laicon-version="15.0" viewBox="0 0 20 20" fill="black"><g transform="translate(-2 -2)">
  <path d="M7.0002 5v14h10V5h-10Zm-.8-1.8h11.6c.5523 0 1 .4476 1 1v15.6c0 .5523-.4477 1-1 1h-11.6c-.5523 0-1-.4477-1-1V4.2c0-.5524.4477-1 1-1Z"/>
  <path d="M10.4001 6.7V8h-1.3V6.7h1.3Zm4.3999 0V8h-1.3V6.7h1.3Zm-4.3999 2.9v-.0001 1.3h-1.3v-1.3h1.3Zm4.3999 0v-.0001 1.3h-1.3v-1.3h1.3Zm-4.3999 2.9999v1.3h-1.3v-1.3h1.3Zm4.3999 0v1.3h-1.3v-1.3h1.3Zm-3.8 8.2v-4.7h1.8v4.7H11Z"/>
</g></svg>