<svg xmlns="http://www.w3.org/2000/svg" data-laicon-version="15.0" viewBox="0 0 20 20" fill="black"><g transform="translate(-2 -2)">
  <path d="M15 21.7999H9v-1.8h6v1.8ZM12.0502 4.4c-3.065 0-5.55 2.485-5.55 5.55 0 2.1835 1.2607 4.0746 3.0981 4.9808l.5019.2476V17.5h3.9v-2.3216l.5019-.2476c1.8373-.9062 3.0981-2.7973 3.0981-4.9808 0-3.065-2.4851-5.55-5.55-5.55Zm-7.35 5.55c0-4.059 3.291-7.35 7.35-7.35 4.059 0 7.35 3.291 7.35 7.35 0 2.6905-1.4458 5.0426-3.6 6.3228V18.3c0 .552-.4479 1-1 1h-5.5c-.552 0-1-.4479-1-1v-2.0272c-2.1543-1.2802-3.6-3.6323-3.6-6.3228Z"/>
</g></svg>