<svg xmlns="http://www.w3.org/2000/svg" data-laicon-version="15.0" viewBox="0 0 20 20" fill="black"><g transform="translate(-2 -2)">
  <path d="M4.8469 5.4922V18.7h14.3065V5.4922H4.8469Zm-1.8-.3397c0-.8064.6536-1.4603 1.4603-1.4603H19.493c.8065 0 1.4603.6538 1.4603 1.4603v13.8873c0 .8066-.6539 1.4602-1.4603 1.4602H4.5071c-.8062 0-1.4602-.6535-1.4602-1.4602V5.1525Z"/>
  <path d="M3.9468 7.154h16.1064v1.8H3.9468v-1.8ZM8.4182 2.2v2.1922h-1.8V2.2h1.8Zm8.9638 0v2.1922h-1.8V2.2h1.8ZM17.7698 15.8h-1.7v1.7h1.7v-1.7Z"/>
</g></svg>