<svg xmlns="http://www.w3.org/2000/svg" data-laicon-version="15.3" viewBox="0 0 20 20" fill="black"><g transform="translate(-2 -2)">
  <path d="M12 8.171a4.22 4.22 0 0 0-4.217 4.217A4.22 4.22 0 0 0 12 16.605a4.22 4.22 0 0 0 4.216-4.217A4.22 4.22 0 0 0 12 8.171Zm-2.417 4.217A2.42 2.42 0 0 1 12 9.971a2.42 2.42 0 0 1 2.416 2.417A2.42 2.42 0 0 1 12 14.805a2.42 2.42 0 0 1-2.417-2.417Z"/>
  <path d="M9.589 2.843c-.464 0-.9.227-1.165.607l-.818 1.17H5.1a2.2 2.2 0 0 0-2.2 2.2v11.137a2.2 2.2 0 0 0 2.2 2.2h13.8a2.2 2.2 0 0 0 2.2-2.2V6.806a2.2 2.2 0 0 0-2.21-2.2l-2.5.011-.883-1.196a1.422 1.422 0 0 0-1.145-.578H9.59ZM8.543 6.42l1.243-1.776h4.386l1.312 1.779 3.414-.016a.4.4 0 0 1 .402.4v11.15a.4.4 0 0 1-.4.4H5.1a.4.4 0 0 1-.4-.4V6.82c0-.22.18-.4.4-.4h3.443Z"/>
</g></svg>