<svg xmlns="http://www.w3.org/2000/svg" data-laicon-version="15.3" viewBox="0 0 20 20" fill="black"><g transform="translate(-2 -2)">
  <path d="M15.021 8.847A4.55 4.55 0 0 0 7.453 12.1H7.15a.35.35 0 0 0-.28.56l1.1 1.467a.35.35 0 0 0 .56 0l1.1-1.467a.35.35 0 0 0-.28-.56h-.332l.038-.038a2.95 2.95 0 0 1 4.83-2.08l1.135-1.135Zm-.076 3.59.036-.037h-.33a.35.35 0 0 1-.28-.56l1.1-1.467a.35.35 0 0 1 .56 0l1.1 1.467a.35.35 0 0 1-.28.56h-.303a4.55 4.55 0 0 1-7.57 3.252l1.135-1.134a2.95 2.95 0 0 0 4.831-2.081Z"/>
  <path d="M9.589 2.843c-.464 0-.9.227-1.165.607l-.818 1.17H5.1a2.2 2.2 0 0 0-2.2 2.2v11.137a2.2 2.2 0 0 0 2.2 2.2h13.8a2.2 2.2 0 0 0 2.2-2.2V6.806a2.2 2.2 0 0 0-2.21-2.2l-2.5.011-.883-1.196a1.422 1.422 0 0 0-1.145-.578H9.59ZM8.543 6.42l1.243-1.776h4.386l1.312 1.779 3.414-.016a.4.4 0 0 1 .402.4v11.15a.4.4 0 0 1-.4.4H5.1a.4.4 0 0 1-.4-.4V6.82c0-.22.18-.4.4-.4h3.443Z"/>
</g></svg>