<svg xmlns="http://www.w3.org/2000/svg" data-laicon-version="15.0" viewBox="0 0 20 20" fill="black"><g transform="translate(-2 -2)">
  <path d="M8.5002 21.3c-1 0-1.8-.8-1.8-1.8s.8-1.8 1.8-1.8c.9 0 1.7.8 1.7 1.8s-.7 1.8-1.7 1.8Zm9 0c-1 0-1.7-.8-1.8-1.8 0-1 .8-1.8 1.8-1.8s1.8.8 1.8 1.8-.8 1.8-1.8 1.8ZM6.2001 15.8l-1.6-8.8c0-.7.5-1.2 1.3-1.2h14.7c.3 0 .7 0 1 .4.3.4.2.8.2 1l-1.6 8.6c-.2 1-1 1-1.4 1h-11.2c-.5 0-1.3 0-1.4-1Zm12.3-.8 1.4-7.4h-13.4l1.4 7.4h10.6Z"/>
  <path d="m5.5001 11.9-1.5-7.4h-1.9V2.7h2.7c.4 0 .8.3.9.7l1.6 8.2-1.8.3Z"/>
</g></svg>