<svg xmlns="http://www.w3.org/2000/svg" data-laicon-version="15.0" viewBox="0 0 20 20" fill="black"><g transform="translate(-2 -2)">
  <path d="M3.3006 2.9206a.9.9 0 0 1 .9 0l4.3262 2.4977h6.9658l4.3262-2.4977a.9.9 0 0 1 1.35.7794v8.3409c0 5.0585-4.1007 9.1591-9.1591 9.1591-5.0584 0-9.1591-4.1006-9.1591-9.1591v-8.341a.9.9 0 0 1 .45-.7793Zm1.35 2.3382v6.7821c0 4.0643 3.2948 7.3591 7.3591 7.3591 4.0643 0 7.3591-3.2948 7.3591-7.3591v-6.782l-3.185 1.8388a.9.9 0 0 1-.45.1206H8.2856a.9.9 0 0 1-.45-.1206l-3.185-1.8389Z"/>
  <path d="M12.9099 13.1017v2.136h-1.8v-2.136h1.8Z"/>
  <path d="m9.71 15.5263 1.8498-1.068.9 1.5588-1.8498 1.068-.9-1.5588Z"/>
  <path d="m13.4095 17.0851-1.8499-1.068.9-1.5588 1.8499 1.068-.9 1.5588ZM9.0717 10.0227c-.6733 0-1.2192.5459-1.2192 1.2192 0 .6734.5459 1.2191 1.2192 1.2191s1.2191-.5457 1.2191-1.2191c0-.6733-.5458-1.2192-1.219-1.2192Zm5.876 0c-.6734 0-1.2192.5459-1.2192 1.2192 0 .6734.5458 1.2191 1.2192 1.2191.6732 0 1.2191-.5457 1.2191-1.2191 0-.6733-.5459-1.2192-1.2191-1.2192Z"/>
</g></svg>