<svg xmlns="http://www.w3.org/2000/svg" data-laicon-version="15.0" viewBox="0 0 20 20" fill="black"><g transform="translate(-2 -2)">
  <path d="M5.0002 5v14h14V5h-14Zm-1.8-.4c0-.8.6-1.4 1.4-1.4h14.8c.8 0 1.4.6 1.4 1.4v14.8c0 .8-.6 1.4-1.4 1.4h-14.8c-.8 0-1.4-.6-1.4-1.4V4.6Z"/>
  <path d="M7.2001 14.1c.5.6 1.2.9 2.1.9 1.4 0 2.3-.8 2.7-1.9v-.2c0-.1-.1-.1-.2-.1l-1.1-.3h-.2c-.1 0-.1.1-.1.2-.1.2-.2.4-.4.5-.2.1-.4.1-.6.1-.3 0-.6-.1-.8-.3-.2-.2-.3-.5-.3-.9s.1-.7.3-.9c.2-.2.5-.3.8-.3.4 0 .7.2.8.5 0 .1.1.1.2.1h.2l1.1-.3c.1 0 .2-.1.2-.2v-.3c-.2-.5-.5-.9-.9-1.2-.4-.3-1-.4-1.6-.4-.8 0-1.5.3-2.1.8-.5.5-.8 1.3-.8 2.1-.1.9.2 1.6.7 2.1Zm7.7.9c1.4 0 2.3-.8 2.7-1.9v-.2c0-.1-.1-.1-.2-.1l-1.1-.3h-.2c-.1 0-.1.1-.1.2-.1.2-.2.4-.4.5-.2.1-.4.1-.6.1-.3 0-.6-.1-.8-.3-.2-.2-.3-.5-.3-.9s.1-.7.3-.9c.2-.2.5-.3.8-.3.4 0 .7.2.8.5 0 .1.1.1.2.1h.2l1.1-.3c.1 0 .2-.1.2-.2v-.3c-.2-.5-.5-.9-.9-1.2-.4-.3-1-.4-1.6-.4-.8 0-1.5.3-2.1.8-.5.5-.9 1.2-.9 2.1 0 .9.3 1.6.8 2.1.5.6 1.3.9 2.1.9Z"/>
</g></svg>