<svg xmlns="http://www.w3.org/2000/svg" data-laicon-version="15.0" viewBox="0 0 20 20" fill="black"><g transform="translate(-2 -2)">
  <path d="M10.303 8.8887c-1.3278 1.3278-1.3278 3.4806 0 4.8083.2075.2076.4352.3827.6768.5253l.9142-.9142a.8467.8467 0 0 0 .245-.5191 1.5933 1.5933 0 0 1-.5633-.3648c-.6248-.6248-.6248-1.6379 0-2.2627L12.99 8.7473c.6248-.6248 1.6379-.6248 2.2627 0 .6248.6248.6248 1.6379 0 2.2627l-.12.12a4.1654 4.1654 0 0 1 .2475 2.2982l1.1453-1.1454c1.3278-1.3278 1.3278-3.4805 0-4.8083-1.3278-1.3278-3.4806-1.3278-4.8083 0L10.303 8.8887Z"/>
  <path d="M11.8608 11.2109a1.596 1.596 0 0 1 .5633.3648c.6248.6249.6248 1.6379 0 2.2628l-1.4142 1.4142c-.6249.6248-1.638.6248-2.2628 0-.6248-.6249-.6248-1.6379 0-2.2628l.12-.1199a4.165 4.165 0 0 1-.2474-2.2982l-1.1453 1.1453c-1.3278 1.3278-1.3278 3.4806 0 4.8084 1.3277 1.3277 3.4805 1.3277 4.8082 0l1.4143-1.4143c1.3277-1.3277 1.3277-3.4805 0-4.8083a3.4108 3.4108 0 0 0-.6768-.5253l-.9142.9142a.8471.8471 0 0 0-.2451.5191Z"/>
  <path d="M12 4.3c-4.2526 0-7.7 3.4474-7.7 7.7s3.4474 7.7 7.7 7.7 7.7-3.4474 7.7-7.7-3.4474-7.7-7.7-7.7ZM2.5 12c0-5.2467 4.2533-9.5 9.5-9.5s9.5 4.2533 9.5 9.5-4.2533 9.5-9.5 9.5-9.5-4.2533-9.5-9.5Z"/>
</g></svg>