<svg xmlns="http://www.w3.org/2000/svg" data-laicon-version="18.1" viewBox="0 0 20 20" fill="black"><g transform="translate(-2 -2)">
  <path d="M8.65 20.15h-4.8v-4.8h4.8v4.8Zm-3-1.8h1.2v-1.2h-1.2v1.2Zm8.75 1.8H9.6v-4.8h4.8v4.8Zm-3-1.8h1.2v-1.2h-1.2v1.2Zm8.75 1.8h-4.8v-4.8h4.8v4.8ZM8.65 14.4h-4.8V9.6h4.8v4.8Zm5.75 0H9.6V9.6h4.8v4.8Zm5.75 0h-4.8V9.6h4.8v4.8ZM8.65 8.65h-4.8v-4.8h4.8v4.8Zm-3-1.8h1.2v-1.2h-1.2v1.2Zm8.75 1.8H9.6v-4.8h4.8v4.8Zm5.75 0h-4.8v-4.8h4.8v4.8Zm-3-1.8h1.2v-1.2h-1.2v1.2Z"/>
</g></svg>