<svg xmlns="http://www.w3.org/2000/svg" data-laicon-version="15.0" viewBox="0 0 20 20" fill="black"><g transform="translate(-2 -2)">
  <path d="M11.7264 3.6961v8.561h8.575l-.0911.983c-.4114 4.4424-4.147 7.9951-8.715 7.9951-4.834 0-8.7526-3.9187-8.7526-8.7526 0-4.6138 3.7335-8.4786 8.031-8.7306l.9527-.0559Zm-1.8 1.9874c-2.93.6574-5.3837 3.4778-5.3837 6.7991 0 3.8398 3.1128 6.9526 6.9526 6.9526 3.2701 0 6.0253-2.3103 6.7603-5.3781H9.9264V5.6835Z"/>
  <path d="m12.478 2.7259.9369.0617c4.0459.2666 7.4441 3.8119 7.8175 7.8234l.0894.9605H12.478V2.7259Zm1.7582 1.9568v5.1307h5.0815c-.6184-2.4796-2.6666-4.563-5.0815-5.1307Z"/>
</g></svg>