<svg xmlns="http://www.w3.org/2000/svg" data-laicon-version="15.0" viewBox="0 0 20 20" fill="black"><g transform="translate(-2 -2)">
  <path d="M21.0501 18.63H2.6977V5.9313h1.8V16.83h16.5524v1.8Z"/>
  <path d="M15.8615 5.383c-.7456 0-1.35.6045-1.35 1.35 0 .7457.6044 1.35 1.35 1.35s1.35-.6043 1.35-1.35c0-.7455-.6044-1.35-1.35-1.35ZM9.05 5.9623c-.7456 0-1.35.6044-1.35 1.35s.6044 1.35 1.35 1.35c.7455 0 1.35-.6044 1.35-1.35s-.6045-1.35-1.35-1.35Zm-1.1878 6.2601c-.7456 0-1.35.6045-1.35 1.35 0 .7456.6044 1.35 1.35 1.35s1.35-.6044 1.35-1.35c0-.7455-.6044-1.35-1.35-1.35Zm3.8077-.7294c0-.7456.6045-1.35 1.35-1.35.7456 0 1.35.6044 1.35 1.35 0 .7455-.6044 1.35-1.35 1.35-.7455 0-1.35-.6045-1.35-1.35Zm5.3672 2.5024c0-.7456.6044-1.35 1.35-1.35s1.35.6044 1.35 1.35-.6044 1.35-1.35 1.35-1.35-.6044-1.35-1.35Z"/>
</g></svg>