<svg xmlns="http://www.w3.org/2000/svg" data-laicon-version="15.0" viewBox="0 0 20 20" fill="black"><g transform="translate(-2 -2)">
  <path d="M10.2998 11.8c.5523 0 1-.4477 1-1 0-.5522-.4477-1-1-1s-1 .4478-1 1c0 .5523.4477 1 1 1Zm4.1001-1c0 .5523-.4477 1-1 1-.5522 0-1-.4477-1-1 0-.5522.4478-1 1-1 .5523 0 1 .4478 1 1Zm2.1001 1c.5523 0 1-.4477 1-1 0-.5522-.4477-1-1-1-.5522 0-1 .4478-1 1 0 .5523.4478 1 1 1Z"/>
  <path d="m21.8601 18.23-1.09-3.49c1.67-3.19 1.08-7.13-1.5-9.7-1.57-1.57-3.65-2.43-5.87-2.43s-4.3.86-5.87 2.43c-1.57 1.58-2.43 3.66-2.43 5.87s.86 4.32 2.43 5.89c1.56 1.56 3.64 2.42 5.86 2.42 1.34 0 2.65-.32 3.83-.94l3.51 1.08c.09.03.18.04.26.04.24 0 .47-.09.64-.26.24-.24.32-.58.22-.9l.01-.01Zm-2.92-3.32.7 2.23-2.24-.69c-.24-.07-.5-.04-.72.08-.99.58-2.13.89-3.28.89-1.74 0-3.37-.67-4.59-1.9-1.23-1.23-1.9-2.87-1.9-4.61 0-1.74.68-3.36 1.9-4.6 1.23-1.23 2.86-1.91 4.6-1.91 1.74 0 3.37.68 4.6 1.91 2.09 2.09 2.5101 5.3299 1.0201 7.8799-.13.22-.1601.4801-.0801.7201h-.01Z"/>
  <path d="M5.91 19.14c.61.36 1.3.5499 2.01.5499.39 0 .77-.0599 1.14-.1699.73.37 1.51.64 2.32.82-1 .74-2.2 1.15-3.46 1.15-.89 0-1.77-.21-2.56-.6l-2.2.6701c-.32.1-.67.0099-.9-.2201-.23-.24-.32-.5901-.22-.9001l.68-2.1899c-.76-1.53-.79-3.28-.15-4.8.28-.66.69-1.28 1.21-1.81.07.83.24 1.64.5 2.4-.0052.0104-.0104.0201-.0154.0295-.0143.0268-.0273.0509-.0347.0805-.47 1.13-.41 2.44.24 3.55.12.22.16.48.08.72l-.29.92.93-.2799c.24-.07.5-.0401.72.0799Z"/>
</g></svg>