<svg xmlns="http://www.w3.org/2000/svg" data-laicon-version="15.0" viewBox="0 0 20 20" fill="black"><g transform="translate(-2 -2)">
  <path d="M9.5965 9.1202c-.9537.9624-1.532 2.4-1.532 4.2906 0 2.0097 1.0778 3.8327 2.0134 5.0299.574-.6424 1.4313-1.2209 2.657-1.2216h.0022l1.884-.0081h.0038c2.6552 0 4.8169-2.1614 4.8169-4.8165 0-1.5016-.5444-2.6757-1.465-3.4847-.9324-.8193-2.3307-1.3322-4.141-1.3322-1.8667 0-3.2868.581-4.2393 1.5426Zm-1.2788-1.267c1.3544-1.3667 3.2698-2.0756 5.5181-2.0756 2.1419 0 3.9967.6092 5.3292 1.78 1.3443 1.1814 2.0768 2.8658 2.0768 4.8369 0 3.6487-2.9666 6.6154-6.6147 6.6165h-.0022l-1.884.0081h-.0038c-.8838 0-1.4353.6319-1.7764 1.3047l-.5805 1.1449-.8785-.936c-1.0189-1.0856-3.237-3.8038-3.237-7.1219 0-2.2626.6997-4.1916 2.053-5.5575Z"/>
  <path d="M9.4304 4.58h.0001c-1.5875 0-2.8022.4497-3.607 1.1567-.7928.6967-1.2652 1.7095-1.2652 3.0153 0 1.8372 1.1961 3.4051 2.8546 3.9586l-.5698 1.7074c-2.3693-.7907-4.0848-3.0293-4.0848-5.666 0-1.7752.6605-3.2984 1.8772-4.3674C5.8402 3.326 7.5115 2.78 9.4305 2.78c2.7634 0 4.9568 1.201 6.06 3.3998l-1.6089.8072C13.137 5.5028 11.6403 4.58 9.4304 4.58Z"/>
</g></svg>