<svg xmlns="http://www.w3.org/2000/svg" data-laicon-version="15.0" viewBox="0 0 20 20" fill="black"><g transform="translate(-2 -2)">
  <path d="M4.05 12.1199c0 2.48 1.41 4.72 2.48 6.06v.02c.81-.98 1.88-1.51 3.09-1.51h3.08v1.81H9.62c-.92 0-1.65.53-2.19 1.59l-.58 1.14-.88-.94c-1.39-1.48-3.72-4.51-3.72-8.17 0-5.3 3.61-8.72 8.66-8.72 5.05 0 8.45 3.03 8.45 7.54 0 .0813-.0052.16-.0102.2374a3.3492 3.3492 0 0 0-.0098.2226h-1.8c.01-.17.01-.3299.01-.4599 0-3.54-2.36-5.7401-6.65-5.7401-4.29 0-6.85 2.59-6.85 6.92Z"/>
  <path d="M6.2002 11.4c0 .61.49 1.1 1.1 1.1.61 0 1.1-.49 1.1-1.1 0-.61-.49-1.1-1.1-1.1-.61 0-1.1.49-1.1 1.1Zm15.0397 4.39-1.27-1.28-1.65 1.65-1.64-1.65-1.28 1.28 1.65 1.64-1.65 1.65 1.28 1.27 1.64-1.65 1.65 1.65 1.27-1.27-1.65-1.65 1.65-1.64ZM10.7001 12.5c-.61 0-1.1-.49-1.1-1.1 0-.61.49-1.1 1.1-1.1.61 0 1.1.49 1.1 1.1 0 .61-.49 1.1-1.1 1.1ZM14.1 10.3c-.61 0-1.1.49-1.1 1.1 0 .61.49 1.1 1.1 1.1.61 0 1.1-.49 1.1-1.1 0-.61-.49-1.1-1.1-1.1Z"/>
</g></svg>