<svg xmlns="http://www.w3.org/2000/svg" data-laicon-version="15.0" viewBox="0 0 20 20" fill="black"><g transform="translate(-2 -2)">
  <path d="M2.3999 11.4723c0-4.7892 4.4203-8.4653 9.6-8.4653 5.1797 0 9.6 3.6761 9.6 8.4653 0 4.7891-4.4203 8.4652-9.6 8.4652-1.3168 0-2.5682-.24-3.7096-.6638l-2.743 1.597a.9.9 0 0 1-1.3385-.9373l.528-2.9325C3.2979 15.5331 2.4 13.6066 2.4 11.4723Zm9.6-6.6653c-4.43 0-7.8 3.0982-7.8 6.6653 0 1.7385.7876 3.3402 2.1144 4.5502a.9.9 0 0 1 .2792.8245l-.2679 1.4877 1.4367-.8364a.8999.8999 0 0 1 .8024-.0516c1.0384.4377 2.2004.6908 3.4352.6908 4.4301 0 7.8-3.0982 7.8-6.6652 0-3.5671-3.3699-6.6653-7.8-6.6653Z"/>
  <path d="M8.2172 10.284c-.6563 0-1.1884.532-1.1884 1.1884 0 .6563.532 1.1884 1.1884 1.1884.6564 0 1.1884-.5321 1.1884-1.1884 0-.6564-.532-1.1884-1.1884-1.1884Zm3.7827 0c-.6563 0-1.1884.532-1.1884 1.1884 0 .6563.5321 1.1884 1.1884 1.1884.6564 0 1.1884-.5321 1.1884-1.1884 0-.6564-.532-1.1884-1.1884-1.1884Zm3.7827 0c-.6563 0-1.1884.532-1.1884 1.1884 0 .6563.5321 1.1884 1.1884 1.1884.6564 0 1.1884-.5321 1.1884-1.1884 0-.6564-.532-1.1884-1.1884-1.1884Z"/>
</g></svg>