<svg xmlns="http://www.w3.org/2000/svg" data-laicon-version="15.0" viewBox="0 0 20 20" fill="black"><g transform="translate(-2 -2)">
  <path d="M17.9088 7.948V5.081c0-.955-.774-1.729-1.729-1.729H4.9458a1.73 1.73 0 0 0-1.729 1.73v9.59c0 .955.774 1.73 1.729 1.73h.474V17.6a.9.9 0 0 0 1.536.636l1.072-1.071v.747a1.59 1.59 0 0 0 1.591 1.591h6.091l1.484 1.484a.8994.8994 0 0 0 .9808.1945.8992.8992 0 0 0 .5552-.8315v-.848h.245a1.59 1.59 0 0 0 1.591-1.59V9.538a1.59 1.59 0 0 0-1.59-1.59h-1.067Zm-12.892 6.653V5.152h11.092v9.45h-7.711a.8987.8987 0 0 0-.741.389l-.44.439a.9001.9001 0 0 0-.897-.829h-1.303Zm4.811 1.8h6.352c.955 0 1.729-.774 1.729-1.729V9.748h.857v7.954h-.936a.8999.8999 0 0 0-.828.547l-.17-.17a.899.899 0 0 0-.732-.376h-6.272v-1.302Z"/>
</g></svg>