<svg xmlns="http://www.w3.org/2000/svg" data-laicon-version="15.0" viewBox="0 0 20 20" fill="black"><g transform="translate(-2 -2)">
  <path d="M5.1168 5.151h13.549c.055 0 .1.045.1.1v11.567c0 .0549-.045.1-.1.1h-9.387a.899.899 0 0 0-.7498.4019l-.8562.8563v-.3582a.9.9 0 0 0-.9-.9h-1.656l-.0134.0001a.1005.1005 0 0 1-.0866-.0991V5.251c0-.055.045-.1.1-.1Zm4.5598 13.567h8.9892c1.0491 0 1.9-.851 1.9-1.9V5.251c0-1.049-.8509-1.9-1.9-1.9H5.1168c-1.049 0-1.9.851-1.9 1.9v11.568c0 1.049.851 1.9 1.9 1.9.0144 0 .0286-.0004.0428-.001h.7132v1.631a.9.9 0 0 0 1.5364.6364l2.2674-2.2674Z"/>
</g></svg>