<svg xmlns="http://www.w3.org/2000/svg" data-laicon-version="15.0" viewBox="0 0 20 20" fill="black"><g transform="translate(-2 -2)">
  <path d="M6.7448 6.5195C5.522 7.7536 4.8002 9.579 4.8002 11.9348c0 2.6966 1.5318 5.1037 2.732 6.5689.652-.8361 1.685-1.652 3.2319-1.6526h.0017l2.2886-.0098h.0034c3.3854 0 6.1409-2.7552 6.1409-6.1404 0-1.8995-.6915-3.408-1.8781-4.4506-1.1972-1.052-2.969-1.6903-5.2208-1.6903-2.3284 0-4.1332.7263-5.355 1.9595Zm-1.1366-1.126C7.187 3.7998 9.4322 2.96 12.0998 2.96c2.5465 0 4.7242.724 6.2769 2.0884 1.5633 1.3737 2.422 3.3357 2.422 5.6525 0 4.2685-3.4711 7.7395-7.7392 7.7404h-.0017l-2.2886.0098h-.0034c-1.2429 0-1.9881.8969-2.4178 1.7444l-.516 1.0177-.7808-.832c-1.2293-1.3097-3.851-4.5376-3.851-8.4464 0-2.6866.8299-4.9487 2.408-6.5414Z"/>
  <path d="M11.0977 18.0616v-14h1.6v14h-1.6Z"/>
  <path d="M19.6054 12.06H4v-1.6h15.6054v1.6Z"/>
</g></svg>