<svg xmlns="http://www.w3.org/2000/svg" data-laicon-version="15.0" viewBox="0 0 20 20" fill="black"><g transform="translate(-2 -2)">
  <path d="M8.4531 10.038a1.0001 1.0001 0 0 0-.707 1.7071 1.0001 1.0001 0 0 0 1.707-.7071 1 1 0 0 0-1-1Zm3.538 0a1.0003 1.0003 0 0 0-1 1 1.0001 1.0001 0 1 0 1-1Zm2.539 1a1.0001 1.0001 0 1 1 2.0002.0001 1.0001 1.0001 0 0 1-2.0002-.0001Z"/>
  <path d="M18.7659 18.718h-8.99l-2.266 2.267a.9004.9004 0 0 1-.9803.1948.9002.9002 0 0 1-.5557-.8308v-1.63h-.756a1.9 1.9 0 0 1-1.9-1.9V5.251a1.9 1.9 0 0 1 1.9-1.9h13.549a1.9 1.9 0 0 1 1.9 1.9v11.567a1.9 1.9 0 0 1-1.9 1.9h-.001ZM5.1159 5.251V16.82a.0999.0999 0 0 0 .088.1h1.669a.9.9 0 0 1 .9.9v.357l.856-.856a.8993.8993 0 0 1 .75-.402h9.387a.1.1 0 0 0 .1-.1V5.251a.1002.1002 0 0 0-.1-.1h-13.55a.1.1 0 0 0-.1.1Z"/>
</g></svg>