<svg xmlns="http://www.w3.org/2000/svg" data-laicon-version="15.0" viewBox="0 0 20 20" fill="black"><g transform="translate(-2 -2)">
  <path d="M20.6418 4.302a1.088 1.088 0 1 0-2.1762 0 1.088 1.088 0 0 0 2.1762 0Z"/>
  <path d="M16.9658 4.302c0 .297.05.583.143.85H5.1168a.1.1 0 0 0-.1.1v11.567a.1.1 0 0 0 .087.1h1.669a.9006.9006 0 0 1 .6364.2636.9004.9004 0 0 1 .2636.6364v.357l.856-.856a.8993.8993 0 0 1 .75-.402h9.387a.1001.1001 0 0 0 .1-.1V6.768a2.58 2.58 0 0 0 1.8-.084v10.134a1.9 1.9 0 0 1-1.9 1.9h-8.99l-2.266 2.267a.9004.9004 0 0 1-.9803.1948.9002.9002 0 0 1-.5557-.8308v-1.63h-.756a1.9 1.9 0 0 1-1.9-1.9V5.251a1.9 1.9 0 0 1 1.9-1.9h12.03a2.5719 2.5719 0 0 0-.181.951h-.001Z"/>
</g></svg>