<svg xmlns="http://www.w3.org/2000/svg" data-laicon-version="15.0" viewBox="0 0 20 20" fill="black"><g transform="translate(-2 -2)">
  <path d="M19.545 3.0229c-.7389 0-1.338.599-1.338 1.338 0 .7389.5991 1.3379 1.338 1.3379.7389 0 1.338-.599 1.338-1.338 0-.739-.599-1.338-1.338-1.338ZM6.6965 7.379C5.592 8.494 4.93 10.1522 4.93 12.3148c0 2.3735 1.3046 4.5118 2.3905 5.8735.6323-.7499 1.5998-1.4479 3.0099-1.4485h.0022l2.1312-.0091h.0038c3.0682 0 5.5658-2.4973 5.5658-5.5653 0-1.7291-.628-3.0904-1.697-4.0297-1.0808-.9497-2.6921-1.5361-4.7612-1.5361-2.1363 0-3.7749.6656-4.8786 1.7796ZM5.418 6.1123c1.5053-1.5194 3.6393-2.3127 6.1572-2.3127 2.4007 0 4.4685.6827 5.9494 1.984 1.4927 1.3116 2.3088 3.1832 2.3088 5.3818 0 4.0616-3.3025 7.3641-7.3637 7.3653h-.0021l-2.1313.0091h-.0039c-1.068-.0001-1.722.7668-2.1142 1.5402l-.5805 1.1448-.8785-.9359C5.61 19.0643 3.13 16.0192 3.13 12.3147c0-2.5347.7835-4.6842 2.288-6.2025Z"/>
</g></svg>