<svg xmlns="http://www.w3.org/2000/svg" data-laicon-version="15.0" viewBox="0 0 20 20" fill="black"><g transform="translate(-2 -2)">
  <path d="M6.8157 6.59C5.6152 7.8015 4.9 9.5995 4.9 11.9347c0 2.606 1.4512 4.9455 2.6314 6.4096.6685-.8176 1.7053-1.5925 3.232-1.5933h.0022l2.2882-.0098h.0038c3.3301 0 6.0409-2.7104 6.0409-6.0404 0-1.8734-.6811-3.3535-1.8442-4.3755C16.0795 5.293 14.333 4.66 12.0997 4.66c-2.3072 0-4.0845.7192-5.284 1.93ZM5.537 5.323C7.1382 3.707 9.4108 2.86 12.0997 2.86c2.5649 0 4.7679.7293 6.3429 2.1133 1.5868 1.3944 2.456 3.3847 2.456 5.7276 0 4.3235-3.5157 7.8393-7.8388 7.8404h-.0021l-2.2882.0098h-.0038c-1.1849 0-1.9042.8526-2.3286 1.6896l-.5804 1.1449-.8785-.936C5.7462 19.1371 3.1 15.8845 3.1 11.9348c0-2.7072.8367-4.9966 2.437-6.6118Z"/>
  <path d="m13.7986 5.6922 3.0857 3.118-6.253 6.2079h-3.083v-3.0915l6.2503-6.2344ZM9.2483 12.632v.6861h.6824l4.5514-4.5185-.6913-.6985-4.5425 4.5309Z"/>
</g></svg>