<svg xmlns="http://www.w3.org/2000/svg" data-laicon-version="15.0" viewBox="0 0 20 20" fill="black"><g transform="translate(-2 -2)">
  <path d="M7.2982 10.2922c-.6075 0-1.1.4925-1.1 1.1 0 .6074.4925 1.1 1.1 1.1.6076 0 1.1-.4925 1.1-1.1 0-.6076-.4925-1.1-1.1-1.1Zm3.398 0c-.6076 0-1.1.4925-1.1 1.1 0 .6074.4924 1.1 1.1 1.1.6075 0 1.1-.4925 1.1-1.1 0-.6076-.4926-1.1-1.1-1.1Zm3.3984 0c-.6076 0-1.1.4925-1.1 1.1 0 .6074.4924 1.1 1.1 1.1.6075 0 1.1-.4925 1.1-1.1 0-.6076-.4925-1.1-1.1-1.1Z"/>
  <path d="M5.8446 7.0416C4.7041 8.193 4.0222 9.9035 4.0222 12.1308c0 2.4492 1.3467 4.6555 2.4665 6.0593.652-.7735 1.65-1.4938 3.104-1.4944h.0017l3.1154-.0098.0056 1.8-3.1182.0098h-.0028c-1.1176 0-1.8026.7918-2.2145 1.5899l-.5858 1.135-.8717-.9335c-1.1896-1.274-3.7002-4.3834-3.7002-8.1563 0-2.5994.8034-4.8013 2.3438-6.356 1.5411-1.5558 3.727-2.3692 6.309-2.3692 2.4618 0 4.5801.6997 6.0961 2.0312 1.5279 1.342 2.364 3.2572 2.364 5.5089v.7143h-1.8v-.7143c0-1.782-.6478-3.1868-1.7518-4.1565-1.116-.98-2.7778-1.5836-4.9083-1.5836-2.2003 0-3.8908.6858-5.0305 1.836Z"/>
  <path d="M22.0001 17.8595h-7.5963v-1.8h7.5963v1.8Z"/>
  <path d="M17.3018 20.7577v-7.5963h1.8v7.5963h-1.8Z"/>
</g></svg>