<svg xmlns="http://www.w3.org/2000/svg" data-laicon-version="15.0" viewBox="0 0 20 20" fill="black"><g transform="translate(-2 -2)">
  <path d="M6.8172 6.59c-1.2005 1.2116-1.9156 3.0096-1.9156 5.3448 0 2.606 1.4512 4.9455 2.6314 6.4096.6685-.8176 1.7052-1.5925 3.232-1.5933h.0022l2.2881-.0098h.0039c3.3301 0 6.0409-2.7104 6.0409-6.0404 0-1.8734-.6811-3.3535-1.8442-4.3755C16.081 5.293 14.3345 4.66 12.1012 4.66c-2.3073 0-4.0845.7192-5.284 1.93ZM5.5385 5.323C7.1397 3.707 9.4123 2.86 12.1012 2.86c2.5649 0 4.7679.7293 6.3429 2.1133 1.5868 1.3944 2.456 3.3847 2.456 5.7276 0 4.3235-3.5157 7.8393-7.8388 7.8404h-.0021l-2.2882.0098h-.0038c-1.1849 0-1.9043.8526-2.3286 1.6896l-.5805 1.1449-.8785-.936c-1.2319-1.3125-3.878-4.5651-3.878-8.5148 0-2.7072.8366-4.9966 2.4369-6.6118Z"/>
  <path d="M7.25 13.8158v-5.32h1.5v5.32h-1.5Z"/>
  <path d="M10.8671 11.9058H8v-1.5h2.8671v1.5Z"/>
  <path d="M10.1172 13.8158v-5.32h1.5v5.32h-1.5Zm2.375 0v-3.6046h1.5v3.6046h-1.5ZM13.25 8.3635a.79.79 0 0 0-.79.79.79.79 0 1 0 1.58 0 .79.79 0 0 0-.79-.79ZM15.752 12.3319a.7999.7999 0 1 0 0 1.5997.7999.7999 0 0 0 0-1.5997Zm-.7496-.2645v-3.554h1.5v3.554h-1.5Z"/>
</g></svg>