<svg xmlns="http://www.w3.org/2000/svg" data-laicon-version="15.7" viewBox="0 0 20 20" fill="black"><g transform="translate(-2 -2)">
  <path d="M10 3.1c-2.449 0-4.445.862-5.825 2.325C2.802 6.88 2.1 8.862 2.1 11c0 3.644 2.063 6.668 4.14 7.951.802.496 1.609-.163 1.67-.852.056-.618.313-.971.612-1.189l.025-.018c.853 2.574 2.685 3.994 3.424 4.483.804.532 1.632-.137 1.69-.837.037-.464.172-.75.307-.905.117-.134.275-.22.532-.22h1.143a6.226 6.226 0 0 0 6.257-6.258c0-1.606-.514-3.014-1.483-4.092-.838-.93-1.976-1.57-3.308-1.9a6.38 6.38 0 0 0-1.615-2.177C14.103 3.764 12.18 3.1 10 3.1ZM3.9 11c0-1.748.57-3.266 1.584-4.34C6.489 5.595 7.994 4.9 10 4.9c1.82 0 3.297.552 4.306 1.438 1 .878 1.594 2.13 1.594 3.662 0 1.552-.56 2.724-1.393 3.512-.843.796-2.015 1.245-3.307 1.245H9.7c-.714 0-1.543.192-2.239.699a3.19 3.19 0 0 0-1.07 1.354C5.094 15.613 3.9 13.498 3.9 11Zm13.763-1.75a4.27 4.27 0 0 1 1.417 1.018c.642.713 1.021 1.678 1.021 2.887a4.426 4.426 0 0 1-4.457 4.457h-1.143c-.754 0-1.415.295-1.89.839a2.81 2.81 0 0 0-.471.77 6.949 6.949 0 0 1-1.801-2.664h.862c1.707 0 3.335-.596 4.543-1.737C16.96 13.671 17.7 12.015 17.7 10c0-.255-.013-.505-.038-.75Z"/>
</g></svg>