<svg xmlns="http://www.w3.org/2000/svg" data-laicon-version="15.0" viewBox="0 0 20 20" fill="black"><g transform="translate(-2 -2)">
  <path d="M5.2351 5.2351C6.9991 3.4711 9.3511 2.5 11.8391 2.5c2.488 0 4.84.9712 6.604 2.7351 2.9285 2.9286 3.5709 7.3523 1.6579 10.9612l1.2582 4.0358a.9001.9001 0 0 1-1.1227 1.1285l-4.0499-1.2402a9.3605 9.3605 0 0 1-4.3581 1.0789c-2.4892 0-4.8303-.972-6.5934-2.7351C3.4708 16.6998 2.5 14.3476 2.5 11.8497c0-2.4997.9719-4.8397 2.733-6.6125l.0021-.002ZM6.509 6.507C5.081 7.9448 4.3 9.8293 4.3 11.8497c0 2.0226.7826 3.9163 2.208 5.3417 1.4266 1.4266 3.3103 2.2079 5.3205 2.2079 1.3392 0 2.6513-.3584 3.8039-1.0291a.9.9 0 0 1 .7162-.0827l2.7848.8528-.8657-2.7768a.9.9 0 0 1 .0827-.7229c1.7364-2.9632 1.2659-6.6866-1.1801-9.1327C15.7445 5.0821 13.8505 4.3 11.8391 4.3c-2.011 0-3.9044.7817-5.3301 2.2069Z"/>
  <path d="M8.4 10.8499c-.634 0-1.15.5161-1.15 1.15 0 .634.516 1.15 1.15 1.15.634 0 1.15-.516 1.15-1.15 0-.6339-.516-1.15-1.15-1.15Zm3.6001 0c-.6339 0-1.15.5161-1.15 1.15 0 .634.5161 1.15 1.15 1.15.634 0 1.15-.516 1.15-1.15 0-.6326-.505-1.15-1.15-1.15Zm3.5498 0c-.6339 0-1.15.5161-1.15 1.15 0 .634.5161 1.15 1.15 1.15.6339 0 1.15-.516 1.15-1.15 0-.6339-.5161-1.15-1.15-1.15Z"/>
</g></svg>