<svg xmlns="http://www.w3.org/2000/svg" data-laicon-version="15.0" viewBox="0 0 20 20" fill="black"><g transform="translate(-2 -2)">
  <path d="M19.6278 13.039V5.251a1.9 1.9 0 0 0-1.9-1.9H4.1798a1.9 1.9 0 0 0-1.9 1.9V16.82a1.9 1.9 0 0 0 1.943 1.9h.713v1.63a.9.9 0 0 0 1.537.636l2.267-2.267h5.2v-1.8h-5.6a.9.9 0 0 0-.75.402l-.856.856v-.358a.8999.8999 0 0 0-.9-.9h-1.668a.0997.0997 0 0 1-.087-.099V5.251a.1.1 0 0 1 .1-.1h13.55a.1005.1005 0 0 1 .0924.0617.1005.1005 0 0 1 .0076.0383v7.788h1.8-.001Z"/>
  <path d="M17.8382 18.738v2.4h1.8v-2.4h2.4v-1.8h-2.4v-2.4h-1.8v2.4h-2.4v1.8h2.4Zm-10.347-8.7a1.0002 1.0002 0 0 0-.7071 1.7071 1.0002 1.0002 0 0 0 1.7071-.7071 1 1 0 0 0-1-1Zm3.539 0a1.0001 1.0001 0 1 0 .0001 2.0002 1.0001 1.0001 0 0 0-.0001-2.0002Zm2.538 1a1.0001 1.0001 0 1 1 2.0002.0001 1.0001 1.0001 0 0 1-2.0002-.0001Z"/>
</g></svg>