<svg xmlns="http://www.w3.org/2000/svg" data-laicon-version="15.0" viewBox="0 0 20 20" fill="black"><g transform="translate(-2 -2)">
  <path d="m15.6002 16.6-.9 1.8v.6c0 .3-.3.6-.6.6h-7.5c-.3 0-.6-.3-.6-.6V5c0-.3.3-.6.6-.6h7.4c.3 0 .6.3.6.6v1.2c.5-.1.9-.2 1.4-.2h.5V5c0-1.3-1.1-2.4-2.4-2.4h-7.5c-1.3 0-2.4 1.1-2.4 2.4v14c0 1.3 1.1 2.4 2.4 2.4h7.4c1.3 0 2.4-1.1 2.4-2.4v-2.4h-.8Z"/>
  <path d="M11.6001 5.2h-2.5v1.4h2.5V5.2Zm6 5.8c-.3 0-.5.2-.5.5s.2.5.5.5.5-.2.5-.5-.2-.5-.5-.5Zm-1.7002 0c-.3 0-.5.2-.5.5s.2.5.5.5.5-.2.5-.5-.2-.5-.5-.5Zm-1.6001 1.1a.5.5 0 1 0-.0001-1.0001.5.5 0 0 0 .0001 1.0001Z"/>
  <path d="m13.9998 17-.7-.8c-.7-.8-2-2.4-2-4.3 0-2.8 1.8-4.7 4.6-4.7 2.7 0 4.6 1.6 4.6 4.1 0 2.2-1.8 4.1-4.1 4.1h-1.1c-.1 0-.5 0-.8.6l-.5 1Zm2-8.3c-2 0-3.1 1.2-3.1 3.2 0 1 .5 1.9 1 2.6.4-.4.9-.6 1.5-.6h1.1c1.4 0 2.6-1.2 2.6-2.6-.1-1.6-1.2-2.6-3.1-2.6Z"/>
</g></svg>