<svg xmlns="http://www.w3.org/2000/svg" data-laicon-version="15.0" viewBox="0 0 20 20" fill="black"><g transform="translate(-2 -2)">
  <path d="m10.6013 9.8041-.0017-.0045.6841-.6778c.1076-.099.1652-.2446.1816-.3777.016-.1303-.0033-.2888-.1012-.3994l-.9215-1.0722-.0019-.0021c-.3464-.3879-.9986-.378-1.3735-.0066l-.5962.602c-.1337.1328-.231.3547-.2735.6317-.0432.281-.0323.6322.064 1.039.193.814.729 1.8558 1.874 3.0221l.0026.0025c1.1709 1.1361 2.1849 1.7002 2.9949 1.9203.8076.2194 1.4232.0985 1.7738-.1559a.1635.1635 0 0 0 .019-.0163l.6618-.6741.0088-.0108c.177-.2173.2287-.4777.2043-.7091-.024-.2276-.1236-.444-.2725-.5745l-1.1054-.9307c-.0477-.0437-.1077-.068-.161-.0814a.6262.6262 0 0 0-.1801-.0166c-.1166.0055-.26.0432-.3587.141l-.7462.7466a.803.803 0 0 1-.0433-.0168c-.0792-.033-.1939-.0911-.3347-.178-.281-.1733-.6582-.4561-1.0555-.8674-.4408-.4637-.684-.8243-.8161-1.0647-.0661-.1202-.1045-.2105-.1259-.2686Z"/>
  <path d="M6.8157 6.59C5.6152 7.8015 4.9 9.5995 4.9 11.9347c0 2.606 1.4512 4.9455 2.6314 6.4096.6685-.8176 1.7053-1.5925 3.232-1.5933h.0022l2.2882-.0098h.0038c3.3301 0 6.0409-2.7104 6.0409-6.0404 0-1.8734-.6811-3.3535-1.8442-4.3755C16.0795 5.293 14.333 4.66 12.0997 4.66c-2.3072 0-4.0845.7192-5.284 1.93ZM5.537 5.323C7.1382 3.707 9.4108 2.86 12.0997 2.86c2.5649 0 4.7679.7293 6.3429 2.1133 1.5868 1.3944 2.456 3.3847 2.456 5.7276 0 4.3235-3.5157 7.8393-7.8388 7.8404h-.0021l-2.2882.0098h-.0038c-1.1849 0-1.9042.8526-2.3286 1.6896l-.5804 1.1449-.8785-.936C5.7462 19.1371 3.1 15.8845 3.1 11.9348c0-2.7072.8367-4.9966 2.437-6.6118Z"/>
</g></svg>