<svg xmlns="http://www.w3.org/2000/svg" data-laicon-version="15.0" viewBox="0 0 20 20" fill="black"><g transform="translate(-2 -2)">
  <path d="m10.7502 8.06 4.04 2.33c.22.13.35.35.35.61s-.13.48-.35.61l-4.04 2.33a.7296.7296 0 0 1-.35.09c-.39 0-.7-.31-.7-.7V8.67a.702.702 0 0 1 1.05-.61Zm.65 3.54 1.04-.6-1.04-.6v1.2Z"/>
  <path d="M18.6702 18.72h-8.99v-.01l-2.27 2.27a.9015.9015 0 0 1-.46.2479.9016.9016 0 0 1-.9256-.3787.9012.9012 0 0 1-.1544-.4992v-1.63h-.75a1.9 1.9 0 0 1-1.9-1.9V5.25c0-1.05.85-1.9 1.9-1.9h13.55c1.05 0 1.9.85 1.9 1.9v11.57a1.9 1.9 0 0 1-1.9 1.9Zm0-13.57h-13.56c-.05 0-.1.05-.1.1v11.57c0 .05.04.1.09.1h1.67c.5 0 .9.4.9.9v.36l.86-.86c.16-.24.44-.4.75-.4h9.39c.05 0 .1-.05.1-.1V5.25c0-.05-.05-.1-.1-.1Z"/>
</g></svg>