<svg xmlns="http://www.w3.org/2000/svg" data-laicon-version="15.0" viewBox="0 0 20 20" fill="black"><g transform="translate(-2 -2)">
  <path d="M12.0035 4.2901c-4.258 0-7.7099 3.4519-7.7099 7.7099s3.4519 7.7098 7.7099 7.7098S19.7133 16.258 19.7133 12c0-4.258-3.4518-7.7099-7.7098-7.7099ZM2.4936 12c0-5.2522 4.2578-9.5099 9.5099-9.5099S21.5133 6.7478 21.5133 12c0 5.2521-4.2577 9.5098-9.5098 9.5098-5.2522 0-9.5099-4.2577-9.5099-9.5098Z"/>
  <path d="m11.1699 13.0101 3.9294-3.9294 1.2728 1.2728-5.2022 5.2022-3.542-3.5419 1.2728-1.2728 2.2692 2.2691Z"/>
</g></svg>