<svg xmlns="http://www.w3.org/2000/svg" data-laicon-version="15.0" viewBox="0 0 20 20" fill="black"><g transform="translate(-2 -2)">
  <path d="m11.1699 15.556-3.542-3.542L8.9 10.741l2.27 2.27 3.929-3.93 1.273 1.272-5.202 5.203Z"/>
  <path d="M11.9999 21.1009c-1.682 0-3.351-.102-4.96-.301-2.011-.248-3.591-1.827-3.84-3.841-.2-1.613-.301-3.282-.301-4.959 0-1.677.101-3.346.301-4.959.25-2.014 1.829-3.593 3.841-3.84 3.21-.399 6.709-.399 9.919 0 2.012.247 3.591 1.826 3.841 3.84.199 1.617.301 3.286.301 4.959 0 1.673-.102 3.342-.301 4.959a4.4094 4.4094 0 0 1-3.841 3.841c-1.609.199-3.278.301-4.96.301Zm0-16.401c-1.612 0-3.206.097-4.739.287-1.192.146-2.127 1.082-2.275 2.275-.191 1.54-.287 3.134-.287 4.738 0 1.604.097 3.197.287 4.738.148 1.192 1.083 2.128 2.275 2.274 3.074.381 6.404.381 9.479 0a2.6088 2.6088 0 0 0 2.274-2.274c.19-1.544.287-3.139.287-4.738 0-1.6-.097-3.194-.287-4.739a2.6098 2.6098 0 0 0-2.274-2.274c-1.534-.19-3.128-.287-4.74-.287Z"/>
</g></svg>