<svg xmlns="http://www.w3.org/2000/svg" data-laicon-version="15.0" viewBox="0 0 20 20" fill="black"><g transform="translate(-2 -2)">
  <path d="M8.3155 5.139 5.0992 8.2388 2.858 6.1153l1.238-1.3067.9927.9405L7.0663 3.843l1.2492 1.296ZM20.5 7.1h-10V5.3h10v1.8ZM8.3155 11.129l-3.2163 3.0998-2.2413-2.1235 1.238-1.3067.9927.9405 1.9777-1.9062 1.2492 1.2961ZM20.5 13.001h-10v-1.8h10v1.8ZM8.3153 17.1571l-3.2162 3.0985-2.2412-2.1234 1.238-1.3066.9928.9406 1.9778-1.9054 1.2488 1.2963ZM20.5 18.9049h-10v-1.8h10v1.8Z"/>
</g></svg>