<svg xmlns="http://www.w3.org/2000/svg" data-laicon-version="15.0" viewBox="0 0 20 20" fill="black"><g transform="translate(-2 -2)">
  <path d="M12.0001 4.65c-4.0593 0-7.35 3.2907-7.35 7.35 0 4.0593 3.2907 7.35 7.35 7.35 4.0593 0 7.35-3.2907 7.35-7.35 0-4.0593-3.2907-7.35-7.35-7.35ZM2.8501 12c0-5.0534 4.0966-9.15 9.15-9.15 5.0534 0 9.15 4.0966 9.15 9.15 0 5.0534-4.0966 9.15-9.15 9.15-5.0534 0-9.15-4.0966-9.15-9.15Z"/>
  <path d="M9.7499 13.7702h1.93l.02-.01c.15 0 .26.11.26.26v.86c0 .15-.11.26-.26.26h-4.1c-.15 0-.26-.11-.26-.26v-.28c0-.08.02-.16.08-.23l1.54-1.74c1.05-1.19 1.31-1.6 1.31-2.1 0-.39-.28-.62-.76-.62-.42 0-.74.25-.91.72-.05.14-.17.2-.31.17l-.87-.24c-.1-.02-.15-.08-.17-.12-.02-.04-.04-.11-.01-.21.34-1.09 1.21-1.74 2.33-1.74 1.31 0 2.19.78 2.19 1.93 0 .95-.39 1.64-1.75 3.08l-.26.27Zm5.7202-1.03 1.43 2.04h-.02c.06.08.07.17.03.25-.04.08-.12.12-.22.12h-1.01c-.1 0-.19-.04-.25-.12l-.85-1.26-.85 1.25c-.07.09-.16.13-.26.13h-.94c-.1 0-.18-.05-.22-.12-.04-.07-.04-.17.02-.25l1.43-2.04-1.34-1.92c-.06-.08-.07-.17-.03-.25.04-.08.12-.12.22-.12h1.01c.07 0 .17.02.25.12l.77 1.14.77-1.13c.07-.09.16-.13.26-.13h.94c.1 0 .18.05.22.12.04.07.04.17-.02.25l-1.34 1.92Z"/>
</g></svg>