<svg xmlns="http://www.w3.org/2000/svg" data-laicon-version="15.0" viewBox="0 0 20 20" fill="black"><g transform="translate(-2 -2)">
  <path d="M12.0001 4.65c-4.0593 0-7.35 3.2907-7.35 7.35 0 4.0593 3.2907 7.35 7.35 7.35 4.0593 0 7.35-3.2907 7.35-7.35 0-4.0593-3.2907-7.35-7.35-7.35ZM2.8501 12c0-5.0534 4.0966-9.15 9.15-9.15 5.0534 0 9.15 4.0966 9.15 9.15 0 5.0534-4.0966 9.15-9.15 9.15-5.0534 0-9.15-4.0966-9.15-9.15Z"/>
  <path d="M11.1602 10.9001c-.38 0-.74.09-1.04.26l.09-1h2.37c.15 0 .25-.11.25-.25v-.81c0-.15-.11-.25-.25-.25h-3.22c-.14 0-.24.09-.25.23l-.27 2.99c-.02.12.04.23.16.29l.46.21c.1.05.2.04.3-.02.39-.3.7-.42 1.09-.42.56 0 .8899.31.8899.84s-.3299.8-.8799.8c-.47 0-.8-.23-.96-.67-.05-.14-.17-.2-.3-.16l-.79.19c-.08.02-.13.06-.17.12-.03.06-.03.13-.01.19.32 1.05 1.17 1.68 2.2899 1.68 1.32 0 2.2401-.88 2.2401-2.15s-.81-2.09-1.98-2.09l-.02.02Zm-3.87 2.6399c-.46 0-.8.34-.8.78s.34.78.8.78.8-.34.8-.78-.34-.78-.8-.78Zm9.0699-.7899 1.34 1.91-.01.01c.05.09.06.18.02.25-.04.08-.11.12-.21.12h-.95c-.06 0-.16-.02-.24-.12l-.8-1.18-.8 1.17c-.07.09-.15.13-.25.13h-.89c-.09 0-.17-.05-.21-.12-.04-.08-.03-.17.02-.25l1.34-1.92-1.26-1.8c-.05-.09-.06-.18-.02-.25.04-.08.12-.12.21-.12h.95c.07 0 .17.02.25.12l.72 1.06.72-1.05c.09-.11.18-.13.25-.13h.89c.09 0 .17.05.21.12.04.08.03.17-.02.25l-1.26 1.8Z"/>
</g></svg>