<svg xmlns="http://www.w3.org/2000/svg" data-laicon-version="15.0" viewBox="0 0 20 20" fill="black"><g transform="translate(-2 -2)">
  <path d="M7.5919 5.4001c-1.2105 0-2.1918.9813-2.1918 2.1918 0 1.2105.9813 2.1918 2.1918 2.1918 1.2105 0 2.1918-.9813 2.1918-2.1918 0-1.2105-.9813-2.1918-2.1918-2.1918ZM3.6001 7.5919c0-2.2046 1.7872-3.9918 3.9918-3.9918s3.9918 1.7872 3.9918 3.9918-1.7872 3.9918-3.9918 3.9918-3.9918-1.7872-3.9918-3.9918Zm12.8082-2.1918c-1.2105 0-2.1918.9813-2.1918 2.1918 0 1.2105.9813 2.1918 2.1918 2.1918 1.2105 0 2.1918-.9813 2.1918-2.1918 0-1.2105-.9813-2.1918-2.1918-2.1918Zm-3.9918 2.1918c0-2.2046 1.7872-3.9918 3.9918-3.9918s3.9918 1.7872 3.9918 3.9918-1.7872 3.9918-3.9918 3.9918-3.9918-1.7872-3.9918-3.9918Zm-4.8246 6.6244c-1.2105 0-2.1918.9813-2.1918 2.1918 0 1.2105.9813 2.1918 2.1918 2.1918 1.2105 0 2.1918-.9813 2.1918-2.1918 0-1.2105-.9813-2.1918-2.1918-2.1918Zm-3.9918 2.1918c0-2.2046 1.7872-3.9918 3.9918-3.9918s3.9918 1.7872 3.9918 3.9918-1.7872 3.9918-3.9918 3.9918-3.9918-1.7872-3.9918-3.9918Zm12.8082-2.1918c-1.2105 0-2.1918.9813-2.1918 2.1918 0 1.2105.9813 2.1918 2.1918 2.1918 1.2105 0 2.1918-.9813 2.1918-2.1918 0-1.2105-.9813-2.1918-2.1918-2.1918Zm-3.9918 2.1918c0-2.2046 1.7872-3.9918 3.9918-3.9918s3.9918 1.7872 3.9918 3.9918-1.7872 3.9918-3.9918 3.9918-3.9918-1.7872-3.9918-3.9918Z"/>
</g></svg>