<svg xmlns="http://www.w3.org/2000/svg" data-laicon-version="15.0" viewBox="0 0 20 20" fill="black"><g transform="translate(-2 -2)">
  <path d="M8.5001 11.9c-1.712 0-3.1 1.3879-3.1 3.1 0 1.7121 1.388 3.1 3.1 3.1 1.166 0 2.1829-.6433 2.713-1.5987l1.5739.8734c-.8346 1.504-2.4409 2.5253-4.2869 2.5253-2.7062 0-4.9-2.1938-4.9-4.9 0-2.7062 2.1938-4.9 4.9-4.9 1.846 0 3.4523 1.0212 4.2869 2.5253l-1.5739.8734c-.5301-.9554-1.547-1.5987-2.713-1.5987Z"/>
  <path d="M15.5001 11.9c-1.7121 0-3.1 1.3879-3.1 3.1 0 1.7121 1.3879 3.1 3.1 3.1 1.7121 0 3.1-1.3879 3.1-3.1 0-1.7121-1.3879-3.1-3.1-3.1Zm-4.9 3.1c0-2.7062 2.1938-4.9 4.9-4.9 2.7062 0 4.9 2.1938 4.9 4.9 0 2.7062-2.1938 4.9-4.9 4.9-2.7062 0-4.9-2.1938-4.9-4.9Z"/>
  <path d="M12.0001 5.9c-1.7121 0-3.1 1.3879-3.1 3.1 0 .5661.151 1.0943.4142 1.5493l-1.5581.9013A4.8814 4.8814 0 0 1 7.1 9c0-2.7062 2.1938-4.9 4.9-4.9 2.7062 0 4.9 2.1938 4.9 4.9 0 .891-.2386 1.729-.6561 2.4506l-1.5581-.9013A3.0807 3.0807 0 0 0 15.1001 9c0-1.7121-1.3879-3.1-3.1-3.1Z"/>
</g></svg>