<svg xmlns="http://www.w3.org/2000/svg" data-laicon-version="15.0" viewBox="0 0 20 20" fill="black"><g transform="translate(-2 -2)">
  <path d="M12.0001 4.65c-4.0593 0-7.35 3.2907-7.35 7.35 0 4.0593 3.2907 7.35 7.35 7.35 4.0593 0 7.35-3.2907 7.35-7.35 0-4.0593-3.2907-7.35-7.35-7.35ZM2.8501 12c0-5.0534 4.0966-9.15 9.15-9.15 5.0534 0 9.15 4.0966 9.15 9.15 0 5.0534-4.0966 9.15-9.15 9.15-5.0534 0-9.15-4.0966-9.15-9.15Z"/>
  <path d="M9.645 8.7012c.0793-.0765.1648-.0904.2374-.0904h.663c.0657 0 .1343.0212.1869.0737.0525.0526.0736.1212.0736.1868v6.018c0 .0657-.0211.1343-.0736.1869-.0526.0525-.1212.0736-.1869.0736h-.9265c-.0656 0-.1342-.0211-.1868-.0736-.0525-.0526-.0737-.1212-.0737-.1869v-4.3778l-.9321.3687c-.0547.0229-.1234.0335-.1933.0061-.069-.027-.1137-.081-.1414-.1357l-.1665-.3155c-.021-.049-.0335-.1088-.0202-.1727.0135-.065.0504-.1161.0957-.1541L9.645 8.7012Zm1.9633 1.8656c.0488-.0937.1459-.12.218-.12h1.0115c.1124 0 .1956.0524.2531.1243l.0076.0095.7599 1.1261.7744-1.1358c.0575-.0719.141-.1241.2535-.1241h.9435c.0721 0 .1691.0263.218.12.0485.0931.0156.1881-.0252.2492l-.0018.0028-1.3425 1.92 1.4293 2.0418c.0408.0612.0737.1562.0252.2493-.0489.0936-.1459.1199-.218.1199h-1.0115c-.1125 0-.1956-.0524-.2531-.1243l-.0077-.0095-.8448-1.2532-.8594 1.263c-.0575.0719-.1411.124-.2535.124h-.9435c-.0721 0-.1692-.0263-.218-.1199-.0486-.0931-.0156-.1881.0252-.2493l.0019-.0028 1.4273-2.039-1.3443-1.9227c-.0407-.0612-.0737-.1562-.0251-.2493Z"/>
</g></svg>