<svg xmlns="http://www.w3.org/2000/svg" data-laicon-version="15.0" viewBox="0 0 20 20" fill="black"><g transform="translate(-2 -2)">
  <path d="M8.8075 8.5568c.5274 0 .955.4276.955.955a.955.955 0 1 1-.955-.955Zm-.0024 7.1311a.9552.9552 0 1 1-.6753 1.6303.9552.9552 0 0 1 .6753-1.6303Zm0-3.5192a.9552.9552 0 1 1-.6753 1.6303.9552.9552 0 0 1 .6753-1.6303Zm7.1143 5.3654h-4.9809v-1.6h4.9809v1.6Zm0-7.2223h-4.9809v-1.6h4.9809v1.6Zm0 3.6119h-4.9809v-1.6h4.9809v1.6Z"/>
  <path d="M5.7268 5.5057v13.9667h12.5461V5.5058h-3.3068v-1.8h3.7087c.7714 0 1.3981.6275 1.3981 1.3983v14.77c0 .7707-.6267 1.3983-1.3981 1.3983h-13.35c-.7713 0-1.398-.6276-1.398-1.3983v-14.77c0-.7708.6267-1.3984 1.398-1.3984h3.95v1.8h-3.548Z"/>
  <path d="M8.2554 3.43a.9.9 0 0 1 .9-.9h5.6888a.9.9 0 0 1 .9.9v2.55a.9005.9005 0 0 1-.5556.8315.8999.8999 0 0 1-.3444.0685H9.1554a.9.9 0 0 1-.9-.9V3.43Zm1.8.9v.75h3.8888v-.75h-3.8888Z"/>
</g></svg>