<svg xmlns="http://www.w3.org/2000/svg" data-laicon-version="15.0" viewBox="0 0 20 20" fill="black"><g transform="translate(-2 -2)">
  <path d="M12.0001 4.3C7.7474 4.3 4.3 7.7473 4.3 12s3.4474 7.7001 7.7001 7.7001c4.2526 0 7.7001-3.4475 7.7001-7.7001s-3.4475-7.7-7.7001-7.7ZM2.5 12c0-5.2467 4.2533-9.5 9.5001-9.5 5.2468 0 9.5001 4.2533 9.5001 9.5 0 5.2468-4.2533 9.5001-9.5001 9.5001C6.7533 21.5001 2.5 17.2468 2.5 12Z"/>
  <path d="M12.9001 11.4804V6.9129h-1.8v5.6067l3.6502 2.1075.9-1.5588-2.7502-1.5879Z"/>
</g></svg>