<svg xmlns="http://www.w3.org/2000/svg" data-laicon-version="15.0" viewBox="0 0 20 20" fill="black"><g transform="translate(-2 -2)">
  <path d="M6.9897 8.0928C7.7472 6.1291 9.7965 4.75 12.2168 4.75c2.1258 0 4.5641 1.1113 5.3417 3.3796.3274.7794.3557 1.3915.3581 2.0784 2.4297.4124 4.1343 2.4264 3.8961 4.9273l-.0008.0089c-.2593 2.4637-2.5492 4.1058-5.0951 4.1058h-8.2c-3.047 0-5.8012-1.9323-6.2878-4.852l-.0019-.0111c-.4781-3.1082 1.848-5.7503 4.7626-6.294Zm1.7099.5722c-.0654.399-.3054.6707-.5179.83-.1767.1326-.4308.2459-.4598.2588l-.0027.0012-.1261.063-.1395.0215c-2.1954.3378-3.756 2.2456-3.4482 4.2681.3161 1.8776 2.1606 3.3424 4.5114 3.3424h8.2c1.8521 0 3.1614-1.1554 3.3045-2.4899.1458-1.5558-.937-2.8548-2.686-3.0138l-.1691-.0154-.1519-.0759c-.3833-.1917-.8975-.6466-.8975-1.405 0-.8003-.0072-1.132-.2272-1.6455l-.0148-.0344-.0118-.0355C15.4271 7.4271 13.8798 6.55 12.2168 6.55c-1.7138 0-3.027.9466-3.5172 2.115Z"/>
</g></svg>