<svg xmlns="http://www.w3.org/2000/svg" data-laicon-version="15.0" viewBox="0 0 20 20" fill="black"><g transform="translate(-2 -2)">
  <path d="M21.7999 15.1491c-.3 2.5-2.6 4.1-5.1 4.1h-.7v-1.8h.7c1.9 0 3.2-1.2 3.3-2.5.1-1.6-.9-2.9-2.7-3h-.2l-.1-.1c-.4-.2-.9-.6-.9-1.4 0-.8 0-1.1-.2-1.6-.4-1.3-2-2.2-3.6-2.2-1.7 0-3 .9-3.5 2.1-.1.4-.3.7-.5.8-.2.1-.4.2-.5.3l-.1.1h-.1c-2.2.3-3.8 2.2-3.4 4.3.3 1.7 1.9 3.1 4 3.3v1.7c-2.8-.2-5.3-2.1-5.8-4.8-.7-3.2 1.7-5.8 4.6-6.4.8-2 2.8-3.3 5.2-3.3 2.1 0 4.6 1.1 5.3 3.4.3.8.4 1.4.4 2.1 2.4.4 4.2 2.4 3.9 4.9Z"/>
  <path d="m11.1 15.2492-1.9 1.9-1.2-1.3 4-4 4 4-1.3 1.3-1.8-1.9v5.4h-1.8v-5.4Z"/>
</g></svg>