<svg xmlns="http://www.w3.org/2000/svg" data-laicon-version="16.12" viewBox="0 0 20 20" fill="black"><g transform="translate(-2 -2)">
  <path d="m12.127 7.782-2 8 1.746.436 2-8-1.746-.436ZM9.728 9.78 8.272 8.72 5.887 12l2.385 3.28 1.456-1.06L8.113 12l1.615-2.22Zm6-1.06-1.456 1.06L15.887 12l-1.615 2.22 1.456 1.06L18.113 12l-2.385-3.28Z"/>
  <path d="M6 3.1A2.9 2.9 0 0 0 3.1 6v12A2.9 2.9 0 0 0 6 20.9h12a2.9 2.9 0 0 0 2.9-2.9V6A2.9 2.9 0 0 0 18 3.1H6ZM4.9 6A1.1 1.1 0 0 1 6 4.9h12A1.1 1.1 0 0 1 19.1 6v12a1.1 1.1 0 0 1-1.1 1.1H6A1.1 1.1 0 0 1 4.9 18V6Z"/>
</g></svg>