<svg xmlns="http://www.w3.org/2000/svg" data-laicon-version="15.0" viewBox="0 0 20 20" fill="black"><g transform="translate(-2 -2)">
  <path d="M7.8477 3.9746a.9.9 0 0 1 .9-.9h6.522a.9.9 0 0 1 .9.9.9.9 0 0 1-.9.9h-6.522a.9.9 0 0 1-.9-.9Zm8.4567 9.4586h-8.591v-1.8h8.591v1.8Z"/>
  <path d="M9.0867 3.975a.9.9 0 0 1 .9-.9h4.027a.9.9 0 0 1 .9.9v4.572l6.0366 10.2685c.5502.9347-.1265 2.1095-1.2066 2.1095H4.2567c-1.0827 0-1.756-1.1761-1.2066-2.1095L9.0867 8.5471V3.975Zm1.8.9v3.917a.9008.9008 0 0 1-.1241.4561L4.9561 19.125h14.0882l-5.8065-9.8769a.9008.9008 0 0 1-.1241-.456V4.875h-2.227Z"/>
</g></svg>