<svg xmlns="http://www.w3.org/2000/svg" data-laicon-version="15.0" viewBox="0 0 20 20" fill="black"><g transform="translate(-2 -2)">
  <path d="M2.9497 3.05a.9.9 0 0 1 .9-.9h12.99a.9.9 0 0 1 .9.9V6.5h-1.8V3.95h-11.19v12.78h2.2504v1.8H3.8497a.9.9 0 0 1-.9-.9V3.05Z"/>
  <path d="M6.27 6.36a.9.9 0 0 1 .9-.9h12.98a.9.9 0 0 1 .9.9l.0001 14.59a.9.9 0 0 1-.9.9h-12.98a.9.9 0 0 1-.9-.9V6.36Zm1.8.9v12.79h11.1801L19.25 7.26H8.07Z"/>
  <path d="M14.1296 10.1899h-4.53v-1.6h4.53v1.6Zm0 2.4001h-4.53v-1.6h4.53v1.6Z"/>
</g></svg>