<svg xmlns="http://www.w3.org/2000/svg" data-laicon-version="15.0" viewBox="0 0 20 20" fill="black"><g transform="translate(-2 -2)">
  <path d="M13.1582 15.7322V8.2678h1.2v7.4644h-1.2Z"/>
  <path d="M11.478 8.8853h2.7817c1.0395 0 1.8824.8427 1.8824 1.8824 0 .3904-.1189.753-.3224 1.0537.3903.3449.6364.8492.6364 1.4109 0 1.0396-.8428 1.8824-1.8824 1.8824H11.478V8.8853Zm1.3 3.7647v1.1647h1.7957a.5825.5825 0 0 0 0-1.1647H12.778Zm0-1.3h1.4817a.5824.5824 0 0 0 0-1.1647H12.778V11.35ZM5.731 7.0306V4.7529h1.8v2.2777h-1.8Zm0 4.0722V8.8251h1.8v2.2777h-1.8Zm0 4.0721v-2.2777h1.8v2.2777h-1.8Zm0 4.0722v-2.2777h1.8v2.2777h-1.8Z"/>
  <path d="M4.0998 5.653v12.694h15.8V5.653h-15.8Zm-1.8-.4c0-.7731.6266-1.4 1.4-1.4h16.6c.7732 0 1.4.6267 1.4 1.4v13.494c0 .773-.6266 1.4-1.4 1.4h-16.6c-.7734 0-1.4-.627-1.4-1.4V5.253Z"/>
</g></svg>