<svg xmlns="http://www.w3.org/2000/svg" data-laicon-version="15.0" viewBox="0 0 20 20" fill="black"><g transform="translate(-2 -2)">
  <path d="M3.9001 6.0187v11.9625h16.2V6.0187h-16.2Zm-1.8-.4c0-.773.6266-1.4 1.4-1.4h17c.7734 0 1.4.627 1.4 1.4v12.7625c0 .773-.6266 1.4-1.4 1.4h-17c-.7734 0-1.4-.627-1.4-1.4V5.6187Z"/>
  <path d="M5.7695 7.38V5.1188h1.8V7.38h-1.8Zm0 3.8337V8.9525h1.8v2.2612h-1.8Zm0 3.8338v-2.2612h1.8v2.2612h-1.8Zm0 3.8337V16.62h1.8v2.2612h-1.8Zm5.0787-9.1636H9.5401a.2276.2276 0 0 0-.2276.2277v3.5374c0 .1255.1018.2276.2276.2276h.6116a.2276.2276 0 0 0 .2277-.2276v-.9645h.4688c.8016 0 1.4274-.6231 1.4274-1.4003 0-.777-.6258-1.4003-1.4274-1.4003Zm-.4689 1.788v-.7752h.4688c.2044 0 .3605.1604.3605.3875 0 .2273-.1562.3877-.3605.3877h-.4688Zm3.2485-.7802c-.7731 0-1.3949.6762-1.3949 1.5304 0 .8538.6218 1.5302 1.3949 1.5302.2889 0 .5261-.0745.711-.2077a.1673.1673 0 0 0 .1635.1319h.6783a.1671.1671 0 0 0 .1672-.1671v-2.5746a.1673.1673 0 0 0-.1672-.1673h-.6783a.1673.1673 0 0 0-.1635.132c-.1849-.1333-.4221-.2078-.711-.2078Zm.1626 2.0913c-.1638 0-.2984-.0554-.3918-.1488-.0933-.0933-.1529-.2318-.1529-.4121 0-.1804.0597-.3191.1529-.4123.0934-.0934.228-.1488.3918-.1488.1638 0 .2984.0554.3918.1488.0933.0932.1529.2319.1529.4123 0 .1803-.0596.3188-.1529.4121-.0934.0934-.228.1488-.3918.1488ZM17.1181 14.7965a.2122.2122 0 0 0 .197-.1338l1.4421-3.6327a.1672.1672 0 0 0-.1553-.2289H17.91a.212.212 0 0 0-.197.1338l-.5323 1.3407-.5509-1.343a.2122.2122 0 0 0-.1961-.1316h-.6917a.1673.1673 0 0 0-.1547.2307l1.0607 2.5857-.3773.9503a.1672.1672 0 0 0 .1554.2288h.692Z"/>
</g></svg>