<svg xmlns="http://www.w3.org/2000/svg" data-laicon-version="15.0" viewBox="0 0 20 20" fill="black"><g transform="translate(-2 -2)">
  <path d="M3.8 6.2h16.4v3.008c-1.1127.4388-1.9 1.5235-1.9 2.792 0 1.2685.7873 2.3532 1.9 2.7919V17.8H3.8v-3.0081C4.9127 14.3532 5.7 13.2685 5.7 12s-.7873-2.3532-1.9-2.792V6.2ZM22 5.4c0-.5523-.4477-1-1-1H3c-.5523 0-1 .4477-1 1v5.4h.7c.6627 0 1.2.5373 1.2 1.2s-.5373 1.2-1.2 1.2H2v5.4c0 .5523.4477 1 1 1h18c.5523 0 1-.4477 1-1v-5.4h-.7c-.6627 0-1.2-.5373-1.2-1.2s.5373-1.2 1.2-1.2h.7V5.4Z"/>
  <path d="M7.0322 8.0876v-1.3h1.5v1.3h-1.5Zm0 2.2803v-1.3h1.5v1.3h-1.5Zm0 2.2803v-1.2999h1.5v1.2999h-1.5Zm0 2.2804v-1.3001h1.5v1.3001h-1.5Zm0 2.2803v-1.3001h1.5v1.3001h-1.5Z"/>
</g></svg>