<svg xmlns="http://www.w3.org/2000/svg" data-laicon-version="15.0" viewBox="0 0 20 20" fill="black"><g transform="translate(-2 -2)">
  <path d="m16.6257 10.2744-4.45 4.46-.9911-.9888 4.45-4.46.9911.9888ZM12.1003 9.95a.25.25 0 1 0 0 .5.25.25 0 0 0 0-.5Zm-1.55.25c0-.856.6939-1.55 1.55-1.55.856 0 1.55.694 1.55 1.55 0 .856-.694 1.55-1.55 1.55-.8561 0-1.55-.694-1.55-1.55Zm5.1599 3.36a.25.25 0 1 0 0 .5.25.25 0 0 0 0-.5Zm-1.55.25c0-.8561.694-1.55 1.55-1.55.8561 0 1.55.6939 1.55 1.55 0 .856-.6939 1.55-1.55 1.55-.856 0-1.55-.694-1.55-1.55ZM5.731 7.0306V4.7529h1.8v2.2777h-1.8Zm0 4.0722V8.8251h1.8v2.2777h-1.8Zm0 4.0721v-2.2777h1.8v2.2777h-1.8Zm0 4.0722v-2.2777h1.8v2.2777h-1.8Z"/>
  <path d="M4.0998 5.653v12.694h15.8V5.653h-15.8Zm-1.8-.4c0-.7732.6268-1.4 1.4-1.4h16.6c.7732 0 1.4.6267 1.4 1.4v13.494c0 .773-.6266 1.4-1.4 1.4h-16.6c-.7732 0-1.4-.6268-1.4-1.4V5.253Z"/>
</g></svg>