<svg xmlns="http://www.w3.org/2000/svg" data-laicon-version="15.0" viewBox="0 0 20 20" fill="black"><g transform="translate(-2 -2)">
  <path d="m12.2301 12.5899-.4 2.3201 2.07-1.1 1.72.8999.36.2001-.4-2.3201 1.39-1.35.28-.29-2.31-.33-1.03-2.11-1.04 2.11-1.92.2701-.39.0599 1.67 1.64ZM5.73 8.8299h1.8v2.27h-1.8v-2.27Zm0 4.0701h1.8v2.27h-1.8V12.9Z"/>
  <path d="M3.6998 3.85h16.6c.77 0 1.4.63 1.4 1.4v13.4999c0 .77-.63 1.4001-1.4 1.4001h-16.6c-.77 0-1.4-.6301-1.4-1.4001v-13.5c0-.77.63-1.4 1.4-1.4Zm3.83 14.4999h12.37v-12.7h-12.37v1.38h-1.8V5.65h-1.63v12.7h1.63v-1.38h1.8v1.38Z"/>
</g></svg>