<svg xmlns="http://www.w3.org/2000/svg" data-laicon-version="18.4" viewBox="0 0 20 20" fill="black"><g transform="translate(-2 -2)">
  <path d="M11.062 7.614a1.095 1.095 0 0 1 1.79-.125l.088.125 2.337 3.898a.074.074 0 0 0 .1.026l3.074-1.787c.835-.486 1.844.27 1.613 1.208l-1.69 6.883a.9.9 0 0 1-.874.684h-11a.9.9 0 0 1-.874-.684l-1.69-6.883c-.23-.938.778-1.693 1.613-1.208l3.073 1.787c.035.02.08.008.1-.026l2.34-3.898Zm-.795 4.824a1.874 1.874 0 0 1-2.55.656l-1.638-.952 1.127 4.585h9.588l1.126-4.585-1.637.952a1.874 1.874 0 0 1-2.549-.655L12 9.547l-1.733 2.89ZM3.43 7.352a1.2 1.2 0 1 1 0 2.4 1.2 1.2 0 0 1 0-2.4Zm17.144-.002a1.2 1.2 0 1 1 0 2.4 1.2 1.2 0 0 1 0-2.4Zm-8.573-3.1a1.2 1.2 0 1 1 0 2.401 1.2 1.2 0 0 1 0-2.401Z"/>
</g></svg>