<svg xmlns="http://www.w3.org/2000/svg" data-laicon-version="15.0" viewBox="0 0 20 20" fill="black"><g transform="translate(-2 -2)">
  <path d="M10.3 2.6409a3.4 3.4 0 0 1 3.4 0l5.5385 3.1976a3.4 3.4 0 0 1 1.7 2.9445v6.3953a3.3997 3.3997 0 0 1-1.7 2.9444l-.0001.0001L13.7 21.3203a3.3998 3.3998 0 0 1-3.4 0l-5.5385-3.1976a3.3999 3.3999 0 0 1-1.7-2.9444V8.783a3.4 3.4 0 0 1 1.7-2.9445L10.3 2.6409Zm2.5 1.5588a1.6 1.6 0 0 0-1.6 0L5.6615 7.3973a1.6 1.6 0 0 0-.8 1.3857v6.3953c0 .5715.305 1.0997.8 1.3856L11.2 19.7615a1.6 1.6 0 0 0 1.6 0l5.5385-3.1976.0001-.0001a1.5997 1.5997 0 0 0 .7999-1.3855V8.783c0-.5716-.305-1.0998-.8-1.3857L12.8 4.1997Z"/>
  <path d="M12.0001 11.0807a.9.9 0 0 1 .9.9v8.8953a.9.9 0 0 1-1.8 0v-8.8953a.9.9 0 0 1 .9-.9Z"/>
  <path d="M20.4832 7.083a.8999.8999 0 0 1-.3294 1.2294l-7.7036 4.4477a.8999.8999 0 0 1-1.2294-.3294.9.9 0 0 1 .3294-1.2294l7.7036-4.4477a.9.9 0 0 1 1.2294.3294Z"/>
  <path d="M3.5172 7.0832a.9.9 0 0 1 1.2294-.3294l7.7032 4.4475a.8999.8999 0 0 1 .3294 1.2294.8999.8999 0 0 1-1.2294.3294L3.8466 8.3126a.9.9 0 0 1-.3294-1.2294Z"/>
</g></svg>