<svg xmlns="http://www.w3.org/2000/svg" data-laicon-version="15.3" viewBox="0 0 20 20" fill="black"><g transform="translate(-2 -2)">
  <path d="M5.1 5a2.9 2.9 0 1 1 3.8 2.758v4.741a3.385 3.385 0 0 1 1.6-.399H14a1.1 1.1 0 0 0 1.1-1.1V7.758a2.901 2.901 0 1 1 1.8 0V11a2.9 2.9 0 0 1-2.9 2.9h-3.5a1.6 1.6 0 0 0-1.6 1.6v.742A2.901 2.901 0 0 1 8 21.9a2.9 2.9 0 0 1-.9-5.658V7.758A2.901 2.901 0 0 1 5.1 5ZM8 3.9a1.1 1.1 0 1 0 0 2.2 1.1 1.1 0 0 0 0-2.2Zm8 0a1.1 1.1 0 1 0 0 2.2 1.1 1.1 0 0 0 0-2.2ZM6.9 19a1.1 1.1 0 1 0 2.2 0 1.1 1.1 0 0 0-2.2 0Z"/>
</g></svg>