<svg xmlns="http://www.w3.org/2000/svg" data-laicon-version="15.0" viewBox="0 0 20 20" fill="black"><g transform="translate(-2 -2)">
  <path d="m16.7284 16.3097-8.809-9.861 1.3424-1.1992 8.809 9.861-1.3424 1.1992Z"/>
  <path d="m18.0633 9.214-8.763 9.1921-1.3027-1.242 8.7629-9.192 1.3028 1.242Z"/>
  <path d="M17.5308 15.2761v-6.237h1.8v6.237h-1.8Zm-.8042-7.1243-7.71-2.386.5321-1.7195 7.71 2.386-.5321 1.7195ZM6.104 16.7411v-9.894h1.8v9.894h-1.8Zm11.3074 1.6038-7.956 2.258-.4915-1.7316 7.956-2.258.4915 1.7316Z"/>
  <path d="M7.238 3.761c-.6324 0-1.145.5127-1.145 1.145 0 .6324.5126 1.145 1.145 1.145.6323 0 1.145-.5126 1.145-1.145 0-.6323-.5127-1.145-1.145-1.145ZM4.293 4.906c0-1.6264 1.3185-2.945 2.945-2.945 1.6264 0 2.945 1.3186 2.945 2.945 0 1.6265-1.3186 2.945-2.945 2.945-1.6265 0-2.945-1.3185-2.945-2.945Zm2.945 13.1451c-.6324 0-1.145.5126-1.145 1.145 0 .6323.5126 1.145 1.145 1.145.6323 0 1.145-.5127 1.145-1.145 0-.6324-.5127-1.145-1.145-1.145Zm-2.945 1.145c0-1.6265 1.3185-2.945 2.945-2.945 1.6264 0 2.945 1.3185 2.945 2.945 0 1.6265-1.3186 2.945-2.945 2.945-1.6265 0-2.945-1.3185-2.945-2.945ZM18.4309 7.008a.566.566 0 1 0 0 1.132.566.566 0 0 0 0-1.132Zm-2.366.566c0-1.3066 1.0593-2.366 2.366-2.366 1.3067 0 2.366 1.0594 2.366 2.366 0 1.3068-1.0593 2.366-2.366 2.366-1.3067 0-2.366-1.0592-2.366-2.366Zm2.366 8.6011a.566.566 0 1 0 0 1.132.566.566 0 0 0 0-1.132Zm-2.366.566c0-1.3067 1.0593-2.366 2.366-2.366 1.3067 0 2.366 1.0593 2.366 2.366 0 1.3067-1.0593 2.366-2.366 2.366-1.3067 0-2.366-1.0593-2.366-2.366Z"/>
</g></svg>