<svg xmlns="http://www.w3.org/2000/svg" data-laicon-version="15.0" viewBox="0 0 20 20" fill="black"><g transform="translate(-2 -2)">
  <path d="M5.9316 5.612c-.255.234-.278.381-.278.4319s.023.1979.278.432c.2557.2346.6755.4874 1.2701.7182 1.1836.4595 2.8798.763 4.7985.763 1.9187 0 3.615-.3035 4.7985-.763.5947-.2308 1.0145-.4836 1.2702-.7182.255-.2341.2781-.3811.2781-.432s-.0231-.1979-.2781-.432c-.2557-.2347-.6755-.4874-1.2702-.7182-1.1835-.4595-2.8798-.763-4.7985-.763-1.9187 0-3.6149.3035-4.7985.763-.5946.2308-1.0144.4835-1.2701.7182Zm.6187-2.3963c1.4393-.5587 3.3664-.885 5.4499-.885 2.0836 0 4.0107.3262 5.4499.885.7168.2782 1.3582.6317 1.8359 1.0701.4784.439.861 1.0321.861 1.758 0 .726-.3826 1.3191-.861 1.7582-.4777.4384-1.1191.7919-1.8359 1.0701-1.4392.5587-3.3663.885-5.4499.885-2.0835 0-4.0106-.3263-5.4499-.885-.7167-.2782-1.3582-.6317-1.8359-1.0701-.4783-.439-.8609-1.0321-.8609-1.7581s.3826-1.319.861-1.758c.4776-.4385 1.1191-.792 1.8358-1.0702Z"/>
  <path d="M5.6535 6.04v11.9132c0 .0509.023.1979.278.432.2558.2347.6756.4874 1.2702.7182 1.1836.4595 2.8798.763 4.7985.763 1.9187 0 3.615-.3035 4.7985-.763.5947-.2308 1.0145-.4835 1.2702-.7182.255-.2341.2781-.3811.2781-.432V6.04h1.8v11.9132c0 .726-.3826 1.319-.861 1.7581-.4777.4384-1.1191.7919-1.8359 1.0701-1.4392.5587-3.3663.885-5.4499.885-2.0835 0-4.0106-.3263-5.4499-.885-.7167-.2782-1.3582-.6317-1.8359-1.0701-.4783-.4391-.8609-1.0321-.8609-1.7581V6.04h1.8Z"/>
  <path d="M4.7124 11.6812c-.4785-.4419-.8589-1.0369-.8589-1.763h1.8c0 .0554.0253.2053.2802.4407.2558.2364.6755.4906 1.2698.7228 1.183.4621 2.8786.7674 4.7967.7674 1.9182 0 3.6137-.3053 4.7967-.7674.5943-.2322 1.0141-.4864 1.2699-.7228.2549-.2354.2802-.3853.2802-.4408h1.8c0 .7262-.3804 1.3212-.8589 1.7631-.4775.4411-1.1191.7969-1.8362 1.0771-1.4398.5624-3.3676.8908-5.4517.8908-2.084 0-4.0119-.3284-5.4516-.8908-.7172-.2802-1.3587-.636-1.8362-1.0771Zm.0061 4.0215c-.478-.4334-.865-1.0228-.865-1.7483h1.8c0 .0417.0187.1833.274.4148.2554.2315.6754.4814 1.2708.7097 1.1846.4542 2.8821.7542 4.8019.7542s3.6173-.3 4.802-.7542c.5954-.2283 1.0154-.4782 1.2708-.7097.2553-.2315.274-.3731.274-.4148h1.8c0 .7255-.387 1.3149-.8651 1.7483-.4779.4333-1.1192.7823-1.8352 1.0568-1.4382.5515-3.364.8736-5.4465.8736-2.0824 0-4.0083-.3221-5.4464-.8736-.716-.2745-1.3573-.6235-1.8353-1.0568Z"/>
  <path d="M6.7103 9.25a.6117.6117 0 1 0 0 1.2234.6117.6117 0 0 0 0-1.2234Zm0 3.8478a.6117.6117 0 1 0 0 1.2235.6117.6117 0 0 0 0-1.2235Zm0 4.0377a.6117.6117 0 1 0 0 1.2235.6117.6117 0 0 0 0-1.2235Z"/>
</g></svg>