<svg xmlns="http://www.w3.org/2000/svg" data-laicon-version="15.0" viewBox="0 0 20 20" fill="black"><g transform="translate(-2 -2)">
  <path d="M7.5887 17.7111c-.6014 0-1.089.4875-1.089 1.089 0 .6014.4876 1.089 1.089 1.089.6014 0 1.089-.4876 1.089-1.089 0-.6015-.4876-1.089-1.089-1.089Zm-2.889 1.089c0-1.5956 1.2935-2.889 2.889-2.889 1.5956 0 2.8891 1.2934 2.8891 2.889 0 1.5955-1.2935 2.889-2.889 2.889-1.5956 0-2.889-1.2935-2.889-2.889ZM7.389 4.085c-.6014 0-1.089.4876-1.089 1.089 0 .6015.4876 1.089 1.089 1.089.6014 0 1.089-.4875 1.089-1.089 0-.6014-.4876-1.089-1.089-1.089ZM4.5 5.174c0-1.5955 1.2934-2.889 2.889-2.889 1.5956 0 2.889 1.2935 2.889 2.889 0 1.5956-1.2934 2.889-2.889 2.889-1.5956 0-2.889-1.2934-2.889-2.889Z"/>
  <path d="M15.0938 6.074h-5.21v-1.8h5.21c2.4483 0 4.9663 1.6226 5.0938 4.1516.132 2.6108-2.2119 4.5545-4.8358 4.5545h-6.216c-.5038 0-.702.3334-.702.503v3.327h-1.8v-3.327c0-1.3805 1.2358-2.303 2.502-2.303h6.216c1.848 0 3.1062-1.3184 3.0381-2.6636v-.0001c-.0625-1.241-1.4365-2.4423-3.2961-2.4423Z"/>
</g></svg>