<svg xmlns="http://www.w3.org/2000/svg" data-laicon-version="15.0" viewBox="0 0 20 20" fill="black"><g transform="translate(-2 -2)">
  <path d="M17.3562 8.6c.6263 0 1.134-.5076 1.134-1.134 0-.6262-.5077-1.134-1.134-1.134-.6262 0-1.134.5078-1.134 1.134 0 .6264.5078 1.134 1.134 1.134ZM12.653 20.7891c.6263 0 1.134-.5077 1.134-1.134 0-.6263-.5077-1.134-1.134-1.134-.6262 0-1.134.5077-1.134 1.134 0 .6263.5078 1.134 1.134 1.134Zm-8.4082-8.569c.6263 0 1.134-.5077 1.134-1.134 0-.6263-.5077-1.134-1.134-1.134-.6262 0-1.134.5077-1.134 1.134 0 .6263.5078 1.134 1.134 1.134ZM5.3633 17.6001a.763.763 0 1 0 0 1.526.763.763 0 0 0 0-1.526Zm-2.563.763c0-1.4155 1.1475-2.563 2.563-2.563 1.4155 0 2.563 1.1475 2.563 2.563 0 1.4155-1.1475 2.563-2.563 2.563-1.4155 0-2.563-1.1475-2.563-2.563Zm6.563-14.363a.763.763 0 1 0 0 1.526.763.763 0 0 0 0-1.526Zm-2.563.763c0-1.4155 1.1475-2.563 2.563-2.563 1.4155 0 2.563 1.1475 2.563 2.563 0 1.4155-1.1475 2.563-2.563 2.563-1.4155 0-2.563-1.1475-2.563-2.563Zm11.8628 9.337a.763.763 0 1 0 0 1.526.763.763 0 0 0 0-1.526Zm-2.563.763c0-1.4155 1.1475-2.563 2.563-2.563 1.4155 0 2.563 1.1475 2.563 2.563 0 1.4155-1.1475 2.563-2.563 2.563-1.4155 0-2.563-1.1475-2.563-2.563Zm-4.437-2.963a.763.763 0 1 0 0 1.526.763.763 0 0 0 0-1.526Zm-2.563.763c0-1.4155 1.1475-2.563 2.563-2.563 1.4155 0 2.563 1.1475 2.563 2.563 0 1.4155-1.1475 2.563-2.563 2.563-1.4155 0-2.563-1.1475-2.563-2.563Z"/>
  <path d="m10.726 6.2575 1.052 4.46-1.7519.4132-1.052-4.46 1.7519-.4132ZM17.2871 15.5l-4.354-1.309.5183-1.7238 4.354 1.309-.5183 1.7238Zm-6.4503-1.0077-3.601 3.38-1.2319-1.3124 3.601-3.38 1.2319 1.3124Z"/>
</g></svg>