<svg xmlns="http://www.w3.org/2000/svg" data-laicon-version="15.0" viewBox="0 0 20 20" fill="black"><g transform="translate(-2 -2)">
  <path d="M4.2439 5.8672v10.1224a.27.27 0 0 0 .0526.0451.2315.2315 0 0 0 .0096.0061H19.733a.312.312 0 0 0 .0234-.0383V5.8678a.4247.4247 0 0 0-.0301-.0358l-.0019-.002H4.2862a.2288.2288 0 0 0-.0424.0372Zm-1.25-1.2959c.2807-.2755.7196-.5413 1.2494-.5413H19.884c.2965 0 .5426.1113.6999.2033.1711.1.3244.2284.4522.364.2226.2361.5204.6606.5204 1.1813v10.2737c0 .4646-.2254.884-.455 1.1594-.2179.2615-.6399.6291-1.2175.6291H4.2433c-.476 0-.9069-.2423-1.1908-.5-.2936-.2664-.6087-.7125-.6087-1.2885V5.7786c0-.5127.2796-.942.55-1.2073Z"/>
  <path d="M11.1001 20.5788v-3.6434h1.8v3.6434h-1.8Z"/>
  <path d="M16.02 20.8242H8.0166v-1.8H16.02v1.8Z"/>
</g></svg>