<svg xmlns="http://www.w3.org/2000/svg" data-laicon-version="18.1" viewBox="0 0 20 20" fill="black"><g transform="translate(-2 -2)">
  <path d="M15.5 5.6A6.4 6.4 0 1 1 12 17.357a6.4 6.4 0 1 1 0-10.716A6.37 6.37 0 0 1 15.5 5.6Zm-7 1.8a4.6 4.6 0 1 0 2.085 8.699A6.373 6.373 0 0 1 9.1 12c0-1.56.558-2.99 1.485-4.1A4.58 4.58 0 0 0 8.5 7.4Zm7 0c-.751 0-1.46.181-2.086.5A6.374 6.374 0 0 1 14.9 12c0 1.56-.559 2.988-1.486 4.099A4.6 4.6 0 1 0 15.5 7.4ZM12 9.017A4.58 4.58 0 0 0 10.9 12a4.58 4.58 0 0 0 1.1 2.982A4.58 4.58 0 0 0 13.1 12 4.58 4.58 0 0 0 12 9.017Z"/>
</g></svg>