<svg xmlns="http://www.w3.org/2000/svg" data-laicon-version="15.0" viewBox="0 0 20 20" fill="black"><g transform="translate(-2 -2)">
  <path d="M4.3 19.1V8.4h4.1V4.3h8.1v9.1c.6 0 1.2.1 1.8.3V3.9c0-.8-.6-1.4-1.4-1.4H7.1L2.5 7.1v12.4c0 .8.6 1.4 1.4 1.4h8c-.5-.5-1-1.1-1.4-1.8H4.3ZM6.6 5.6v1h-1l1-1Zm14.9 12.2c-1-1.9-2.9-3.2-5-3.2s-4 1.3-5 3.2l-.2.4.2.4c1 1.9 2.9 3.2 5 3.2s4-1.3 5-3.2l.2-.4-.2-.4Zm-5 2.4c-1.3 0-2.5-.7-3.4-2 .8-1.3 2.1-2 3.4-2 1.3 0 2.5.7 3.4 2-.8 1.2-2.1 2-3.4 2Zm1.5-2c0 .8-.7 1.5-1.5 1.5S15 19 15 18.2s.7-1.5 1.5-1.5 1.5.7 1.5 1.5Z"/>
</g></svg>