<svg xmlns="http://www.w3.org/2000/svg" data-laicon-version="16.11" viewBox="0 0 20 20" fill="black"><g transform="translate(-2 -2)">
  <path d="M6.03 4.68a1.35 1.35 0 1 0 0 2.7 1.35 1.35 0 0 0 0-2.7Zm5.97 0a1.35 1.35 0 1 0 0 2.7 1.35 1.35 0 0 0 0-2.7ZM10.65 12a1.35 1.35 0 1 1 2.7 0 1.35 1.35 0 0 1-2.7 0ZM12 16.62a1.35 1.35 0 1 0 0 2.7 1.35 1.35 0 0 0 0-2.7Zm4.62-10.59a1.35 1.35 0 1 1 2.7 0 1.35 1.35 0 0 1-2.7 0Zm1.35 4.62a1.35 1.35 0 1 0 0 2.7 1.35 1.35 0 0 0 0-2.7ZM4.68 12a1.35 1.35 0 1 1 2.7 0 1.35 1.35 0 0 1-2.7 0Zm0 5.97a1.35 1.35 0 1 0 2.7 0 1.35 1.35 0 0 0-2.7 0Zm11.94 0a1.35 1.35 0 1 0 2.7 0 1.35 1.35 0 0 0-2.7 0Z"/>
</g></svg>