<svg xmlns="http://www.w3.org/2000/svg" data-laicon-version="16.6" viewBox="0 0 20 20" fill="black"><g transform="translate(-2 -2)">
  <path d="M9.5 7.35a1.35 1.35 0 1 0 0-2.699 1.35 1.35 0 0 0 0 2.7Zm5 0a1.35 1.35 0 1 0 0-2.699 1.35 1.35 0 0 0 0 2.7Zm-3.65 4.652A1.35 1.35 0 1 1 8.15 12a1.35 1.35 0 0 1 2.7.002Zm3.65 1.348a1.35 1.35 0 1 0 0-2.699 1.35 1.35 0 0 0 0 2.7Zm-3.65 4.652A1.35 1.35 0 1 1 8.15 18a1.35 1.35 0 0 1 2.7 0Zm3.65 1.348a1.35 1.35 0 1 0 0-2.699 1.35 1.35 0 0 0 0 2.7Z"/>
</g></svg>