<svg xmlns="http://www.w3.org/2000/svg" data-laicon-version="15.0" viewBox="0 0 20 20" fill="black"><g transform="translate(-2 -2)">
  <path d="M12.1001 4.3c-4.253 0-7.7 3.447-7.7 7.7 0 4.2529 3.447 7.7 7.7 7.7 4.252 0 7.7-3.4471 7.7-7.7s-3.448-7.7-7.7-7.7Zm-9.5 7.7c0-5.247 4.253-9.5 9.5-9.5 5.246 0 9.5 4.2529 9.5 9.5s-4.254 9.5-9.5 9.5c-5.247 0-9.5-4.2529-9.5-9.5Z"/>
  <path d="M10.6864 6.232c-.5317 1.4324-.8786 3.4714-.8786 5.768 0 2.2965.3469 4.3356.8786 5.7681.2671.7196.5636 1.2392.8473 1.5625.2851.3249.4788.3694.5661.3694.0873 0 .2809-.0445.566-.3694.2837-.3233.5802-.8429.8474-1.5625.5316-1.4325.8786-3.4716.8786-5.7681 0-2.2965-.347-4.3356-.8786-5.768-.2672-.7197-.5637-1.2393-.8474-1.5626-.2851-.3249-.4787-.3694-.566-.3694-.0873 0-.281.0446-.5661.3694-.2837.3233-.5802.8429-.8473 1.5625Zm-.5056-2.7499c.4787-.5454 1.1248-.9821 1.919-.9821s1.4403.4367 1.9189.9821c.4801.547.8714 1.2869 1.182 2.1235.6235 1.68.9911 3.941.9911 6.3944 0 2.4534-.3676 4.7143-.9911 6.3944-.3106.8366-.7019 1.5764-1.182 2.1235-.4786.5454-1.1247.9821-1.9189.9821s-1.4403-.4367-1.919-.9821c-.48-.5471-.8714-1.2869-1.1819-2.1235-.6236-1.6801-.991-3.941-.991-6.3944 0-2.4534.3674-4.7143.991-6.3944.3105-.8366.7019-1.5764 1.1819-2.1235Z"/>
  <path d="M3.148 9.252a.9.9 0 0 1 .9-.9h16.104a.9.9 0 0 1 0 1.8H4.048a.9.9 0 0 1-.9-.9Zm0 5.498a.9.9 0 0 1 .9-.9h16.104a.9.9 0 0 1 0 1.8H4.048a.9.9 0 0 1-.9-.9Z"/>
</g></svg>