<svg xmlns="http://www.w3.org/2000/svg" data-laicon-version="15.0" viewBox="0 0 20 20" fill="black"><g transform="translate(-2 -2)">
  <path d="M6.5922 3c-.43 0-.82.254-.987.645l-3.517 8.315-.039.097a1.076 1.076 0 0 0 .616 1.3l3.077 1.3.117.194c.968 1.632 2.814 3.254 5.071 4.456 2.1 1.114 4.27 1.73 6.107 1.73 1.837 0 3.136-.616 3.732-1.73.44-.83.43-1.817-.01-2.883l.44.186.176.078.078-.175.469-1.095.078-.176-.176-.078-2.794-1.192-.176-.078-.078.176-1.192 2.794-.078.176.176.078 1.094.47.176.077.078-.175.234-.548c.294.655.333 1.222.118 1.632-.313.576-1.134.899-2.326.899-1.573 0-3.537-.567-5.383-1.544-2.179-1.153-3.918-2.735-4.65-4.22l-.099-.196-.029-.068-.068-.03-3.078-1.3 3.117-7.375 10.972 4.67-3.127 7.357-.058-.029c-3.527-1.67-5.745-3.888-5.384-4.758.108-.264.684-.567 1.915-.567.137 0 .293 0 .44.01h.195v-.186l.069-1.201V9.83h-.694c-1.798 0-2.97.527-3.4 1.534-.84 1.983 1.817 4.836 6.458 6.936l.547.235.548.234.175.079.079-.176 3.869-9.126.039-.098a1.0759 1.0759 0 0 0-.616-1.299l-11.87-5.061-.118-.04A1.1578 1.1578 0 0 0 6.5922 3Zm.733 3.156-.078.176-.47 1.094-.077.176.185.078 2.355.997.176.078.078-.176.469-1.094.078-.176-.176-.078-2.354-.997-.176-.078h-.01Z"/>
</g></svg>