<svg xmlns="http://www.w3.org/2000/svg" data-laicon-version="15.0" viewBox="0 0 20 20" fill="black"><g transform="translate(-2 -2)">
  <path d="M14.9823 4.19H5.6827c-1.049 0-1.9.851-1.9 1.9v12.701c0 1.0491.851 1.9 1.9 1.9h12.701c1.0491 0 1.9-.8509 1.9-1.9V9.5976l-1.8 1.8v7.3934c0 .0549-.0451.1-.1.1H5.6827c-.055 0-.1-.0451-.1-.1V6.09c0-.055.045-.1.1-.1h7.4994l1.8002-1.8Z"/>
  <path d="m18.6121 2.7191 3.1967 3.1947-8.9362 8.9362H9.6699v-3.1897l8.9422-8.9412Zm.0003 2.5451-7.1425 7.1417v.6441h.6571l7.1358-7.1358-.6504-.65Z"/>
</g></svg>