<svg xmlns="http://www.w3.org/2000/svg" data-laicon-version="15.0" viewBox="0 0 20 20" fill="black"><g transform="translate(-2 -2)">
  <path d="M2.8501 6.5c0-1.3255 1.0745-2.4 2.4-2.4h13.5c1.3255 0 2.4 1.0745 2.4 2.4v11c0 1.3255-1.0745 2.4-2.4 2.4h-13.5c-1.3255 0-2.4-1.0745-2.4-2.4v-11Zm2.4-.6a.6.6 0 0 0-.6.6v11a.6.6 0 0 0 .6.6h13.5a.6.6 0 0 0 .6-.6v-11a.6.6 0 0 0-.6-.6h-13.5Z"/>
  <path d="M3.3016 5.7325a.9.9 0 0 1 1.266-.131l7.4325 6.0389 7.4325-6.039a.9.9 0 0 1 1.135 1.397l-8 6.5001a.8998.8998 0 0 1-1.135 0l-8-6.5a.9.9 0 0 1-.131-1.266Z"/>
</g></svg>