<svg xmlns="http://www.w3.org/2000/svg" data-laicon-version="15.0" viewBox="0 0 20 20" fill="black"><g transform="translate(-2 -2)">
  <path d="M11.9957 14.4804c-.5912 0-1.068.4815-1.068 1.0724 0 .5911.4768 1.0724 1.068 1.0724.591 0 1.0679-.4813 1.0679-1.0724 0-.5909-.4769-1.0724-1.0679-1.0724Z"/>
  <path d="M7.8208 2.8608a.9.9 0 0 1 .638-.2653h7.0824a.9002.9002 0 0 1 .6381.2653l4.9616 4.9884a.8997.8997 0 0 1 .2619.6346v7.0324a.9.9 0 0 1-.2619.6347l-4.9616 4.9883a.8999.8999 0 0 1-.6381.2653H8.4589a.9.9 0 0 1-.6383-.2654L2.859 16.149a.9002.9002 0 0 1-.2618-.6346V8.4838a.9.9 0 0 1 .2619-.6347l4.9617-4.9883ZM8.833 4.3955 4.397 8.8552v6.2879l4.436 4.4614h6.3338l4.4359-4.4597V8.8552l-4.4359-4.4597H8.8331Z"/>
  <path d="M11.0957 13.142V7.6145h1.8v5.5275h-1.8Z"/>
</g></svg>