<svg xmlns="http://www.w3.org/2000/svg" data-laicon-version="15.3" viewBox="0 0 20 20" fill="black"><g transform="translate(-2 -2)">
  <path d="M3.973 17.1h7.738c.04.634.186 1.24.421 1.8h-8.16c-.794 0-1.404-.431-1.665-1.07a1.94 1.94 0 0 1 .16-1.74c1.781-3.087 2.665-4.599 3.529-6.076l.03-.051c.853-1.46 1.697-2.904 3.383-5.825l.014-.024.016-.024c.347-.521.899-.855 1.521-.855.624 0 1.177.336 1.519.864l.012.02.012.02c1.673 2.898 2.516 4.354 3.357 5.805l.748 1.293a5.51 5.51 0 0 0-1.78.518l-.524-.906c-.83-1.434-1.665-2.874-3.345-5.784l-.002-.004-.008.01a1070.612 1070.612 0 0 1-3.37 5.8l-.03.051c-.863 1.478-1.747 2.99-3.533 6.083l-.01.017-.01.017a.166.166 0 0 0-.023.06Z"/>
  <path d="M11.69 9h-1.5l.1 4h1.3l.1-4Zm-.75 4.65a.9.9 0 1 0 0 1.8.9.9 0 0 0 0-1.8Zm6.96.95h-1.3v2.495l1.835 1.243.73-1.076-1.265-.857V14.6Z"/>
  <path d="M12.7 16.75a4.55 4.55 0 1 1 9.1 0 4.55 4.55 0 0 1-9.1 0Zm4.55-2.95a2.95 2.95 0 1 0 0 5.9 2.95 2.95 0 0 0 0-5.9Z"/>
</g></svg>