<svg xmlns="http://www.w3.org/2000/svg" data-laicon-version="15.3" viewBox="0 0 20 20" fill="black"><g transform="translate(-2 -2)">
  <path d="M11.71 17.1H3.973a.167.167 0 0 1 .023-.06l.01-.017.011-.018c1.786-3.093 2.67-4.604 3.533-6.082l.03-.05c.851-1.457 1.693-2.898 3.37-5.802l.007-.01.003.004c1.68 2.91 2.514 4.35 3.344 5.784l.524.906a5.51 5.51 0 0 1 1.78-.518l-.748-1.292c-.84-1.452-1.683-2.908-3.357-5.806l-.011-.02-.012-.02c-.342-.527-.895-.864-1.52-.864-.622 0-1.173.334-1.52.855l-.016.024-.014.025a1069.95 1069.95 0 0 1-3.384 5.825l-.03.05c-.863 1.478-1.747 2.99-3.53 6.077a1.94 1.94 0 0 0-.159 1.74c.262.638.871 1.07 1.665 1.07h8.16a5.519 5.519 0 0 1-.42-1.8Z"/>
  <path d="M10.19 9h1.5l-.1 4h-1.3l-.1-4Zm-.15 5.55a.9.9 0 1 1 1.8 0 .9.9 0 0 1-1.8 0Zm7.21 1.28 1.06-1.06.92.92-1.06 1.06 1.06 1.06-.92.92-1.06-1.06-1.06 1.06-.92-.92 1.06-1.06-1.06-1.06.92-.92 1.06 1.06Z"/>
  <path d="M17.25 12.2a4.55 4.55 0 1 0 0 9.1 4.55 4.55 0 0 0 0-9.1Zm-2.95 4.55a2.95 2.95 0 1 1 5.9 0 2.95 2.95 0 0 1-5.9 0Z"/>
</g></svg>