<svg xmlns="http://www.w3.org/2000/svg" data-laicon-version="15.0" viewBox="0 0 20 20" fill="black"><g transform="translate(-2 -2)">
  <path d="m9.8809 9.2796 2.4748 2.4749-1.0606 1.0607-2.475-2.4749-.7935.7936c-.1597.1596-.4318.0924-.4987-.1233L6.3376 7.1731c-.0716-.2308.1452-.4472.3759-.3752l3.8327 1.195c.2153.0672.2823.339.1228.4985l-.7881.7882Z"/>
  <path d="M3.1001 6.0001c0-1.3255 1.0745-2.4 2.4-2.4h12c1.3255 0 2.4 1.0745 2.4 2.4v6.6h.6c.7732 0 1.4.6268 1.4 1.4v5c0 .7732-.6268 1.4-1.4 1.4h-7c-.7732 0-1.4-.6268-1.4-1.4v-.6h-6.6c-1.3255 0-2.4-1.0745-2.4-2.4v-10Zm15 6.6v-6.6a.6.6 0 0 0-.6-.6h-12a.6.6 0 0 0-.6.6v10a.6.6 0 0 0 .6.6h6.6v-2.6c0-.7732.6268-1.4 1.4-1.4h4.6Z"/>
</g></svg>