<svg xmlns="http://www.w3.org/2000/svg" data-laicon-version="17.5" viewBox="0 0 20 20" fill="black"><g transform="translate(-2 -2)">
  <path d="M5.35 7a2.4 2.4 0 0 1 2.4-2.4h11.5a2.4 2.4 0 0 1 2.4 2.4v8.5a2.4 2.4 0 0 1-2.4 2.4h-5v-1.8h5a.6.6 0 0 0 .6-.6V7a.6.6 0 0 0-.6-.6H7.75a.6.6 0 0 0-.6.6v2.8h-1.8V7Z"/>
  <path d="M4.25 11.4a1.9 1.9 0 0 0-1.9 1.9v5c0 1.05.85 1.9 1.9 1.9h6.5a1.9 1.9 0 0 0 1.9-1.9v-5a1.9 1.9 0 0 0-1.9-1.9h-6.5Zm-.1 1.9a.1.1 0 0 1 .1-.1h6.5a.1.1 0 0 1 .1.1v5a.1.1 0 0 1-.1.1h-6.5a.1.1 0 0 1-.1-.1v-5Z"/>
</g></svg>