<svg xmlns="http://www.w3.org/2000/svg" data-laicon-version="15.0" viewBox="0 0 20 20" fill="black"><g transform="translate(-2 -2)">
  <path d="M18.2244 7.3967v.0001l-1.2885 1.2885C15.4505 7.641 13.7429 7.07 11.9992 7.07c-3.1199 0-6.1252 1.8288-7.9479 4.9285 1.2642 2.1496 3.097 3.6881 5.1422 4.4292l-1.3807 1.3806c-2.3015-1.0459-4.2772-2.9324-5.587-5.386l-.2263-.4238.2263-.4238C4.2815 7.7238 7.9774 5.27 11.9992 5.27c2.2549 0 4.407.771 6.2252 2.1267Zm.0874 2.4582 1.2721-1.272c.8481.8603 1.589 1.8664 2.1897 2.9918l.2263.4238-.2263.4238c-2.0557 3.8509-5.7516 6.3047-9.7744 6.3047a9.9301 9.9301 0 0 1-2.291-.2685l1.5645-1.5645c.2412.0219.4835.033.7265.033 3.121 0 6.1261-1.8289 7.949-4.9285-.4723-.8031-1.0239-1.5208-1.6364-2.1436Z"/>
  <path d="M12 9.8c-1.215 0-2.2.985-2.2 2.2 0 .6739.3019 1.2765.7811 1.6814l-1.1618 1.3748C8.5527 14.3239 8 13.2261 8 12c0-2.2091 1.7909-4 4-4 1.2259 0 2.3237.5526 3.056 1.419l-1.3747 1.162C13.2763 10.1019 12.6739 9.8 12 9.8Z"/>
  <path d="m4.0635 19.0576 15.067-15.067 1.2728 1.2728-15.067 15.067-1.2728-1.2728Z"/>
</g></svg>