<svg xmlns="http://www.w3.org/2000/svg" data-laicon-version="15.0" viewBox="0 0 20 20" fill="black"><g transform="translate(-2 -2)">
  <path d="M4.0513 11.9985c1.8228 3.0997 4.828 4.9285 7.9479 4.9285 3.121 0 6.1261-1.8289 7.949-4.9285-1.8229-3.0996-4.828-4.9285-7.949-4.9285-3.12 0-6.125 1.8288-7.948 4.9285Zm-1.8255-.4238C4.2815 7.7238 7.9774 5.27 11.9992 5.27c4.0228 0 7.7187 2.4538 9.7745 6.3047l.2262.4238-.2262.4239c-2.0558 3.8508-5.7517 6.3046-9.7745 6.3046-4.0218 0-7.7177-2.4538-9.7734-6.3046l-.2263-.4239.2263-.4238Z"/>
  <path d="M12 9.8c-1.215 0-2.2.985-2.2 2.2 0 1.215.985 2.2 2.2 2.2 1.215 0 2.2-.985 2.2-2.2 0-1.215-.985-2.2-2.2-2.2ZM8 12c0-2.2091 1.7909-4 4-4 2.2091 0 4 1.7909 4 4 0 2.2091-1.7909 4-4 4-2.2091 0-4-1.7909-4-4Z"/>
</g></svg>