<svg xmlns="http://www.w3.org/2000/svg" data-laicon-version="15.0" viewBox="0 0 20 20" fill="black"><g transform="translate(-2 -2)">
  <path d="M8.6997 14.5a.9.9 0 0 1 .9-.9h5a.9.9 0 0 1 .9.9.9.9 0 0 1-.9.9h-5a.9.9 0 0 1-.9-.9ZM9.2227 9.0464c-.6904 0-1.25.5596-1.25 1.25s.5596 1.25 1.25 1.25c.6902 0 1.25-.5596 1.25-1.25s-.5598-1.25-1.25-1.25Zm5.5546 0c-.6903 0-1.25.5596-1.25 1.25s.5597 1.25 1.25 1.25c.6904 0 1.25-.5596 1.25-1.25s-.5596-1.25-1.25-1.25Z"/>
  <path d="M12 4.2999c-4.2526 0-7.7 3.4474-7.7 7.7s3.4474 7.7 7.7 7.7 7.7-3.4474 7.7-7.7-3.4474-7.7-7.7-7.7Zm-9.5 7.7c0-5.2467 4.2533-9.5 9.5-9.5s9.5 4.2533 9.5 9.5-4.2533 9.5-9.5 9.5-9.5-4.2533-9.5-9.5Z"/>
</g></svg>