<svg xmlns="http://www.w3.org/2000/svg" data-laicon-version="15.0" viewBox="0 0 20 20" fill="black"><g transform="translate(-2 -2)">
  <path d="M8.0488 13.6777a.9.9 0 0 1 .9-.9h6.1026a.9.9 0 0 1 .9.9h-.9c.9 0 .9.0005.9.001v.0089l-.0002.0141a2.7735 2.7735 0 0 1-.0086.1654 3.945 3.945 0 0 1-.0538.405c-.0597.3242-.1807.7681-.4311 1.2211-.2532.4582-.6419.9303-1.2288 1.2842-.5883.3548-1.3259.5606-2.2288.5606-.903 0-1.6405-.2058-2.2288-.5606-.5868-.3539-.9755-.826-1.2288-1.2842-.2504-.453-.3714-.8969-.4311-1.2211a3.977 3.977 0 0 1-.0538-.405 2.9976 2.9976 0 0 1-.0085-.1654l-.0002-.0141v-.0089c0-.0005 0-.001.9-.001h-.9Zm2.0451.9c.0078.015.0158.0299.024.0448.1282.2319.3116.4499.5829.6135.2699.1627.6766.302 1.2993.302.6227 0 1.0294-.1393 1.2992-.302.2714-.1636.4548-.3816.583-.6135a2.1536 2.1536 0 0 0 .024-.0448h-3.8124ZM9.2227 9.0464c-.6904 0-1.25.5596-1.25 1.25s.5596 1.25 1.25 1.25c.6902 0 1.25-.5596 1.25-1.25s-.5598-1.25-1.25-1.25Zm5.5546 0c-.6903 0-1.25.5596-1.25 1.25s.5597 1.25 1.25 1.25c.6904 0 1.25-.5596 1.25-1.25s-.5596-1.25-1.25-1.25Z"/>
  <path d="M12 4.3c-4.2526 0-7.7 3.4474-7.7 7.7s3.4474 7.7 7.7 7.7 7.7-3.4474 7.7-7.7-3.4474-7.7-7.7-7.7ZM2.5 12c0-5.2467 4.2533-9.5 9.5-9.5s9.5 4.2533 9.5 9.5-4.2533 9.5-9.5 9.5-9.5-4.2533-9.5-9.5Z"/>
</g></svg>