<svg xmlns="http://www.w3.org/2000/svg" data-laicon-version="15.0" viewBox="0 0 20 20" fill="black"><g transform="translate(-2 -2)">
  <path d="M4.3 12c0-4.2526 3.4474-7.7 7.7-7.7s7.7 3.4474 7.7 7.7-3.4474 7.7-7.7 7.7-7.7-3.4474-7.7-7.7ZM12 2.5c-5.2467 0-9.5 4.2533-9.5 9.5s4.2533 9.5 9.5 9.5 9.5-4.2533 9.5-9.5-4.2533-9.5-9.5-9.5ZM9.2229 9.9465c-.6904 0-1.25.5597-1.25 1.25 0 .6904.5596 1.25 1.25 1.25.6903 0 1.25-.5596 1.25-1.25s-.5597-1.25-1.25-1.25Zm5.5542 0c-.6902 0-1.25.5596-1.25 1.25s.5598 1.25 1.25 1.25c.6904 0 1.25-.5596 1.25-1.25 0-.6903-.5596-1.25-1.25-1.25Zm-5.7532 6.5443a.9.9 0 0 0 1.2677-.1141c.2881-.345.9383-.6768 1.8091-.6768.8709 0 1.5211.3318 1.8091.6768a.9.9 0 0 0 1.2677.1141.8998.8998 0 0 0 .1141-1.2676c-.71-.8506-1.9253-1.3233-3.1909-1.3233s-2.4808.4727-3.1909 1.3233a.9.9 0 0 0 .1141 1.2676Zm6.9646-9.3435a.9.9 0 0 1-.3271 1.23l-1.2098.7015a.9.9 0 0 1-.9029-1.5572l1.2098-.7014a.9.9 0 0 1 1.23.3271ZM8.4832 8.3356A.9.9 0 1 1 9.517 6.862l1.0001.7014a.9.9 0 0 1-1.0337 1.4737l-1-.7015Z"/>
</g></svg>