<svg xmlns="http://www.w3.org/2000/svg" data-laicon-version="15.0" viewBox="0 0 20 20" fill="black"><g transform="translate(-2 -2)">
  <path d="M5.882 19.4h7.1182v1.7999H5.5007c-.7835 0-1.4187-.6351-1.4187-1.4187V7.4195L8.7014 2.8h9.7984c.7836 0 1.4187.635 1.4187 1.4186V16h-1.8V4.6H9.447L5.882 8.165V19.4Z"/>
  <path d="M9.974 8.6921H4.982v-1.8h3.192V3.7h1.8v4.9923Zm8.6461 9.4782c0 .2789-.1505.3633-.356.3633h-.1982v-.7266h.1982c.2055 0 .356.0844.356.3633Z"/>
  <path d="M13 15.0001h7c.5523 0 1 .4477 1 1v5c0 .5522-.4477 1-1 1h-7c-.5523 0-1-.4478-1-1v-5c0-.5523.4477-1 1-1Zm.5099 4.84h2.0625c.0404 0 .0661-.0256.0661-.066v-.6533c0-.0403-.0257-.066-.0661-.066h-.8955l.9102-1.5488c.0147-.0293.022-.0514.022-.0807v-.2129c0-.0403-.0257-.066-.066-.066h-1.9525c-.0404 0-.066.0257-.066.066v.6533c0 .0404.0256.066.066.066h.7817l-.9065 1.5488c-.0146.0293-.022.0514-.022.0807v.2129c0 .0404.0257.066.0661.066Zm2.4954 0h.7046c.0404 0 .0661-.0256.0661-.066v-2.5617c0-.0403-.0257-.066-.0661-.066h-.7046c-.0404 0-.0661.0257-.0661.066v2.5617c0 .0404.0257.066.0661.066Zm1.9944 0c.0404 0 .0661-.0256.0661-.066v-.5799h.2129c.778 0 1.1854-.3376 1.1854-1.0239 0-.69-.4074-1.0239-1.1854-1.0239h-.9652c-.0404 0-.0661.0257-.0661.066v2.5617c0 .0404.0257.066.0661.066h.6862Z"/>
</g></svg>