<svg xmlns="http://www.w3.org/2000/svg" data-laicon-version="15.0" viewBox="0 0 20 20" fill="black"><g transform="translate(-2 -2)">
  <path d="M5.882 19.4h6.1183v1.7999H5.5007c-.7835 0-1.4187-.6351-1.4187-1.4187V7.4195L8.7014 2.8h9.7984c.7836 0 1.4187.635 1.4187 1.4186V16h-1.8V4.6H9.447L5.882 8.165V19.4Z"/>
  <path d="M9.974 8.6921H4.982v-1.8h3.192V3.7h1.8v4.9923ZM12 15.0001h8c.5523 0 1 .4477 1 1v5c0 .5523-.4477 1-1 1h-8c-.5523 0-1-.4477-1-1v-5c0-.5523.4477-1 1-1Zm.9778 4.84h.7046c.0404 0 .0661-.0257.0661-.0661v-1.8423h.7266c.0404 0 .0661-.0257.0661-.0661v-.6533c0-.0403-.0257-.066-.0661-.066H12.185c-.0403 0-.066.0257-.066.066v.6533c0 .0404.0257.0661.066.0661h.7267v1.8423c0 .0404.0257.0661.0661.0661Zm1.7576 0h.7854c.0367 0 .0587-.0184.077-.0478l.3854-.6936.3817.6936c.0183.0294.0403.0478.077.0478h.8221c.0514 0 .0697-.0367.0441-.0808l-.7928-1.3028.7414-1.2295c.0257-.044.0073-.0807-.0441-.0807h-.7743c-.0367 0-.0588.0183-.0771.0477l-.3413.6349-.345-.6349c-.0183-.0294-.0404-.0477-.0771-.0477h-.811c-.0514 0-.0698.0367-.0441.0807l.7377 1.2331-.7891 1.2992c-.0256.0441-.0073.0808.0441.0808Zm4.2871 0c.0404 0 .0661-.0257.0661-.0661v-1.8423h.7267c.0403 0 .066-.0257.066-.0661v-.6533c0-.0403-.0257-.066-.066-.066h-2.2901c-.0404 0-.0661.0257-.0661.066v.6533c0 .0404.0257.0661.0661.0661h.7266v1.8423c0 .0404.0257.0661.0661.0661h.7046Z"/>
</g></svg>