<svg xmlns="http://www.w3.org/2000/svg" data-laicon-version="15.3" viewBox="0 0 20 20" fill="black"><g transform="translate(-2 -2)">
  <path d="M18.11 11.637V4.4H5.88v15.2h6.128c.264.67.649 1.278 1.127 1.8H5.48c-.788 0-1.4-.645-1.4-1.4V4c0-.789.645-1.4 1.4-1.4h13.03c.79 0 1.4.645 1.4 1.4v8.141a5.81 5.81 0 0 0-1.8-.504Z"/>
  <path d="M12.32 7.77H7.83v-1.8h4.49v1.8Zm0 2.54H7.83v-1.8h4.49v1.8Zm4.48 4.99h1.3v1.805l1.265.857-.73 1.076-1.835-1.243V15.3Z"/>
  <path d="M12.9 17.45a4.55 4.55 0 1 1 9.1 0 4.55 4.55 0 0 1-9.1 0Zm4.55-2.95a2.95 2.95 0 1 0 0 5.9 2.95 2.95 0 0 0 0-5.9Z"/>
</g></svg>