<svg xmlns="http://www.w3.org/2000/svg" data-laicon-version="15.0" viewBox="0 0 20 20" fill="black"><g transform="translate(-2 -2)">
  <path d="M5.882 19.4h3.1922v1.7999H5.5007c-.7835 0-1.4187-.6351-1.4187-1.4187V7.4195L8.7014 2.8h9.7984c.7836 0 1.4187.635 1.4187 1.4186V16h-1.8V4.6H9.447L5.882 8.165V19.4Z"/>
  <path d="M9.974 8.6921H4.982v-1.8h3.192V3.7h1.8v4.9923Zm5.3175 10.3881c-.3193 0-.5542-.2349-.5542-.5872 0-.3523.2349-.5872.5542-.5872.3193 0 .5542.2349.5542.5872 0 .3523-.2349.5872-.5542.5872Z"/>
  <path d="M9 14.9999h11c.5523 0 1 .4478 1 1v5c0 .5523-.4477 1-1 1H9c-.5523 0-1-.4477-1-1v-5c0-.5522.4477-1 1-1Zm4.6427 4.0326c0-.4441-.2349-.6936-.7046-.8514l-.2092-.0698c-.2459-.0807-.312-.1358-.312-.2018 0-.0771.0771-.1175.1542-.1175.0807 0 .1688.0294.2422.1909.0147.0403.044.055.0844.044l.6386-.1761c.0404-.0111.0587-.0404.044-.0845-.1651-.4697-.5431-.6716-.9945-.6716-.5542 0-1.013.356-1.013.8698 0 .4111.2606.69.657.8294l.3083.1101c.1871.0661.2679.1028.2679.1872 0 .0661-.0771.1028-.1872.1028-.1725 0-.2899-.0551-.3633-.2166-.0147-.0367-.0441-.0513-.0808-.044l-.6165.1541c-.0404.0111-.0588.0404-.0441.0845.1578.4587.5542.7193 1.068.7193.6202 0 1.0606-.356 1.0606-.8588Zm-2.4085-.2349v-1.5854c0-.0404-.0257-.0661-.0661-.0661H9.7808c-.0403 0-.066.0257-.066.0661v.6532c0 .0404.0257.0661.066.0661h.6166v.8221c0 .1908-.055.3266-.2312.3266-.1138 0-.1651-.0587-.2019-.1468-.0146-.0367-.044-.055-.0844-.044l-.6055.1651c-.0404.011-.0588.0404-.0478.0808.1102.4367.4148.756.969.756.6165 0 1.0386-.2936 1.0386-1.0937Zm4.0574 1.0937c.8111 0 1.4166-.5725 1.4166-1.3983 0-.8257-.6055-1.3983-1.4166-1.3983s-1.4166.5726-1.4166 1.3983c0 .8258.6055 1.3983 1.4166 1.3983Zm2.5553-.0514c.0403 0 .066-.0257.066-.0661v-1.3652l.7707 1.3836a.0822.0822 0 0 0 .0771.0477h.734c.0404 0 .066-.0257.066-.0661v-2.5616c0-.0404-.0256-.0661-.066-.0661h-.668c-.0403 0-.066.0257-.066.0661v1.3542l-.7707-1.3726c-.0184-.0293-.0404-.0477-.0771-.0477h-.734c-.0404 0-.066.0257-.066.0661v2.5616c0 .0404.0256.0661.066.0661h.668Z"/>
</g></svg>