<svg xmlns="http://www.w3.org/2000/svg" data-laicon-version="15.0" viewBox="0 0 20 20" fill="black"><g transform="translate(-2 -2)">
  <path d="M5.882 19.4h5.1182v1.7999H5.5007c-.7835 0-1.4187-.6351-1.4187-1.4187V7.4195L8.7014 2.8h9.7984c.7836 0 1.4187.635 1.4187 1.4186V16h-1.8V4.6H9.447L5.882 8.165V19.4Z"/>
  <path d="M9.974 8.6921H4.982v-1.8h3.192V3.7h1.8v4.9923ZM11 15.0001h9c.5523 0 1 .4477 1 1v5c0 .5522-.4477 1-1 1h-9c-.5523 0-1-.4478-1-1v-5c0-.5523.4477-1 1-1Zm.2732 4.8399h.7854c.0367 0 .0587-.0183.0771-.0477l.3853-.6936.3817.6936c.0184.0294.0404.0477.0771.0477h.8221c.0513 0 .0697-.0367.044-.0807l-.7927-1.3029.7413-1.2294c.0257-.0441.0074-.0808-.044-.0808h-.7744c-.0367 0-.0587.0184-.0771.0477l-.3413.635-.345-.635c-.0183-.0293-.0403-.0477-.077-.0477h-.8111c-.0514 0-.0697.0367-.044.0808l.7376 1.2331-.789 1.2992c-.0257.044-.0074.0807.044.0807Zm2.9293 0h.6679c.0404 0 .0661-.0257.0661-.066v-1.2699l.4844.7781c.0184.033.0441.044.0771.044h.411c.0331 0 .0588-.011.0771-.044l.4844-.8148v1.3066c0 .0403.0257.066.0661.066h.6679c.0404 0 .0661-.0257.0661-.066v-2.5617c0-.0404-.0257-.0661-.0661-.0661h-.7193c-.0367 0-.0587.0147-.077.0441l-.6863 1.1891-.7083-1.1891c-.0184-.0331-.0441-.0441-.0771-.0441h-.734c-.0404 0-.0661.0257-.0661.0661v2.5617c0 .0403.0257.066.0661.066Zm5.4625 0c.0404 0 .0661-.0257.0661-.066v-.6606c0-.0404-.0257-.0661-.0661-.0661h-1.0863v-1.835c0-.0404-.0257-.0661-.0661-.0661h-.7046c-.0404 0-.0661.0257-.0661.0661v2.5617c0 .0403.0257.066.0661.066h1.857Z"/>
</g></svg>