<svg xmlns="http://www.w3.org/2000/svg" data-laicon-version="15.3" viewBox="0 0 20 20" fill="black"><g transform="translate(-2 -2)">
  <path d="M5 6.4a.1.1 0 0 0-.1.1V17a.1.1 0 0 0 .1.1h5v1.8H5A1.9 1.9 0 0 1 3.1 17V6.5c0-1.05.85-1.9 1.9-1.9h13c1.05 0 1.9.85 1.9 1.9v4h-1.8v-4a.1.1 0 0 0-.1-.1H5Z"/>
  <path d="M11 12.05H6.5v-1.7H11v1.7Zm-4.5-2.5H11v-1.7H6.5v1.7Zm9.6 8.6 2.52-2.52-1.06-1.06-1.46 1.459-.81-.81-1.06 1.061 1.87 1.87Z"/>
  <path d="M15.34 11.227a1.6 1.6 0 0 1 2.24 0l.684.67.957.01a1.6 1.6 0 0 1 1.583 1.583l.01.957.67.683a1.6 1.6 0 0 1 0 2.24l-.67.683-.01.957a1.6 1.6 0 0 1-1.583 1.584l-.957.01-.684.67a1.6 1.6 0 0 1-2.24 0l-.683-.67-.957-.01a1.6 1.6 0 0 1-1.583-1.584l-.01-.957-.67-.684a1.6 1.6 0 0 1 0-2.239l.67-.683.01-.957a1.6 1.6 0 0 1 1.583-1.584l.957-.01.684-.67Zm2.034 2.038-.914-.895-.913.895a.8.8 0 0 1-.552.228l-1.278.013-.014 1.279a.8.8 0 0 1-.228.551l-.895.914.895.913a.8.8 0 0 1 .228.552l.014 1.279 1.278.013a.8.8 0 0 1 .552.228l.913.895.914-.895a.8.8 0 0 1 .551-.228l1.279-.013.013-1.279a.8.8 0 0 1 .229-.552l.894-.913-.894-.914a.8.8 0 0 1-.229-.551l-.013-1.279-1.279-.013a.8.8 0 0 1-.551-.228Z"/>
</g></svg>