<svg xmlns="http://www.w3.org/2000/svg" data-laicon-version="15.0" viewBox="0 0 20 20" fill="black"><g transform="translate(-2 -2)">
  <path d="M5.882 19.4h5.1182v1.7999H5.5007c-.7835 0-1.4187-.6351-1.4187-1.4187V7.4195L8.7014 2.8h9.7984c.7836 0 1.4187.635 1.4187 1.4186V16h-1.8V4.6H9.447L5.882 8.165V19.4Z"/>
  <path d="M9.974 8.6921H4.982v-1.8h3.192V3.7h1.8v4.9923Zm5.1046 10.3882c-.3193 0-.5542-.2349-.5542-.5872 0-.3523.2349-.5872.5542-.5872.3192 0 .5541.2349.5541.5872 0 .3523-.2349.5872-.5541.5872Z"/>
  <path d="M11 15.0001h9c.5523 0 1 .4477 1 1v5c0 .5522-.4477 1-1 1h-9c-.5523 0-1-.4478-1-1v-5c0-.5523.4477-1 1-1Zm4.0785 4.8913c.811 0 1.4166-.5725 1.4166-1.3983 0-.8257-.6056-1.3983-1.4166-1.3983-.8111 0-1.4167.5726-1.4167 1.3983 0 .8258.6056 1.3983 1.4167 1.3983Zm-3.4923-.0514h1.857c.0404 0 .0661-.0257.0661-.0661v-.6606c0-.0403-.0257-.066-.0661-.066h-1.0863v-1.835c0-.0404-.0257-.0661-.066-.0661h-.7047c-.0403 0-.066.0257-.066.0661v2.5616c0 .0404.0257.0661.066.0661Zm7.9596-1.1524v-.3229c0-.0404-.0257-.0661-.0661-.0661H18.309c-.0404 0-.0661.0257-.0661.0661v.4183c0 .0404.0257.0661.0661.0661h.3927c-.033.1578-.2055.2496-.4514.2496-.3193 0-.5542-.2056-.5542-.6019 0-.3964.2276-.5982.5542-.5982.1468 0 .3009.0587.3927.1761.022.0294.0477.0441.0844.0331l.6973-.1872c.0404-.011.0587-.0404.044-.0844-.1835-.4771-.6275-.7414-1.2331-.7414-.7964 0-1.4019.5726-1.4019 1.3983 0 .8258.5541 1.3983 1.3872 1.3983.8551 0 1.3249-.5248 1.3249-1.2038Z"/>
</g></svg>