<svg xmlns="http://www.w3.org/2000/svg" data-laicon-version="15.0" viewBox="0 0 20 20" fill="black"><g transform="translate(-2 -2)">
  <path d="M5.882 19.4h6.1183v1.7999H5.5007c-.7835 0-1.4187-.6351-1.4187-1.4187V7.4195L8.7014 2.8h9.7984c.7836 0 1.4187.635 1.4187 1.4186V16h-1.8V4.6H9.447L5.882 8.165V19.4Z"/>
  <path d="M9.974 8.6921H4.982v-1.8h3.192V3.7h1.8v4.9923ZM12 14.9999h8c.5523 0 1 .4477 1 1v5c0 .5523-.4477 1-1 1h-8c-.5522 0-1-.4477-1-1v-5c0-.5523.4478-1 1-1Zm3.9117 4.8913c.6203 0 1.0607-.356 1.0607-.8588 0-.444-.2349-.6936-.7047-.8514l-.2092-.0697c-.2458-.0808-.3119-.1358-.3119-.2019 0-.0771.0771-.1174.1541-.1174.0808 0 .1689.0293.2423.1908.0146.0404.044.0551.0844.044l.6385-.1761c.0404-.011.0588-.0404.0441-.0844-.1652-.4698-.5432-.6716-.9946-.6716-.5542 0-1.0129.356-1.0129.8698 0 .411.2606.6899.6569.8294l.3083.1101c.1872.066.2679.1027.2679.1871 0 .0661-.0771.1028-.1872.1028-.1724 0-.2899-.055-.3633-.2165-.0147-.0367-.044-.0514-.0807-.0441l-.6166.1542c-.0404.011-.0587.0403-.044.0844.1578.4587.5541.7193 1.0679.7193Zm-2.7852-.0514h.7047c.0403 0 .066-.0257.066-.066v-1.8424h.7267c.0404 0 .066-.0257.066-.066v-.6533c0-.0404-.0256-.0661-.066-.0661h-2.2901c-.0404 0-.0661.0257-.0661.0661v.6533c0 .0403.0257.066.0661.066h.7267v1.8424c0 .0403.0257.066.066.066Zm5.5478 0c.0367 0 .0624-.0183.0771-.0514l1.0386-2.5653c.0184-.044-.0073-.0771-.055-.0771h-.8038c-.0367 0-.066.0184-.077.0551l-.4478 1.4203-.4587-1.4203c-.011-.0367-.0404-.0551-.0771-.0551h-.8147c-.0477 0-.0734.0331-.0551.0771l1.0386 2.5653c.0147.0331.0404.0514.0771.0514h.5578Z"/>
</g></svg>