<svg xmlns="http://www.w3.org/2000/svg" data-laicon-version="15.0" viewBox="0 0 20 20" fill="black"><g transform="translate(-2 -2)">
  <path d="M5.8815 4.6001V19.4h8.6715l3.565-3.565V4.6001H5.8815Zm-1.8-.3813c0-.7835.6352-1.4187 1.4187-1.4187h12.9991c.7836 0 1.4187.6351 1.4187 1.4187v12.3618L15.2986 21.2H5.5002c-.7835 0-1.4187-.6351-1.4187-1.4187V4.2188Z"/>
  <path d="M10.9653 5.5h1.9231v1.6h-1.9231V5.5Zm0 2.42h1.9231v1.6h-1.9231v-1.6Zm0 4.84h1.9231v1.6h-1.9231v-1.6Zm0-2.42h1.9231v1.6h-1.9231v-1.6Z"/>
</g></svg>