<svg xmlns="http://www.w3.org/2000/svg" data-laicon-version="15.0" viewBox="0 0 20 20" fill="black"><g transform="translate(-2 -2)">
  <path d="M5.882 19.4h5.1182v1.7999H5.5007c-.7835 0-1.4187-.6351-1.4187-1.4187V7.4195L8.7014 2.8h9.7984c.7836 0 1.4187.635 1.4187 1.4186V16h-1.8V4.6H9.447L5.882 8.165V19.4Z"/>
  <path d="M9.974 8.6921H4.982v-1.8h3.192V3.7h1.8v4.9923Zm2.502 9.1147c.2055 0 .356.0844.356.3634 0 .2789-.1505.3633-.356.3633h-.1982v-.7267h.1982Z"/>
  <path d="M11 14.9999h9c.5523 0 1 .4478 1 1v5c0 .5523-.4477 1-1 1h-9c-.5523 0-1-.4477-1-1v-5c0-.5522.4477-1 1-1Zm8.6067 3.6877v-.3229c0-.0404-.0257-.0661-.0661-.0661h-1.1707c-.0404 0-.0661.0257-.0661.0661v.4184c0 .0403.0257.066.0661.066h.3927c-.0331.1578-.2056.2496-.4514.2496-.3193 0-.5542-.2055-.5542-.6019s.2275-.5982.5542-.5982c.1468 0 .3009.0587.3926.1761.0221.0294.0478.0441.0845.0331l.6973-.1872c.0403-.011.0587-.0404.044-.0844-.1835-.4771-.6276-.7413-1.2331-.7413-.7964 0-1.402.5725-1.402 1.3982 0 .8258.5542 1.3983 1.3873 1.3983.8551 0 1.3249-.5248 1.3249-1.2038ZM11.5252 19.84h.6863c.0404 0 .0661-.0257.0661-.066v-.5799h.2128c.7781 0 1.1855-.3376 1.1855-1.0239 0-.69-.4074-1.024-1.1855-1.024h-.9652c-.0403 0-.066.0257-.066.0661v2.5617c0 .0403.0257.066.066.066Zm2.5841 0h.6679c.0404 0 .0661-.0257.0661-.066v-1.3653l.7707 1.3836a.0816.0816 0 0 0 .0771.0477h.734c.0403 0 .066-.0257.066-.066v-2.5617c0-.0404-.0257-.0661-.066-.0661h-.668c-.0404 0-.066.0257-.066.0661v1.3542l-.7707-1.3726c-.0184-.0293-.0404-.0477-.0771-.0477h-.734c-.0404 0-.0661.0257-.0661.0661v2.5617c0 .0403.0257.066.0661.066Z"/>
</g></svg>