<svg xmlns="http://www.w3.org/2000/svg" data-laicon-version="15.0" viewBox="0 0 20 20" fill="black"><g transform="translate(-2 -2)">
  <path d="m17.4998 11.5-4.1-4.1-3.6-3.6-1.7-1.6-1.2 1.2 1.6 1.6-5 5c-1.1 1.1-1.1 3 0 4.1l4.2 4.2c.6.7 1.3 1 2.1 1s1.5-.3 2.1-.8l6.3-6.3-.7-.7Zm-2.8-.3h-9.8l4.9-4.9 2.5 2.5 2.4 2.4Zm-4.2 6c-.4.4-1.1.4-1.6 0l-4-4.2h9.8l-4.2 4.2Zm8.0003 4.8c-1.6 0-2.9-1.3-2.9-2.9 0-2.1 2.1-3.7 2.4-3.9l.5-.4.5.4c.2.2 2.4 1.8 2.4 3.9 0 1.6-1.3 2.9-2.9 2.9Zm0-4.9c-.5.5-1.1 1.3-1.1 2 0 .6.5 1.1 1.1 1.1.6 0 1.1-.5 1.1-1.1 0-.7-.6-1.5-1.1-2Z"/>
</g></svg>