<svg xmlns="http://www.w3.org/2000/svg" data-laicon-version="15.0" viewBox="0 0 20 20" fill="black"><g transform="translate(-2 -2)">
  <path d="M4.4436 5.23v13.5732h15.1902V5.23H4.4435Zm-1.8-.4136c0-.8481.7302-1.3864 1.4376-1.3864h15.915c.7073 0 1.4376.5383 1.4376 1.3864v14.4003c0 .8483-.7305 1.3865-1.4376 1.3865H4.0812c-.7074 0-1.4377-.5383-1.4377-1.3865V4.8165Z"/>
  <path d="M10.0081 9.0784a.7.7 0 0 1 .7014.0025l3.9931 2.3302a.7002.7002 0 0 1-.0026 1.2107l-3.9931 2.3074a.7.7 0 0 1-1.0502-.6061V9.6854a.7.7 0 0 1 .3514-.607Zm1.0486 1.826v2.2058l1.8992-1.0975-1.8992-1.1083ZM7.442 4.2968v15.4064h-1.8V4.2968h1.8Zm11.024 0v15.4064h-1.8V4.2968h1.8Z"/>
  <path d="M7.0388 9.9108H2.9722v-1.8h4.0666v1.8Zm13.9546 6.0095h-4.0666v-1.8h4.0666v1.8Zm.0342-6.0095h-4.0667v-1.8h4.0667v1.8ZM7.0388 15.9203H2.9722v-1.8h4.0666v1.8Z"/>
</g></svg>