<svg xmlns="http://www.w3.org/2000/svg" data-laicon-version="15.0" viewBox="0 0 20 20" fill="black"><g transform="translate(-2 -2)">
  <path d="M11.5731 3.507c1.8842-.386 3.9139-.7333 7.5323.1296a.9.9 0 0 1 .6912.8755v11.9343a.9.9 0 0 1-1.1088.8754c-3.2781-.7818-5.0251-.4712-6.7534-.1171l-.2203.0453c-1.7662.3642-3.6208.7466-6.7962.077a.9.9 0 0 1-.7143-.8806V4.5121a.9.9 0 0 1 1.0857-.8806c2.8084.5922 4.3706.27 6.0598-.0783.0744-.0154.149-.0308.224-.0461ZM6.0036 5.5899v10.1118c2.3703.3994 3.8051.1035 5.3454-.2141l.2242-.0462c1.6825-.3447 3.4811-.6585 6.4234-.1072V5.234c-2.8408-.583-4.4595-.292-6.0621.0364-.0734.015-.1468.0302-.2203.0454-1.5549.3206-3.1781.6553-5.7106.274Z"/>
  <path d="M5.1036 3.5484a.9.9 0 0 1 .9.9V21a.9.9 0 0 1-.9.9.9.9 0 0 1-.9-.9V4.4484a.9.9 0 0 1 .9-.9Z"/>
</g></svg>