<svg xmlns="http://www.w3.org/2000/svg" data-laicon-version="15.3" viewBox="0 0 20 20" fill="black"><g transform="translate(-2 -2)">
  <path d="M11.1 20a.9.9 0 0 0 1.8 0v-1.2a.9.9 0 0 0-1.8 0V20Zm-1.2-8a.9.9 0 0 0-.267-.64l-5.25-5.196a.9.9 0 0 0-1.533.64v10.392a.9.9 0 0 0 1.533.64l5.25-5.196A.9.9 0 0 0 9.9 12Zm-5.25 3.04V8.96L7.72 12l-3.07 3.04ZM14.1 12a.9.9 0 0 1 .267-.64l5.25-5.196a.9.9 0 0 1 1.533.64v10.392a.9.9 0 0 1-1.533.64l-5.25-5.196A.9.9 0 0 1 14.1 12Zm5.25-3.04L16.28 12l3.07 3.04V8.96ZM12 17.2a.9.9 0 0 1-.9-.9v-1.2a.9.9 0 0 1 1.8 0v1.2a.9.9 0 0 1-.9.9Zm-.9-4.6a.9.9 0 0 0 1.8 0v-1.2a.9.9 0 0 0-1.8 0v1.2Zm.9-2.8a.9.9 0 0 1-.9-.9V7.7a.9.9 0 0 1 1.8 0v1.2a.9.9 0 0 1-.9.9Zm-.9-4.6a.9.9 0 0 0 1.8 0V4a.9.9 0 0 0-1.8 0v1.2Z"/>
</g></svg>