<svg xmlns="http://www.w3.org/2000/svg" data-laicon-version="16.15" viewBox="0 0 20 20" fill="black"><g transform="translate(-2 -2)">
  <path d="M8.066 12.002c0-1.37 1.008-2.28 2.232-2.28 1.224 0 2.232.91 2.232 2.28 0 .371-.132.747-.282 1.065a5.87 5.87 0 0 1-.313.571l.984.558c.48.272.777.782.777 1.334v1.269H6.9v-1.27c0-.551.297-1.06.777-1.333l.985-.558a5.837 5.837 0 0 1-.314-.57c-.15-.32-.282-.695-.282-1.066Zm2.232-1.08c-.578 0-1.032.39-1.032 1.08 0 .109.046.294.168.553.117.248.28.516.46.774a.79.79 0 0 1-.259 1.137l-1.366.774a.333.333 0 0 0-.169.29v.069h4.396v-.07c0-.12-.064-.23-.168-.289l-1.367-.774a.79.79 0 0 1-.258-1.137 5.61 5.61 0 0 0 .46-.774c.122-.259.167-.444.167-.553 0-.69-.453-1.08-1.032-1.08Zm4.069 5.877H17.1v-1.27c0-.551-.297-1.06-.777-1.333l-.984-.558a5.76 5.76 0 0 0 .313-.57c.15-.32.282-.695.282-1.066 0-1.37-1.007-2.28-2.232-2.28-.45 0-.87.123-1.222.346.093.094.177.197.25.306.152.224.266.477.343.74.173-.125.39-.191.63-.191.578 0 1.031.388 1.031 1.079 0 .109-.045.294-.167.553a5.61 5.61 0 0 1-.46.774.79.79 0 0 0 .258 1.137l1.367.774c.104.06.168.17.168.29v.069h-1.533v1.2Z"/>
  <path d="M4.773 3.818c-.772 0-1.4.628-1.4 1.4V18.77c0 .772.628 1.4 1.4 1.4h14.454c.772 0 1.4-.628 1.4-1.4V7.357c0-.772-.628-1.4-1.4-1.4h-6.984l-2.134-2.14H4.773Zm.4 14.551V5.618h4.19l2.133 2.139h7.33v10.612H5.173Z"/>
</g></svg>