<svg xmlns="http://www.w3.org/2000/svg" data-laicon-version="16.11" viewBox="0 0 20 20" fill="black"><g transform="translate(-2 -2)">
  <path d="M6.95 8.28c0 .575.105 1.205.449 1.82h2.476c-.256-.16-.45-.32-.598-.472-.418-.43-.527-.871-.527-1.348 0-.74.372-1.31.971-1.727A3.82 3.82 0 0 1 11.8 5.9c1.354 0 2.203.494 2.717 1.027.555.575.713 1.18.713 1.353h1.8c0-.727-.407-1.762-1.217-2.602C14.962 4.796 13.646 4.1 11.8 4.1c-.996 0-2.166.32-3.109.977C7.728 5.749 6.95 6.82 6.95 8.28Zm7.763 5.62h2.216a4.01 4.01 0 0 1 .321 1.63c0 1.535-1.444 4.35-5.2 4.35-2.097 0-3.491-.656-4.356-1.578C6.853 17.406 6.6 16.35 6.6 15.68h1.8c0 .28.122.874.606 1.39.46.49 1.341 1.01 3.044 1.01 2.643 0 3.4-1.885 3.4-2.55 0-.773-.278-1.26-.737-1.63ZM4.5 12.9h15v-1.8h-15v1.8Z"/>
</g></svg>