<svg xmlns="http://www.w3.org/2000/svg" data-laicon-version="15.0" viewBox="0 0 20 20" fill="black"><g transform="translate(-2 -2)">
  <path d="M5.0007 5v14h13.999V5H5.0007Zm-1.8-.4c0-.7731.6268-1.4 1.4-1.4h14.799c.7731 0 1.4.6269 1.4 1.4v14.8c0 .7732-.6269 1.4-1.4 1.4H4.6007c-.7732 0-1.4-.6268-1.4-1.4V4.6Z"/>
  <path d="M8.75 7.6h1v1.8h-1V7.6Zm0 7.0001h1v1.8h-1v-1.8Z"/>
  <path d="M9.3501 7.6h3.15c1.4635 0 2.65 1.1865 2.65 2.6501 0 1.4635-1.1865 2.65-2.65 2.65h-3.15v-5.3Zm1.8 1.8v1.7001h1.35a.85.85 0 0 0 0-1.7h-1.35Z"/>
  <path d="M9.3501 11.1001h3.65c1.4636 0 2.65 1.1864 2.65 2.65 0 1.4635-1.1864 2.65-2.65 2.65h-3.65v-5.3Zm1.8 1.8v1.7h1.85a.85.85 0 0 0 0-1.7h-1.85Z"/>
</g></svg>