<svg xmlns="http://www.w3.org/2000/svg" data-laicon-version="15.0" viewBox="0 0 20 20" fill="black"><g transform="translate(-2 -2)">
  <path d="M7.121 4.52h5.1957c.8016 0 1.7787.2295 2.5812.8188.8406.6172 1.4451 1.6023 1.4451 2.9577 0 1.0995-.4194 1.9894-1.0673 2.6387 1.2705.7468 2.2041 2.1538 2.2041 4.0063 0 1.1919-.3356 2.3083-1.1245 3.1521-.7909.8462-1.9294 1.3027-3.3063 1.3846l-.0282.0017H7.1211V4.5201Zm1.9 7.7161v5.3438h3.9422c1.0076-.0649 1.63-.3835 2.0042-.7838.3796-.4061.6124-1.0125.6124-1.8546 0-1.7302-1.2711-2.7054-2.4808-2.7054H9.021Zm0-1.9h2.8629c.6912 0 1.3582-.2013 1.8279-.5534.4427-.3318.7312-.8064.7312-1.4862 0-.7212-.2925-1.1493-.6696-1.4262-.415-.3048-.9761-.4502-1.4567-.4502H9.0211v3.916Z"/>
  <path d="M8.0712 6.42h-1.641v-1.9h1.641v1.9Zm0 13.0599h-1.641v-1.9h1.641v1.9Z"/>
</g></svg>