<svg xmlns="http://www.w3.org/2000/svg" data-laicon-version="15.0" viewBox="0 0 20 20" fill="black"><g transform="translate(-2 -2)">
  <path d="M5.0007 5v14h13.999V5H5.0007Zm-1.8-.4c0-.7732.6268-1.4 1.4-1.4h14.799c.7732 0 1.4.6268 1.4 1.4v14.8c0 .7732-.6268 1.4-1.4 1.4H4.6007c-.7732 0-1.4-.6268-1.4-1.4V4.6Z"/>
  <path d="M7.9517 7.8922h8.0244v2.4404h-1.8v-.6404H9.7517v.6404h-1.8V7.8922Z"/>
  <path d="M11.064 15.5515V8.7922h1.8v6.7593h-1.8Z"/>
  <path d="M13.3172 16.4515h-2.678v-1.8h2.678v1.8Z"/>
</g></svg>