<svg xmlns="http://www.w3.org/2000/svg" data-laicon-version="15.0" viewBox="0 0 20 20" fill="black"><g transform="translate(-2 -2)">
  <path d="M16.1998 17.7999h-8.4v-1.8h8.4v1.8Zm-5.43-8.7701h-2.97v-1.8h2.97v1.8ZM16.2 9.03h-2.97v-1.8h2.97v1.8Z"/>
  <path d="m15.6144 8.0883.0456 3.4971c.0076 1.1369-.2978 2.1151-.9938 2.805-.6931.6869-1.6372.9528-2.6274.9528-.9281 0-1.8649-.2373-2.5757-.8907-.7247-.6662-1.0783-1.6388-1.0783-2.8227V8.127h1.7999v3.5028c0 .8251.2373 1.2592.4965 1.4975.2732.2511.7134.4159 1.3576.4159.6852 0 1.1082-.1815 1.3603-.4313.2487-.2465.466-.6934.4609-1.5116l-.0454-3.4885 1.7998-.0235Z"/>
  <path d="M5.0007 5v14h13.999V5H5.0007Zm-1.8-.4c0-.7731.6268-1.4 1.4-1.4h14.799c.7731 0 1.4.6269 1.4 1.4v14.8c0 .7732-.6269 1.4-1.4 1.4H4.6007c-.7732 0-1.4-.6268-1.4-1.4V4.6Z"/>
</g></svg>