<svg xmlns="http://www.w3.org/2000/svg" data-laicon-version="15.0" viewBox="0 0 20 20" fill="black"><g transform="translate(-2 -2)">
  <path d="M13.6619 5.4824v2.1675a.8982.8982 0 0 1-.8515.897c-6.4628.3345-9.0079 4.7537-9.0079 7.0395a.8817.8817 0 0 1-.0008.0382c-.0221.5195.0552 1.0131.1806 1.4569.8164-1.5725 2.2147-2.5905 3.5573-3.2329 1.9094-.9136 3.8557-1.151 4.3648-1.1959a9.856 9.856 0 0 0 .2715-.0283l.0297-.0035a6.43 6.43 0 0 1 .2081-.0221c.0672-.0055.1976-.0148.3398.0065.1602.024.4128.0985.617.3311.187.2129.2321.4465.2471.5588.0154.1155.0131.2268.0113.2918a9.4209 9.4209 0 0 1-.0061.1605 7.3377 7.3377 0 0 0-.0088.3562v1.6152a.063.063 0 0 0 .011.0244.1148.1148 0 0 0 .0451.0402.059.059 0 0 0 .0391.0047c.0166-.0028.0801-.0176.1804-.1084a.8278.8278 0 0 1 .0376-.0322l6.2608-5.0677a.3378.3378 0 0 0 .0136-.0821l-6.4985-5.2634a.2013.2013 0 0 0-.0386.0427c-.0011.0017-.0019.004-.0026.0053ZM4.1974 19.5093c-.6977.5653-.698.565-.6981.5648l-.0013-.0017-.0023-.0027-.006-.0075-.0176-.0226a4.1927 4.1927 0 0 1-.0566-.0749 6.0648 6.0648 0 0 1-.1831-.2633 7.8262 7.8262 0 0 1-.5277-.9388c-.3718-.7817-.749-1.9042-.6981-3.1955.0125-3.2095 3.1465-8.034 9.8593-8.7468V5.4705c0-.7342.4471-1.2816.8988-1.5708.4112-.2633 1.136-.4931 1.7763-.0898a.895.895 0 0 1 .0866.062l6.752 5.4689c.5165.3735.6237.9888.6181 1.3733-.0061.42-.1439.9528-.5274 1.3327a.9088.9088 0 0 1-.067.0601l-6.329 5.1227c-.6647.589-1.4832.7012-2.168.3794-.6322-.297-1.0883-.9477-1.0883-1.6891v-1.4517c-.6425.0796-2.0995.3288-3.5032 1.0005-1.6223.7762-3.0219 2.0321-3.2235 4.1266a.8979.8979 0 0 1-1.592.4788l.6981-.5648Z"/>
</g></svg>