<svg xmlns="http://www.w3.org/2000/svg" data-laicon-version="15.0" viewBox="0 0 20 20" fill="black"><g transform="translate(-2 -2)">
  <path d="M8.4976 16.2169a.9.9 0 0 0 1.2298-.328c.4548-.7857 1.3027-1.3112 2.2724-1.3112.9698 0 1.8177.5255 2.2724 1.3112a.9.9 0 0 0 1.5578-.9018c-.7634-1.3189-2.1923-2.2094-3.8302-2.2094-1.6378 0-3.0668.8905-3.8302 2.2094a.9.9 0 0 0 .328 1.2298ZM14.7773 9.0464c-.6902 0-1.25.5596-1.25 1.25s.5598 1.25 1.25 1.25c.6904 0 1.25-.5596 1.25-1.25s-.5596-1.25-1.25-1.25Zm-5.5542 0c-.6903 0-1.25.5596-1.25 1.25s.5597 1.25 1.25 1.25 1.25-.5596 1.25-1.25-.5597-1.25-1.25-1.25Z"/>
  <path d="M12 4.3c-4.2526 0-7.7 3.4474-7.7 7.7s3.4474 7.7 7.7 7.7 7.7-3.4474 7.7-7.7-3.4474-7.7-7.7-7.7ZM2.5 12c0-5.2467 4.2533-9.5 9.5-9.5s9.5 4.2533 9.5 9.5-4.2533 9.5-9.5 9.5-9.5-4.2533-9.5-9.5Z"/>
</g></svg>