<svg xmlns="http://www.w3.org/2000/svg" data-laicon-version="15.3" viewBox="0 0 20 20" fill="black"><g transform="translate(-2 -2)">
  <path d="M14.98 10.25h.88c.04 0 .08.01.11.04s.04.11.04.11v3.21c0 .04-.01.08-.04.11s-.11.04-.11.04h-.88a.15.15 0 0 1-.11-.04c-.03-.03-.04-.11-.04-.11V10.4c0-.04.01-.08.04-.11s.11-.04.11-.04Zm-4.9.11a.156.156 0 0 0-.06-.08.169.169 0 0 0-.1-.03h-.7s-.07 0-.1.03c-.03.02-.05.05-.06.08l-1.31 3.22s-.02.09 0 .14c.03.04.08.06.13.06h.91s.07 0 .1-.03c.03-.02.05-.05.06-.09l.13-.39h.96l.13.39s.03.07.06.09c.03.02.07.03.1.03h.92s.1-.02.13-.06a.12.12 0 0 0 0-.14l-1.31-3.22h.01Zm-.7 1.97.17-.51.17.51h-.34Zm2.36-2.08h1.21l-.01-.01c.5 0 .89.11 1.16.34.27.23.4.58.4 1.02 0 .44-.13.79-.4 1.02-.27.23-.66.34-1.16.34h-.19v.65c0 .04-.01.08-.04.11s-.11.04-.11.04h-.86a.15.15 0 0 1-.11-.04c-.03-.03-.04-.11-.04-.11V10.4c0-.04.01-.08.04-.11s.11-.04.11-.04Zm1.19.98h-.17v.76h.17c.12 0 .21-.03.27-.08.06-.05.1-.14.1-.3 0-.16-.04-.25-.1-.3a.414.414 0 0 0-.27-.08Z"/>
  <path d="m19.29 12.77 1.52 1.18-.03.01c.5.38.63 1.09.32 1.63l-1.44 2.5c-.31.54-1.01.78-1.58.54l-1.76-.71c-.42.31-.88.58-1.36.79l-.27 1.9a1.28 1.28 0 0 1-1.26 1.09h-2.89c-.63 0-1.17-.47-1.26-1.09l-.26-1.89c-.48-.21-.94-.47-1.36-.78l-1.78.72c-.61.24-1.28-.01-1.58-.54l-1.45-2.5c-.31-.54-.17-1.24.32-1.63l1.5-1.17c-.02-.27-.04-.54-.04-.81 0-.25.01-.5.04-.76l-1.51-1.18c-.49-.38-.63-1.08-.32-1.63l1.45-2.5c.31-.54 1.01-.77 1.58-.54l1.76.71c.42-.31.88-.58 1.36-.79l.27-1.9c.09-.62.63-1.09 1.26-1.09h2.89c.63 0 1.17.47 1.26 1.09l.26 1.88c.49.21.95.47 1.37.78l1.78-.72c.54-.23 1.27 0 1.58.54l1.44 2.5c.31.54.18 1.24-.32 1.63l-1.5 1.17c.03.27.05.54.05.81 0 .25-.01.5-.04.76Zm-3.23 3.1 2.29.92.01.02.98-1.7-1.95-1.52.11-.89a5.364 5.364 0 0 0-.01-1.37l-.12-.9 1.94-1.52-.98-1.7-2.3.93-.72-.54c-.37-.27-.77-.5-1.19-.68l-.83-.35-.34-2.44h-1.97l-.34 2.45-.83.35c-.42.18-.82.41-1.18.69l-.72.55-2.29-.93-.98 1.7 1.95 1.52-.11.89c-.03.22-.04.44-.04.67 0 .23.02.47.05.7l.11.89-1.94 1.52.98 1.7 2.3-.93.72.54c.37.27.77.5 1.19.68l.83.35.34 2.44h1.97l.34-2.45.83-.35c.42-.18.82-.41 1.18-.69l.72-.55Z"/>
</g></svg>