<svg xmlns="http://www.w3.org/2000/svg" data-laicon-version="15.0" viewBox="0 0 20 20" fill="black"><g transform="translate(-2 -2)">
  <path d="M8.67 12c0 1.84 1.4899 3.33 3.3299 3.33 1.83 0 3.3299-1.49 3.3299-3.33s-1.4999-3.33-3.3299-3.33c-1.83 0-3.33 1.49-3.33 3.33Zm1.7998 0c0-.84.6901-1.53 1.5301-1.53s1.53.69 1.53 1.53c0 .84-.69 1.5299-1.53 1.5299-.84 0-1.5301-.6899-1.5301-1.5299Z"/>
  <path d="M10.5698 21.6999h2.89c.62 0 1.15-.4499 1.26-1.0899l.27-1.9101c.47-.21.92-.4699 1.36-.7899l1.73.7c.55.25 1.26.04 1.61-.53l1.44-2.51c.31-.55.1801-1.23-.3199-1.63l-1.52-1.1801.0037-.0479c.0186-.2418.0362-.4687.0362-.722 0-.27-.0099-.5301-.0399-.8101l1.51-1.18c.48-.38.6199-1.08.3099-1.62l-1.4499-2.52c-.24-.38-.6401-.61-1.0901-.61-.18 0-.36.03-.48.09l-1.7799.72c-.43-.31-.8901-.57-1.3601-.78l-.26-1.86c-.07-.64-.61-1.12-1.25-1.12h-2.8899c-.62 0-1.15.45-1.26 1.1l-.26 1.9c-.49.22-.95.48-1.37.79l-1.73-.7c-.55-.25-1.2601-.04-1.6101.53l-1.44 2.5c-.3.54-.17 1.24.32 1.6301l1.52 1.19c-.02.25-.04.51-.04.76 0 .27.01.5399.04.8099l-1.51 1.1801c-.48.39-.62 1.0899-.31 1.6299l1.45 2.53c.24.38.65.61 1.09.61.18 0 .36-.03.48-.09l1.78-.72c.43.31.89.57 1.36.78l.26 1.8501c.06.64.6 1.1199 1.25 1.1199Zm2.44-1.8h-1.9699v.03l-.3501-2.4399-.83-.3501c-.42-.17-.82-.3999-1.19-.6799l-.72-.5401-2.29.9301-.98-1.7101 1.94-1.52-.11-.8799v-.0014c-.02-.2396-.04-.4791-.04-.7186 0-.23.02-.45.05-.69l.09-.8801-1.94-1.52.98-1.7 2.29.93.72-.55c.35-.28.75-.51 1.18-.69l.8301-.35.3399-2.45h1.97l.35 2.44.8301.35c.41.17.8099.4 1.1899.68l.72.54 2.29-.93.98 1.71-1.94 1.52.11.88c.02.23.0401.4701.0401.7101 0 .22-.0201.4499-.0401.6599l-.12.8901 1.96 1.5199-.98 1.7-2.29-.9299-.71.55c-.38.28-.7799.51-1.1999.69l-.8101.3499-.35 2.45Zm-7.76-2.9099s-.03.0099-.05.0199l.05-.0199ZM18.81 6.98l-.0501.02s.0301-.01.0501-.02Z"/>
</g></svg>