<svg xmlns="http://www.w3.org/2000/svg" data-laicon-version="15.0" viewBox="0 0 20 20" fill="black"><g transform="translate(-2 -2)">
  <path d="M9.9087 3.1239a.9.9 0 0 1 .8825-.7235h2.4185a.9.9 0 0 1 .8825.7235l.2824 1.4123a7.7716 7.7716 0 0 1 1.2241.508l1.1993-.7995a.9.9 0 0 1 1.1356.1124l1.7101 1.7101a.9.9 0 0 1 .1124 1.1357l-.7993 1.199c.2022.3899.3727.799.5079 1.2242l1.4121.2825a.9.9 0 0 1 .7235.8825v2.4185a.9.9 0 0 1-.7235.8825l-1.4121.2824a7.7757 7.7757 0 0 1-.5079 1.2243l.7993 1.1991a.9.9 0 0 1-.1124 1.1356l-1.7101 1.7101a.9.9 0 0 1-1.1356.1125l-1.1993-.7995a7.7696 7.7696 0 0 1-1.2241.5079l-.2824 1.4122a.9.9 0 0 1-.8825.7235h-2.4185a.9.9 0 0 1-.8825-.7234l-.2825-1.4122a7.7767 7.7767 0 0 1-1.2242-.508l-1.199.7994a.9.9 0 0 1-1.1357-.1124l-1.7101-1.7101a.9.9 0 0 1-.1125-1.1356l.7994-1.1991a7.7903 7.7903 0 0 1-.508-1.2243l-1.4122-.2824a.9.9 0 0 1-.7235-.8825v-2.4185a.9.9 0 0 1 .7235-.8825l1.4123-.2825a7.7836 7.7836 0 0 1 .5078-1.2242l-.7993-1.199a.9.9 0 0 1 .1125-1.1357l1.7101-1.71a.9.9 0 0 1 1.1356-.1125l1.1991.7993a7.7834 7.7834 0 0 1 1.2242-.5078l.2825-1.4123Zm1.6203 1.0765-.2463 1.2313a.8999.8999 0 0 1-.6755.6993c-.635.15-1.23.4005-1.771.7346a.9.9 0 0 1-.9721-.017l-1.0457-.697-.6667.6667.697 1.0457a.9.9 0 0 1 .017.9721 5.99 5.99 0 0 0-.7348 1.7711.9.9 0 0 1-.6993.6754l-1.2312.2463v.9428l1.231.2462a.9.9 0 0 1 .6994.6753 5.9952 5.9952 0 0 0 .7349 1.7715.9.9 0 0 1-.017.972l-.697 1.0457.6666.6667 1.0457-.6972a.9.9 0 0 1 .9723-.0169 5.9831 5.9831 0 0 0 1.7709.7347.9.9 0 0 1 .6755.6994l.2463 1.2311h.9429l.2462-1.2311a.8998.8998 0 0 1 .6754-.6993 5.9831 5.9831 0 0 0 1.7709-.7348.8999.8999 0 0 1 .9722.0169l1.0459.6972.6667-.6667-.6972-1.0457a.9.9 0 0 1-.0168-.9721 5.9884 5.9884 0 0 0 .7347-1.7712.9.9 0 0 1 .6994-.6755l1.231-.2461v-.9429l-1.2311-.2463a.8997.8997 0 0 1-.6992-.6754 5.9872 5.9872 0 0 0-.7348-1.771.9002.9002 0 0 1 .0168-.9722l.6972-1.0457-.6667-.6667-1.0459.6973a.9.9 0 0 1-.9722.0168 5.9843 5.9843 0 0 0-1.7709-.7347.9.9 0 0 1-.6754-.6994l-.2462-1.2312h-.9429Z"/>
  <path d="M12.0004 9.7905c-1.2204 0-2.2097.9893-2.2097 2.2097 0 1.2204.9893 2.2097 2.2097 2.2097 1.2204 0 2.2097-.9893 2.2097-2.2097 0-1.2204-.9893-2.2097-2.2097-2.2097Zm-4.0097 2.2097c0-2.2145 1.7952-4.0097 4.0097-4.0097 2.2145 0 4.0097 1.7952 4.0097 4.0097 0 2.2145-1.7952 4.0097-4.0097 4.0097-2.2145 0-4.0097-1.7952-4.0097-4.0097Z"/>
</g></svg>