<svg xmlns="http://www.w3.org/2000/svg" data-laicon-version="15.0" viewBox="0 0 20 20" fill="black"><g transform="translate(-2 -2)">
  <path d="M8.597 14.7344c-.518 0-.973-.112-1.365-.336-.3873-.224-.6907-.5343-.91-.931-.2147-.4013-.322-.868-.322-1.4 0-.3967.0653-.7583.196-1.085s.3127-.6067.546-.84c.238-.238.5157-.42.833-.546.322-.1307.6697-.196 1.043-.196.56 0 1.036.1213 1.428.364.3967.2427.6813.588.854 1.036.0327.0793.0093.126-.07.14l-1.071.294c-.0607.014-.1073-.007-.14-.063a1.0406 1.0406 0 0 0-.413-.378c-.1727-.0887-.3617-.133-.567-.133-.392 0-.7047.126-.938.378-.2333.2473-.35.5927-.35 1.036s.119.7887.357 1.036c.238.2473.5483.371.931.371.2987 0 .5483-.0653.749-.196s.3197-.322.357-.574h-.987c-.0747 0-.112-.0373-.112-.112v-.749c0-.0747.0373-.112.112-.112h2.191c.0747 0 .112.0373.112.112v.602c0 .4293-.0957.8167-.287 1.162-.1867.3453-.4643.6183-.833.819-.364.2007-.812.301-1.344.301Zm3.5648-.098c-.0747 0-.112-.0373-.112-.112v-4.914c0-.0747.0373-.112.112-.112h1.085c.0747 0 .112.0373.112.112v4.914c0 .0747-.0373.112-.112.112h-1.085Zm2.4434 0c-.0747 0-.112-.0373-.112-.112v-4.914c0-.0747.0373-.112.112-.112h3.269c.0747 0 .112.0373.112.112v.945c0 .07-.0373.105-.112.105h-2.072v.987h1.736c.0747 0 .112.0373.112.112v.945c0 .07-.0373.105-.112.105h-1.736v1.715c0 .0747-.0373.112-.112.112h-1.085Z"/>
  <path d="M4.1592 5.944a.347.347 0 0 0-.347.347v11.4219a.347.347 0 0 0 .347.347h15.706a.347.347 0 0 0 .347-.347V6.2909a.347.347 0 0 0-.347-.347H4.1592Zm-2.147.347c0-1.1858.9613-2.147 2.147-2.147h15.706c1.1857 0 2.147.9612 2.147 2.147v11.4219c0 1.1858-.9613 2.147-2.147 2.147H4.1592c-1.1858 0-2.147-.9612-2.147-2.147V6.2909Z"/>
</g></svg>