<svg xmlns="http://www.w3.org/2000/svg" data-laicon-version="18.8" viewBox="0 0 20 20" fill="black"><g transform="translate(-2 -2)">
  <path d="M14.63 4.106 13.498 5.24h4.545c.384.003.752.141 1.042.384l.12.111.107.121c.237.294.367.66.37 1.039v5.995a4.986 4.986 0 0 0-1.424-.283L18 12.601l-.12.002v-1.266h-5.927v6.678h1.066c.052.642.226 1.249.499 1.8H4.07a1.64 1.64 0 0 1-1.164-.495 1.671 1.671 0 0 1-.474-1.163L2.41 6.902v-.007c.003-.432.173-.849.477-1.16l.12-.111c.29-.243.657-.381 1.042-.384h4.56L7.474 4.106l1.273-1.274 2.305 2.306 2.305-2.306 1.273 1.274ZM4.234 18.015h5.92v-6.678H4.22l.013 6.678Zm-.017-8.479h5.936V7.041H4.211l.005 2.495Zm7.737 0h5.928V7.041h-5.928v2.495Z"/>
  <path d="M18 13.6a4 4 0 1 1 0 8 4 4 0 0 1 0-8Zm-.059 2.117-.353.354 1.03 1.03h-2.794v1h2.792l-1.028 1.027.353.354.355.353L20.53 17.6l-.353-.354-1.882-1.882-.355.353Z"/>
</g></svg>