<svg xmlns="http://www.w3.org/2000/svg" data-laicon-version="18.8" viewBox="0 0 20 20" fill="black"><g transform="translate(-2 -2)">
  <path d="M14.63 4.106 13.498 5.24h4.545c.384.003.752.141 1.042.384l.12.111.107.121c.237.294.367.66.37 1.039v5.995a4.986 4.986 0 0 0-1.424-.283L18 12.601l-.12.002v-1.265h-5.927v6.677h1.066c.052.642.226 1.249.499 1.8H4.07a1.64 1.64 0 0 1-1.164-.495 1.671 1.671 0 0 1-.474-1.163L2.41 6.902v-.007c.003-.432.173-.849.477-1.16l.12-.111c.29-.243.657-.381 1.042-.384h4.56L7.474 4.106l1.273-1.273 2.305 2.305 2.305-2.305 1.273 1.273ZM4.234 18.015h5.92v-6.677H4.22l.013 6.677Zm-.017-8.478h5.936V7.041H4.211l.005 2.496Zm7.737 0h5.928V7.041h-5.928v2.496Z"/>
  <path d="M18 13.6a4 4 0 1 0 0 8 4 4 0 0 0 0-8Zm.183 2.117.353.354-1.03 1.03H20.3v1h-2.792l1.028 1.027-.353.354-.355.353-2.235-2.235.353-.354 1.882-1.882.355.353Z"/>
</g></svg>