<svg xmlns="http://www.w3.org/2000/svg" data-laicon-version="15.0" viewBox="0 0 20 20" fill="black"><g transform="translate(-2 -2)">
  <path d="M2.8501 7.85c0-1.6017 1.2984-2.9 2.9-2.9h12.5c1.6016 0 2.9 1.2983 2.9 2.9v10c0 1.6016-1.2984 2.9-2.9 2.9h-12.5c-1.6016 0-2.9-1.2984-2.9-2.9v-10Zm2.9-1.1c-.6075 0-1.1.4924-1.1 1.1v10c0 .6075.4925 1.1 1.1 1.1h12.5c.6075 0 1.1-.4925 1.1-1.1v-10c0-.6076-.4925-1.1-1.1-1.1h-12.5Z"/>
  <path d="M11.0977 19.3499v-13.5h1.8v13.5h-1.8Z"/>
  <path d="m8.1636 3.2864 1.2727-1.2729L12 4.5771l2.5636-2.5635 1.2728 1.2728L12 7.1227 8.1636 3.2864Z"/>
</g></svg>