<svg xmlns="http://www.w3.org/2000/svg" data-laicon-version="15.0" viewBox="0 0 20 20" fill="black"><g transform="translate(-2 -2)">
  <path d="M12 2.5c-5.24 0-9.5 4.26-9.5 9.5s4.26 9.5 9.5 9.5 9.5-4.26 9.5-9.5-4.26-9.5-9.5-9.5Zm7.01 9.55c-.58-.18-.94-.36-1.12-.64-.16-.23-.18-.61.07-1.08.25-.47.65-.79.98-.88.02 0 .06 0 .09-.01h.03c.33.94.53 1.82.57 2.77-.11-.03-.22-.06-.32-.08-.08-.02-.3-.08-.3-.08Zm-7.8-4.34c-.4.19-.83.45-1.1.87-.24.38-.19.76-.05 1.07-.46-.12-.9 0-1.13.07-.36.1-1.12.31-1.43 1.06-.02.05-.05.14-.08.26-.3-.25-.57-.52-.81-.84-.39-.53-.76-1.1-1.11-1.72.12-.4.35-1 .66-1.49.33-.38.69-.73 1.09-1.04.23-.15.45-.27.64-.36.48.43 1.26.91 2.5.35.69-.31 1.02-.8 1.13-1.31.28.18.56.43.67.7.09.31-.04.51-.47.96-.27.27-.57.58-.58 1.05 0 .15.02.27.07.39v-.02ZM4.3 12c0-.64.09-1.26.23-1.85.23.37.47.72.72 1.05.91 1.24 2.14 1.9 3.23 2.49.04.02.09.04.13.06.37.12.7.34.92.54.05.06.1.11.15.15.09.1.14.2.15.26.02.17.01.34 0 .52-.01.37-.03.78.11 1.23.14.46.42.77.64 1.03.12.14.23.26.28.37.15.31.22.68.23 1.11v.68C7.27 19.19 4.3 15.94 4.3 12Zm9.38 4.6c-.29.49-.57 1.4-.61 1.51 0 0-.17.44-.29.77-.01-.66-.15-1.25-.39-1.76-.15-.32-.36-.56-.54-.76-.14-.16-.26-.29-.29-.41-.05-.17-.04-.4-.03-.67 0-.26.02-.52-.01-.78 0-.07-.02-.13-.03-.2.1-.05.21-.1.23-.11.53-.02 1.78-.09 1.79-.09.2-.01 1.05.03 1.19.51.03.16-.05.66-.14.85-.07.14-.2.29-.35.46-.17.19-.36.41-.52.68h-.01Zm.76 2.69c.1-.28.22-.58.23-.62.11-.36.33-.98.47-1.22.07-.13.19-.25.32-.4.2-.23.44-.49.61-.85.21-.42.47-1.46.22-2.15-.41-1.42-2.01-1.71-2.89-1.65 0 0-1.24.07-1.76.09-.37.02-.71.18-1.01.33-.14-.23-.36-.53-.78-.84-.23-.17-.44-.27-.62-.35a1.5103 1.5103 0 0 1-.18-.09c0-.04 0-.08-.02-.07.05-.04.25-.1.35-.12l.1-.03c.04-.01.07-.02.1-.03.86.86 1.91.08 2.26-.18.23-.17.38-.42.42-.71.06-.47-.19-.83-.42-1.13.13-.06.26-.12.35-.16.42-.18.84-.37 1-.83.13-.39.02-.71-.14-.96.44-.46 1.11-1.3.74-2.56-.04-.1-.1-.2-.15-.29 2.01.44 3.72 1.67 4.8 3.34-.88.25-1.61.94-2.01 1.71-.42.8-.6 1.9.03 2.83.54.8 1.42 1.12 2.03 1.3.1.03.55.15.94.24a7.7018 7.7018 0 0 1-5.01 5.38l.02.02Z"/>
</g></svg>