<svg xmlns="http://www.w3.org/2000/svg" data-laicon-version="18.11" viewBox="0 0 20 20" fill="black"><g transform="translate(-2 -2)">
  <path d="M9.52 7.43c-.13.25-.48.7-.83.92-.25.16-.51.21-.75.06-.54-.34-.1-.85-.1-.85l.89-.89s.26-.27.53-.16c.32.13.39.64.26.91ZM21.5 12c0 5.24-4.26 9.5-9.5 9.5S2.5 17.24 2.5 12 6.76 2.5 12 2.5s9.5 4.26 9.5 9.5Zm-3.57-.6s-.09.05-.14.08c.23.45.59.9.77.96.1.01.19.04.28.08v-.43c0-.17.05-.34.14-.48l.6-.91c-.5-2.89-2.6-5.24-5.36-6.07-.17-.04-.31-.07-.41-.08-.66.3-1.31.74-1.41.96-.1.27-.06.61-.02.93.04.31.08.64 0 .96-.23.87-.76 1.19-1.08 1.39-.19.11-.22.14-.25.21-.13.41.24.54.42.6.06.02.07.02.31-.08.34-.15.91-.4 1.7-.15.26.08.43.22.54.36.12-.21.33-.53.77-.7l.89-.47c.33-.18.74-.11 1.01.16.26.27.32.68.13 1.01.13.05.44.08.66.05.43-.05.82.21.93.62.11.41-.09.84-.48 1Zm-2.74 4.48c-.41-.21-.84-.59-1.08-1.28-.05-.13-.06-.28-.04-.42-.35.18-.84.26-1.41-.12-.35-.24-.54-.46-.68-.67-.31.02-.52 0-.7-.01-.05 0-.07-.02-.13 0 0 0-.06.05-.21.17-.25.22-.37.38-.42.47.05.65.14 1.41.22 1.62.08.08.56.23.87.33l.16.05c.82.26 1.17.51 1.26.58.16.13.27.31.31.52.11.63.29 1.32.4 1.58-.04-.62.25-.95.57-1.12.16-.08.31-.12.45-.14-.02-.24-.07-.44-.09-.53-.11-.43.12-.87.52-1.02Zm3.54-.15c-.25-.08-.45-.28-.54-.53l-.42-1.25c-.81-.41-1.35-1.39-1.55-1.8-.18-.3-.25-.63-.2-.95-.16-.09-.31-.21-.44-.36-.05-.06-.1-.12-.14-.18-.16.28-.48.79-1.34.87-.64.06-1.09-.13-1.35-.55-.08.01-.17.05-.3.11-.34.15-.85.37-1.54.13-.82-.28-1.21-.79-1.38-1.16-.38-.82-.08-1.64-.05-1.73.28-.59.67-.82.92-.98.23-.14.27-.16.33-.38 0-.02-.02-.19-.04-.31-.06-.46-.13-1.08.12-1.75.07-.2.2-.38.35-.55-3.85.42-6.86 3.69-6.86 7.65 0 4.25 3.45 7.7 7.7 7.7.12 0 .24-.01.36-.02-.28-.43-.49-1.24-.62-1.88-.11-.05-.27-.11-.48-.18l-.15-.05c-.77-.24-1.65-.52-1.96-1.38-.2-.56-.3-1.88-.33-2.26v-.18c.03-.22.2-.81 1.02-1.51.63-.54 1.01-.61 1.58-.56.11 0 .25.02.46 0 .84-.06 1.19.23 1.47.69.03.06.06.1.1.14.25-.24.74-.68 1.47-.48.76.21 1.08 1.03.87 2.18.12.17.29.22.6.26.12.02.23.04.31.06.35.1.63.32.78.63.17.33.18.73.03 1.12-.14.38-.5.69-1.08.95.03.24.04.52.02.8 0 .1-.04.18-.07.26.96-.67 1.76-1.55 2.33-2.58Z"/>
</g></svg>