<svg xmlns="http://www.w3.org/2000/svg" data-laicon-version="15.0" viewBox="0 0 20 20" fill="black"><g transform="translate(-2 -2)">
  <path d="M12 2.5c-5.2 0-9.5 4.3-9.5 9.5s4.3 9.5 9.5 9.5 9.5-4.3 9.5-9.5-4.3-9.5-9.5-9.5Zm0 1.8c.6 0 1.1.1 1.7.2l-1.9 1.6c-.2.2-.3.4-.3.7 0 .3.1.5.4.7l.6.4v1.9c-.2 0-.5.1-.6.4l-.7 1c-.3-.1-.7 0-.9.3l-.6.7c-.3.3-.3.9.1 1.2l.4.4h-.6l-.9-2.1c-.1-.3-.3-.4-.6-.5-.3-.1-.6 0-.8.2l-1 1h-2v-.3c0-4.3 3.5-7.8 7.7-7.8ZM4.6 14h2.1c.2 0 .4-.1.6-.2l.3-.3.7 1.5c.1.3.4.5.8.5h1.6c.2 0 .4-.1.5-.2l.5-.4c.2-.1.3-.3.3-.5l.1-.6c0-.3 0-.5-.2-.7.1-.1.2-.1.2-.2l.7-1 .1.1c.3.1.6.1.8-.1.2-.2.4-.4.4-.7V7.4c0-.3-.1-.5-.4-.7l1.8-1.5C18 6.4 19.7 9 19.7 12c0 .8-.1 1.6-.4 2.3l-.2-.7c-.1-.3-.3-.5-.6-.6-.3-.1-.6 0-.8.2l-.1.1c-.1-.1-.2-.2-.4-.3H16c-.2 0-.4.1-.5.2l-.9.7-1.1.5c-.1 0-.2.1-.3.2l-.6.4c-.2.2-.2.4-.2.6v.9c0 .3.1.5.3.7l1.2 1c.2.2.5.2.8.2l.8-.3.4.5c-1.2.7-2.5 1.1-4 1.1-3.4 0-6.4-2.4-7.3-5.7Zm11.8 1.8c.3.2.6.2.9 0l.7-.4.3.6-.1.3-.3.5-.4.5h-.3l-.6-.6c-.2-.3-.6-.4-.9-.3l-.9.3-.6-.5V16l.2-.2 1.1-.4c.1 0 .1-.1.2-.1l.5-.3v.2c-.2.2-.1.5.2.6Z"/>
</g></svg>