<svg xmlns="http://www.w3.org/2000/svg" data-laicon-version="15.0" viewBox="0 0 20 20" fill="black"><g transform="translate(-2 -2)">
  <path d="m6.9499 15.8105 5.0228 2.9 5.0228-2.9v-4.5209h1.8v5.0405a.8998.8998 0 0 1-.45.7795l-5.9228 3.4194a.8988.8988 0 0 1-.45.1206.8988.8988 0 0 1-.45-.1206l-5.9228-3.4194a.9004.9004 0 0 1-.45-.7795v-5.0405h1.8v4.5209Z"/>
  <path d="M11.5286 3.2205a.9.9 0 0 1 .9 0l9.0287 5.2127a.9.9 0 0 1 0 1.5589l-9.0287 5.2128a.9003.9003 0 0 1-.9 0L2.4998 9.9922a.9.9 0 0 1 0-1.559l9.0288-5.2127ZM4.7498 9.2127l7.2288 4.1736 7.2287-4.1737-7.2287-4.1734-7.2287 4.1734Z"/>
  <path d="M20.1074 14.1599V9.2126h1.8V14.16h-1.8Z"/>
</g></svg>