<svg xmlns="http://www.w3.org/2000/svg" data-laicon-version="18.12" viewBox="0 0 20 20" fill="black"><g transform="translate(-2 -2)">
  <path d="M12.055 2.191c.86 0 1.605.495 1.968 1.214.175-.056.358-.092.545-.103.018-.002.036-.001.054-.001h.002c1.175 0 2.157.843 2.237 2.028h.002l.036.413a2.112 2.112 0 0 1 .478-.068h.002c1.129 0 2.076.805 2.168 1.941l.012.094.001.01c.276 2.498.47 4.4.543 5.346.104 1.322.128 3.394-1.002 5.407l-.242.403c-1.614 2.506-4.417 2.968-6.282 2.968-2.142 0-4.4-1.006-5.798-2.593-.908-1.033-2.405-2.896-3.284-3.99l-.002-.003-.005-.006-.019-.024-.066-.082-.209-.26c-.16-.2-.329-.409-.383-.474l-.002-.002c-.818-.995-.965-2.592.077-3.535l.004-.004c.427-.38.963-.584 1.535-.584.677 0 1.304.288 1.786.749l.33.286.654-6.193a2.205 2.205 0 0 1 2.196-2.029l.043.001c.258.013.506.065.738.153a2.214 2.214 0 0 1 1.883-1.062Zm0 1.8a.409.409 0 0 0-.406.434l-.054 1.17v.016l-.16 5.157a.9.9 0 0 1-1.8-.055l.16-5.157v-.184c0-.015 0-.03.002-.046a.383.383 0 0 0-.1-.283.46.46 0 0 0-.326-.142.405.405 0 0 0-.383.367l-.003.048-.834 7.91a.9.9 0 0 1-1.484.586l-1.635-1.418a.891.891 0 0 1-.046-.043c-.194-.194-.399-.264-.561-.264-.13 0-.238.04-.332.122l-.051.063c-.115.18-.177.583.156.99l.398.495.211.261.067.083.018.024.005.006h.001c.89 1.11 2.357 2.934 3.233 3.93 1.048 1.19 2.81 1.982 4.446 1.983 1.674 0 3.663-.427 4.769-2.144.917-1.426 1.044-2.96.994-4.187l-.03-.507c-.072-.912-.262-2.783-.538-5.279l-.01-.093a.873.873 0 0 1-.006-.063.283.283 0 0 0-.093-.202.404.404 0 0 0-.26-.094.324.324 0 0 0-.275.258l-.004.057.002.044v.438l.203 3.236a.9.9 0 0 1-1.797.113L15.33 8.4v-.006l-.26-2.906-.003-.032c-.009-.17-.134-.344-.417-.355a.377.377 0 0 0-.185.073l-.055.05a.374.374 0 0 0-.097.257l.002.045v.018l.001.011.16 5.157a.9.9 0 0 1-1.8.055l-.16-5.157v-.015l-.039-.82-.01-.24-.003-.067-.001-.021-.002-.05a.407.407 0 0 0-.406-.406Z"/>
</g></svg>