<svg xmlns="http://www.w3.org/2000/svg" data-laicon-version="15.0" viewBox="0 0 20 20" fill="black"><g transform="translate(-2 -2)">
  <path d="M11.9999 5.3736c-.8274 0-1.4982.6708-1.4982 1.4982h-1.8c0-1.8216 1.4766-3.2982 3.2982-3.2982s3.2982 1.4767 3.2982 3.2982c0 1.5096-1.0141 2.7821-2.3982 3.1738v1.917h-1.8V9.2699a.9.9 0 0 1 .9-.9c.8275 0 1.4982-.6707 1.4982-1.498 0-.8275-.6708-1.4983-1.4982-1.4983Z"/>
  <path d="M11.4232 11.2716a.8998.8998 0 0 1 1.1532 0l9.0651 7.5638a.8999.8999 0 0 1-.5766 1.591H2.9347a.9.9 0 0 1-.5766-1.591l9.0651-7.5638Zm-6.005 7.3548h13.1633l-6.5817-5.4917-6.5817 5.4917Z"/>
</g></svg>