<svg xmlns="http://www.w3.org/2000/svg" data-laicon-version="15.0" viewBox="0 0 20 20" fill="black"><g transform="translate(-2 -2)">
  <path d="M16.8 9.8c-.5-.5-1.2-.7-2.1-.7h-1.9c-.2 0-.3.1-.3.3v4.9c0 .2.1.3.3.3h1.9c.9 0 1.6-.2 2.1-.7.5-.5.7-1.2.7-2 0-.9-.2-1.6-.7-2.1Zm-2.6.9h.4c.4 0 .7.1.9.3.2.2.3.5.3.9s-.1.7-.3.9c-.2.1-.5.2-.9.2h-.4v-2.3Z"/>
  <path d="M19.4002 20.8h-14.8c-.8 0-1.4-.6-1.4-1.4V4.6c0-.8.6-1.4 1.4-1.4h14.8c.8 0 1.4.6 1.4 1.4v14.8c0 .8-.6 1.4-1.4 1.4Zm-14.4-1.8h14V5h-14v14Z"/>
  <path d="M11.7 9.1h-1.1c-.2 0-.3.2-.3.3V11H8.8V9.4c0-.2-.1-.3-.3-.3H7.4c-.2 0-.4.1-.4.3v4.9c0 .2.1.3.3.3h1.1c.3 0 .3-.1.3-.3v-1.7h1.5v1.7c0 .2.1.3.3.3h1.1c.2 0 .3-.1.3-.3V9.4c.1-.1-.1-.3-.2-.3Z"/>
</g></svg>