<svg xmlns="http://www.w3.org/2000/svg" data-laicon-version="15.0" viewBox="0 0 20 20" fill="black"><g transform="translate(-2 -2)">
  <path d="m11.9999 21.54-8.4-8.4c-2.13-2.13-2.13-5.61 0-7.74 1.03-1.03 2.41-1.6 3.87-1.6s2.84.57 3.87 1.6l.66.66.66-.66c2.13-2.13 5.61-2.13 7.74 0s2.13 5.61 0 7.74l-8.4 8.4ZM7.4699 5.6c-.98 0-1.9.38-2.6 1.08-.69.69-1.08 1.62-1.08 2.6s.38 1.9 1.08 2.6L11.99 19l7.12-7.12c1.43-1.43 1.43-3.76 0-5.19-1.43-1.43-3.76-1.43-5.19 0l-1.93 1.93-1.93-1.93C9.37 6 8.44 5.61 7.46 5.61l.01-.01Z"/>
</g></svg>