<svg xmlns="http://www.w3.org/2000/svg" data-laicon-version="15.0" viewBox="0 0 20 20" fill="black"><g transform="translate(-2 -2)">
  <path d="M3.9683 12c0-4.7805 3.8753-8.6559 8.6558-8.6559 4.7805 0 8.6559 3.8754 8.6559 8.6559 0 4.7805-3.8754 8.6558-8.6559 8.6558-2.4349 0-4.6363-1.0065-6.208-2.6239l1.2908-1.2545c1.2468 1.283 2.9884 2.0784 4.9172 2.0784 3.7864 0 6.8559-3.0694 6.8559-6.8558 0-3.7864-3.0695-6.8559-6.8559-6.8559S5.7683 8.2136 5.7683 12c0 .3806.0309.7534.0902 1.1161l-1.7764.2905A8.7108 8.7108 0 0 1 3.9683 12Z"/>
  <path d="M8.0243 11.7238h-.0001l-3.226 3.1078-3.096-3.2098 1.2955-1.2497 1.8472 1.9151 1.9306-1.8597 1.2488 1.2963Zm5.2756-.2537 2.4222 1.3585-.8804 1.5699-3.3418-1.8741V7.4017h1.8v4.0684Z"/>
</g></svg>