<svg xmlns="http://www.w3.org/2000/svg" data-laicon-version="15.0" viewBox="0 0 20 20" fill="black"><g transform="translate(-2 -2)">
  <path d="M14.1799 11.19c1.23-.68 3.52-1.96 3.52-5.34v-1h1.1v-1.8h-13.6v1.8h1.1v1c0 3.38 2.29 4.65 3.58 5.37.19.11.4.4.4.79s-.21.68-.47.83c-1.23.68-3.52 1.96-3.52 5.34v1.06h-1.1v1.8h13.6v-1.8h-1.1v-1.07c0-3.37-2.29-4.64-3.58-5.36-.19-.11-.4-.4-.4-.79s.21-.68.46-.83h.01Zm-6.08-6.34h7.8v1c0 .69-.14 1.24-.36 1.71h-7.07c-.22-.46-.36-1.01-.36-1.71v-1H8.1Zm2.66 9.53c.12-.07.23-.17.34-.26V16c-.33.02-.67.06-1.01.11l-1.63.37c.51-1.09 1.48-1.65 2.3-2.1Zm-2.66 4.86v-.83l2.33-.53c1-.15 2.01-.15 2.95 0l2.52.58v.79h-7.8v-.01Zm7.46-2.71-1.84-.42c-.27-.04-.55-.07-.82-.1v-1.9c.13.11.26.22.41.31.78.43 1.75.99 2.26 2.11h-.01Zm-2.32-6.87c-.62.35-1.07.99-1.24 1.71a2.6693 2.6693 0 0 0-1.31-1.75c-.15-.08-.3-.17-.45-.26h3.51c-.17.1-.35.2-.51.29v.01Z"/>
</g></svg>