<svg xmlns="http://www.w3.org/2000/svg" data-laicon-version="15.0" viewBox="0 0 20 20" fill="black"><g transform="translate(-2 -2)">
  <path d="M18.7997 3v1.8h-13.6V3h13.6Zm0 16.2V21h-13.6v-1.8h13.6ZM16.8001 5.9v1.8h-9.5V5.9h9.5Z"/>
  <path d="M17.6999 20.1h-1.8v-1.9c0-2.3-1.5-3.2-2.6-3.8-.9-.5-1.4-1.4-1.4-2.4s.5-1.9 1.3-2.4c1.2-.6 2.7-1.5 2.7-3.8V4h1.8v1.9c0 3.4-2.3 4.7-3.5 5.3-.3.1-.5.4-.5.8s.2.7.4.8c1.3.7 3.6 2 3.6 5.4v1.9Z"/>
  <path d="M8.1004 20.1h-1.8v-1.9c0-3.4 2.3-4.7 3.5-5.3.2999-.1.4999-.4.4999-.8s-.2-.7-.4-.8c-1.3-.7-3.6-2-3.6-5.4V4h1.8v1.9c0 2.3 1.5 3.2 2.6 3.8.9.5 1.4 1.4 1.4 2.4s-.5 1.9-1.3 2.4c-1.2.6-2.7 1.5-2.7 3.8v1.8Z"/>
  <path d="M12.8002 11.1v1.8h-1.6v-1.8h1.6Z"/>
</g></svg>