<svg xmlns="http://www.w3.org/2000/svg" data-laicon-version="15.0" viewBox="0 0 20 20" fill="black"><g transform="translate(-2 -2)">
  <path d="M17.2744 11.5961h-4.5879v-1.6h4.5879v1.6Zm0 2.7557h-4.5879v-1.6h4.5879v1.6Z"/>
  <path d="M4.5002 5.6804v12.6392h15V5.6804h-15Zm-1.8-.4c0-.7732.6268-1.4 1.4-1.4h15.8c.7732 0 1.4.6268 1.4 1.4v13.4392c0 .7732-.6268 1.4-1.4 1.4h-15.8c-.7732 0-1.4-.6268-1.4-1.4V5.2804Z"/>
  <path d="M11.0562 9.935v4.4777H6.5796V9.9351h4.4766Zm-1.6 1.6001H8.1796v1.2776h1.2766v-1.2776Z"/>
</g></svg>