<svg xmlns="http://www.w3.org/2000/svg" data-laicon-version="15.0" viewBox="0 0 20 20" fill="black"><g transform="translate(-2 -2)">
  <path d="M4.9001 4.9v12.609h12.608V4.9H4.9001Zm-1.8-.443c0-.7465.6044-1.357 1.356-1.357h13.495c.7491 0 1.357.608 1.357 1.357v13.496c0 .7516-.6105 1.356-1.357 1.356H4.4561c-.749 0-1.356-.6069-1.356-1.356V4.457Z"/>
  <path d="m10.774 8.6227-3.7823 5.897h7.5657l-3.7834-5.897Zm2.1049 1.395c0 .6528.5306 1.181 1.184 1.181.6529 0 1.182-.5288 1.182-1.181 0-.652-.5288-1.182-1.182-1.182-.6537 0-1.184.5296-1.184 1.182Z"/>
  <path d="M20.1307 20.1315V5.6025h1.6v14.867c0 .6968-.5652 1.262-1.262 1.262H5.7637v-1.6h14.367Z"/>
</g></svg>