<svg xmlns="http://www.w3.org/2000/svg" data-laicon-version="16.1" viewBox="0 0 20 20" fill="black"><g transform="translate(-2 -2)">
  <path d="M14.73 8.602a1.04 1.04 0 1 0 0 2.08 1.04 1.04 0 0 0 0-2.08Zm.548 5.902-3.357-5.233-3.357 5.233h6.714Z"/>
  <path d="M5.725 4.501A1.4 1.4 0 0 1 7.126 3.1h9.748a1.4 1.4 0 0 1 1.401 1.401V19.5a1.4 1.4 0 0 1-1.401 1.401H7.126A1.401 1.401 0 0 1 5.725 19.5v-15Zm1.8.399v14.2h8.95V4.9h-8.95ZM19 4.85h1.49c.779 0 1.41.631 1.41 1.41v11.48a1.41 1.41 0 0 1-1.41 1.41H19v-1.8h1.1V6.65H19v-1.8Zm-15.49 0A1.41 1.41 0 0 0 2.1 6.26v11.48c0 .779.631 1.41 1.41 1.41H5v-1.8H3.9V6.65H5v-1.8H3.51Z"/>
</g></svg>