<svg xmlns="http://www.w3.org/2000/svg" data-laicon-version="15.0" viewBox="0 0 20 20" fill="black"><g transform="translate(-2 -2)">
  <path d="M5.0007 5v14h13.999V5H5.0007Zm-1.8-.4c0-.7731.6268-1.4 1.4-1.4h14.799c.7732 0 1.4.6268 1.4 1.4v14.8c0 .7732-.6268 1.4-1.4 1.4H4.6007c-.7732 0-1.4-.6268-1.4-1.4V4.6Z"/>
  <path d="M15.1346 8.202c-.7326 0-1.3275.5925-1.3275 1.3248s.5949 1.3248 1.3275 1.3248c.7326 0 1.3275-.5927 1.3275-1.3248 0-.7323-.595-1.3248-1.3275-1.3248Zm.6902 7.5588-4.2959-6.6972-4.296 6.6972h8.5919Z"/>
</g></svg>