<svg xmlns="http://www.w3.org/2000/svg" data-laicon-version="15.0" viewBox="0 0 20 20" fill="black"><g transform="translate(-2 -2)">
  <path d="M3.2002 8.6a.9.9 0 0 1 .9-.9h8.65v1.8h-7.75V19h9.5v-4.65h1.8v5.55a.9.9 0 0 1-.9.9h-11.3a.9.9 0 0 1-.9-.9V8.6Z"/>
  <path d="M14.2002 10c0-.5523.4477-1 1-1h1.9c.5523 0 1 .4477 1 1v1.9c0 .5523-.4477 1-1 1h-1.9c-.5523 0-1-.4477-1-1V10Zm1.6.6v.7h.7v-.7h-.7Zm.2999-6.4c0-.6075.4925-1.1 1.1-1.1h2.6c.6075 0 1.1.4925 1.1 1.1v2.6c0 .6075-.4925 1.1-1.1 1.1h-2.6c-.6075 0-1.1-.4925-1.1-1.1V4.2Zm1.8.7v1.2h1.2V4.9h-1.2ZM9.4897 12.756l-2.29 3.579h4.5921l-2.302-3.579Zm2.1561-.643a.6429.6429 0 0 0-.6284.7697.6426.6426 0 0 0 .5056.5041.643.643 0 1 0 .1258-1.2738h-.003Z"/>
</g></svg>