<svg xmlns="http://www.w3.org/2000/svg" data-laicon-version="15.0" viewBox="0 0 20 20" fill="black"><g transform="translate(-2 -2)">
  <path d="M15.5519 8.2634c-.715 0-1.2946.5798-1.2946 1.2947 0 .7151.5796 1.2947 1.2946 1.2947s1.2946-.5796 1.2946-1.2947c0-.715-.5796-1.2947-1.2946-1.2947ZM8.6929 9.9198l8.7563 8.7564a.9.9 0 0 1 0 1.2728.9.9 0 0 1-1.2728 0l-7.4835-7.4836-4.2566 4.2567a.9.9 0 0 1-1.2728-1.2728l5.5294-5.5295Z"/>
  <path d="M4.6999 5.5875v12.8251h14.6V5.5875h-14.6Zm-1.8-.4c0-.7734.627-1.4 1.4-1.4h15.4c.773 0 1.4.6266 1.4 1.4v13.6251c0 .7734-.627 1.4-1.4 1.4h-15.4c-.7732 0-1.4-.6268-1.4-1.4V5.1875Z"/>
</g></svg>