<svg xmlns="http://www.w3.org/2000/svg" data-laicon-version="15.3" viewBox="0 0 20 20" fill="black"><g transform="translate(-2 -2)">
  <path d="M13.466 9.15a1.083 1.083 0 1 0 0 2.167 1.083 1.083 0 0 0 0-2.167Zm.74 6.634-3.54-5.563-3.54 5.563h7.08Z"/>
  <path d="M2.35 5c0-1.05.85-1.9 1.9-1.9h3.293a1.4 1.4 0 0 1 .99.41l1.09 1.09h8.127a1.4 1.4 0 0 1 1.4 1.4v1.1h1.1a1.4 1.4 0 0 1 1.4 1.4v10.25a2.15 2.15 0 0 1-2.15 2.15H4.75a2.4 2.4 0 0 1-2.4-2.4V5Zm15.028 14.1a2.17 2.17 0 0 1-.028-.35V6.4H8.877l-1.5-1.5H4.25a.1.1 0 0 0-.1.1v13.5a.6.6 0 0 0 .6.6h12.628Zm2.122 0a.35.35 0 0 0 .35-.35V8.9h-.7v9.85c0 .193.157.35.35.35Z"/>
</g></svg>