<svg xmlns="http://www.w3.org/2000/svg" data-laicon-version="15.0" viewBox="0 0 20 20" fill="black"><g transform="translate(-2 -2)">
  <path d="M4 12.4071h5.1863l.258.4587c.7325 1.3016 1.9141 1.5413 2.5518 1.5413.7605.0001 1.9456-.423 2.5448-1.5288l.2554-.4712H20v1.8h-4.1691c-1.0339 1.4624-2.6954 2.0001-3.8348 2-.9481 0-2.6602-.3361-3.8315-2H4v-1.8Z"/>
  <path d="M5.261 4.423A1.4 1.4 0 0 1 6.6066 3.41h10.7871a1.4 1.4 0 0 1 1.3455 1.013l2.431 8.4501V18.7c0 1.0493-.8507 1.9-1.9 1.9h-14.54c-1.0494 0-1.9-.8507-1.9-1.9v-5.8269l2.431-8.4502Zm1.6467.787L4.63 13.1269V18.7a.1.1 0 0 0 .1.1h14.54a.1.1 0 0 0 .1-.1v-5.5731L17.0925 5.21H6.9077Z"/>
</g></svg>