<svg xmlns="http://www.w3.org/2000/svg" data-laicon-version="18.12" viewBox="0 0 20 20" fill="black"><g transform="translate(-2 -2)">
  <path d="M6.045 4.984a2.212 2.212 0 0 1 2.927.66l1.403 2.038c.684-.581 1.62-.752 2.417-.44a2.388 2.388 0 0 1 1.248-.499 2.39 2.39 0 0 1 1.48.359c.294-.09.602-.13.92-.106.533.042 1.025.257 1.46.589.843.644 1.536 1.774 2.092 3.26.585 1.561.764 3.259.34 4.841-.43 1.602-1.462 3.026-3.179 4.017a7.578 7.578 0 0 1-7.787-.127l-3.775-2.345a2.405 2.405 0 0 1 1.98-4.339l.156.05L5.18 7.895a2.211 2.211 0 0 1 .866-2.912Zm1.444 1.683a.411.411 0 0 0-.705.418l3.508 6.936a.901.901 0 0 1-1.07 1.267l-2.184-.676a.604.604 0 0 0-.497 1.091l3.775 2.345a5.777 5.777 0 0 0 5.937.096c1.313-.759 2.038-1.794 2.34-2.923.308-1.15.194-2.458-.287-3.745-.51-1.361-1.052-2.12-1.5-2.461-.21-.162-.38-.214-.506-.224-.125-.01-.276.017-.466.127a.902.902 0 0 1-1.098-.153c-.182-.189-.378-.243-.533-.229-.15.014-.347.1-.516.357a.902.902 0 0 1-1.399.13c-.183-.189-.825-.258-1.028.5a.902.902 0 0 1-1.61.278L7.49 6.667Z"/>
  <path d="M3.764 7.508a.8.8 0 1 1 .8 1.385l-.565.326a.8.8 0 0 1-.8-1.385l.565-.326Zm-1.33-2.146a.8.8 0 0 1 .98-.565l.63.168A.8.8 0 0 1 3.63 6.51L3 6.34a.8.8 0 0 1-.566-.979Zm7.522-1.429a.8.8 0 0 1 .8 1.384l-.565.327a.8.8 0 1 1-.8-1.385l.565-.326ZM4.625 2.512a.8.8 0 0 1 1.093.292l.326.565a.8.8 0 0 1-1.386.8l-.326-.566a.8.8 0 0 1 .293-1.091Zm2.587.091a.8.8 0 0 1 1.546.415l-.17.63a.8.8 0 0 1-1.544-.415l.168-.63Z"/>
</g></svg>