<svg xmlns="http://www.w3.org/2000/svg" data-laicon-version="18.12" viewBox="0 0 20 20" fill="black"><g transform="translate(-2 -2)">
  <path d="M6.045 4.984a2.212 2.212 0 0 1 2.927.66l1.403 2.038c.685-.581 1.62-.753 2.417-.44a2.387 2.387 0 0 1 1.248-.499 2.39 2.39 0 0 1 1.48.359c.294-.09.602-.13.92-.106.534.042 1.025.257 1.46.59.843.644 1.536 1.773 2.092 3.259.585 1.561.764 3.26.34 4.842-.43 1.602-1.462 3.025-3.178 4.016a7.577 7.577 0 0 1-7.788-.126L5.591 17.23a2.404 2.404 0 0 1 1.979-4.338l.158.049-2.55-5.045a2.211 2.211 0 0 1 .867-2.913Zm.9 1.56a.41.41 0 0 0-.16.54l3.507 6.938a.9.9 0 0 1-1.07 1.266l-2.184-.675a.604.604 0 0 0-.497 1.09l3.775 2.345a5.777 5.777 0 0 0 5.937.095c1.314-.758 2.038-1.793 2.34-2.923.308-1.149.195-2.457-.287-3.743-.51-1.362-1.051-2.12-1.5-2.462-.21-.162-.38-.214-.506-.224-.124-.01-.276.017-.466.127a.901.901 0 0 1-1.098-.154c-.182-.188-.377-.242-.533-.228-.15.014-.347.1-.517.357a.902.902 0 0 1-1.398.13c-.183-.189-.825-.258-1.028.5a.902.902 0 0 1-1.611.277l-2.16-3.133a.41.41 0 0 0-.543-.123Z"/>
</g></svg>