<svg xmlns="http://www.w3.org/2000/svg" data-laicon-version="15.0" viewBox="0 0 20 20" fill="black"><g transform="translate(-2 -2)">
  <path d="M11.9021 6.78c-.6859 0-1.2419.556-1.2419 1.242 0 .6858.556 1.2418 1.2419 1.2418s1.2419-.556 1.2419-1.2419S12.5881 6.78 11.9021 6.78Zm1.7178 10.1626h-3.24v-1.7h3.24v1.7Z"/>
  <path d="M11.15 11.6684h-.63v-1.7h1.43a.9.9 0 0 1 .9.9v5.33h-1.7v-4.53Z"/>
  <path d="M5.0002 5v14h14V5h-14Zm-1.8-.4c0-.7733.6267-1.4 1.4-1.4h14.8c.7732 0 1.4.6267 1.4 1.4v14.8c0 .7731-.6269 1.4-1.4 1.4h-14.8c-.7732 0-1.4-.6268-1.4-1.4V4.6Z"/>
</g></svg>