<svg xmlns="http://www.w3.org/2000/svg" data-laicon-version="15.0" viewBox="0 0 20 20" fill="black"><g transform="translate(-2 -2)">
  <path d="M12 4.3c-4.2526 0-7.7 3.4473-7.7 7.6999 0 4.2526 3.4474 7.7 7.7 7.7s7.7-3.4474 7.7-7.7-3.4474-7.7-7.7-7.7Zm-9.5 7.6999c0-5.2467 4.2533-9.5 9.5-9.5s9.5 4.2533 9.5 9.5-4.2533 9.5-9.5 9.5-9.5-4.2533-9.5-9.5Z"/>
  <path d="M11.9998 7.0593c-.5986 0-1.0838.4853-1.0838 1.0838 0 .5986.4852 1.0838 1.0838 1.0838.5985 0 1.0838-.4852 1.0838-1.0838 0-.5985-.4852-1.0838-1.0838-1.0838Zm-.8997 9.6812v-5.9797h1.8v5.9797h-1.8Z"/>
</g></svg>