<svg xmlns="http://www.w3.org/2000/svg" data-laicon-version="15.0" viewBox="0 0 20 20" fill="black"><g transform="translate(-2 -2)">
  <path d="M5.6387 11.3348V8.417h1.8v2.9178h-1.8Zm2.5415 0V8.417h1.8v2.9178h-1.8Zm2.5395 0V8.417h1.8v2.9178h-1.8Zm2.5401 0V8.417h1.8v2.9178h-1.8Zm2.1894 3.2951a.9.9 0 0 1 .9-.9h4.4506v1.8h-3.5506v3.5505h-1.8v-4.4505Z"/>
  <path d="M2.2998 5.4252c0-.7766.6297-1.4057 1.4058-1.4057h16.5885c.7763 0 1.4058.6292 1.4058 1.4057v9.2046a.9.9 0 0 1-.2636.6364l-4.4506 4.4506a.9.9 0 0 1-.6517.2635H3.7056c-.7763 0-1.4058-.6292-1.4058-1.4057V5.4252Zm13.6768 12.7551 3.9233-3.9233V5.8195H4.0998v12.3608h11.8768Z"/>
</g></svg>