<svg xmlns="http://www.w3.org/2000/svg" data-laicon-version="17.1" viewBox="0 0 20 20" fill="black"><g transform="translate(-2 -2)">
  <path d="M8.5 7.75a1 1 0 1 1-2 0 1 1 0 0 1 2 0Z"/>
  <path d="M7.5 3.1a4.66 4.66 0 0 0-4.65 4.65c0 1.59.79 3.04 2.1 3.89v7.39c0 .39.17.77.46 1.04l1.15 1.04c.27.24.6.37.94.37.34 0 .67-.12.94-.37l1.15-1.04c.29-.27.46-.64.46-1.04v-1.5c0-.24-.1-.47-.26-.64l-.32-.32.32-.32a.9.9 0 0 0 .26-.64v-.59c0-.24-.1-.47-.26-.64l-.32-.32.32-.32a.9.9 0 0 0 .26-.64v-1.48c1.31-.85 2.1-2.3 2.1-3.89A4.66 4.66 0 0 0 7.5 3.08v.02Zm1.25 7.21c-.31.15-.5.46-.5.81v1.63l-.51.51c-.22.22-.34.51-.34.81 0 .31.12.6.34.81l.44.44-.44.44c-.45.45-.45 1.18 0 1.63l.51.51v.95l-.75.68-.75-.68v-7.73c0-.34-.2-.66-.5-.81a2.82 2.82 0 0 1-1.6-2.56c0-1.57 1.28-2.85 2.85-2.85s2.85 1.28 2.85 2.85c0 1.1-.61 2.08-1.6 2.56Zm4.97-2.46h6.06c.76 0 1.37.61 1.37 1.37v2.06c0 .76-.61 1.37-1.37 1.37h-6.06c-.76 0-1.37-.61-1.37-1.37V9.22c0-.76.61-1.37 1.37-1.37Zm.43 3h5.2v-1.2h-5.2v1.2Zm-.43 2.5h6.06c.76 0 1.37.61 1.37 1.37v2.06c0 .76-.61 1.37-1.37 1.37h-6.06c-.76 0-1.37-.61-1.37-1.37v-2.06c0-.76.61-1.37 1.37-1.37Zm.43 3h5.2v-1.2h-5.2v1.2Z"/>
</g></svg>