<svg xmlns="http://www.w3.org/2000/svg" data-laicon-version="15.0" viewBox="0 0 20 20" fill="black"><g transform="translate(-2 -2)">
  <path d="M15.219 7.577c-.5776 0-1.046.4683-1.046 1.046 0 .5777.4684 1.046 1.046 1.046.5777 0 1.046-.4683 1.046-1.046 0-.5777-.4683-1.046-1.046-1.046Zm-2.346 1.046c0-1.2957 1.0504-2.346 2.346-2.346 1.2957 0 2.346 1.0503 2.346 2.346s-1.0503 2.346-2.346 2.346c-1.2956 0-2.346-1.0503-2.346-2.346Z"/>
  <path d="M9.1101 8.623c0-3.374 2.735-6.109 6.109-6.109 3.3575 0 6.0821 2.7082 6.1088 6.0593a.8868.8868 0 0 1 .001.0693.7006.7006 0 0 1 .0002.0205c0 3.368-2.7299 6.098-6.098 6.098-.2757 0-.7062-.0606-1.0581-.1189l-.99 1.0639a.8998.8998 0 0 1-.6589.287h-1.472v1.387c0 .7772-.6301 1.404-1.404 1.404h-1.233v1.059c0 .7936-.659 1.4267-1.448 1.4h-3.26a.9.9 0 0 1-.9-.9v-4.025a.9.9 0 0 1 .2636-.6364l6.1215-6.1215c-.0506-.2977-.082-.6104-.082-.9371Zm10.418-.0221c-.012-2.3698-1.9364-4.2868-4.309-4.2868-2.3799 0-4.309 1.929-4.309 4.309 0 .334.0509.6678.1362 1.0158a.9002.9002 0 0 1-.2378.8506l-6.2014 6.2014v2.7522h2.008v-1.058c0-.7741.627-1.401 1.401-1.401h1.236v-1.387c0-.7751.629-1.404 1.404-1.404h1.4761l1.057-1.1361a.9001.9001 0 0 1 .8268-.2711c.3489.0662.9854.1752 1.2151.1752 2.3617 0 4.2782-1.9043 4.2979-4.2614a.9059.9059 0 0 1-.0009-.0989Z"/>
</g></svg>