<svg xmlns="http://www.w3.org/2000/svg" data-laicon-version="15.0" viewBox="0 0 20 20" fill="black"><g transform="translate(-2 -2)">
  <path d="M18.2816 15.153h-1.2474v-1.3h1.2474v1.3Zm-11.3028.0042H5.6982v-1.3h1.2806v1.3Zm9.0775-.0042H7.9346v-1.3h8.1217v1.3Zm-9.2257-2.5606v-1.2473h1.3v1.2473h-1.3Zm2.2573 0v-1.2473h1.3v1.2473h-1.3Zm2.2578 0v-1.2473h1.3v1.2473h-1.3Zm2.2573 0v-1.2473h1.3v1.2473h-1.3Zm2.2574 0v-1.2473h1.3v1.2473h-1.3ZM5.7021 10.2479V9.0005h1.3v1.2474h-1.3Zm2.2574 0V9.0005h1.3v1.2474h-1.3Zm2.2573 0V9.0005h1.3v1.2474h-1.3Zm2.2573 0V9.0005h1.3v1.2474h-1.3Zm2.2573 0V9.0005h1.3v1.2474h-1.3Zm2.2574 0V9.0005h1.3v1.2474h-1.3Z"/>
  <path d="M4.4045 7.8939a.3053.3053 0 0 1 .02-.0567.136.136 0 0 1 .0124-.0212.0371.0371 0 0 1 .0047-.0056l.0012-.0008a.0704.0704 0 0 1 .0138-.0055c.0166-.0053.0623-.016.1493-.01a.9004.9004 0 0 0 .0628.0022h14.6626c.1068 0 .179.0103.2241.0216a.331.331 0 0 1 .0279.0081.3762.3762 0 0 1 .0122.0495v8.2588c-.0416.0314-.1319.0734-.2642.0734H4.6687c-.1324 0-.2226-.042-.2642-.0734V7.8939Zm.2922-1.8976c-.5617-.0316-1.0725.127-1.4614.4782-.3808.3438-.5613.7965-.6213 1.2064a.9.9 0 0 0-.0095.1304v8.3814c0 1.1923 1.1382 1.815 2.0642 1.815h14.6626c.926 0 2.0642-.6228 2.0642-1.815V7.8113a.8991.8991 0 0 0-.0063-.1063c-.0631-.5298-.2911-1.0114-.7386-1.3338-.4159-.2997-.9033-.3749-1.3193-.3749H4.6967Z"/>
</g></svg>