<svg xmlns="http://www.w3.org/2000/svg" data-laicon-version="15.0" viewBox="0 0 20 20" fill="black"><g transform="translate(-2 -2)">
  <path d="M6.0297 4.6799c-.7456 0-1.35.6044-1.35 1.35s.6044 1.35 1.35 1.35 1.35-.6044 1.35-1.35-.6044-1.35-1.35-1.35Zm5.9701 0c-.7456 0-1.35.6044-1.35 1.35s.6044 1.35 1.35 1.35 1.35-.6044 1.35-1.35-.6044-1.35-1.35-1.35Zm0 5.9701c-.7456 0-1.35.6044-1.35 1.35s.6044 1.35 1.35 1.35 1.35-.6044 1.35-1.35-.6044-1.35-1.35-1.35Zm0 5.9701c-.7456 0-1.35.6044-1.35 1.35s.6044 1.35 1.35 1.35 1.35-.6044 1.35-1.35-.6044-1.35-1.35-1.35Zm5.9701-11.9402c-.7456 0-1.35.6044-1.35 1.35s.6044 1.35 1.35 1.35 1.35-.6044 1.35-1.35-.6043-1.35-1.35-1.35Zm0 5.9701c-.7456 0-1.35.6044-1.35 1.35s.6044 1.35 1.35 1.35 1.35-.6044 1.35-1.35-.6043-1.35-1.35-1.35Zm-11.9402 0c-.7456 0-1.35.6044-1.35 1.35s.6044 1.35 1.35 1.35 1.35-.6044 1.35-1.35-.6044-1.35-1.35-1.35Z"/>
</g></svg>