<svg xmlns="http://www.w3.org/2000/svg" data-laicon-version="15.0" viewBox="0 0 20 20" fill="black"><g transform="translate(-2 -2)">
  <path d="M21.3619 20.66 18.1486 5.084l-.0003-.002c-.1796-.861-.9377-1.4822-1.8211-1.4822H7.7058A1.9 1.9 0 0 0 5.8446 5.116L2.6372 20.66h1.838l.911-4.4154h6.8165l-.9112 4.4154h1.8379l3.1392-15.2123a.0602.0602 0 0 1 .0552-.0478h.0031v-.0001h.0003a.061.061 0 0 1 .0589.0493l.0001.0004L19.524 20.66h1.8379ZM7.7059 5.3999h6.7347l-.7475 3.6223H6.8764l.7309-3.5423a.1.1 0 0 1 .0986-.08Zm-1.201 5.4223h6.8167l-.7475 3.6224H5.7576l.7474-3.6224Z"/>
</g></svg>