<svg xmlns="http://www.w3.org/2000/svg" data-laicon-version="15.0" viewBox="0 0 20 20" fill="black"><g transform="translate(-2 -2)">
  <path d="m6.3274 11.4021 8-9 1.3454 1.1959L9.0043 11.1H17a.9.9 0 0 1 .6727 1.4979l-8 9-1.3453-1.1958L14.9959 12.9H7.0001a.9.9 0 0 1-.6726-1.4979ZM15.5028 21.5999h1.148c.063 0 .105-.028.126-.091l.28-.791h1.869l.28.791c.021.063.063.091.126.091h1.176c.077 0 .112-.056.084-.126l-2.023-4.928c-.021-.056-.063-.084-.126-.084h-.882c-.056 0-.105.028-.126.084l-2.023 4.928c-.028.07.007.126.091.126Zm1.925-1.946.553-1.582.567 1.582h-1.12Z"/>
</g></svg>