<svg xmlns="http://www.w3.org/2000/svg" data-laicon-version="15.0" viewBox="0 0 20 20" fill="black"><g transform="translate(-2 -2)">
  <path d="M12.105 4.2222c-2.1733-2.1732-5.6968-2.1732-7.87 0-2.1733 2.1733-2.1733 5.6969 0 7.8701l2.2252 2.2253a7.1028 7.1028 0 0 1 .1228-2.4227l-1.0753-1.0754c-1.4703-1.4703-1.4703-3.8541 0-5.3245 1.4703-1.4703 3.8542-1.4703 5.3245 0l2.3617 2.3618c1.4704 1.4703 1.4704 3.8541 0 5.3245a3.7478 3.7478 0 0 1-1.8625 1.0173c.1084.3155.2885.6118.5403.8636l.6539.6538a5.544 5.544 0 0 0 1.9411-1.2619c2.1733-2.1733 2.1733-5.6969 0-7.8701L12.105 4.2222Z"/>
  <path d="M11.4793 8.2636a5.5455 5.5455 0 0 0-1.9411 1.262c-2.1733 2.1732-2.1733 5.6968 0 7.87l2.3617 2.3618c2.1732 2.1732 5.6968 2.1732 7.8701 0 2.1732-2.1733 2.1732-5.6969 0-7.8701l-2.2252-2.2252a7.105 7.105 0 0 1-.1229 2.4227l1.0753 1.0753c1.4703 1.4703 1.4703 3.8542 0 5.3245-1.4704 1.4703-3.8542 1.4703-5.3245 0l-2.3618-2.3617c-1.4703-1.4704-1.4703-3.8542 0-5.3246a3.7482 3.7482 0 0 1 1.8626-1.0173 2.255 2.255 0 0 0-.5403-.8636l-.6539-.6539Z"/>
</g></svg>