<svg xmlns="http://www.w3.org/2000/svg" data-laicon-version="15.0" viewBox="0 0 20 20" fill="black"><g transform="translate(-2 -2)">
  <path d="M2 12.1001c-.1-.2 0-.5.1-.7l.0153-.0231C2.578 10.6825 5.833 5.7953 8.6 5.4c1.4-.2 2.2.4 2.7.8.2.2.5.3.6.3.0458 0 .1124-.0418.2-.0968.1039-.0652.2372-.1489.4-.2031.5-.4 1.4-1 2.7-.8 2.9.5 6.2 5.5 6.5 6 .1.2.2.4.1.7.2.1-1.3 6.5-9.8 6.5s-10-6.4-10-6.5ZM4.3135 13c.828 1.4843 2.8741 3.8001 7.6863 3.8001 4.8122 0 6.8584-2.3158 7.6864-3.8001H4.3136Zm15.1384-1.8c-1.3254-1.7574-3.1775-3.745-4.4521-4-.6-.1-.9.1-1.4.5-.4.3-.9.6-1.6.6-.7 0-1.2-.3-1.6-.6-.5-.4-.8-.6-1.4-.5-1.2759.1702-3.1306 2.2215-4.4564 4H19.452Z"/>
</g></svg>