<svg xmlns="http://www.w3.org/2000/svg" data-laicon-version="15.0" viewBox="0 0 20 20" fill="black"><g transform="translate(-2 -2)">
  <path d="M6.0306 4.8336c-.7497 0-1.3573.6076-1.3573 1.3573 0 .7495.6076 1.3572 1.3573 1.3572.7496 0 1.3573-.6077 1.3573-1.3572 0-.7497-.6078-1.3573-1.3573-1.3573Zm0 5.8078c-.7497 0-1.3573.6075-1.3573 1.3572 0 .7496.6076 1.3573 1.3573 1.3573.7496 0 1.3573-.6077 1.3573-1.3573 0-.7497-.6078-1.3572-1.3573-1.3572Zm0 5.8104c-.7497 0-1.3573.6076-1.3573 1.3573 0 .7495.6076 1.3573 1.3573 1.3573.7496 0 1.3573-.6077 1.3573-1.3573 0-.7497-.6078-1.3573-1.3573-1.3573Zm13.0466 2.2573H9.0435v-1.8h10.0337v1.8Zm0-5.8105H9.0435v-1.8h10.0337v1.8Zm0-5.7836H9.0435v-1.8h10.0337v1.8Z"/>
</g></svg>