<svg xmlns="http://www.w3.org/2000/svg" data-laicon-version="15.0" viewBox="0 0 20 20" fill="black"><g transform="translate(-2 -2)">
  <path d="M16.9598 3.2c2.01.25 3.5901 1.83 3.8401 3.84.2 1.64.2999 3.3.2999 4.96 0 1.66-.0999 3.32-.2999 4.96-.25 2.01-1.8301 3.5899-3.8401 3.8399-1.61.2001-3.2799.3-4.9599.3-1.68 0-3.35-.0999-4.96-.3-2.01-.25-3.59-1.8299-3.84-3.8399-.2-1.64-.3-3.3-.3-4.96 0-1.66.1-3.32.3-4.96.25-2.01 1.83-3.59 3.84-3.84 3.22-.4 6.6999-.4 9.9199 0Zm-.2299 15.82c1.19-.15 2.13-1.09 2.28-2.28.19-1.56.28-3.16.28-4.74s-.09-3.18-.28-4.74c-.15-1.19-1.09-2.12-2.28-2.27-1.54-.19-3.13-.29-4.74-.29-1.61 0-3.2.1-4.74.29-1.19.15-2.13 1.09-2.28 2.28-.19 1.56-.28 3.16-.28 4.74s.09 3.18.28 4.74c.15 1.19 1.09 2.12 2.28 2.27 3.07.38 6.41.38 9.48 0Zm-7.93-11.65c-.59 0-1.07.48-1.07 1.07 0 .59.48 1.07 1.07 1.07.59 0 1.07-.48 1.07-1.07 0-.59-.48-1.07-1.07-1.07Zm7.11.3199h-4.98v1.5h4.98v-1.5Zm0 3.5601h-4.98v1.5h4.98v-1.5Zm-4.98 3.56h4.98v1.5h-4.98v-1.5Zm-3.2-2.8101c0-.59.48-1.07 1.07-1.07.59 0 1.07.48 1.07 1.07 0 .59-.48 1.07-1.07 1.07-.59 0-1.07-.48-1.07-1.07Zm1.07 2.49c-.59 0-1.07.48-1.07 1.07 0 .59.48 1.0701 1.07 1.0701.59 0 1.07-.4801 1.07-1.0701 0-.59-.48-1.07-1.07-1.07Z"/>
</g></svg>