<svg xmlns="http://www.w3.org/2000/svg" data-laicon-version="15.0" viewBox="0 0 20 20" fill="black"><g transform="translate(-2 -2)">
  <path d="M10.8969 3.7865c.4508-.9154 1.7558-.9154 2.2066 0l7.5534 15.3392.0001.0002c.5045 1.0249-.5396 2.1251-1.59 1.6727l-7.0668-3.0443-7.0669 3.0443-.0002.0001c-1.0497.4518-2.0946-.6475-1.5897-1.673L10.897 3.7865Zm1.3282 13.871a.003.003 0 0 1 .0008-.0004l-.0001.0001-.0007.0003Zm-.4499-.0001a.0049.0049 0 0 1-.0007-.0003l.0001.0001.0006.0002Zm.225-12.037L5.6414 18.5337l5.8721-2.5295a1.2296 1.2296 0 0 1 .9734 0l5.8721 2.5295-6.3588-12.9131Z"/>
</g></svg>