<svg xmlns="http://www.w3.org/2000/svg" data-laicon-version="15.0" viewBox="0 0 20 20" fill="black"><g transform="translate(-2 -2)">
  <path d="M10.5698 13.8399c0-.79.64-1.4301 1.43-1.4301.79 0 1.43.6401 1.43 1.4301 0 .45-.21.8399-.53 1.0999v2.0901h-1.8v-2.0901c-.32-.26-.53-.6599-.53-1.0999Z"/>
  <path d="M18.4899 8.1099h-1.89v-1.06c0-2.56-2.0801-4.65-4.6501-4.65-2.57 0-4.65 2.08-4.65 4.65v1.06h-1.81c-1.05 0-1.9.85-1.9 1.9v9.72c0 1.05.85 1.9 1.9 1.9H18.49c1.05 0 1.8999-.85 1.8999-1.9v-9.72c0-1.05-.8499-1.9-1.8999-1.9Zm-9.38-1.06c0-1.57 1.28-2.85 2.85-2.85s2.8499 1.28 2.8499 2.85v1.06h-5.69v-1.06h-.01Zm9.49 12.68c0 .06-.0401.1-.1001.1h-13c-.06 0-.1-.04-.1-.1v-9.72c0-.06.04-.1.1-.1h13c.06 0 .1001.04.1001.1v9.72Z"/>
</g></svg>