<svg xmlns="http://www.w3.org/2000/svg" data-laicon-version="15.0" viewBox="0 0 20 20" fill="black"><g transform="translate(-2 -2)">
  <path d="M9.2202 10.37a2.7799 2.7799 0 0 1 2.78-2.78c1.53 0 2.78 1.25 2.78 2.78 0 1.53-1.25 2.78-2.78 2.78-1.53 0-2.78-1.25-2.78-2.78Zm1.8 0c0 .54.44.98.98.98s.98-.44.98-.98-.44-.98-.98-.98-.98.44-.98.98Z"/>
  <path d="M12.0002 2.14c2.33 0 4.67.98 6.32 2.95h-.01c2.86 3.4 2.42 8.43-.66 11.52a286.6482 286.6482 0 0 0-4.577 4.747l-.183.193c-.49.52-1.3.52-1.79 0-.71-.76-2.89-3.07-4.76-4.94-3.08-3.09-3.52-8.12-.66-11.52a8.2081 8.2081 0 0 1 6.32-2.95Zm.13 17.594c.978-1.03 2.71-2.854 4.25-4.394v-.01c2.47-2.48 2.77-6.46.56-9.09a6.4368 6.4368 0 0 0-9.88 0c-2.21 2.63-1.92 6.61.56 9.1 1.6 1.61 3.43 3.53 4.38 4.53l.13-.136Z"/>
</g></svg>