<svg xmlns="http://www.w3.org/2000/svg" data-laicon-version="15.3" viewBox="0 0 20 20" fill="black"><g transform="translate(-2 -2)">
  <path d="M15.01 9.3a.45.45 0 0 1 .45-.45h1.4a.45.45 0 0 1 .45.45v2.85h1.011c.3 0 .46.352.264.58l-2.16 2.494a.35.35 0 0 1-.529 0l-2.16-2.495A.35.35 0 0 1 14 12.15h1.01V9.3Zm-9.182-.244a.278.278 0 0 1 .2-.078h1.296c.05 0 .107.01.16.04.051.03.089.075.115.125l1.635 2.723 1.592-2.724a.31.31 0 0 1 .274-.164h1.272c.07 0 .144.022.2.078.056.056.078.13.078.2v5.616c0 .07-.022.144-.078.2a.278.278 0 0 1-.2.078h-1.176a.278.278 0 0 1-.2-.078.278.278 0 0 1-.078-.2v-2.794l-1.07 1.787a.303.303 0 0 1-.116.124.312.312 0 0 1-.16.041h-.744a.312.312 0 0 1-.16-.04.302.302 0 0 1-.115-.124l-1.071-1.743v2.749c0 .07-.022.144-.078.2a.278.278 0 0 1-.2.078H6.028a.278.278 0 0 1-.2-.078.278.278 0 0 1-.078-.2V9.256c0-.07.022-.144.078-.2Z"/>
  <path d="M4.5 4.6a1.9 1.9 0 0 0-1.9 1.9v11c0 1.05.85 1.9 1.9 1.9h15a1.9 1.9 0 0 0 1.9-1.9v-11a1.9 1.9 0 0 0-1.9-1.9h-15Zm-.1 1.9a.1.1 0 0 1 .1-.1h15a.1.1 0 0 1 .1.1v11a.1.1 0 0 1-.1.1h-15a.1.1 0 0 1-.1-.1v-11Z"/>
</g></svg>