<svg xmlns="http://www.w3.org/2000/svg" data-laicon-version="15.0" viewBox="0 0 20 20" fill="black"><g transform="translate(-2 -2)">
  <path d="M15.1182 14.5266H8.8818v-1.8h6.2364v1.8Z"/>
  <path d="M11.1001 16.7448v-6.2364h1.8v6.2364h-1.8Z"/>
  <path d="M4.8249 8.1855v10.8821h14.35V8.1855h-14.35Zm-1.8-.4c0-.7732.6268-1.4 1.4-1.4h15.15c.7732 0 1.4.6268 1.4 1.4v11.6821c0 .7734-.627 1.4-1.4 1.4h-15.15c-.773 0-1.4-.6266-1.4-1.4V7.7855Z"/>
  <path d="M9.9865 4.9324v2.353h-1.8v-2.753c0-.7733.6268-1.4 1.4-1.4h4.827c.7733 0 1.4.6267 1.4 1.4v2.753h-1.8v-2.353h-4.027Z"/>
</g></svg>