<svg xmlns="http://www.w3.org/2000/svg" data-laicon-version="15.0" viewBox="0 0 20 20" fill="black"><g transform="translate(-2 -2)">
  <path d="M20.0461 2.6221a.9.9 0 0 1 .4749.7933v17.17a.8999.8999 0 0 1-1.3985.7493l-6.0175-4.0033h-1.6289l.3339 3.1594a.8998.8998 0 0 1-.895.9946H7.889a.9.9 0 0 1-.895-.8054l-.354-3.3486H4.859c-.7608 0-1.38-.6167-1.38-1.379v-7.905c0-.7623.6192-1.379 1.38-1.379h8.246l6.0176-4.0024a.9.9 0 0 1 .9235-.0439ZM18.721 5.095l-4.8456 3.2229a.9001.9001 0 0 1-.4984.1506H5.279v7.063H7.45a.9.9 0 0 1 .895.8054l.3539 3.3486h1.216l-.334-3.1594a.8998.8998 0 0 1 .8951-.9946h2.901a.8996.8996 0 0 1 .4985.1507l4.8455 3.2236V5.0949Z"/>
</g></svg>