<svg xmlns="http://www.w3.org/2000/svg" data-laicon-version="15.0" viewBox="0 0 20 20" fill="black"><g transform="translate(-2 -2)">
  <path d="M10.19 10.4c-1.88 0-3.4 1.52-3.4 3.4s1.52 3.4 3.4 3.4 3.4-1.52 3.4-3.4-1.52-3.4-3.4-3.4Zm-1.6 3.4c0-.88.72-1.6 1.6-1.6.88 0 1.6.72 1.6 1.6 0 .88-.72 1.6-1.6 1.6-.88 0-1.6-.72-1.6-1.6Z"/>
  <path d="M20.7898 4.431c.19-.35.13-.78-.15-1.06v.03a.9132.9132 0 0 0-1.06-.17l-4.06 2.11.06-.22a.9141.9141 0 0 0-.25-.9.8946.8946 0 0 0-.91-.2l-.31.11a64.7685 64.7685 0 0 0-3.48 1.34c-1.01.43-2.08.91-3.03 1.41-.93.49-1.81 1.03-2.37 1.59-2.85 2.84-2.85 7.45 0 10.3 2.84 2.84 7.45 2.84 10.3 0 .56-.56 1.11-1.46 1.6-2.4.51-.96 1-2.06 1.43-3.09a69.0556 69.0556 0 0 0 1.38-3.56l.11-.32c.11-.33.03-.69-.21-.93a.9201.9201 0 0 0-.93-.22l-.21.07 2.09-3.89Zm-9.46 2.7c.74-.31 1.45-.59 2.05-.82h.01l-.15.53c-.1.34.02.71.3.94.28.23.66.27.98.1l3.3-1.72-1.78 3.31c-.18.33-.14.73.1 1.01.23.27.62.39.97.27l.6-.2-.044.114c-.22.575-.475 1.242-.766 1.926-.42 1-.89 2.05-1.36 2.95-.49.93-.93 1.61-1.28 1.96a5.4918 5.4918 0 0 1-7.76 0 5.492 5.492 0 0 1 0-7.76c.36-.35 1.04-.79 1.94-1.27.89-.47 1.91-.93 2.89-1.34Z"/>
</g></svg>