<svg xmlns="http://www.w3.org/2000/svg" data-laicon-version="15.0" viewBox="0 0 20 20" fill="black"><g transform="translate(-2 -2)">
  <path d="M8.5098 7.48c-.03-.52.14-1.06.54-1.46 0 0 .02-.02.07-.05.044-.03.094-.058.156-.096l.074-.044c.186-.102.424-.213.698-.34l.062-.03c.61-.27 1.36-.56 2.1-.84.16-.06.32-.12.48-.17l-.25.4a.9023.9023 0 0 0-.0477.8618.9025.9025 0 0 0 .6977.5082c-.07.15-.14.3-.21.46l-.135.275-.135.275.13-.06c.3013-.1373.6013-.2773.9-.42.096-.042.178-.08.247-.113l.123-.057.09-.04c.28-.14.59-.2.9-.17.02-.04.04-.09.05-.12.038-.087.07-.165.098-.232l.062-.148.06-.14a.8877.8877 0 0 0-.2171-.9848.8881.8881 0 0 0-.3029-.1852l.77-1.24c.06-.09.11-.2.14-.31a.9206.9206 0 0 0-.24-.85.8882.8882 0 0 0-.74-.26.5566.5566 0 0 0-.17.035l-.05.015h-.02s-.1.04-.18.07c-.09.028-.198.066-.324.11l-.326.11c-.54.18-1.27.44-2.03.72-.76.28-1.55.59-2.21.88l-.026.012c-.32.146-.62.282-.874.428-.24.13-.51.3-.71.49-.97.97-1.27 2.33-.94 3.56.08-.04.163-.085.245-.13.083-.045.165-.09.245-.13.42-.21.82-.4 1.18-.57l.02-.02Zm-3.48 7.8c0 1.41 1.14 2.55 2.55 2.55s2.55-1.14 2.55-2.55-1.14-2.55-2.55-2.55-2.55 1.14-2.55 2.55Zm1.8 0c0-.41.34-.75.75-.75s.75.34.75.75-.34.75-.75.75-.75-.34-.75-.75Z"/>
  <path d="M15.5402 8.56a.9.9 0 0 0-.22-1.17v-.02a.8927.8927 0 0 0-1-.07l-.1.05-.082.04a7.4152 7.4152 0 0 0-.278.14c-.3.16-.72.37-1.18.6-.4.21-.83.42-1.24.61l.03-.25a.9004.9004 0 0 0-.36-.82.8916.8916 0 0 0-.89-.1l-.22.1a61.5222 61.5222 0 0 0-2.42 1.14c-.7.35-1.45.75-2.12 1.15-.66.39-1.29.82-1.71 1.24a5.6009 5.6009 0 0 0 0 7.91c2.19 2.18 5.73 2.18 7.91 0 .42-.42.87-1.09 1.28-1.79.43-.72.86-1.54 1.24-2.3.38-.77.73-1.49.97-2.02.12-.27.22-.49.29-.64l.11-.24c.14-.32.08-.69-.15-.95a.882.882 0 0 0-.93-.27l-.32.09.45-.81c.155-.278.305-.537.438-.765.082-.141.157-.27.222-.385l.09-.151.12-.2.06-.09.01-.03v.001Zm-4.84 2.5c.48-.2 1.15-.5 1.81-.82l.01-.01c-.36.67-.71 1.35-.91 1.86-.13.32-.06.69.17.94.23.26.58.35.91.26l.38-.11-.24.49a44.1368 44.1368 0 0 1-1.45 2.74c-.4.69-.75 1.18-1 1.43a3.802 3.802 0 0 1-5.37 0 3.789 3.789 0 0 1-1.1101-2.68 3.7898 3.7898 0 0 1 1.1101-2.68c.25-.25.73-.58 1.36-.96.62-.37 1.33-.75 2.01-1.09.192-.091.38-.183.56-.27.196-.096.384-.187.56-.27l-.03.23a.9.9 0 0 0 1.23.94Z"/>
  <path d="M20.9501 7.39c.27-.03.55.07.74.26l.01.02c.22.23.31.55.24.85-.03.12-.08.22-.14.31l-.77 1.24c.18.06.34.19.44.35.16.24.19.55.08.82l-.22.52-.146.332c-.113.256-.244.555-.394.868-.22.45-.46.94-.71 1.38-.24.41-.52.85-.81 1.14a3.702 3.702 0 0 1-4.67.46c.11-.22.23-.45.34-.66.17-.34.33-.67.48-.98.74.64 1.86.62 2.57-.09.1-.1.28-.36.51-.76.21-.38.44-.83.64-1.26l.21-.45a.9034.9034 0 0 1-.6977-.5082.9036.9036 0 0 1 .0477-.8618l.25-.4-.48.18c-.74.27-1.49.56-2.1.83-.03.01-.05.02-.07.03-.07-.15-.15-.29-.26-.41-.16-.18-.34-.32-.55-.41l.62-1.06c.56-.23 1.15-.46 1.74-.68a74.1628 74.1628 0 0 1 2.356-.83c.126-.044.235-.082.324-.11.08-.03.18-.07.18-.07h.02l.05-.015a.5572.5572 0 0 1 .17-.035Z"/>
</g></svg>