<svg xmlns="http://www.w3.org/2000/svg" data-laicon-version="15.3" viewBox="0 0 20 20" fill="black"><g transform="translate(-2 -2)">
  <path d="M16.083 11.073a4.18 4.18 0 0 0 .017-.373V6.1a4.1 4.1 0 0 0-7.317-2.542l1.274 1.311A2.3 2.3 0 0 1 14.3 6.1v3.139l1.782 1.835Zm.693 5.87 3.578 3.684 1.291-1.254L4.88 2.115 3.59 3.369 7.9 7.806V10.7a4.1 4.1 0 0 0 6.22 3.51l1.39 1.43a6.1 6.1 0 0 1-9.61-4.99V9.5H4.1v1.15a7.901 7.901 0 0 0 7 7.85V21a.9.9 0 1 0 1.8 0v-2.5a7.86 7.86 0 0 0 3.876-1.557Zm-3.971-4.088A2.3 2.3 0 0 1 9.7 10.7V9.66l3.105 3.195ZM19.9 10.65c0 1.26-.295 2.451-.82 3.508l-1.356-1.395c.243-.659.376-1.37.376-2.113V9.5h1.8v1.15Z"/>
</g></svg>