<svg xmlns="http://www.w3.org/2000/svg" data-laicon-version="15.0" viewBox="0 0 20 20" fill="black"><g transform="translate(-2 -2)">
  <path d="M6.6398 11.5062c0 2.9604 2.3999 5.3603 5.3603 5.3603 2.9604 0 5.3603-2.3999 5.3603-5.3603h1.8c0 3.9545-3.2057 7.1603-7.1603 7.1603-3.9545 0-7.1603-3.2058-7.1603-7.1603h1.8Z"/>
  <path d="M12.9001 17.7665v3.569h-1.8v-3.569h1.8Z"/>
  <path d="M14.6263 22H9.3735v-1.8h5.2528V22ZM7.7031 6.29C7.7031 3.9146 9.6292 2 12 2c2.3707 0 4.2968 1.9146 4.2968 4.29v5.0826c0 2.373-1.9237 4.2968-4.2968 4.2968-2.373 0-4.2968-1.9238-4.2968-4.2968V6.29ZM12 3.8c-1.3813 0-2.4968 1.1134-2.4968 2.49v5.0826c0 1.3789 1.1179 2.4968 2.4968 2.4968s2.4968-1.1179 2.4968-2.4968V6.29c0-1.3766-1.1155-2.49-2.4968-2.49Z"/>
</g></svg>