<svg xmlns="http://www.w3.org/2000/svg" data-laicon-version="15.0" viewBox="0 0 20 20" fill="black"><g transform="translate(-2 -2)">
  <path d="M15.4999 11.1h-7.1v1.8h7.1v-1.8Z"/>
  <path d="M11.9999 21.1c-1.7 0-3.4-.1-5-.3-2-.2-3.6-1.8-3.8-3.8-.2-1.6-.3-3.3-.3-5 0-1.7.1-3.3.3-5 .2-2 1.8-3.6 3.8-3.8 3.2-.4 6.7-.4 9.9 0 2.1.2 3.7 1.8 3.9 3.8.2 1.6.3 3.3.3 5 0 1.7-.1 3.3-.3 5-.2 2-1.8 3.6-3.8 3.8-1.6.2-3.3.3-5 .3Zm0-16.4c-1.6 0-3.2.1-4.7.3-1.2.1-2.2 1.1-2.3 2.3-.2 1.5-.3 3.1-.3 4.7s.1 3.2.3 4.7c.1 1.2 1.1 2.1 2.3 2.3 3.1.4 6.4.4 9.5 0 1.2-.1 2.1-1.1 2.3-2.3.2-1.5.3-3.1.3-4.7s-.1-3.2-.3-4.7c-.1-1.2-1.1-2.1-2.3-2.3-1.6-.2-3.2-.3-4.8-.3Z"/>
</g></svg>