<svg xmlns="http://www.w3.org/2000/svg" data-laicon-version="15.0" viewBox="0 0 20 20" fill="black"><g transform="translate(-2 -2)">
  <path d="M8.3445 10.1737H4.3219a.2798.2798 0 0 0-.0518.0763l-.0014.0032v8.0942l.004.0056a.4186.4186 0 0 0 .062.0674h3.969a.4405.4405 0 0 0 .0808-.0813l.001-.0014v-8.0955a.1188.1188 0 0 0-.0035-.0097.2082.2082 0 0 0-.0348-.0557l-.0027-.0031Zm1.3577-1.1818c.2787.3187.4833.7617.4833 1.2382v8.1946c0 .5463-.322.9874-.5704 1.2347-.2426.2415-.6796.561-1.2091.561H4.2168c-.5364 0-.9688-.3321-1.202-.5734-.244-.2526-.546-.69-.546-1.2223v-8.1946c0-.5032.2361-.946.5005-1.2441.2534-.286.6906-.6123 1.2475-.6123H8.406c.5665 0 1.0159.2976 1.2962.6182Zm2.2241 9.5488v-3.622h1.8v3.622h-1.8Z"/>
  <path d="M16.4244 19.1152h-5.1402v-1.8h5.1402v1.8ZM5.921 5.622v1.6538h-1.8v-1.69c0-.517.2457-.9658.5601-1.2704.3188-.3088.7748-.5358 1.2958-.5358h13.7945c.5636 0 1.0024.319 1.2595.603.2566.2836.5005.716.5005 1.2031v8.9851c0 .5722-.2977 1.0309-.6025 1.318-.2956.2784-.7407.5302-1.2384.5302h-8.4012v-1.8h8.3512a.2645.2645 0 0 0 .0175-.0109.316.316 0 0 0 .0369-.0297.2726.2726 0 0 0 .0365-.0424V5.6385a.3009.3009 0 0 0-.0456-.0589H5.979a.0504.0504 0 0 0-.0083.0029.1313.1313 0 0 0-.0496.0396Z"/>
</g></svg>