<svg xmlns="http://www.w3.org/2000/svg" data-laicon-version="15.0" viewBox="0 0 20 20" fill="black"><g transform="translate(-2 -2)">
  <path d="M13.3601 6.45h-2.72v-1.3h2.72v1.3Z"/>
  <path d="M16.1486 4.5487c-.0845-.1005-.1836-.1501-.3112-.1501h-7.672c-.0345 0-.151.0264-.2835.1727-.129.1425-.1898.3114-.1898.4367v14.1518c0-.0001 0-.0001 0 0 0 .0015.0016.029.0288.0821.0287.0558.0772.122.145.186.0678.0639.1409.1123.2054.1423.062.0289.0947.031.0947.0312h-.0006 7.672c-.0003 0 .0087 0 .0274-.0046a.414.414 0 0 0 .0746-.0271c.0631-.0292.1338-.0763.199-.1385.1479-.141.1695-.2561.1695-.2714V5.008c0-.1766-.0645-.3464-.1593-.4593Zm-.3112-1.9501c1.4776 0 2.2705 1.3095 2.2705 2.4094v14.1518c0 .657-.3481 1.2127-.7276 1.5744-.378.3603-.9319.6672-1.5429.6672h-7.672c-.605 0-1.1584-.3094-1.5343-.6639-.3783-.3566-.739-.9129-.739-1.5777V5.008c0-.6372.2737-1.223.6553-1.6446.378-.4178.9482-.7648 1.618-.7648h7.672Z"/>
</g></svg>