<svg xmlns="http://www.w3.org/2000/svg" data-laicon-version="15.0" viewBox="0 0 20 20" fill="black"><g transform="translate(-2 -2)">
  <path d="M11.5171 3.045a.8999.8999 0 0 1-.0806 1.0115c-.8365 1.0379-1.3367 2.356-1.3367 3.7934 0 3.3413 2.7087 6.05 6.05 6.05 1.4373 0 2.7553-.5 3.7931-1.3364a.9.9 0 0 1 1.4552.832c-.6758 4.5851-4.6252 8.1039-9.3981 8.1039-5.2467 0-9.5-4.2533-9.5-9.5 0-4.773 3.5192-8.7226 8.1046-9.398a.9.9 0 0 1 .9125.4436ZM8.8437 4.9737C6.1652 6.179 4.3 8.872 4.3 11.9994c0 4.2526 3.4474 7.7 7.7 7.7 3.1274 0 5.8202-1.8649 7.0255-4.5432-.8907.3509-1.861.5437-2.8757.5437-4.3354 0-7.85-3.5145-7.85-7.85 0-1.0148.193-1.9853.544-2.8762Z"/>
</g></svg>