<svg xmlns="http://www.w3.org/2000/svg" data-laicon-version="15.0" viewBox="0 0 20 20" fill="black"><g transform="translate(-2 -2)">
  <path d="M10.2471 15.253V5.149l7.853 1.556v7.357a3.5727 3.5727 0 0 0-5.3167 2.645 3.5731 3.5731 0 1 0 7.1167.458V6.375c0-.668-.471-1.242-1.126-1.372l-8.657-1.715a1.3981 1.3981 0 0 0-1.67 1.372v7.49a3.5734 3.5734 0 0 0-4.3076.5837 3.5728 3.5728 0 0 0 1.1721 5.8214 3.5731 3.5731 0 0 0 4.9355-3.3021Zm-3.573-1.774a1.774 1.774 0 0 0-1.6385 1.0948A1.7736 1.7736 0 1 0 6.674 13.479Zm9.653 1.913a1.7735 1.7735 0 1 0 0 3.5468 1.7735 1.7735 0 0 0 0-3.5468Z"/>
</g></svg>