<svg xmlns="http://www.w3.org/2000/svg" data-laicon-version="15.0" viewBox="0 0 20 20" fill="black"><g transform="translate(-2 -2)">
  <path d="M12.6807 15.3122c0-1.7443 1.4141-3.1583 3.1584-3.1583 1.7442 0 3.1584 1.414 3.1584 3.1583 0 1.7443-1.4141 3.1583-3.1584 3.1583s-3.1584-1.414-3.1584-3.1583Zm3.1584-1.3583c-.7503 0-1.3584.6082-1.3584 1.3583 0 .7501.6081 1.3583 1.3584 1.3583.7503 0 1.3584-.6082 1.3584-1.3583 0-.7501-.6082-1.3583-1.3584-1.3583ZM8.187 8.6355l9.6786-2.581.4638 1.7392-9.6786 2.581-.4638-1.7392Zm-5.1846 9.2577c0-1.7443 1.4141-3.1583 3.1584-3.1583s3.1583 1.414 3.1583 3.1583c0 1.7444-1.414 3.1583-3.1583 3.1583-1.7442 0-3.1584-1.414-3.1584-3.1583Zm3.1584-1.3583c-.7502 0-1.3584.6082-1.3584 1.3583 0 .7501.6082 1.3583 1.3584 1.3583.7502 0 1.3583-.6081 1.3583-1.3583 0-.7501-.6081-1.3583-1.3583-1.3583Z"/>
  <path d="M17.2369 2.996c.889-.237 1.7607.4332 1.7607 1.3528v10.9635h-1.8V4.8695L9.319 6.9705v10.9228h-1.8V6.6631a1.4 1.4 0 0 1 1.0392-1.3527l8.6787-2.3143c-.0001 0 0 0 0 0Z"/>
</g></svg>