<svg xmlns="http://www.w3.org/2000/svg" data-laicon-version="15.3" viewBox="0 0 20 20" fill="black"><g transform="translate(-2 -2)">
  <path d="M9.039 8.449a.517.517 0 0 1 .368-.149h1.035a.561.561 0 0 1 .477.26l.003.004 2.216 3.425V8.817c0-.12.04-.259.149-.368a.517.517 0 0 1 .368-.149h.936c.12 0 .259.04.368.149.11.11.149.248.149.368v6.372c0 .12-.039.259-.149.368a.517.517 0 0 1-.368.149h-1.026a.561.561 0 0 1-.477-.259l-.003-.004-2.225-3.436v3.182c0 .12-.039.259-.149.368a.517.517 0 0 1-.368.149h-.936a.517.517 0 0 1-.368-.149.517.517 0 0 1-.149-.368V8.817c0-.12.04-.259.149-.368Z"/>
  <path d="M7.13 21.1h-.016A4.23 4.23 0 0 1 2.9 16.871V7.13A4.23 4.23 0 0 1 7.13 2.9h9.74a4.23 4.23 0 0 1 4.23 4.23v9.742a4.23 4.23 0 0 1-4.23 4.23H7.13ZM4.7 7.13v9.741a2.43 2.43 0 0 0 2.43 2.43h9.74a2.43 2.43 0 0 0 2.43-2.43V7.129a2.43 2.43 0 0 0-2.43-2.43H7.13A2.43 2.43 0 0 0 4.7 7.13Z"/>
</g></svg>