<svg xmlns="http://www.w3.org/2000/svg" data-laicon-version="15.0" viewBox="0 0 20 20" fill="black"><g transform="translate(-2 -2)">
  <path d="M15.0999 8.9H11.5V7.1h3.5999v1.8Zm0 2.667H11.5v-1.8h3.5999v1.8Zm-.0002 2.666h-8.9v-1.8h8.9v1.8Zm0 2.667h-8.9v-1.8h8.9v1.8Z"/>
  <path d="M4.6999 5.431v12.538c0 .3309.269.6.6.6h13.57v1.8h-13.57c-1.325 0-2.4-1.0749-2.4-2.4V5.031c0-.772.628-1.4 1.4-1.4h12.746c.7721 0 1.4.628 1.4 1.4v13.111h-1.8V5.431H4.6999Z"/>
  <path d="M19.3 8.757h-1.754v-1.8H19.7c.772 0 1.4.628 1.4 1.4v9.7851c0 1.23-.997 2.227-2.227 2.227-1.2301 0-2.227-.997-2.227-2.227h1.8c0 .2359.191.427.427.427a.4269.4269 0 0 0 .427-.427v-9.385ZM6.191 7.1h4.3399v4.467h-4.34V7.1Zm1.8 1.8v.867h.74V8.9h-.74Z"/>
</g></svg>