<svg xmlns="http://www.w3.org/2000/svg" data-laicon-version="17.1" viewBox="0 0 20 20" fill="black"><g transform="translate(-2 -2)">
  <path d="M13 10.1H8V8.3h5v1.8Zm-1.5 2.8H8v-1.8h3.5v1.8Zm.75 2.8H8v-1.8h4.25v1.8Zm1.95-5.6H16V8.3h-1.8v1.8Zm0 2.8H16v-1.8h-1.8v1.8Zm0 2.8H16v-1.8h-1.8v1.8Z"/>
  <path d="M4.1 4.86A1.9 1.9 0 0 1 6 2.96h12a1.9 1.9 0 0 1 1.9 1.9v14.28a1.9 1.9 0 0 1-1.9 1.9H6a1.9 1.9 0 0 1-1.9-1.9V4.86Zm1.9-.1a.1.1 0 0 0-.1.1v14.28a.1.1 0 0 0 .1.1h12a.1.1 0 0 0 .1-.1V4.86a.1.1 0 0 0-.1-.1H6Z"/>
</g></svg>