<svg xmlns="http://www.w3.org/2000/svg" data-laicon-version="15.0" viewBox="0 0 20 20" fill="black"><g transform="translate(-2 -2)">
  <path d="M6.0001 4.7604a.1.1 0 0 0-.1.1v14.2791a.1.1 0 0 0 .1.1h12a.1.1 0 0 0 .1-.1V4.8604a.1.1 0 0 0-.1-.1h-12Zm-1.9.1c0-1.0494.8506-1.9 1.9-1.9h12c1.0494 0 1.9.8506 1.9 1.9v14.2791c0 1.0493-.8506 1.9-1.9 1.9h-12c-1.0494 0-1.9-.8507-1.9-1.9V4.8604Z"/>
  <path d="M15.0534 12.8H8.9468v-1.6h6.1066v1.6Zm0-3.3413H8.9468v-1.6h6.1066v1.6Zm0 6.6827H8.9468v-1.6h6.1066v1.6Z"/>
</g></svg>