<svg xmlns="http://www.w3.org/2000/svg" data-laicon-version="16.12" viewBox="0 0 20 20" fill="black"><g transform="translate(-2 -2)">
  <path d="M20.97 12.4c-.22-.27-.48-.5-.8-.68.73-.5 1.16-1.28 1.16-2.17 0-1.63-1.46-2.86-3.4-2.86-1.67 0-3.04 1-3.47 2.56-.04.13-.03.26.03.37.04.08.13.18.31.23l.75.2a.5.5 0 0 0 .38-.03c.09-.05.16-.12.21-.22l.03-.07c.25-.81.9-1.28 1.76-1.28.92 0 1.59.53 1.59 1.26s-.64 1.22-1.52 1.22h-.55a.476.476 0 0 0-.48.48v.68c0 .13.05.25.13.34.09.1.21.15.35.15h.52c.55 0 1 .14 1.32.4.29.25.45.6.45 1.02 0 .9-.73 1.52-1.78 1.52-.47 0-.88-.13-1.2-.38-.33-.26-.58-.65-.73-1.16a.509.509 0 0 0-.24-.28.548.548 0 0 0-.34-.04l-.74.21c-.13.03-.25.1-.31.21-.05.08-.1.21-.05.38.43 1.75 1.81 2.84 3.62 2.84 2.09 0 3.6-1.33 3.6-3.17 0-.67-.19-1.25-.56-1.73h-.04Zm-7.19 2.99h-3.56l.79-.84c1.2-1.26 1.92-2.16 2.34-2.93.46-.84.53-1.48.53-2.04 0-.84-.33-1.58-.92-2.1-.58-.51-1.39-.78-2.32-.78-.84 0-1.58.23-2.18.67-.6.44-1.04 1.07-1.3 1.88-.04.14-.02.28.05.39.07.12.19.19.31.21l.75.2c.13.04.27.03.38-.03.11-.06.19-.16.23-.28.14-.42.37-.75.66-.96.29-.21.65-.32 1.08-.32.45 0 .82.12 1.08.33.25.21.38.51.38.88 0 .41-.07.78-.39 1.33-.33.57-.92 1.29-1.95 2.42L7.41 16c-.09.12-.14.25-.14.38v.23c0 .14.05.26.14.35.09.09.22.14.36.14h6.03c.14 0 .26-.05.35-.15.08-.09.13-.21.13-.34v-.75a.476.476 0 0 0-.48-.48l-.02.01ZM5.4 6.87h.57a.476.476 0 0 1 .48.48v9.27c0 .13-.05.25-.13.34-.09.1-.21.15-.35.15h-.82c-.14 0-.26-.05-.35-.15a.513.513 0 0 1-.13-.34V9.38l-1.33.74c-.14.07-.26.08-.38.04a.519.519 0 0 1-.27-.24l-.17-.28a.482.482 0 0 1-.06-.35c.02-.11.08-.21.18-.29L5 7.02c.1-.1.23-.15.4-.15Z"/>
</g></svg>