<svg xmlns="http://www.w3.org/2000/svg" data-laicon-version="16.11" viewBox="0 0 20 20" fill="black"><g transform="translate(-2 -2)">
  <path d="M11.643 8.05a1 1 0 1 1-1.787-.9 1 1 0 0 1 1.787.9Zm3.8.233a1 1 0 1 1-1.786-.9 1 1 0 0 1 1.786.9Zm-8.291 6.462a1 1 0 1 0 .9-1.787 1 1 0 0 0-.9 1.787ZM8.729 10.5a1 1 0 1 1-1.787-.899 1 1 0 0 1 1.787.9Z"/>
  <path d="M3.1 12a8.9 8.9 0 1 1 17.8 0 3.045 3.045 0 0 1-3.508 3.01l-.559-.087a1.886 1.886 0 0 0-2.166 2.009l.077 1.005A2.752 2.752 0 0 1 12 20.9 8.9 8.9 0 0 1 3.1 12ZM12 4.9a7.1 7.1 0 1 0 0 14.2.952.952 0 0 0 .95-1.025l-.078-1.005a3.686 3.686 0 0 1 4.235-3.926l.559.086A1.245 1.245 0 0 0 19.1 12 7.1 7.1 0 0 0 12 4.9Z"/>
</g></svg>