<svg xmlns="http://www.w3.org/2000/svg" data-laicon-version="15.0" viewBox="0 0 20 20" fill="black"><g transform="translate(-2 -2)">
  <path d="M2.8712 4.5047C2.673 3.401 3.8187 2.5434 4.8219 3.045l15.4757 7.736c1.0049.5023 1.0045 1.936.0002 2.4382L4.8219 20.9553c-1.0032.5015-2.1489-.356-1.9507-1.4598l1.3456-7.4954-1.3456-7.4954Zm1.9257.54 1.2055 6.7146a1.3643 1.3643 0 0 1 0 .4814l-1.2055 6.7148 13.9139-6.9554L4.7969 5.0447Zm14.6961 7.3464c.0002.0001-.0002-.0001 0 0Z"/>
  <path d="M12.4996 12.9H5.1167v-1.8h7.3829v1.8Z"/>
</g></svg>