<svg xmlns="http://www.w3.org/2000/svg" data-laicon-version="15.0" viewBox="0 0 20 20" fill="black"><g transform="translate(-2 -2)">
  <path d="M11.1002 19c-.5.4-1.4.8-2.2.8-2 0-3.6-1.5-3.6-3.5 0-.9.3-1.7.9-2.4l9.2-9.3c.3-.2.7-.3 1.2-.3 1.1 0 2 .9 2 2 0 .4-.2 1-.4 1.3l-.4.4-8.2 8.2c-.1.1-.3.2-.4.2-.3 0-.6-.3-.6-.6 0-.2 0-.3.3-.5l7-7-1.1-1.3-7 7c-.3.3-.8.8-.8 1.8 0 1.3 1.1 2.4 2.4 2.4.6 0 1.2-.3 1.7-.7l8.3-8.3c.2-.2.4-.4.4-.5.5-.7.8-1.6.8-2.4 0-2.1-1.7-3.8-3.8-3.8-.9 0-1.7.3-2.3.7l-9.5 9.6c-.8.9-1.3 2.2-1.3 3.5 0 3 2.4 5.3 5.4 5.3 1.3 0 2.6-.6 3.3-1.2 0 0 .1 0 .1-.1l7.9-7.9-1.3-1.3-8 7.9Z"/>
</g></svg>