<svg xmlns="http://www.w3.org/2000/svg" data-laicon-version="15.0" viewBox="0 0 20 20" fill="black"><g transform="translate(-2 -2)">
  <path d="M4.8542 3.225a2.4741 2.4741 0 0 1 3.601.11l2.557 2.888c.591.668.56 1.68-.07 2.311l-1.449 1.448c.027.061.062.133.106.216.255.48.796 1.256 1.871 2.332 1.076 1.075 1.852 1.616 2.332 1.871.083.045.155.079.216.106l1.448-1.449a1.687 1.687 0 0 1 2.311-.07l2.889 2.557a2.4726 2.4726 0 0 1 .8328 1.7767 2.4742 2.4742 0 0 1-.7228 1.8243l-1.501 1.5c-.427.428-1.078.69-1.8.796-.743.11-1.643.07-2.66-.182-2.037-.505-4.577-1.87-7.391-4.684-2.815-2.814-4.179-5.354-4.684-7.391-.252-1.017-.292-1.917-.182-2.66.107-.722.368-1.373.795-1.8l1.5-1.5h.001Zm1.272 1.273-1.5 1.5c-.059.058-.214.29-.288.79-.07.479-.055 1.14.149 1.963.408 1.645 1.566 3.909 4.21 6.553s4.907 3.8 6.552 4.209c.824.204 1.485.22 1.963.149.5-.074.732-.23.79-.288l1.5-1.5a.6733.6733 0 0 0 .1974-.4975.6739.6739 0 0 0-.2274-.4845l-2.808-2.486-1.696 1.696a.9748.9748 0 0 1-.426.247c-.105.03-.201.04-.274.041a1.6622 1.6622 0 0 1-.414-.044 3.6996 3.6996 0 0 1-.898-.356c-.682-.363-1.6-1.028-2.758-2.187-1.16-1.16-1.825-2.077-2.188-2.759a3.7479 3.7479 0 0 1-.356-.898 1.6641 1.6641 0 0 1-.044-.414c.002-.073.01-.169.04-.274a.973.973 0 0 1 .247-.425l1.697-1.697-2.486-2.809a.674.674 0 0 0-.982-.03v.001Zm7.814-.08a.9941.9941 0 1 1 1.9882.0002.9941.9941 0 0 1-1.9882-.0002Zm3.472.992a.9929.9929 0 1 1 0-1.9858.9929.9929 0 0 1 0 1.9858Zm1.485-.992a.9918.9918 0 0 0 .992.992.9922.9922 0 0 0 .992-.992.992.992 0 1 0-1.984 0Zm.993 3.471a.9938.9938 0 0 1-.9458-.6073.9932.9932 0 0 1 .2253-1.1012.994.994 0 0 1 .7235-.2785.9941.9941 0 0 1-.004 1.987h.001Zm-3.273-1.192a.9926.9926 0 1 0 1.9099-.3779.9928.9928 0 0 0-1.6185-.3236.9927.9927 0 0 0-.2914.7015Z"/>
  <path d="M14.4381 10.862a.9928.9928 0 0 1-.7231-.2796.9923.9923 0 0 1-.3024-.7139.9947.9947 0 0 1 .3024-.714.9928.9928 0 0 1 .7231-.2795.9938.9938 0 0 1 .9625.9935.9936.9936 0 0 1-.2801.6916.9936.9936 0 0 1-.6824.3019Zm.587-2.572a.993.993 0 0 0 .2906.7015.9911.9911 0 0 0 .7014.2905.9914.9914 0 0 0 .7015-.2905.9913.9913 0 0 0 .2905-.7015.9921.9921 0 1 0-1.984 0Zm4.865 2.076a.992.992 0 1 1 0-1.9838.992.992 0 0 1 0 1.9838Z"/>
</g></svg>