<svg xmlns="http://www.w3.org/2000/svg" data-laicon-version="15.0" viewBox="0 0 20 20" fill="black"><g transform="translate(-2 -2)">
  <path d="M16.6394 13.5601c-.69-.6-1.75-.56-2.4.09l-1.29 1.29c-.46-.21-1.36-.77-2.55-1.96-1.26-1.26-1.77-2.15-1.96-2.55l1.29-1.29c.65-.65.69-1.7.09-2.4l-1.83-2.12c-.45-.51-1.12-.81-1.85-.82h-.07c-.66.01-1.27.26-1.72.71l-1.2 1.2c-.54.54-.85 1.46-.85 2.59 0 1.46.6 4.48 4.45 8.33 3.87 3.87 6.9 4.45 8.37 4.45 1.08 0 2.01-.31 2.55-.85l1.2-1.2c.46-.45.71-1.06.73-1.72v-.12c-.02-.69-.33-1.34-.85-1.81l-2.1-1.82h-.01Zm.95 4.2-1.2 1.2c-.11.11-.53.33-1.28.33-.95 0-3.55-.38-7.09-3.92-3.52-3.52-3.92-6.12-3.92-7.11 0-.74.21-1.15.33-1.26l1.2-1.2c.11-.11.29-.18.47-.18h.03c.21 0 .4.08.51.21l1.82 2.06-1.66 1.66c-.16.16-.25.38-.26.6-.03.73.76 2.29 2.59 4.12 1.65 1.65 3.34 2.68 4.19 2.58.2-.02.39-.11.53-.26l1.6-1.66 2.1 1.81c.15.13.24.32.24.55 0 .18-.08.34-.2.47Z"/>
  <path d="M21.0797 2.76c-.25-.19-.56-.25-.86-.17l-4.29 1.14c-.44.12-.74.51-.74.96v3.72c-.12-.02-.24-.04-.37-.04-1.03 0-1.87.84-1.87 1.87 0 1.03.84 1.87 1.87 1.87 1.03 0 1.87-.84 1.87-1.87V7.15l3.29-.88v.86c-.12-.02-.24-.04-.37-.04-1.03 0-1.87.84-1.87 1.87 0 1.03.84 1.87 1.87 1.87 1.03 0 1.87-.84 1.87-1.87V3.55c0-.31-.14-.6-.39-.79h-.01Zm-6.26 7.86c-.2 0-.37-.16-.37-.37s.16-.37.37-.37.37.16.37.37-.16.37-.37.37Zm1.87-5.01v-.52l3.29-.88v.52l-3.29.88Zm2.92 3.74c-.2 0-.37-.16-.37-.37s.16-.37.37-.37.37.16.37.37-.16.37-.37.37Z"/>
</g></svg>