<svg xmlns="http://www.w3.org/2000/svg" data-laicon-version="15.0" viewBox="0 0 20 20" fill="black"><g transform="translate(-2 -2)">
  <path d="M4.8542 3.225a2.4741 2.4741 0 0 1 3.601.11l2.557 2.888c.591.668.56 1.68-.07 2.311l-1.449 1.449c.027.06.062.132.106.215.255.48.796 1.257 1.871 2.332 1.076 1.075 1.852 1.616 2.332 1.872.083.044.155.078.216.105l1.448-1.449a1.687 1.687 0 0 1 2.311-.07l2.889 2.557a2.4742 2.4742 0 0 1 .6604 2.7644 2.474 2.474 0 0 1-.5504.8376l-1.501 1.5c-.427.427-1.078.689-1.8.795-.743.11-1.643.07-2.66-.182-2.037-.505-4.577-1.869-7.391-4.684-2.815-2.814-4.179-5.354-4.684-7.391-.252-1.017-.292-1.917-.182-2.66.107-.722.368-1.373.795-1.8l1.5-1.5h.001Zm1.272 1.273-1.5 1.5c-.059.059-.214.291-.288.79-.07.479-.055 1.14.149 1.963.408 1.645 1.566 3.909 4.21 6.553s4.907 3.8 6.552 4.21c.824.204 1.485.219 1.963.148.5-.074.732-.23.79-.288l1.5-1.5a.6746.6746 0 0 0 .1499-.2281.6755.6755 0 0 0-.0164-.5343.6719.6719 0 0 0-.1635-.2186l-2.808-2.487-1.696 1.696a.9748.9748 0 0 1-.426.247 1.1385 1.1385 0 0 1-.274.041 1.6622 1.6622 0 0 1-.414-.044 3.6916 3.6916 0 0 1-.898-.356c-.682-.363-1.6-1.028-2.758-2.187-1.16-1.16-1.825-2.077-2.188-2.759a3.7585 3.7585 0 0 1-.356-.897 1.6643 1.6643 0 0 1-.044-.415c.002-.073.01-.169.04-.274a.973.973 0 0 1 .247-.425l1.697-1.696-2.486-2.81a.674.674 0 0 0-.982-.03v.001Zm6.617.72a1.2497 1.2497 0 0 1 1.25-1.25 1.2499 1.2499 0 0 1 .8839 2.1339 1.2499 1.2499 0 0 1-2.1339-.884Zm4.832 0a1.2504 1.2504 0 0 1 1.25-1.25 1.2502 1.2502 0 0 1 1.25 1.25 1.25 1.25 0 0 1-2.5 0Z"/>
</g></svg>