<svg xmlns="http://www.w3.org/2000/svg" data-laicon-version="15.0" viewBox="0 0 20 20" fill="black"><g transform="translate(-2 -2)">
  <path d="m7.1082 4.527 2.486 2.81-1.697 1.696a.9731.9731 0 0 0-.246.425c-.03.105-.04.201-.041.274-.0027.1393.012.2784.044.414.059.258.175.559.356.898.363.682 1.028 1.6 2.188 2.759 1.159 1.16 2.076 1.824 2.758 2.187.34.18.64.297.898.356.126.028.268.049.414.044a1.1423 1.1423 0 0 0 .274-.04.9766.9766 0 0 0 .426-.248l1.696-1.696 2.809 2.486c.29.258.304.707.03.982l-1.5 1.5c-.06.059-.292.214-.791.288-.478.07-1.14.055-1.963-.149-1.645-.408-3.909-1.566-6.552-4.21-2.644-2.643-3.802-4.907-4.21-6.552-.204-.824-.22-1.484-.149-1.963.074-.5.23-.732.288-.79l1.5-1.5a.674.674 0 0 1 .982.03v-.001Zm1.347-1.193a2.474 2.474 0 0 0-3.601-.11l-1.5 1.501c-.428.427-.69 1.078-.796 1.8-.11.743-.07 1.643.182 2.66.505 2.037 1.87 4.577 4.684 7.391 2.814 2.815 5.354 4.179 7.391 4.684 1.017.252 1.917.292 2.66.182.722-.107 1.373-.368 1.8-.795l1.5-1.5a2.474 2.474 0 0 0-.11-3.602l-2.888-2.557a1.687 1.687 0 0 0-2.31.07l-1.45 1.449a3.1737 3.1737 0 0 1-.215-.106c-.48-.255-1.256-.796-2.332-1.871-1.075-1.075-1.616-1.852-1.871-2.332a3.2045 3.2045 0 0 1-.106-.216l1.449-1.448c.63-.63.661-1.643.07-2.311l-2.557-2.889Z"/>
</g></svg>