<svg xmlns="http://www.w3.org/2000/svg" data-laicon-version="15.0" viewBox="0 0 20 20" fill="black"><g transform="translate(-2 -2)">
  <path d="M21.4533 9.2224h-3.6979v-1.8h3.6979v1.8Zm-.0001 3.7376H17.77v-1.8h3.6832v1.8ZM9.252 7.5735V5.0253h1.8v2.5482h-1.8Z"/>
  <path d="M8.2785 5.4527V7.532h-1.8v-2.63c0-.8527.7748-1.2492 1.3282-1.2492h12.6747c.5535 0 1.3282.3965 1.3282 1.2492v10.3364c0 .8528-.7749 1.2492-1.3282 1.2492h-3.0015V5.4527H8.2785Zm11.0014 0v9.2348h.7297V5.4527h-.7297Z"/>
  <path d="M4.0002 10.3768v8.1705h10.908v-8.1705H4.0002Zm-1.8-.5591c0-.7903.6883-1.241 1.2874-1.241h11.9332c.5991 0 1.2874.4507 1.2874 1.241v9.2887c0 .7903-.6883 1.2409-1.2874 1.2409H3.4876c-.5992 0-1.2874-.4508-1.2874-1.2409V9.8177Z"/>
  <path d="M12.3153 11.25c.5884 0 1.0653.4771 1.0653 1.0654 0 .5884-.4769 1.0653-1.0653 1.0653-.5883 0-1.0653-.4769-1.0653-1.0653 0-.5883.477-1.0654 1.0653-1.0654Zm1.133 7.2461a.8994.8994 0 0 1 .2636.6364.9005.9005 0 0 1-.2636.6364c-.3165.3165-.8096.3479-1.1615.0947l-.0082-.0059-.096-.0816-5.306-5.3055-2.9388 2.9399c-.3165.3165-.8096.3479-1.1615.0947l-.0083-.0059-.096-.0816-.007-.0072a.9.9 0 0 1-.0948-1.1614l.006-.0083.0816-.0959 4.2196-4.2197 6.5709 6.5709Z"/>
</g></svg>