<svg xmlns="http://www.w3.org/2000/svg" data-laicon-version="15.0" viewBox="0 0 20 20" fill="black"><g transform="translate(-2 -2)">
  <path d="m2.878 5.3641 15.5753 15.1107-.114.1174 1.2106 1.1745 1.2534-1.2919-3.705-3.5944h1.9299a.9.9 0 0 0 .7568-1.3871l-2.8713-4.461V4.1991a.9.9 0 0 0-.9-.9H7.9863a.9.9 0 0 0-.9.9v2.968l-3.069-2.9774L2.878 5.364Zm3.8428 6.2361L4.215 15.4933a.9.9 0 0 0 .7568 1.3871H11.1v4.4873a.9.9 0 0 0 1.8 0v-3.7726l-2.592-2.5147H6.6214l1.4171-2.2018-1.3177-1.2784Zm2.1655-2.6868V5.099h6.2274v6.1978c0 .1728.0497.3419.1432.4871l2.1217 3.2964H15.243l-6.3567-6.167Z"/>
</g></svg>