<svg xmlns="http://www.w3.org/2000/svg" data-laicon-version="15.0" viewBox="0 0 20 20" fill="black"><g transform="translate(-2 -2)">
  <path d="M19.8181 16.4114a.9.9 0 0 1-.79.469H4.9718a.9.9 0 0 1-.7568-1.3871l2.8712-4.461V4.1991a.9.9 0 0 1 .9-.9h8.0274a.9.9 0 0 1 .9.9v6.8332l2.8712 4.461a.8998.8998 0 0 1 .0333.9181Zm-2.4396-1.331-2.1217-3.2964a.8997.8997 0 0 1-.1432-.4871V5.0991H8.8862v6.1978a.8997.8997 0 0 1-.1432.4871l-2.1216 3.2964h10.7571Z"/>
  <path d="M12.0001 15.0804a.9.9 0 0 1 .9.9v5.3873a.9.9 0 0 1-1.8 0v-5.3873a.9.9 0 0 1 .9-.9Z"/>
</g></svg>