<svg xmlns="http://www.w3.org/2000/svg" data-laicon-version="15.0" viewBox="0 0 20 20" fill="black"><g transform="translate(-2 -2)">
  <path d="M11.316 3.49a.9467.9467 0 0 0-.032.03L8.038 6.767 4.901 3.628c-.68-.679-1.838-.195-1.838.762v7.435c0 .366.183.689.462.883a.8182.8182 0 0 0 .05.053l3.195 3.196-3.142 3.141-.002.003c-.664.669-.21 1.836.763 1.836h7.435c.268 0 .513-.098.701-.26a1.0821 1.0821 0 0 0 .29-.207l3.191-3.191 3.09 3.09c.68.68 1.841.198 1.841-.763v-7.427c0-.217-.064-.42-.174-.589a1.08 1.08 0 0 0-.239-.36l-3.24-3.24 2.833-2.834.264-.263c.677-.678.194-1.829-.757-1.829H12.17c-.349 0-.659.167-.854.426ZM12.9 9.828V4.864h4.963L12.9 9.828ZM11.1 6.25v3.578L9.31 8.039 11.1 6.25Zm1.8 11.59v-3.667l1.833 1.833L12.9 17.84ZM9.827 12.9l-1.784 1.784-1.783-1.783h3.567V12.9Zm6.184-3.638 1.838 1.838h-3.676l1.838-1.838ZM4.863 6.137l4.964 4.964H4.863V6.137Zm9.31 6.763h4.964v4.965L14.173 12.9Zm-8.038 6.237 4.966-4.964v4.964H6.135Z"/>
</g></svg>