<svg xmlns="http://www.w3.org/2000/svg" data-laicon-version="15.0" viewBox="0 0 20 20" fill="black"><g transform="translate(-2 -2)">
  <path d="M11.0996 10.98c.6903 0 1.25-.5596 1.25-1.25 0-.6903-.5597-1.25-1.25-1.25-.6904 0-1.25.5597-1.25 1.25 0 .6904.5596 1.25 1.25 1.25Zm4.4902 1.8301c0 .69-.56 1.25-1.25 1.25s-1.25-.56-1.25-1.25.56-1.25 1.25-1.25 1.25.56 1.25 1.25Z"/>
  <path d="m21.3498 16.7601-7.7-13.33c-.34-.6-.96-.95-1.65-.95s-1.31.36-1.65.96l-7.69 13.31c-.26.46-.33 1.01-.18 1.51.15.5.49.9.95 1.13 2.69 1.35 5.64 2.0299 8.58 2.0299 2.94 0 5.89-.6799 8.56-2.0299.46-.23.8-.64.95-1.13.15-.5.08-1.05-.18-1.5h.01Zm-9.44-12.43s.17-.04.19 0l5.76 9.98c-3.68 1.8-8.02 1.8-11.71 0l5.76-9.98Zm7.86 13.45c-4.85 2.45-10.65 2.45-15.53 0l-.02-.14 1.01-1.75c2.13 1.06 4.45 1.6 6.77 1.6 2.32 0 4.64-.53 6.76-1.59l1.02 1.7599.05.0801-.07.0499.01-.0099Z"/>
</g></svg>