<svg xmlns="http://www.w3.org/2000/svg" data-laicon-version="15.0" viewBox="0 0 20 20" fill="black"><g transform="translate(-2 -2)">
  <path d="M8.2526 4.504v.0001l6.5537 3.424 2.6352-1.5214c1.2797-.7389 3.0555-.5342 3.9955.7732l-.7307.5254.7307-.5253c1.041 1.4478.5852 3.4421-.9226 4.3126L7.0701 19.2548a.9001.9001 0 0 1-1.2295-.3294l-3.72-6.4433a.9.9 0 0 1 1.0032-1.3218l4.2112 1.0814 1.2053-.6959-4.0014-4.3585a.9.9 0 0 1 .213-1.3881l2.1957-1.2677h.0001a1.355 1.355 0 0 1 1.3049-.0274Zm-.6168 1.7087-1.0118.5841 4.0013 4.3586a.8998.8998 0 0 1-.2129 1.388L7.917 13.9842a.9004.9004 0 0 1-.6739.0923L4.75 13.4363l2.1995 3.8096 12.6649-7.3121c.5946-.3433.7743-1.1284.3611-1.703-.3245-.4515-1.0376-.6096-1.634-.2653l-3.0636 1.7688a.8998.8998 0 0 1-.8667.0183l-6.7754-3.54Z"/>
</g></svg>