<svg xmlns="http://www.w3.org/2000/svg" data-laicon-version="15.0" viewBox="0 0 20 20" fill="black"><g transform="translate(-2 -2)">
  <path d="M2.75 7.1094c0-.527.5811-.847 1.0264-.5651l7.7283 4.8905a.6693.6693 0 0 1 .1609.142.6707.6707 0 0 1 0 .8462.6718.6718 0 0 1-.1609.1421l-7.7283 4.8905c-.4453.2818-1.0264-.0382-1.0264-.5651v-9.781Zm9.7722 0c0-.527.5811-.847 1.0264-.5651l7.7283 4.8905c.4149.2625.4149.8677 0 1.1303l-7.7283 4.8905c-.4453.2818-1.0264-.0382-1.0264-.5651v-9.781ZM4.55 9.164v5.6721L9.0317 12 4.55 9.1639Zm9.7722 0v5.6721L18.8038 12l-4.4816-2.836Z"/>
</g></svg>