<svg xmlns="http://www.w3.org/2000/svg" data-laicon-version="15.0" viewBox="0 0 20 20" fill="black"><g transform="translate(-2 -2)">
  <path d="M21.2502 7.1094c0-.527-.5811-.847-1.0264-.5651l-7.7283 4.8905a.6693.6693 0 0 0-.1609.142.6707.6707 0 0 0 0 .8462.6718.6718 0 0 0 .1609.1421l7.7283 4.8905c.4453.2818 1.0264-.0382 1.0264-.5651v-9.781Zm-9.7722 0c0-.527-.5811-.847-1.0264-.5651l-7.7283 4.8905c-.415.2625-.415.8677 0 1.1303l7.7283 4.8905c.4453.2818 1.0264-.0382 1.0264-.5651v-9.781Zm7.9722 2.0545v5.6721l-4.4816-2.8361 4.4816-2.836Zm-9.7722 0v5.6721l-4.4817-2.8361 4.4817-2.836Z"/>
</g></svg>