<svg xmlns="http://www.w3.org/2000/svg" data-laicon-version="15.0" viewBox="0 0 20 20" fill="black"><g transform="translate(-2 -2)">
  <path d="M12.25 5.5c0 .8816-.6519 1.611-1.5 1.7323v1.2676a.25.25 0 0 0 .25.25h3.5c2.8995 0 5.25 2.3506 5.25 5.25v2.7678c.8481.1213 1.5.8507 1.5 1.7323v2.75h-9.5V18.5c0-.8816.6519-1.611 1.5-1.7323V15.5a.25.25 0 0 0-.25-.25H9.5c-2.8995 0-5.25-2.3506-5.25-5.25V7.2323c-.848-.1213-1.5-.8507-1.5-1.7323V2.75h9.5V5.5Zm-7.7-.95v.9h5.9v-.9h-5.9Zm8.45 8.9c1.1322 0 2.05.9178 2.05 2.05v1.25h2.9v-2.7501c0-1.9053-1.5446-3.4499-3.45-3.4499l-1.65-.0001V13.45H13ZM8.95 8.5V7.25h-2.9V10c0 1.9053 1.5446 3.45 3.45 3.45h1.65v-2.9001H11c-1.1322 0-2.05-.9178-2.05-2.05Zm10.5 10.95v-.9h-5.9v.9h5.9Z"/>
</g></svg>