<svg xmlns="http://www.w3.org/2000/svg" data-laicon-version="15.0" viewBox="0 0 20 20" fill="black"><g transform="translate(-2 -2)">
  <path d="M3.3488 5.9286v12.1589h15.557a.4.4 0 0 0-.4.4h1.8c0 .7734-.627 1.4-1.4 1.4H2.9488c-.7731 0-1.4-.6268-1.4-1.4V5.5286c0-.7732.6269-1.4 1.4-1.4h15.957c.7734 0 1.4.627 1.4 1.4V13h-1.8V5.9286H3.3488Z"/>
  <path d="M5.0635 14.1123v-3.2601h1.4v3.2601h-1.4Zm5.7002 0v-3.2601h1.4v3.2601h-1.4Zm2.0498 0v-3.2601h1.1v3.2601h-1.1Zm-3.9497 0v-3.2601h1.4v3.2601h-1.4Zm-1.75 0v-3.2601h1.1v3.2601h-1.1Zm12.1258-5.1006H2.6152v-1.8h16.6244v1.8ZM19.5441 16.0875h-.6337a.05.05 0 0 1-.05-.0499v-.9373a.05.05 0 0 1 .05-.05h.6337a.5186.5186 0 0 1 0 1.0372Z"/>
  <path d="M15.3154 16.0195c0-2.1362 1.7318-3.868 3.868-3.868 2.1362 0 3.868 1.7318 3.868 3.868 0 2.1362-1.7318 3.868-3.868 3.868-2.1362 0-3.868-1.7318-3.868-3.868Zm4.3144-1.7593h-1.5222a.1606.1606 0 0 0-.1605.1609v3.5184c0 .0889.0718.161.1605.161h.593a.1608.1608 0 0 0 .1605-.161v-1.0077c0-.0383.0164-.0548.0547-.0548l.6956.0023c.7211 0 1.3058-.5864 1.3058-1.3096 0-.7169-.5749-1.2994-1.2874-1.3095Z"/>
</g></svg>