<svg xmlns="http://www.w3.org/2000/svg" data-laicon-version="15.0" viewBox="0 0 20 20" fill="black"><g transform="translate(-2 -2)">
  <path d="M18.7999 11.2491h-.8v-2.2c0-1.5-1.3-2.8-2.8-2.8h-2.2v-.8c0-1.1-.8-2.8-2.8-2.8-2 0-2.8 1.6-2.8 2.8v.8h-2.2c-1.5 0-2.8 1.3-2.8 2.8v2.8c0 .5.4.9.9.9h1.7c1 0 1.1.9 1.1 1.2 0 .3-.1 1.2-1.1 1.2h-1.7c-.5 0-.9.4-.9.9v3.1c0 1.5 1.3 2.8 2.8 2.8h3c.5 0 .9-.4.9-.9l-.1-1.8c0-1 .8-1.1 1.2-1.1.4 0 1.2.1 1.2 1.1v1.8c0 .5.4.9.9.9h2.9c.8 0 1.5-.3 2-.8s.8-1.2.8-2v-2.2h.8c1.1 0 2.8-.8 2.8-2.8 0-2-1.6-2.9-2.8-2.9Zm0 3.8h-1.7c-.2 0-.5.1-.6.3-.1.2-.3.4-.3.6v3.1c0 .3-.1.5-.3.7-.2.2-.4.3-.7.3h-2v-.8c0-1.7-1.2-2.9-3-2.9s-3 1.2-3 2.9v.8h-2.1c-.6 0-1-.5-1-1v-2.2h.9c1.7 0 2.9-1.3 2.9-3s-1.2-3-2.9-3h-.8v-1.9c0-.6.5-1 1-1h3.1c.2 0 .5-.1.6-.3.2-.2.3-.4.3-.6v-1.7c0-.4.2-1 1-1 .9 0 1 .6 1 1v1.7c0 .5.4.9.9.9h3.1c.6 0 1 .5 1 1v3.1c0 .5.4.9.9.9h1.7c.4 0 1 .2 1 1s-.6 1.1-1 1.1Z"/>
</g></svg>