<svg xmlns="http://www.w3.org/2000/svg" data-laicon-version="15.0" viewBox="0 0 20 20" fill="black"><g transform="translate(-2 -2)">
  <path d="M13.6577 4.1133h5.3074a.7978.7978 0 0 1 .7979.7978v3.886h-1.5234v1.6371h-1.6349v1.6372h1.6349v1.5106h-1.6349v1.6372h1.6349v1.3097h-1.6372v2.0642h-2.9447v-2.0642h1.3075v-1.3097h-1.3075V13.582h2.9447v-1.5106h-2.9447v-1.6372h2.9447v-1.637H15.079v-3.374h-1.4213v-1.31Zm2.7312 1.3098v2.0642h2.0644V5.4231h-2.0644ZM19.7628 16.5289H18.453v2.0642h-1.8485v1.3097h2.3605a.798.798 0 0 0 .7979-.7979v-2.576h-.0001Zm-6.1052 2.0642h-1.6371v1.3097h1.6371v-1.3097Z"/>
  <path d="M9.0737 13.582h2.9471v1.6372h1.6372v1.3097h-1.6372v2.0642H10.711v-3.3739H9.0738v4.6836H5.0352a.7979.7979 0 0 1-.7979-.7979v-3.8857h4.8364V13.582ZM5.547 16.5289v2.0642h1.8895v-2.0642H5.547ZM13.6579 5.4231h-1.6372v2.0642h-1.3098v1.3098h1.3098v1.6371h1.6372V5.4231Zm-.0003 6.6483h-1.6371v1.5106h1.6371v-1.5106Z"/>
  <path d="M9.0737 4.1133H5.0352a.798.798 0 0 0-.7979.798v3.886h4.8364v3.2741h2.9469v-1.6372h-1.3097v-1.637H9.0737v-4.684Zm-3.5266 3.374V5.4231h1.8895v2.0642H5.5471Z"/>
  <path d="M19.7627 10.4342h-1.5234v1.6372h1.5234v-1.6372Zm0 3.1478h-1.5234v1.6372h1.5234V13.582ZM7.4365 10.4342H4.2373v1.6372h.0002v1.5106h1.3097v-1.5106h1.8893v-1.6372Z"/>
  <path d="M9.0737 12.0714H7.4365v1.5106h1.6372v-1.5106Zm2.947-7.9581h-1.3098v1.3098h1.3098V4.1133Z"/>
</g></svg>