<svg xmlns="http://www.w3.org/2000/svg" data-laicon-version="16.13" viewBox="0 0 20 20" fill="black"><g transform="translate(-2 -2)">
  <path d="M11.87 10.26c.06-.6.56-1.05 1.16-1.05.42 0 .8.17 1.02.45.12.15.25.4.17.75-.06.25-.15.38-.61.67l-.26.17c-.74.5-1.2 1.03-1.2 2.1v.58h1.76v-.66c.02-.23.07-.32.55-.63l.26-.17c.61-.41 1.02-.83 1.21-1.65.18-.81 0-1.6-.49-2.23-.56-.7-1.46-1.12-2.41-1.12-1.61 0-2.93 1.31-2.93 2.93v.25h1.75l.02-.36v-.03Zm2.29 5.23a1.12 1.12 0 1 1-2.24 0 1.12 1.12 0 0 1 2.24 0Z"/>
  <path d="M19.96 3.19H6.21c-.77 0-1.4.63-1.4 1.4v3.17H2.64v1.8h2.17v4.99H2.64v1.8h2.17v3.06c0 .77.63 1.4 1.4 1.4h13.75c.77 0 1.4-.63 1.4-1.4V4.59c0-.77-.63-1.4-1.4-1.4Zm-.4 15.82H6.61V4.99h12.95v14.02Z"/>
</g></svg>