<svg xmlns="http://www.w3.org/2000/svg" data-laicon-version="15.0" viewBox="0 0 20 20" fill="black"><g transform="translate(-2 -2)">
  <path d="M19.3997 20.8h-14.8c-.8 0-1.4-.6-1.4-1.4V4.6c0-.8.6-1.4 1.4-1.4h14.8c.8 0 1.4.6 1.4 1.4v14.8c0 .8-.6 1.4-1.4 1.4Zm-14.4-1.8h14V5h-14v14Z"/>
  <path d="M12.9 13.8h-1.7v-.3c0-1.3.8-1.9 1.4-2.2.4-.3.6-.4.7-.8.1-.3 0-.6-.2-.8-.2-.3-.7-.5-1.1-.5-.7 0-1.3.6-1.3 1.3H9c0-1.6 1.3-3 3-3 .9 0 1.9.4 2.4 1.1.5.6.7 1.4.5 2.2-.2 1-.9 1.5-1.5 1.8-.5.3-.6.4-.6.8v.4h.1Zm-.9002.7c-.6 0-1.2.5-1.2 1.1 0 .6.5 1.2 1.2 1.2.6 0 1.1-.5 1.1-1.2.1-.6-.5-1.1-1.1-1.1Z"/>
</g></svg>