<svg xmlns="http://www.w3.org/2000/svg" data-laicon-version="15.0" viewBox="0 0 20 20" fill="black"><g transform="translate(-2 -2)">
  <path d="M11.9998 7.38c-1.66 0-3.01 1.35-3.01 3.01h1.8c0-.67.54-1.21 1.21-1.21.41 0 .8499.19 1.0799.49.17.21.2201.4599.1501.7499-.07.31-.24.44-.7.74l-.0102.0066c-.57.3699-1.4198.9215-1.4198 2.2835v.33h1.7999v-.33c0-.36.0901-.4401.6001-.7701l.0309-.0201c.4901-.3197 1.2141-.7919 1.4491-1.8298.19-.83.01-1.63-.5-2.28-.57-.72-1.5201-1.16-2.4901-1.16l.0101-.01Zm.0102 9.33c.5799 0 1.05-.4702 1.05-1.0501 0-.5799-.4701-1.05-1.05-1.05-.5799 0-1.05.4701-1.05 1.05 0 .5799.4701 1.0501 1.05 1.0501Z"/>
  <path d="M2.5 12c0-5.24 4.26-9.5 9.5-9.5s9.5 4.26 9.5 9.5-4.26 9.5-9.5 9.5-9.5-4.26-9.5-9.5Zm1.8 0c0 4.25 3.45 7.7 7.7 7.7s7.7001-3.45 7.7001-7.7S16.25 4.3 12 4.3 4.3 7.75 4.3 12Z"/>
</g></svg>