<svg xmlns="http://www.w3.org/2000/svg" data-laicon-version="15.0" viewBox="0 0 20 20" fill="black"><g transform="translate(-2 -2)">
  <path d="M9.3173 8.2663a.9.9 0 0 1 .9073.013l4.9 2.9545a.9.9 0 0 1-.0034 1.5435l-4.9 2.9255a.9.9 0 0 1-1.3613-.7728V9.05a.9.9 0 0 1 .4574-.7837Zm1.3426 2.3773v2.7009l2.2507-1.3438-2.2507-1.3571Z"/>
  <path d="M4.6499 4.5c0-.856.694-1.55 1.55-1.55h11.6c.856 0 1.55.694 1.55 1.55v14.9c0 .856-.694 1.55-1.55 1.55h-11.6c-.856 0-1.55-.694-1.55-1.55V4.5Zm1.8.25v14.4h11.1V4.75h-11.1Z"/>
</g></svg>