<svg xmlns="http://www.w3.org/2000/svg" data-laicon-version="17.2" viewBox="0 0 20 20" fill="black"><g transform="translate(-2 -2)">
  <path d="M3.6 5A1.4 1.4 0 0 1 5 3.6h5.25a1.4 1.4 0 0 1 1.4 1.4v7a1.4 1.4 0 0 1-1.4 1.4H5A1.4 1.4 0 0 1 3.6 12V5Zm1.8.4v6.2h4.45V5.4H5.4Zm6.95-.4a1.4 1.4 0 0 1 1.4-1.4H19A1.4 1.4 0 0 1 20.4 5v3.75a1.4 1.4 0 0 1-1.4 1.4h-5.25a1.4 1.4 0 0 1-1.4-1.4V5Zm1.8.4v2.95h4.45V5.4h-4.45ZM3.6 15.25a1.4 1.4 0 0 1 1.4-1.4h5.25a1.4 1.4 0 0 1 1.4 1.4V19a1.4 1.4 0 0 1-1.4 1.4H5A1.4 1.4 0 0 1 3.6 19v-3.75Zm1.8.4v2.95h4.45v-2.95H5.4ZM12.35 12a1.4 1.4 0 0 1 1.4-1.4H19a1.4 1.4 0 0 1 1.4 1.4v7a1.4 1.4 0 0 1-1.4 1.4h-5.25a1.4 1.4 0 0 1-1.4-1.4v-7Zm1.8.4v6.2h4.45v-6.2h-4.45Z"/>
</g></svg>