<svg xmlns="http://www.w3.org/2000/svg" data-laicon-version="15.0" viewBox="0 0 20 20" fill="black"><g transform="translate(-2 -2)">
  <path d="m16.0001 5-4 3V5.9a6.114 6.114 0 0 0-6.1 6.1 6.1143 6.1143 0 0 0 3.05 5.28c1.86 1.07 4.24 1.07 6.09 0 .92-.54 1.7-1.31 2.23-2.23.54-.93.82-1.98.82-3.05 0-1.07-.28-2.12-.82-3.05l1.56-.9a7.8502 7.8502 0 0 1 1.06 3.95c0 1.38-.37 2.75-1.06 3.95-.69 1.2-1.69 2.2-2.89 2.89a7.8498 7.8498 0 0 1-3.945 1.06 7.9826 7.9826 0 0 1-3.945-1.06c-1.2-.69-2.2-1.69-2.89-2.89a7.8501 7.8501 0 0 1-1.06-3.95c0-1.38.37-2.75 1.06-3.95.69-1.2 1.69-2.2 2.89-2.89a7.85 7.85 0 0 1 3.95-1.06V2l4 3Zm-4.005 14.9h-.005.01-.005Z"/>
</g></svg>