<svg xmlns="http://www.w3.org/2000/svg" data-laicon-version="15.0" viewBox="0 0 20 20" fill="black"><g transform="translate(-2 -2)">
  <path d="M11.9999 18.6c3.64 0 6.6-2.96 6.6-6.6l.01-.01h1.8c0 4.63-3.77 8.4-8.4 8.4-4.63 0-8.4-3.77-8.4-8.4 0-4.63 3.77-8.4 8.4-8.4 2.25 0 4.3799.91 5.9599 2.49l.9501-.95c.16-.16.39-.2.6-.12.21.09.34.29.34.51V8.7c0 .31-.24.55-.55.55h-3.18c-.23 0-.42-.13-.51-.34-.09-.21-.04-.44.12-.6l.9499-.95c-1.25-1.25-2.9299-1.96-4.6899-1.96-3.64 0-6.6 2.96-6.6 6.6 0 3.64 2.96 6.6 6.6 6.6Z"/>
  <path d="M10.25 9.5601c0-.2.11-.38.29-.48l.01.02c.18-.1.4-.09.57.02l3.67 2.44c.14.1.23.27.23.45s-.08.3499-.23.4499l-3.67 2.4401c-.1.06-.2.0899-.31.0899-.1 0-.19-.0199-.27-.0699-.18-.09-.29-.2801-.29-.4801V9.5601Z"/>
</g></svg>