<svg xmlns="http://www.w3.org/2000/svg" data-laicon-version="15.0" viewBox="0 0 20 20" fill="black"><g transform="translate(-2 -2)">
  <path d="M3.8902 7.9565c1.023-1.0626 2.569-1.704 4.6512-1.704h7.0772v1.8H8.5414c-1.7023 0-2.7399.514-3.3545 1.1523-.6255.6498-.9128 1.5322-.9128 2.441 0 .7703.0883 1.4461.3483 2.0864.2577.6348.7067 1.2898 1.5068 1.9806l-1.1765 1.3624c-.984-.8499-1.6185-1.7308-1.9981-2.6658-.3774-.9296-.4805-1.8575-.4805-2.7636 0-1.2738.4041-2.6381 1.416-3.6893Z"/>
  <path d="m13.3265 3.5874 3.5651 3.565-3.5651 3.5652-1.2728-1.2728 2.2923-2.2923-2.2923-2.2923 1.2728-1.2728Zm6.7833 12.4642c-1.023 1.0626-2.569 1.704-4.6512 1.704H8.3813v-1.8h7.0773c1.7023 0 2.7398-.514 3.3544-1.1524.6255-.6497.9128-1.5321.9128-2.4409 0-.7704-.0883-1.4462-.3482-2.0865-.2577-.6347-.7068-1.2897-1.5068-1.9806l1.1765-1.3623c.984.8498 1.6184 1.7307 1.9981 2.6658.3774.9295.4804 1.8575.4804 2.7636 0 1.2738-.404 2.6381-1.416 3.6893Z"/>
  <path d="m10.7174 20.4177-3.6178-3.5604 3.616-3.5782 1.2661 1.2794-2.3195 2.2953 2.3178 2.281-1.2626 1.2829Z"/>
</g></svg>