<svg xmlns="http://www.w3.org/2000/svg" data-laicon-version="15.0" viewBox="0 0 20 20" fill="black"><g transform="translate(-2 -2)">
  <path d="M11.2352 3.8997c.4517.2892.8987.8366.8987 1.5708v1.3498c6.7128.7128 9.8469 5.5373 9.8594 8.7468.0509 1.2913-.3263 2.4138-.6981 3.1955a7.841 7.841 0 0 1-.5277.9389 6.0727 6.0727 0 0 1-.1831.2632 3.6261 3.6261 0 0 1-.0566.0749l-.0177.0226-.0059.0075-.0023.0028-.0009.0011c-.0002.0003-.0008.001-.6985-.5643l.6977.5653a.898.898 0 0 1-1.5916-.4792c-.2016-2.0946-1.6012-3.3505-3.2234-4.1267-1.4038-.6717-2.8608-.9209-3.5033-1.0005v1.4517c0 .7414-.4561 1.3921-1.0883 1.6891-.6848.3218-1.5034.2096-2.168-.3793l-6.329-5.1228a.9096.9096 0 0 1-.067-.0601c-.3835-.3799-.5213-.9127-.5274-1.3327-.0056-.3845.1015-.9998.618-1.3733l6.752-5.4688a.8972.8972 0 0 1 .0866-.062c.6404-.4034 1.3652-.1736 1.7764.0897Zm8.7824 13.1818c.1254-.4438.2027-.9373.1806-1.4568a.9787.9787 0 0 1-.0008-.0383c0-2.2858-2.5451-6.705-9.0079-7.0395a.898.898 0 0 1-.8515-.8968V5.4824c-.0007-.0012-.0015-.0036-.0026-.0053a.1998.1998 0 0 0-.0387-.0427l-6.4985 5.2634a.342.342 0 0 0 .0137.0822l6.2608 5.0676a.8862.8862 0 0 1 .0376.0322c.1003.0908.1638.1056.1804.1084a.059.059 0 0 0 .0391-.0046.117.117 0 0 0 .0451-.0402c.0094-.0144.0108-.0233.011-.0244v-1.6153c0-.1531-.0044-.2557-.0088-.3562a9.4474 9.4474 0 0 1-.0061-.1604c-.0018-.065-.0041-.1764.0113-.2918.015-.1123.0601-.346.2471-.5589.2041-.2325.4568-.3071.617-.3311.1422-.0213.2726-.012.3397-.0065.0656.0054.1416.0143.2082.0221l.0296.0035c.0805.0093.1688.0193.2716.0283.509.0449 2.4554.2823 4.3648 1.1959 1.3426.6424 2.7409 1.6604 3.5573 3.2329Zm-.9148 1.865c-.0003.0004-.0003.0003 0 0Z"/>
</g></svg>