<svg xmlns="http://www.w3.org/2000/svg" data-laicon-version="15.0" viewBox="0 0 20 20" fill="black"><g transform="translate(-2 -2)">
  <path d="M3.5467 9.4285a.9.9 0 0 1 .6946-.3277h6.6597a.9.9 0 0 1 .8834 1.0721L9.714 20.7995a.9.9 0 0 1-.8834.7279H6.3117a.9.9 0 0 1-.8834-.7279L3.358 10.1729a.9.9 0 0 1 .1888-.7444Zm1.7869 1.4723 1.7197 8.8266H8.089l1.7196-8.8266h-4.475Zm2.2376-6.4746c-.6549 0-1.1858.5309-1.1858 1.1857 0 .6548.531 1.1857 1.1858 1.1857.6548 0 1.1856-.5309 1.1856-1.1857 0-.6549-.5308-1.1857-1.1856-1.1857ZM4.5854 5.6119c0-1.649 1.3368-2.9857 2.9858-2.9857 1.649 0 2.9857 1.3367 2.9857 2.9857S9.2201 8.5976 7.5711 8.5976c-1.6489 0-2.9857-1.3368-2.9857-2.9857Zm9.7003 4.2168a.9.9 0 0 1 .8834-.7279h2.5189a.9.9 0 0 1 .8834.7279l2.0704 10.6266a.9002.9002 0 0 1-.8834 1.0721h-6.6597a.9.9 0 0 1-.8834-1.0721l2.0704-10.6266Zm1.625 1.0721-1.7197 8.8266h4.4751l-1.7197-8.8266h-1.0357Zm.5179-6.4746c-.6549 0-1.1857.5309-1.1857 1.1857 0 .6548.5308 1.1857 1.1857 1.1857.6548 0 1.1857-.5309 1.1857-1.1857 0-.6549-.5309-1.1857-1.1857-1.1857Zm-2.9857 1.1857c0-1.649 1.3367-2.9857 2.9857-2.9857 1.6489 0 2.9857 1.3367 2.9857 2.9857s-1.3368 2.9857-2.9857 2.9857c-1.649 0-2.9857-1.3368-2.9857-2.9857Z"/>
</g></svg>