<svg xmlns="http://www.w3.org/2000/svg" data-laicon-version="15.0" viewBox="0 0 20 20" fill="black"><g transform="translate(-2 -2)">
  <path d="M4.96 8.23c0-1.0494.8506-1.9 1.9-1.9h10.27c1.0493 0 1.9.8506 1.9 1.9v10.26c0 1.0493-.8507 1.9-1.9 1.9H6.86c-1.0494 0-1.9-.8507-1.9-1.9V8.23Zm1.9-.1a.1.1 0 0 0-.1.1v10.26a.1.1 0 0 0 .1.1h10.27a.1.1 0 0 0 .1-.1V8.23a.1.1 0 0 0-.1-.1H6.86Z"/>
  <path d="M9.3679 11.1352c-.6371 0-1.1535.5166-1.1535 1.1536 0 .6372.5164 1.1536 1.1535 1.1536.637 0 1.1534-.5164 1.1534-1.1536 0-.637-.5164-1.1536-1.1534-1.1536Zm5.2656 0c-.6371 0-1.1535.5166-1.1535 1.1536 0 .6372.5165 1.1536 1.1535 1.1536.6371 0 1.1535-.5164 1.1535-1.1536 0-.637-.5164-1.1536-1.1535-1.1536ZM6.1951 11.33c-1.2675 0-2.295 1.0275-2.295 2.295 0 1.2675 1.0275 2.295 2.295 2.295v1.8c-2.2616 0-4.095-1.8334-4.095-4.095 0-2.2616 1.8334-4.095 4.095-4.095v1.8Zm13.9051 2.295c0-1.2675-1.0275-2.295-2.295-2.295v-1.8c2.2616 0 4.095 1.8334 4.095 4.095 0 2.2616-1.8334 4.095-4.095 4.095v-1.8c1.2675 0 2.295-1.0275 2.295-2.295Zm-9.003-6.7221V3.9286h1.8v2.9743h-1.8Z"/>
</g></svg>