<svg xmlns="http://www.w3.org/2000/svg" data-laicon-version="15.0" viewBox="0 0 20 20" fill="black"><g transform="translate(-2 -2)">
  <path d="M14.8001 6a3.1998 3.1998 0 0 0-2.2627 5.4627 3.1996 3.1996 0 0 0 4.5254 0 3.1996 3.1996 0 0 0 0-4.5254A3.1998 3.1998 0 0 0 14.8001 6Zm-1.4 3.2a1.4002 1.4002 0 0 1 1.4-1.4 1.3998 1.3998 0 0 1 1.4 1.4c0 .3713-.1475.7274-.4101.9899a1.3996 1.3996 0 0 1-1.9799 0 1.4 1.4 0 0 1-.41-.9899Z"/>
  <path d="M20.1452 2.15c.343.064.774.196 1.091.514.317.316.45.745.517 1.088.071.371.092.796.08 1.24-.026.89-.192 1.97-.473 3.079-.549 2.17-1.594 4.677-3.113 6.155-.632.696-1.472 1.354-2.408 1.907.251 1.18.197 2.234-.261 3.137-.543 1.068-1.552 1.729-2.748 2.167-.861.362-2.16.512-3.08.525-.45.006-.943-.017-1.29-.12a1.345 1.345 0 0 1-.365-.167.996.996 0 0 1-.438-.681.9912.9912 0 0 1 .257-.813c.108-.118.23-.2.321-.252.938-.601 1.209-1.121 1.303-1.506.062-.251.066-.482.046-.743a5.1418 5.1418 0 0 1-.518-.111l-.232-.063-2.44-2.44-.063-.232a4.8626 4.8626 0 0 1-.1-.458 1.9812 1.9812 0 0 0-.722.043c-.365.098-.867.382-1.429 1.33a1.3705 1.3705 0 0 1-.251.329.9862.9862 0 0 1-.826.264.9872.9872 0 0 1-.69-.468 1.344 1.344 0 0 1-.15-.365c-.088-.34-.1-.826-.088-1.272.027-.926.181-2.21.478-3.04l.001-.005c.439-1.206 1.101-2.223 2.176-2.77.91-.462 1.974-.513 3.167-.255.565-.92 1.214-1.75 1.86-2.398 1.47-1.521 3.954-2.598 6.11-3.176 1.096-.293 2.163-.473 3.046-.51a5.63 5.63 0 0 1 1.232.067Zm-7.48 13.445a9.9511 9.9511 0 0 0 .75-.268c1.424-.572 2.726-1.45 3.516-2.33l.022-.023.023-.022c1.169-1.126 2.116-3.255 2.639-5.323.257-1.016.397-1.962.418-2.69.01-.365-.01-.648-.048-.845a1.2158 1.2158 0 0 0-.035-.142c-.03-.01-.073-.02-.133-.032a3.885 3.885 0 0 0-.83-.038c-.717.03-1.65.18-2.654.45-2.041.547-4.153 1.517-5.285 2.692l-.006.006-.006.006c-.868.868-1.78 2.174-2.386 3.562a9.012 9.012 0 0 0-.552 1.657 4.68 4.68 0 0 0-.1 1.276l.049.643 1.675 1.675.742.053c.67.048 1.426-.07 2.201-.307Zm-1.277 2.11c.013.354-.004.75-.101 1.147a3.5151 3.5151 0 0 1-.586 1.245c.565-.066 1.104-.179 1.444-.325l.024-.01.024-.008c.994-.362 1.526-.8 1.78-1.3.175-.345.266-.814.185-1.479-.32.128-.65.245-.983.346a9.7787 9.7787 0 0 1-1.787.384Zm-5.172-5.135a8.1997 8.1997 0 0 1 .12-.683c.14-.681.37-1.375.659-2.049-.649-.074-1.11.017-1.45.19-.5.253-.937.785-1.298 1.777-.12.339-.22.852-.287 1.39a3.3677 3.3677 0 0 1 1.081-.514 3.7692 3.7692 0 0 1 1.175-.111Z"/>
</g></svg>