<svg xmlns="http://www.w3.org/2000/svg" data-laicon-version="15.0" viewBox="0 0 20 20" fill="black"><g transform="translate(-2 -2)">
  <path d="M7.1299 2.9h9.74c2.33 0 4.23 1.9 4.23 4.23v9.74c0 2.33-1.9 4.23-4.23 4.23h-9.74c-2.33 0-4.23-1.9-4.23-4.23V7.13c0-2.33 1.9-4.23 4.23-4.23Zm9.74 16.4c1.34 0 2.43-1.09 2.43-2.43V7.13c0-1.34-1.09-2.43-2.43-2.43h-9.74c-1.34 0-2.43 1.09-2.43 2.43v9.74c0 1.34 1.09 2.43 2.43 2.43h9.74Zm-4.87-8.29.75.17c.74.17 1.26.42 1.61.76.36.36.54.82.54 1.42 0 .73-.28 1.34-.81 1.77-.51.41-1.24.63-2.1.63-.82 0-1.52-.21-2.03-.6-.53-.41-.83-.98-.86-1.66l-.02-.37h1.81l.04.31c.05.4.49.65 1.13.65.29 0 .55-.07.73-.19.11-.08.24-.21.24-.4 0-.14-.05-.22-.16-.31-.15-.11-.4-.21-.76-.29l-.84-.19c-.67-.15-1.15-.39-1.49-.75-.35-.37-.52-.84-.52-1.41 0-.67.28-1.27.79-1.69.5-.41 1.18-.63 1.98-.63 1.56 0 2.7.92 2.76 2.23l.02.37h-1.79l-.04-.3c-.05-.39-.41-.63-.95-.63-.37 0-.58.1-.69.18-.14.1-.21.23-.21.39 0 .09.02.16.1.23.13.12.39.22.77.31Z"/>
</g></svg>