<svg xmlns="http://www.w3.org/2000/svg" data-laicon-version="16.11" viewBox="0 0 20 20" fill="black"><g transform="translate(-2 -2)">
  <path d="M20.71 14.11 14.51 12l6.2-2.11c.44-.15.68-.64.54-1.08a.871.871 0 0 0-1.07-.56l-8.85 2.67-1.769-.604c-.156-.053-.218-.241-.144-.389.053-.105.097-.213.133-.327.25-.78.08-1.66-.47-2.41-.5-.67-1.26-1.2-2.15-1.49-.89-.29-1.82-.31-2.61-.06-.89.28-1.55.89-1.8 1.67-.25.78-.08 1.66.47 2.41.5.67 1.26 1.2 2.15 1.49l2.6.78-2.4.72-.2.06c-.89.29-1.65.82-2.15 1.49-.55.75-.73 1.63-.47 2.41.25.78.91 1.39 1.8 1.67.37.12.77.18 1.18.18.47 0 .96-.08 1.44-.23.89-.29 1.65-.82 2.15-1.49.56-.75.73-1.63.47-2.41a2.258 2.258 0 0 0-.133-.327c-.074-.148-.012-.336.144-.39l1.77-.603 8.85 2.67c.45.13.92-.12 1.07-.56.15-.44-.1-.93-.54-1.08l-.01.01ZM7.84 9.04c-.07.22-.3.41-.63.51-.44.14-.99.12-1.52-.05-.53-.17-.99-.48-1.26-.85-.21-.28-.28-.56-.21-.79.07-.22.3-.41.63-.51.19-.06.41-.09.63-.09.29 0 .59.05.88.14.53.17.98.48 1.26.85.21.28.28.56.21.79h.01Zm0 5.91c.07.22 0 .5-.21.79-.27.37-.73.68-1.26.85-.53.17-1.08.19-1.52.05-.33-.11-.56-.29-.63-.51-.07-.22 0-.5.21-.78.27-.37.73-.68 1.26-.85.53-.17 1.08-.19 1.52-.05.33.11.56.29.63.51v-.01Z"/>
</g></svg>