<svg xmlns="http://www.w3.org/2000/svg" data-laicon-version="15.3" viewBox="0 0 20 20" fill="black"><g transform="translate(-2 -2)">
  <path d="m7.507 13.263-.192.058a.31.31 0 0 1 .021-.243.316.316 0 0 1 .19-.146l.01-.003.975-.24a.325.325 0 0 1 .214.022.32.32 0 0 1 .153.163l.002.004c.065.157.144.25.237.309a.74.74 0 0 0 .403.093.64.64 0 0 0 .308-.059c.045-.026.058-.052.058-.09 0-.057-.017-.098-.086-.15-.082-.063-.218-.124-.431-.2l-.53-.19c-.415-.144-.768-.356-1.019-.646a1.617 1.617 0 0 1-.394-1.086C7.426 9.8 8.37 9.1 9.464 9.1c.46 0 .886.105 1.24.338.355.234.623.587.78 1.06.029.078.03.17-.014.253a.3.3 0 0 1-.197.148l-1.015.272a.309.309 0 0 1-.234-.021.33.33 0 0 1-.141-.16l-.002-.004c-.067-.159-.137-.237-.2-.279a.409.409 0 0 0-.238-.06.438.438 0 0 0-.238.056c-.04.026-.051.053-.051.085 0 .034.007.07.08.127.085.064.237.136.495.221l.386.127c.47.16.847.366 1.106.664.263.303.386.679.386 1.14 0 1.056-.92 1.758-2.122 1.758-.52 0-.983-.129-1.359-.386a2.107 2.107 0 0 1-.81-1.114l.19-.062Zm4.781-3.977a.312.312 0 0 0-.088.224v4.906c0 .075.023.159.088.224a.312.312 0 0 0 .224.088h1.894c.864 0 1.57-.24 2.06-.721.492-.483.74-1.181.74-2.044 0-.87-.248-1.568-.74-2.05-.49-.48-1.197-.715-2.06-.715h-1.894a.312.312 0 0 0-.224.088Zm1.598 1.514h.394c.424 0 .716.104.901.282.184.177.297.457.297.881 0 .423-.113.704-.297.88-.186.178-.477.283-.9.283h-.395V10.8Z"/>
  <path d="M4.6 3.2a1.4 1.4 0 0 0-1.4 1.4v14.8a1.4 1.4 0 0 0 1.4 1.4h14.8a1.4 1.4 0 0 0 1.4-1.4V4.6a1.4 1.4 0 0 0-1.4-1.4H4.6ZM5 19V5h14v14H5Z"/>
</g></svg>