<svg xmlns="http://www.w3.org/2000/svg" data-laicon-version="15.0" viewBox="0 0 20 20" fill="black"><g transform="translate(-2 -2)">
  <path d="m19.7138 20.9865-5.6723-5.6723 1.2728-1.2728 5.6723 5.6723-1.2728 1.2728Z"/>
  <path d="M10.2564 4.9c-2.9582 0-5.3563 2.3981-5.3563 5.3563s2.3981 5.3563 5.3563 5.3563 5.3563-2.3981 5.3563-5.3563S13.2146 4.9 10.2564 4.9Zm-7.1563 5.3563c0-3.9523 3.204-7.1563 7.1563-7.1563 3.9523 0 7.1563 3.204 7.1563 7.1563 0 3.9523-3.204 7.1563-7.1563 7.1563-3.9523 0-7.1563-3.204-7.1563-7.1563Z"/>
  <path d="M13.8143 11.1563H6.6987v-1.8h7.1156v1.8Z"/>
</g></svg>