<svg xmlns="http://www.w3.org/2000/svg" data-laicon-version="15.0" viewBox="0 0 20 20" fill="black"><g transform="translate(-2 -2)">
  <path d="M19.004 11.2V4.993H4.986v8.741h6.3145v1.8H4.986v3.477h6.3145v1.8H4.586c-.7732 0-1.4-.6268-1.4-1.4V4.593c0-.7732.6268-1.4 1.4-1.4h14.818c.7732 0 1.4.6268 1.4 1.4V11.2h-1.8Z"/>
  <path d="M14.1003 14v6.1905h6.19V14h-6.19Zm-1.8-.6471c0-.6367.5162-1.1529 1.1529-1.1529h7.4842c.6367 0 1.1529.5162 1.1529 1.1529v7.4847c0 .6367-.5162 1.1529-1.1529 1.1529h-7.4842c-.6367 0-1.1529-.5162-1.1529-1.1529v-7.4847ZM7.7702 6.096h-1.3v1.3h1.3v-1.3Zm0 5.251h-1.3v1.3h1.3v-1.3Zm0 5.248h-1.3v1.3h1.3v-1.3ZM19.8432 10.26H4.4712v-1.8h15.372v1.8Z"/>
  <path d="M18.7807 15.1745c-.3705 0-.6713.2996-.6713.67 0 .3703.3008.6699.6713.6699s.6714-.2997.6714-.6699c0-.3704-.3009-.67-.6714-.67Zm.3491 3.8227-2.1725-3.387-2.1726 3.387h4.3451Z"/>
</g></svg>