<svg xmlns="http://www.w3.org/2000/svg" data-laicon-version="15.0" viewBox="0 0 20 20" fill="black"><g transform="translate(-2 -2)">
  <path d="M5.8691 7.499h1.5v-1.5h-1.5v1.5Zm0 3.751v1.5h1.5v-1.5h-1.5Zm1.5 5.248h-1.5v1.5h1.5v-1.5Z"/>
  <path d="M4.09 3.2c-.7733 0-1.4.6268-1.4 1.4v14.8c0 .7732.6267 1.4 1.4 1.4h6.2598V19H4.4899v-3.46h5.8599v-1.8H4.4899v-3.4799H18.51V13.7h1.8V4.6c0-.7731-.6268-1.4-1.4-1.4H4.09Zm.4 5.26V5h14.02v3.46H4.49Z"/>
  <path d="m13.5764 16.1466 1.0152.8121-1.3594 1.6992 1.3594 1.6992-1.0152.8121-2.009-2.5113 2.009-2.5113Zm5.6468 0-1.0152.8121 1.3594 1.6992-1.3594 1.6992 1.0152.8121 2.009-2.5113-2.009-2.5113Zm-4.3936 5.4824 1.8947-6.3158 1.2452.3736-1.8948 6.3158-1.2451-.3736Z"/>
</g></svg>