<svg xmlns="http://www.w3.org/2000/svg" data-laicon-version="15.0" viewBox="0 0 20 20" fill="black"><g transform="translate(-2 -2)">
  <path d="M6.103 16.73a.0999.0999 0 0 1 .1-.1h1.3a.0998.0998 0 0 1 .1.1v1.3a.1.1 0 0 1-.1.1h-1.3a.0998.0998 0 0 1-.1-.1v-1.3Zm.1-5.48a.0998.0998 0 0 0-.1.1v1.3a.0999.0999 0 0 0 .1.1h1.3a.0998.0998 0 0 0 .1-.1v-1.3a.1.1 0 0 0-.1-.1h-1.3Zm0-5.38a.1.1 0 0 0-.1.1v1.3a.1.1 0 0 0 .1.1h1.3a.1.1 0 0 0 .1-.1v-1.3a.1.1 0 0 0-.1-.1h-1.3Z"/>
  <path d="M4.3781 3.027c-.775 0-1.404.628-1.404 1.404v15.137c0 .775.629 1.404 1.404 1.404h15.245c.775 0 1.404-.629 1.404-1.404V4.43c0-.776-.629-1.404-1.404-1.404H4.3781v.001Zm.396 16.145V15.59h14.453v3.582H4.7741Zm14.453-5.382H4.7741v-3.58h14.453v3.582-.002Zm0-5.381H4.7741V4.827h14.453v3.582Z"/>
</g></svg>