<svg xmlns="http://www.w3.org/2000/svg" data-laicon-version="15.0" viewBox="0 0 20 20" fill="black"><g transform="translate(-2 -2)">
  <path d="M13.9407 5.7122h-1.45v1.5h1.45v-1.5Zm2 0h-1.45v1.5h1.45v-1.5Zm1.996 0h-1.4455v1.5h1.4455v-1.5Zm-3.996 5.5336h-1.45v1.5h1.45v-1.5Zm2 0h-1.45v1.5h1.45v-1.5Zm1.996 0h-1.4455v1.5h1.4455v-1.5Zm-3.996 5.4307h-1.45v1.5h1.45v-1.5Zm2 0h-1.45v1.5h1.45v-1.5Zm1.996 0h-1.4455v1.5h1.4455v-1.5Z"/>
  <path d="M2.9736 4.4255c0-.7732.6268-1.4 1.4-1.4h15.2528c.7732 0 1.4.6268 1.4 1.4v15.1491c0 .7732-.6268 1.4-1.4 1.4H4.3736c-.7732 0-1.4-.6268-1.4-1.4V4.4255Zm1.8.4v14.3491h14.4528V4.8255H4.7736Z"/>
  <path d="M20.449 10.2058H4.1963v-1.8H20.449v1.8Zm0 5.379H4.1963v-1.8H20.449v1.8Z"/>
</g></svg>