<svg xmlns="http://www.w3.org/2000/svg" data-laicon-version="15.0" viewBox="0 0 20 20" fill="black"><g transform="translate(-2 -2)">
  <path d="M16.2839 16.6478c-.613 0-1.1099.4969-1.1099 1.1099 0 .613.4969 1.1099 1.1099 1.1099.613 0 1.1099-.4969 1.1099-1.1099 0-.613-.4969-1.1099-1.1099-1.1099Zm-2.9099 1.1099c0-1.6071 1.3028-2.9099 2.9099-2.9099s2.9099 1.3028 2.9099 2.9099-1.3028 2.9099-2.9099 2.9099-2.9099-1.3028-2.9099-2.9099Zm-6.658-6.8614c-.613 0-1.1098.4969-1.1098 1.1099 0 .613.4969 1.1099 1.1098 1.1099.613 0 1.11-.4969 1.11-1.1099 0-.613-.497-1.1099-1.11-1.1099Zm-2.9099 1.1099c0-1.6071 1.3029-2.9099 2.91-2.9099 1.607 0 2.9098 1.3028 2.9098 2.9099s-1.3028 2.9099-2.9098 2.9099c-1.6071 0-2.91-1.3028-2.91-2.9099Z"/>
  <path d="m14.0965 17.5274-6.1937-3.5759.9-1.5588 6.1937 3.5759-.9 1.5588Zm2.1874-12.3827c-.613 0-1.1099.497-1.1099 1.1099 0 .613.4969 1.1099 1.1099 1.1099.613 0 1.1099-.497 1.1099-1.1099 0-.613-.4969-1.1099-1.1099-1.1099ZM13.374 6.2546c0-1.607 1.3028-2.9099 2.9099-2.9099s2.9099 1.3028 2.9099 2.9099-1.3028 2.9099-2.9099 2.9099-2.9099-1.3028-2.9099-2.9099Z"/>
  <path d="m14.9965 8.0437-6.1936 3.576-.9-1.5588 6.1936-3.576.9 1.5588Z"/>
</g></svg>