<svg xmlns="http://www.w3.org/2000/svg" data-laicon-version="15.0" viewBox="0 0 20 20" fill="black"><g transform="translate(-2 -2)">
  <path d="M5.2229 4.9512v8.119c0 1.0199.7378 2.2434 2.1472 3.5313 1.2744 1.1646 2.9516 2.2468 4.6293 3.1107 1.6777-.8639 3.3548-1.9461 4.6293-3.1107 1.4088-1.2874 2.1466-2.5105 2.1472-3.5301v-.0012l-.0239-8.1449c-1.3328-.3019-3.7795-.7401-6.7521-.7401-2.9933 0-5.4483.4443-6.777.766Zm6.3281 16.5513c-1.8908-.9394-3.8705-2.179-5.3951-3.5722-1.4934-1.3646-2.733-3.044-2.733-4.8601v-8.812a.9.9 0 0 1 .6483-.8641c1.1707-.341 4.1519-1.009 7.9287-1.009 3.7796 0 6.7553.669 7.8768.9611a.9.9 0 0 1 .6732.8683l.026 8.8557c0 1.8161-1.2397 3.4955-2.733 4.8601-1.5323 1.4002-3.5242 2.6451-5.4234 3.5863a.9075.9075 0 0 1-.1911.0691l-.021.005a.9037.9037 0 0 1-.2085.0245.9595.9595 0 0 1-.3343-.0613l-.0027-.001a.9052.9052 0 0 1-.1109-.0504Z"/>
  <path d="M15.1179 11.8922h-6.237v-1.8h6.237v1.8Z"/>
  <path d="M11.1001 14.11V7.874h1.8v6.236h-1.8Z"/>
</g></svg>