<svg xmlns="http://www.w3.org/2000/svg" data-laicon-version="15.0" viewBox="0 0 20 20" fill="black"><g transform="translate(-2 -2)">
  <path d="M5.2233 4.9508v8.1191c0 1.0198.7379 2.2434 2.1473 3.5314 1.2745 1.1646 2.9517 2.2468 4.6295 3.1108 1.6778-.8639 3.355-1.9462 4.6295-3.1108 1.4089-1.2874 2.1467-2.5105 2.1473-3.5301v-.0013l-.0243-8.1449c-1.3328-.302-3.7799-.7402-6.7525-.7402-2.9931 0-5.4483.4442-6.7768.766Zm-1.152-1.557c1.1707-.3414 4.1524-1.009 7.9288-1.009 3.7793 0 6.7555.6688 7.8774.9612a.9.9 0 0 1 .673.8682l.0264 8.8557c0 1.816-1.2397 3.4955-2.7331 4.8602-1.5323 1.4002-3.5242 2.6452-5.4235 3.5863a.9003.9003 0 0 1-.1763.0655l-.0207.0053a.9044.9044 0 0 1-.2233.0281.9503.9503 0 0 1-.4201-.0989c-1.8993-.9411-3.8912-2.1861-5.4235-3.5864-1.4934-1.3646-2.733-3.0441-2.733-4.8601v-8.812a.9.9 0 0 1 .648-.864Z"/>
</g></svg>