<svg xmlns="http://www.w3.org/2000/svg" data-laicon-version="15.0" viewBox="0 0 20 20" fill="black"><g transform="translate(-2 -2)">
  <path d="M5.2634 5.1667v8.1191c0 1.0199.7378 2.2435 2.1472 3.5314 1.2744 1.1645 2.9516 2.2467 4.6293 3.1106 1.6777-.8639 3.3548-1.9461 4.6293-3.1106 1.4087-1.2874 2.1465-2.5104 2.1472-3.53v-.0014l-.023-8.1447c-1.3336-.302-3.781-.7403-6.753-.7403-2.9931 0-5.4487.4443-6.777.766Zm7.1548 14.9523c-.0003-.0002.0003.0001 0 0ZM4.1115 3.6098c1.17-.3411 4.1522-1.009 7.9289-1.009 3.7786 0 6.7553.669 7.8776.961a.9.9 0 0 1 .6734.8685l.025 8.8555c0 1.8161-1.2397 3.4955-2.733 4.8601-1.5323 1.4002-3.5242 2.6452-5.4234 3.5863a.8903.8903 0 0 1-.141.0556l-.02.006a.8989.8989 0 0 1-.2586.038.9508.9508 0 0 1-.4216-.1l-.0019-.001.4025-.8049-.3996.8063-.001-.0004c-1.899-.9411-3.8904-2.1859-5.4224-3.5859-1.4934-1.3646-2.733-3.044-2.733-4.8601v-8.812a.9.9 0 0 1 .648-.864Z"/>
  <path d="m11.3891 11.9571 3.0476-3.0476 1.2728 1.2728-4.3204 4.3204-2.9804-2.9804 1.2728-1.2728 1.7076 1.7076Z"/>
</g></svg>