<svg xmlns="http://www.w3.org/2000/svg" data-laicon-version="15.0" viewBox="0 0 20 20" fill="black"><g transform="translate(-2 -2)">
  <path d="M16.4998 21.9h-9c-1.1 0-2.1-.5-2.8-1.3-.7-.8-1.1-1.9-1-2.9l1.1-10.7c0-.5.4-.8.9-.8h12.6c.5 0 .8.4.9.8l1.1 10.7c.1 1.1-.2 2.1-1 2.9-.8.8-1.7 1.3-2.8 1.3Zm-10-13.9-1 9.9c0 .6.1 1.1.5 1.5.4.4.9.7 1.5.7h9c.6 0 1.1-.2 1.5-.7.4-.5.6-1 .5-1.5l-1-9.9h-11Z"/>
  <path d="M14.8002 9.5c-.5 0-.9-.4-.9-.9V5.8c0-1.1-.9-1.9-1.9-1.9-1.1 0-1.9.9-1.9 1.9v2.8c0 .5-.4.9-.9.9s-.9-.4-.9-.9V5.8c0-2.1 1.7-3.7 3.7-3.7s3.7 1.7 3.7 3.7v2.8c0 .5-.4.9-.9.9Z"/>
</g></svg>