<svg xmlns="http://www.w3.org/2000/svg" data-laicon-version="15.0" viewBox="0 0 20 20" fill="black"><g transform="translate(-2 -2)">
  <path d="m18.0484 7.2323-12.1122.0142v11.0024c0 .6539.5302 1.1841 1.1842 1.1841h9.7567c.6544 0 1.1848-.5309 1.1841-1.1855l-.0128-11.0152Zm1.7996-.381.0132 11.3942c.0019 1.6494-1.3347 2.9875-2.9841 2.9875H7.1204c-1.648 0-2.9842-1.336-2.9842-2.9841V6.8679c0-.784.635-1.4201 1.4194-1.421h.0001l12.8694-.015h.0002c.7852-.001 1.4218.6349 1.4227 1.4194Z"/>
  <path d="m9.4158 5.718-.0265.65-1.7985-.0733.0265-.6503C7.7145 3.2857 9.6406 1.433 12 1.433c2.3593 0 4.2854 1.8524 4.3826 4.211l.0266.6507-1.7986.0733-.0264-.65s0 .0002 0 0C14.5264 4.3219 13.3915 3.233 12 3.233S9.4736 4.3217 9.4158 5.718Zm5.1941 4.6555v-1.8h1.8v1.8h-1.8Zm-7.0196 0v-1.8h1.8v1.8h-1.8Z"/>
</g></svg>