<svg xmlns="http://www.w3.org/2000/svg" data-laicon-version="15.0" viewBox="0 0 20 20" fill="black"><g transform="translate(-2 -2)">
  <path d="M11.9538 12.041c.0716.2308-.1451.4472-.3758.3753l-3.8327-1.1951c-.2154-.0671-.2824-.339-.1229-.4985l.7881-.788-2.475-2.475 1.0607-1.0606 2.475 2.475.7936-.7938c.1597-.1596.4318-.0923.4987.1233l1.1903 3.8374Z"/>
  <path d="M3.0996 6.0001c0-1.3255 1.0745-2.4 2.4-2.4h12c1.3255 0 2.4 1.0745 2.4 2.4v6.6h.6c.7732 0 1.4.6268 1.4 1.4v5c0 .7731-.6268 1.4-1.4 1.4h-7c-.7732 0-1.4-.6269-1.4-1.4v-.6h-6.6c-1.3255 0-2.4-1.0746-2.4-2.4v-10Zm15 0a.6.6 0 0 0-.6-.6h-12a.6.6 0 0 0-.6.6v10a.6.6 0 0 0 .6.6h6.6v-2.6c0-.7732.6268-1.4 1.4-1.4h4.6v-6.6Z"/>
</g></svg>