<svg xmlns="http://www.w3.org/2000/svg" data-laicon-version="17.5" viewBox="0 0 20 20" fill="black"><g transform="translate(-2 -2)">
  <path d="M18.65 7a2.4 2.4 0 0 0-2.4-2.4H4.75A2.4 2.4 0 0 0 2.35 7v8.5a2.4 2.4 0 0 0 2.4 2.4h5v-1.8h-5a.6.6 0 0 1-.6-.6V7a.6.6 0 0 1 .6-.6h11.5a.6.6 0 0 1 .6.6v2.8h1.8V7Z"/>
  <path d="M19.75 11.4c1.05 0 1.9.85 1.9 1.9v5a1.9 1.9 0 0 1-1.9 1.9h-6.5a1.9 1.9 0 0 1-1.9-1.9v-5c0-1.05.85-1.9 1.9-1.9h6.5Zm.1 1.9a.1.1 0 0 0-.1-.1h-6.5a.1.1 0 0 0-.1.1v5a.1.1 0 0 0 .1.1h6.5a.1.1 0 0 0 .1-.1v-5Z"/>
</g></svg>