<svg xmlns="http://www.w3.org/2000/svg" data-laicon-version="15.0" viewBox="0 0 20 20" fill="black"><g transform="translate(-2 -2)">
  <path d="M11.7001 11.3c-.3-.7-.7-1.3-1-1.8 1.1-1.7 2.7-2.8 4.2-3.5 1-.5 2-.8 2.9-.9l-1-1 1.2-1.2 3.2 3.1-3.2 3.1-1.3-1.3 1-.8c-.6.1-1.3.3-2 .7-1.6.7-3.1 1.9-4 3.6Zm-2.5 1.2c-1.9 3.3-5 4.5-6.6 4.5v1.8c2 0 5.3-1.3 7.5-4.4-.3-.4-.5-.9-.7-1.4-.1-.2-.2-.3-.2-.5Zm8.9 2.3-1.2 1.2.9.9c-.7-.1-1.4-.3-2.2-.7-1.7-.8-3.3-2.1-4.1-4.1-2-5-6.4-7.1-8.9-7.1v1.8c1.8 0 5.5 1.6 7.3 5.9 1 2.5 3 4.1 5 5.1 1 .5 2 .8 2.9.9h.1l-1 1 1.3 1.3 3.1-3.1-3.2-3.1Z"/>
</g></svg>