<svg xmlns="http://www.w3.org/2000/svg" data-laicon-version="15.0" viewBox="0 0 20 20" fill="black"><g transform="translate(-2 -2)">
  <path d="M7.7642 5.378c0-.9034.7323-1.6357 1.6358-1.6357h9.6343c.9035 0 1.6358.7323 1.6358 1.6358V18.622c0 .9034-.7324 1.6357-1.6358 1.6357H9.4c-.9034 0-1.6358-.7323-1.6358-1.6357v-2.945h1.8v2.7807H18.87V5.5423H9.564V8.323h-1.8V5.378Z"/>
  <path d="M3.5698 11.1h9.7382v1.8H3.5698v-1.8Z"/>
  <path d="M12.0352 12 9.7285 9.6933l1.2728-1.2728L14.5808 12l-3.5795 3.5795-1.2728-1.2728L12.0352 12Z"/>
</g></svg>