<svg xmlns="http://www.w3.org/2000/svg" data-laicon-version="15.0" viewBox="0 0 20 20" fill="black"><g transform="translate(-2 -2)">
  <path d="M4.714 5.6014v12.9154h9.3061v-2.7807h1.8v2.945c0 .9034-.7324 1.6357-1.6358 1.6357H4.5499c-.9034 0-1.6358-.7323-1.6358-1.6357V5.4372c0-.9034.7323-1.6358 1.6358-1.6358h9.6344c.9035 0 1.6358.7324 1.6358 1.6358v2.945h-1.8V5.6014h-9.306Z"/>
  <path d="M20.0141 12.9591h-9.7382v-1.8h9.7382v1.8Z"/>
  <path d="m18.7413 12.0591-2.3067-2.3067 1.2728-1.2728 3.5795 3.5795-3.5795 3.5795-1.2728-1.2728 2.3067-2.3067Z"/>
</g></svg>