<svg xmlns="http://www.w3.org/2000/svg" data-laicon-version="15.0" viewBox="0 0 20 20" fill="black"><g transform="translate(-2 -2)">
  <path d="M2.4253 12.001c0-5.239 4.2608-9.501 9.5-9.501s9.5 4.262 9.5 9.501c0 5.2381-4.261 9.499-9.5 9.499s-9.5-4.2609-9.5-9.499Zm1.8 0c0 4.2439 3.455 7.699 7.7 7.699s7.7-3.4551 7.7-7.699c0-4.245-3.4552-7.701-7.7-7.701s-7.7 3.456-7.7 7.701Z"/>
  <path d="M20.4736 12.2085c-6.6934-.1134-11.9905 3.6122-14.6173 5.9033a.9.9 0 0 1-1.2698-.0866.9.9 0 0 1 .0867-1.2698c2.7432-2.3929 8.4682-6.4713 15.8308-6.3467a.9.9 0 0 1-.0304 1.7998Z"/>
  <path d="M2.8581 9.7699a.9.9 0 0 1 1.269.0974 4.624 4.624 0 0 1 .0585.0705c.2951.3601 1.3142 1.6039 3.4746 2.8174 2.3438 1.3164 6.0753 2.6189 11.7258 2.6189a.9.9 0 0 1 0 1.8c-5.9405 0-9.9785-1.373-12.6073-2.8496-2.4441-1.3728-3.6313-2.8163-3.9574-3.2127a5.6599 5.6599 0 0 0-.0606-.0729.9.9 0 0 1 .0974-1.269Z"/>
</g></svg>