<svg xmlns="http://www.w3.org/2000/svg" data-laicon-version="15.0" viewBox="0 0 20 20" fill="black"><g transform="translate(-2 -2)">
  <path d="M19.0336 13a7.1545 7.1545 0 0 0 .0699-1c0-1.6362-.5535-3.1431-1.4834-4.3438l-9.9604 9.9604c1.2007.9299 2.7076 1.4834 4.3438 1.4834 1.1872 0 2.3064-.2914 3.2899-.8066l1.3207 1.3207c-1.3447.8161-2.9228 1.2859-4.6106 1.2859-4.9153 0-8.9-3.9847-8.9-8.9s3.9847-8.9 8.9-8.9 8.9 3.9847 8.9 8.9a8.998 8.998 0 0 1-.0556 1h-1.8143Zm-7.0301-8.1c-3.9212 0-7.1 3.1788-7.1 7.1 0 1.6362.5535 3.1431 1.4834 4.3438l9.9604-9.9604C15.1466 5.4534 13.6397 4.9 12.0035 4.9Z"/>
  <path d="M16.5 15.25h2.75c1.3807 0 2.5 1.1193 2.5 2.5s-1.1193 2.5-2.5 2.5H19v-1.5h.25c.5523 0 1-.4477 1-1s-.4477-1-1-1H16.5v-1.5Z"/>
  <path d="m17.7697 13.4697 1.0606 1.0606L17.3607 16l1.4696 1.4697-1.0606 1.0606L15.2393 16l2.5304-2.5303Z"/>
</g></svg>