<svg xmlns="http://www.w3.org/2000/svg" data-laicon-version="15.0" viewBox="0 0 20 20" fill="black"><g transform="translate(-2 -2)">
  <path d="M18.4001 15.7v3.2h-1.8v-3.2h1.8Zm0-10.5v7.5h-1.8V5.2h1.8Zm-5.5 0v13.7h-1.8V5.2h1.8Z"/>
  <path d="M17.5001 16.6c-1.3 0-2.4-1.1-2.4-2.4 0-1.3 1.1-2.4 2.4-2.4 1.3 0 2.4 1.1 2.4 2.4 0 1.3-1.1 2.4-2.4 2.4Zm0-3c-.3 0-.6.3-.6.6s.3.6.6.6.6-.3.6-.6-.3-.6-.6-.6Zm-10.1-8.4v3.2h-1.8V5.2h1.8Zm0 6.1v7.5h-1.8v-7.5h1.8Z"/>
  <path d="M6.5001 12.2c-1.3 0-2.4-1.1-2.4-2.4 0-1.3 1.1-2.4 2.4-2.4 1.3 0 2.4 1.1 2.4 2.4 0 1.3-1.1 2.4-2.4 2.4Zm0-3c-.3 0-.6.3-.6.6s.3.6.6.6.6-.3.6-.6-.3-.6-.6-.6Z"/>
</g></svg>