<svg xmlns="http://www.w3.org/2000/svg" data-laicon-version="15.0" viewBox="0 0 20 20" fill="black"><g transform="translate(-2 -2)">
  <path d="M8.5478 12.9853a.8.8 0 0 1 1.0931.2916c.472.8153 1.3521 1.3611 2.359 1.3611s1.887-.5458 2.3589-1.3611a.8001.8001 0 0 1 1.3848.8016c-.7463 1.2893-2.143 2.1595-3.7437 2.1595-1.6007 0-2.9974-.8702-3.7437-2.1595a.8.8 0 0 1 .2916-1.0932ZM9.2227 9.1463c-.6351 0-1.15.5149-1.15 1.15 0 .6352.5149 1.15 1.15 1.15.635 0 1.1501-.5148 1.1501-1.15 0-.6351-.515-1.15-1.15-1.15Zm5.5543 0c-.6351 0-1.15.5149-1.15 1.15 0 .6352.5149 1.15 1.15 1.15.6351 0 1.15-.5148 1.15-1.15 0-.6351-.5149-1.15-1.15-1.15Z"/>
  <path d="M12 4.3c-4.2526 0-7.7 3.4474-7.7 7.7s3.4474 7.7 7.7 7.7 7.7-3.4474 7.7-7.7-3.4474-7.7-7.7-7.7ZM2.5 12c0-5.2467 4.2533-9.5 9.5-9.5s9.5 4.2533 9.5 9.5-4.2533 9.5-9.5 9.5-9.5-4.2533-9.5-9.5Z"/>
</g></svg>