<svg xmlns="http://www.w3.org/2000/svg" data-laicon-version="15.0" viewBox="0 0 20 20" fill="black"><g transform="translate(-2 -2)">
  <path d="M11.3965 3.9254a.9.9 0 0 0-1.7938 0l-.008.0974c-.2475 2.969-2.6034 5.3249-5.5724 5.5723l-.0974.0081a.9.9 0 0 0 0 1.7938l.0973.0081c2.969.2474 5.325 2.6033 5.5724 5.5723l.0081.0974a.9.9 0 0 0 1.7938 0l.0081-.0974c.2475-2.969 2.6034-5.3249 5.5724-5.5723l.0974-.0081a.9.9 0 0 0 0-1.7938l-.0974-.0081c-2.969-.2474-5.3249-2.6033-5.5724-5.5724l-.0081-.0973ZM7.2101 10.5a7.9206 7.9206 0 0 0 3.2895-3.2895A7.9208 7.9208 0 0 0 13.7891 10.5a7.9207 7.9207 0 0 0-3.2895 3.2894A7.9206 7.9206 0 0 0 7.2102 10.5ZM17.9978 14.4585a.5.5 0 0 0-.9965 0l-.02.2396c-.1014 1.2168-1.0669 2.1823-2.2838 2.2837l-.2395.02a.5.5 0 0 0 0 .9965l.2395.02c1.2169.1014 2.1824 1.0669 2.2838 2.2838l.02.2395a.5.5 0 0 0 .9965 0l.02-.2395c.1014-1.2169 1.0669-2.1824 2.2837-2.2838l.2396-.02a.5.5 0 0 0 0-.9965l-.2396-.02c-1.2168-.1014-2.1823-1.0669-2.2837-2.2837l-.02-.2396Z"/>
</g></svg>