<svg xmlns="http://www.w3.org/2000/svg" data-laicon-version="15.0" viewBox="0 0 20 20" fill="black"><g transform="translate(-2 -2)">
  <path d="M16.0998 4.3a1.3998 1.3998 0 0 1 1.4-1.4h2a1.4002 1.4002 0 0 1 1.4 1.4v2a1.4002 1.4002 0 0 1-1.4 1.4h-2a1.4005 1.4005 0 0 1-.9899-.41 1.3992 1.3992 0 0 1-.4101-.99v-2Zm1.8.4v1.2h1.2V4.7h-1.2Zm-14.6 4.5a1.4 1.4 0 0 1 1.4-1.4h2.7a1.4 1.4 0 0 1 1.4 1.4v2.3h2.3c.3713 0 .7274.1475.99.41.2625.2626.41.6187.41.99v2.3h2.3a1.4 1.4 0 0 1 1.4 1.4v2.7a1.3998 1.3998 0 0 1-1.4 1.4h-10.1a1.3998 1.3998 0 0 1-1.4-1.4V9.2Zm5.5 6h1.9v-1.9h-1.9v1.9Zm-3.7-1.9v1.9h1.9v-1.9h-1.9Zm0 3.7v1.9h1.9V17h-1.9Zm3.7 1.9h1.9V17h-1.9v1.9Zm-3.7-9.3v1.9h1.9V9.6h-1.9Zm7.4 9.3h1.9V17h-1.9v1.9Zm3-10.7a1.3998 1.3998 0 0 0-1.4 1.4v2c0 .3713.1475.7274.4101.9899.2625.2626.6186.4101.9899.4101h2a1.4 1.4 0 0 0 1.4-1.4v-2a1.4002 1.4002 0 0 0-1.4-1.4h-2Zm.4 3V10h1.2v1.2h-1.2Z"/>
</g></svg>