<svg xmlns="http://www.w3.org/2000/svg" data-laicon-version="15.0" viewBox="0 0 20 20" fill="black"><g transform="translate(-2 -2)">
  <path d="M5.4499 14.4101v3.9508a.184.184 0 0 0 .047.1199.0915.0915 0 0 0 .0238.0202h4.0775a.2497.2497 0 0 0 .038-.0712.2204.2204 0 0 0 .0137-.0689v-3.9621a.2564.2564 0 0 0-.0338-.0472.1718.1718 0 0 0-.049-.0394.0812.0812 0 0 0-.0394-.0081H5.5384a.2558.2558 0 0 0-.0432.0405.3813.3813 0 0 0-.0453.0655Zm.0743 4.0923c0 .0001-.0008 0-.0022-.0007a.0079.0079 0 0 1 .0022.0007Zm-1.3884-5.3375c.2784-.3209.748-.6608 1.3786-.6608h4.0133c.6279 0 1.1132.2972 1.4234.6401.2839.314.4988.7535.4988 1.1931v4.0236c0 .4491-.1603.907-.4461 1.2645-.2947.3686-.7654.6756-1.3688.6756H5.5144c-1.1042 0-1.8645-.9691-1.8645-1.9401v-4.0236c0-.4426.2298-.8774.4859-1.1724Zm1.3141-7.5601v3.9509c0 .0428.0182.0884.047.1199a.0947.0947 0 0 0 .0238.0202h4.0775a.2513.2513 0 0 0 .038-.0712.2205.2205 0 0 0 .0137-.069v-3.962a.2572.2572 0 0 0-.0338-.0473.1707.1707 0 0 0-.049-.0393.0817.0817 0 0 0-.0394-.0081H5.5384a.2507.2507 0 0 0-.0432.0405.3738.3738 0 0 0-.0453.0654Zm.0743 4.0924s-.0008 0-.0022-.0008c.0015.0004.0023.0007.0022.0008ZM4.1358 4.3596c.2784-.3209.748-.6607 1.3786-.6607h4.0133c.6279 0 1.1132.2971 1.4234.64.2839.314.4988.7535.4988 1.1931v4.0237c0 .4491-.1603.9069-.4461 1.2644-.2947.3687-.7654.6757-1.3688.6757H5.5144c-1.1042 0-1.8645-.9692-1.8645-1.9401V5.532c0-.4425.2298-.8773.4859-1.1724Zm10.214 10.0505v3.9508c0 .0429.0182.0885.0469.1199a.0907.0907 0 0 0 .0239.0202h4.0775a.2527.2527 0 0 0 .038-.0712.2203.2203 0 0 0 .0137-.0689v-3.9621a.2556.2556 0 0 0-.0339-.0472.1707.1707 0 0 0-.049-.0394.081.081 0 0 0-.0393-.0081h-3.9893a.259.259 0 0 0-.0432.0405.3846.3846 0 0 0-.0453.0655Zm.0743 4.0923c0 .0001-.0008 0-.0022-.0007a.0065.0065 0 0 1 .0022.0007Zm-1.3884-5.3375c.2784-.3209.748-.6608 1.3786-.6608h4.0133c.6279 0 1.1132.2972 1.4234.6401.2839.314.4988.7535.4988 1.1931v4.0236c0 .4491-.1603.907-.4461 1.2645-.2947.3686-.7654.6756-1.3688.6756h-4.1206c-1.1042 0-1.8645-.9691-1.8645-1.9401v-4.0236c0-.4426.2298-.8774.4859-1.1724Zm1.3141-7.5601v3.9509a.185.185 0 0 0 .0469.1199.0939.0939 0 0 0 .0239.0202h4.0775a.2543.2543 0 0 0 .038-.0712.2204.2204 0 0 0 .0137-.069v-3.962a.2564.2564 0 0 0-.0339-.0473.1697.1697 0 0 0-.049-.0393.0815.0815 0 0 0-.0393-.0081h-3.9893a.2537.2537 0 0 0-.0432.0405.377.377 0 0 0-.0453.0654Zm.0743 4.0924s-.0008 0-.0022-.0008c.0015.0004.0023.0007.0022.0008Zm-1.3884-5.3376c.2784-.3209.748-.6607 1.3786-.6607h4.0133c.6279 0 1.1132.2971 1.4234.64.2839.314.4988.7535.4988 1.1931v4.0237c0 .4491-.1603.9069-.4461 1.2644-.2947.3687-.7654.6757-1.3688.6757h-4.1206c-1.1042 0-1.8645-.9692-1.8645-1.9401V5.532c0-.4425.2298-.8773.4859-1.1724Z"/>
</g></svg>