<svg xmlns="http://www.w3.org/2000/svg" data-laicon-version="17.1" viewBox="0 0 20 20" fill="black"><g transform="translate(-2 -2)">
  <path d="M4.75 3.35a1.4 1.4 0 0 0-1.4 1.4v5.5a1.4 1.4 0 0 0 1.4 1.4h5.5a1.4 1.4 0 0 0 1.4-1.4v-5.5a1.4 1.4 0 0 0-1.4-1.4h-5.5Zm.4 6.5v-4.7h4.7v4.7h-4.7Zm-.4 2.5a1.4 1.4 0 0 0-1.4 1.4v5.5a1.4 1.4 0 0 0 1.4 1.4h5.5a1.4 1.4 0 0 0 1.4-1.4v-5.5a1.4 1.4 0 0 0-1.4-1.4h-5.5Zm.4 6.5v-4.7h4.7v4.7h-4.7Zm7.2-5.1a1.4 1.4 0 0 1 1.4-1.4h5.5a1.4 1.4 0 0 1 1.4 1.4v5.5a1.4 1.4 0 0 1-1.4 1.4h-5.5a1.4 1.4 0 0 1-1.4-1.4v-5.5Zm1.8.4v4.7h4.7v-4.7h-4.7ZM17.4 6.6v-3h-1.8v3h-3v1.8h3v3h1.8v-3h3V6.6h-3Z"/>
</g></svg>