<svg xmlns="http://www.w3.org/2000/svg" data-laicon-version="15.0" viewBox="0 0 20 20" fill="black"><g transform="translate(-2 -2)">
  <path d="M3.0996 8.5001c0-1.3255 1.0745-2.4 2.4-2.4h10c1.3255 0 2.4 1.0745 2.4 2.4v10c0 1.3254-1.0745 2.4-2.4 2.4h-10c-1.3255 0-2.4-1.0746-2.4-2.4v-10Zm2.4-.6a.6.6 0 0 0-.6.6v10a.6.6 0 0 0 .6.6h10a.6.6 0 0 0 .6-.6v-10a.6.6 0 0 0-.6-.6h-10Z"/>
  <path d="M16.5 4.4001h-2v-1.8h2c2.7062 0 4.9 2.1938 4.9 4.9v2h-1.8v-2c0-1.712-1.3879-3.1-3.1-3.1Z"/>
  <path d="M13.1075 3.7348c-.1433-.1207-.1433-.3486 0-.4694l1.4211-1.1976c.1893-.1596.4714-.019.4714.2347v2.3952c0 .2538-.2821.3943-.4714.2348l-1.4211-1.1977Z"/>
</g></svg>