<svg xmlns="http://www.w3.org/2000/svg" data-laicon-version="15.0" viewBox="0 0 20 20" fill="black"><g transform="translate(-2 -2)">
  <path d="M3.0996 5.5001c0-1.3255 1.0745-2.4 2.4-2.4h13c1.3255 0 2.4 1.0745 2.4 2.4v13c0 1.3254-1.0745 2.4-2.4 2.4h-13c-1.3255 0-2.4-1.0746-2.4-2.4v-13Zm2.4-.6a.6.6 0 0 0-.6.6v13a.6.6 0 0 0 .6.6h13a.6.6 0 0 0 .6-.6v-13a.6.6 0 0 0-.6-.6h-13Z"/>
  <path d="M3.0996 5.5001c0-1.3255 1.0745-2.4 2.4-2.4h7.4v7.9c0 1.0493-.8507 1.9-1.9 1.9h-7.9v-7.4Zm2.4-.6a.6.6 0 0 0-.6.6v5.6h6.1a.1.1 0 0 0 .1-.1v-6.1h-5.6Z"/>
</g></svg>