<svg xmlns="http://www.w3.org/2000/svg" data-laicon-version="15.0" viewBox="0 0 20 20" fill="black"><g transform="translate(-2 -2)">
  <path d="M19.0002 17.9002V5.9082h1.8v11.992c0 1.6021-1.2979 2.9-2.9 2.9H5.9082v-1.8h11.992c.608 0 1.1-.4921 1.1-1.1Z"/>
  <path d="M5.0002 5.0001v11.338h11.338V5.0001H5.0002Zm-1.8-.4c0-.7732.6268-1.4 1.4-1.4h12.138c.7732 0 1.4.6268 1.4 1.4v12.138c0 .7732-.6268 1.4-1.4 1.4H4.6002c-.7732 0-1.4-.6268-1.4-1.4V4.6001Z"/>
  <path d="M19.0002 17.9002V5.9082h1.8v11.992c0 1.6021-1.2979 2.9-2.9 2.9H5.9082v-1.8h11.992c.608 0 1.1-.4921 1.1-1.1Z"/>
  <path d="M5.0002 5.0001v11.338h11.338V5.0001H5.0002Zm-1.8-.4c0-.7732.6268-1.4 1.4-1.4h12.138c.7732 0 1.4.6268 1.4 1.4v12.138c0 .7732-.6268 1.4-1.4 1.4H4.6002c-.7732 0-1.4-.6268-1.4-1.4V4.6001Z"/>
</g></svg>