<svg xmlns="http://www.w3.org/2000/svg" data-laicon-version="15.3" viewBox="0 0 20 20" fill="black"><g transform="translate(-2 -2)">
  <path d="M10.996 3.438c.39-.866 1.619-.866 2.008 0l2.103 4.686 5.106.552c.944.102 1.324 1.272.62 1.91l-3.806 3.447 1.052 5.028c.195.929-.8 1.651-1.623 1.18L12 17.685 7.544 20.24c-.823.473-1.818-.25-1.624-1.18l1.053-5.027-3.807-3.448c-.703-.637-.323-1.807.62-1.909l5.107-.552 2.103-4.686ZM12 5.598l-1.887 4.205-4.582.495 3.416 3.094-.945 4.511L12 15.611l3.998 2.292-.945-4.51 3.416-3.095-4.582-.495L12 5.598Z"/>
</g></svg>