<svg xmlns="http://www.w3.org/2000/svg" data-laicon-version="15.0" viewBox="0 0 20 20" fill="black"><g transform="translate(-2 -2)">
  <path d="m17.1645 13.8582-.6648-1.9128-.6649 1.9128-2.0247.0415 1.6137 1.2233-.5863 1.9382 1.6622-1.1567 1.6622 1.1567-.5864-1.9382 1.6136-1.2233-2.0246-.0415Z"/>
  <path d="M4.0002 5.8317v12.3365h16V5.8317h-16Zm-1.8-.4c0-.772.628-1.4 1.4-1.4h16.8c.7721 0 1.4.628 1.4 1.4v13.1365c0 .7723-.6281 1.4-1.4 1.4h-16.8c-.772 0-1.4-.6279-1.4-1.4V5.4317Z"/>
  <path d="M20.9001 9.3443h-17.8v-1.8h17.8v1.8Z"/>
</g></svg>