<svg xmlns="http://www.w3.org/2000/svg" data-laicon-version="15.0" viewBox="0 0 20 20" fill="black"><g transform="translate(-2 -2)">
  <path d="M20.072 10.067c.0081.0299.0407.1469.0581.173-1.0196 1.0361-1.9446 1.9437-2.597 2.5838l-.0008.0008c-.1407.138-.2686.2636-.3821.3754h2.5799c.54-.53 1.15-1.14 1.79-1.8.0299-.0299.0598-.0697.0897-.1096.34-.48.3903-1.2904.1303-1.9204-.25-.58-.75-.97-1.35-1.06-1.96-.33-3.7599-.58-4.5899-.69L13.6901 3.4s-.04-.08-.07-.12c-.36-.51-.96-.81-1.6-.81-.65 0-1.2499.3-1.5999.81l-.0007.001a.8724.8724 0 0 0-.0594.099c-.9 1.71-1.74 3.44-2.12 4.23-.86.1-2.71.34-4.68.7-.6.12-1.12.6-1.34 1.26-.23.6599-.1 1.35.36 1.89 1.39 1.45 2.71 2.71 3.32 3.29l-.0773.452c-.171.9967-.4537 2.6447-.6927 4.198 0 .025-.0025.0475-.005.07a.6122.6122 0 0 0-.005.07c0 .62.33 1.23.88 1.61.35.25.75.37 1.14.37.21 0 .43-.04.63-.11a.6908.6908 0 0 0 .05-.02c.0175-.0075.035-.015.05-.02 1.66-.85 3.36-1.75 4.13-2.16.2276.1271.5447.2946.9155.4904.183.0967.3797.2006.5845.3096v-2.04c-.63-.34-1.0599-.57-1.0699-.57a.8782.8782 0 0 0-.8601 0s-2.24 1.2-4.44 2.33c-.02 0-.04-.0089-.0599-.0178-.01-.0044-.02-.0089-.03-.0122-.07-.04-.11-.1001-.12-.1301.3094-1.9545.6653-4.0218.7867-4.7272.0277-.1608.0432-.2509.0432-.2527.05-.3-.05-.61-.27-.81l-.0331-.0312c-.2482-.233-1.8455-1.7328-3.5368-3.4888-.0105-.0209-.0046-.0636.0006-.1011.0048-.0343.009-.0642-.0006-.0689 2.57-.47 5.0099-.74 5.0399-.74.31-.03.58-.23.72-.51l.0139-.029c.129-.2707 1.1392-2.3902 2.2462-4.501.05-.03.17-.04.22 0l2.27 4.55c.13.27.3899.45.6899.49.02 0 2.3492.2986 4.9619.717Z"/>
  <path d="M15 14.2h7V16h-7v-1.8Zm7 3h-7V19h7v-1.8Zm-7 3h7V22h-7v-1.8Z"/>
</g></svg>