<svg xmlns="http://www.w3.org/2000/svg" data-laicon-version="15.0" viewBox="0 0 20 20" fill="black"><g transform="translate(-2 -2)">
  <path d="M6.8054 19.3261h-.0001 10.389v-9.688h1.8v10.1004c0 .7664-.6213 1.3876-1.3876 1.3876H6.393c-.7664 0-1.3876-.6212-1.3876-1.3876V9.6382h1.8v9.6879Z"/>
  <path d="M5.1999 4.9056v3.8326h13.6V4.9056h-13.6Zm-1.8-.4c0-.7732.6268-1.4 1.4-1.4h14.4c.7731 0 1.4.6269 1.4 1.4v4.6326c0 .7734-.627 1.4-1.4 1.4h-14.4c-.7732 0-1.4-.6268-1.4-1.4V4.5056Z"/>
  <path d="M8.5332 9.631V4.0128h1.8V9.631h-1.8Zm5.1333 0V4.0128h1.8V9.631h-1.8Zm-2.5664 10.5951v-4.268h1.8v4.268h-1.8Z"/>
</g></svg>