<svg xmlns="http://www.w3.org/2000/svg" data-laicon-version="15.0" viewBox="0 0 20 20" fill="black"><g transform="translate(-2 -2)">
  <path d="M8.062 4.0222a.9.9 0 0 1 .9-.9h6.076a.9.9 0 0 1 .9.9v2.718h-1.8v-1.818H9.862v1.818h-1.8v-2.718ZM6.3706 21.5005V20.24h1.8v1.2605h-1.8ZM17.6291 20.24v1.2605h-1.8V20.24h1.8Z"/>
  <path d="M5.9889 7.8006c-.6076 0-1.1.4925-1.1 1.1v8.4477c0 .6075.4924 1.1 1.1 1.1h12.0223c.6075 0 1.1-.4925 1.1-1.1V8.9006c0-.6075-.4925-1.1-1.1-1.1H5.9889Zm-2.9 1.1c0-1.6017 1.2983-2.9 2.9-2.9h12.0223c1.6017 0 2.9 1.2983 2.9 2.9v8.4477c0 1.6015-1.2983 2.9-2.9 2.9H5.9889c-1.6017 0-2.9-1.2983-2.9-2.9V8.9006ZM16.4684 4.9H7.5313V3.1h8.9371v1.8Z"/>
</g></svg>