<svg xmlns="http://www.w3.org/2000/svg" data-laicon-version="15.0" viewBox="0 0 20 20" fill="black"><g transform="translate(-2 -2)">
  <path d="M11.1001 5V2h1.8v3h-1.8Zm0 17v-3h1.8v3h-1.8ZM6.4138 7.6867 4.2925 5.5653l1.2728-1.2728L7.6866 6.414 6.4138 7.6867Zm12.021 12.0208-2.1213-2.1214 1.2727-1.2727 2.1214 2.1213-1.2728 1.2728ZM5 12.8998H2v-1.8h3v1.8Zm17 .0001h-3v-1.8h3v1.8ZM7.6866 17.5862l-2.1213 2.1213-1.2728-1.2728 2.1213-2.1213 1.2728 1.2728Zm12.021-12.0209-2.1213 2.1213-1.2728-1.2728 2.1213-2.1213 1.2728 1.2728ZM12 8.0499c-2.1815 0-3.95 1.7685-3.95 3.95s1.7685 3.95 3.95 3.95 3.95-1.7685 3.95-3.95-1.7685-3.95-3.95-3.95Zm-5.75 3.95c0-3.1756 2.5744-5.75 5.75-5.75 3.1757 0 5.75 2.5744 5.75 5.75s-2.5743 5.75-5.75 5.75c-3.1756 0-5.75-2.5744-5.75-5.75Z"/>
</g></svg>