<svg xmlns="http://www.w3.org/2000/svg" data-laicon-version="15.0" viewBox="0 0 20 20" fill="black"><g transform="translate(-2 -2)">
  <path d="M11.913 3.862c-2.497 0-4.805 1.122-6.306 3.098L7.04 8.05c1.153-1.518 2.926-2.388 4.873-2.388 2.922 0 5.426 2.104 5.973 5.1h-2.01l3.003 4.097 2.997-4.097h-2.167c-.57-3.98-3.855-6.9-7.796-6.9Zm.194 16.276c2.497 0 4.805-1.122 6.307-3.098l-1.434-1.09c-1.153 1.518-2.925 2.388-4.873 2.388-2.94 0-5.444-2.024-5.978-5.098h1.995L5.127 9.143 2.124 13.24h2.184c.56 4.08 3.858 6.898 7.8 6.898h-.001Z"/>
</g></svg>