<svg xmlns="http://www.w3.org/2000/svg" data-laicon-version="15.0" viewBox="0 0 20 20" fill="black"><g transform="translate(-2 -2)">
  <path d="m3.1401 7.5541.917.4276c1.468-2.8964 4.4738-4.8816 7.9432-4.8816 4.3163 0 7.9149 3.0726 8.728 7.1498H18.883c-.7795-3.0749-3.5654-5.3498-6.8827-5.3498-2.7471 0-5.13 1.5603-6.3105 3.843l.8766.4087c.4317.2014.418.8199-.0222 1.0019l-2.5838 1.0682a.5473.5473 0 0 1-.731-.3409L2.387 8.2151c-.1435-.4542.3215-.8623.7532-.661Zm1.9772 6.1958H3.272c.8129 4.0774 4.4116 7.1502 8.728 7.1502 3.4681 0 6.4729-1.9837 7.9417-4.8783l.9159.4271c.4317.2013.8967-.2068.7532-.661l-.8425-2.6659a.5474.5474 0 0 0-.7311-.3409l-2.5837 1.0682c-.4403.182-.454.8006-.0222 1.0019l.8776.4092c-1.1812 2.2809-3.563 3.8397-6.3089 3.8397-3.3174 0-6.1034-2.2752-6.8827-5.3502Z"/>
</g></svg>