<svg xmlns="http://www.w3.org/2000/svg" data-laicon-version="15.0" viewBox="0 0 20 20" fill="black"><g transform="translate(-2 -2)">
  <path d="M17.8404 4.3803c-.0732-.0792-.2331-.1942-.6017-.1942H6.7157c-.306 0-.4863.0853-.5737.1589-.0702.0591-.1345.1523-.1345.346v14.6477c0 .1124.175.4752.7083.4752h10.3628c.4496 0 .686-.1067.7887-.1862.0763-.0592.1251-.1337.1251-.289V4.8332c0-.2046-.065-.3589-.152-.4529Zm1.3212-1.2225c.4495.4858.6308 1.105.6308 1.6754v14.5055c0 .6786-.2806 1.2917-.8224 1.7116-.5154.3995-1.1859.5636-1.8914.5636H6.7158c-1.3602 0-2.5083-1.0092-2.5083-2.2752V4.691c0-.6913.2738-1.3005.7747-1.7226.4837-.4076 1.1075-.5823 1.7336-.5823h10.5229c.7927 0 1.4597.271 1.9229.7717Z"/>
  <path d="M11.8938 17.37a.925.925 0 1 0 0 1.85.925.925 0 0 0 0-1.85Z"/>
</g></svg>