<svg xmlns="http://www.w3.org/2000/svg" data-laicon-version="15.0" viewBox="0 0 20 20" fill="black"><g transform="translate(-2 -2)">
  <path d="M4.059 5.8732c-.0122.0615-.0246.1635-.0246.3216v11.489c0 .2135.01.3555.0263.4515.0358.0037.084.0066.147.0066h15.6509a.7447.7447 0 0 0 .0653-.0026.6769.6769 0 0 0 .0101-.0385c.0198-.0857.0361-.219.0361-.417V6.5432c0-.2812-.0102-.4789-.03-.621a1.412 1.412 0 0 0-.0102-.0629 1.419 1.419 0 0 0-.0713-.0017H4.4582c-.1905 0-.3106.004-.3991.0156Zm-.2692-1.7798c.2325-.0337.473-.0358.6684-.0358h15.4004c.5569 0 1.2142.1405 1.5991.793.158.2677.2283.56.265.8223.0372.2659.0474.5615.0474.8703v11.1406c0 .5413-.0789 1.1268-.4247 1.5844-.3926.5195-.9648.6737-1.4868.6737H4.2078c-.557 0-1.2007-.124-1.6095-.7026-.3394-.4803-.364-1.0958-.364-1.5555V6.1948c0-.6856.1496-1.3848.7537-1.8033.2728-.189.5646-.2638.8018-.2981Z"/>
  <path d="M11.1001 19.0029V8.177h1.8v10.826h-1.8Z"/>
  <path d="M20.8452 14.3603H3.1519v-1.8h17.6933v1.8Zm0-5.1603H3.1519V7.4h17.6933v1.8Z"/>
</g></svg>