<svg xmlns="http://www.w3.org/2000/svg" data-laicon-version="15.0" viewBox="0 0 20 20" fill="black"><g transform="translate(-2 -2)">
  <path d="M18.8997 19.7h-13.8c-.9 0-2.1-.5-2.6-2.9-.3-1.2-.3-2.3-.3-2.4 0-5.4 4.4-9.8 9.8-9.8s9.7999 4.4 9.7999 9.8c0 .6-.1 5.3-2.8999 5.3Zm-6.9-13.3c-4.4 0-8 3.6-8 8 0 1.4.4 3.4 1.1 3.4h13.9c.7 0 1.1-2 1.1-3.4-.1-4.4-3.7-8-8.1-8Z"/>
  <path d="m16.6744 8.579 1.2728 1.2728-4.1012 4.1012-1.2728-1.2728 4.1012-4.1012ZM5.2 13.6c.4 0 .7.3.7.7 0 .4-.3.7-.7.7-.4 0-.7-.3-.7-.7 0-.4.3-.7.7-.7Zm6.7998-6.7c.4 0 .7.4.7.7 0 .4-.3.7-.7.7-.4 0-.7-.3-.7-.7 0-.4.3-.7.7-.7Zm6.8003 6.7c.4 0 .8.3.7.7 0 .4-.3.7-.7.7-.4 0-.7-.3-.7-.7 0-.4.3-.7.7-.7Z"/>
  <path d="M11.9997 17.6c-1.5 0-2.8-1.3-2.8-2.8 0-1.5 1.3-2.8 2.8-2.8 1.5 0 2.8 1.3 2.8 2.8 0 1.5-1.3 2.8-2.8 2.8Zm0-3.8c-.5 0-1 .4-1 1 0 .5.4 1 1 1 .5 0 1-.4 1-1 0-.5-.5-1-1-1Z"/>
</g></svg>