<svg xmlns="http://www.w3.org/2000/svg" data-laicon-version="15.0" viewBox="0 0 20 20" fill="black"><g transform="translate(-2 -2)">
  <path d="M11.9998 5.5087c-3.585 0-6.4913 2.9062-6.4913 6.4913 0 3.585 2.9063 6.4913 6.4913 6.4913S18.4911 15.585 18.4911 12s-2.9063-6.4913-6.4913-6.4913ZM3.7085 12c0-4.5792 3.7121-8.2913 8.2913-8.2913S20.2911 7.4208 20.2911 12s-3.7121 8.2913-8.2913 8.2913S3.7085 16.5792 3.7085 12Z"/>
  <path d="M12.9001 2v2.6087h-1.8V2h1.8ZM2 11.1h2.6087v1.8H2v-1.8ZM11.1001 22v-2.6087h1.8V22h-1.8Zm10.8997-9.1h-2.6087v-1.8h2.6087v1.8ZM12.0002 12.55a.55.55 0 1 0 0-1.1.55.55 0 1 0 0 1.1Z"/>
  <path d="M11.9998 10.55c-.8008 0-1.45.6492-1.45 1.45s.6492 1.45 1.45 1.45 1.45-.6492 1.45-1.45-.6492-1.45-1.45-1.45Z"/>
</g></svg>