<svg xmlns="http://www.w3.org/2000/svg" data-laicon-version="15.0" viewBox="0 0 20 20" fill="black"><g transform="translate(-2 -2)">
  <path d="M18.6011 5.4h-1.9317V3.6h2.3168c.7815 0 1.4149.6335 1.4149 1.415v2.3167h-1.8V5.4ZM5.401 5.4h1.9318V3.6H5.016c-.7815 0-1.415.6335-1.415 1.415v2.3167h1.8V5.4Zm0 13.2v-1.9317h-1.8v2.3168c0 .7815.6335 1.4149 1.415 1.4149h2.3168v-1.8H5.401Zm13.2001 0v-1.9317h1.8v2.3168c0 .7815-.6334 1.4149-1.4149 1.4149h-2.3168v-1.8h1.9317ZM7.9517 7.8922h8.0244v2.4404h-1.8v-.6404H9.7517v.6404h-1.8V7.8922Z"/>
  <path d="M11.064 15.5515V8.7922h1.8v6.7593h-1.8Z"/>
  <path d="M13.3172 16.4515h-2.678v-1.8h2.678v1.8Z"/>
</g></svg>