<svg xmlns="http://www.w3.org/2000/svg" data-laicon-version="15.0" viewBox="0 0 20 20" fill="black"><g transform="translate(-2 -2)">
  <path d="M12 4.3c-4.2526 0-7.7 3.4474-7.7 7.7s3.4474 7.7 7.7 7.7 7.7-3.4474 7.7-7.7-3.4474-7.7-7.7-7.7ZM2.5 12c0-5.2467 4.2533-9.5 9.5-9.5s9.5 4.2533 9.5 9.5-4.2533 9.5-9.5 9.5-9.5-4.2533-9.5-9.5Z"/>
  <path d="M11.4688 16.7V7.3h1.4v9.4h-1.4Z"/>
  <path d="M9.1435 8.2282h3.7423c1.2625 0 2.2859 1.0235 2.2859 2.286 0 .47-.1419.9069-.3851 1.2701.4661.4185.7594 1.0257.7594 1.7015 0 1.2625-1.0234 2.286-2.2859 2.286H9.1435V8.2282ZM10.7436 12.8v1.3718h2.5165a.686.686 0 0 0 0-1.3718h-2.5165Zm0-1.6h2.1422a.686.686 0 0 0 0-1.3718h-2.1422V11.2Z"/>
</g></svg>