<svg xmlns="http://www.w3.org/2000/svg" data-laicon-version="15.0" viewBox="0 0 20 20" fill="black"><g transform="translate(-2 -2)">
  <path d="M10.5674 16.25v-8.5h1.4v8.5h-1.4Z"/>
  <path d="M8.4648 8.5254h3.4481c1.1804 0 2.1373.9569 2.1373 2.1373 0 .415-.1183.8023-.323 1.1302.4066.3891.6598.9372.6598 1.5443 0 1.1806-.9569 2.1373-2.1373 2.1373H8.4648v-6.949ZM11.9234 11.2a.5373.5373 0 0 0-.0105-1.0745h-1.848V11.2h1.8585Zm-1.8585 1.6v1.0745h2.1848a.5372.5372 0 1 0 0-1.0746h-.3159l-.0209.0001h-1.848Z"/>
  <path d="M11.2024 4.3203C6.961 4.3203 3.5227 7.7586 3.5227 12c0 4.2414 3.4383 7.6797 7.6797 7.6797 1.6562 0 3.1874-.5232 4.441-1.4135l1.0423 1.4676c-1.5481 1.0994-3.4416 1.7459-5.4833 1.7459-5.2355 0-9.4797-4.2442-9.4797-9.4797 0-5.2355 4.2442-9.4797 9.4797-9.4797 5.2355 0 9.4797 4.2442 9.4797 9.4797 0 1.1644-.2104 2.2818-.5959 3.3147l-1.6864-.6294c.3116-.8347.4823-1.739.4823-2.6853 0-4.2414-3.4383-7.6797-7.6797-7.6797Z"/>
  <path d="M14.4229 17.5524c0-2.169 1.7583-3.9273 3.9273-3.9273 2.169 0 3.9273 1.7583 3.9273 3.9273 0 2.169-1.7583 3.9273-3.9273 3.9273-2.169 0-3.9273-1.7583-3.9273-3.9273Zm3.4487-1.4746.9746.9746h-2.6931v1h2.693l-.9745.9745.707.7072 2.1818-2.1817-2.1817-2.1817-.7071.7071Z"/>
</g></svg>