<svg xmlns="http://www.w3.org/2000/svg" data-laicon-version="18.9" viewBox="0 0 20 20" fill="black"><g transform="translate(-2 -2)">
  <path d="M12.875 21.9a2.48 2.48 0 0 0 2.479-2.478v-3.923h3.794a2.479 2.479 0 0 0 2.452-2.844l-1.11-7.441A2.479 2.479 0 0 0 18.04 3.1H3.784a.901.901 0 0 0-.901.9v9.02a.9.9 0 0 0 .901.9h3.817c.855.942 1.549 2.158 2.082 3.366.58 1.316.945 2.563 1.118 3.31l.039.142a1.686 1.686 0 0 0 1.605 1.162h.43Zm-.343-1.8a21.483 21.483 0 0 0-1.202-3.54c-.581-1.318-1.382-2.75-2.441-3.9V4.9h9.151c.336 0 .621.246.67.579l1.11 7.442a.679.679 0 0 1-.672.778h-5.594v5.723a.679.679 0 0 1-.679.678h-.343ZM4.685 4.9h2.404v7.22H4.685V4.9Z"/>
</g></svg>