<svg xmlns="http://www.w3.org/2000/svg" data-laicon-version="15.0" viewBox="0 0 20 20" fill="black"><g transform="translate(-2 -2)">
  <path d="M2.8838 11.1846a.9.9 0 0 1 .9-.9H7.988a.9.9 0 0 1 .9.9v9.0206a.9.9 0 0 1-.9.9H3.7838a.9.9 0 0 1-.9-.9v-9.0206Zm1.8.9v7.2206H7.088v-7.2206H4.6838Z"/>
  <path d="M10.8006 3.6092c.1786-.7715.8644-1.3038 1.6444-1.3038h.4302c1.3688 0 2.4785 1.1095 2.4785 2.4784v3.9224h3.7941c1.5141 0 2.6745 1.3459 2.4514 2.8436 0 0 0-.0001 0 0l-1.1083 7.4422c-.1809 1.2143-1.2235 2.1133-2.4514 2.1133H7.9881v-1.8h10.0514a.6783.6783 0 0 0 .671-.5785l1.1083-7.4422c.0611-.4099-.2565-.7784-.671-.7784h-5.5941V4.7838a.6784.6784 0 0 0-.6785-.6784h-.3422c-.2014.845-.5937 2.1571-1.2036 3.5402-.6286 1.4256-1.5135 2.9841-2.705 4.1756l-1.2728-1.2728c.971-.971 1.7472-2.3056 2.3308-3.629.5803-1.3158.9454-2.5637 1.1182-3.3102Z"/>
</g></svg>