<svg xmlns="http://www.w3.org/2000/svg" data-laicon-version="15.0" viewBox="0 0 20 20" fill="black"><g transform="translate(-2 -2)">
  <path d="M12.0035 4.9c-3.9212 0-7.1 3.1788-7.1 7.1s3.1788 7.1 7.1 7.1 7.1-3.1788 7.1-7.1-3.1788-7.1-7.1-7.1Zm-8.9 7.1c0-4.9153 3.9847-8.9 8.9-8.9 4.9154 0 8.9 3.9847 8.9 8.9s-3.9846 8.9-8.9 8.9c-4.9153 0-8.9-3.9847-8.9-8.9Z"/>
  <path d="m8.6133 14.1136 5.5-5.5 1.2728 1.2728-5.5 5.5-1.2728-1.2728Z"/>
  <path d="m14.1133 15.3864-5.5-5.5L9.886 8.6136l5.5 5.5-1.2728 1.2728Z"/>
</g></svg>