<svg xmlns="http://www.w3.org/2000/svg" data-laicon-version="15.0" viewBox="0 0 20 20" fill="black"><g transform="translate(-2 -2)">
  <path d="M12.0001 7.15c-3.507 0-6.35 2.843-6.35 6.35 0 3.507 2.843 6.35 6.35 6.35 3.507 0 6.35-2.843 6.35-6.35 0-3.507-2.843-6.35-6.35-6.35Zm-8.15 6.35c0-4.5011 3.6489-8.15 8.15-8.15 4.5011 0 8.15 3.6489 8.15 8.15 0 4.5011-3.6489 8.15-8.15 8.15-4.5011 0-8.15-3.6489-8.15-8.15ZM15 4.4H9V2.6h6v1.8Z"/>
  <path d="m15.8155 10.8157-3.25 3.25-1.1314-1.1314 3.25-3.25 1.1314 1.1314Z"/>
</g></svg>