<svg xmlns="http://www.w3.org/2000/svg" data-laicon-version="15.0" viewBox="0 0 20 20" fill="black"><g transform="translate(-2 -2)">
  <path d="M12.0001 7.15c-3.507 0-6.35 2.843-6.35 6.35 0 3.507 2.843 6.35 6.35 6.35 3.507 0 6.35-2.843 6.35-6.35 0-3.507-2.843-6.35-6.35-6.35Zm-8.15 6.35c0-4.5011 3.6489-8.15 8.15-8.15 4.5011 0 8.15 3.6489 8.15 8.15 0 4.5011-3.6489 8.15-8.15 8.15-4.5011 0-8.15-3.6489-8.15-8.15ZM15 4.4H9V2.6h6v1.8Z"/>
  <path d="M11.9277 10.91c.4442-.5957 1.0934-.9178 1.8946-.9178.8053 0 1.4566.3218 1.902.9176.4413.5903.6705 1.4355.6705 2.4709 0 1.0353-.2292 1.8806-.6705 2.4709-.4454.5957-1.0967.9176-1.902.9176-.8012 0-1.4504-.3221-1.8946-.9178-.4401-.5902-.6694-1.4354-.6694-2.4707 0-1.0354.2293-1.8805.6694-2.4707Zm-2.743-.7085c.0792-.0765.1646-.0903.2373-.0903h.663c.0656 0 .1343.0211.1868.0737.0525.0525.0737.1212.0737.1868v6.018c0 .0656-.0212.1343-.0737.1868-.0525.0525-.1212.0737-.1868.0737h-.9265c-.0656 0-.1343-.0212-.1868-.0737-.0526-.0525-.0737-.1212-.0737-.1868v-4.3779l-.9322.3687c-.0546.0229-.1233.0336-.1933.0062-.069-.027-.1136-.081-.1413-.1358l-.1665-.3154c-.021-.0491-.0336-.1089-.0202-.1728.0135-.0649.0503-.116.0956-.154l1.6445-1.4072Zm3.8702 1.6569c-.1909.3146-.3066.8118-.3066 1.5223s.1157 1.2077.3066 1.5223c.1848.3046.4427.4442.7674.4442.3296 0 .5895-.1401.7751-.4445.1918-.3145.3074-.8114.3074-1.522s-.1156-1.2076-.3074-1.522c-.1856-.3044-.4455-.4445-.7751-.4445-.3247 0-.5826.1395-.7674.4442Z"/>
</g></svg>