<svg xmlns="http://www.w3.org/2000/svg" data-laicon-version="15.0" viewBox="0 0 20 20" fill="black"><g transform="translate(-2 -2)">
  <path d="M4 4.4C4 3.0745 5.0745 2 6.4 2h7.4c1.3255 0 2.4 1.0745 2.4 2.4v7.6501h-1.8V4.4a.6.6 0 0 0-.6-.6H6.4a.6.6 0 0 0-.6.6v13.65a.6.6 0 0 0 .6.6l4.1001.0001v1.8L6.4 20.45c-1.3255 0-2.4-1.0745-2.4-2.4V4.4Z"/>
  <path d="M15 6.5H5V4.7h10v1.8Zm-5 11.25H5v-1.8h5v1.8Z"/>
  <path d="M14.3998 12.6c-2.0986 0-3.8 1.7013-3.8 3.8s1.7014 3.8 3.8 3.8c2.0987 0 3.8-1.7013 3.8-3.8s-1.7013-3.8-3.8-3.8Zm-5.6 3.8c0-3.0928 2.5073-5.6 5.6-5.6 3.0928 0 5.6 2.5072 5.6 5.6 0 3.0928-2.5072 5.6-5.6 5.6-3.0927 0-5.6-2.5072-5.6-5.6Z"/>
  <path d="M12.6001 14.1h2.1c.7732 0 1.4.6268 1.4 1.4 0 .7732-.6268 1.4-1.4 1.4h-2.1v-2.8Zm1 1v.8h1.1a.4.4 0 0 0 0-.8h-1.1Z"/>
  <path d="M12.6001 15.9h2.3c.7732 0 1.4.6268 1.4 1.4 0 .7732-.6268 1.4-1.4 1.4h-2.3v-2.8Zm1 1v.8h1.3a.4.4 0 0 0 0-.8h-1.3Z"/>
  <path d="M13.8501 19.1v-5.4h1v5.4h-1Z"/>
</g></svg>