<svg xmlns="http://www.w3.org/2000/svg" data-laicon-version="15.0" viewBox="0 0 20 20" fill="black"><g transform="translate(-2 -2)">
  <path d="M15.7697 14.7916c-.6238 0-1.1296.5057-1.1296 1.1296 0 .6239.5058 1.1295 1.1296 1.1295.6239 0 1.1296-.5056 1.1296-1.1295 0-.6239-.5057-1.1296-1.1296-1.1296ZM8.2297 14.7942c-.6233 0-1.1296.504-1.1296 1.127s.5063 1.1269 1.1296 1.1269 1.1296-.504 1.1296-1.1269-.5064-1.127-1.1296-1.127Z"/>
  <path d="M5.9001 4.2v13.8782h12.2002V4.2H5.9001Zm-1.8-.4c0-.773.6266-1.4 1.4-1.4h13.0002c.7734 0 1.4.627 1.4 1.4v14.6782c0 .7733-.6267 1.4-1.4 1.4H5.5001c-.7733 0-1.4-.6267-1.4-1.4V3.8Z"/>
  <path d="M6.8071 21.8218V19.1h1.8v2.7218h-1.8Zm8.586 0V19.1h1.8v2.7218h-1.8Zm3.6071-8.0577H5v-1.8h14.0002v1.8Z"/>
</g></svg>