<svg xmlns="http://www.w3.org/2000/svg" data-laicon-version="15.0" viewBox="0 0 20 20" fill="black"><g transform="translate(-2 -2)">
  <path d="M20.1001 7.1677h-17v-1.8h17v1.8Z"/>
  <path d="m18.7621 6.297-.4244 13.0472v.0001c-.0334 1.0245-.8737 1.8381-1.899 1.8381H6.7608c-1.0253 0-1.8657-.8135-1.899-1.8382v-.0001L4.4375 6.2969l1.799-.0585.4243 13.0472v.0001a.1.1 0 0 0 .1.0967h9.6779a.1002.1002 0 0 0 .1-.0968v-.0001l.4244-13.047 1.799.0584Z"/>
  <path d="M8.9102 16.4675V9.6676h1.8v6.7999h-1.8Zm3.5795 0V9.6676h1.8v6.7999h-1.8ZM9.0748 4.6176a.1.1 0 0 0-.1.1v1.5501h-1.8V4.7176c0-1.0494.8506-1.9 1.9-1.9h5.0529c1.0494 0 1.9.8506 1.9 1.9v1.5501h-1.8V4.7176a.1.1 0 0 0-.1-.1H9.0748Z"/>
</g></svg>