<svg xmlns="http://www.w3.org/2000/svg" data-laicon-version="15.0" viewBox="0 0 20 20" fill="black"><g transform="translate(-2 -2)">
  <path d="M18.8399 8.05c-.69-1.2-1.69-2.2-2.89-2.89a7.85 7.85 0 0 0-3.95-1.06V2l-4 3 4 3V5.9c1.06 0 2.12.28 3.05.82.92.54 1.7 1.31 2.23 2.23.54.93.82 1.98.82 3.05a6.1146 6.1146 0 0 1-3.05 5.28c-1.86 1.07-4.24 1.07-6.09 0a6.114 6.114 0 0 1-3.05-5.28c0-1.07.28-2.12.82-3.05l-1.56-.9a7.85 7.85 0 0 0-1.06 3.95c0 1.38.37 2.75 1.06 3.95.69 1.2 1.69 2.2 2.89 2.89 1.2.7 2.57 1.06 3.95 1.06 1.38 0 2.75-.37 3.95-1.06 1.2-.69 2.2-1.69 2.89-2.89a7.8502 7.8502 0 0 0 1.06-3.95c0-1.38-.37-2.75-1.06-3.95h-.01Z"/>
</g></svg>