<svg xmlns="http://www.w3.org/2000/svg" data-laicon-version="15.0" viewBox="0 0 20 20" fill="black"><g transform="translate(-2 -2)">
  <path d="M4.1476 9.897a.1.1 0 0 0-.1.1v9.7177a.1.1 0 0 0 .1.1h12.9999a.1.1 0 0 0 .1-.1V9.997a.1.1 0 0 0-.1-.1h-13Zm-1.9.1c0-1.0494.8506-1.9 1.9-1.9h12.9999c1.0494 0 1.9001.8506 1.9001 1.9v9.7177c0 1.0493-.8507 1.9-1.9001 1.9h-13c-1.0493 0-1.9-.8507-1.9-1.9V9.997Z"/>
  <path d="M12.4575 7.0326c0-2.5667 2.0808-4.6473 4.6474-4.6473s4.6474 2.0806 4.6474 4.6473V8.997h-1.8V7.0326c0-1.5725-1.2748-2.8473-2.8474-2.8473S14.2575 5.46 14.2575 7.0326V8.997h-1.8V7.0326ZM9.2192 13.8025c0-.789.6396-1.4285 1.4285-1.4285.789 0 1.4285.6395 1.4285 1.4285 0 .5549-.3163 1.0359-.7785 1.2724v1.9221h-1.3v-1.9221c-.4622-.2366-.7785-.7175-.7785-1.2724Z"/>
</g></svg>