<svg xmlns="http://www.w3.org/2000/svg" data-laicon-version="15.0" viewBox="0 0 20 20" fill="black"><g transform="translate(-2 -2)">
  <path d="M10.2698 10.62c.01.04.23.3101 1.04.4101V11.01c2.22.27 2.56 1.57 2.61 1.96.12.9-.44 1.77-1.39 2.15-.1098.0439-.2143.0718-.3173.0992-.0377.0101-.0753.0201-.1128.0308v1.0601h-1.7999V15.24c-.82-.24-1.44-.76-1.74-1.15l.71-.5499.7-.5601c.0799.1.7899.92 1.8799.48.21-.08.28-.21.28-.24-.01-.05-.24-.3099-1.04-.4099-2.22-.27-2.56-1.5701-2.61-1.9601-.11-.91.44-1.77 1.39-2.15.0953-.0318.1865-.0555.2762-.0788a6.4385 6.4385 0 0 0 .1539-.0412V7.53h1.7999V8.6c.82.24 1.44.75 1.74 1.14l-1.4199 1.11c-.07-.09-.79-.91-1.88-.47-.21.08-.27.21-.27.24Z"/>
  <path d="M20.6798 12c0 .75-.1 1.5-.27 2.22 1.12.69 1.87 1.9201 1.87 3.3301 0 2.17-1.7601 3.9299-3.9301 3.9299-1.06 0-2.0199-.42-2.7299-1.11-1.36.71-2.8601 1.11-4.4201 1.11-5.23 0-9.48-4.25-9.48-9.48s4.25-9.48 9.48-9.48 9.4801 4.25 9.4801 9.48Zm-9.4801-7.68c-4.23 0-7.68 3.45-7.68 7.68 0 4.23 3.45 7.6801 7.68 7.6801 1.22 0 2.3901-.2901 3.4601-.8301-.15-.41-.24-.8399-.24-1.2999 0-2.17 1.7599-3.9201 3.9299-3.9201.0749 0 .1543.0093.2321.0184.0365.0042.0727.0085.1079.0117.12-.54.1901-1.0901.1901-1.6601 0-4.23-3.4501-7.68-7.6801-7.68Zm6.6701 14.71.7099.6999 2.1801-2.1799-2.1801-2.1801-.7099.71.9799.9701h-2.6999v1h2.6999l-.9799.98Z"/>
</g></svg>