<svg xmlns="http://www.w3.org/2000/svg" data-laicon-version="15.0" viewBox="0 0 20 20" fill="black"><g transform="translate(-2 -2)">
  <path d="M2.5 12c0-5.24 4.26-9.5 9.5-9.5s9.5 4.26 9.5 9.5-4.26 9.5-9.5 9.5-9.5-4.26-9.5-9.5Zm1.8 0c0 4.25 3.45 7.7 7.7 7.7s7.7-3.45 7.7-7.7-3.45-7.7-7.7-7.7S4.3 7.75 4.3 12Zm6.57-1.43c.02.13.34.43 1.24.54l.01.02c2.39.29 2.75 1.68 2.81 2.1.13.96-.47 1.88-1.48 2.28-.18.08-.35.12-.53.16v1.22h-1.8v-1.23c-.92-.25-1.61-.83-1.95-1.26l.71-.56.7-.56c.09.11.92 1.06 2.21.55.26-.11.37-.28.36-.37-.02-.13-.34-.43-1.24-.54-2.39-.29-2.75-1.68-2.81-2.1-.13-.96.47-1.88 1.48-2.28.18-.08.35-.12.53-.16V7.15h1.8v1.24c.92.25 1.61.82 1.95 1.25l-1.42 1.11c-.09-.11-.92-1.06-2.21-.55-.26.11-.37.28-.36.37Z"/>
</g></svg>