<svg xmlns="http://www.w3.org/2000/svg" data-laicon-version="15.4" viewBox="0 0 20 20" fill="black"><g transform="translate(-2 -2)">
  <path d="M3.06 17.79c0-.93.47-1.8 1.25-2.31l-.01.02 4.08-2.66c.04-.03.04-.33-.07-.5-.24-.38-.51-.83-.9-1.54-.32-.26-.72-.76-.85-1.67-.08-.52.05-.93.2-1.22.12-2.5 1.92-4.34 4.33-4.34s4.24 1.86 4.34 4.35c.15.29.28.7.2 1.22-.13.9-.53 1.4-.85 1.67-.39.72-.66 1.16-.9 1.54-.11.17-.11.46-.04.51l3.33 2.17-.44 1.86-3.89-2.54c-1.01-.72-1.03-2.09-.47-2.97.24-.38.52-.83.94-1.61l.12-.23.22-.13.008-.01c.032-.035.15-.162.202-.54a.211.211 0 0 0-.03-.15l-.18-.24v-.41c0-1.56-1.04-2.7-2.54-2.7S8.57 6.5 8.57 8.13v.3l-.18.27c-.02.03-.04.08-.03.16.05.36.21.54.21.54l.17.12.17.23c.42.77.7 1.23.94 1.61.55.88.54 2.26-.45 2.95l-4.1 2.67c-.28.18-.44.48-.44.81v1.27h11.35l-.43 1.8H3.06v-3.07Zm15.95-6.07a.96.96 0 1 1 1.92 0 .96.96 0 0 1-1.92 0Zm-1.35 2.01c0-.13.1-.23.23-.23h1.78c.39.02.7.35.7.75 0 .06 0 .11-.02.17l-1.17 5s-.02.08-.02.13c0 .24.16.45.38.52.05.02.11.03.17.03h.34c.13 0 .23.1.23.23s-.1.22-.23.22h-1.78a.746.746 0 0 1-.7-.75c0-.06 0-.11.02-.17l1.17-5s.01-.08.01-.13a.55.55 0 0 0-.38-.52.508.508 0 0 0-.17-.03h-.34c-.13 0-.23-.1-.23-.23l.01.01Z"/>
</g></svg>