<svg xmlns="http://www.w3.org/2000/svg" data-laicon-version="15.0" viewBox="0 0 20 20" fill="black"><g transform="translate(-2 -2)">
  <path d="M16.2968 21.6069H2.1001v-3.2303c0-.9824.5035-1.8972 1.3185-2.4359l.005-.0034 4.3725-2.8478c.0207-.0168.064-.066.0723-.2086.0098-.1675-.042-.3416-.1027-.4379-.267-.4237-.5591-.9064-.9663-1.6592a2.0974 2.0974 0 0 1-.3858-.3978c-.244-.3268-.4422-.7736-.5291-1.3722-.0824-.5473.0564-.9904.2165-1.2928C6.209 5.046 8.1423 3.1 10.7036 3.1c2.5624 0 4.4943 1.9561 4.6025 4.621.1601.3024.299.7456.2165 1.293-.0868.5983-.2844 1.044-.5226 1.3697a2.1467 2.1467 0 0 1-.3775.4001c-.4116.7603-.7048 1.2368-.9671 1.6619l-.0043.0069c-.0607.0964-.1126.2704-.1027.438.0083.1425.0516.1917.0723.2086l2.5478 1.6594-1.3707 1.2553-2.1903-1.4265-.0119-.0084c-.5895-.4117-.8124-1.0419-.8442-1.5831-.031-.529.1088-1.0754.374-1.4985.2747-.4453.5714-.9275 1.0101-1.749l.1202-.2249.2202-.1285.0004-.0002a.0795.0795 0 0 0 .0132-.0097.3643.3643 0 0 0 .0578-.0643c.0502-.0686.146-.2332.1943-.5673l.001-.0068c.0098-.0648.001-.1108-.0098-.1433a.2621.2621 0 0 0-.0195-.0445.1597.1597 0 0 0-.0102-.0164l-.0001-.0001-.1921-.2446v-.3397c0-1.8757-1.2466-3.058-2.8073-3.058-1.5621 0-2.8073 1.1737-2.8073 3.0576v.3401l-.1922.2446c.0002-.0003-.0042.0055-.0103.0165a.2646.2646 0 0 0-.0195.0445c-.0108.0325-.0196.0785-.0097.1433l.001.0068c.0482.334.1434.4927.1902.5553a.3155.3155 0 0 0 .0523.057l.005.0038.0014.001.2387.1286.128.2396c.4416.8267.7387 1.3184 1.0075 1.7447.2667.4236.4077.9722.3766 1.5028-.0317.5411-.2546 1.1714-.8441 1.5831l-.012.0083-4.4002 2.866c-.32.2125-.5089.568-.5089.9329v1.4303h10.7466l1.6501 1.8Z"/>
  <path d="m17.3331 18.6681 3.0033-3.2763 1.3268 1.2164-4.33 4.7237-2.9968-3.2691 1.3268-1.2163 1.6699 1.8216Z"/>
</g></svg>