<svg xmlns="http://www.w3.org/2000/svg" data-laicon-version="16.3" viewBox="0 0 20 20" fill="black"><g transform="translate(-2 -2)">
  <path d="M12.005 2.5c2.811 0 5.343 1.24 7.084 3.192L5.692 19.089C3.74 17.348 2.5 14.827 2.5 12.005 2.5 6.762 6.762 2.5 12.005 2.5ZM9.96 12.509l3.476-3.476c-.39-.31-.87-.5-1.441-.5-1.36 0-2.321 1.04-2.321 2.542v.3l-.18.27c-.02.03-.02.08-.02.1.06.37.18.47.18.47l.22.13.086.164Zm6.667-6.657a7.615 7.615 0 0 0-4.622-1.561l-.01.01a7.707 7.707 0 0 0-7.704 7.704c0 1.73.59 3.332 1.56 4.622l2.782-2.781a4.846 4.846 0 0 0-.105-.196l-.025-.044c-.31-.26-.68-.74-.81-1.601-.07-.5.05-.89.19-1.17.12-2.372 1.85-4.113 4.122-4.113 1.06 0 1.991.4 2.711 1.04l1.911-1.91Zm3.54 1.313.002-.003-.01-.01.008.013Zm0 0-1.319 1.318c.55 1.06.861 2.251.861 3.522 0 2.111-.86 4.032-2.241 5.423-1.11-.76-2.532-1.741-2.862-1.971-.04-.05-.04-.27.05-.41.22-.35.48-.77.84-1.441.31-.26.681-.74.811-1.601.05-.36 0-.66-.08-.91l-3.212 3.211c-.4.84-.32 2.001.55 2.612.237.168 1.064.736 1.93 1.33l.482.33a7.69 7.69 0 0 1-3.982 1.121c-1.27 0-2.461-.31-3.522-.86l-1.32 1.32a9.482 9.482 0 0 0 4.842 1.341c5.243 0 9.505-4.262 9.505-9.505a9.386 9.386 0 0 0-1.333-4.83Z"/>
</g></svg>