<svg xmlns="http://www.w3.org/2000/svg" data-laicon-version="15.0" viewBox="0 0 20 20" fill="black"><g transform="translate(-2 -2)">
  <path d="m16.1073 14.7187-2.4866-1.6195c-.0207-.0169-.064-.0661-.0723-.2086-.0099-.1676.042-.3416.1027-.438l.0043-.0069c.2623-.4251.5555-.9016.9671-1.6619A2.1467 2.1467 0 0 0 15 10.3837c.2382-.3257.4358-.7714.5226-1.3696.0825-.5475-.0564-.9907-.2165-1.2932C15.1979 5.0561 13.266 3.1 10.7036 3.1c-2.5613 0-4.4947 1.9461-4.6026 4.621-.1601.3024-.2989.7455-.2165 1.2928.0869.5986.285 1.0454.5291 1.3722.1313.1757.2666.3044.3858.3978.4072.7528.6992 1.2355.9663 1.6592.0607.0963.1125.2704.1027.4379-.0084.1426-.0516.1918-.0723.2086l-4.3724 2.8478-.0051.0034c-.815.5387-1.3185 1.4535-1.3185 2.4359v3.2303h15.0394l-1.8-1.8H3.9001v-1.4303c0-.3649.189-.7204.5089-.9329l4.4003-2.866.0119-.0083c.5895-.4117.8124-1.042.8441-1.5831.0311-.5306-.1099-1.0792-.3766-1.5028-.2688-.4263-.566-.918-1.0075-1.7447l-.128-.2396-.2387-.1286-.0014-.001-.005-.0038a.3155.3155 0 0 1-.0523-.057c-.0468-.0626-.142-.2214-.1902-.5553l-.001-.0068c-.0099-.0648-.0011-.1108.0097-.1433a.2646.2646 0 0 1 .0195-.0445c.0061-.011.0105-.0168.0103-.0165l.1922-.2446v-.3401c0-1.8839 1.2452-3.0577 2.8073-3.0577 1.5607 0 2.8073 1.1824 2.8073 3.0581v.3397l.1921.2446h.0001a.1597.1597 0 0 1 .0102.0165.2621.2621 0 0 1 .0195.0445c.0108.0325.0196.0785.0098.1433l-.001.0068c-.0483.3341-.1441.4987-.1943.5673a.3643.3643 0 0 1-.0578.0643.0795.0795 0 0 1-.0132.0097l-.0004.0002-.2202.1285-.1202.225c-.4387.8214-.7354 1.3036-1.0101 1.7489-.2652.4231-.405.9695-.374 1.4985.0318.5412.2547 1.1714.8442 1.5831l.0119.0084 2.199 1.4322 1.3008-1.3009Z"/>
  <path d="m17.9681 18.5468 1.8681 1.8681-1.2728 1.2728-4.0409-4.0409 4.0409-4.0409 1.2728 1.2728-1.8681 1.8681h3.9553v1.8h-3.9553Z"/>
</g></svg>