<svg xmlns="http://www.w3.org/2000/svg" data-laicon-version="15.0" viewBox="0 0 20 20" fill="black"><g transform="translate(-2 -2)">
  <path d="M13.3956 20.7H2v-2.99a2.937 2.937 0 0 1 1.3335-2.46l4.0042-2.61a.0671.0671 0 0 0 .016-.023c.01-.0207.0233-.0611.0269-.1247.008-.1416-.0372-.2906-.088-.3709l-.0006-.0009c-.2497-.3956-.5238-.8443-.905-1.5448a2.0438 2.0438 0 0 1-.3553-.3767c-.2299-.3132-.417-.7393-.5002-1.3077-.0755-.5199.0543-.9376.2012-1.2224C5.8369 5.1488 7.6653 3.3 10.088 3.3c2.4231 0 4.253 1.8495 4.3564 4.371.1464.2847.2756.7008.2003 1.2194-.0832.5685-.2705.9953-.5 1.3083a2.0511 2.0511 0 0 1-.3547.3765c-.382.7008-.6558 1.1492-.9041 1.544l-.0021.0033c-.0507.0797-.0958.2282-.0878.3698.0036.0636.0168.1041.0269.125a.0705.0705 0 0 0 .016.0231l.9785.6378a2.5935 2.5935 0 0 0-.8122 1.6192l-1.1826-.7709-.0127-.0089c-.5673-.3982-.7817-1.0041-.8111-1.5236-.0287-.5074.1077-1.0295.3642-1.4345.2523-.4011.5304-.8571.9425-1.623l.121-.2249.2214-.128c.0003 0 .0007-.0002.0037-.0027a.2623.2623 0 0 0 .0415-.0466c.0392-.0535.1254-.1962.1703-.5027.0075-.052.0003-.0859-.0072-.1084a.1997.1997 0 0 0-.0278-.0544l-.1814-.2406V7.927c0-.0236.0009-.0444.0019-.0611C12.6352 6.1582 11.4986 5.1 10.088 5.1c-1.4145 0-2.5531 1.0644-2.56 2.7814l.0002.0046c.0004.0106.0008.0246.0008.041v.3012l-.1813.2406a.2004.2004 0 0 0-.0279.0544c-.0075.0224-.0147.0561-.0072.108.0449.3062.1311.4495.1702.5028a.2617.2617 0 0 0 .0412.0462l.0023.0018.2237.1282.122.2271c.4113.7663.6893 1.2219.942 1.6222.2558.4045.3924.9267.3637 1.4345-.0294.5197-.244 1.1259-.8122 1.5241l-.0124.0086-4.0367 2.6313a1.137 1.137 0 0 0-.5164.952v1.19h9.19v.4051c0 .5133.1488.9918.4056 1.3949Zm2.5943-5.1199v3.325h4.208v-3.325h-4.208Zm-1.8-.4c0-.7731.6269-1.4 1.4-1.4h5.008c.7709 0 1.4.6257 1.4 1.4v4.125c0 .7742-.6291 1.4-1.4 1.4h-5.008c-.7731 0-1.4-.627-1.4-1.4v-4.125Z"/>
  <path d="M15.3599 13.052c0-1.509 1.2229-2.732 2.732-2.732 1.509 0 2.732 1.223 2.732 2.732v1.622h-1.8v-1.622a.9318.9318 0 0 0-.932-.932.9317.9317 0 0 0-.932.932v1.622h-1.8v-1.622Zm1.9301 5.1431v-1.775h1.6v1.775h-1.6Z"/>
</g></svg>