<svg xmlns="http://www.w3.org/2000/svg" data-laicon-version="15.0" viewBox="0 0 20 20" fill="black"><g transform="translate(-2 -2)">
  <path d="M12 2.5c-5.24 0-9.5 4.26-9.5 9.5s4.26 9.5 9.5 9.5 9.5-4.26 9.5-9.5-4.26-9.5-9.5-9.5ZM8.02 18.58c1.01-.7 2.1201-1.46 2.4001-1.66.96-.67.9699-2 .4399-2.83-.23-.37-.4901-.8-.87-1.51l-.12-.22-.22-.1301s-.12-.0999-.18-.4799c0-.02 0-.06.02-.1l.18-.27v-.3c0-1.5.95-2.54 2.32-2.54 1.37 0 2.3201 1.05 2.3201 2.57v.3l.1799.24s.03.08.02.11c-.05.37-.17.4699-.17.4699l-.2201.1301-.1199.23c-.38.71-.6399 1.14-.8599 1.5-.54.84-.5301 2.17.4299 2.84.28.2 1.3899.97 2.3999 1.66-1.16.71-2.5199 1.1199-3.9799 1.1199-1.46 0-2.81-.4099-3.98-1.1199l.01-.01Zm9.4399-1.16c-1.11-.76-2.5299-1.74-2.8599-1.97-.04-.05-.04-.27.06-.41.23-.37.48-.78.83-1.43.31-.26.6801-.74.8001-1.59.06-.41-.0002-.81-.1902-1.17-.11-2.36-1.8399-4.11-4.1099-4.11-2.27 0-3.99 1.74-4.11 4.11-.18.36-.25.77-.19 1.17.13.85.5 1.33.8 1.59.35.65.6 1.07.84 1.44.08.13.08.35.05.4-.33.23-1.75 1.21-2.86 1.97-1.38-1.39-2.24-3.31-2.24-5.42 0-4.25 3.45-7.7 7.6999-7.7 4.25 0 7.7001 3.45 7.7001 7.7 0 2.11-.8601 4.03-2.2401 5.42h.02Z"/>
</g></svg>