<svg xmlns="http://www.w3.org/2000/svg" data-laicon-version="15.0" viewBox="0 0 20 20" fill="black"><g transform="translate(-2 -2)">
  <path d="M17.7 20.4H2v-2.9c0-.9.5-1.7 1.2-2.2l3.9-2.5s0-.2-.1-.4c-.2-.4-.5-.8-.9-1.4-.3-.3-.7-.7-.8-1.6-.1-.5 0-.9.2-1.2.2-2.5 2-4.2 4.3-4.2s4.1 1.8 4.2 4.1c.1.3.3.7.2 1.2-.1.9-.5 1.4-.8 1.6-.4.7-.6 1.1-.9 1.4-.1.1-.1.3-.1.4l3.9 2.5c.8.5 1.2 1.3 1.2 2.2v3h.2ZM3.8 18.6h12v-1.1c0-.3-.1-.5-.4-.7l-3.9-2.5c-1-.7-1-2-.5-2.9.2-.4.5-.8.9-1.5l.1-.2.2-.1s.1-.1.2-.5V9l-.2-.2v-.4c0-1.5-1-2.6-2.4-2.6S7.4 6.9 7.4 8.4v.3l-.2.2c0 .5.2.6.2.6l.2.1.1.2c.4.7.7 1.1.9 1.5.6.9.5 2.2-.4 2.9l-4 2.5c-.2.2-.4.4-.4.7v1.2ZM21.9998 5.6001h-6.7v1.8h6.7v-1.8Zm0 3.0999h-6.7v1.8h6.7V8.7Z"/>
  <path d="M21.9998 11.7h-6.7v1.8h6.7v-1.8Z"/>
</g></svg>