<svg xmlns="http://www.w3.org/2000/svg" data-laicon-version="15.0" viewBox="0 0 20 20" fill="black"><g transform="translate(-2 -2)">
  <path d="M2.21 20.9h15.32v-2.98c0-.96-.46-1.85-1.25-2.39l-.83-.57c-1.17-.8-2.56-1.76-2.87-1.98-.06-.03-.0701-.31.0399-.48.24-.37.51-.81.89-1.51.44-.36.74-.93.84-1.65.07-.51-.0499-.92-.1999-1.2-.11-2.46-1.9201-4.29-4.28-4.29-2.36 0-4.16 1.81-4.28 4.28-.15.29-.27.7-.2 1.21.13.89.52 1.39.84 1.65.38.69.65 1.13.89 1.51.11.17.1.44.05.48-.2454.1735-1.153.7981-2.106 1.4539-.6397.4403-1.3.8946-1.794 1.2361-.66.46-1.06 1.22-1.06 2.03v3.2Zm13.5299-1.8h-11.71v-1.4c0-.22.1-.42.33-.58.3827-.2637.876-.6028 1.3828-.9513 1.0693-.7352 2.199-1.512 2.4772-1.7087.98-.69.99-2.05.44-2.92-.24-.38-.52-.83-.92-1.58l-.12-.23-.22-.13s-.14-.1-.2-.52c-.01-.06.03-.15.03-.15l.18-.27v-.3c0-1.59 1.02-2.71 2.48-2.71 1.4601 0 2.48 1.12 2.48 2.64v.41l.18.24c.03.02.0401.07.0301.14-.05.35-.2101.53-.2101.53l-.2199.13-.12.22c-.4.74-.6701 1.19-.9201 1.58-.55.87-.54 2.23.44 2.92.1761.1249.7039.4887 1.3415.9281a894.87 894.87 0 0 1 1.5385 1.0619l.83.57c.3.21.48.55.48.91v1.17Z"/>
  <path d="m19.8899 15.09.65.45-.02.02c.79.54 1.26 1.43 1.26 2.39v2.97h-2.89v-1.8h1.09v-1.17c0-.37-.18-.71-.48-.91l-.65-.45c-1.21-.83-2.74-1.89-3.07-2.12-.98-.69-.99-2.05-.44-2.92.25-.39.52-.84.92-1.58l.12-.22.22-.13c.05-.03.16-.18.21-.53.01-.07-.03-.14-.03-.14l-.18-.24v-.3c0-1.28-.64-2.24-1.62-2.59-.32-.74-.79-1.39-1.37-1.91a7.7573 7.7573 0 0 0 .1299-.0168c.1238-.0167.2464-.0332.3801-.0332 2.37 0 4.17 1.82 4.28 4.28.15.28.27.69.2 1.2-.13.89-.52 1.38-.84 1.65-.38.71-.65 1.15-.88 1.51-.11.17-.1.44-.05.48.1518.1058.5577.3853 1.0687.737.5994.4127 1.3434.9249 1.9913 1.373Z"/>
</g></svg>