<svg xmlns="http://www.w3.org/2000/svg" data-laicon-version="15.0" viewBox="0 0 20 20" fill="black"><g transform="translate(-2 -2)">
  <path d="M20.5601 4.43c0-.41-.2801-.76-.6701-.87-1.11-.29-4.09-.96-7.88-.96-4.25 0-7.34.84-7.92 1.01-.38.11-.65.46-.65.86v8.8199c0 4.09 6.24 7.5 8.15 8.45.02.01.0401.02.0701.03.05.02.1199.04.1799.05.05.01.11.02.17.02.09 0 .1901-.01.2801-.04a.471.471 0 0 0 .1499-.06c1.92-.95 8.16-4.35 8.16-8.45l-.03-8.85-.0099-.01ZM12.01 19.9298c-1.4-.72-2.79-1.6-3.94-2.53 1.01-.7 2.2101-1.52 2.4901-1.72.93-.65.9399-1.93.4199-2.74-.22-.35-.4599-.75-.8199-1.41l-.12-.22-.2101-.13s-.11-.14-.15-.46l.19-.27v-.31c0-1.38.87-2.34 2.12-2.34s2.13.96 2.13 2.36v.36l.1901.25c-.04.27-.12.39-.15.41l-.2101.13-.11.21c-.36.66-.6 1.06-.82 1.41-.51.81-.51 2.09.42 2.75.29.2 1.49 1.03 2.5 1.72-1.15.93-2.54 1.81-3.94 2.53h.01Zm5.3001-3.78c-1.06-.73-2.5001-1.72-2.8001-1.92-.03-.05-.0199-.23.0501-.33.22-.34.4599-.73.7899-1.35.41-.34.67-.86.76-1.51.07-.4 0-.8-.17-1.14-.11-2.24-1.76-3.9-3.92-3.9S8.23 7.65 8.11 9.9c-.18.35-.24.74-.18 1.13.09.66.36 1.18.76 1.53.33.61.57 1 .79 1.35.06.1.07.27.06.31-.31.22-1.75 1.22-2.81 1.94-.91-.97-1.48-1.96-1.48-2.86V5.17c1.16-.28 3.62-.77 6.77-.77 2.98 0 5.42.44 6.75.74l.0301 8.15c0 .9-.5701 1.89-1.4801 2.86h-.0099Z"/>
</g></svg>