<svg xmlns="http://www.w3.org/2000/svg" data-laicon-version="17.1" viewBox="0 0 20 20" fill="black"><g transform="translate(-2 -2)">
  <path d="M15.44 14.284 13.62 13.1c-.02-.017-.063-.066-.072-.208a.805.805 0 0 1 .103-.438l.004-.007c.263-.425.556-.902.967-1.662.115-.093.248-.223.378-.4.238-.326.436-.772.523-1.37a2.076 2.076 0 0 0-.217-1.293c-.108-2.665-2.04-4.621-4.603-4.621-2.56 0-4.494 1.946-4.602 4.621-.16.302-.299.745-.217 1.293.087.598.285 1.045.53 1.372.13.176.266.304.385.398.407.753.7 1.235.967 1.659.06.096.112.27.102.438-.008.143-.051.192-.072.208l-4.372 2.848-.006.004A2.93 2.93 0 0 0 2.1 18.377v3.23h10.4v-1.8H3.9v-1.43c0-.365.189-.72.509-.933l4.4-2.866.012-.009c.59-.411.812-1.042.844-1.583a2.6 2.6 0 0 0-.376-1.503A26.057 26.057 0 0 1 8.28 9.74l-.128-.24-.239-.128-.001-.001-.005-.004a.316.316 0 0 1-.052-.057c-.047-.063-.142-.222-.19-.555l-.002-.007a.298.298 0 0 1 .03-.188l.01-.017.192-.244v-.34c0-1.884 1.245-3.058 2.807-3.058 1.561 0 2.808 1.182 2.808 3.058v.34l.192.244.01.017a.298.298 0 0 1 .03.188l-.002.007c-.048.334-.144.498-.194.567a.368.368 0 0 1-.07.074l-.222.128-.12.225a28.814 28.814 0 0 1-1.01 1.75 2.598 2.598 0 0 0-.374 1.498c.032.541.255 1.171.844 1.583l.012.008 1.786 1.163 1.047-1.466Zm5.36.228a2.5 2.5 0 0 0-4.179 2.427l-2.757 2.757a.55.55 0 0 0-.161.388l-.002.973c0 .304.245.551.549.552l.978.001a.55.55 0 0 0 .39-.161l.375-.375a.25.25 0 0 0 .073-.177v-.56h.56a.25.25 0 0 0 .176-.072l.252-.252a.25.25 0 0 0 .073-.177v-.559h.559a.25.25 0 0 0 .177-.073l.512-.512a2.499 2.499 0 0 0 2.426-4.18Zm-2.417 1.768a.65.65 0 1 1 1.3 0 .65.65 0 0 1-1.3 0Z"/>
</g></svg>