<svg xmlns="http://www.w3.org/2000/svg" data-laicon-version="15.0" viewBox="0 0 20 20" fill="black"><g transform="translate(-2 -2)">
  <path d="m13.2259 15.238-1.6418-1.0693-.0119-.0084c-.5618-.3923-.7722-.9918-.8021-1.5011-.0291-.4971.1019-1.0105.3521-1.4098.2492-.404.5177-.8405.9152-1.5847l.1201-.2249.2195-.128.0016-.0014a.2538.2538 0 0 0 .0391-.044c.037-.0506.1195-.1873.1615-.4787l.001-.0069c.0068-.0445.0007-.0731-.0056-.0918-.0066-.0199-.0148-.032-.0147-.032l-.1912-.2432v-.337C12.3687 6.414 11.269 5.38 9.9 5.38c-1.3704 0-2.4688 1.026-2.4688 2.6962v.3376L7.24 8.657l-.0004.0007c-.0017.0028-.0085.014-.0142.0312-.0063.0187-.0124.0473-.0056.0918l.001.0069c.042.2912.1238.4223.1573.4671.015.02.0264.0311.0321.036l.2332.1255.128.2397c.4002.7493.6692 1.1944.9124 1.5803.2518.3999.384.9154.3548 1.4142-.0298.5092-.2403 1.1087-.802 1.5011l-.012.0083-3.9992 2.6048c-.268.1782-.4254.4757-.4254.779v1.2175h7.6908v1.8H2v-3.0175c0-.9208.4718-1.7776 1.235-2.282l.005-.0034 3.9692-2.5851a.0554.0554 0 0 0 .008-.013c.0083-.0174.021-.0546.0245-.1151a.668.668 0 0 0-.0203-.1983c-.0175-.0696-.0419-.1214-.0605-.151-.2418-.3836-.506-.8202-.8728-1.4975a1.9945 1.9945 0 0 1-.3521-.3663c-.2308-.309-.4156-.7281-.4963-1.284-.0765-.5083.0484-.922.1967-1.2086C5.7443 5.3777 7.5308 3.58 9.9 3.58c2.3703 0 4.1553 1.8069 4.2635 4.2593.1483.2867.2733.7005.1968 1.209-.0807.5555-.2648.9733-.4899 1.281a2.0408 2.0408 0 0 1-.3448.3684c-.371.6846-.6364 1.1157-.8734 1.4999l-.0043.0069c-.0187.0296-.043.0814-.0606.151a.6672.6672 0 0 0-.0202.1984c.0035.0605.0161.0976.0245.115a.0546.0546 0 0 0 .008.013l1.9271 1.2552-1.3008 1.3009Z"/>
  <path d="M12.7407 20.4608v-2.97l6.28-6.28 2.9698 2.9698-6.28 6.2801-2.9698.0001Zm1.6-1.6001h.7071l4.68-4.6801-.7071-.7071-4.68 4.6801v.7071Z"/>
</g></svg>