<svg xmlns="http://www.w3.org/2000/svg" data-laicon-version="17.1" viewBox="0 0 20 20" fill="black"><g transform="translate(-2 -2)">
  <path d="m4.53 17.03 1.05-.72c1.12-.77 2.37-1.63 2.67-1.84.98-.69.99-2.05.44-2.92a23.4 23.4 0 0 1-.92-1.58l-.17-.23-.17-.12s-.15-.18-.2-.53c-.01-.07 0-.12.03-.14l.18-.27v-.3c0-1.07.47-1.92 1.22-2.37.32-.82.78-1.55 1.38-2.14-.02 0-.04-.003-.06-.005a.405.405 0 0 0-.06-.005c-2.36 0-4.16 1.81-4.28 4.28-.15.28-.27.69-.2 1.21.13.89.52 1.39.84 1.65.37.68.65 1.13.89 1.51.11.17.1.45.04.48l-.226.156A751.62 751.62 0 0 0 4.56 14.82l-1.05.72c-.79.54-1.26 1.43-1.26 2.39v2.97h2.56v-1.8h-.76v-1.17c0-.36.18-.7.48-.91v.01Z"/>
  <path d="M11.6 8.67v-.3c0-1.6 1.02-2.71 2.48-2.71s2.48 1.12 2.48 2.74v.3l.18.24s.04.09.03.15c-.06.42-.2.53-.2.53l-.22.13-.12.23c-.42.77-.69 1.22-.92 1.58-.55.87-.54 2.23.44 2.92.11.08.35.25.67.46l1.14-1.4c-.37-.26-.66-.46-.78-.54-.05-.04-.06-.31.04-.48.23-.36.5-.8.89-1.51.32-.27.71-.76.84-1.66.07-.51-.05-.92-.2-1.2-.1-2.46-1.91-4.29-4.28-4.29S9.91 5.67 9.8 8.14c-.15.28-.28.69-.2 1.21.1.71.4 1.29.84 1.65.38.7.65 1.14.89 1.51.11.17.1.45.04.49l-.27.187c-.492.34-1.446 1-2.33 1.603l-1.1.76c-.79.54-1.26 1.43-1.26 2.39v2.97h7.08v-1.8H8.21v-1.17c0-.36.18-.7.48-.91l1.1-.76c1.11-.76 2.33-1.6 2.62-1.81.98-.69.99-2.05.44-2.92-.24-.37-.51-.82-.92-1.58l-.16-.23-.18-.12s-.15-.18-.2-.53c-.01-.07.01-.12.03-.14l.18-.27Zm6.46 5.87c.85-.86 2.25-.85 3.1 0 .86.85.86 2.24 0 3.1-.56.56-1.37.77-2.14.56l-.46.46c-.04.04-.09.06-.14.06h-.52v.52c0 .05-.06.14-.06.14l-.22.22c-.04.04-.09.06-.14.06h-.52v.52c0 .05-.06.14-.06.14l-.33.33a.47.47 0 0 1-.33.14h-.87a.47.47 0 0 1-.33-.14.507.507 0 0 1-.13-.33v-.86c.01-.13.05-.24.14-.33l2.45-2.45a2.16 2.16 0 0 1 .56-2.14Zm.95 1.55c0 .33.27.6.6.6.33 0 .6-.27.6-.6 0-.33-.27-.6-.6-.6-.33 0-.6.27-.6.6Z"/>
</g></svg>