<svg xmlns="http://www.w3.org/2000/svg" data-laicon-version="15.0" viewBox="0 0 20 20" fill="black"><g transform="translate(-2 -2)">
  <path d="M1.8501 17.91c0-.99.51-1.91 1.36-2.45h.01l4.39-2.77c.09-.06.07-.39-.05-.57-.26-.4-.56-.87-.98-1.62-.34-.28-.77-.8-.91-1.75-.08-.54.06-.97.22-1.27.12-2.61 2.06-4.52 4.62-4.52s4.51 1.93 4.62 4.53c.16.29.3.73.22 1.27-.14.95-.56 1.47-.91 1.74-.42.75-.72 1.22-.98 1.62-.12.18-.14.51-.03.58l2.28 1.44v.46h-2.64l-.63-.4c-1.04-.71-1.09-2.15-.49-3.07.26-.4.57-.89 1.02-1.7l.12-.22.22-.12c.01 0 .19-.1.26-.6l.0002-.0114c.0011-.036.0033-.1073-.0502-.1786l-.19-.24v-.31c0-1.77-1.16-2.99-2.83-2.99-1.67 0-2.83 1.22-2.83 2.96v.31l-.19.27c-.0595.0679-.054.1358-.051.1731a.2306.2306 0 0 1 .001.0169c.07.41.21.57.26.6l.22.12.12.22c.45.82.76 1.3 1.02 1.7.6.92.56 2.37-.46 3.06l-4.42 2.79c-.32.21-.52.56-.52.93v1.34H15.7v1.8H1.85v-3.14Z"/>
  <path d="M18.8002 12.5601v3.34h3.34v1.8h-3.34v3.34h-1.8v-3.34h-3.34v-1.8h3.34v-3.34h1.8Z"/>
</g></svg>