<svg xmlns="http://www.w3.org/2000/svg" data-laicon-version="15.0" viewBox="0 0 20 20" fill="black"><g transform="translate(-2 -2)">
  <path d="M13.4901 9.38c.01 0 .06-.06.06-.06V9.3c.05-.06.15-.23.2-.57.01-.06 0-.11-.01-.14-.01-.01-.02-.03-.02-.04l-.01-.02-.19-.24v-.35c0-1.88-1.24-3.06-2.81-3.06s-2.81 1.17-2.81 3.07v.33l-.19.24c-.01 0-.01.02-.01.02-.01.01-.02.02-.02.04v.15c.05.34.14.5.19.56.02.04.05.06.05.06l.24.13.13.24c.44.83.74 1.32 1.01 1.75.27.42.41.97.38 1.5-.03.54-.25 1.17-.84 1.58l-.01.02h-.01l-4.39 2.86c-.32.21-.51.57-.51.93v1.43h7.7l.37.36 1.44 1.44h-11.31v-3.23c0-.98.5-1.9 1.32-2.44l4.37-2.85c.02-.02.07-.07.07-.21.01-.17-.04-.34-.1-.44-.27-.42-.56-.91-.97-1.66-.12-.1-.26-.22-.39-.4-.24-.32-.44-.77-.53-1.37-.08-.54.06-.99.22-1.29.11-2.67 2.04-4.62 4.6-4.62 2.56 0 4.49 1.96 4.6 4.62.16.3.3.74.22 1.29-.08.6-.28 1.04-.52 1.37-.13.18-.27.31-.38.4-.3534.655-.6251 1.1021-.8599 1.4884a95.3777 95.3777 0 0 0-.1101.1816c-.06.1-.1.27-.1.44.01.14.07.21.07.21l.37.24-1.3 1.3-.07-.04-.01-.02h-.01c-.59-.41-.82-1.04-.85-1.58-.04-.53.1-1.08.37-1.5.0415-.0693.0838-.1392.1271-.211.2385-.3948.5106-.8452.8829-1.539l.12-.22.22-.13h.01Z"/>
  <path d="m20.1703 14.09 1.27 1.27-2.4 2.4 2.4 2.41-1.27 1.27-2.41-2.4-2.4 2.4-1.27-1.27 2.4-2.41-2.4-2.4 1.27-1.27 2.4 2.4 2.41-2.4Z"/>
</g></svg>