<svg xmlns="http://www.w3.org/2000/svg" data-laicon-version="18.8" viewBox="0 0 20 20" fill="black"><g transform="translate(-2 -2)">
  <path d="M10.438 2.887c2.464 0 4.325 1.884 4.427 4.452.149.288.282.709.205 1.234-.084.577-.274 1.01-.507 1.327a2.067 2.067 0 0 1-.362.382c-.39.717-.67 1.177-.924 1.58l-.002.003a.718.718 0 0 0-.092.389c.007.123.044.159.055.167l.488.317a2.509 2.509 0 0 0-1.308 1.297l-.187-.12-.012-.009-.013-.008c-.573-.403-.79-1.016-.82-1.543a2.51 2.51 0 0 1 .37-1.455c.257-.409.542-.874.962-1.655l.12-.225.222-.128.006-.005a.286.286 0 0 0 .046-.051c.042-.058.131-.208.177-.523a.252.252 0 0 0-.008-.118.222.222 0 0 0-.031-.06l-.182-.241v-.301l.002-.041c-.004-1.765-1.175-2.863-2.633-2.864-1.459 0-2.631 1.103-2.631 2.875v.33l-.181.242a.224.224 0 0 0-.031.06.252.252 0 0 0-.008.118l.04.208a.926.926 0 0 0 .137.315.3.3 0 0 0 .05.054l.224.129.121.226c.42.782.704 1.248.962 1.656.26.41.398.94.37 1.454-.03.527-.248 1.14-.822 1.543l-.012.008-.012.008-4.109 2.678a1.18 1.18 0 0 0-.535.987v1.235h8.21v1.247c0 .19.023.375.063.552H2.2V17.58a2.98 2.98 0 0 1 1.354-2.495l4.082-2.662c.007-.005.05-.034.057-.168a.721.721 0 0 0-.092-.39H7.6a26.32 26.32 0 0 1-.925-1.58 2.065 2.065 0 0 1-.362-.383c-.233-.317-.423-.75-.507-1.327a2.03 2.03 0 0 1 .205-1.237c.103-2.567 1.963-4.45 4.428-4.45Zm4.427 4.773v.009-.004l.001-.015v.01Z"/>
  <path d="m20.41 13.285-.648.647h1.192a1.1 1.1 0 0 1 1.1 1.1v5.029a1.1 1.1 0 0 1-1.1 1.1h-6.24a1.1 1.1 0 0 1-1.1-1.1v-5.03a1.1 1.1 0 0 1 1.1-1.099h1.188l-.647-.647 1.13-1.131 1.447 1.446 1.446-1.446 1.131 1.13ZM15.213 18.1v1.461h1.818v-1.46h-1.818Zm3.418 0v1.461h1.822v-1.46h-1.822Zm-3.418-1.6h1.818v-.968h-1.818v.968Zm3.418 0h1.822v-.968h-1.822v.968Z"/>
</g></svg>