<svg xmlns="http://www.w3.org/2000/svg" data-laicon-version="15.0" viewBox="0 0 20 20" fill="black"><g transform="translate(-2 -2)">
  <path d="M18.1 3H5.9C4.3 3 3 4.3 3 5.9v12.2C3 19.7 4.3 21 5.9 21h12.2c1.6 0 2.9-1.3 2.9-2.9V5.9C21 4.3 19.7 3 18.1 3Zm-7.07 10.48c-.24-.37-.48-.77-.79-1.36l-.09-.22-.24-.13s-.09-.09-.12-.44l.17-.26v-.29c0-1.32.84-2.25 2.05-2.25s2.05.92 2.05 2.27v.34l.18.24c-.04.27-.12.37-.11.37l-.23.12-.13.24c-.32.59-.5501.99-.8001 1.37-.51.81-.4899 2.07.4201 2.7.33.23 2.06 1.43 3.14 2.17.28.19.44.5.45.84H7.01c.01-.34.17-.65.45-.84 1.07-.74 2.8099-1.93 3.1299-2.16.92-.63.9401-1.9.4201-2.71h.02Zm8.1699 4.62c0 .35-.1799.65-.4299.85-.09-.84-.51-1.6-1.21-2.08-1.07-.73-2.7901-1.93-3.1001-2.13-.02-.05.0001-.2.0401-.28.24-.37.48-.77.77-1.31.3-.25.64-.7.76-1.51.05-.38 0-.75-.17-1.09-.1-2.2-1.72-3.82-3.84-3.82s-3.73 1.62-3.84 3.82c-.16.33-.22.71-.17 1.1.12.81.46 1.26.76 1.5.29.54.53.94.76 1.29.05.09.07.24.07.27-.33.23-2.06 1.42-3.12 2.16-.7.48-1.13 1.25-1.21 2.09-.27-.2-.45-.51-.45-.87V5.9c0-.61.49-1.1 1.1-1.1h12.2c.61 0 1.0999.49 1.0999 1.1v12.2h-.02Z"/>
</g></svg>