<svg xmlns="http://www.w3.org/2000/svg" data-laicon-version="15.0" viewBox="0 0 20 20" fill="black"><g transform="translate(-2 -2)">
  <path d="M20.9001 21.791h-17.8v-3.325c0-1.012.506-1.946 1.354-2.499l4.563-2.974c.121-.086.09-.494-.042-.703-.271-.428-.581-.935-1.016-1.735-.351-.283-.783-.824-.929-1.819-.083-.568.063-1.019.225-1.324.12-2.758 2.12-4.783 4.745-4.783 2.637 0 4.643 2.043 4.747 4.788.162.305.307.754.224 1.319-.146.996-.578 1.537-.929 1.819-.441.812-.75 1.314-1.018 1.736-.132.208-.162.616-.015.719l4.535 2.956c.849.553 1.355 1.486 1.355 2.499v3.326h.001Zm-16-1.801h14.2v-1.524c0-.401-.2-.771-.537-.991l-4.562-2.974c-1.081-.759-1.092-2.233-.497-3.173.271-.425.585-.938 1.053-1.811l.121-.225.22-.128c.072-.042.227-.24.292-.689.019-.124-.021-.207-.058-.255l-.183-.24v-.303c.002-1.926-1.211-3.248-2.949-3.248-1.738 0-2.952 1.322-2.952 3.214v.3l-.178.275c-.037.049-.078.134-.059.258.066.449.22.647.292.689l.22.128.121.225c.462.86.779 1.379 1.052 1.811.595.941.585 2.415-.47 3.156l-4.589 2.991c-.336.22-.537.59-.537.991v1.523Z"/>
</g></svg>