<svg xmlns="http://www.w3.org/2000/svg" data-laicon-version="15.0" viewBox="0 0 20 20" fill="black"><g transform="translate(-2 -2)">
  <path d="M3.19 7.8499c0-2.27 1.85-4.12 4.12-4.12s4.1201 1.85 4.1201 4.12c0 1.97-1.3801 3.61-3.2201 4.02v8.51h-1.8v-8.51c-1.84-.42-3.22-2.06-3.22-4.02Zm1.8 0c0 1.28 1.04 2.32 2.32 2.32 1.28 0 2.32-1.04 2.32-2.32 0-1.28-1.04-2.32-2.32-2.32-1.28 0-2.32 1.04-2.32 2.32ZM19.0098 7.8499v-3.22h1.8001v3.22c0 1.97-1.3801 3.61-3.2201 4.02v8.51h-1.7999v-8.51c-1.84-.42-3.2201-2.06-3.2201-4.02v-3.22h1.8v3.22c0 .96.5901 1.79 1.4201 2.14v-5.36h1.7999v5.36c.83-.35 1.42-1.18 1.42-2.14Z"/>
</g></svg>