<svg xmlns="http://www.w3.org/2000/svg" data-laicon-version="15.0" viewBox="0 0 20 20" fill="black"><g transform="translate(-2 -2)">
  <path d="M12.8199 7.28c0-2.59-1.9098-4.7-4.2598-4.7-2.35 0-4.27 2.11-4.27 4.7 0 2.25 1.45 4.1299 3.37 4.5899v9.18H9.46v-9.18c1.92-.46 3.3599-2.34 3.3599-4.59Zm-4.2598 2.8999c-1.36 0-2.4701-1.3-2.4701-2.9 0-1.6 1.11-2.9 2.47-2.9s2.46 1.3 2.46 2.9c0 1.6-1.1 2.9-2.46 2.9ZM13.9399 3.4799l-.4799 17.57h1.8l.48-17.57h-1.8001Zm3.25 17.57-.4799-17.57h1.8l.48 17.57h-1.8001Z"/>
</g></svg>