<svg xmlns="http://www.w3.org/2000/svg" data-laicon-version="17.5" viewBox="0 0 20 20" fill="black"><g transform="translate(-2 -2)">
  <path d="M17.25 4.51s2.11 3.1 2.11 7.49c0 4.39-2.09 7.46-2.11 7.48l-.36.52h2.16c.66-1.14 2.11-4.07 2.11-8 0-3.93-1.45-6.86-2.11-8H16.9l.36.51h-.01Z"/>
  <path d="M16.9 9.4V7.6H16c-1.23 0-2.39.6-3.1 1.6l-.7.98-.35-.82A2.895 2.895 0 0 0 9.18 7.6H8.1v1.8h1.08c.44 0 .84.26 1.01.67l.78 1.82-.23.32-1.11 1.55c-.38.53-.99.84-1.64.84h-.9v1.8h.9c1.23 0 2.39-.6 3.1-1.6l.7-.98.35.82c.46 1.07 1.5 1.76 2.67 1.76h1.08v-1.8h-1.08c-.44 0-.84-.26-1.01-.67l-.78-1.82 1.33-1.87c.38-.53.99-.84 1.64-.84h.91Z"/>
  <path d="M6.75 19.49S4.64 16.39 4.64 12c0-4.39 2.09-7.46 2.11-7.49L7.11 4H4.95c-.66 1.14-2.11 4.07-2.11 8 0 3.93 1.45 6.86 2.11 8H7.1l-.36-.51h.01Z"/>
</g></svg>