<svg xmlns="http://www.w3.org/2000/svg" data-laicon-version="15.0" viewBox="0 0 20 20" fill="black"><g transform="translate(-2 -2)">
  <path d="M20.4547 6.7645c.668-.3847 1.5017.0976 1.5017.8681v8.7347c0 .7704-.8339 1.2532-1.5021.8679 0 0 .0001 0 0 0l-4.8039-2.7696.8991-1.5594 3.6069 2.0795V9.0142l-3.6069 2.0795-.8991-1.5594 4.8043-2.7698Z"/>
  <path d="M2 6.5c0-1.0493.8507-1.9 1.9-1.9h11.5c1.0493 0 1.9.8507 1.9 1.9v11c0 1.0493-.8507 1.9-1.9 1.9H3.9c-1.0493 0-1.9-.8507-1.9-1.9v-11Zm1.9-.1a.1.1 0 0 0-.1.1v11a.1.1 0 0 0 .1.1h11.5a.1.1 0 0 0 .1-.1v-11a.1.1 0 0 0-.1-.1H3.9Z"/>
</g></svg>