<svg xmlns="http://www.w3.org/2000/svg" data-laicon-version="15.0" viewBox="0 0 20 20" fill="black"><g transform="translate(-2 -2)">
  <path d="M8.6 9h1.8v2.1h2.1001v1.8H10.4V15H8.6v-2.1H6.5v-1.8h2.1V9Z"/>
  <path d="m17.3 8.18 3.4099-1.36c.62-.25 1.2901.2 1.2901.87v8.62c0 .66-.6701 1.12-1.2901.87L17.3 15.82v1.68c0 1.05-.85 1.9-1.9 1.9H3.9c-1.05 0-1.9-.85-1.9-1.9v-11c0-1.05.85-1.9 1.9-1.9h11.5c1.05 0 1.9.85 1.9 1.9v1.68ZM3.9 17.6h11.5c.06 0 .1-.04.1-.1v-4.33l4.6999 1.87V8.96L15.5 10.83V6.5c0-.06-.04-.1-.1-.1H3.9c-.06 0-.1.04-.1.1v11c0 .06.04.1.1.1Z"/>
</g></svg>