<svg xmlns="http://www.w3.org/2000/svg" data-laicon-version="15.0" viewBox="0 0 20 20" fill="black"><g transform="translate(-2 -2)">
  <path d="M10.1442 8.8965a.9.9 0 0 1 .9018.0032l3.9794 2.3223a.9.9 0 0 1-.0033 1.5565l-3.9794 2.2995a.9.9 0 0 1-1.3503-.7792V9.677a.9.9 0 0 1 .4518-.7805Zm1.3482 2.3477v1.4951l1.2872-.7439-1.2872-.7512Z"/>
  <path d="M5.0002 5v14h14V5h-14Zm-1.8-.4c0-.773.6266-1.4 1.4-1.4h14.8c.7733 0 1.4.627 1.4 1.4v14.8c0 .7731-.6269 1.4-1.4 1.4h-14.8c-.7734 0-1.4-.627-1.4-1.4V4.6Z"/>
</g></svg>