<svg xmlns="http://www.w3.org/2000/svg" data-laicon-version="15.0" viewBox="0 0 20 20" fill="black"><g transform="translate(-2 -2)">
  <path d="m15.6313 13.8558 5.1088-4.9867 1.2573 1.2881-5.1088 4.9867-1.2573-1.2881Z"/>
  <path d="m20.7401 15.1437-5.1088-4.9866 1.2573-1.2881 5.1088 4.9866-1.2573 1.2881ZM14.2005 2.8253a.9.9 0 0 1 .5395.8247v16.7a.9001.9001 0 0 1-1.5113.6605L8.2474 16.4H2.9a.9.9 0 0 1-.9-.9v-7a.9.9 0 0 1 .9-.9h5.3474l4.9813-4.6105a.9.9 0 0 1 .9718-.1642ZM12.94 5.7093 9.2114 9.1605A.9.9 0 0 1 8.6 9.4H3.8v5.2h4.8a.9.9 0 0 1 .6114.2395l3.7286 3.4511V5.7093Z"/>
</g></svg>