<svg xmlns="http://www.w3.org/2000/svg" data-laicon-version="15.0" viewBox="0 0 20 20" fill="black"><g transform="translate(-2 -2)">
  <path d="M14.2 2.82a.8902.8902 0 0 0-.97.17L8.25 7.6H2.9c-.5 0-.9.4-.9.9v7c0 .5.4.9.9.9h5.35l4.98 4.61c.26.24.64.31.97.16.33-.14.54-.47.54-.83V3.64c0-.36-.21-.68-.54-.82Zm-1.26 15.47-3.73-3.45a.917.917 0 0 0-.61-.24H3.8V9.4h4.8c.23 0 .45-.09.61-.24l3.73-3.45v12.58Zm4.77-9.41a4.4229 4.4229 0 0 0-.76-.61l-.96 1.52c.16.1.31.22.45.36a2.6128 2.6128 0 0 1 0 3.68c-.14.14-.29.26-.45.36l.96 1.52c.27-.17.53-.38.76-.61 1.71-1.72 1.71-4.51 0-6.22Z"/>
  <path d="M18.5498 5.74c.46.29.89.63 1.28 1.02v.01a7.406 7.406 0 0 1 0 10.47c-.39.38-.82.73-1.28 1.02l-.96-1.52a5.6128 5.6128 0 0 0 0-9.48l.96-1.52Z"/>
</g></svg>