<svg xmlns="http://www.w3.org/2000/svg" data-laicon-version="15.0" viewBox="0 0 20 20" fill="black"><g transform="translate(-2 -2)">
  <path d="M14.2 2.825a.8998.8998 0 0 1 .54.825v9.532l3.99 3.976-1.271 1.275L4.364 5.386l1.27-1.276 3.074 3.063 4.52-4.184a.9.9 0 0 1 .972-.164Zm-4.216 5.62 2.956 2.944v-5.68L9.984 8.444v.001Zm2.956 7.278 1.8 1.794v2.833a.9003.9003 0 0 1-1.0506.8874.9.9 0 0 1-.4614-.2274L8.247 16.4H2.9a.9.9 0 0 1-.9-.9v-7a.9.9 0 0 1 .9-.9h1.887l1.806 1.8H3.8v5.2h4.8a.9003.9003 0 0 1 .61.24l3.73 3.45v-2.567Z"/>
</g></svg>