<svg xmlns="http://www.w3.org/2000/svg" data-laicon-version="15.0" viewBox="0 0 20 20" fill="black"><g transform="translate(-2 -2)">
  <path d="M4.6118 8.2595c0-1.71 1.385-3.095 3.095-3.095h8.633c1.709 0 3.094 1.385 3.094 3.094v7.483c0 1.709-1.385 3.094-3.094 3.094h-8.634c-1.709 0-3.094-1.385-3.094-3.094v-7.482Zm3.095-1.295c-.716 0-1.295.579-1.295 1.295v7.482c0 .7149.579 1.294 1.294 1.294h8.634c.7149 0 1.294-.5791 1.294-1.294v-7.483c0-.715-.5791-1.294-1.294-1.294h-8.633Z"/>
  <path d="M8.0174 2.1513A.901.901 0 0 1 8.5172 2h7.009a.9.9 0 0 1 .8675.6605l.878 3.18-1.7351.479L14.841 3.8H9.2022l-.6933 2.5188-1.7355-.4777.873-3.1715a.9015.9015 0 0 1 .371-.5183Zm-.3664 19.188-.877-3.18 1.7351-.4786L9.204 20.2h5.6396l.6933-2.5188 1.7354.4776-.875 3.179a.8991.8991 0 0 1-.2312.3975l-.001.001a.9003.9003 0 0 1-.6365.2637h-7.01a.9.9 0 0 1-.8676-.6607Zm3.7952-9.1206 2.4234-2.4226 1.2726 1.273-3.6966 3.6953-2.5823-2.5836 1.2731-1.2724 1.3098 1.3103Z"/>
</g></svg>