<svg xmlns="http://www.w3.org/2000/svg" data-laicon-version="15.0" viewBox="0 0 20 20" fill="black"><g transform="translate(-2 -2)">
  <path d="M10.6498 7.35c1.48 0 2.68-1.2 2.68-2.68 0-1.48-1.2-2.68-2.68-2.68-1.48 0-2.68 1.2-2.68 2.68 0 1.48 1.2 2.68 2.68 2.68Zm0-3.55c.48 0 .88.39.88.88s-.39.88-.88.88-.88-.39-.88-.88.39-.88.88-.88ZM20.2998 18.6699l-3.61-5.46h-5.13v-1.2h2.88c.5 0 .9-.4.9-.9s-.4-.9-.9-.9h-2.88v-1.61c0-.5-.4-.9-.9-.9s-.9.4-.9.9v6.41h5.96l3.08 4.65c.27.41.83.53 1.25.25.41-.27.53-.83.25-1.25v.01Z"/>
  <path d="M5.4397 14.7199c0 2.87 2.33 5.2 5.21 5.2v-.01c2.11 0 3.91-1.25 4.73-3.05l1.12 1.7c-1.25 1.9-3.4 3.16-5.85 3.16-3.87 0-7.01-3.13-7.01-7 0-3.1 2.02-5.73 4.81-6.65v1.95c-1.78.83-3.01 2.61-3.01 4.7Z"/>
</g></svg>