<svg xmlns="http://www.w3.org/2000/svg" data-laicon-version="15.0" viewBox="0 0 20 20" fill="black"><g transform="translate(-2 -2)">
  <path d="M12 4.1c3.68 0 7.14 1.47 9.74 4.14h.01c.34.35.34.92-.02 1.27-.18.17-.39.25-.63.25s-.47-.09-.65-.27c-2.26-2.32-5.25-3.6-8.45-3.6-3.2 0-6.2 1.28-8.46 3.6-.35.36-.91.37-1.27.02-.36-.34-.37-.91-.02-1.27C4.86 5.57 8.32 4.1 12 4.1Zm-1.2705 13.8799c0-.71.57-1.2799 1.27-1.2799.7 0 1.27.5799 1.27 1.2799 0 .7-.57 1.27-1.27 1.27-.7 0-1.27-.56-1.27-1.27Z"/>
  <path d="M11.9997 8.4c-2.54 0-4.92 1.03-6.71 2.89-.34.36-.33.93.03 1.27.36.34.93.33 1.27-.03 1.45-1.51 3.37-2.34 5.41-2.34s3.96.83 5.41 2.34c.18.18.41.28.65.28.22 0 .45-.08.62-.25.36-.34.37-.91.03-1.27-1.79-1.86-4.17-2.89-6.71-2.89Z"/>
  <path d="M8.26 14.28c.99-1.08 2.3199-1.67 3.7399-1.67s2.74.59 3.74 1.67c.34.36.31.93-.05 1.27-.17.16-.39.24-.61.24-.24 0-.48-.1-.66-.29-1.3-1.41-3.54-1.41-4.84 0-.34.37-.9.39-1.27.05s-.39-.9-.05-1.27Z"/>
</g></svg>