<svg xmlns="http://www.w3.org/2000/svg" data-laicon-version="15.0" viewBox="0 0 20 20" fill="black"><g transform="translate(-2 -2)">
  <path d="m10.0297 8.56 1.14 1.9701L12.3496 8.47h1.85l-.13.23-1.5199 2.63h1.23v1.61h-1.8201v.4901h1.8201v1.62h-1.8201V16.15h-1.6v-1.0999h-1.8v-1.62h1.8V12.94h-1.8v-1.61h1.22l-1.66-2.86h1.87l.0401.09Z"/>
  <path d="M20.6798 12c0 .75-.1 1.5-.27 2.22 1.12.69 1.87 1.9201 1.87 3.3301 0 2.17-1.7601 3.9299-3.9301 3.9299-1.07 0-2.03-.43-2.74-1.12-1.35.72-2.85 1.12-4.41 1.12-5.23 0-9.48-4.25-9.48-9.48s4.25-9.48 9.48-9.48 9.4801 4.25 9.4801 9.48Zm-9.4801-7.68c-4.23 0-7.68 3.45-7.68 7.68 0 4.23 3.45 7.6801 7.68 7.6801 1.21 0 2.3901-.3001 3.4501-.8401-.14-.41-.23-.8399-.23-1.2899 0-2.17 1.7599-3.9201 3.9299-3.9201.0749 0 .1543.0093.2321.0184.0365.0042.0727.0085.1079.0117.12-.54.1901-1.0901.1901-1.6601 0-4.23-3.4501-7.68-7.6801-7.68Zm6.6701 14.71.7099.6999 2.1801-2.1799-2.1801-2.1801-.7099.71.9799.9701h-2.6999v1h2.6999l-.9799.98Z"/>
</g></svg>