<svg xmlns="http://www.w3.org/2000/svg" data-laicon-version="15.0" viewBox="0 0 20 20" fill="black"><g transform="translate(-2 -2)">
  <path d="m11.9997 10.46 1.42-2.45h1.84l-1.87 3.25h1.56v1.6h-2.15v.8h2.15v1.6h-2.15v1.35h-1.6v-1.35h-2.15v-1.6h2.15v-.8h-2.15v-1.6h1.56l-1.87-3.25h1.84l.05.07 1.37 2.38Z"/>
  <path d="M2.5 12c0-5.24 4.26-9.5 9.5-9.5s9.5 4.26 9.5 9.5-4.26 9.5-9.5 9.5-9.5-4.26-9.5-9.5Zm1.8 0c0 4.25 3.45 7.7 7.7 7.7s7.7001-3.45 7.7001-7.7S16.25 4.3 12 4.3 4.3 7.75 4.3 12Z"/>
</g></svg>