<svg xmlns="http://www.w3.org/2000/svg" data-laicon-version="13.0" viewBox="0 0 20 20" fill="black"><g transform="translate(-2 -2)">
  <path d="M4.14 21.14c-.12 0-.24 0-.36-.03-.56-.08-1.3-.47-1.54-1.3-.11-.39-.08-.84.08-1.24.22-.57.57-1.32.85-1.93l.12-.27s.05-.1.08-.14c-.62-.57-.6-1.54-.46-2.15-.06-.42-.18-1.63.3-2.52.5-.93 1.36-1.24 2.58-1.22-.1-.15-.18-.31-.25-.48a.8.8 0 0 1-.38-.45c-.19-.54-.68-2.43.77-3.93 1.05-1.1 2.36-1.26 3.34-1.18l2.15-1.21c.27-.14.57-.11.79.06.32.28.86 1.13.54 2.1-.12.37-.35.71-.59 1 .31.48.5 1.06.55 1.69h8.16c.34-.1.73.1.91.42.15.27.15.6 0 .87l-.69 1.33c-.18.3-.46.46-.76.46h-2.52c-.38.72-1.1.99-1.68 1.04-.55 1.32-1.4 1.9-2.84 1.99l-.25.02h-.1c.09.25.18.55.3.93.54.07 1.33.23 2 .47 0-.02.01-.05.02-.07.07-.28.21-.68.52-1.03.53-.6 1.23-.87 2.03-.78.59.07 1.1.35 1.48.81.59.71.71 1.54.36 2.39-.1.25-.22.5-.34.75l-.2.42c-.23.51-.47 1.02-.7 1.53-.36.75-1.16 1.15-1.99 1.02-.43-.07-.8-.28-1.12-.62-.46-.51-1.01-.92-1.62-1.23-.81-.41-1.39-.6-2.31-.6h-.08c-.31.22-.7.42-.96.55-1.34.64-3.05 1-4.25 1.11l-.03.1c-.29.83-1.02 1.32-1.89 1.32h-.02Zm.59-4.42c-.15 0-.29.06-.34.16l-.12.27c-.27.59-.61 1.31-.82 1.87-.06.16-.08.34-.04.47.11.36.51.43.56.44.27.04.75.03.94-.51.04-.12.08-.27.1-.36.07-.26.31-.5.58-.51 1.11-.04 2.92-.4 4.23-1.02.33-.15.7-.37.9-.53a.64.64 0 0 1 .37-.13h.27c1.16-.03 1.92.25 2.86.73.74.37 1.4.87 1.96 1.49.13.14.27.22.43.25.3.05.59-.09.71-.36.23-.49.46-1 .69-1.5l.21-.44c.11-.23.22-.45.31-.69.18-.44.12-.81-.18-1.18-.18-.22-.42-.35-.7-.38-.4-.04-.72.08-1 .39-.11.12-.19.28-.25.53 0 0-.18.71-.25.84-.14.26-.46.38-.74.28l-.52-.19c-.77-.3-1.85-.46-2.14-.47-.26 0-.49-.18-.56-.43-.34-1.13-.45-1.48-.7-1.94-.1-.19-.09-.41.02-.59s.3-.29.51-.29c.31 0 .61-.02.93-.04l.25-.02c1.08-.07 1.55-.45 1.93-1.58.09-.27.35-.43.64-.4.14.02.86.05 1.03-.6a.61.61 0 0 1 .58-.45h2.73l.35-.68h-7.25l.36.7c.17 0 .33.07.44.2a.6.6 0 0 1 .15.46c-.03.31-.1 1.04-.86 1.37-.74.32-2.03.17-2.51.05-.41-.1-.7-.26-.73-.28a.595.595 0 0 1-.31-.55c0-.23.15-.43.36-.52.6-.27 1.02-.93 1.18-1.27.15-.34.23-.69.23-1.04 0-.66-.21-1.24-.59-1.63a.58.58 0 0 1-.17-.45c0-.17.09-.32.22-.43.28-.24.55-.59.63-.86.06-.19.04-.37 0-.51L9.7 5.47a.59.59 0 0 1-.37.07c-.72-.1-1.74-.03-2.53.79-.82.85-.72 1.89-.57 2.47.02 0 .03.01.05.02.16.08.27.22.31.4.21.87 1.12 1.3 1.65 1.48.3.1.48.43.4.73-.08.3-.37.49-.68.43-2.93-.61-3.42-.19-3.68.29-.3.56-.22 1.54-.16 1.87.02.09.01.19-.01.27-.05.19-.18.96.17 1.14.15.08.49.14.75.02.21-.1.35-.3.42-.62 0 0 .04-.27.28-.5.07-.07.29-.33.09-.59-.18.07-.36.06-.52-.04a.565.565 0 0 1-.26-.46c0-.09 0-.4.25-.66.13-.13.35-.28.72-.25.35.02 1.22.18 1.57.26l.31.08c.17.05.32.17.39.33.38.81.65 1.39 1.13 3 .1.32-.08.65-.4.75l-.21.07c-.95.3-2.25.72-3.88-.03a.467.467 0 0 0-.17-.03l-.02-.04Zm1.51-.79c.69.12 1.29-.01 1.83-.18-.32-.99-.53-1.47-.78-2.01h-.02s-.11-.03-.18-.04c.1.58-.18 1.14-.5 1.45-.09.33-.22.58-.36.78h.01Zm.4-.94-.03.13c.03-.05.03-.11.03-.13Zm5.07-4.15c.4.03.82.02 1.06-.05a.75.75 0 0 1-.15-.2l-.32-.61c-.11.21-.31.54-.6.86h.01Zm9.01-2.19s0 .02-.01.02v-.02h.01Z"/>
</g></svg>