<svg xmlns="http://www.w3.org/2000/svg" data-laicon-version="5.0" viewBox="0 0 20 20" fill="black"><g transform="translate(-2 -2)">
  <path d="M4.9452 4.6362c.411-1.2433 1.6746-2.0292 3.033-1.8051.905.1496 1.5051.6293 1.9247 1.3334l.0321.0575.297-.0433c.4662-.0633.8723-.0922 1.4665-.106l.3139-.0056c.869.0127 1.3414.0465 1.9998.1477l.0588.0082.0324-.0559c.3874-.6498.9296-1.109 1.7226-1.2928l.2036-.0402c1.358-.2234 2.6213.5637 3.0314 1.8074.2264.6868.214 1.3325.051 1.9855l.1114.1001.165.155c.2954.2835.5682.5792.8268.908 1.103 1.4021 1.7229 3.1107 1.6387 5.2078-.1769 4.3912-4.5478 8.2403-9.8628 8.2097-5.3133.0183-9.672-3.8317-9.8449-8.2174-.083-2.096.5377-3.8036 1.6412-5.2048.259-.329.5323-.6248.8281-.9083.11-.1055.2175-.204.3392-.312l-.0627.0559-.05-.2248c-.0977-.5023-.0998-1.0058.0363-1.5327Zm2.8212-.5225c-.7198-.1187-1.3746.2886-1.5868.9305-.1714.5185-.1191 1.0297.068 1.5809l.1381.4065-.3196.2865-.4046.3602-.1465.1373c-.2545.244-.4872.496-.7063.7742-.921 1.1694-1.4335 2.5797-1.3635 4.349.1444 3.6624 3.9058 6.9848 8.5474 6.9686 4.6426.027 8.4147-3.2948 8.5623-6.9618.0711-1.7703-.4409-3.1816-1.3614-4.3517-.2187-.278-.451-.53-.7051-.7738a10.5703 10.5703 0 0 0-.3024-.2783l-.5679-.506.1392-.407c.1871-.5474.24-1.0616.069-1.5803-.2116-.642-.8664-1.05-1.5858-.9316-.5906.097-.94.4634-1.2048 1.0828l-.2023.4736-.5073-.0887c-.921-.161-1.3203-.2029-2.314-.2177-1.014.0143-1.416.056-2.3324.2155l-.5069.0882-.2022-.4731c-.2652-.6205-.6136-.9862-1.2042-1.0838Zm4.2922 7.3039c1.3824 0 2.4669 1.3321 2.4669 2.9391 0 1.607-1.0845 2.9391-2.4669 2.9391-1.3827 0-2.4671-1.332-2.4671-2.9391 0-1.6071 1.0844-2.9391 2.4671-2.9391Zm0 .8c-.9004 0-1.6671.9417-1.6671 2.1391s.7666 2.1391 1.6671 2.1391c.9001 0 1.6669-.9419 1.6669-2.1391s-.7668-2.1391-1.6669-2.1391Zm-.0002.2542c.29 0 .6633.0043.7229.2562.0395.1672-.1292.4952-.3529.709l-.0006.622.6639.819a.4.4 0 0 1-.5643.5614l-.057-.0575-.2806-.3459-.405.7902a.4.4 0 0 1-.7413-.2901l.0296-.0755.5549-1.0806.0005-.942c-.224-.2139-.3932-.5425-.3537-.71.0594-.2519.4327-.2562.7226-.2562Zm1.2106-2.1728a.6395.6395 0 0 1 .6393.6393.6395.6395 0 0 1-1.2788 0c0-.353.2863-.6393.6395-.6393Zm-2.4513 0a.6394.6394 0 1 1 0 1.2786.6393.6393 0 1 1 0-1.2786Zm5.648-5.6857c.1518 0 .3156.037.4904.124.7523.3742.5784 1.4603.2725 1.9686 0 0-.311-.2535-.9555-.5999-.6445-.3461-1.0078-.468-1.0078-.468.1167-.3394.5469-1.0247 1.2004-1.0247Zm-8.8921.0069c.6514 0 1.0585.6597 1.1644.9882 0 0-.3694.123-1.0289.4681-.6595.3453-.9806.5963-.9806.5963-.2914-.4934-.4314-1.5526.3374-1.9263.1827-.0887.3521-.1263.5077-.1263Z"/>
</g></svg>