<svg xmlns="http://www.w3.org/2000/svg" data-laicon-version="5.0" viewBox="0 0 20 20" fill="black"><g transform="translate(-2 -2)">
  <path d="m14.6675 4.9645.025.0013c.36.0272.4728.2797.482.4093l.0002.0144c-.0025.041-.247 4.1283-.1303 6.5996.121 2.565.1789 4.5588.0685 5.9056.104-.0039.258-.0085.4036-.0085l.0435.0001c.0826 0 .141-.0028.1978-.0055a3.2061 3.2061 0 0 1 .1642-.0048c.0276 0 .0557.0005.0855.0015a.5902.5902 0 0 1 .0815-.0056c.0815 0 .1984.0163.2926.0941.089.0736.1707.2755.168.4156-.0031.1654-.085.3719-.1788.4506-.1134.0952-.2541.1055-.3094.1055l-.0716-.0006-.0564-.0002H15.6c-.6384.002-1.8395.017-2.4422.096a.436.436 0 0 1-.0536.0027 2.0993 2.0993 0 0 1-.0735-.0018c-.0232-.0008-.0451-.0017-.063-.0017l-.0213.0006-.0174.0031-.0175-.0026c-.134-.0199-.394-.1518-.4191-.509-.0116-.1628.0424-.3638.1229-.4574.132-.1538.296-.1592.3144-.1593l.0165.0003c.0574.0015.295.0069.5413.0069l.1324-.0006c.2031-.0018.3211-.008.3896-.014.0435-.3033.1714-1.6723-.0573-6.4427-.0854-1.7808-.0303-2.9691.0108-3.5245-.3438.4005-1.0481 1.1328-1.9484 1.6002a.4814.4814 0 0 1-.2426.0669c-.119 0-.292-.0476-.4392-.2745-.1507-.2321-.1021-.4231-.0348-.5425.0734-.1302.189-.2144.2446-.2548l.0417-.0273c.1239-.081.5806-.3898 1.0659-.8501.937-.8888 1.261-1.6506 1.3676-2.1331l.0029-.0125.0053-.0112a.495.495 0 0 0 .0285-.0818c.043-.1694.1534-.2951.2349-.3513.085-.0587.2234-.0969.3525-.0969l.0255.0004Zm3.5213.802.0373.0005c.6447.0143 1.1533.2364 1.5117.6604.239.2827.4016.6477.483 1.0847.0792.4253.08.9103.0025 1.4417-.1685 1.1549-.5888 2.2652-.9953 3.3389-.2358.623-.4796 1.267-.6628 1.8959-.3606 1.238-.3001 2.6751-.26 3.0488.3076-.0071 1.5876-.0486 1.6369-.0502l.0293.0004c.0867.005.4076.0547.423.507.0155.4554-.2956.5828-.4058.5916l-.0243.0004c-.1856.0025-1.8203.0253-2.4276.0457l-.0157.0004c-.0761 0-.1565-.0189-.2001-.0469l-.0008-.0006c-.0152-.01-.0877-.0641-.1122-.1887-.017-.086-.0281-.2547-.0331-.5016a8.4985 8.4985 0 0 0-.0043-.1333c-.0196-.5411-.0716-1.9786.2558-3.3961.1698-.7351.551-1.6631.8033-2.2772.075-.1826.1399-.3405.1803-.4479.4372-1.1639.6829-2.181.6997-2.5841l.0005-.0112c.0125-.2987.0313-.7502-.0708-1.1367-.116-.4389-.3548-.6626-.7301-.6838a2.3732 2.3732 0 0 0-.134-.0039c-.7698 0-.9578.4054-1.157.8346-.0491.1062-.1001.2161-.1596.3157l-.0106.0156c-.0304.0414-.1196.1372-.3177.1809a.372.372 0 0 1-.0795.0071c-.0918 0-.2645-.0223-.364-.0842-.2357-.1468-.2686-.3152-.2698-.4606-.001-.1443.0635-.3387.0758-.3743.0136-.0527.1162-.4225.4254-.7942.3018-.3626.8648-.7949 1.8336-.7949.0245 0 .0494.0003.0743.0006Zm-7.7966.8263c.1546 0 .2989.0603.4172.1745.1379.1327.1646.287.1627.3931-.0021.1177-.0421.237-.1044.3113-.0367.0437-.1998.2123-.246.251-.389.3535-.7277.8191-1.0065 1.3838-.225.4557-.4116.9763-.5548 1.5475a10.2327 10.2327 0 0 0-.2618 1.5533c.1023-.0461.2463-.0842.443-.0842.0202 0 .0407.0003.0612.0012.1939.0074.5662.0865.8823.5316.3276.4613.4965 1.1839.5019 2.1476.0047.8476-.0754 1.3022-.1626 1.6671-.1628.6807-.4204 1.1718-.7656 1.4598-.2888.2407-.5582.2667-.6606.2667a.5005.5005 0 0 1-.0488-.0021c-.0481-.0021-.342-.0253-.6566-.2809-.4363-.3544-.7045-.968-.7972-1.8241-.0796-.7342-.1235-1.2639-.0271-2.8315.0704-1.1454.2267-2.1869.4645-3.0956.1944-.743.4444-1.4028.743-1.9611.4925-.9208.9809-1.3153 1.1682-1.4423a1.4894 1.4894 0 0 1 .2067-.116.6018.6018 0 0 1 .2413-.0507Zm-6.2915-.2024c.429 0 1.1576.1507 1.7987.5756.4932.3267 1.0914.9217 1.1414 1.9006.025.4932-.0466.9758-.2133 1.4344-.1331.3661-.3266.7175-.5751 1.0443-.262.3446-.5274.587-.6958.7245.4029.1534.7184.4746.9199.9399.1222.2823.1724.5468.192.6853l.0101.0855a.7483.7483 0 0 1 .0013.0148c.0527.7481-.0124 1.4259-.1935 2.0148-.146.4746-.3671.8928-.6573 1.2429-.4811.5803-.9875.7775-1.0402.7969-.1602.0685-.4362.1479-.692.1843l-.15.0163-.0195.0007c-.0572 0-.1178-.0174-.1484-.0275l-.0193-.0069-.0107-.0042-.0096-.0062c-.0505-.0329-.1047-.1093-.1058-.2249-.0014-.1371-.0034-.3133-.0057-.5183-.008-.6973-.0193-1.695-.0222-2.6258l-.0004-.6067c.0012-.6868.0092-1.2838.0296-1.6183.0268-.4416.0373-1.5651.0402-2.7129l.0002-1.4373a324.0358 324.0358 0 0 0-.006-1.5024c-.0007-.1082.0316-.1858.0476-.2174l.008-.0148.008-.0114c.0658-.0827.1735-.1174.2522-.1223a1.8727 1.8727 0 0 1 .1156-.0035Zm5.0626 6.9333c-.2836-.0002-.4057.3312-.4366.4328-.0767.2523-.087.4289-.0959.913l-.003.1732-.0004.024c-.0307 1.8047.4057 2.0916.479 2.127l.0073.0031.002-.0001c.0389.0011.1203-.0525.1998-.2499.0949-.2358.21-.7367.22-1.7838.0078-.8303-.095-1.2362-.1825-1.4305-.064-.1418-.1253-.1871-.1545-.2014l-.0133-.0054-.0028.0007-.0143-.0024-.0048-.0003Zm-4.4546-.517-.0195 3.856c.1006-.0715.2386-.1905.3745-.3746.4357-.5899.518-1.3833.5102-1.9451-.0172-1.252-.562-1.4747-.8652-1.5363Zm.0735-5.2158L4.73 11.4751a3.0682 3.0682 0 0 0 .5396-.5196c.4584-.5646.6775-1.2279.6513-1.9716-.0196-.5571-.2337-.9624-.6363-1.205-.1923-.1159-.3852-.1664-.5025-.188Z"/>
</g></svg>