<svg xmlns="http://www.w3.org/2000/svg" data-laicon-version="5.0" viewBox="0 0 20 20" fill="black"><g transform="translate(-2 -2)">
  <path d="m11.999 2 .3044.0056c2.0214.0744 3.9524.8985 5.4167 2.3627 3.1577 3.1577 3.1577 8.5298 0 11.6875-.764.764-1.6308 1.6513-2.5555 2.6122l-1.255 1.3115L12.0028 22l-.4553-.4851-.9544-1.0098-1.5698-1.6432a265.7499 265.7499 0 0 0-1.311-1.3537l-.5532-.5649-.8796-.8875c-3.1577-3.1577-3.1577-8.5298 0-11.6875C7.8168 2.831 9.869 1.9993 11.999 2ZM12 7.4724c-1.2062 0-2.0956.821-2.175 2.0948-.0333.535.1346 1.46.3928 2.0534.0581.1336.1267.2644.2123.4074l.1455.2296c.0973.147.2926.4415.3545.5449.1692.2828.2684.5254.2958.7941.0057.0668.0057.0668.0069.1353 0 .8958-.553 1.3858-2.338 2.488l-.4345.2671.798.8204c.4395.454.8872.9195 1.3362 1.389l.6734.7063.7332.7737.7073-.7453 1.5576-1.6297c.4396-.4568.8663-.8971 1.2754-1.3158l-.0628-.0366-.144-.0882c-1.9676-1.2032-2.5675-1.6958-2.5675-2.6289l.0029-.0857c.0009-.0125.0021-.0273.004-.0496.0274-.2687.1267-.5113.2958-.794l.2525-.3907c.0768-.1164.1432-.2162.156-.2363.1302-.2036.2264-.3769.3039-.555.2582-.5934.426-1.5182.3927-2.0535-.0793-1.2738-.9687-2.0947-2.1749-2.0947Zm.0002-4.2239c-1.8037-.0006-3.5372.702-4.8378 2.0026-2.6702 2.6702-2.6702 7.2518 0 9.9219l.3969.402.4546-.2792c1.3417-.8204 1.9125-1.275 1.9662-1.526l.0042-.0379c-.0057-.06-.042-.1486-.1256-.2885l-.3891-.5956c-.1629-.2548-.2894-.483-.3965-.729-.3362-.7726-.54-1.8946-.494-2.6293.1206-1.9368 1.5602-3.2655 3.4209-3.2655s3.3003 1.3287 3.421 3.2656c.0457.7349-.158 1.8567-.494 2.629-.0804.1848-.1717.3593-.281.5425l-.1865.2947c-.1015.1535-.2731.4121-.3183.4877-.067.1118-.1035.191-.1182.2444l-.0074.044c0 .2298.5036.655 1.7648 1.4373l.6569.4058.4001-.402c2.6081-2.608 2.6688-7.0397.182-9.7326l-.182-.1893c-1.3008-1.3007-3.0342-2.0033-4.8372-2.0026Z"/>
</g></svg>