<svg xmlns="http://www.w3.org/2000/svg" data-laicon-version="5.0" viewBox="0 0 20 20" fill="black"><g transform="translate(-2 -2)">
  <path d="M11.9936 3.85c4.501 0 8.15 3.6489 8.15 8.15a8.1966 8.1966 0 0 1-.1348 1.484c1.567 1.6334 2.2405 3.0524 1.6409 4.091-.578 1.0013-2.1978 1.1485-4.3697.628-1.4233 1.2142-3.2693 1.947-5.2864 1.947-4.5011 0-8.15-3.6489-8.15-8.15 0-.505.046-.9994.1338-1.479-1.5362-1.6193-2.218-3.095-1.6401-4.096.5998-1.039 2.1664-1.165 4.366-.6246C8.127 4.5842 9.9746 3.85 11.9937 3.85ZM5.153 11.6462l-.0055.1183-.004.2355c0 3.7832 3.067 6.85 6.85 6.85 1.3749 0 2.655-.405 3.7279-1.1022-1.689-.5737-3.5971-1.4577-5.553-2.5869-1.9552-1.1288-3.6744-2.339-5.0154-3.5147Zm14.436 3.3147-.0408.1027a8.1437 8.1437 0 0 1-1.1946 2.0332c1.2291.2146 2.0062.1123 2.1703-.1718.1662-.288-.1391-1.012-.935-1.964ZM11.9935 5.15c-3.1266 0-5.764 2.0947-6.5852 4.9573 1.3565 1.296 3.2574 2.685 5.41 3.9278 2.1524 1.2426 4.3054 2.1943 6.1063 2.7216 1.1876-1.2327 1.9189-2.9093 1.9189-4.7567 0-3.7832-3.0669-6.85-6.85-6.85ZM3.463 7.075c-.164.284.1358 1.0079.9347 1.964a8.1511 8.1511 0 0 1 1.2358-2.1358c-1.2234-.2139-2.0041-.1164-2.1705.1718Z"/>
</g></svg>