<svg xmlns="http://www.w3.org/2000/svg" data-laicon-version="5.0" viewBox="0 0 20 20" fill="black"><g transform="translate(-2 -2)">
  <path d="M19.853 4.3924c1.0477 0 1.897.8492 1.897 1.8969v11.4216c0 1.0476-.8493 1.8969-1.897 1.8969H4.147c-1.0477 0-1.897-.8492-1.897-1.8969V6.2893c0-1.0477.8493-1.8969 1.897-1.8969Zm0 1.3H4.147a.597.597 0 0 0-.597.5969v11.4216a.597.597 0 0 0 .597.5969h15.706a.597.597 0 0 0 .597-.5969V6.2893a.597.597 0 0 0-.597-.5969Zm-4.6564 5.1406a.1295.1295 0 0 1 .1198.0804l.746 1.8187.7214-1.8175a.1294.1294 0 0 1 .1204-.0817h.8004a.0778.0778 0 0 1 .0723.1064l-1.6682 4.2025a.1293.1293 0 0 1-.1204.0817h-.8004a.0776.0776 0 0 1-.0722-.1063l.4536-1.1426-1.2447-3.0343a.0777.0777 0 0 1 .0719-.1073Zm-3.4152-.0879c.4199 0 .7271.1443.9339.3824v-.2168c0-.043.0348-.0778.0777-.0778h.7846a.0777.0777 0 0 1 .0777.0778v2.9783a.0777.0777 0 0 1-.0777.0778h-.7847a.0777.0777 0 0 1-.0777-.0778v-.2168c-.2068.2381-.5139.3823-.9338.3823-.821 0-1.4979-.7207-1.4979-1.6547 0-.9339.6769-1.6547 1.4979-1.6547Zm-3.385-1.1658c.8649 0 1.5356.6706 1.5356 1.5042s-.6706 1.5043-1.5355 1.5043h-.6581v1.2312a.1476.1476 0 0 1-.1477.1476h-.7075a.1476.1476 0 0 1-.1477-.1476V9.727a.1478.1478 0 0 1 .1477-.1477Zm3.5731 2.0559c-.4324 0-.7458.2946-.7458.7646s.3134.7646.7458.7646.7458-.2946.7458-.7646-.3134-.7646-.7458-.7646Zm-3.5731-1.1157h-.6581v1.1282h.6581c.3071 0 .5327-.2444.5327-.5641 0-.3197-.2256-.5641-.5327-.5641Z"/>
</g></svg>