<svg xmlns="http://www.w3.org/2000/svg" data-laicon-version="15.4" viewBox="0 0 20 20" fill="black"><g transform="translate(-2 -2)">
  <path d="M8.895 8.197a.65.65 0 0 0-.92.919L12 13.14l4.025-4.024a.65.65 0 0 0-.919-.92L12 11.302 8.895 8.197Zm-1.108 1.931.001 5.332a.65.65 0 1 0 1.3 0v-4.032l-1.301-1.3Zm7.126 5.332.001-4.032 1.3-1.3v5.332a.65.65 0 1 1-1.3 0Z"/>
  <path d="M8 3.35A4.65 4.65 0 0 0 3.35 8v8A4.65 4.65 0 0 0 8 20.65h8A4.65 4.65 0 0 0 20.65 16V8A4.65 4.65 0 0 0 16 3.35H8ZM4.65 8c0-1.85 1.5-3.35 3.35-3.35h8c1.85 0 3.35 1.5 3.35 3.35v8c0 1.85-1.5 3.35-3.35 3.35H8A3.35 3.35 0 0 1 4.65 16V8Z"/>
</g></svg>