<svg xmlns="http://www.w3.org/2000/svg" data-laicon-version="5.0" viewBox="0 0 20 20" fill="black"><g transform="translate(-2 -2)">
  <path d="M12.9204 4.948c2.0043-1.9292 5.1576-1.9624 7.2016-.0994l.1795.1714c2.0577 2.0588 2.0577 5.3942-.0003 7.4533l-8.3014 8.3015-8.3019-8.302c-2.0565-2.0587-2.0565-5.3939.0003-7.453 2.0588-2.0588 5.3964-2.0588 7.4554.0003l-.001-.0003-.0006.0012 1.7666 1.7658-.919.9191-1.7654-1.7668C8.683 4.388 6.1686 4.388 4.6177 5.939c-1.5495 1.5512-1.5495 4.064-.0005 5.6148L12 18.935l7.382-7.381c1.5504-1.5512 1.5504-4.0638.0002-5.6149-1.5512-1.5511-4.0646-1.5511-5.6158 0l.0742-.0703Z"/>
</g></svg>