<svg xmlns="http://www.w3.org/2000/svg" data-laicon-version="13.0" viewBox="0 0 20 20" fill="black"><g transform="translate(-2 -2)">
  <path d="M21.04 4.154a.65.65 0 0 0-.835-.997l-6.32 5.298-2.72-3.243a.65.65 0 0 0-.916-.08l-7.867 6.601a.65.65 0 0 0 .836.996l7.368-6.183 2.721 3.242c.23.275.64.31.916.08l6.817-5.714Zm-2.5 12.643 3.424-4.296h-1.68l-2.584 3.24-2.584-3.24H8.484a2.84 2.84 0 0 0-2.684 2.83V21h1.31v-3.255h4.19l1.056-1.31H7.111v-1.211a1.53 1.53 0 0 1 1.52-1.412h5.845l2.383 2.985-3.355 4.21h1.674l2.521-3.154 2.522 3.155h1.674l-3.355-4.211Z"/>
</g></svg>