<svg xmlns="http://www.w3.org/2000/svg" data-laicon-version="16.2" viewBox="0 0 20 20" fill="black"><g transform="translate(-2 -2)">
  <path d="M7.82 4.77c-3.08 1.78-4.59 5.24-4.06 8.56h.01l-1.2.69c-.85-3.98.89-8.24 4.6-10.38 3.71-2.14 8.27-1.52 11.29 1.2l-1.2.69c-2.61-2.12-6.36-2.54-9.44-.76Zm8.35 14.46c3.08-1.78 4.59-5.24 4.06-8.56l1.2-.69c.85 3.99-.9 8.24-4.61 10.38-3.71 2.14-8.27 1.53-11.29-1.2l1.2-.69c2.61 2.12 6.36 2.54 9.44.76Z"/>
  <path d="M9.04 6.86a5.923 5.923 0 0 0-2.96 5.13l-.01-.01-1.26.73c-.27-2.74 1.03-5.52 3.57-6.98a7.243 7.243 0 0 1 7.84.4l-1.26.73a5.907 5.907 0 0 0-5.92 0Zm5.92 10.28a5.91 5.91 0 0 0 2.96-5.13l.01.01 1.26-.73c.27 2.74-1.03 5.52-3.57 6.98a7.243 7.243 0 0 1-7.84-.4l1.26-.73a5.907 5.907 0 0 0 5.92 0Z"/>
  <path d="m14.31 9.79-.67 1.85L15 13.06c.17.17.04.46-.2.46l-1.96-.06-.93 1.73c-.11.21-.43.18-.5-.05l-.55-1.89-1.93-.35c-.24-.04-.3-.35-.1-.49l1.63-1.1-.27-1.95c-.03-.24.24-.4.43-.25l1.55 1.2 1.77-.86c.22-.11.45.11.37.33v.01Zm2.52-1.16a6.064 6.064 0 0 0-.87-.99l3.37-1.95c.28.33.54.68.78 1.05l-3.28 1.89Zm-.87-.99-.01-.01.01.01Zm5.17 1.17-3.37 1.95c-.1-.43-.24-.85-.43-1.26l3.28-1.89c.2.39.38.79.52 1.2ZM7.168 15.371l.002-.001-.01-.01.008.011ZM3.89 17.26l3.278-1.889c.258.366.555.702.872.989l-3.37 1.95c-.28-.33-.54-.68-.78-1.05Zm2.35-4.02-3.37 1.95c.14.41.32.81.52 1.2l3.28-1.89c-.19-.41-.33-.83-.43-1.26Z"/>
</g></svg>