<svg xmlns="http://www.w3.org/2000/svg" data-laicon-version="16.8" viewBox="0 0 20 20" fill="black"><g transform="translate(-2 -2)">
  <path d="M11.998 5.505h.004l2.48-2.48.92.918-1.562 1.562h5.148c.372.003.726.155.985.42.259.263.403.618.405.985v.004l.014 11.254v.003c0 .369-.145.725-.404.99-.26.265-.616.417-.989.418H5.02a1.389 1.389 0 0 1-.986-.42 1.42 1.42 0 0 1-.403-.988L3.607 6.91a1.43 1.43 0 0 1 .405-.987c.26-.264.613-.416.985-.42h5.162l-1.561-1.56.919-.92 2.48 2.48Zm-.648 1.3H5.006a.092.092 0 0 0-.064.029.123.123 0 0 0-.034.084l.006 2.884h6.436V6.805Zm-6.434 4.297.014 7.066a.12.12 0 0 0 .033.083c.02.02.042.028.063.028h6.324v-7.177H4.916Zm7.734 7.177h6.346a.089.089 0 0 0 .063-.028.12.12 0 0 0 .033-.083l-.009-7.066H12.65v7.177Zm6.432-8.477-.004-2.883a.123.123 0 0 0-.034-.085.092.092 0 0 0-.064-.03h-6.33v2.998h6.432Z"/>
</g></svg>