<svg xmlns="http://www.w3.org/2000/svg" data-laicon-version="5.0" viewBox="0 0 20 20" fill="black"><g transform="translate(-2 -2)">
  <path d="M20.349 5.215h-6.138a1.564 1.564 0 0 0-1.556 1.42v10.877a3.4 3.4 0 0 1 1.383-.361h6.316Zm-10.562 0H3.649v11.932h6.138a3.429 3.429 0 0 1 1.563.365V6.777a1.563 1.563 0 0 0-1.42-1.556Zm0-1.3A2.861 2.861 0 0 1 12 4.961a2.858 2.858 0 0 1 2.041-1.041H20.5a1.154 1.154 0 0 1 1.145 1.026l.007.125V17.3a1.153 1.153 0 0 1-1.027 1.145l-.125.007h-6.289c-.842 0-1.478.431-1.554.892l-.008.093a.651.651 0 0 1-.554.643l-.1.007c-.033 0-.066 0-.1-.007h-.008l-.054-.011-.036-.01-.04-.014-.057-.026-.018-.019a.527.527 0 0 1-.059-.037l-.026-.018c-.017-.014-.032-.028-.047-.042l-.026-.025c-.013-.015-.026-.029-.038-.045l-.023-.032-.029-.046c-.008-.013-.014-.026-.02-.038s-.016-.035-.023-.053l-.013-.037a.669.669 0 0 1-.029-.193c0-.494-.664-.986-1.562-.986H3.5a1.152 1.152 0 0 1-1.144-1.024l-.007-.124V5.066a1.153 1.153 0 0 1 1.026-1.144l.125-.007Z"/>
</g></svg>