<svg xmlns="http://www.w3.org/2000/svg" data-laicon-version="17.4" viewBox="0 0 20 20" fill="black"><g transform="translate(-2 -2)">
  <path d="M9.132 3.65c-3.013 0-5.482 2.388-5.482 5.368v5.6c0 2.979 2.469 5.367 5.482 5.367H17.5v-1.3H9.132c-2.325 0-4.182-1.836-4.182-4.067v-5.6c0-2.232 1.858-4.068 4.182-4.068h5.736c2.324 0 4.182 1.836 4.182 4.068v10.964h1.3V9.018c0-2.98-2.47-5.368-5.482-5.368H9.132Z"/>
  <path d="M11.35 7.6v3.75H7.6v1.3h3.75v3.75h1.3v-3.75h3.75v-1.3h-3.75V7.6h-1.3Z"/>
</g></svg>