<svg xmlns="http://www.w3.org/2000/svg" data-laicon-version="5.0" viewBox="0 0 20 20" fill="black"><g transform="translate(-2 -2)">
  <path d="M14.6466 3.7585c.5973 0 1.0892.452 1.1521 1.0325l.0068.1263-.0004.9452 4.4861.0006c.5962 0 1.089.453 1.152 1.0327l.0068.1261v12.0609c0 .6389-.52 1.1588-1.1588 1.1588H3.7089c-.6388 0-1.1588-.52-1.1588-1.1588V7.0219c0-.6388.52-1.1588 1.1588-1.1588l4.4852-.0006.0004-.9452c0-.5974.452-1.089 1.0326-1.152l.1263-.0068h5.2932Zm5.5025 9.526-6.18 1.409.0005.8015a.6502.6502 0 0 1-.554.643l-.096.007h-2.6393a.65.65 0 0 1-.65-.65l-.0002-.8015-6.181-1.409.0009 5.6565h16.3l-.0009-5.6565Zm-7.4801.2205H11.33v1.34h1.339v-1.34Zm7.481-6.342H3.85l-.0009 4.7885 6.181 1.409.0002-.5048a.6502.6502 0 0 1 .554-.643l.096-.007h2.6393a.65.65 0 0 1 .65.65l-.0005.5048 6.18-1.409.0009-4.7885Zm-5.645-2.105H9.494l.0001.8045h5.011l-.0001-.8045Z"/>
</g></svg>