<svg xmlns="http://www.w3.org/2000/svg" data-laicon-version="5.0" viewBox="0 0 20 20" fill="black"><g transform="translate(-2 -2)">
  <path d="M20.148 3.489a.75.75 0 0 1 .75.75v12.507a.75.75 0 0 1-.75.75H5.9l-2.8 3.015V4.239a.75.75 0 0 1 .75-.75h16.3Zm-.55 1.3H4.4V17.2l.937-1H19.6ZM8.181 9.548a1.035 1.035 0 1 1-1.035 1.035 1.035 1.035 0 0 1 1.035-1.035Zm3.829 0a1.035 1.035 0 1 1-1.035 1.035 1.035 1.035 0 0 1 1.035-1.035Zm3.823 0a1.035 1.035 0 1 1-1.033 1.035 1.035 1.035 0 0 1 1.033-1.035Z"/>
</g></svg>