<svg xmlns="http://www.w3.org/2000/svg" data-laicon-version="5.0" viewBox="0 0 20 20" fill="black"><g transform="translate(-2 -2)">
  <path d="m18.0133 4.7402 1.3927.5676 1.8546.7384a.6454.6454 0 0 1 .3548.8693c-1.235 2.7142-2.5531 4.9606-4.3392 6.9068l4.1763 1.9649c.4465.2101.4933.8108.1198 1.0952l-.0865.0558-9.1726 4.9835a.6454.6454 0 0 1-.5172.0435l-.099-.0435-9.1726-4.9835c-.431-.234-.4462-.8314-.062-1.0964l.0885-.0514 3.0724-1.4902L2.503 12.52c-.3916-.2235-.4325-.759-.1087-1.0436l.0811-.061c1.6045-1.0247 2.779-1.9264 3.7458-2.8743l2.4286-.7821c-.211.271-.4221.5242-.644.775l-.203.2254-.2704.2895c-.7792.82-1.6708 1.5875-2.7851 2.3894l-.4285.3025-.263.1789 3.238 1.8459a.647.647 0 0 1 .0624.0348l4.635 2.647.0792-.0466c1.3685-.8406 2.5242-1.7348 3.53-2.7113l-.0258.0448a.6425.6425 0 0 1 .2753-.2921c1.629-1.6446 2.8588-3.5234 3.976-5.7676l.2377-.4866.0894-.1902-.5117-.2044-3.5389-1.437 1.911-.616Zm-1.6976 10.056c-1.1276 1.0647-2.4323 2.0392-3.9878 2.9558a.6454.6454 0 0 1-.5588.0466l-.0887-.042-4.698-2.6804-2.7381 1.3274 7.7607 4.216 7.7447-4.208-3.434-1.6153ZM11.1982 2.0018a.6176.6176 0 0 1 .1023.015l.1.0324 4.7518 1.9341L7.864 6.6575c.1199-.1618.2414-.332.367-.5137a.2015.2015 0 0 1 .0225-.0401l.3816-.5733c.3721-.5715.7895-1.2453 1.287-2.0741l.6762-1.1382a.6456.6456 0 0 1 .6-.3164Z"/>
</g></svg>