<svg xmlns="http://www.w3.org/2000/svg" data-laicon-version="6.0" viewBox="0 0 20 20" fill="black"><g transform="translate(-2 -2)">
  <path d="M7.877 5.498v-.765a.596.596 0 0 1 .487-.587l10.09-1.845a.46.46 0 0 1 .54.46v.766a.59.59 0 0 1-.488.583L8.417 5.945a.457.457 0 0 1-.54-.447zM6.413 14.39H7.84V8.38a.596.596 0 0 1 .487-.587l10.099-1.832a.457.457 0 0 1 .543.447v9.781a3.373 3.373 0 0 1-3.313 3.403 3.313 3.313 0 0 1-3.314-3.313 3.377 3.377 0 0 1 3.413-3.314h1.428v-4.97L9.627 9.367v8.224A3.373 3.373 0 0 1 6.313 21 3.314 3.314 0 0 1 3 17.687a3.37 3.37 0 0 1 3.413-3.297zm8.166 2.95a1.524 1.524 0 0 0 2.157 0c.286-.286.447-.674.448-1.078v-1.524h-1.527a1.524 1.524 0 0 0-1.078 2.602zm-8.87 1.78c.193.072.398.104.604.094a1.527 1.527 0 0 0 1.528-1.524v-1.52H6.313a1.522 1.522 0 0 0-1.595 1.522 1.524 1.524 0 0 0 .99 1.427z"/>
</g></svg>