<svg xmlns="http://www.w3.org/2000/svg" data-laicon-version="9.0" viewBox="0 0 20 20" fill="black"><g transform="translate(-2 -2)">
  <path d="M12 3.555a2.323 2.323 0 0 1 2.323 2.323v.004H9.677v-.004A2.323 2.323 0 0 1 12 3.555zm3.623 2.327v-.004a3.623 3.623 0 1 0-7.246 0v.004h-2.81a1.15 1.15 0 0 0-1.15 1.15v13.563c0 .635.515 1.15 1.15 1.15h12.866a1.15 1.15 0 0 0 1.15-1.15V7.032a1.15 1.15 0 0 0-1.15-1.15h-2.81zm-1.3 1.3V8.58a.65.65 0 0 0 1.3 0V7.182h2.66v9.905H5.717V7.182h2.66V8.58a.65.65 0 0 0 1.3 0V7.182h4.646zM5.717 18.387h12.566v2.058H5.717v-2.058z"/>
</g></svg>