<svg xmlns="http://www.w3.org/2000/svg" data-laicon-version="13.0" viewBox="0 0 20 20" fill="black"><g transform="translate(-2 -2)">
  <path d="m19.441 6.368-6.326-3.692a2.216 2.216 0 0 0-2.237 0l-6.31 3.687c-.317.182-.58.443-.767.741a.658.658 0 0 0-.053.077 2.229 2.229 0 0 0-.298 1.13v7.378c0 .797.418 1.542 1.109 1.946l6.32 3.689c.69.404 1.546.404 2.236 0l6.32-3.69a2.26 2.26 0 0 0 1.115-1.945V8.304c0-.4-.107-.787-.292-1.118a.652.652 0 0 0-.083-.117 2.305 2.305 0 0 0-.734-.7Zm-1.334 2.814 1.143-.666v7.173a.96.96 0 0 1-.472.824l-6.32 3.69a.916.916 0 0 1-.924-.001l-6.32-3.689a.954.954 0 0 1-.464-.824V8.52l3.83 2.237v3.19c0 .352.187.67.484.842l2.449 1.426.004.002c.298.17.661.17.959 0l2.452-1.428a.978.978 0 0 0 .485-.841v-3.194l2.694-1.573Zm.498-1.797-1.153.674-.719.418-4.252-2.481-.005-.003a.965.965 0 0 0-.959 0L7.264 8.475l-1.87-1.089 6.141-3.588a.917.917 0 0 1 .924 0l6.146 3.587Zm-3.16 1.846-1.003.586a.65.65 0 0 0-.132.102l-.007.006a.65.65 0 0 0-.19.46v3.375l-2.117 1.233L9.88 13.76v-3.375a.65.65 0 0 0-.323-.561l-1.012-.592 3.452-2.014 3.448 2.013Z"/>
</g></svg>