<svg xmlns="http://www.w3.org/2000/svg" data-laicon-version="5.0" viewBox="0 0 20 20" fill="black"><g transform="translate(-2 -2)">
  <path d="M6.2646 15.1637v4.8613h-1.3v-4.8613h1.3Zm4.5399-2.9008v7.7621h-1.3v-7.762h1.3Zm4.54.8255v6.9366h-1.3v-6.9366h1.3Zm4.5399-3.74V20.025h-1.3V9.3484h1.3Zm.1946-5.1412a.6502.6502 0 0 1-.0048.8414l-.0753.0743-6.743 5.658L10.583 7.596l-5.7463 4.8228a.6502.6502 0 0 1-.8414-.0048l-.0743-.0753a.6502.6502 0 0 1 .0048-.8414l.0753-.0743 6.743-5.6581L13.416 8.949l5.7473-4.822a.65.65 0 0 1 .9157.0802Z"/>
</g></svg>