<svg xmlns="http://www.w3.org/2000/svg" data-laicon-version="5.0" viewBox="0 0 20 20" fill="black"><g transform="translate(-2 -2)">
  <path d="M5.7663 5.7899v1.2636l-1.3201-.0003-.6435 12.3898 5.3831.001.0066.0208a3.6409 3.6409 0 0 1-.1714-1.1074c0-1.9469 1.5272-3.5369 3.449-3.6374l.1934-.005h5.1714c2.0117 0 3.6424 1.6306 3.6424 3.6424 0 1.9469-1.5272 3.537-3.449 3.6376l-.1934.005h-5.1714c-1.1438 0-2.1644-.5272-2.8322-1.3519l.0497.06-6.4032-.001a.952.952 0 0 1-.9532-.896l-.0003-.1084.6736-12.974c.0252-.4854.405-.8789.8782-.9326l.1107-.0062h1.5796Zm11.6056 12.1453h-.5122l-.0294.0333v.3693h-.9655l-.5833-.0124-.0337.0257v.449l.0294.0332.5876-.0123h.4533c-.2735.1366-.5807.2391-.9935.3583l-.2155.0612.3864.3902c.021.0219.038.0342.0547.0342.0123 0 .0251-.0047.046-.0123a4.3527 4.3527 0 0 0 .4201-.1391l.2014-.084v.2476a11.6685 11.6685 0 0 1-.3592.0292l-.1947.0126-.0295.038.1804.5202.038.0133c.6587-.1053 1.1836-.1974 1.683-.298.0345-.0064.0548-.0197.0647-.0472l.0064-.0325.0214-.2183c.2896.2601.638.4528 1.0618.5705a.058.058 0 0 0 .0518-.0107l.0194-.0188.403-.5079c-.3779-.0673-.6882-.168-.9526-.3151a5.8388 5.8388 0 0 0 .2763-.2052l.1432-.1138v-.0417l-.3275-.2307h.1557l.592.0123.0289-.0294v-.449l-.029-.0295-.5919.0124h-1.058v-.3731l-.0294-.0295Zm-2.7024-1.1126-.7054.0124h-1.6033l-.7053-.0124-.0332.0257.0038.7177v.9692l-.021 1.5322h.6465v-.357h1.7924v.3569h.6678l-.0214-1.5948v-.9065l.0128-.7177-.0337-.0257Zm2.3835 2.137c.1091.2012.2392.3863.3944.5544l-.3313.0549-.3318.0457v-.4785c.0925-.0588.1804-.1138.2687-.1765Zm-3.0092-1.591v1.8093h-1.7923v-1.8093h1.7923Zm4.0292-1.0243-.344.2601-.0043.038c.1132.0691.2125.136.2921.2008l.0729.064-.0461.0077-.3692.0512a3.3416 3.3416 0 0 1-.0976-.424l-.0244-.1646-.0295-.0285-.5496.0247-.0251.0333c.0278.1544.0578.3008.0908.4386l.052.2002-.6256.0665-.0294.0295.0797.4623.038.0161.7091-.1215c.1637.3313.3987.5753.785.7177.1681.0635.3275.0797.4785.0797.2772 0 .508-.1007.5876-.524.0064-.0385.0032-.062-.02-.0854l-.0303-.0238-.4281-.2734c-.0504.281-.0713.3446-.1681.3446-.1871 0-.3617-.0711-.5109-.2343l-.0724-.0894.252-.0332.6882-.0845.0418-.0456-.0711-.4243-.0504-.0294-.4741.0844.2724-.1936-.0038-.0418c-.0818-.0755-.1755-.144-.2934-.2176l-.1266-.0758-.046-.0047Zm-1.8007-.0085-.038.0048c-.2335.367-.5444.6844-.9274.9392l-.1975.122.3484.3114c.0213.021.0423.0295.0631.0295.0208 0 .0417-.0086.0712-.0257l.0945-.0613.0943-.065-.0209.6512h.5797v-1.121c.0978-.098.19-.1995.278-.3035l.1288-.1578-.0043-.0466-.4699-.2772ZM10.2993 2c1.8794 0 3.4145 1.4744 3.5115 3.3296l.005.1867-.0006.2727 2.597.0009c.486 0 .8986.3587.9769.8285l.012.1103.414 7.9853h-1.265l-.3974-7.6608-7.0892.0003V5.79l3.4877-.0009.0008-.2727c0-1.244-1.0085-2.2526-2.2526-2.2526-1.1923 0-2.1682.9262-2.2475 2.0984l-.0052.1542v1.5372H6.7831V5.5163C6.783 3.5743 8.3574 2 10.2994 2ZM8.0468 8.9678v1.4762H6.7831V8.9678h1.2636Zm5.769 0v1.4762H12.552V8.9678h1.2637Z"/>
</g></svg>