<svg xmlns="http://www.w3.org/2000/svg" data-laicon-version="5.0" viewBox="0 0 20 20" fill="black"><g transform="translate(-2 -2)">
  <path d="m12.2915 3.047.0888.054.7357.5301-1.107.804-.008-.0051-7.476 5.437v9.855h14.95V9.823l-6.357-4.5879 1.106-.805 6.2813 4.5329a.65.65 0 0 1 .2615.424l.0082.1031v10.382c0 .5927-.4486 1.0808-1.0247 1.1433l-.1253.0067H4.375c-.5927 0-1.0808-.4486-1.1433-1.0247l-.0067-.1253V9.5371a.65.65 0 0 1 .1895-.4587l.0782-.067 8.125-5.909a.65.65 0 0 1 .6738-.0553ZM9.1162 14.9356c.441 0 .8.358.8.801 0 .441-.359.8-.8.8-.442 0-.801-.359-.801-.8 0-.443.359-.801.801-.801Zm5.9446.1508a.65.65 0 0 1 .096 1.293l-.096.007h-3.47a.65.65 0 0 1-.096-1.293l.096-.007h3.47Zm-5.9446-3.1927c.441 0 .8.358.8.8 0 .442-.359.801-.8.801a.8015.8015 0 0 1-.801-.801c0-.442.359-.8.801-.8Zm5.9446.1498a.65.65 0 0 1 .096 1.293l-.096.007h-3.47a.65.65 0 0 1-.096-1.293l.096-.007h3.47Z"/>
</g></svg>