<svg xmlns="http://www.w3.org/2000/svg" data-laicon-version="5.0" viewBox="0 0 20 20" fill="black"><g transform="translate(-2 -2)">
  <path d="M16.892 3.1501c2.1784 0 3.958 1.7795 3.958 3.9579v9.7842c0 2.1782-1.7797 3.9578-3.958 3.9578H7.108c-2.1784 0-3.958-1.7795-3.958-3.9579V7.1c0-2.1739 1.776-3.9499 3.95-3.9499Zm0 1.3H7.1c-1.456 0-2.65 1.194-2.65 2.6499v9.7921c0 1.4604 1.1976 2.6579 2.658 2.6579h9.784c1.4604 0 2.658-1.1976 2.658-2.6578V7.108c0-1.4604-1.1976-2.6579-2.658-2.6579ZM12 7.9194c2.2537 0 4.0806 1.827 4.0806 4.0806 0 2.2537-1.827 4.0806-4.0806 4.0806-2.2537 0-4.0806-1.827-4.0806-4.0806 0-2.2537 1.827-4.0806 4.0806-4.0806Zm0 1.3c-1.5357 0-2.7806 1.245-2.7806 2.7806 0 1.5357 1.245 2.7806 2.7806 2.7806 1.5357 0 2.7806-1.245 2.7806-2.7806 0-1.5357-1.245-2.7806-2.7806-2.7806Zm0 1.0858c.936 0 1.6948.7588 1.6948 1.6948S12.936 13.6948 12 13.6948 10.3052 12.936 10.3052 12 11.064 10.3052 12 10.3052ZM7.2848 6.7485a.8321.8321 0 0 1 .5906.2448.8353.8353 0 1 1-1.1812 0 .8319.8319 0 0 1 .5906-.2448Z"/>
</g></svg>