<svg xmlns="http://www.w3.org/2000/svg" data-laicon-version="5.0" viewBox="0 0 20 20" fill="black"><g transform="translate(-2 -2)">
  <path d="M12 2.85c1.6286 0 3.1965.4266 4.5762 1.225a.65.65 0 1 1-.651 1.1252C14.742 4.5156 13.3984 4.15 12 4.15c-4.3355 0-7.85 3.5145-7.85 7.85s3.5145 7.85 7.85 7.85 7.85-3.5145 7.85-7.85c0-1.5713-.4625-3.0705-1.3096-4.3429l-6.9235 6.9254-3.3874-3.3874a.65.65 0 0 1 .8387-.9878l.0805.0686 2.4673 2.4671 8.099-8.0996a.65.65 0 0 1 .9878.8386l-.0685.0806-1.1591 1.1595C20.5562 8.25 21.15 10.0803 21.15 12c0 5.0535-4.0966 9.15-9.15 9.15-5.0534 0-9.15-4.0965-9.15-9.15 0-5.0535 4.0966-9.15 9.15-9.15Z"/>
</g></svg>