<svg xmlns="http://www.w3.org/2000/svg" data-laicon-version="13.0" viewBox="0 0 20 20" fill="black"><g transform="translate(-2 -2)">
  <path d="M11.323 7.176A9.62 9.62 0 0 0 4.5 4.35a9.71 9.71 0 0 0-1.607.133.65.65 0 0 0-.542.637L2.35 19.65h4.3v-6.617a9.615 9.615 0 0 0 2.2 1.092v-.272c.006-.367.03-.731.07-1.089A8.356 8.356 0 0 1 3.679 5.69a8.326 8.326 0 0 1 6.864 2.547c.239-.37.5-.724.78-1.061ZM3.65 18.35V9.84A9.69 9.69 0 0 0 5.357 12H5.35v6.35h-1.7ZM21.648 5.12a.65.65 0 0 0-.543-.637A9.71 9.71 0 0 0 19.5 4.35c-5.285 0-9.578 4.249-9.65 9.517v5.783h4.3v-5.24a9.6 9.6 0 0 0 3.201-1.379v6.62h4.3V5.12h-.002ZM20.35 9.84v8.511h-1.7V12h-.009a9.692 9.692 0 0 0 1.709-2.161Zm-7.502 3.533.001 4.978h-1.7v-4.474a8.35 8.35 0 0 1 9.172-8.186 8.356 8.356 0 0 1-6.461 7.452l-1.012.23Z"/>
</g></svg>