<svg xmlns="http://www.w3.org/2000/svg" data-laicon-version="5.0" viewBox="0 0 20 20" fill="black"><g transform="translate(-2 -2)">
  <path d="m6.4769 12.5162 9.2772 9.1702H7.682c-.4671 0-.8117-.157-1.1216-.4517L3.2497 17.914c-.5891-.5754-.6528-1.4949-.006-2.154l3.2332-3.244Zm15.1913-4.2983v8.072c0 .4672-.157.8118-.4517 1.1216l-3.229 3.2194-.1966.1898c-.5776.4957-1.4286.5163-2.049-.0924l-3.244-3.2332 9.1703-9.2772Zm-15.1859 6.072-2.345 2.3539c-.1318.1344-.1231.26-.0034.377l3.3034 3.3135c.0786.0748.1235.0952.2447.0952l5.0122-.0003-6.2119-6.1393Zm13.9285-3.0123-6.1393 6.2118 2.3541 2.3452c.1344.1319.26.1232.377.0035l3.3136-3.3034c.0747-.0787.0951-.1236.0951-.2447l-.0005-5.0124ZM6.1041 3.2864c.5753-.5892 1.4948-.6529 2.154-.006l3.244 3.2331-9.1703 9.2772v-8.072c0-.5208.1807-.861.5135-1.1837Zm1.2703.8876c-.1344-.1319-.26-.1232-.377-.0035L3.6676 7.4914c-.065.0724-.079.1202-.079.2272l.0002 5.0125L9.729 6.5193Zm8.9276-1.8604c.5207 0 .861.1807 1.1836.5135l3.2486 3.2588c.5892.5754.653 1.4949.006 2.154l-3.2331 3.244-9.2772-9.1703Zm0 1.2569-5.0122.0002L17.5006 9.71l2.346-2.3538c.1319-.1344.1232-.26.0035-.377l-3.3209-3.3297c-.0724-.065-.1201-.079-.2272-.079Z"/>
</g></svg>