<svg xmlns="http://www.w3.org/2000/svg" data-laicon-version="5.0" viewBox="0 0 20 20" fill="black"><g transform="translate(-2 -2)">
  <path d="M16.0433 2.997H6.738a.95.95 0 0 0-.822.474L2.385 9.5686h7.684V7.4205a.25.25 0 0 1 .4236-.1798l4.5526 4.3966a.35.35 0 0 1 .0078.495l-4.5545 4.7001a.25.25 0 0 1-.4295-.174v-2.1593H2.3777l3.5398 6.0345a.95.95 0 0 0 .8194.4694h9.3064a.95.95 0 0 0 .8237-.4768l4.629-8.0568a.95.95 0 0 0-.0002-.9468l-4.629-8.0492a.95.95 0 0 0-.8235-.4764Zm-.2029 1.3 4.428 7.699-4.428 7.706h-8.904l-2.29-3.903h4.122l.0006.8595c0 .856.694 1.55 1.55 1.55a1.55 1.55 0 0 0 1.1131-.4714l4.5545-4.7002c.5969-.616.6174-1.5775.0705-2.2188l-.1092-.1163-4.5522-4.3963c-.6157-.5946-1.597-.5775-2.1917.0382l-.0988.1128a1.55 1.55 0 0 0-.3362.964l-.0006.8475h-4.129l2.3-3.971h8.901Z"/>
</g></svg>