<svg xmlns="http://www.w3.org/2000/svg" data-laicon-version="5.0" viewBox="0 0 20 20" fill="black"><g transform="translate(-2 -2)">
  <path d="M12 2.75c5.1086 0 9.25 4.1414 9.25 9.25s-4.1414 9.25-9.25 9.25S2.75 17.1086 2.75 12 6.8914 2.75 12 2.75Zm0 1.3c-4.3907 0-7.95 3.5593-7.95 7.95 0 4.3907 3.5593 7.95 7.95 7.95 4.3907 0 7.95-3.5593 7.95-7.95 0-4.3907-3.5593-7.95-7.95-7.95Zm.74 5.0739c1.1764 0 2.13.9536 2.13 2.13s-.9536 2.13-2.13 2.13l-1.201-.0009.001 1.9409h-1.3V9.1239Zm-1.201 1.2991v1.66l1.201.0009a.83.83 0 0 0 .83-.83.83.83 0 0 0-.83-.83l-1.201-.0009Z"/>
</g></svg>