<svg xmlns="http://www.w3.org/2000/svg" data-laicon-version="5.0" viewBox="0 0 20 20" fill="black"><g transform="translate(-2 -2)">
  <path d="M16.5943 3.35c2.0159 0 3.65 1.6342 3.65 3.65v7.5675c0 2.0158-1.6341 3.65-3.65 3.65L7.519 18.217l-2.1398 2.1524c-.5717.5748-1.535.2123-1.6177-.562l-.0057-.1081V7c0-2.016 1.6341-3.65 3.65-3.65Zm0 1.3H7.4058c-1.298 0-2.35 1.0521-2.35 2.35L5.055 18.851l1.9248-1.9335h9.6145c1.298 0 2.35-1.0521 2.35-2.35V7c0-1.298-1.052-2.35-2.35-2.35Zm-2.4957 7.6002v1.3H9.9014v-1.3h4.1972Zm.2623-3.8191c.5523 0 1 .4477 1 1s-.4477 1-1 1-1-.4477-1-1 .4477-1 1-1Zm-4.7218 0c.5523 0 1 .4477 1 1s-.4477 1-1 1-1-.4477-1-1 .4477-1 1-1Z"/>
</g></svg>