<svg xmlns="http://www.w3.org/2000/svg" data-laicon-version="5.4" viewBox="0 0 20 20" fill="black"><g transform="translate(-2 -2)">
  <path d="M18.671 17.137a.66.66 0 0 1-.471-1.121 8.673 8.673 0 0 0 .042-12.1A.659.659 0 0 1 19.19 3a9.993 9.993 0 0 1-.048 13.944.656.656 0 0 1-.471.193zm-12.736-.063a.66.66 0 0 0-.01-.932 8.678 8.678 0 0 1-.044-12.358.659.659 0 1 0-.929-.935A9.995 9.995 0 0 0 5 17.083a.658.658 0 0 0 .932-.009zm2.646-2.647a.66.66 0 0 0-.015-.932 4.939 4.939 0 0 1-.044-7.068.659.659 0 0 0-.922-.937 6.256 6.256 0 0 0 .054 8.953.659.659 0 0 0 .932-.016zm7.92-.135a6.246 6.246 0 0 0 .05-8.646.659.659 0 1 0-.958.905 4.928 4.928 0 0 1-.04 6.825.659.659 0 0 0 .948.916zm-1.912-4.243a2.461 2.461 0 1 0-3.113 2.371v8.264a.659.659 0 0 0 1.318 0v-8.268a2.46 2.46 0 0 0 1.795-2.367z"/>
</g></svg>