<svg xmlns="http://www.w3.org/2000/svg" data-laicon-version="5.0" viewBox="0 0 20 20" fill="black"><g transform="translate(-2 -2)">
  <path d="M13.839 3.726c.4296.292.775.6186 1.0713.9787l.0993.126.0184-.0025c3.1621-.5166 5.025 1.664 4.9318 4.0592l-.0097.1675a.9465.9465 0 0 1-1.8873-.145c.1115-1.4524-.9973-2.7086-3.2204-2.1063a.9465.9465 0 0 1-1.0504-.4125c-.6936-1.1113-1.6017-1.7568-3.0115-1.4766l-.1386.0309-.1375.0574c-1.0537.4712-1.6366 1.3171-1.7953 2.65l-.0236.2403a.9465.9465 0 0 1-.8611.869c-1.841.161-2.7195 1.0832-2.8534 3.0217a.9465.9465 0 0 1-.236.5627c-.0885.0999-.2472.3179-.4098.6206-.4905.9137-.5937 1.838-.1042 2.7415 1.0013 1.9615 4.2372 3.5534 7.9721 3.4289 3.4069-.1618 5.7323-1.167 6.8874-2.4753l.1235-.1466c.9877-1.09 1.3008-2.611.1321-4.1066a.9465.9465 0 1 1 1.4916-1.1655c1.8329 2.3457 1.3185 4.8442-.1839 6.4996-1.4317 1.786-4.3133 3.093-8.3742 3.2857-4.4339.148-8.3713-1.7892-9.7236-4.4387-.8278-1.5267-.6526-3.0952.1114-4.5184a6.1224 6.1224 0 0 1 .401-.6502l.0506-.069.0249-.2053C3.4335 8.9279 4.662 7.508 6.7005 7.0276l.1964-.0429.0046-.0224C7.234 5.205 8.208 3.937 9.785 3.2513l.2294-.094.11-.0349c1.4195-.3561 2.674-.1042 3.7146.6035Zm-.699 5.0074a.675.675 0 1 1 0 1.35.675.675 0 0 1 0-1.35Zm2.2643 0a.675.675 0 1 1 0 1.35.675.675 0 0 1 0-1.35Z"/>
</g></svg>