<svg xmlns="http://www.w3.org/2000/svg" data-laicon-version="5.0" viewBox="0 0 20 20" fill="black"><g transform="translate(-2 -2)">
  <path d="M12 2.75c5.1086 0 9.25 4.1414 9.25 9.25s-4.1414 9.25-9.25 9.25S2.75 17.1086 2.75 12 6.8914 2.75 12 2.75Zm0 1.3c-4.3907 0-7.95 3.5593-7.95 7.95 0 4.3907 3.5593 7.95 7.95 7.95 4.3907 0 7.95-3.5593 7.95-7.95 0-4.3907-3.5593-7.95-7.95-7.95Zm2.2588 9.0135 1.3913 1.9074h.0182v-1.9074h.7914v3.2807h-.6595l-1.3981-1.9256h-.0182v1.9256h-.7914v-3.2807h.6663Zm1.3232-5.3334.7072.7072-7.8615 7.8615-.7072-.7072 7.8615-7.8615Zm-5.3878.014v3.5181h-.8898V8.5293h-.017l-.8802.595v-.7705l.8947-.6097h.8923Z"/>
</g></svg>