<svg xmlns="http://www.w3.org/2000/svg" data-laicon-version="5.0" viewBox="0 0 20 20" fill="black"><g transform="translate(-2 -2)">
  <path d="M17.6083 7.2504 20.4167 12l-2.8084 4.7496H6.376L3.5845 12 6.376 7.2504h11.2322Zm-6.5598 1.299L7.119 8.55 5.092 12l2.027 3.449 4.3985-.0006L13.662 11.91l-.4605-.7316-2.0101 3.1945-.007-.0045.0003.0025H7.7948L6.3902 12l1.4046-2.371 2.5997-.0006.654-1.079Zm5.8175.0006-4.2975-.0006-2.0215 3.3394.3355.5336 1.7538-2.7861.0022.0011.0009-.0083h3.5698L17.6056 12l-1.3964 2.371-2.5177-.0006-.654 1.078 3.8285.0006 2.04-3.45-2.04-3.449Zm-7.2585 2.3784-1.0725.0006L7.9 12l.635 1.07 1.2185.0004-.7355-1.1687.5895-.9733Zm5.8585.0006-.8865-.0006.6106.9697-.7106 1.1713.9865.0006.631-1.071-.631-1.07Z"/>
</g></svg>