<svg xmlns="http://www.w3.org/2000/svg" data-laicon-version="9.0" viewBox="0 0 20 20" fill="black"><g transform="translate(-2 -2)">
  <path d="M9.683 5.995a2.317 2.317 0 0 1 4.634 0v.281H10.73v1.3h7.292l.662 12.746H5.317l.662-12.746h1.357v-1.3H5.711c-.538 0-.989.428-1.017.966L4.001 20.59a.98.98 0 0 0 .981 1.033h14.036a.98.98 0 0 0 .98-1.033l-.692-13.347a1.024 1.024 0 0 0-1.018-.966h-2.67v-.281a3.617 3.617 0 0 0-7.236 0v1.581h1.3V5.995zm-1.3 5.069V9.546h1.3v1.518h-1.3zm5.934-1.518v1.518h1.3V9.546h-1.3z"/>
</g></svg>