<svg xmlns="http://www.w3.org/2000/svg" data-laicon-version="5.0" viewBox="0 0 20 20" fill="black"><g transform="translate(-2 -2)">
  <path d="m3.8162 2 1.23 2.945c.3825.9155.8754 1.7405 1.5679 2.534.3275.329.8518.8305 1.5188 1.4561l.9754.909 1.0936 1.0082c.9565.8938 1.493 2.0357 1.5259 3.5956.0039.4135.0064.9306.0075 1.5513L11.7223 22 9.638 20.0437c-1.8967-1.7846-3.0255-2.8661-3.4144-3.2715l-.316-.3368c-1.2112-1.3184-2.0914-2.9864-2.0914-4.302l-.001-2.7833-.0035-.0676a4.2592 4.2592 0 0 1-.006-.221l.0077-.6082L3.8162 2ZM20.183 2l.0012 6.3328.0094.7286a4.2593 4.2593 0 0 1-.0061.2211l-.0037.0676-.0008 2.7834c0 1.3155-.8802 2.9835-2.0913 4.302l-.316.3367c-.0325.0338-.07.0723-.1127.1154l-.1436.1438c-.6363.6315-2.0173 1.9436-4.1707 3.9634L12.2769 22l-.013-6.0008c.0011-.6207.0036-1.1378.0075-1.5513.033-1.5599.5694-2.7018 1.526-3.5956l1.0935-1.0082.9754-.909c.667-.6256 1.1912-1.1272 1.5188-1.4561.6925-.7935 1.1854-1.6185 1.5678-2.534L20.183 2ZM5.0948 7.6219l.0006.605-.0097.8697.0108.2158c.0162.1883.0537.3718.1149.576.138.3514.3588.701.6857 1.1143l.4558.5484c.1397.156.3272.345.6166.6243l1.1128 1.0703c.037.0347.0743.0692.1125.1039l.243.2156.3898.3357a3.115 3.115 0 0 1 .1732.162l.0697.0743c.1284.1438.1907.2658.1907.4884v1.4455l-1.07-.972-3.0925-2.8869.0055.101c.0843.9233.789 2.208 1.753 3.2645l.1962.208c.1022.1179.4288.4419.9733.9659l2.4261 2.3019.003-1.2288-.0073-3.3573c-.0254-1.1983-.4097-2.0162-1.1154-2.6758l-1.0948-1.0093-1.201-1.121a93.5093 93.5093 0 0 1-.771-.733l-.587-.5766a11.0825 11.0825 0 0 1-.5087-.625l-.0758-.1048Zm13.8096 0-.0759.1047c-.1579.2094-.327.4175-.5087.6251l-.587.5766a93.5098 93.5098 0 0 1-.771.733l-1.201 1.121-1.0947 1.0093c-.7057.6596-1.09 1.4775-1.1154 2.6758l-.0074 3.3573.003 1.2288 2.1594-2.0459c.7055-.6754 1.1221-1.086 1.24-1.2218l.1962-.2081c.9641-1.0564 1.6688-2.3412 1.7531-3.2646l.0054-.1009-3.0925 2.8869-1.07.972v-1.4455c0-.2226.0624-.3446.1908-.4884l.0697-.0743a3.115 3.115 0 0 1 .1732-.162l.3897-.3357.2431-.2156c.0381-.0347.0755-.0692.1124-.1039l1.1129-1.0703c.2894-.2792.4769-.4682.6166-.6243l.4558-.5484c.327-.4133.5477-.763.6857-1.1142.0612-.2043.0987-.3878.1149-.576l.0108-.216-.0097-.8697.0006-.605Z"/>
</g></svg>