<svg xmlns="http://www.w3.org/2000/svg" data-laicon-version="5.0" viewBox="0 0 20 20" fill="black"><g transform="translate(-2 -2)">
  <path d="m12.6502 2.875-.0007 2.369 5.0201.0006c1.9866 0 3.6092 1.5586 3.7118 3.5196l.0052.1974v8.908c.0003 1.779-1.4329 3.2412-3.2068 3.2552-1.3283.0104-2.067-.2895-3.4343-1.1627l-.311-.1962c-.9693-.5982-1.5518-.8103-2.4346-.8103-.8715 0-1.5089.2346-2.4035.7902l-.607.3833c-1.2025.7447-1.9287 1.0053-3.1684.9957-1.7743-.0137-3.2075-1.474-3.2075-3.253v-8.915c0-2.0521 1.6636-3.7122 3.717-3.7122l5.019-.0006.0007-2.369h1.3Zm5.0194 3.6696H6.3305c-1.336 0-2.417 1.0787-2.417 2.4123v8.9149c0 1.0681.8605 1.9449 1.9176 1.953 1.0165.008 1.551-.209 2.7261-.9597l.3486-.2206c1.0867-.675 1.9395-.989 3.0941-.989 1.2577 0 2.061.328 3.3643 1.1593l.3075.1945c1.0203.6345 1.549.823 2.4979.8155 1.0564-.0083 1.917-.8865 1.917-1.9551V8.9616c0-1.3348-1.0822-2.417-2.417-2.417Zm-2.2741 6.6324a.65.65 0 0 1 .2856.8738c-.6599 1.3006-2.0914 2.1408-3.6809 2.1408-1.5889 0-3.02-.8396-3.6802-2.1395a.65.65 0 1 1 1.159-.5887c.434.8543 1.4121 1.4282 2.5212 1.4282 1.1095 0 2.088-.5743 2.5215-1.429a.65.65 0 0 1 .8738-.2856Zm-.6525-4.5685c1.009 0 1.8271.818 1.8271 1.827 0 1.0092-.818 1.8272-1.8271 1.8272-1.009 0-1.8271-.818-1.8271-1.8271s.818-1.8271 1.8271-1.8271Zm-4.759.1072L9.9835 9.785l1.0704.0006v1.3l-1.0704-.0006.0005 1.0705h-1.3l-.0005-1.0705-1.0694.0006v-1.3l1.0694-.0006.0005-1.0693h1.3Zm4.759 1.1928a.5271.5271 0 1 0 0 1.0542.5271.5271 0 0 0 0-1.0542Z"/>
</g></svg>