<svg xmlns="http://www.w3.org/2000/svg" data-laicon-version="18.14" viewBox="0 0 20 20" fill="black"><g transform="translate(-2 -2)">
  <path d="M11.64 8.02a.404.404 0 0 1 .72 0l.845 1.66 1.84.292c.325.051.454.45.222.682l-1.317 1.318.291 1.84a.403.403 0 0 1-.582.421L12 13.388l-1.66.845a.403.403 0 0 1-.58-.421l.29-1.84-1.317-1.318a.403.403 0 0 1 .223-.682l1.839-.292.846-1.66Z"/>
  <path d="M12.007 2.72c2.49 0 4.865.504 7.026 1.416.788.332 1.251 1.11 1.251 1.925v6.026a8.256 8.256 0 0 1-2.424 5.852c-1.32 1.321-3.212 2.361-4.971 3.178-.56.26-1.205.26-1.764 0-1.759-.817-3.65-1.857-4.97-3.178a8.252 8.252 0 0 1-2.426-5.852V6.06c0-.815.464-1.593 1.251-1.925a18.028 18.028 0 0 1 7.027-1.416Zm0 1.3c-2.314 0-4.517.468-6.52 1.314a.776.776 0 0 0-.457.727v6.026c0 1.927.78 3.67 2.043 4.933 1.152 1.152 2.869 2.114 4.6 2.919a.795.795 0 0 0 .669 0c1.731-.805 3.447-1.767 4.598-2.919a6.956 6.956 0 0 0 2.044-4.933V6.06a.776.776 0 0 0-.456-.727 16.73 16.73 0 0 0-6.521-1.313Z"/>
</g></svg>