<svg xmlns="http://www.w3.org/2000/svg" data-laicon-version="5.0" viewBox="0 0 20 20" fill="black"><g transform="translate(-2 -2)">
  <path d="M14.8678 3.5089c2.9507 0 5.362 2.2839 5.4778 5.1515l.0044.2161v10.9646h-1.3V8.8765c0-2.1751-1.7573-3.9566-3.9732-4.0626l-.209-.005H9.1317c-2.2429 0-4.0681 1.7157-4.1767 3.8649l-.0051.2027v5.6002c0 2.1747 1.7573 3.9562 3.9728 4.0622l.209.005h5.9082v1.3H9.1317c-2.9503 0-5.3616-2.2839-5.4774-5.151l-.0044-.2162V8.8765c0-2.8956 2.3393-5.2502 5.2616-5.3633l.2202-.0043h5.7361Z"/>
</g></svg>