<svg xmlns="http://www.w3.org/2000/svg" data-laicon-version="5.0" viewBox="0 0 20 20" fill="black"><g transform="translate(-2 -2)">
  <path d="M8.5308 3.345c2.0218-1.8367 5.151-1.7784 7.1022.1745l4.8486 4.8512c2.0049 2.0059 2.0107 5.2552.013 7.2683l-4.7919 4.8286-.0033-.0036-.0084.016-.1794.1715c-2.0227 1.8412-5.1436 1.7781-7.0916-.1565l-4.888-4.8521-.1855-.1938c-1.8369-2.0216-1.779-5.1508.1734-7.1025l4.8302-4.8287ZM8.252 16.179l-2.3352-.0012 3.419 3.3946c1.4042 1.3945 3.6238 1.4882 5.1248.2697l.1638-.1407.1339-.1294.4605-.4642.001-2.522a5.5788 5.5788 0 0 1-3.0082 1.0176l-.2202.0043c-1.4367 0-2.7472-.5403-3.7394-1.4288Zm10.5388-7.6612-2.4032.0005A5.5839 5.5839 0 0 1 17.5992 12c0 1.2158-.3869 2.3413-1.0443 3.26l.4821.4822a.9.9 0 0 1-1.1185 1.3966l.0004 1.263 3.653-3.6786c1.4419-1.453 1.4875-3.7675.14-5.2752l-.1498-.1583-.7712-.7719Zm-6.7994-.3255C9.8886 8.1923 8.184 9.8971 8.184 12c0 2.103 1.7047 3.8077 3.8076 3.8077 2.103 0 3.8077-1.7048 3.8077-3.8077 0-2.103-1.7047-3.8077-3.8077-3.8077ZM7.794 5.9108 4.439 9.266c-1.5038 1.5033-1.5041 3.941-.0017 5.4439l.7746.768 2.381.0008a5.5816 5.5816 0 0 1-1.2048-3.2584L6.3839 12c0-1.4261.5323-2.7279 1.4091-3.7174l.001-2.3718Zm6.9195-1.4724c-1.5027-1.5041-3.9404-1.5048-5.4443-.0017l-.7752.7741.0002 2.4055a5.5818 5.5818 0 0 1 3.2772-1.2197l.2202-.0043c1.4348 0 2.7437.5389 3.7355 1.4252l2.365.0003Z"/>
</g></svg>