<svg xmlns="http://www.w3.org/2000/svg" data-laicon-version="5.0" viewBox="0 0 20 20" fill="black"><g transform="translate(-2 -2)">
  <path d="M18.5774 3.3179c.635 0 1.15.515 1.15 1.15v14.7848l-2.0656 1.4294-1.4158-.9803-1.415.9803-1.416-.9803L12 20.682l-1.416-.9803-1.4148.9803-1.4162-.9803-1.4147.9803-2.0655-1.4295V4.468c0-.6352.515-1.15 1.1502-1.15Zm-.1504 1.2999H5.572v13.953l.766.53 1.4157-.9793 1.4153.9793 1.4155-.9793L12 19.1008l1.4155-.9793 1.4155.9793 1.4155-.9793 1.4145.9793.766-.53V4.6178Zm-2.5585 8.8137v1.3h-1.7693v-1.3h1.7693Zm-2.9489 0v1.3H8.2015v-1.3h4.7181Zm2.9489-2.65v1.3h-1.7693v-1.3h1.7693Zm-2.9489 0v1.3H8.2015v-1.3h4.7181Zm0-2.65v1.3H8.2015v-1.3h4.7181Zm2.9489 0v1.3h-1.7693v-1.3h1.7693Z"/>
</g></svg>