<svg xmlns="http://www.w3.org/2000/svg" data-laicon-version="17.5" viewBox="0 0 20 20" fill="black"><g transform="translate(-2 -2)">
  <path d="M7.6 9.8a.3.3 0 0 1 .3-.3h.7a.3.3 0 0 1 .3.3v1.55h1.55a.3.3 0 0 1 .3.3v.7a.3.3 0 0 1-.3.3H8.9v1.55a.3.3 0 0 1-.3.3h-.7a.3.3 0 0 1-.3-.3v-1.55H6.05a.3.3 0 0 1-.3-.3v-.7a.3.3 0 0 1 .3-.3H7.6V9.8Zm7.5 3.45a1.25 1.25 0 1 1-2.5 0 1.25 1.25 0 0 1 2.5 0ZM17 12a1.25 1.25 0 1 0 0-2.5 1.25 1.25 0 0 0 0 2.5Z"/>
  <path d="M2.55 7.9A3.15 3.15 0 0 1 5.7 4.75h12.6a3.15 3.15 0 0 1 3.15 3.15V18a1.15 1.15 0 0 1-1.15 1.15H3.7A1.15 1.15 0 0 1 2.55 18V7.9ZM5.7 6.05A1.85 1.85 0 0 0 3.85 7.9v9.95h16.3V7.9a1.85 1.85 0 0 0-1.85-1.85H5.7Z"/>
</g></svg>