<svg xmlns="http://www.w3.org/2000/svg" data-laicon-version="5.0" viewBox="0 0 20 20" fill="black"><g transform="translate(-2 -2)">
  <path d="M14.9774 2.9027a.65.65 0 0 1 .65.65l-.0004.425 3.073.0005c.5917 0 1.0807.4495 1.1432 1.0249l.0068.1251v14.8191c0 .5917-.4495 1.0807-1.0249 1.1432l-.1251.0068H5.3c-.5917 0-1.0807-.4495-1.1432-1.0249l-.0068-.1251V5.1282c0-.5917.4495-1.0807 1.0249-1.1432L5.3 3.9782l3.314-.0005.0006-.425a.6502.6502 0 0 1 .554-.643l.096-.007ZM8.614 5.2777 5.45 5.278v14.519h13.1V5.278l-2.923-.0003.0004.4259a.6502.6502 0 0 1-.554.643l-.096.007H9.2646a.65.65 0 0 1-.65-.65l-.0006-.4259Zm7.6094 9.0398v1H8.0186v-1h8.2048Zm-1.1872-3.9589c.125.001.154.0289.1549.1516.0013.1729.0049.3459-.0016.5186-.0031.0808.0307.1086.1011.1355.4058.1548.81.3138 1.2126.4766.0675.0274.175.0902.1858.1226.0108.0324.0048.0451 0 .0649-.0744.139-.1502.2773-.223.4172-.0462.0889-.0813.1281-.1346.1281-.0351 0-.078-.017-.1372-.048-.2896-.1516-.5816-.2985-.8733-.4458-.0361-.0183-.0766-.0276-.1295-.046v.1361c0 .3925-.0019.7849.0016 1.1775.0007.0816-.0152.1476-.0836.1956h-.541c-.069-.0469-.0867-.1121-.0865-.1941.0022-.8715.0011-1.743.0016-2.6145 0-.1545.0218-.1753.1744-.1759Zm-1.5436-.03c.0433 0 .0884.0336.1688.0998.0777.0644.1561.128.2332.1929.0973.0819.1008.1452.0021.2294a39.3147 39.3147 0 0 1-.7631.6366c-.0593.048-.0856.0941-.0852.1708.0029.5008.0017 1.0018.0013 1.5028-.0002.1411-.0229.1646-.1616.1661a16.6669 16.6669 0 0 1-.187.0011l-.0903-.0003-.0903-.0009c-.1302-.0018-.1591-.0297-.1596-.161-.0015-.3496-.0005-.6992-.0009-1.0488 0-.0317-.0032-.0637-.0059-.1152-.2049.0994-.3912.1912-.5786.2803-.1072.051-.2175.0957-.3243.1473a.1544.1544 0 0 1-.067.0175c-.0406 0-.0737-.0226-.0994-.0647a6.7066 6.7066 0 0 1-.205-.3555c-.0473-.0892-.0183-.1448.0863-.1931.2383-.11.4804-.2126.7137-.3325.5395-.2775 1.0065-.6558 1.449-1.0663.0767-.0711.1194-.1063.1638-.1063Zm-4.9175.1808a.839.839 0 0 1 .0789.0048c.1145.0113.2285.0279.3422.0454.0788.012.148.0756.1334.1451-.0147.0696-.1515.7539-.2417 1.1273-.11.4554-.2655.8961-.4789 1.3147-.0486.0953-.0836.137-.1397.137-.0355 0-.0794-.0167-.1406-.0472a63.5424 63.5424 0 0 1-.309-.1545c-.1332-.067-.1511-.1166-.0833-.2455a5.7298 5.7298 0 0 0 .4647-1.1937c.0841-.3157.1514-.6359.2214-.9551.0304-.1389.0499-.1783.1526-.1783Zm1.319-.0199c.0493 0 .0882.0278.1158.0892.3384.7489.6063 1.5215.7821 2.3251.0046.021.006.0427.009.0642.0005.0623-.0482.1122-.0923.1265a5.0793 5.0793 0 0 1-.4786.1276.1463.1463 0 0 1-.0309.0035c-.0668 0-.0969-.0565-.1145-.1252-.0831-.3235-.1574-.6499-.2561-.9685-.1328-.4286-.2837-.8515-.4299-1.2756-.0391-.1134-.028-.1584.0792-.2056l.338-.1425c.0284-.0122.0545-.0187.0782-.0187Zm.4216-.214c.0265 0 .0501.0136.0667.0305.022.0226.2823.5717.2846.6039.0024.0324-.0131.0638-.0705.0938-.1.0515-.1599.0803-.201.0803-.0578 0-.0784-.0566-.1208-.186-.0372-.1266-.096-.2474-.1512-.3679-.0604-.1321-.0571-.149.0764-.2124a.9832.9832 0 0 1 .0886-.0374.081.081 0 0 1 .0272-.0048Zm.4339-.1756c.0373 0 .0535.0429.0639.0661.0855.1891.229.5299.2457.572.0166.0422-.007.0752-.0281.0896-.0587.0401-.1236.0769-.1913.095a.0416.0416 0 0 1-.0115.0015c-.0285 0-.0707-.0217-.0889-.062a41.2215 41.2215 0 0 1-.2293-.5444c-.0231-.0561-.0215-.1045.0448-.1328.0592-.0254.0976-.0455.1661-.0778a.068.068 0 0 1 .0286-.0072ZM14.327 4.202H9.914v.851h4.413v-.851Z"/>
</g></svg>