<svg xmlns="http://www.w3.org/2000/svg" data-laicon-version="18.15" viewBox="0 0 20 20" fill="black"><g transform="translate(-2 -2)">
  <path d="M2.45 15.916V7.795c0-3.198 3.866-4.8 6.128-2.54l4.651 4.648a5.83 5.83 0 0 1 1.71 4.124v1.888a2.655 2.655 0 1 0 5.311 0V7.81c0-2.04-2.47-3.061-3.912-1.616l-1.68 1.684a.65.65 0 1 1-.92-.918l1.68-1.684c2.26-2.266 6.132-.666 6.132 2.534v8.104a3.956 3.956 0 0 1-7.912 0v-1.888a4.53 4.53 0 0 0-1.328-3.204L7.66 6.175c-1.443-1.442-3.909-.42-3.909 1.62v8.12a2.654 2.654 0 0 0 5.308 0v-4.034a.65.65 0 0 1 1.3 0v4.035a3.954 3.954 0 0 1-7.908 0Z"/>
</g></svg>