<svg xmlns="http://www.w3.org/2000/svg" data-laicon-version="5.0" viewBox="0 0 20 20" fill="black"><g transform="translate(-2 -2)">
  <path d="M16.8243 3.8883 14.237 6.475 5.6108 4.2468a1.3386 1.3386 0 0 0-1.2814.3496L2.9936 5.9322l-.0676.0791c-.2204.3037-.1382.7437.1982.9411L9.639 10.776l-.1284.1533c-.4669.554-.9491 1.1078-1.4198 1.6235l-.2454.2665-.4134.4367-2.0028-.758a1.3385 1.3385 0 0 0-1.4206.3052l-1.1554 1.1554-.0693.0815c-.2047.2852-.1465.6926.149.9055L6.491 17.508l2.5634 3.5594c.2342.325.7038.3629.987.0796l1.1554-1.1554.0952-.1059c.2963-.3669.3796-.867.21-1.3145l-.759-2.0032.1831-.174c.1653-.157.3393-.3188.521-.4846a51.379 51.379 0 0 1 1.071-.9489l.7049-.6005 3.8246 6.516c.2154.367.7194.4316 1.0202.1307l1.336-1.3361.0945-.105a1.3385 1.3385 0 0 0 .255-1.1763L17.524 9.763l2.588-2.587c1.1619-1.1622 1.6769-3.0975.7432-4.031-.9335-.9337-2.869-.4187-4.031.7433Zm3.1116.1759c.2919.2918-.022 1.4711-.7432 2.1925L16.343 9.1063a.65.65 0 0 0-.1697.6222l2.3214 8.986-.0002.0198-.01.017-.7425.7417-3.7829-6.4484c-.2011-.3427-.66-.4263-.969-.1766l-.7572.6275c-.5661.4771-1.1324.9702-1.6621 1.4536l-.276.2542-.2638.2478a27.2512 27.2512 0 0 0-.5052.4916.65.65 0 0 0-.1482.6899l.9088 2.399.0016.0217-.0038.0102-.6222.6235-2.1782-3.0234-.1474-.1474L4.312 14.337l.6158-.6146a.0385.0385 0 0 1 .041-.0087l2.3988.9087a.65.65 0 0 0 .69-.1482l.324-.3302a37.5702 37.5702 0 0 0 .6694-.7148c.4834-.5297.9765-1.096 1.4537-1.662l.3144-.376.3131-.3812.0555-.0802c.1785-.3036.082-.7045-.2321-.8889L4.507 6.256l.7418-.7405a.0386.0386 0 0 1 .037-.01l8.9858 2.3214a.65.65 0 0 0 .6222-.1697l2.8497-2.8497c.7213-.7213 1.9007-1.0351 2.1924-.7433Z"/>
</g></svg>