<svg xmlns="http://www.w3.org/2000/svg" data-laicon-version="13.0" viewBox="0 0 20 20" fill="black"><g transform="translate(-2 -2)">
  <path d="M14.856 12.097a.648.648 0 0 0-1.125-.643c-.13.226-.384.475-.72.67-.336.192-.699.3-1.011.3-.633 0-1.353-.447-1.766-1.025a.648.648 0 0 0-1.055.753c.584.818 1.659 1.568 2.82 1.568.586 0 1.17-.192 1.658-.473.486-.28.93-.678 1.2-1.15ZM9.806 9.88a.798.798 0 1 0 0-1.595.798.798 0 0 0 0 1.596Zm5.185-.797a.798.798 0 1 1-1.595 0 .798.798 0 0 1 1.595 0Z"/>
  <path d="M17.672 4.63c-3.111-3.038-8.246-3.038-11.357 0-3.21 3.14-3.32 8.44-.106 11.69l4.93 4.986c.25.255.583.342.867.342.289 0 .588-.088.843-.26a.643.643 0 0 0 .098-.082l4.93-4.986.008-.008c3.11-3.254 2.99-8.441-.205-11.674l-.008-.008ZM7.13 15.41c-2.702-2.733-2.614-7.207.09-9.851 2.606-2.545 6.933-2.546 9.54-.004 2.716 2.75 2.793 7.13.19 9.859l-4.865 4.92a.234.234 0 0 1-.069.018L7.131 15.41Z"/>
</g></svg>