<svg xmlns="http://www.w3.org/2000/svg" data-laicon-version="11.1" viewBox="0 0 20 20" fill="black"><g transform="translate(-2 -2)">
  <path d="M4.65 5.3A1.35 1.35 0 0 0 3.3 6.65v9.472A2.57 2.57 0 0 0 5.854 18.7h.01a4.5 4.5 0 0 0 2.76-.874l.02-.013.6-.381a4.76 4.76 0 0 1 2.75-.902h.01a4.77 4.77 0 0 1 2.796.925l.318.205.024.019A4.78 4.78 0 0 0 18.15 18.7a2.59 2.59 0 0 0 2.549-2.59V6.65a1.35 1.35 0 0 0-1.35-1.35H4.65Zm-1.874-.524A2.65 2.65 0 0 1 4.65 4h14.7A2.65 2.65 0 0 1 22 6.65v9.46A3.89 3.89 0 0 1 18.17 20h-.002a6.08 6.08 0 0 1-3.805-1.28l-.303-.195-.017-.013a3.47 3.47 0 0 0-2.042-.682 3.46 3.46 0 0 0-2.008.665l-.017.013-.6.38A5.8 5.8 0 0 1 5.841 20 3.87 3.87 0 0 1 2 16.119V6.65c0-.703.28-1.377.776-1.874ZM8.15 9v1.85H10v1.3H8.15V14h-1.3v-1.85H5v-1.3h1.85V9h1.3Zm4.5-1.7v-2h-1.3v2h1.3Zm3.85 3.2a1 1 0 1 0 0-2 1 1 0 0 0 0 2Zm-2 2a1 1 0 1 0 0-2 1 1 0 0 0 0 2Zm2 2a1 1 0 1 0 0-2 1 1 0 0 0 0 2Zm3-3a1 1 0 1 1-2 0 1 1 0 0 1 2 0Z"/>
</g></svg>