<svg xmlns="http://www.w3.org/2000/svg" data-laicon-version="5.0" viewBox="0 0 20 20" fill="black"><g transform="translate(-2 -2)">
  <path d="M19.9199 3.65c.6352 0 1.15.5149 1.15 1.15v14.4c0 .6351-.5148 1.15-1.15 1.15H4.0801c-.6352 0-1.15-.5149-1.15-1.15V4.8c0-.6351.5148-1.15 1.15-1.15Zm-.1518 4.655H4.2291L4.23 19.05h15.539l-.0009-10.745Zm-9.2693 2.9762 4.071 2.3505-4.071 2.3503v-4.7008ZM5.3241 4.949H4.23l-.0009 2.056h3.151l-2.056-2.056Zm14.4449 0h-3.1719l2.057 2.056h1.114l.0009-2.056Zm-5.0099 0h-2.879l2.056 2.056h2.879l-2.056-2.056Zm-4.718 0h-2.879l2.056 2.056h2.88l-2.057-2.056Z"/>
</g></svg>