<svg xmlns="http://www.w3.org/2000/svg" data-laicon-version="9.0" viewBox="0 0 20 20" fill="black"><g transform="translate(-2 -2)">
  <path d="M9.425 3.893a8.006 8.006 0 0 0-.673 3.674v.005a7.992 7.992 0 0 0 7.565 7.566 7.975 7.975 0 0 0 3.797-.718c-.22 2.286-.787 3.56-1.665 4.333-1.08.953-2.96 1.447-6.44 1.447-3.667 0-5.554-.548-6.607-1.6C4.35 17.55 3.8 15.662 3.8 11.99c0-3.454.484-5.335 1.419-6.42.752-.874 1.988-1.446 4.206-1.677zM20.66 12.61c-1.2.85-2.68 1.32-4.27 1.23a6.692 6.692 0 0 1-6.34-6.34c-.08-1.55.36-2.99 1.17-4.16a.537.537 0 0 0-.46-.84c-6.39.24-8.26 2.52-8.26 9.49 0 7.4 2.12 9.51 9.51 9.51 7.02 0 9.28-1.91 9.49-8.44a.53.53 0 0 0-.84-.45zM16.75 3.8a3.454 3.454 0 0 1 3.45 3.45 3.454 3.454 0 0 1-3.45 3.45 3.454 3.454 0 0 1-3.45-3.45 3.454 3.454 0 0 1 3.45-3.45zm4.75 3.45c0-2.62-2.13-4.75-4.75-4.75S12 4.63 12 7.25 14.13 12 16.75 12s4.75-2.13 4.75-4.75z"/>
</g></svg>