<svg xmlns="http://www.w3.org/2000/svg" data-laicon-version="5.0" viewBox="0 0 20 20" fill="black"><g transform="translate(-2 -2)">
  <path d="m20.2857 2.1035-.6068 7.3132L22 9.417 20.6283 17.55l-9.4747 4.3465-.0005-2.8851-5.6754.843L2 9.1724l2.6293-.0002-1.0937-4.1121 16.7501-2.9566Zm-1.4213 1.5574L5.139 6.0835l1.1644 4.3755-2.532-.0002 2.5928 7.9627 6.076-.9011-.0005 2.3698 7.0325-3.2253 1.0055-5.9617-2.1953.0004.5821-7.0427ZM6.451 11.5639l2.8265.0758a.0704.0704 0 0 1 .0689.0735l-.0204.756a.0707.0707 0 0 1-.0703.0662l-.8378-.0093a.0282.0282 0 0 0-.0281.028l.0151 2.4197a.0704.0704 0 0 1-.0652.07l-.8516.059a.0706.0706 0 0 1-.0772-.0698l.0097-2.4878a.0282.0282 0 0 0-.0283-.0281l-.9121-.0198a.0705.0705 0 0 1-.0705-.0653l-.032-.7938a.0707.0707 0 0 1 .0733-.0744Zm4.6497.0739c.9152 0 1.6364.721 1.6364 1.6514.0001 1.0088-.7022 1.6757-1.6211 1.705-.9948.0317-1.7295-.6143-1.7295-1.6607 0-.9793.6363-1.6957 1.7142-1.6957Zm3.3848.0898c.843 0 1.4983.6143 1.4983 1.5122 0 .8996-.642 1.522-1.462 1.5554-.8634.035-1.559-.62-1.559-1.509 0-.9278.5703-1.5586 1.5227-1.5586Zm1.8305.0662.6455.0249a.0729.0729 0 0 1 .06.031l.8857 1.3362c.0152.0222.0511.0127.0521-.0137l.0143-1.2799a.0693.0693 0 0 1 .0704-.0652l.6713.0071c.0417 0 .0747.034.0717.0737l-.1018 2.498a.069.069 0 0 1-.064.0625l-.6134.0188a.0732.0732 0 0 1-.065-.029l-.8081-1.1661c-.0163-.0221-.0522-.0111-.0517.0158l-.0022 1.1732a.0688.0688 0 0 1-.0658.0688l-.7227.0336c-.041.0025-.076-.0286-.0765-.068l.0298-2.6533c-.0004-.0377.0311-.0683.0704-.0684Zm-5.2152.7406c-.4223-.0045-.7197.2855-.719.7879.0007.5023.3059.805.7301.7886.4243-.0163.7107-.329.7081-.8088-.0026-.48-.2969-.7633-.7192-.7677Zm3.3968.0163c-.3916 0-.6544.276-.6498.7225.0046.4465.2813.7276.664.711.3827-.0165.6356-.3076.6357-.7311.0001-.4359-.2458-.7024-.6499-.7024Zm2.701-3.8753c.0016.2891-.1404.5766-.386.7581a.0293.0293 0 0 0-.0124.0252c.0004.0102.0053.02.0149.0242.298.1291.4677.3531.4462.7764-.0408.8094-.7185.9432-1.3638.9362-.4992-.0125-.9586-.0255-1.4578-.0389-.051-.0013-.0919-.0383-.0916-.0837.0068-1.0385.0133-2.077.02-3.1154.0003-.0454.0417-.0838.0925-.087.4696-.029 1.071-.071 1.5407-.0982.577-.0382 1.1935.1347 1.1974.9031Zm-3.2138-.7683c.0495-.0032.0898.0302.0895.0754l-.0043.621c-.0004.0512-.0412.0953-.0907.0976a505.017 505.017 0 0 0-1.3294.065c-.012.0006-.022.0116-.022.0244l-.0024.318c0 .013.0096.0235.0217.023.4451-.0163.6861-.0245 1.1566-.0407.0492-.0017.089.04.0887.0934-.0018.2567-.0026.388-.0045.6452-.0003.0534-.0409.0968-.09.0969-.4706.0011-.7117.002-1.157.0031-.012 0-.022.0108-.0221.024l-.0028.354c-.0001.0127.0097.0233.0217.0234.5152.0065.7812.0097 1.3305.0163.0495.0006.0898.0432.0894.0943l-.0041.6209c-.0004.0453-.0412.08-.0908.0788-.7016-.0198-1.4033-.0395-2.1049-.0596a.0825.0825 0 0 1-.0802-.0827l.0243-2.868a.0883.0883 0 0 1 .0815-.0859 514.9949 514.9949 0 0 1 2.1013-.1378Zm-2.476.1688a.073.073 0 0 1 .0634.0274.0777.0777 0 0 1 .0124.0699c-.2597.9384-.506 1.8803-.7674 2.8183a.0756.0756 0 0 1-.074.056c-.3074-.0088-.5068-.013-.7999-.0212-.0323-.001-.0606-.0257-.0691-.0601-.116-.47-.243-.879-.3589-1.3491-.0034-.0138-.0142-.0804-.0175-.0803-.0033.0001-.014.0672-.0177.081-.1211.463-.2553.8645-.3744 1.328-.0087.0338-.036.057-.0664.0563-.2756-.0075-.5216-.0087-.7832-.0153-.0288-.0007-.0542-.0254-.0619-.0597-.1892-.8291-.4174-1.6547-.6085-2.4833-.017-.0733.0217-.1039.0603-.1065.207-.0137.4488-.0248.6645-.0404.0297-.0022.0556.0208.0627.0557.1055.5145.2178.9663.329 1.4796.003.0138.013.1112.0167.1124.0032 0 .0135-.0989.0169-.1125.1297-.5314.257-1.0022.3837-1.5344.0084-.0354.0359-.0618.0672-.064.2494-.018.4014-.027.6615-.0455.0327-.0022.0612.02.0694.0542.1298.5468.2582 1.0329.3855 1.5802.0026.0112.0096.0695.0145.098l.0034.0139.0046-.014c.005-.0286.0122-.087.0149-.0983.134-.5664.2684-1.0712.4055-1.6368a.0854.0854 0 0 1 .0747-.0656c.2509-.0174.428-.0262.6882-.0439Zm4.3452 1.8284c-.229.0006-.3454.004-.5694.0045-.0138 0-.025.012-.025.0265l-.0027.4695a.0254.0254 0 0 0 .0245.0255l.1513.0025.2643.0043.1542.0026c.3242.0041.3658-.1469.3658-.2619 0-.1942-.1195-.2741-.363-.2735Zm-.0477-1.3618c-.2064.0094-.3116.0142-.5138.0237a.0268.0268 0 0 0-.025.0263l-.0026.458c0 .0145.011.026.0247.0255l.5115-.016c.2315-.0071.3478-.1039.3479-.2766 0-.1277-.0364-.255-.3427-.2409Z"/>
</g></svg>