<svg xmlns="http://www.w3.org/2000/svg" data-laicon-version="13.0" viewBox="0 0 20 20" fill="black"><g transform="translate(-2 -2)">
  <path d="M19.882 3.982H6.124v1.3h13.108v9.06a5.408 5.408 0 0 1-5.411 5.412h-3.642a5.408 5.408 0 0 1-5.411-5.412V4h-1.3v10.342a6.708 6.708 0 0 0 6.711 6.712h3.642a6.708 6.708 0 0 0 6.711-6.712v-9.71a.65.65 0 0 0-.65-.65Z"/>
  <path d="m11.997 10.6-1.2-2.08h-1.14v.625l1.235 2.141H9.634v1.229h1.712v.763H9.634v1.3h1.712v1.036h1.3v-1.036h1.72v-1.3h-1.72v-.764h1.72v-1.228h-1.263l1.233-2.131V8.52h-1.135l-1.204 2.081V10.6Z"/>
</g></svg>