<svg xmlns="http://www.w3.org/2000/svg" data-laicon-version="18.4" viewBox="0 0 20 20" fill="black"><g transform="translate(-2 -2)">
  <path d="M12.65 4.9a.5.5 0 0 1 0 1h-1.3a.5.5 0 0 1 0-1h1.3Z"/>
  <path d="M15.55 2.85A1.85 1.85 0 0 1 17.4 4.7v4.671c.422.162.778.477.983.9l.056.127.001.004 1.28 3.312.002.005c.442 1.173.682 2.42.682 3.685v2.544a1.942 1.942 0 0 1-1.946 1.947h-1.535a2.965 2.965 0 0 1-2.832-2.13l-.002-.01-.03-.105H8.45A1.851 1.851 0 0 1 6.6 17.8V4.7a1.85 1.85 0 0 1 1.85-1.85h7.1Zm1.846 13.61a.651.651 0 0 1-1.193.358l-1.758-2.67a.278.278 0 0 0-.3-.12.296.296 0 0 0-.223.298l.008.049.002.006 1.405 5.015a1.666 1.666 0 0 0 1.586 1.199h1.535c.36 0 .646-.286.646-.647v-2.544a9.15 9.15 0 0 0-.598-3.226l-1.11-2.872v5.154ZM8.45 4.15a.55.55 0 0 0-.55.55v13.1c0 .303.246.55.55.55h5.244l-1.014-3.62h.001c-.246-.863.285-1.714 1.1-1.95a1.575 1.575 0 0 1 1.672.545l.074.102.002.003.567.861V9.9l.003-.03V4.7a.55.55 0 0 0-.55-.55H8.45ZM3.532 3.111a.55.55 0 0 1 .778.778l-.122.129a3.45 3.45 0 0 0 0 4.622l.122.128.07.086a.55.55 0 0 1-.761.762l-.087-.07-.161-.17a4.55 4.55 0 0 1 .161-6.265Zm16.158 0a.55.55 0 0 1 .778 0 4.55 4.55 0 0 1 0 6.435l-.086.07a.55.55 0 0 1-.692-.848l.122-.128a3.45 3.45 0 0 0 0-4.622l-.122-.13-.07-.085a.55.55 0 0 1 .07-.692Z"/>
  <path d="M5.108 4.53a.55.55 0 0 1 .692.848l-.095.105A1.34 1.34 0 0 0 5.71 7.18l.09.098.07.087a.55.55 0 0 1-.762.762l-.087-.07-.162-.18a2.44 2.44 0 0 1 .162-3.276l.087-.07Zm13.093.07a.55.55 0 0 1 .691-.07l.086.07.173.192c.375.463.556 1.032.542 1.596a2.438 2.438 0 0 1-.715 1.669l-.086.07a.55.55 0 0 1-.691-.849c.254-.254.384-.583.392-.917a1.338 1.338 0 0 0-.392-.983.55.55 0 0 1 0-.777Z"/>
</g></svg>