<svg xmlns="http://www.w3.org/2000/svg" data-laicon-version="5.0" viewBox="0 0 20 20" fill="black"><g transform="translate(-2 -2)">
  <path d="M12 2.75c5.1086 0 9.25 4.1414 9.25 9.25s-4.1414 9.25-9.25 9.25S2.75 17.1086 2.75 12 6.8914 2.75 12 2.75Zm0 1.3c-4.3907 0-7.95 3.5593-7.95 7.95 0 4.3907 3.5593 7.95 7.95 7.95 4.3907 0 7.95-3.5593 7.95-7.95 0-4.3907-3.5593-7.95-7.95-7.95Zm-3.9989 6.4715v1L6.891 11.521l-.0156.1786L6.8668 12l.0002.045 1.0146.0002v1l-.9083.0001c.4828 2.3337 2.55 4.0879 5.0267 4.0879 1.7089 0 3.2727-.8412 4.2226-2.2134l.1315-.1996.8476.5306c-1.1138 1.7788-3.0633 2.8824-5.2017 2.8824-3.3872 0-6.1332-2.746-6.1332-6.1332 0-.2398.0138-.4778.041-.7134l.0512-.3514.0725-.4137H8.001ZM12 5.8668c3.3872 0 6.1332 2.746 6.1332 6.1332a6.191 6.191 0 0 1-.041.7134l-.0512.3514-.0725.4137h-1.0991c-.8165 0-1.4785-.662-1.4785-1.4785 0-.7685.5864-1.4 1.3361-1.4717l.1424-.0068.0476-.0005-.0587-.1826C16.19 8.384 14.3757 6.961 12.217 6.8713L12 6.8668c-1.7089 0-3.2727.8412-4.2226 2.2134l-.1315.1996-.8476-.5306C7.9121 6.9704 9.8616 5.8668 12 5.8668Zm5.11 5.6542-.2406.0005a.4787.4787 0 0 0-.4708.3925L16.391 12c0 .2349.1693.4303.3925.4708l.086.0077.2386-.0005.0166-.1776.0086-.3004-.0045-.217-.0134-.2147-.0053-.0473Z"/>
</g></svg>