<svg xmlns="http://www.w3.org/2000/svg" data-laicon-version="15.6" viewBox="0 0 20 20" fill="black"><g transform="translate(-2 -2)">
  <path d="M5.603 2a3.11 3.11 0 0 0-3.11 3.11v4.922a3.11 3.11 0 0 0 3.11 3.11h.826v3.78a3.11 3.11 0 0 0 3.11 3.11h2.303v.59a1.379 1.379 0 0 0 2.24 1.076l2.083-1.666h2.232a3.11 3.11 0 0 0 3.11-3.11V12a3.11 3.11 0 0 0-3.11-3.11h-.826V5.11A3.11 3.11 0 0 0 14.461 2H5.602Zm7.667 18.683a.079.079 0 0 1-.128-.062v-1.89H9.54c-1 0-1.81-.81-1.81-1.81v-3.779h1.1l1.598 1.199a1.388 1.388 0 0 0 2.221-1.11v-2.707c0-.185.15-.334.334-.334h5.413c1 0 1.81.81 1.81 1.81v4.921c0 1-.81 1.81-1.81 1.81H15.71l-2.44 1.952Zm3-11.794h-3.287c-.902 0-1.634.732-1.634 1.635v2.706a.088.088 0 0 1-.141.07l-1.945-1.458h-3.66c-1 0-1.81-.81-1.81-1.81V5.11c0-1 .81-1.811 1.81-1.811h8.857c1 0 1.811.81 1.811 1.81v3.78Z"/>
</g></svg>