<svg xmlns="http://www.w3.org/2000/svg" data-laicon-version="5.0" viewBox="0 0 20 20" fill="black"><g transform="translate(-2 -2)">
  <path d="M20.717 11.35a.651.651 0 0 1 .643.554l.007.1v3.72a4.663 4.663 0 0 1-4.438 4.645l-.212.005H9.278a4.666 4.666 0 0 1-4.284-2.844L6.02 16.5a3.369 3.369 0 0 0 3.08 2.565h7.622a3.363 3.363 0 0 0 3.34-3.165V12a.65.65 0 0 1 .655-.65ZM4.639 16.042l-.241.241-.655.656a.65.65 0 0 1-.839.069l-.08-.069a.648.648 0 0 1-.069-.838l.069-.081 1.8-1.8V8.28a4.662 4.662 0 0 1 4.442-4.645H13a.65.65 0 0 1 .1 1.293l-.1.002H9.278A3.363 3.363 0 0 0 5.933 8.1V12.92l3.678-3.686 2.617 2.616 6.2-6.2-1.372-1.37h3.661v3.661L19.345 6.57l-7.117 7.119-2.617-2.617-1.761 1.76-3.211 3.211Z"/>
</g></svg>