<svg xmlns="http://www.w3.org/2000/svg" data-laicon-version="17.5" viewBox="0 0 20 20" fill="black"><g transform="translate(-2 -2)">
  <path d="M7 14.4a1 1 0 1 0 0-2 1 1 0 0 0 0 2Zm10 0a1 1 0 1 0 0-2 1 1 0 0 0 0 2Z"/>
  <path d="M6.572 4.556a1.15 1.15 0 0 1 1.06-.706h8.735c.464 0 .882.278 1.061.706l2.005 4.794h.767c.635 0 1.15.515 1.15 1.15v6.2a1.15 1.15 0 0 1-1.15 1.15h-2.05v2.55h-1.3v-2.55h-9.7v2.55h-1.3v-2.55H3.8a1.15 1.15 0 0 1-1.15-1.15v-6.2c0-.635.515-1.15 1.15-1.15h.767l2.005-4.794Zm1.16.594-1.756 4.2h12.048l-1.757-4.2H7.733Zm-3.782 5.5v5.9h16.1v-5.9H3.95Z"/>
</g></svg>