<svg xmlns="http://www.w3.org/2000/svg" data-laicon-version="5.0" viewBox="0 0 20 20" fill="black"><g transform="translate(-2 -2)">
  <path d="M16.4544 2.3357c.42-.53 1.275-.414 1.5538.2153l1.3676 3.0824a.6306.6306 0 0 1-.0058.524c-.2019.4295-.7957.955-1.9594 1.4299a9.7972 9.7972 0 0 1-.7196.2598c-.8927.2852-1.7719.3316-2.6119.1955l2.3367 5.2482c1.3589 3.0521.0484 6.616-2.9268 8.074l-.2102.0984c-3.123 1.3904-6.7819-.0141-8.1724-3.1371-1.3904-3.123.014-6.782 3.137-8.1723a6.119 6.119 0 0 1 1.1103-.3719l.2567-.054-2.1482-4.835a1.1146 1.1146 0 0 1 .414-1.3902l.1022-.0586c1.0107-.5112 2.117-.831 3.2137-.755.4032.0278.7502.0823 1.265.1937l.9659.2175c1.1082.2381 1.5889.2457 2.143.0148.3878-.1616.6494-.3975.819-.6792Zm.6313 1.245-.1226.1223c-.2505.231-.5534.427-.9121.5763-.9634.4015-1.6693.3425-3.392-.058l-.2355-.0541c-.5946-.1345-.9352-.1934-1.3185-.22-.8261-.057-1.731.2044-2.557.6222l.1227-.0596 2.4416 5.491c.155.349-.0335.7377-.3708.8529l-.0874.023-.0928.0104c-.6243.025-1.233.1642-1.8049.419-2.4866 1.107-3.605 4.0203-2.4978 6.507 1.1072 2.4866 4.0206 3.605 6.5072 2.4979s3.605-4.0205 2.4978-6.5072l-2.8975-6.5076c-.241-.5413.33-1.0861.8595-.8199l.0426.0215c.2405.116.5883.2327 1.0161.3015.648.1041 1.3286.0682 2.0229-.1536a8.5394 8.5394 0 0 0 .6269-.2262c.5339-.2179.906-.4423 1.1458-.6544l-.0192.015-.975-2.1994Zm-6.3246 9.554c1.4766 0 2.6737 1.197 2.6737 2.6737 0 1.4767-1.197 2.6738-2.6737 2.6738-1.4767 0-2.6738-1.1971-2.6738-2.6738 0-1.4766 1.1971-2.6737 2.6738-2.6737Zm0 1.2612c-.7801 0-1.4125.6324-1.4125 1.4125 0 .7801.6324 1.4125 1.4125 1.4125.78 0 1.4125-.6324 1.4125-1.4125 0-.78-.6324-1.4125-1.4125-1.4125Z"/>
</g></svg>