<svg xmlns="http://www.w3.org/2000/svg" data-laicon-version="5.0" viewBox="0 0 20 20" fill="black"><g transform="translate(-2 -2)">
  <path d="M20.7157 13.6229v7.6566h-7.6565v-7.6566h7.6565Zm-9.0065 4.6455v1.3l-3.86-.0009.0004 1.712h-1.3l-.0004-1.712-.8442.0009c-.4866 0-.8887-.3673-.9436-.8393l-.0065-.1107-.0007-8.9399-1.47.0007v-1.3l1.47-.0007.0008-4.708c0-.4866.3673-.8886.8393-.9436l.1107-.0064h12.3523c.4866 0 .8887.3673.9436.8393l.0064.1107v4.708l1.4706.0007v1.3l-1.4707-.0007.0001 2.5944h-1.3l-.001-5.4664H6.0533v1.572l.0016.0007v1.3l-.0016-.0007v3.944l5.6558.0004v1.3l-5.6558-.0004.0007 3.3455 5.6551.0004Zm7.7058-3.3464h-5.056v5.057h5.056v-5.057Zm-2.6944 3.4564v.9h-1.6603v-.9h1.6603Zm1.994-1.1296v2.0296h-1.4218v-.9l.5212-.0004.0006-1.1292h.9Zm-1.1937-1.6247v2.4606h-2.4606v-2.4606h2.4606Zm-9.0534.1618a.8.8 0 1 1 0 1.5999.8.8 0 1 1 0-1.5999Zm8.1525.7381h-.66v.66h.66v-.66Zm2.0945-.8999v.9661h-.9v-.9661h.9ZM17.707 4.02H6.054l-.0008 1.4865h11.653L17.707 4.02Z"/>
</g></svg>