<svg xmlns="http://www.w3.org/2000/svg" data-laicon-version="5.0" viewBox="0 0 20 20" fill="black"><g transform="translate(-2 -2)">
  <path d="M12 2.75c5.1086 0 9.25 4.1414 9.25 9.25 0 3.3795-1.8123 6.3357-4.5181 7.9497l3.6416.0003v1.3l-8.3065-.001-.067.001c-5.019 0-9.1044-3.9973-9.2462-8.982L2.75 12c0-5.1086 4.1414-9.25 9.25-9.25Zm0 1.3c-4.3907 0-7.95 3.5593-7.95 7.95 0 4.3907 3.5593 7.95 7.95 7.95h.001H12l.062-.0002C16.4243 19.9164 19.95 16.37 19.95 12c0-4.3907-3.5593-7.95-7.95-7.95Zm0 9.5547c.8973 0 1.6247.7274 1.6247 1.6247S12.8973 16.8541 12 16.8541s-1.6247-.7274-1.6247-1.6247.7274-1.6247 1.6247-1.6247Zm0 1a.6247.6247 0 1 0 0 1.2494.6247.6247 0 0 0 0-1.2494Zm-3.2294-4.2294c.8973 0 1.6247.7274 1.6247 1.6247s-.7274 1.6247-1.6247 1.6247S7.1459 12.8973 7.1459 12s.7274-1.6247 1.6247-1.6247Zm6.4588 0c.8973 0 1.6247.7274 1.6247 1.6247s-.7274 1.6247-1.6247 1.6247-1.6247-.7274-1.6247-1.6247.7274-1.6247 1.6247-1.6247Zm-6.4588 1a.6247.6247 0 1 0 0 1.2494.6247.6247 0 0 0 0-1.2494Zm6.4588 0a.6247.6247 0 1 0 0 1.2494.6247.6247 0 0 0 0-1.2494ZM12 7.1459c.8973 0 1.6247.7274 1.6247 1.6247S12.8973 10.3953 12 10.3953s-1.6247-.7274-1.6247-1.6247S11.1027 7.1459 12 7.1459Zm0 1a.6247.6247 0 1 0 0 1.2494.6247.6247 0 0 0 0-1.2494Z"/>
</g></svg>