<svg xmlns="http://www.w3.org/2000/svg" data-laicon-version="5.0" viewBox="0 0 20 20" fill="black"><g transform="translate(-2 -2)">
  <path d="M13.9608 4.1927v1.3L3.949 5.492v13.024l11.362-.0002.0008-2.3469h1.3l-.0008 2.3469 3.438.0002V5.492l-2.0863.0007v-1.3h2.4038c.5044 0 .92.3797.9769.8688l.0066.1147v13.6565c0 .5044-.3797.92-.8688.9769l-.1147.0066H3.6335c-.5044 0-.92-.3797-.9769-.8688l-.0066-.1147V5.1762c0-.5044.3797-.92.8688-.9769l.1147-.0066h10.3273Zm2.651 8.0222v2.3303h-1.3v-2.3303h1.3Zm-3.7967-2.4396c.5561.5563.5561 1.458.0001 2.0138a1.4195 1.4195 0 0 1-.8673.4106l-.1398.0068-1.0241-.0007 1.6084 1.6088-.7072.707-2.1082-2.1088-2.1081 2.1089-.7072-.7072 1.6073-1.6087-1.0229.0007a1.42 1.42 0 0 1-.9015-.3216l-.1054-.0956c-.5562-.556-.5562-1.4577 0-2.0141.5214-.5212 1.3464-.5538 1.9058-.0977l.1082.0978 1.2238 1.2235 1.2241-1.2236c.5561-.556 1.4578-.556 2.014.0001Zm-1.2404.6527-.0665.0544-.7242.7236 1.0241.0005a.4204.4204 0 0 0 .2346-.0707l.0653-.0537a.424.424 0 0 0-.5333-.654Zm-4.5284.0543a.4242.4242 0 0 0 .0001.6.42.42 0 0 0 .217.1162l.0827.008L8.37 11.206l-.7239-.7236a.4243.4243 0 0 0-.5998-.0001Zm9.5655-2.2334v2.3304h-1.3V8.2489h1.3Zm0-4.0651v2.4295h-1.3V4.1838h1.3Z"/>
</g></svg>