<svg xmlns="http://www.w3.org/2000/svg" data-laicon-version="18.9" viewBox="0 0 20 20" fill="black"><g transform="translate(-2 -2)">
  <path d="M12.7 7.416a5.33 5.33 0 0 1 3.318 1.156 5.216 5.216 0 0 1 1.635 2.252 4.338 4.338 0 0 1 2.834 1.326 4.233 4.233 0 0 1 1.177 2.924 4.233 4.233 0 0 1-1.177 2.924 4.34 4.34 0 0 1-2.928 1.33h-9.7a4.329 4.329 0 0 1-3.164-1.146 4.266 4.266 0 0 1-1.007-1.413 4.216 4.216 0 0 1 1.007-4.803 4.323 4.323 0 0 1 3.052-1.15 5.217 5.217 0 0 1 1.634-2.244 5.328 5.328 0 0 1 3.318-1.156Zm0 1.3c-.915 0-1.8.31-2.509.874a3.917 3.917 0 0 0-1.227 1.684l-.324.864-.923-.022a3.032 3.032 0 0 0-2.024.703l-.115.101c-.3.277-.537.611-.7.981a2.92 2.92 0 0 0-.247 1.173l.004.15a2.96 2.96 0 0 0 .943 2.004 3.03 3.03 0 0 0 2.218.801l.032-.002h9.715a3.04 3.04 0 0 0 2.005-.927c.525-.55.816-1.274.816-2.026l-.013-.28a2.937 2.937 0 0 0-.803-1.745 3.038 3.038 0 0 0-1.984-.928l-.835-.058-.293-.784a3.915 3.915 0 0 0-1.228-1.69 4.028 4.028 0 0 0-2.509-.873ZM7.19 5.589a3.66 3.66 0 0 1 2.495 1.166c-.397.2-.775.44-1.127.717A2.354 2.354 0 0 0 7 6.884a2.368 2.368 0 0 0-2.176 3.298 5.68 5.68 0 0 0-1.064.775l-.004.003a3.646 3.646 0 0 1-.418-1.52l-.005-.189A3.667 3.667 0 0 1 7 5.584l.188.005Zm13.75-3.446a.641.641 0 0 1 .91.106.696.696 0 0 1-.045.907L18.167 7.29a.676.676 0 0 1-.994-.017L14.82 4.491a.734.734 0 0 1-.157-.458c0-.19.072-.38.216-.521a.68.68 0 0 1 .925-.038l1.67 1.377a.171.171 0 0 0 .22.004l3.245-2.712Z"/>
</g></svg>