<svg xmlns="http://www.w3.org/2000/svg" data-laicon-version="18.9" viewBox="0 0 20 20" fill="black"><g transform="translate(-2 -2)">
  <path d="M14.92 8.075a.67.67 0 0 1 .952.113c.221.28.2.689-.048.945l-3.803 4.324a.707.707 0 0 1-1.04-.018L8.523 10.53a.77.77 0 0 1 .061-1.024.714.714 0 0 1 .968-.04l1.745 1.441a.181.181 0 0 0 .231.003l3.393-2.835Z"/>
  <path d="M18.707 3.375c.53 0 .958.429.958.958V19.77a.96.96 0 0 1-1.147.94l-.117-.031-.058-.023L12 18.055l-6.347 2.604-.058.022-.116.03a.96.96 0 0 1-1.14-.817l-.007-.121V4.333c0-.529.429-.958.958-.958h13.417ZM5.632 19.262l6.367-2.613 6.366 2.61V4.676H5.632v14.587Z"/>
</g></svg>