<svg xmlns="http://www.w3.org/2000/svg" data-laicon-version="18.9" viewBox="0 0 20 20" fill="black"><g transform="translate(-2 -2)">
  <path d="M15.834 16.483H8.167v-1.3h7.667v1.3ZM14.92 7.5a.67.67 0 0 1 .951.112c.221.28.2.69-.048.946l-3.803 4.324a.707.707 0 0 1-1.04-.017l-2.458-2.91a.771.771 0 0 1 .061-1.024.714.714 0 0 1 .968-.038l1.745 1.44a.18.18 0 0 0 .23.003L14.92 7.5Z"/>
  <path d="M18.708 3.375c.53 0 .958.429.958.958v15.334l-.005.098a.958.958 0 0 1-.855.855l-.098.005H5.291a.959.959 0 0 1-.953-.86l-.005-.098V4.333c0-.529.429-.958.958-.958h13.417ZM5.633 19.325h12.733V4.675H5.633v14.65Z"/>
</g></svg>