<svg xmlns="http://www.w3.org/2000/svg" data-laicon-version="18.9" viewBox="0 0 20 20" fill="black"><g transform="translate(-2 -2)">
  <path d="M14.92 10.376a.67.67 0 0 1 .951.111.727.727 0 0 1-.047.948l-3.803 4.323a.707.707 0 0 1-1.04-.019l-2.458-2.908a.767.767 0 0 1-.165-.479c0-.199.076-.397.226-.545a.711.711 0 0 1 .967-.04l1.746 1.44a.179.179 0 0 0 .23.004l3.393-2.835Z"/>
  <path d="M14.493 2.422c.483.049.86.457.86.953v1.917h1.438a2.875 2.875 0 0 1 2.875 2.875v9.583a2.875 2.875 0 0 1-2.875 2.875h-.308v.958h-1.3v-.958H8.817v.958h-1.3v-.958h-.309l-.294-.015a2.876 2.876 0 0 1-2.581-2.86V8.167a2.876 2.876 0 0 1 2.581-2.86l.294-.015h1.438V3.375c0-.53.428-.958.958-.958h4.792l.097.005Zm-7.285 4.17c-.87 0-1.575.705-1.575 1.575v9.583c0 .87.705 1.575 1.575 1.575h9.583c.87 0 1.575-.706 1.575-1.575V8.167c0-.87-.705-1.575-1.575-1.575H7.208Zm2.737-1.354h4.109V3.717H9.945v1.521Z"/>
</g></svg>