<svg xmlns="http://www.w3.org/2000/svg" data-laicon-version="18.9" viewBox="0 0 20 20" fill="black"><g transform="translate(-2 -2)">
  <path d="M7.27 18.709a1.437 1.437 0 1 1 .001 2.876 1.437 1.437 0 0 1-.001-2.876Zm11.02 0a1.437 1.437 0 1 1 .001 2.876 1.437 1.437 0 0 1-.001-2.876ZM15.941 8.94a.67.67 0 0 1 .952.11c.22.281.2.69-.048.946l-3.803 4.325a.708.708 0 0 1-1.04-.017l-2.458-2.91a.77.77 0 0 1-.165-.478c0-.2.076-.4.225-.547a.714.714 0 0 1 .968-.038l1.745 1.44a.181.181 0 0 0 .232.003L15.94 8.94Z"/>
  <path d="M6.185 6.08h13.312c.528 0 .926.48.827.998l-1.844 9.679a.842.842 0 0 1-.826.684H8.142a.841.841 0 0 1-.82-.652L4.598 4.983H2v-1.3h3.632l.553 2.396Zm2.322 10.062h8.768l1.668-8.763H6.484l2.023 8.763Z"/>
</g></svg>