<svg xmlns="http://www.w3.org/2000/svg" data-laicon-version="18.9" viewBox="0 0 20 20" fill="black"><g transform="translate(-2 -2)">
  <path d="M12 11a.9.9 0 1 1 0 1.8.9.9 0 0 1 0-1.8Zm-3 0a.9.9 0 1 1 0 1.8.9.9 0 0 1 0-1.8Zm6 0a.9.9 0 1 1 0 1.8.9.9 0 0 1 0-1.8Z"/>
  <path d="M11.408 18.96c-1.345-.02-2.5-.113-3.473-.291-1.104-.202-2.055-.53-2.791-1.058-.69-.494-1.157-1.144-1.471-1.948-.388-.993-.552-2.25-.552-3.676 0-1.425.164-2.684.552-3.678.314-.804.78-1.453 1.472-1.948.748-.536 1.76-.95 3.047-1.218l4.985-1.333a.308.308 0 0 1 .38.364l-.145.666c2.48.147 4.274.69 5.436 1.522.688.494 1.157 1.143 1.471 1.947v.002c.388.993.552 2.251.552 3.676 0 1.425-.164 2.683-.552 3.676-.314.805-.781 1.455-1.472 1.95-.737.527-1.687.854-2.79 1.056l-.428.071c-1.025.154-2.234.224-3.633.224l-.588-.004Zm.588-1.296c1.559 0 2.822-.09 3.827-.274 1.006-.184 1.747-.462 2.267-.835.458-.328.782-.76 1.018-1.366.305-.78.463-1.856.463-3.202 0-1.345-.158-2.422-.463-3.203-.236-.604-.56-1.037-1.018-1.365-1.048-.752-2.978-1.321-6.094-1.321s-5.046.57-6.095 1.32c-.458.329-.78.76-1.017 1.365-.305.78-.463 1.858-.463 3.204s.158 2.422.463 3.202c.236.605.56 1.038 1.017 1.366.52.373 1.262.651 2.268.835 1.005.185 2.269.274 3.827.274Z"/>
</g></svg>