<svg xmlns="http://www.w3.org/2000/svg" data-laicon-version="18.9" viewBox="0 0 20 20" fill="black"><g transform="translate(-2 -2)">
  <path d="M15.048 9.506a.699.699 0 0 1 .992.116.76.76 0 0 1-.05.99l-3.967 4.51a.738.738 0 0 1-1.085-.02l-2.566-3.035a.8.8 0 0 1-.172-.499c0-.207.079-.415.236-.569a.743.743 0 0 1 1.008-.041l1.823 1.502c.07.06.168.06.24.004l3.54-2.958Z"/>
  <path d="M9.65 4.7h4.7V3.2h1.3v1.5h3.55l.102.005a1 1 0 0 1 .898.995v13.4l-.006.102a1 1 0 0 1-.892.893l-.102.006H4.8l-.103-.006a1 1 0 0 1-.892-.893l-.005-.101V5.7a1 1 0 0 1 1-1h3.55V3.2h1.3v1.5ZM5.1 18.8h13.8V6H5.1v12.8Z"/>
</g></svg>