<svg xmlns="http://www.w3.org/2000/svg" data-laicon-version="18.9" viewBox="0 0 20 20" fill="black"><g transform="translate(-2 -2)">
  <path d="M14.92 7.98a.67.67 0 0 1 .952.113c.221.28.2.69-.048.945l-3.803 4.324a.707.707 0 0 1-1.04-.017l-2.458-2.91a.77.77 0 0 1 .061-1.024.714.714 0 0 1 .968-.039l1.745 1.44a.181.181 0 0 0 .231.003l3.393-2.835Z"/>
  <path d="M12.013 2.417a8.143 8.143 0 0 1 3.086.61c.078.033.156.064.233.099 2.358 1.046 4.147 3.205 4.652 5.769a8.42 8.42 0 0 1 .149 1.17l.007.17c.001.076.005.153.005.23v.249c-.001.04-.005.08-.005.12a6.692 6.692 0 0 1-.01.2l-.01.171a3.706 3.706 0 0 1-.014.14c-.007.069-.013.136-.022.202-.003.033-.008.064-.012.096l-.004-.004a9.6 9.6 0 0 1-.035.233v.013a8.116 8.116 0 0 1-4.73 6.08L15.23 18l-.145.08a2.098 2.098 0 0 0-.732.73l-1.257 2.148a1.26 1.26 0 0 1-1.099.627l-.158-.01a1.256 1.256 0 0 1-.94-.617L9.643 18.81a2.1 2.1 0 0 0-.733-.73c-.048-.027-.094-.057-.144-.081l-.072-.033a8.123 8.123 0 0 1-4.73-6.081l-.001-.014-.034-.232c-.004-.032-.01-.063-.013-.096-.009-.066-.015-.132-.022-.198l-.012-.142c-.004-.055-.01-.113-.013-.17a7.681 7.681 0 0 1-.009-.201c-.001-.04-.005-.08-.005-.12a.17.17 0 0 0-.001-.02v-.153l.001-.074c0-.077.002-.156.005-.233l.007-.168.02-.245c.005-.045.006-.09.011-.135.014-.131.03-.262.05-.394l.068-.395C4.52 6.33 6.312 4.172 8.67 3.126l.233-.099.023-.01a8.162 8.162 0 0 1 3.062-.6h.025Zm-.363 1.309a6.853 6.853 0 0 0-2.204.482l-.01.006-.05.02c-.063.026-.123.05-.178.076l-.01.004c-1.987.881-3.487 2.7-3.907 4.832a7.112 7.112 0 0 0-.099.667l-.002.02c0 .003 0 .01-.002.019 0 .013-.004.042-.007.077l-.016.22-.005.124v.019a3.88 3.88 0 0 0-.005.173v.052l-.002.03v.13l.002.035.002.015.002.048.001.012v.01c.001.045.004.095.007.157l.005.066.006.087.008.094v.007c.008.069.013.118.02.165l.001.018.002.016.001.008.005.031.003.028.024.164.02.11a6.822 6.822 0 0 0 3.959 5.03l.01.004.01.005.072.033.01.004.008.005c.07.034.13.067.158.084l.033.02h.002l.032.017.03.019c.457.278.876.668 1.178 1.183l1.234 2.107 1.234-2.107a3.399 3.399 0 0 1 1.18-1.183l.005-.004.007-.004c.007-.004.13-.08.26-.14l.072-.034.021-.01a6.816 6.816 0 0 0 3.972-5.105h.002l.001-.004h-.002c.012-.075.022-.14.03-.201l.034-.25v-.015c.003-.02.005-.043.008-.093l.001-.011.001-.011a4.279 4.279 0 0 0 .02-.384v-.239c0-.059-.002-.082-.004-.2l-.004-.114-.018-.218V9.92l-.008-.088-.001-.01-.001-.01a7.098 7.098 0 0 0-.099-.667c-.42-2.131-1.919-3.951-3.904-4.832l-.011-.004c-.048-.022-.082-.035-.162-.069l-.046-.018a6.834 6.834 0 0 0-2.235-.497l-.34-.01h-.02l-.34.01Z"/>
</g></svg>