<svg xmlns="http://www.w3.org/2000/svg" data-laicon-version="18.9" viewBox="0 0 20 20" fill="black"><g transform="translate(-2 -2)">
  <path d="M11.176 9.1a.16.16 0 0 1 .091.024.172.172 0 0 1 .062.078l2.283 5.524c.02.044.02.088-.005.123-.024.035-.067.05-.11.05h-.982a.167.167 0 0 1-.092-.024.17.17 0 0 1-.062-.077v-.002l-.396-1.041h-2.32l-.395 1.04v.003a.17.17 0 0 1-.063.077.167.167 0 0 1-.092.024h-.966c-.043 0-.086-.015-.11-.05-.025-.035-.024-.08-.005-.123l2.282-5.524a.173.173 0 0 1 .062-.078.166.166 0 0 1 .092-.024h.726Zm4.143 0c.04 0 .077.012.104.039.026.026.04.063.04.102v5.517c0 .04-.014.076-.04.102a.144.144 0 0 1-.104.04h-.848a.142.142 0 0 1-.103-.04.142.142 0 0 1-.039-.102V9.24c0-.04.013-.076.04-.102a.142.142 0 0 1 .102-.04h.848Zm-5.277 3.6h1.518l-.76-2.01-.758 2.01Z"/>
  <path d="M11.408 18.96c-1.345-.02-2.5-.113-3.473-.291-1.104-.202-2.055-.53-2.791-1.058-.69-.494-1.157-1.144-1.471-1.948-.388-.993-.552-2.25-.552-3.676 0-1.425.164-2.684.552-3.678.314-.804.78-1.453 1.472-1.948.748-.536 1.76-.95 3.047-1.218l4.985-1.333a.308.308 0 0 1 .38.364l-.145.666c2.48.147 4.274.69 5.436 1.522.688.494 1.157 1.143 1.471 1.947v.002c.388.993.552 2.251.552 3.676 0 1.425-.164 2.683-.552 3.676-.314.805-.781 1.455-1.472 1.95-.737.527-1.687.854-2.79 1.056l-.428.071c-1.025.154-2.234.224-3.633.224l-.588-.004Zm.588-1.296c1.559 0 2.822-.09 3.827-.274 1.006-.184 1.747-.462 2.267-.835.458-.328.782-.76 1.018-1.366.305-.78.463-1.856.463-3.202 0-1.345-.158-2.422-.463-3.203-.236-.604-.56-1.037-1.018-1.365-1.048-.752-2.978-1.321-6.094-1.321s-5.046.57-6.095 1.32c-.458.329-.78.76-1.017 1.365-.305.78-.463 1.858-.463 3.204s.158 2.422.463 3.202c.236.605.56 1.038 1.017 1.366.52.373 1.262.651 2.268.835 1.005.185 2.269.274 3.827.274Z"/>
</g></svg>