<svg xmlns="http://www.w3.org/2000/svg" data-laicon-version="16.12" viewBox="0 0 20 20" fill="black"><g transform="translate(-2 -2)">
  <path d="M9.859 7.909c0 1.177.958 2.135 2.136 2.135A2.138 2.138 0 0 0 14.13 7.91a2.138 2.138 0 0 0-2.136-2.136A2.138 2.138 0 0 0 9.858 7.91Zm3.057 0a.923.923 0 0 1-1.843 0 .923.923 0 0 1 1.843 0Z"/>
  <path d="M7.104 5.684a7.647 7.647 0 0 1 4.89-1.77c1.786 0 3.523.628 4.891 1.77a.604.604 0 0 0 .855-.077.607.607 0 0 0-.077-.855A8.864 8.864 0 0 0 11.995 2.7a8.864 8.864 0 0 0-5.668 2.052.607.607 0 1 0 .777.932Zm-2.748 5.869c0-.195.007-.393.022-.587a.607.607 0 1 0-1.21-.092 8.847 8.847 0 0 0 3.071 7.406.606.606 0 0 0 .855-.066.607.607 0 0 0-.066-.856 7.634 7.634 0 0 1-2.672-5.805Z"/>
  <path d="M20.987 6.876a.607.607 0 0 0-.842-.165l-6.035 4.052a3.83 3.83 0 0 1-.739.386h-.002a3.771 3.771 0 0 1-2.748 0h-.003a3.825 3.825 0 0 1-.738-.386L3.845 6.71a.607.607 0 1 0-.676 1.007l6.034 4.053c.181.121.369.227.56.322l-1.088 8.523a.607.607 0 1 0 1.205.153l1.053-8.26a4.98 4.98 0 0 0 2.123 0l1.054 8.26a.607.607 0 1 0 1.204-.153l-1.087-8.523c.19-.095.378-.201.559-.322l6.035-4.053a.607.607 0 0 0 .166-.842Z"/>
  <path d="M20.171 10.315a.607.607 0 0 0-.56.652 7.634 7.634 0 0 1-2.65 6.392.607.607 0 0 0 .79.921 8.846 8.846 0 0 0 3.072-7.406.608.608 0 0 0-.652-.559Z"/>
</g></svg>