<svg xmlns="http://www.w3.org/2000/svg" data-laicon-version="18.9" viewBox="0 0 20 20" fill="black"><g transform="translate(-2 -2)">
  <path d="M5.9 12.024c0 2.429 2.333 4.561 5.43 4.561 3.095 0 5.428-2.132 5.428-4.56h1.3c0 3.125-2.745 5.55-6.079 5.832v2.852h-1.3v-2.852c-3.333-.282-6.08-2.707-6.08-5.832H5.9Z"/>
  <path d="M11.33 4.208a3.474 3.474 0 0 1 3.473 3.474v3.473a3.474 3.474 0 1 1-6.948 0V7.682a3.474 3.474 0 0 1 3.474-3.474Zm0 1.3a2.174 2.174 0 0 0-2.175 2.174v3.473a2.174 2.174 0 0 0 4.348 0V7.682c0-1.2-.973-2.174-2.174-2.174Zm9.61-3.365a.641.641 0 0 1 .91.106.696.696 0 0 1-.045.907L18.167 7.29a.676.676 0 0 1-.994-.017L14.82 4.491a.734.734 0 0 1-.157-.458c0-.19.072-.38.216-.521a.68.68 0 0 1 .925-.038l1.67 1.377a.171.171 0 0 0 .22.004l3.245-2.712Z"/>
</g></svg>