<svg xmlns="http://www.w3.org/2000/svg" data-laicon-version="18.9" viewBox="0 0 20 20" fill="black"><g transform="translate(-2 -2)">
  <path d="M17.34 4c.479 0 .958.18 1.325.546l1.589 1.59a1.873 1.873 0 0 1 0 2.65L9.544 19.502l-4.531.502H4.99l.001-.204v.204a.188.188 0 0 1-.188-.21l.502-4.533 10.71-10.714A1.866 1.866 0 0 1 17.34 4ZM6.547 15.856l-.299 2.701 2.7-.299 7.723-7.727-2.401-2.402-7.723 7.727ZM17.34 5.3a.567.567 0 0 0-.406.166L15.188 7.21l2.402 2.4 1.744-1.742a.573.573 0 0 0 0-.814l-1.588-1.588a.567.567 0 0 0-.406-.167Zm-6.492-2.145a.699.699 0 0 1 .992.117.758.758 0 0 1-.05.99l-3.968 4.51a.738.738 0 0 1-1.085-.02L4.172 5.718a.8.8 0 0 1-.172-.5c0-.207.079-.415.235-.569a.742.742 0 0 1 1.01-.041l1.82 1.502c.07.06.17.06.24.003l3.542-2.958Z"/>
</g></svg>