<svg xmlns="http://www.w3.org/2000/svg" data-laicon-version="18.9" viewBox="0 0 20 20" fill="black"><g transform="translate(-2 -2)">
  <path d="M14.92 8.549a.67.67 0 0 1 .952.112c.221.28.2.69-.048.945l-3.803 4.325a.707.707 0 0 1-1.04-.018l-2.458-2.91a.77.77 0 0 1 .061-1.024.714.714 0 0 1 .968-.039l1.745 1.44a.181.181 0 0 0 .231.004l3.393-2.835Z"/>
  <path d="M12.586 3.383c2.399.082 4.47.777 5.985 2.037 1.633 1.359 2.532 3.306 2.532 5.598l-.01.395c-.218 4.06-3.763 7.243-8.02 7.244l-2.321.011c-1.061 0-1.73.651-2.162 1.365l-.078.113c-.395.507-1.184.666-1.741.21l-.116-.107c-1.259-1.316-3.607-4.2-3.753-7.709l-.006-.34c0-2.467.756-4.584 2.208-6.137l.3-.302C7.05 4.19 9.371 3.375 12.102 3.375l.484.008Zm-.484 1.292c-2.321 0-4.2.646-5.54 1.79l-.26.235c-1.347 1.287-2.107 3.158-2.107 5.5 0 3.07 2.064 5.735 3.333 7.08.56-.89 1.568-1.91 3.218-1.912l2.321-.01h.006c3.746-.002 6.73-2.879 6.73-6.34 0-1.928-.744-3.501-2.064-4.6-1.326-1.102-3.256-1.743-5.637-1.743Z"/>
</g></svg>