<svg xmlns="http://www.w3.org/2000/svg" data-laicon-version="16.5" viewBox="0 0 20 20" fill="black"><g transform="translate(-2 -2)">
  <path d="M6.45 14.468h2.69a.749.749 0 1 0 0-1.499H7.199v-2.686a.749.749 0 1 0-1.499 0v3.436c0 .414.337.75.75.75Zm7.457-4.793a.747.747 0 0 0-1.045.173L11.75 11.4l-1.112-1.552a.749.749 0 0 0-1.217.871l1.409 1.964-.43.599a.747.747 0 0 0 .608 1.184.75.75 0 0 0 .61-.312l2.463-3.436a.747.747 0 0 0-.172-1.045l-.002.002Zm1.433-.142h1.759v.002a1.931 1.931 0 0 1 0 3.86.749.749 0 1 1 0-1.498.434.434 0 0 0 0-.865h-1.01v2.687a.749.749 0 1 1-1.5 0v-3.436a.75.75 0 0 1 .75-.75Z"/>
  <path d="M7.067 7.033a4.966 4.966 0 1 0 0 9.934H21.9V12a4.966 4.966 0 0 0-4.967-4.967H7.067ZM3.4 12a3.666 3.666 0 0 1 3.667-3.667h9.866A3.666 3.666 0 0 1 20.6 12v3.667H7.067A3.666 3.666 0 0 1 3.4 12Z"/>
</g></svg>