<svg xmlns="http://www.w3.org/2000/svg" data-laicon-version="17.4" viewBox="0 0 20 20" fill="black"><g transform="translate(-2 -2)">
  <path d="M10.665 16.545c.201.208.47.312.737.312h-.003a1.025 1.025 0 0 0 .734-1.74l-3.34-3.452.753-1.314h3.871l.753 1.314-1.29 1.347a1.025 1.025 0 0 0 1.47 1.427l1.827-1.899c.318-.327.38-.825.154-1.222l-1.43-2.498a1.018 1.018 0 0 0-.888-.516h-5.06c-.365 0-.705.198-.888.516l-1.43 2.498c-.227.397-.164.895.155 1.222l3.875 4.005Z"/>
  <path d="M11.457 2.6a9.399 9.399 0 0 0-9.4 9.4 9.4 9.4 0 0 0 9.4 9.4h9.4V12c0-5.192-4.207-9.4-9.4-9.4Zm-8.1 9.4c0-4.475 3.626-8.1 8.1-8.1s8.1 3.625 8.1 8.1v8.1h-8.1a8.099 8.099 0 0 1-8.1-8.1Z"/>
</g></svg>