<svg xmlns="http://www.w3.org/2000/svg" data-laicon-version="7.3" viewBox="0 0 20 20" fill="black"><g transform="translate(-2 -2)">
  <path d="M8.054 21.459A4.078 4.078 0 0 1 6 20.9a3.877 3.877 0 0 1-1.963-3.453V15a4.361 4.361 0 0 1 .932-2.7 2.112 2.112 0 0 1-.932-1.769V7.159a3.859 3.859 0 0 1 2.012-3.377 4.077 4.077 0 0 1 4.155.073l9.062 5.11a3.9 3.9 0 0 1 0 6.787l-9.131 5.131a4.073 4.073 0 0 1-2.081.576zm1.763-12.17a.749.749 0 0 1 .37 1.4L7.167 12.4A2.867 2.867 0 0 0 5.538 15v2.46a2.4 2.4 0 0 0 1.216 2.14 2.57 2.57 0 0 0 2.631-.02l9.145-5.139a2.4 2.4 0 0 0 0-4.173L9.449 5.152a2.609 2.609 0 0 0-2.661-.065 2.376 2.376 0 0 0-1.25 2.072v3.369a.623.623 0 0 0 .295.541.609.609 0 0 0 .618 0l3-1.688a.738.738 0 0 1 .366-.092z"/>
</g></svg>