<svg xmlns="http://www.w3.org/2000/svg" data-laicon-version="5.0" viewBox="0 0 20 20" fill="black"><g transform="translate(-2 -2)">
  <path d="M12.0015 3.35c2.1587 0 2.416 2.386.751 6.1955l-.0374.0808c.4054.8601.9075 1.8081 1.5078 2.8413l.461.778c.4726.7832.928 1.4914 1.3634 2.1231l.186.264c4.1228.6251 6.2907 2.4066 5.3845 4.17-.943 1.8353-3.2992.8262-6.0203-2.828l-.094-.1298c-1.0428-.128-2.2235-.195-3.5422-.195-1.1778 0-2.2437.0534-3.1948.1557l-.2589.031c-2.762 3.7657-5.1673 4.825-6.1224 2.966-.9226-1.7953 1.2886-3.6063 5.529-4.2015l-.1362.0227c.3454-.4908.7021-1.0282 1.0695-1.6123l.4716-.7658c.746-1.2365 1.3613-2.3598 1.8466-3.3634l.12-.2563c-1.704-3.8533-1.4595-6.276.7158-6.276ZM6.604 17.165l-.0893.0216c-1.1346.2793-1.9663.652-2.488 1.0793-.4838.3962-.5937.7317-.4853.9426.0889.173.274.2225.7369.0148.5568-.2498 1.2468-.8192 2.0467-1.7302l.2023-.2348.0767-.0933Zm10.809.017.0611.0741c.8878 1.0508 1.6474 1.6966 2.2506 1.9672.463.2077.648.1581.7369-.0148.269-.5235-.5744-1.3572-2.6622-1.9274l-.2464-.0646-.14-.0345Zm-5.401-6.043-.017.0386-.012-.0246-.0474.0943c-.3566.6895-.764 1.4229-1.223 2.2003l-.2817.4717-.1966.3231c-.1366.2228-.272.4396-.406.6505l-.3223.4961.0352-.0043-.0362.0493c.4599-.0333.937-.057 1.4344-.0705l.5042-.0101.5177-.0034c.6993 0 1.363.0182 1.9916.054l.5471.037-.0418-.06.0358.005-.2534-.39-.3807-.6054-.2902-.4752-.2-.3338c-.385-.648-.7347-1.266-1.0497-1.8545l-.308-.5881Zm-.0105-6.489c-.6315 0-.8363.8869-.1498 2.8867l.08.2268.0693.1895.0695-.1878c.727-2.0096.6086-2.9753.062-3.101l-.065-.0108-.066-.0034Z"/>
</g></svg>