<svg xmlns="http://www.w3.org/2000/svg" data-laicon-version="5.5" viewBox="0 0 20 20" fill="black"><g transform="translate(-2 -2)">
  <path d="M19.5 3.35a1.15 1.15 0 0 1 1.15 1.15v15a1.15 1.15 0 0 1-1.15 1.15h-15a1.15 1.15 0 0 1-1.15-1.15v-15A1.15 1.15 0 0 1 4.5 3.35zm-.15 1.3H4.65v14.7h14.7zm-6.8 10.437a.1.1 0 0 0-.009-.07l-1.861-3.056 1.743-2.878a.055.055 0 0 0 .018-.055.054.054 0 0 0-.065-.039h-1.228a.13.13 0 0 0-.075.011.138.138 0 0 0-.038.062c-.125.242-.254.488-.388.736s-.265.491-.394.735-.256.494-.38.75h-.009q-.179-.374-.389-.74T9.058 9.8c-.137-.25-.262-.5-.375-.75A.165.165 0 0 0 8.627 9a.218.218 0 0 0-.084-.014H7.221a.068.068 0 0 0-.056.024c-.013.017-.01.037.009.062l1.763 2.98-1.809 2.973a.091.091 0 0 0-.014.066c0 .025.016.015.041.015h1.284c.063 0 .107-.006.132-.062q.207-.366.4-.736c.131-.247.264-.5.4-.745s.263-.5.389-.75h.01q.206.382.418.76t.4.735q.188.361.375.727c.037.062.1.066.2.066h1.331c.033-.007.055.007.06-.014zm4.31-.66a4.9028 4.9028 0 0 1-.014-.347V8.539a.033.033 0 0 0 0-.014.05.05 0 0 0-.056-.043h-1.177q-.057 0-.057.066V10.4a4.101 4.101 0 0 0-.178-.014 2.985 2.985 0 0 0-1.593.333 2.335 2.335 0 0 0-.929.9 2.436 2.436 0 0 0-.319 1.228 2.532 2.532 0 0 0 .319 1.327 1.99 1.99 0 0 0 .877.792 2.916 2.916 0 0 0 1.251.262 5.043 5.043 0 0 0 .9-.084 4.659 4.659 0 0 0 .946-.282.092.092 0 0 0 .056-.092c-.005-.106-.013-.219-.022-.343zm-1.308-.368a.971.971 0 0 1-.206.038c-.082.006-.163.009-.244.009a1.563 1.563 0 0 1-.484-.075 1.01 1.01 0 0 1-.393-.234 1.152 1.152 0 0 1-.263-.413 1.633 1.633 0 0 1-.1-.6 1.208 1.208 0 0 1 .684-1.172 1.447 1.447 0 0 1 .656-.15c.065 0 .129 0 .193.01a1.172 1.172 0 0 1 .155.028z"/>
</g></svg>