<svg xmlns="http://www.w3.org/2000/svg" data-laicon-version="5.0" viewBox="0 0 20 20" fill="black"><g transform="translate(-2 -2)">
  <path d="M19.5 3.35c.635 0 1.15.515 1.15 1.15v15c0 .635-.515 1.15-1.15 1.15h-15c-.635 0-1.15-.515-1.15-1.15v-15c0-.635.515-1.15 1.15-1.15Zm-.15 1.3H4.65v14.7h14.7V4.65Zm-4.7342 5.8066c1.1693 0 1.8921.5996 1.9174 1.4924h-1.1437c-.0383-.3698-.3146-.6207-.7738-.6207-.4294 0-.7143.1955-.7143.4974 0 .2339.1701.3912.6293.489l.7781.1658c.9524.1999 1.3435.574 1.3435 1.2415 0 .8971-.8205 1.4881-1.994 1.4881-1.2584 0-1.9855-.5867-2.0663-1.4838h1.2117c.0765.3996.3614.6122.8546.6122.4677 0 .7568-.1914.7568-.489 0-.2424-.1573-.3784-.6037-.4805l-.7781-.1616c-.8801-.1871-1.3265-.6292-1.3265-1.3137 0-.8673.7483-1.4371 1.909-1.4371Zm-4.4812-1.4795c1.2585 0 2.1258.8375 2.1258 2.1004 0 1.2584-.8971 2.1003-2.1896 2.1003H8.9229v1.9345H7.6388V8.9771Zm-.3401 1.0161h-.8716v2.1811h.8673c.7356 0 1.165-.3912 1.165-1.0927 0-.6973-.4252-1.0884-1.1607-1.0884Z"/>
</g></svg>