<svg xmlns="http://www.w3.org/2000/svg" data-laicon-version="5.0" viewBox="0 0 20 20" fill="black"><g transform="translate(-2 -2)">
  <path d="M19.5 3.35c.635 0 1.15.515 1.15 1.15v15c0 .635-.515 1.15-1.15 1.15h-15c-.635 0-1.15-.515-1.15-1.15v-15c0-.635.515-1.15 1.15-1.15Zm-.15 1.3H4.65v14.7h14.7V4.65Zm-8.0154 4.1655 2.2513 6.4711h-1.4392l-.4932-1.5699H9.3799l-.4932 1.5699H7.4964l2.247-6.4711h1.5912Zm4.1401 1.6645v4.8065h-1.3096V10.48h1.3096Zm-4.9427-.4262h-.0308l-.8301 2.6499h1.691l-.8301-2.6499Zm4.2837-1.57c.3805 0 .6813.3009.6813.6729 0 .3678-.3007.6729-.6813.6729-.3816 0-.6824-.3051-.6824-.6729 0-.3721.3008-.6729.6824-.6729Z"/>
</g></svg>