<svg xmlns="http://www.w3.org/2000/svg" data-laicon-version="18.1" viewBox="0 0 20 20" fill="black"><g transform="translate(-2 -2)">
  <path d="M14.408 13.326c-1.163.847-2.847 1.31-4.298 1.31-2.033 0-3.864-.745-5.249-2.016-.109-.1-.012-.222.12-.14 1.494.866 3.343 1.39 5.252 1.39 1.288 0 2.704-.262 4.007-.826.195-.08.36.14.168.282Z"/>
  <path d="M14.892 12.761c-.15-.181-.983-.08-1.358-.04-.113.02-.13-.08-.029-.161.665-.464 1.756-.323 1.882-.182.127.162-.033 1.27-.657 1.795-.096.08-.187.02-.145-.08.141-.344.455-1.13.307-1.332ZM13.56 9.253v-.464c0-.06.052-.121.116-.121h2.034c.064 0 .118.06.118.12v.404c-.001.06-.056.141-.154.282l-1.054 1.513c.392-.02.806.04 1.161.242.08.04.102.121.108.182v.484c0 .06-.073.14-.15.1a2.374 2.374 0 0 0-2.149 0c-.07.04-.145-.04-.145-.1v-.464a.49.49 0 0 1 .076-.303l1.22-1.774h-1.063c-.065 0-.117-.04-.118-.101Zm4.024.02c-.456 0-.485.625-.485 1.008s-.006 1.23.48 1.23c.48 0 .502-.685.502-1.089 0-.262-.011-.585-.092-.847-.069-.222-.208-.302-.405-.302Zm-.005-.646c.92 0 1.416.787 1.416 1.795 0 .968-.549 1.734-1.416 1.734-.901 0-1.393-.786-1.393-1.774s.497-1.755 1.393-1.755Zm-5.016 3.469c-.041.02-.115.02-.147 0-.21-.161-.355-.403-.355-.403-.34.343-.58.443-1.02.443-.52 0-.926-.322-.926-.968 0-.504.272-.847.66-1.008.335-.161.805-.181 1.164-.222 0 0 .03-.383-.076-.524-.08-.121-.22-.161-.347-.161-.23 0-.452.12-.496.363-.012.06-.063.12-.117.12l-.593-.06c-.045-.02-.107-.06-.092-.141.139-.726.796-.948 1.385-.948.301 0 .695.08.932.303.302.282.273.665.273 1.068v.968c0 .303.12.424.233.585.04.06.049.121-.002.161-.126.101-.476.424-.476.424Zm-.624-1.533v-.12c-.448 0-.92.08-.92.625 0 .262.138.443.376.443.174 0 .33-.1.428-.282.122-.222.116-.423.116-.666Zm-7.49 1.533c-.042.02-.117.02-.147 0-.21-.161-.355-.403-.355-.403-.34.343-.58.443-1.02.443-.522 0-.927-.322-.927-.968 0-.504.272-.847.66-1.008.336-.161.805-.181 1.164-.222 0 0 .03-.383-.075-.524-.082-.121-.22-.161-.348-.161-.23 0-.451.12-.495.363-.013.06-.064.12-.117.12l-.593-.06c-.046-.02-.108-.06-.093-.141.139-.726.796-.948 1.385-.948.302 0 .695.08.933.303.301.282.272.665.272 1.068v.968c0 .303.12.424.234.585.039.06.048.121-.003.161-.126.101-.476.424-.476.424Zm-.625-1.533v-.12c-.448 0-.921.08-.921.625 0 .262.139.443.376.443.174 0 .33-.1.429-.282.122-.222.116-.423.116-.666Zm2.434-.282v1.694c0 .06-.052.121-.116.121h-.618c-.064 0-.116-.06-.116-.12V8.808c0-.08.052-.121.116-.121H6.1c.063 0 .115.04.115.12v.404h.012c.15-.403.434-.605.815-.605.387 0 .63.202.803.605a.892.892 0 0 1 .855-.605c.26 0 .543.121.717.363.196.262.156.646.156.988l-.001 2.017c0 .06-.053.121-.119.121h-.618c-.062 0-.111-.06-.111-.12V10.28c0-.121.012-.464-.017-.585-.047-.222-.185-.282-.364-.282a.41.41 0 0 0-.37.262c-.064.161-.058.424-.058.605v1.694c0 .06-.053.121-.12.121h-.618c-.062 0-.11-.06-.11-.12l-.001-1.695c0-.343.058-.867-.381-.867-.445 0-.428.504-.428.867Zm14.05 1.694c0 .06-.053.121-.116.121h-.619c-.064 0-.115-.06-.115-.12V8.808c0-.08.052-.121.115-.121h.572c.067 0 .115.06.115.08v.485h.012c.174-.424.416-.626.844-.626.278 0 .549.101.722.363.162.263.162.686.162.989v2.016a.115.115 0 0 1-.118.101h-.62a.11.11 0 0 1-.111-.1v-1.937c0-.645-.246-.645-.388-.645-.165 0-.298.12-.356.242-.087.202-.1.383-.1.605v1.714Z"/>
</g></svg>