<svg xmlns="http://www.w3.org/2000/svg" data-laicon-version="15.5" viewBox="0 0 20 20" fill="black"><g transform="translate(-2 -2)">
  <path d="M16.602 14.019a.834.834 0 0 1 0-1.666.834.834 0 0 1 0 1.666Zm-9.205 0a.834.834 0 0 1 0-1.666.834.834 0 0 1 0 1.666Zm9.504-5.017 1.665-2.883a.347.347 0 0 0-.6-.346l-1.685 2.92A10.274 10.274 0 0 0 12 7.775c-1.544 0-2.992.328-4.28.916L6.033 5.773a.347.347 0 0 0-.6.346L7.1 9.002C4.24 10.556 2.286 13.45 2 16.868h20c-.286-3.418-2.241-6.312-5.099-7.866Z"/>
</g></svg>