<svg xmlns="http://www.w3.org/2000/svg" data-laicon-version="11.2" viewBox="0 0 20 20" fill="black"><g transform="translate(-2 -2)">
  <path d="m16.393 15.474 4.38 4.38a.745.745 0 0 1-.561 1.27l-4.112-.19a8.21 8.21 0 0 1-5.429-2.395l-2.145-2.145-4.38 4.379c-.48.48-1.3.118-1.27-.56l.19-4.113a8.21 8.21 0 0 1 2.394-5.43l2.145-2.145-4.379-4.38a.744.744 0 0 1 .561-1.27l4.112.19A8.21 8.21 0 0 1 13.33 5.46l2.145 2.146 4.38-4.38c.48-.48 1.3-.118 1.27.561l-.19 4.112a8.21 8.21 0 0 1-2.395 5.429l-2.146 2.145Zm-4.607 2.334a6.91 6.91 0 0 0 4.373 1.828l2.68.123-6.665-6.666c-.581 1.377-.751 3.095-.388 4.715Zm-1.359-3.316-.982.982.854.854a9.442 9.442 0 0 1 .128-1.836Zm5.047.063.854-.854a9.442 9.442 0 0 1-1.836-.128l.982.982Zm-2.381-2.729c1.376.582 3.095.751 4.715.388a6.908 6.908 0 0 0 1.828-4.373l.123-2.68-6.666 6.665Zm.608-4.154a9.45 9.45 0 0 1-.128 1.836l.982-.982-.854-.854Zm-1.875 3.235c.581-1.376.751-3.095.388-4.715a6.91 6.91 0 0 0-4.373-1.828L5.16 4.24l6.665 6.666Zm-3.3-1.462-.855.854a9.434 9.434 0 0 1 1.837.128l-.982-.982Zm2.38 2.729c-1.375-.581-3.094-.751-4.714-.388a6.909 6.909 0 0 0-1.828 4.373L4.24 18.84l6.666-6.666ZM12 12.7a.7.7 0 1 0 0-1.4.7.7 0 0 0 0 1.4Z"/>
</g></svg>