<svg xmlns="http://www.w3.org/2000/svg" data-laicon-version="5.9" viewBox="0 0 20 20" fill="black"><g transform="translate(-2 -2)">
  <path d="M15.792 3c.157 1.067-.277 2.112-.85 2.85-.612.794-1.668 1.407-2.692 1.375-.187-1.021.292-2.073.874-2.78.638-.781 1.732-1.38 2.668-1.445zm3.074 15.014c.527-.809.724-1.217 1.134-2.13-2.979-1.132-3.456-5.367-.508-6.992-.9-1.128-2.163-1.781-3.355-1.781-.86 0-1.449.224-1.984.428-.446.17-.855.325-1.352.325-.537 0-1.013-.17-1.512-.349-.547-.196-1.122-.402-1.835-.402-1.339 0-2.763.818-3.666 2.216-1.27 1.969-1.053 5.67 1.006 8.824.735 1.129 1.719 2.397 3.005 2.408.533.005.889-.154 1.273-.326.44-.198.918-.412 1.745-.416.833-.005 1.303.212 1.738.412.374.172.721.333 1.25.327 1.287-.01 2.325-1.416 3.06-2.544z"/>
</g></svg>