<svg xmlns="http://www.w3.org/2000/svg" data-laicon-version="5.1" viewBox="0 0 20 20" fill="black"><g transform="translate(-2 -2)">
  <path d="M14.365 2.783a9.517 9.517 0 0 1 7.146 9.089c0 .171.007.342.007.514q.01 3.864 0 7.727c0 1.1-.185 1.265-1.313 1.269-.767 0-1.534.006-2.3 0-.922-.01-1.132-.213-1.155-1.138a9.517 9.517 0 1 1-2.385-17.461zM17.446 8.1h-1.193a.076.076 0 0 0-.076.075v2a3.659 3.659 0 0 0-.392-.015 2.953 2.953 0 0 0-3.027 3.133c0 2.054 1.17 3.065 2.808 3.057a4.483 4.483 0 0 0 1.934-.44c.046-.023.06-.038.06-.083a5.55 5.55 0 0 1-.037-.74v-6.93c-.002-.038-.017-.057-.077-.057zm-5.216-.01h-1.216c-.075 0-.1.038-.136.1-.468.989-.951 2.023-1.389 3.019h-.015c-.453-1-.936-2.03-1.411-3.027a.125.125 0 0 0-.092-.082H6.628a.062.062 0 0 0-.046.106l2 3.986-2.069 3.94c-.037.045-.03.106.046.106h1.247a.146.146 0 0 0 .136-.083c.483-1 .981-2.061 1.434-3.073h.015c.506 1.072 1 2.068 1.479 3.065a.149.149 0 0 0 .159.1h1.314c.06 0 .083-.06.045-.121l-2.114-4.066 2-3.865c.039-.06.016-.105-.044-.105zm3.51 3.193a1.125 1.125 0 0 1 .437.076V15.1a1.414 1.414 0 0 1-.52.083c-.853 0-1.533-.558-1.533-1.947 0-1.221.664-1.953 1.616-1.953z"/>
</g></svg>