<svg xmlns="http://www.w3.org/2000/svg" data-laicon-version="5.5" viewBox="0 0 20 20" fill="black"><g transform="translate(-2 -2)">
  <path d="m17.127 12.926 1.857-1.239 1.251 1.876-1.856 1.237zM5.5 8.129l-2.88 1.919 1.912 2.866.628-.42L7.408 11zm7.7-1.1.047.07L15.1 5.863 13.185 3l-1.856 1.236zm-1.9 9.787-2.881 1.922 1.251 1.875 2.876-1.919zm4.759-3.176-3.778 2.521L16 21.746l3.778-2.521zm-7.665-3.3 3.778-2.521-3.719-5.565-3.778 2.521zM4.8 7.346l-.711-1.069-1.069.713.713 1.069zM6.871 19.8l.713 1.069 1.069-.713-.713-1.068zM18.719 4.255 2 15.438l3.129 4.726L22 8.906z"/>
</g></svg>