<svg xmlns="http://www.w3.org/2000/svg" data-laicon-version="18.1" viewBox="0 0 20 20" fill="black"><g transform="translate(-2 -2)">
  <path d="M20.501 18.088a1.706 1.706 0 1 1-2.415 2.412l-1.66-1.66A8.639 8.639 0 0 1 4.48 16.416l.598-.4a7.919 7.919 0 0 0 10.827 2.304l-1.32-1.321a5.926 5.926 0 0 1-8.337-2.84H3.76v-.72h2.228a5.345 5.345 0 0 1-.198-1.08H3v-.72h2.764c.01-.363.054-.725.134-1.08H3.72v-.72H6.1a5.936 5.936 0 1 1 10.884 4.701l1.364 1.368a7.822 7.822 0 0 0 1.257-4.273 7.92 7.92 0 0 0-15.057-3.42L3.9 7.906A8.682 8.682 0 0 1 11.67 3a8.639 8.639 0 0 1 7.181 13.43l1.649 1.66Zm-8.805-1.058a5.223 5.223 0 0 0 5.216-5.212 5.216 5.216 0 1 0-5.215 5.212Zm8.28 2.955.003-.018a.979.979 0 0 0 0-1.389l-3.405-3.423a5.891 5.891 0 0 1-1.379 1.44l3.391 3.39a1 1 0 0 0 1.39 0Z"/>
  <path d="M15.015 12.34a.425.425 0 0 1-.057.338.457.457 0 0 1-.461.223 1.75 1.75 0 0 1-.36-.04l-.187 1.401c-.015.277-.22.482-.612.637a3.457 3.457 0 0 1-.446.137 6.406 6.406 0 0 1-1.39.144c-.248 0-2.4-.025-2.448-.918l-.6-4.481a.183.183 0 0 1 0-.047v-.05a.254.254 0 0 1 0-.05c0-.854 1.875-1.17 3.059-1.17 1.184 0 3.063.316 3.063 1.17v.146l-.237 1.753c.29.206.524.484.676.806Zm-1.461-.414.198-1.526a8.553 8.553 0 0 1-4.482 0l.504 3.747c.546.24 1.14.348 1.735.313a5.59 5.59 0 0 0 1.224-.126c.123-.026.243-.06.36-.104a.826.826 0 0 0 .166-.083l.198-1.483a17.436 17.436 0 0 1-1.768-.763.46.46 0 0 1-.172.032.514.514 0 1 1 .49-.68c.528.255 1.086.497 1.547.673Zm-2.037-1.947a5.576 5.576 0 0 0 2.267-.36 4.964 4.964 0 0 0-2.268-.443 4.964 4.964 0 0 0-2.267.443 5.59 5.59 0 0 0 2.268.36Z"/>
</g></svg>