<svg xmlns="http://www.w3.org/2000/svg" data-laicon-version="18.6" viewBox="0 0 20 20" fill="black"><g transform="translate(-2 -2)">
  <path d="M15.262 8.51a1.295 1.295 0 0 1 1.548 1.27v.019a1.299 1.299 0 0 1-1.295 1.276h-.01l-.632 1.603a1.296 1.296 0 0 1 .457.987 1.295 1.295 0 0 1-2.57.23l-1.665-.38a1.296 1.296 0 0 1-1.13.664c-.048 0-.095-.004-.142-.009l-.509 1.191a1.294 1.294 0 1 1-2.025 1.49 1.295 1.295 0 0 1 1.346-1.782l.506-1.187a1.294 1.294 0 1 1 2.115-1.088l1.589.36a1.296 1.296 0 0 1 1.35-.773l.6-1.524-.077-.056a1.294 1.294 0 0 1 .544-2.291ZM8.485 15.8a.556.556 0 1 0 0 1.111.556.556 0 0 0 0-1.111Zm5.55-2.69a.555.555 0 1 0 0 1.11.555.555 0 0 0 0-1.11Zm-4.07-.78a.554.554 0 1 0 0 1.108.554.554 0 0 0 0-1.109Zm5.55-3.105a.555.555 0 1 0 0 1.11.555.555 0 0 0 0-1.11Z"/>
  <path d="M12 2.75c3.049 0 6.29.884 6.29 2.524v13.453c0 1.639-3.241 2.523-6.29 2.523s-6.29-.884-6.29-2.523V5.273C5.71 3.639 8.951 2.75 12 2.75ZM6.45 18.727c0 .74 2.113 1.783 5.55 1.783s5.55-1.036 5.55-1.784V6.51c-1.132.841-3.389 1.284-5.55 1.284-2.16 0-4.418-.444-5.55-1.285v12.219ZM12 3.49c-3.437 0-5.55 1.036-5.55 1.784 0 .747 2.113 1.78 5.55 1.78s5.55-1.037 5.55-1.78c0-.744-2.113-1.784-5.55-1.784Z"/>
</g></svg>