<svg xmlns="http://www.w3.org/2000/svg" data-laicon-version="18.1" viewBox="0 0 20 20" fill="black"><g transform="translate(-2 -2)">
  <path d="M2.58 14.126c-.195-.176 0-.419.217-.284a18.827 18.827 0 0 0 9.382 2.491c2.46-.01 4.895-.507 7.162-1.462.352-.148.65.23.304.48a13.589 13.589 0 0 1-7.683 2.35 13.906 13.906 0 0 1-9.382-3.575Zm15.454-.108c1.185-.833 3.134-.595 3.385-.31.25.285-.062 2.233-1.179 3.167-.169.141-.33.06-.257-.122.23-.643.792-2.044.529-2.37-.271-.344-1.76-.161-2.43-.08-.203 0-.23-.157-.048-.285Zm1.07-7.703.413.068.358.101.265.109c.07.042.134.094.19.155a.386.386 0 0 1 .053.21v.298c0 .135-.048.203-.143.203a.624.624 0 0 1-.243-.081c-.384-.167-.8-.25-1.219-.244a1.7 1.7 0 0 0-.838.177.623.623 0 0 0-.298.568.618.618 0 0 0 .19.446c.199.16.43.278.676.346l.893.284c.38.1.719.313.975.61.194.254.296.566.291.886.004.253-.051.503-.162.73a1.59 1.59 0 0 1-.461.556c-.2.162-.43.283-.677.359a3.111 3.111 0 0 1-.913.148l.02-.006a4.257 4.257 0 0 1-.975-.108 2.848 2.848 0 0 1-.724-.251.469.469 0 0 1-.196-.176.448.448 0 0 1-.04-.182v-.319c0-.128.047-.196.142-.196a.39.39 0 0 1 .12 0l.157.067c.217.097.444.17.677.217.246.054.498.08.75.081.321.02.641-.053.922-.21a.677.677 0 0 0 .325-.595.599.599 0 0 0-.17-.44 1.55 1.55 0 0 0-.636-.332l-.914-.291a1.917 1.917 0 0 1-1.009-.636 1.518 1.518 0 0 1-.317-.92c-.004-.237.054-.47.169-.677.113-.204.267-.382.453-.522.203-.15.433-.26.677-.325.26-.075.529-.11.799-.108.14-.01.28-.01.42 0ZM5.68 6.31a2.281 2.281 0 0 1 1.651.513 2.033 2.033 0 0 1 .522 1.551l-.014 2.065c-.006.19.02.38.074.561.054.157.122.31.203.454a.27.27 0 0 1 .048.142.245.245 0 0 1-.122.19l-.4.263a.292.292 0 0 1-.162.055.26.26 0 0 1-.189-.088 1.614 1.614 0 0 1-.23-.291 6.215 6.215 0 0 1-.19-.372 2.33 2.33 0 0 1-1.854.873 1.725 1.725 0 0 1-1.26-.454 1.599 1.599 0 0 1-.46-1.211 1.648 1.648 0 0 1 .568-1.3 2.324 2.324 0 0 1 1.551-.487c.226-.001.453.014.677.046.237.034.474.082.724.136v-.46a1.395 1.395 0 0 0-.297-1.009 1.436 1.436 0 0 0-1.03-.29 2.98 2.98 0 0 0-.677.08c-.23.055-.457.128-.676.217l-.224.081H3.82c-.094 0-.135-.068-.135-.196v-.312a.422.422 0 0 1 .04-.216.53.53 0 0 1 .183-.135c.254-.122.52-.218.792-.285.32-.083.65-.123.982-.121Zm10.317.163a.14.14 0 0 1 .053.033.144.144 0 0 1 .04.114.689.689 0 0 1 0 .102.35.35 0 0 1-.04.156l-1.53 4.873a.502.502 0 0 1-.128.251.408.408 0 0 1-.18.06h-.606a.36.36 0 0 1-.25-.067.435.435 0 0 1-.123-.25l-.981-4.061-.975 4.061a.433.433 0 0 1-.12.25.374.374 0 0 1-.252.068l-.554.013a.38.38 0 0 1-.245-.06.496.496 0 0 1-.134-.251L8.497 6.89a.947.947 0 0 1-.055-.258c0-.101.049-.155.15-.155h.622a.38.38 0 0 1 .244.06c.066.07.11.157.128.251L10.649 11l.996-4.203a.415.415 0 0 1 .12-.251.402.402 0 0 1 .252-.06h.507a.42.42 0 0 1 .257.06c.064.07.106.158.122.251L13.885 11l1.09-4.224a.504.504 0 0 1 .129-.25.38.38 0 0 1 .178-.061h.654c.02-.002.042 0 .062.008ZM5.634 9.558a1.444 1.444 0 0 0-.935.25.882.882 0 0 0-.311.731.881.881 0 0 0 .23.677.9.9 0 0 0 .663.183c.23 0 .46-.04.677-.116.232-.079.438-.22.596-.406a.923.923 0 0 0 .217-.4 2.19 2.19 0 0 0 .06-.547v-.284a4.879 4.879 0 0 0-.602-.088h-.595Z"/>
</g></svg>