<svg xmlns="http://www.w3.org/2000/svg" data-laicon-version="5.5" viewBox="0 0 20 20" fill="black"><g transform="translate(-2 -2)">
  <path d="m17.792 8.763 1.736-1.527a4.458 4.458 0 0 0 .694-2.408l-.022-.262c-.07-.777-.628-1.4-1.693-1.885A6.561 6.561 0 0 0 15.126 2a20.645 20.645 0 0 0-5.262 1.431l.011.01a18.563 18.563 0 0 1-2.034 1.283l.009.131a.536.536 0 0 0 .2-.079c.093-.009.14.027.14.114l.139-.079L8.4 4.8l.009.061a7.876 7.876 0 0 1-1.422 1.11l.078.122L7 6.1l-.152-.05c0 .044-.061.07-.2.079l.009.069.158.175a.581.581 0 0 1-.21-.044A1.358 1.358 0 0 0 5.7 7l.078.122a2.016 2.016 0 0 1 .454-.357l.017.192a.606.606 0 0 0-.2.078l.166.245a4.863 4.863 0 0 1 1.038-.864c.192.052.289.1.289.174l.139-.009a11.239 11.239 0 0 1 3.037-1.641l.009.131c-.183.279-.314.419-.384.427a.53.53 0 0 0 .1.253A23.415 23.415 0 0 1 9.074 9.2a97.123 97.123 0 0 1-5.3 10.961.532.532 0 0 0 .078.192 1.955 1.955 0 0 0 .673-.253l.078-.009.009.131.131-.01.14-.078c0 .043.052.061.14.052l.009.131a1.145 1.145 0 0 1-.231.6 3.172 3.172 0 0 0-.463 1.021l.013.062.131-.009a8.207 8.207 0 0 0 1.3-1.876 20.913 20.913 0 0 0 3.813-1.44 3.557 3.557 0 0 0 2.016-.694l-.009-.07-.332.1-.079.009-.009-.07a3.025 3.025 0 0 0 1.344-.436c1.265-.977 2.216-1.666 2.862-2.081 2-1.467 2.941-2.88 2.827-4.224a7.784 7.784 0 0 0-1.318-1.649c-.022-.186.284-.448.895-.797zm-6.75 1.821-.271.027v-.123l.262-.026zm-.211-4.22h.062l.017.192c-.061.01-.148.1-.253.28l-.009-.131a.647.647 0 0 0 .183-.341zm-.584 1.362.026.261L10.2 8l-.027-.262zm-.3.489.139-.018c-.017.219-.069.332-.183.341l-.069.009a.667.667 0 0 0 .108-.332zm-.219.673.07-.01.009.061-.122.21-.131.009L9.54 9.1a.174.174 0 0 0 .183-.212zm-.226.6-.035.323-.069.009-.031-.32zm3.116 7.229a11.139 11.139 0 0 0-2.042 1.157c-1.257.436-1.876.707-1.867.811a20.8 20.8 0 0 0-2.2.969.811.811 0 0 1-.358-.1.58.58 0 0 1 .3-.559 1.117 1.117 0 0 1 .559.088 5.086 5.086 0 0 1 1.082-.35l-.009-.13-.41.034a5.9 5.9 0 0 1 1.195-.558l.21-.018.009.061c-.349.027-.555.14-.593.323a.114.114 0 0 0 .139.114 1.759 1.759 0 0 0 .384-.3 22.419 22.419 0 0 0 4.172-2.182l.009.122c.009.066-.192.232-.585.519zm-3.496 1.154a1.33 1.33 0 0 0 .856-.394c.1-.017.148.027.157.105a3.1 3.1 0 0 0-.934.41l-.07.01zm5.639-4.329-1.746 1.388a16.609 16.609 0 0 1-2.1 1.291 15.635 15.635 0 0 1-3.858 1.772L6.976 18c.069-.244.986-2.129 2.766-5.673a15.3 15.3 0 0 0 3.709-1.1l.41-.035a2.4 2.4 0 0 1 1.912.488l.026.262c-.314.911-.663 1.434-1.038 1.6zm-3.413-1.929.279-.026.009.061-.279.027zM16.3 7.259c-.231.323-.384.489-.445.5a7.98 7.98 0 0 1-1.5 1.117 19.42 19.42 0 0 0-3.006 1.169.513.513 0 0 0-.28-.043l-.009-.123a1.654 1.654 0 0 1 .34-.95c.131-.714.279-1.123.445-1.218l1.448-3.256c-.017-.2.289-.357.925-.462l.21-.018.018.183 1.154-.167c1.156-.1 1.745.131 1.8.694l.13-.01-.03-.331.14-.009a.87.87 0 0 1 .541.68 1.019 1.019 0 0 1-.3.681c-.093.01-.14-.052-.148-.183l-.14.009-.034.394c-.583.872-1.002 1.318-1.259 1.343z"/>
</g></svg>