<svg xmlns="http://www.w3.org/2000/svg" data-laicon-version="16.1" viewBox="0 0 20 20" fill="black"><g transform="translate(-2 -2)">
  <path d="M15.785 12.344h-.01c.522.227.91.502 1.11.815.18.265.227.559.141.929a1.637 1.637 0 0 1-.464.834c-.246.255-.588.483-1.024.672-.805.36-1.895.598-3.24.711a25.606 25.606 0 0 1-3.261.038c-.085 0-.17-.01-.256-.01l3.848-8.605c.56.057 1.052.152 1.488.256.92.228 1.336.503 1.526.692.19.18.19.322.19.445-.03.427-.247.816-.664 1.204-.332.303-.768.588-1.308.844l-1.014 2.274c.407-.123.862-.284 1.317-.474a8.694 8.694 0 0 0 1.393-.72c.076.028.152.057.228.095Z"/>
  <path d="M20.922 12.827h-.01a5.183 5.183 0 0 1-.047 2.123 5.559 5.559 0 0 1-1.507 2.748c-.597.598-1.355 1.11-2.237 1.498-.673.303-1.45.54-2.293.72a18.55 18.55 0 0 1-2.227.313c-.645.057-1.346.085-2.057.085h-.114c-.521 0-1.07-.01-1.61-.038a24.367 24.367 0 0 1-1.716-.132L3 19.64l4.388-9.79-1.867.076 2.796-6.245 1.383-.02c.778 0 1.536.01 2.256.067 1.185.076 2.237.227 3.128.455a9.075 9.075 0 0 1 1.649.568A5.682 5.682 0 0 1 18.429 5.9a4.504 4.504 0 0 1 1.336 3.478 5.02 5.02 0 0 1-.142.92 4.965 4.965 0 0 1 1.298 2.53Zm-2.161 1.65-.01-.02c.095-.426.104-.853.029-1.25a3.03 3.03 0 0 0-.427-1.043 3.675 3.675 0 0 0-.938-.938 3.676 3.676 0 0 0-.455-.285c.085-.114.161-.227.227-.35.247-.427.38-.891.408-1.365.047-.683-.199-1.308-.701-1.81a3.836 3.836 0 0 0-1.08-.72 7.23 7.23 0 0 0-1.261-.437c-.768-.19-1.687-.322-2.74-.388-.776-.057-1.516-.057-2.094-.057l-.805 1.791c.379-.01 1.052-.028 1.838-.01l-4.094 9.146-.493 1.1 1.195.142c.019 0 .635.076 1.563.123.512.028 1.014.038 1.507.038h.104c.654 0 1.29-.028 1.886-.076a16.32 16.32 0 0 0 1.962-.275 9.217 9.217 0 0 0 1.867-.578c.635-.284 1.166-.635 1.574-1.042a3.397 3.397 0 0 0 .938-1.697Z"/>
</g></svg>