<svg xmlns="http://www.w3.org/2000/svg" data-laicon-version="5.11" viewBox="0 0 20 20" fill="black"><g transform="translate(-2 -2)">
  <path d="M20.446 7.105v9.755l-1.3.748V7.856L10.716 3l1.3-.749zm-8.1 4.3a.65.65 0 0 1 .324.563v8.981a.649.649 0 0 1-.984.558l-7.77-4.484a.646.646 0 0 1-.325-.562V7.48a.65.65 0 0 1 .975-.563zM7.291 9.992l-2.4-1.386v7.48l2.4 1.386zM11.369 17 8.59 15.4v2.827l2.779 1.6zm0-4.653-2.779-1.6v3.152l2.779 1.601zM8.163 4.466l8.45 4.869v9.73l1.3-.748V8.584L9.466 3.716zM5.534 5.978l8.44 4.864v9.741l1.3-.747v-9.745L6.837 5.229z"/>
</g></svg>