<svg xmlns="http://www.w3.org/2000/svg" data-laicon-version="17.5" viewBox="0 0 20 20" fill="black"><g transform="translate(-2 -2)">
  <path d="M6.154 4h11.694c1.14 0 1.985 1 1.947 2.083-.036 1.04.011 2.39.35 3.488.34 1.103.915 1.8 1.855 1.89v1.016c-.94.09-1.514.786-1.855 1.889-.339 1.1-.386 2.448-.35 3.489.038 1.083-.806 2.082-1.948 2.082H6.155c-1.141 0-1.985-.999-1.948-2.082.037-1.041-.01-2.39-.35-3.489-.34-1.103-.916-1.8-1.856-1.89v-1.015c.94-.09 1.516-.787 1.856-1.89.34-1.099.387-2.447.35-3.488C4.17 4.999 5.013 4 6.154 4Zm9.24 9.809c0-1.128-.794-1.945-1.973-2.074v-.047c.866-.141 1.546-.946 1.546-1.844 0-1.281-1.01-2.115-2.551-2.115H8.949v8.476h3.485c1.847 0 2.96-.904 2.96-2.396Zm-3.303-5.005c.975 0 1.528.434 1.528 1.222 0 .84-.644 1.31-1.811 1.31h-1.51V8.804h1.793Zm-1.794 3.536h1.782c1.275 0 1.938.47 1.938 1.386 0 .917-.644 1.404-1.86 1.404h-1.86v-2.79Z"/>
</g></svg>