<svg xmlns="http://www.w3.org/2000/svg" data-laicon-version="5.5" viewBox="0 0 20 20" fill="black"><g transform="translate(-2 -2)">
  <path d="M14.2 13.161a1.666 1.666 0 1 1-1.667-1.661 1.666 1.666 0 0 1 1.667 1.661zM7.627 11.5a1.666 1.666 0 1 0 1.665 1.666A1.666 1.666 0 0 0 7.627 11.5zM22 8.365v7.27A6.365 6.365 0 0 1 15.635 22h-7.27A6.365 6.365 0 0 1 2 15.635v-7.27A6.365 6.365 0 0 1 8.365 2h7.27A6.365 6.365 0 0 1 22 8.365zm-6.689 4.8a2.778 2.778 0 0 0-5.231-1.3 2.778 2.778 0 0 0-4.119-.92V8.6a.556.556 0 0 0-1.111 0v4.607a2.777 2.777 0 0 0 5.23 1.256 2.778 2.778 0 0 0 5.231-1.3zm3.735-1.9a.556.556 0 0 0-.888-.668l-1.228 1.638-1.23-1.641a.556.556 0 0 0-.889.667l1.422 1.9-1.422 1.9a.556.556 0 0 0 .889.668l1.227-1.641 1.228 1.641a.555.555 0 0 0 .888-.667l-1.422-1.9 1.422-1.9z"/>
</g></svg>