<svg xmlns="http://www.w3.org/2000/svg" data-laicon-version="5.5" viewBox="0 0 20 20" fill="black"><g transform="translate(-2 -2)">
  <path d="M17.02 5.467H3.186a1.186 1.186 0 1 0 0 2.371H15.36zm-3.4 4.743H3.186a1.194 1.194 0 1 0 .237 2.371h8.537zm-3.163 4.743H3.186a1.186 1.186 0 1 0 0 2.371h6.166l.079-.4c.079-.237.079-.632.237-.79zm9.567-11.146a1.563 1.563 0 0 1 1.344.237A1.5 1.5 0 0 1 22 5.23a10.071 10.071 0 0 1-.791 1.343 7.684 7.684 0 0 1-1.185-.473A2.69 2.69 0 0 1 19 5.072zm-1.66 2.371a4.069 4.069 0 0 0 .948.949 3.432 3.432 0 0 0 1.188.553l-7.273 10.2-.474.474L10.3 20.17c-.158.158-.316.079-.237-.158l.712-3a2.365 2.365 0 0 1 .316-.632z"/>
</g></svg>