<svg xmlns="http://www.w3.org/2000/svg" data-laicon-version="5.1" viewBox="0 0 20 20" fill="black"><g transform="translate(-2 -2)">
  <path d="M2.09 18.1a.638.638 0 0 0 .215.867l4.136 2.547a.635.635 0 0 0 .875-.207v-.008c2.621-4.383 3.145-3.746 10.973-.028a.636.636 0 0 0 .848-.3l.007-.016 1.973-4.455a.636.636 0 0 0-.316-.832 504.196 504.196 0 0 1-4.137-1.965C6.98 8.991 3.742 15.487 2.09 18.1zM21.91 5.909a.638.638 0 0 0-.215-.867L17.562 2.5a.634.634 0 0 0-.882.172.333.333 0 0 0-.024.039c-2.629 4.4-3.168 3.734-10.961.035a.636.636 0 0 0-.847.3l-.008.016-1.973 4.457a.637.637 0 0 0 .317.832c.867.406 2.589 1.218 4.14 1.968 9.688 4.688 12.922-1.773 14.586-4.41z"/>
</g></svg>