<svg xmlns="http://www.w3.org/2000/svg" data-laicon-version="7.3" viewBox="0 0 20 20" fill="black"><g transform="translate(-2 -2)">
  <path d="M19.7 12.161a3.464 3.464 0 0 1 2.125-3.213L22 4.617a33.586 33.586 0 0 1-20 0l.173 4.331a3.492 3.492 0 0 1 .251 6.309l-.257 4.126c7.057-1.048 13.258-1.266 19.666 0l-.257-4.126a3.469 3.469 0 0 1-1.876-3.096zm-4.939 3.247a3.152 3.152 0 0 1-.806.711 3.287 3.287 0 0 1-.918.387 3.642 3.642 0 0 1-.921.12 4.126 4.126 0 0 1-.978-.116 3.658 3.658 0 0 1-.9-.357 2.908 2.908 0 0 1-.747-.595 2.6 2.6 0 0 1-.5-.834 3 3 0 0 1-.191-1.082v-2.66A2.993 2.993 0 0 1 8.986 9.9a2.607 2.607 0 0 1 .5-.839 2.913 2.913 0 0 1 .747-.6 3.513 3.513 0 0 1 .9-.359 4.078 4.078 0 0 1 .978-.119 3.6 3.6 0 0 1 .926.114 3.311 3.311 0 0 1 .92.378 2.768 2.768 0 0 1 .778.7 2.987 2.987 0 0 1 .5 1.087l-1.9.6a1.132 1.132 0 0 0-.767-.783 1.462 1.462 0 0 0-.537-.063 1.38 1.38 0 0 0-.506.139 1.01 1.01 0 0 0-.375.318.855.855 0 0 0-.147.487v2.658a.909.909 0 0 0 .145.5.993.993 0 0 0 .37.331 1.231 1.231 0 0 0 .5.142 1.357 1.357 0 0 0 .54-.071 1.237 1.237 0 0 0 .483-.3 1.342 1.342 0 0 0 .339-.552l1.948.653a3.478 3.478 0 0 1-.565 1.087z"/>
</g></svg>