<svg xmlns="http://www.w3.org/2000/svg" data-laicon-version="5.0" viewBox="0 0 20 20" fill="black"><g transform="translate(-2 -2)">
  <path d="M4.0504 18.4151c1.0042 0 1.8183.814 1.8183 1.8183 0 1.0042-.814 1.8182-1.8183 1.8182-1.0042 0-1.8182-.814-1.8182-1.8182s.814-1.8183 1.8182-1.8183Zm4.0866 0c1.0042 0 1.8183.814 1.8183 1.8183 0 1.0042-.8141 1.8182-1.8183 1.8182s-1.8182-.814-1.8182-1.8182.814-1.8183 1.8182-1.8183Zm4.0866 0c1.0042 0 1.8182.814 1.8182 1.8183 0 1.0042-.814 1.8182-1.8182 1.8182s-1.8183-.814-1.8183-1.8182.814-1.8183 1.8183-1.8183Zm4.0903.4508c.7552 0 1.3674.6123 1.3674 1.3675s-.6122 1.3674-1.3674 1.3674-1.3674-.6122-1.3674-1.3674.6122-1.3675 1.3674-1.3675ZM4.0504 14.322c1.0042 0 1.8183.814 1.8183 1.8183 0 1.0042-.814 1.8182-1.8183 1.8182-1.0042 0-1.8182-.814-1.8182-1.8182s.814-1.8183 1.8182-1.8183Zm12.2635 0c1.0042 0 1.8183.814 1.8183 1.8183 0 1.0042-.814 1.8182-1.8183 1.8182-1.0042 0-1.8182-.814-1.8182-1.8182s.814-1.8183 1.8182-1.8183Zm4.0865.4508c.7552 0 1.3674.6123 1.3674 1.3675s-.6122 1.3674-1.3674 1.3674-1.3674-.6122-1.3674-1.3674.6122-1.3675 1.3674-1.3675Zm-16.35-4.5439c1.0042 0 1.8183.814 1.8183 1.8183 0 1.0042-.814 1.8182-1.8183 1.8182-1.0042 0-1.8182-.814-1.8182-1.8182s.814-1.8183 1.8182-1.8183Zm12.2635 0c1.0042 0 1.8183.814 1.8183 1.8183 0 1.0042-.814 1.8182-1.8183 1.8182-1.0042 0-1.8182-.814-1.8182-1.8182s.814-1.8183 1.8182-1.8183Zm4.0865.4508c.7552 0 1.3674.6123 1.3674 1.3675s-.6122 1.3674-1.3674 1.3674-1.3674-.6122-1.3674-1.3674.6122-1.3675 1.3674-1.3675Zm-16.35-4.535c1.0042 0 1.8183.814 1.8183 1.8183 0 1.0041-.814 1.8182-1.8183 1.8182-1.0042 0-1.8182-.814-1.8182-1.8182s.814-1.8183 1.8182-1.8183Zm12.2635-.0089c1.0042 0 1.8183.814 1.8183 1.8183 0 1.0041-.814 1.8182-1.8183 1.8182-1.0042 0-1.8182-.814-1.8182-1.8182s.814-1.8183 1.8182-1.8183Zm4.0865.4508c.7552 0 1.3674.6123 1.3674 1.3675s-.6122 1.3674-1.3674 1.3674-1.3674-.6122-1.3674-1.3674.6122-1.3675 1.3674-1.3675Zm-16.35-4.535c1.0042 0 1.8183.814 1.8183 1.8183 0 1.0041-.814 1.8182-1.8183 1.8182-1.0042 0-1.8182-.814-1.8182-1.8182s.814-1.8183 1.8182-1.8183Zm4.0866 0c1.0042 0 1.8183.814 1.8183 1.8183 0 1.0041-.8141 1.8182-1.8183 1.8182S6.3188 4.8741 6.3188 3.87s.814-1.8183 1.8182-1.8183Zm4.0866 0c1.0042 0 1.8182.814 1.8182 1.8183 0 1.0041-.814 1.8182-1.8182 1.8182s-1.8183-.814-1.8183-1.8182.814-1.8183 1.8183-1.8183Zm4.0903.4508c.7552 0 1.3674.6123 1.3674 1.3675s-.6122 1.3674-1.3674 1.3674-1.3674-.6122-1.3674-1.3674.6122-1.3675 1.3674-1.3675Z"/>
</g></svg>