<svg xmlns="http://www.w3.org/2000/svg" data-laicon-version="5.5" viewBox="0 0 20 20" fill="black"><g transform="translate(-2 -2)">
  <path d="M11.213 2.005c-.047 0-.2.022-.332.035a10.065 10.065 0 0 0-5.362 2.309 13.061 13.061 0 0 0-1.17 1.171 10.044 10.044 0 0 0-2.3 5.27 15.766 15.766 0 0 0 0 2.42 10.043 10.043 0 0 0 2.3 5.271 13.194 13.194 0 0 0 1.17 1.171 10.058 10.058 0 0 0 5.271 2.3 16.024 16.024 0 0 0 2.42 0 10.058 10.058 0 0 0 5.271-2.3 13.194 13.194 0 0 0 1.17-1.171 10.043 10.043 0 0 0 2.3-5.271 15.766 15.766 0 0 0 0-2.42 10.044 10.044 0 0 0-2.3-5.27 13.061 13.061 0 0 0-1.17-1.171 10.061 10.061 0 0 0-5.256-2.3A9.973 9.973 0 0 0 12.111 2c-.445-.005-.851 0-.9 0zm.123 1.063c0 .287.02.912.047 1.505.014.29.032.706.039.922.027.767.108 2.782.121 2.961l.012.18-.111-.012a.423.423 0 0 1-.128-.027 3 3 0 0 1-.034-.379c-.044-.876-.19-4.272-.2-4.769l-.019-.549.069-.01c.037 0 .1-.012.138-.015h.066zm2.354-.059s.009.745.017 1.65.022 1.722.029 1.81a.384.384 0 0 1-.007.175.388.388 0 0 1-.133 0l-.113-.01-.017-.716c-.01-.4-.022-.834-.027-.976-.02-.436-.037-1.914-.022-1.951s.037-.029.14-.012c.071.015.13.027.133.03zM8 3.833c.015.022.13 1.377.273 3.15.047.6.093 1.154.1 1.222.012.126.01.131-.069.18a.431.431 0 0 1-.1.049.351.351 0 0 1-.03-.142c-.034-.32-.167-1.865-.261-2.981-.054-.657-.1-1.245-.11-1.309-.013-.108-.01-.118.054-.152s.127-.05.143-.017zm6.771.494c.069.024.076.037.091.177a12.579 12.579 0 0 1-.01 1.422.347.347 0 0 1-.231-.131c-.008-.029-.015-.379-.015-.775.001-.799-.006-.752.166-.693zm-4.543.115c0 .067.017.433.037.819s.042.876.052 1.088c.017.428.022.413-.143.423-.081 0-.081 0-.086-.121-.005-.069-.017-.283-.032-.48s-.042-.622-.061-.946-.045-.647-.052-.716c-.015-.123-.012-.128.054-.153a.545.545 0 0 1 .152-.027c.079 0 .079 0 .079.113zm6.823.337.083.035.018.329c.007.18.012.569.007.861l-.007.536-.1-.051-.1-.049-.007-.817v-.848c.006-.037.006-.037.107.004zm-4.49.321c.015.014.049 1.207.051 1.812v.364l-.112-.015a1.2 1.2 0 0 1-.123-.017c-.007 0-.081-1.828-.081-2v-.187l.126.015a.546.546 0 0 1 .14.03zm5.664.174c.029.035.034.573.042 3.544a21.9 21.9 0 0 1-.037 3.5.162.162 0 0 1-.086-.032 26.493 26.493 0 0 1-.054-3.239c-.01-1.766-.022-3.369-.03-3.564l-.015-.354.072.052a.74.74 0 0 1 .108.093zm-2.206.5a1.285 1.285 0 0 1 .027.31c.012.544.015 3.876 0 3.886a.244.244 0 0 1-.1-.027l-.089-.037V5.729l.069.015a.256.256 0 0 1 .089.036zm-6.788.138c.007.067.019.217.027.34s.024.4.039.61c.03.432.025.459-.116.459-.073 0-.083-.007-.093-.081-.025-.145-.111-1.355-.1-1.375a.553.553 0 0 1 .2-.066c.015 0 .034.049.042.113zm-4.068.627c.027.261.081.807.12 1.213s.076.75.076.765-.189.123-.209.1-.258-2.189-.258-2.287c0-.059.19-.308.214-.281.007 0 .032.224.057.487zm9.643.259.072.041v.532c0 .29.007.614.007.72 0 .222-.022.258-.155.212l-.076-.027V8.07c0-.118-.007-.46-.017-.762l-.015-.546h.057a.312.312 0 0 1 .125.042zm-8.564.954c.045.472.116 1.269.163 1.771l.083.91-.1.1-.093.1-.017-.194c-.01-.108-.059-.61-.111-1.116s-.125-1.242-.162-1.633l-.065-.712.1-.088c.086-.082.1-.084.113-.04.006.025.047.433.089.908zm-1.842.3c.054.485.2 1.774.32 2.863s.239 2.14.261 2.337.054.494.073.664c.035.288.035.307 0 .337-.059.044-.084.039-.084-.013 0-.022-.022-.209-.049-.41-.045-.337-.118-.908-.283-2.189-.035-.258-.1-.772-.148-1.144s-.12-.925-.16-1.23-.1-.826-.147-1.163a6.009 6.009 0 0 1-.064-.664.886.886 0 0 1 .177-.283c.004.011.05.411.104.898zm-.752 1.06c.037.3.1.834.152 1.2s.106.819.133 1.008l.047.344-.052.045c-.029.024-.059.034-.069.024a.988.988 0 0 1-.044-.216c-.015-.108-.106-.74-.2-1.4l-.175-1.2.057-.167a.581.581 0 0 1 .069-.165 5.1 5.1 0 0 1 .082.53zm13.5-.322a5.282 5.282 0 0 1 .039 1.316v1.277h-.068c-.15 0-.148.036-.158-1.361l-.007-1.271h.079a.182.182 0 0 1 .117.042zm-5.384.441a4.78 4.78 0 0 1 1.52.484 2.9 2.9 0 0 1 .8.6 4.971 4.971 0 0 1 1.122 1.523 10.056 10.056 0 0 1 .809 3.75c.1.937.221 2.637.248 3.333.008.2.025.534.04.738.027.433.059.374-.323.558a8.218 8.218 0 0 1-1.709.6 8.152 8.152 0 0 1-2.164.268h-.591l.005-.283c0-.155.015-.516.03-.8a31.449 31.449 0 0 0-.037-4.058 8.9 8.9 0 0 0-.214-1.364c-.012-.032.044-.059.288-.142a2.564 2.564 0 0 0 .89-.445c.106-.182-.083-.443-.325-.443a1.115 1.115 0 0 0-.282.1 9.3 9.3 0 0 1-2.293.617 6.507 6.507 0 0 1-1.6-.066 4.8 4.8 0 0 1-1.107-.421 1.4 1.4 0 0 1-.8-.9 2.212 2.212 0 0 1 .024-.812 2.63 2.63 0 0 1 .391-.8 6.239 6.239 0 0 1 3.631-2 5.464 5.464 0 0 1 1.647-.022zm7.588.076c.088.037.1.046.1.13 0 .672-.01 2.206-.022 2.27 0 .022-.13.025-.184 0-.035-.012-.04-.145-.04-1.23 0-.777.01-1.215.025-1.215a.653.653 0 0 1 .123.04zm1.075 1.35.088.037-.015 2.039c-.02 2.595-.022 2.671-.116 2.895-.152.367-.145.44-.13-1.168 0-.8.017-1.618.022-1.808s.01-.723.012-1.188a5.272 5.272 0 0 1 .025-.841.554.554 0 0 1 .116.037zm-14.792.612a.546.546 0 0 1-.061.377l-.079.167-.029-.246c-.047-.394-.047-.411.046-.47a.2.2 0 0 1 .094-.044.956.956 0 0 1 .029.216zm-1.52 1.483c.023.2.2 1.54.283 2.2.133 1.016.143 1.161.084 1.1-.008-.007-.064-.349-.123-.76a15.3 15.3 0 0 1-.349-2.654c.068-.045.09-.02.107.117zm1.771 1.127c.015.061.086.728.086.809s-.088.133-.128.094a2.983 2.983 0 0 1-.068-.463c-.028-.243-.055-.5-.062-.563l-.014-.12.086.1a.511.511 0 0 1 .102.146zm1.985.927c.027.025.044.123.066.389.037.479.042.442-.059.442s-.1.008-.135-.425-.034-.435.032-.435a.2.2 0 0 1 .098.032zm1.948.037c.005.025.017.172.027.327s.029.5.049.775c.069.993.071 1.119.03 1.119s-.052-.037-.106-.738c-.02-.29-.057-.748-.081-1.016s-.037-.492-.03-.5c.027-.03.1-.008.111.029zm-4.619.475c.015.022.108.809.224 1.884.034.325.069.637.076.7l.009.098-.061-.039a.127.127 0 0 1-.064-.121c0-.155-.106-1.176-.187-1.8-.047-.354-.084-.667-.084-.7a.046.046 0 0 1 .084-.03zm14.194 1.028-.018 1.028-.061.091c-.14.207-.133.246-.125-.905v-1.055l.091-.093a.5.5 0 0 1 .109-.091c.007 0 .007.462 0 1.025zm-2.275 1.631c.012 1.429.01 1.54-.03 1.584-.024.027-.047.044-.054.037s-.042-3.136-.022-3.153a.08.08 0 0 1 .057-.013 7.113 7.113 0 0 1 .049 1.545zM9.083 17c.017.153.079.883.1 1.227.015.232.015.239-.039.256a.081.081 0 0 1-.074-.005c-.017-.017-.071-.563-.137-1.4l-.018-.2h.077c.071 0 .076 0 .088.128zm-1.933.861a.26.26 0 0 1 .029.14c0 .064.03.4.062.74.093.942.1 1.07.059 1.046-.064-.037-.121-.094-.108-.109a1.691 1.691 0 0 0-.025-.273c-.017-.142-.039-.373-.049-.516s-.032-.4-.052-.578c-.046-.43-.044-.48.01-.48a.117.117 0 0 1 .074.03zm1.163 1.655c.008.054.022.256.032.448.017.369.01.4-.091.319-.029-.022-.049-.115-.078-.4-.052-.506-.055-.487.041-.477.072.01.083.02.096.108zm-.878-9.1a.327.327 0 1 0 .408.474.326.326 0 0 0-.408-.474zm1.668.236a.377.377 0 0 0 0 .639.363.363 0 1 0 0-.639z"/>
</g></svg>