<svg xmlns="http://www.w3.org/2000/svg" data-laicon-version="5.0" viewBox="0 0 20 20" fill="black"><g transform="translate(-2 -2)">
  <path d="M11.3977 2.3355a1.2 1.2 0 0 1 1.2046 0l7.4608 4.3299a1.2 1.2 0 0 1 .5977 1.0379v8.6208a1.2 1.2 0 0 1-.6005 1.0396l-7.4608 4.3024a1.2 1.2 0 0 1-1.199 0l-7.4608-4.3024a1.2 1.2 0 0 1-.6005-1.0396V7.7033a1.2 1.2 0 0 1 .5977-1.038Zm-7.118 6.0863a.3.3 0 0 0-.0403.1502v3.8166a1 1 0 0 0 .4884.8592l3.2384 1.9284a1 1 0 0 1 .4884.8592v.4098a.3.3 0 0 1-.444.2632l-3.3272-1.821a.3.3 0 0 0-.444.2632v.5295a1 1 0 0 0 .4972.8644l6.155 3.5802a.3.3 0 0 0 .451-.2593V15.998a1 1 0 0 0-.4994-.8656l-3.1115-1.8a1.3 1.3 0 0 1-.6491-1.1252v-.0286a.454.454 0 0 1 .6775-.3952l3.1347 1.7732a.3.3 0 0 0 .4477-.2611v-.559a1 1 0 0 0-.4994-.8656L4.6896 8.3123a.3.3 0 0 0-.4099.1095Zm15.1809-.225a.3.3 0 0 0-.1501.0402L13.16 11.7905a1 1 0 0 0-.4997.8659v7.1102a.3.3 0 0 0 .4501.2598l6.3505-3.6714a.6.6 0 0 0 .2997-.5194v-.786a.3.3 0 0 0-.4472-.2615l-3.2498 1.8298a.3.3 0 0 1-.4472-.2614v-.4977a1 1 0 0 1 .5013-.8668l3.342-1.9227a.6.6 0 0 0 .3009-.52v-.7636a.3.3 0 0 0-.4478-.2611l-3.2486 1.8384a.3.3 0 0 1-.4478-.261v-.4906a1 1 0 0 1 .4897-.86l3.3607-1.994a.6.6 0 0 0 .2938-.516v-.7446a.3.3 0 0 0-.3-.3Zm-5.4504-3.1155-.4188.2276a.3.3 0 0 0-.0118.5204l1.4506.8753a.3.3 0 0 1-.0122.5207l-3.5152 1.902a.8.8 0 0 1-.76.0008l-1.5687-.8446a1 1 0 0 0-.877-.0347l-.5338.235a.3.3 0 0 0-.0292.5342l3.5921 2.0772a1.3 1.3 0 0 0 1.3001.0008l5.7308-3.3044a.4.4 0 0 0 .0047-.6903l-3.363-2.0007a1 1 0 0 0-.9886-.0193ZM12.7397 3.732a1.3 1.3 0 0 0-1.3017 0L5.436 7.2038a.33.33 0 0 0-.0075.567l.9417.5782a1.3 1.3 0 0 0 1.3121.0283l6.2103-3.4542a.3.3 0 0 0 .0044-.5219Z"/>
</g></svg>