<svg xmlns="http://www.w3.org/2000/svg" data-laicon-version="5.5" viewBox="0 0 20 20" fill="black"><g transform="translate(-2 -2)">
  <path d="M2 2v20h20V2zm17.26 12.342a11.856 11.856 0 0 1-4.145 2.937s-3.551 1.645-5.944.088a4.129 4.129 0 0 1-1.98-3.195 11.226 11.226 0 0 1-2.846-.523c-1.114-.435.008-1.747.008-1.747s.342-.543.993 0a2.626 2.626 0 0 0 1.868.3 11.009 11.009 0 0 1 .82-3.177c1.113-2.5 2.818-3.342 4.2-3.369A3.4 3.4 0 0 1 15.44 7.2c1.873 4.643-4.995 6.993-4.995 6.993s-.2 1.236 1.683 1.188c2.315 0 4.749-1.794 5.675-2.552a.553.553 0 0 1 .75.044l.693.72a.553.553 0 0 1 .014.749zm-7.132-3.011c-1.384.951-2.009.761-2.009.761.082-3.231 2.2-4.642 2.933-3.936s.461 2.225-.924 3.175z"/>
</g></svg>