<svg xmlns="http://www.w3.org/2000/svg" data-laicon-version="5.5" viewBox="0 0 20 20" fill="black"><g transform="translate(-2 -2)">
  <path d="m8.048 9.61 3.8-2.193a.308.308 0 0 1 .308 0l3.8 2.193a.307.307 0 0 1 .154.266v4.386a.307.307 0 0 1-.154.266l-3.8 2.193a.308.308 0 0 1-.308 0l-3.8-2.193a.307.307 0 0 1-.154-.266V9.876a.307.307 0 0 1 .154-.266m13.828 2-4.538-7.9a.956.956 0 0 0-.8-.5H7.461a.956.956 0 0 0-.8.5l-4.537 7.88a.939.939 0 0 0 0 .932l4.538 7.831a.9.9 0 0 0 .8.431h9.078a.892.892 0 0 0 .8-.427l4.538-7.844a.889.889 0 0 0 0-.9m-3.758 3.8a.333.333 0 0 1-.17.282l-5.782 3.335a.329.329 0 0 1-.327 0l-5.787-3.344a.332.332 0 0 1-.171-.282v-6.67a.331.331 0 0 1 .17-.282l5.781-3.335a.324.324 0 0 1 .327 0l5.786 3.335a.334.334 0 0 1 .171.282z"/>
</g></svg>