<svg xmlns="http://www.w3.org/2000/svg" data-laicon-version="6.2" viewBox="0 0 20 20" fill="black"><g transform="translate(-2 -2)">
  <path d="M20.327 10.688a6.773 6.773 0 0 0-.681-2.4 7.036 7.036 0 0 0-1.413-1.928 2.755 2.755 0 0 0-.326-1.978 2.926 2.926 0 0 0-1.907.49c-.041-.016-.081-.035-.122-.051-.174-.07-.352-.136-.535-.195s-.371-.111-.561-.156a8.144 8.144 0 0 0-.691-.127 3.556 3.556 0 0 0-1.725-2.019 3.782 3.782 0 0 0-1.7 2.167l-.015.073c-.077.023-.158.045-.235.07-.109.033-.217.074-.326.113s-.217.084-.324.131a6.99 6.99 0 0 0-1.23.687l-.05-.023a4.913 4.913 0 0 0-3.72.158 5.388 5.388 0 0 0 .975 3.662 9.178 9.178 0 0 0-.479 2.081A4.862 4.862 0 0 0 2.9 14.182a5.2 5.2 0 0 0 3.294 1.857 7.75 7.75 0 0 0 .779 1.142c.123.15.252.293.385.433a4.092 4.092 0 0 0 .078 2.907 4.72 4.72 0 0 0 3.04-.927 7.746 7.746 0 0 0 2.5.4h.273a3.418 3.418 0 0 0 2.2 1.3 3.507 3.507 0 0 0 1.056-2.323v-.093a6.428 6.428 0 0 0 .6-.474 6.2 6.2 0 0 0 1.117-1.342 2.787 2.787 0 0 0 1.925-.7 2.928 2.928 0 0 0-1-1.86l-.015-.01-.012-.01-.025-.016c.007-.073.013-.142.016-.213.009-.128.013-.255.013-.379v-.278l-.007-.106c0-.034 0-.069-.007-.1s-.007-.065-.011-.1l-.012-.1-.015-.1a4.907 4.907 0 0 0-1.6-2.946 4.749 4.749 0 0 0-2.545-1.153 4.867 4.867 0 0 0-.672-.038h-.169L14 8.954a3.776 3.776 0 0 0-2.634 1.339 3.692 3.692 0 0 0-.607 1.024 3.629 3.629 0 0 0-.246 1.436v.071c0 .044.006.087.011.13a2.843 2.843 0 0 0 .551 1.437 2.79 2.79 0 0 0 1.446 1.009 2.606 2.606 0 0 0 .767.108h.189l.078-.008h.046l.048-.007a.85.85 0 0 0 .088-.015c.029-.007.057-.011.086-.019a2.083 2.083 0 0 0 .722-.328c.022-.016.045-.033.067-.052a.2.2 0 0 0 .032-.275.193.193 0 0 0-.244-.047l-.061.033a1.778 1.778 0 0 1-.224.091 1.919 1.919 0 0 1-.375.076.477.477 0 0 1-.066 0h-.237a.294.294 0 0 1-.035 0c-.025 0-.048-.005-.072-.008a2.012 2.012 0 0 1-.572-.168 2.045 2.045 0 0 1-.527-.346 1.992 1.992 0 0 1-.636-1.165 1.866 1.866 0 0 1-.022-.35v-.192a2.5 2.5 0 0 1 1.068-1.809 2.461 2.461 0 0 1 .74-.339A2.308 2.308 0 0 1 14 10.5h.214a3.173 3.173 0 0 1 1.291.387 3.1 3.1 0 0 1 1.268 1.313 2.964 2.964 0 0 1 .314 1.116v.12a.582.582 0 0 1 0 .059.5.5 0 0 1 0 .055v.109l-.006.138a4.752 4.752 0 0 1-.063.5 4.043 4.043 0 0 1-.211.733 4.175 4.175 0 0 1-.493.892 3.989 3.989 0 0 1-2.557 1.591 3.812 3.812 0 0 1-.512.052h-.258a5.229 5.229 0 0 1-1.355-.209 5.377 5.377 0 0 1-3.275-2.7 5.248 5.248 0 0 1-.557-2.045v-.525c.007-.174.021-.356.043-.536a6.842 6.842 0 0 1 .221-1.07 6.991 6.991 0 0 1 .374-1.008 5.56 5.56 0 0 1 1.15-1.659 4.708 4.708 0 0 1 .753-.6 4.452 4.452 0 0 1 .413-.241c.071-.04.144-.072.216-.107l.109-.049a5.617 5.617 0 0 1 .564-.211l.115-.035c.038-.012.077-.021.116-.033.078-.023.156-.041.234-.06.039-.01.079-.016.119-.026l.118-.025.119-.022.06-.011.06-.008.121-.018c.045-.008.09-.011.135-.019l.133-.016c.028 0 .058-.007.084-.008l.057-.006h.062c.045 0 .09-.007.135-.008h.115l.115-.006a6.354 6.354 0 0 1 1.349.1 6.256 6.256 0 0 1 1.618.537 6.484 6.484 0 0 1 1.32.861l.071.061.071.061c.047.041.09.085.135.126s.088.084.131.126.084.085.125.13a6.848 6.848 0 0 1 1.114 1.562c.009.021.022.041.032.062l.031.061.059.123c.019.041.04.079.056.121l.051.119a6.921 6.921 0 0 1 .346 1.046.151.151 0 0 0 .159.112.147.147 0 0 0 .136-.145 5.573 5.573 0 0 0-.019-.676z"/>
</g></svg>