<svg xmlns="http://www.w3.org/2000/svg" data-laicon-version="6.8" viewBox="0 0 20 20" fill="black"><g transform="translate(-2 -2)">
  <path d="M21.894 8.928a5.305 5.305 0 0 0-.459-1.558.623.623 0 0 0-.114-.149 1.169 1.169 0 0 0-.424-.258.635.635 0 0 0-.5 0 .372.372 0 0 0-.1.076 2.254 2.254 0 0 0-.25.323 1.752 1.752 0 0 1-.281.346 1.471 1.471 0 0 1-.418.225 2.8 2.8 0 0 0-.217-.423 3.926 3.926 0 0 0-.333-.45 1.873 1.873 0 0 0-.3-.291c-.106-.081-.215-.149-.341-.228a7.121 7.121 0 0 1-.923-.725c-.134-.117-.27-.236-.4-.345a3.516 3.516 0 0 0-2.057-.9 5.153 5.153 0 0 0-2.3.513 3.327 3.327 0 0 0-1 .634 6.113 6.113 0 0 0-.719.836 1.257 1.257 0 0 0-.392.082 1.544 1.544 0 0 0-.449.3c-.12.1-.235.212-.346.319s-.2.2-.3.3a9.883 9.883 0 0 0-2.009.49 5.258 5.258 0 0 0-1.646 1.016 4.266 4.266 0 0 0-.572.614 4.506 4.506 0 0 0-.423.671 4.427 4.427 0 0 1-.329.341 1.2 1.2 0 0 1-.368.239c-.079.031-.111.048-.115.047s-.006-.014-.011-.035a1.042 1.042 0 0 0 .241-.726.883.883 0 0 1 .069.1c.026.039.052.08.083.12l.132.165.046-.206a1.466 1.466 0 0 0 .022-.6.556.556 0 0 0-.191-.334l.029-.074c.033-.084.067-.171.1-.252l.056-.162L4.21 9a2.475 2.475 0 0 0-1.051.659 1.621 1.621 0 0 0-.307.43.819.819 0 0 0-.079.491A.8.8 0 0 0 3 11c.024.1.046.181.07.257a1.758 1.758 0 0 0 .093.24.729.729 0 0 0 .441.391.91.91 0 0 0 .47.015 4.2 4.2 0 0 0-.059.575 7.382 7.382 0 0 0 .03.912c.006.076.016.16.028.25s.024.153.038.229l-.089.244-.14.38-.306.3-.287.283-.069.067c-.193.186-.231.223-.177.55a2.009 2.009 0 0 0 .2.6 2.148 2.148 0 0 0 .386.521 2.727 2.727 0 0 0 .888.591 1.179 1.179 0 0 0 .6.082q-.013.045-.03.09c-.03.084-.064.168-.1.251a.643.643 0 0 0 .386.965A4.009 4.009 0 0 0 6 19l.14.037a5.655 5.655 0 0 0 1.067.215c.427.027.812-.061.916-.445a2.164 2.164 0 0 0 .074-.382 1.938 1.938 0 0 0-.007-.345 2.48 2.48 0 0 1 .262-.475l.045-.067a.823.823 0 0 0 .157-.354 1.51 1.51 0 0 0-.018-.384l-.009-.07a6.034 6.034 0 0 0 .742.051c.124 0 .248 0 .373-.009l-.1.05-.046.023c-.33.17-.344.491-.241.822a3.465 3.465 0 0 0 .405.787 2.855 2.855 0 0 0 .786.9 1.032 1.032 0 0 0 1.108-.035.9.9 0 0 0 .4-.422c.029-.052.062-.109.1-.165.1-.063.331-.258.563-.45l.247-.2a.61.61 0 0 0 .225.1 2.712 2.712 0 0 0 .42.052c.125.009.529.009.791.009h.188a1.316 1.316 0 0 0 .653-.106.66.66 0 0 0 .3-.591 1.054 1.054 0 0 0-.008-.316.953.953 0 0 0-.114-.267c0-.137-.008-.274-.011-.41l-.012-.435a1.969 1.969 0 0 0-.058-.446 2.886 2.886 0 0 0-.149-.423c-.045-.106-.081-.2-.116-.3l-.1.034.027-.014.08-.029a4.919 4.919 0 0 0-.19-.459c.005-.031.01-.063.015-.1l.15.145.222.214a2.84 2.84 0 0 0 .506.419 1.16 1.16 0 0 0 .673.162A1.6 1.6 0 0 0 17.3 15a1.409 1.409 0 0 0 .522-.693l.071-.233.057-.187a4.61 4.61 0 0 0 1.249.047 3.093 3.093 0 0 0 1.126-.323A2.846 2.846 0 0 0 21.45 12.5a4.372 4.372 0 0 0 .525-1.741 7.578 7.578 0 0 0-.081-1.833zm-5.206 4.2a2.651 2.651 0 0 1-.6-.32 1.529 1.529 0 0 1 .006.763c-.117.395-.306 1.042.231 1.162a.7.7 0 0 0 .586-.11 1.075 1.075 0 0 1-.512.01.333.333 0 0 1-.263-.228.888.888 0 0 0 .275.091.694.694 0 0 0 .852-.372 2.426 2.426 0 0 1 .127-.466c.082.026.168.049.255.07l-.148.482a1.168 1.168 0 0 1-1.066.746 1.464 1.464 0 0 1-.946-.511c-.193-.173-.379-.337-.564-.5a4.364 4.364 0 0 1-1.382-.7 2.442 2.442 0 0 0 1.028.806 8.9 8.9 0 0 1-.514 1.859 6.411 6.411 0 0 1-1.028 1.615c-.144.084-1.051.847-1.221.948-.127.169-.239.4-.43.5-.582.307-.955-.282-1.269-.779-.142-.227-.538-.88-.193-1.063a9.126 9.126 0 0 0 .842-.515c.049.089.133.176.188.265-.012-.1-.025-.2-.037-.293a2.293 2.293 0 0 1-.007-.5c.014-.172.027-.344.041-.516-.05.175-.15.35-.2.524a1.833 1.833 0 0 0-.046.179 5.882 5.882 0 0 1-2.236.029c-.048-.277-.106-.565-.154-.771-.015.231-.006.871-.007 1.229a.918.918 0 0 1-.156.609 5.971 5.971 0 0 0-.378.644 1.6 1.6 0 0 1-.047.615c-.1.372-1.154.084-1.431.008-.341-.093-1.047-.232-.869-.687a5.841 5.841 0 0 0 .331-1.382 7.491 7.491 0 0 1-1.318-3.229 4.044 4.044 0 0 1 .149-1.89 4.831 4.831 0 0 1 1.356-2.101 5.24 5.24 0 0 1 3-1.281c-.311.348-.618.715-.952 1.109a5.594 5.594 0 0 0-.755 1.237 1.023 1.023 0 0 0 .1 1.36A3.567 3.567 0 0 1 8 12.881a2.284 2.284 0 0 0-.208.81 2.435 2.435 0 0 0 1.128.861 1.465 1.465 0 0 0 1.08-.105 5.75 5.75 0 0 1 2.4-.943 4.536 4.536 0 0 0 .172-2.828 14.1 14.1 0 0 1-.23-1.978 4.723 4.723 0 0 0-.075 2.013 3.806 3.806 0 0 1-.149 2.507 6.08 6.08 0 0 0-2.213.924 1.205 1.205 0 0 1-.914.077 1.726 1.726 0 0 1-.822-.65 1.6 1.6 0 0 1 .25-.882c.275-.542.578-1.046.911-1.579a15.257 15.257 0 0 0-1.115 1.4 3.353 3.353 0 0 0-.588-.92.765.765 0 0 1-.1-1 4.489 4.489 0 0 1 .753-1.231c.627-.677 1.2-1.431 1.888-2.1a1.353 1.353 0 0 1 1.017-.425c.447-.068.883-.153 1.338-.259-.44.041-.866.056-1.295.067h-.013a3.006 3.006 0 0 1 1.352-1.137c1.687-.732 2.758-.811 4.084.3.343.288.643.569.991.818a1.246 1.246 0 0 0-.379.089 1.607 1.607 0 0 1 .559.033c.051.034.1.066.157.1a1.472 1.472 0 0 1 .552.457 4.9 4.9 0 0 1 .451.759c-.084-.03-.155-.056-.218-.075a.482.482 0 0 0-.151-.04.473.473 0 0 0-.293.068l-.01.005a2.094 2.094 0 0 1-.488.164.588.588 0 0 0 .306.005l.031-.01a.472.472 0 0 0-.013.455.238.238 0 0 0 .05.078c-.065.023-.131.05-.2.08a3.118 3.118 0 0 1 .9-.016c.02.1.041.2.06.3l-.114.009h-.002a.573.573 0 0 0-.528-.046c-.672.154-.514.531-.823 1.1.321-.393.3-.8.82-.927a.853.853 0 0 1 .287-.053.659.659 0 0 0-.328.343c-.143.4-.054.747-.212 1.125.2-.338.207-.669.382-1.025a.72.72 0 0 1 .439-.336h.117a2.916 2.916 0 0 1 .042.635 7 7 0 0 1-.165 1.033 3.158 3.158 0 0 0 .336-1.048A2.988 2.988 0 0 0 19.2 8.73c-.1-.52.439-.436.75-.681a8.712 8.712 0 0 0 .6-.672c.208-.2.536.1.618.292a7.3 7.3 0 0 1 .423 3.075 3.276 3.276 0 0 1-1.431 2.51 4.292 4.292 0 0 1-3.464-.129zm-1.552 4.313c-.036.4-.169.427-.521.421-.16 0-.8-.005-.958-.019a.93.93 0 0 1-.426-.092 5.333 5.333 0 0 0 1.087-1.725c.125-.395.263-.74.365-1.105a4.433 4.433 0 0 0 .153.466 1.766 1.766 0 0 1 .178.729c.009.307.017.614.026.921a.507.507 0 0 1 .1.4zM4.345 14.4a8.271 8.271 0 0 0 1.045 2.215v.012a.831.831 0 0 1-.123.308c-.308.411-1.089-.192-1.316-.423a1.558 1.558 0 0 1-.452-.833c-.029-.2 0-.209.142-.354l.577-.585.127-.337zM3.91 9.449a2.129 2.129 0 0 0-.128.318c-.123.424.055.8-.329 1.108.181.365.172.51.592.342a1.369 1.369 0 0 0 .415-.264q-.084.221-.159.455l-.024.078c-.3.128-.7.209-.847-.107a2.978 2.978 0 0 1-.168-.5c-.5-.513.245-1.19.648-1.433zm.243.543c-.061-.061-.11-.1-.189-.093a1.313 1.313 0 0 1 .028-.149c.006-.024.013-.048.02-.071.1.059.13.167.141.313zM18.99 8.078c.019.039.037.079.055.12a.347.347 0 0 0-.045.034.468.468 0 0 0-.1-.152h.091zM4.705 10.4zm-1.611.545zm5.414 5.66zm4.46 1.331zm1.813-3.436zm-10.82-3.479v-.009.009zm17.4 1.43zM2.215 10.9A2.672 2.672 0 0 1 3.1 8.95a1.637 1.637 0 0 0-.885 1.95m-.205-.728a1.844 1.844 0 0 1 .416-.882.746.746 0 0 0-.416.882m9.321-5.593c-.476.114-.566.2-.709.669a1.839 1.839 0 0 1 .709-.669m.751-.068c-.944.231-1.221.4-1.535 1.49a2.666 2.666 0 0 1 1.535-1.49M14.115 8.5a1.582 1.582 0 0 1 .972-1.207c-.918.229-1.09.615-.972 1.207m5.839.031a1.49 1.49 0 0 0 .936-1.145 2.179 2.179 0 0 1-.99 1.008 1.026 1.026 0 0 1-.659.052c.271.078.443.176.71.081m-3.7.437a.611.611 0 0 0-.346-.314 1.85 1.85 0 0 0 .366-.239c-.3.138-.647.1-.9.278-.226.153-.538.637-.768.842a1.894 1.894 0 0 0 .474-.294.615.615 0 0 0 .332.541 1.372 1.372 0 0 0-.2.367 3.515 3.515 0 0 1 1.669-1.078 1.765 1.765 0 0 0-.566.1.6.6 0 0 0-.056-.2m-.629 3.919c-.022.134-.051.3-.072.435.057-.152.125-.329.191-.474s.11-.167.259-.248c.105-.058.3-.137.4-.194-.108.018-.3.058-.411.076-.29.049-.325.119-.369.4M10.671 7.7A5.539 5.539 0 0 0 9.9 9.628a6.73 6.73 0 0 1 .892-1.71 1.108 1.108 0 0 1 .213-.153c-.226.379-.209.473-.13.981a1.974 1.974 0 0 1 .539-1.1 7.7 7.7 0 0 0 .951-.306q-.557.063-1.114.116a.671.671 0 0 0-.583.243"/>
</g></svg>