<svg xmlns="http://www.w3.org/2000/svg" data-laicon-version="5.1" viewBox="0 0 20 20" fill="black"><g transform="translate(-2 -2)">
  <path d="M7.172 2.7a4.978 4.978 0 0 0-.786.694 10.6 10.6 0 0 1-1.209 1.263 1.251 1.251 0 0 1-.672.225 2.155 2.155 0 0 1-.532 0c-.247-.134-.482-.047-.711.227a6.437 6.437 0 0 0-.7 1.479 2.972 2.972 0 0 0 1.087 2.705 4.875 4.875 0 0 1 1.179 1.472c.184.344.32.817.468 1.148.053.105.042.1.186.136a11.011 11.011 0 0 0 1.122.1 5.624 5.624 0 0 0 .608-.026 6.9 6.9 0 0 0 .938-.213 6.121 6.121 0 0 0 .769-.257c-.029.1-.248.2-.329.325a4.881 4.881 0 0 0-.863 3.57l-.007-.005.009.039v.061a7.933 7.933 0 0 0 .475 1.924 5.39 5.39 0 0 0 .567 1.092c.057.08.121.163.189.246A7.436 7.436 0 0 0 13 21.272a3.04 3.04 0 0 0 1.158-.079c1.023-.31 3.108-1.044 3.108-1.044a21.734 21.734 0 0 1-2.7.069.972.972 0 0 1-.549-.175c-.024-.029-.107-.2-.053-.2a5.192 5.192 0 0 1 .61-.119c-.7-.075-.685-.074-.736-.2a7.517 7.517 0 0 0-.324-.7c.306.026.982.063 1.211-.173a3.833 3.833 0 0 1-.753.005 2.2 2.2 0 0 1-.383-.109 1.462 1.462 0 0 1-.32-.121c-.055-.141-.092-.187-.158-.375a2.818 2.818 0 0 1-.111-.779 1.909 1.909 0 0 0 .916.648 1.609 1.609 0 0 0 .869.1l.07-.023a.825.825 0 0 1-.324-.024 1.9 1.9 0 0 1-.971-.727l-.319-.478c.1-.194.152-.2.281-.2a2.161 2.161 0 0 0 .8.019c.161.33.2.661.569.9 1.213.361 1.477-.106 1.771-.519a2.721 2.721 0 0 0 3.283.011 6.87 6.87 0 0 0 1.537-3.879c-.157-.266-.362-.54-.538-.5-.63.172-.863.491-1.486.419a1.751 1.751 0 0 0 .2-.014 2.16 2.16 0 0 0-.027-.828c-.19-.417-.438-.857-.611-1.186a2.709 2.709 0 0 0-.4-.792c-.095-.08-.324-.293-.324-.293l-.021.226s.09.014.125.153a6.752 6.752 0 0 0 .429 1.053h-.289l.336.087c.18.368.346.674.37.7a1.449 1.449 0 0 1 .122.776l-.087.043c-.013-.285-.32-.265-.579-.267l-.212-.053c.064.061.264.056.183.185-.068.036-.1.192-.138.322l-.114.006c.2.079.391.149.614.242l.112.017-.112.282-.153-.062-.005-.106a2.394 2.394 0 0 0-.807-.131 4.164 4.164 0 0 0-.482.633c.207-.161.364-.4.643-.472.023 0 .3.051.45.077-.1.02-.253.027-.277.061a8.742 8.742 0 0 0-.552.875c.253-.26.33-.527.758-.78a.773.773 0 0 1 .424.046 3.774 3.774 0 0 1-.206.481 5.28 5.28 0 0 1-.459.714c.482-.586.345-.372.666-.749.135-.32.269-.665.393-1.006l.024-.013c.043.026.372-.006.63.009.442-.1.423-.29.806-.319.257-.02.283.464.279.5a5.749 5.749 0 0 1-.459 1.721c-.516 1-1.095 1.89-1.916 2.014a2.8 2.8 0 0 1-2.065-.541l-.207.177c-.706.7-1.543.64-1.886-.278a2.292 2.292 0 0 0-.073-.139 6.12 6.12 0 0 0-.318-.573 1.366 1.366 0 0 1-.289-2.084c-.589-.149-1.369-.465-1.477-.881a5.372 5.372 0 0 1 .087-2.464 21.3 21.3 0 0 0-2.438.612 8.333 8.333 0 0 0-1.2.445c-.489.142-.895.29-1.518.446a2.287 2.287 0 0 1-.6 0c-.448-.061-1.212-.006-1.261-.051-.3-.424-.387-1.182-.664-1.588a5.079 5.079 0 0 0-.534-.578 4.66 4.66 0 0 1-1.396-1.986 2.412 2.412 0 0 1-.089-1 3.275 3.275 0 0 1 .86-1.452 8.019 8.019 0 0 1 1.267.085 4.326 4.326 0 0 1 .848.2c.882.328 2.048.868 2.048.868A12.393 12.393 0 0 0 5.419 5.16a.2.2 0 0 1-.176-.128c.929-.547 1.1-1.19 1.71-1.766a1.874 1.874 0 0 1 .626-.21 13.359 13.359 0 0 1 4.671 1.807c.443.241.847.423 1.232.643a5.637 5.637 0 0 1 1.655 1.3 14.458 14.458 0 0 1 .726 2 5.179 5.179 0 0 0 .271.954 4.407 4.407 0 0 1-.1-.669 1.787 1.787 0 0 0 .555.126s-.559-.288-.631-.543c-.235-.818-.471-2.091-.534-2.157a7.26 7.26 0 0 0-1.382-1.06c-.173-.1-.266-.162-.273-.206a5.366 5.366 0 0 1 .488-.467 1.857 1.857 0 0 1 .512-.333c.95-.428 1.493.164 1.623.045 0 0-.2-.235-.114-.2s.4.109.429.14a8.685 8.685 0 0 1 1.8 2.306.963.963 0 0 1 .124.733 5.482 5.482 0 0 1-.174.684 9.665 9.665 0 0 0-.4 1.207 2.613 2.613 0 0 0 .221 1.165 3.779 3.779 0 0 1 0-.395l.02-.225a.449.449 0 0 1-.011-.083c.015-.156.053-.286.065-.376a8.876 8.876 0 0 1 .514-1.754c.063-.15.147-.233.143-.347a2.141 2.141 0 0 0-.308-.738 8.025 8.025 0 0 0-.5-.881A3.906 3.906 0 0 0 16.6 4.187a3.835 3.835 0 0 0-1.3-.127 2.552 2.552 0 0 0-.864.291c-.366.234-.654.6-.992.811a8.959 8.959 0 0 1-1.174-.692c-.445-.237-.977-.514-1.551-.776a9.066 9.066 0 0 0-3.546-.989zM14.856 18h.005zm1.549-12.877a1.813 1.813 0 0 0 .227.669 2.5 2.5 0 0 1 .5.74c.162.416.292.833.411 1.249-.04-.434-.188-.9-.248-1.314a4.82 4.82 0 0 0-.89-1.344zM10.8 7.11a12.064 12.064 0 0 1 2.666.589c.009.032-.016.054-.052.071a1.18 1.18 0 0 0-.452-.024 4.787 4.787 0 0 0-.65.322 2.978 2.978 0 0 1 1.217.059c.491.187.78 1.089 1.1 1.343a6.142 6.142 0 0 0-1.073-2.149A11.68 11.68 0 0 0 10.8 7.11zM16.333 11a2.411 2.411 0 0 0-.529.053 1.536 1.536 0 0 0-.19.5 1.388 1.388 0 0 1 1.13-.527 3.784 3.784 0 0 0-.412-.026zm-6.165.289a17.848 17.848 0 0 0 2 4.307 2.138 2.138 0 0 0 .861.806c-.039.082-.082.182-.129.3a16.653 16.653 0 0 1-2.381-1.512 4.339 4.339 0 0 1-1.706-3.275.287.287 0 0 1 .095-.085 3.619 3.619 0 0 1 1.26-.539zm6.48.9a1.881 1.881 0 0 0-1.069.381s.438-.063.43-.023a1.2 1.2 0 0 0 .058.476c0 .005 0 .007 0 0l-.242.2a4.029 4.029 0 0 1 1.614-.248s-.466-.128-.437-.132c.1-.015-.028-.485-.063-.5q.13-.043.264-.075a2.217 2.217 0 0 0-.555-.078zm-.354.446a.192.192 0 0 1 .174.071.376.376 0 0 1 .015.21.422.422 0 0 0-.313.1c-.056.055-.1-.275-.054-.327a.263.263 0 0 1 .178-.053zm2.389.236c.066 0 .2.007.227.1a.415.415 0 0 1-.057.231c-.037.018-.282 0-.292-.049a.354.354 0 0 1 .085-.275zm2.293.3-.438.213a1.043 1.043 0 0 1-1.021-.052.7.7 0 0 0 .759.261 1.329 1.329 0 0 0 .7-.417zm-13.062.553a6.41 6.41 0 0 0 4.822 3.387l-.007.014a2.481 2.481 0 0 0-.155.874v.008a8.006 8.006 0 0 1-4.711-2.365 5.835 5.835 0 0 1 .051-1.913zm7.475 1.507h-.026a.509.509 0 0 0-.264.464c.388-.383.374-.384.942-.38a5.7 5.7 0 0 0-.652-.079zm.235.288A2.662 2.662 0 0 1 15 16.607c-.047.073-.08.174.149.494.062.085.285.1.436.092-.153-.116-.387-.239-.425-.346a1.054 1.054 0 0 0 .747.208.273.273 0 0 0 .165-.145.679.679 0 0 1 .26-.327l.184.229.207-.176a5.133 5.133 0 0 1-1.099-1.112zM8.276 17.44a9.5 9.5 0 0 0 4.6 1.417c.159.275.348.563.5.793a6.828 6.828 0 0 1-4.264-.728l-.093-.094a5.855 5.855 0 0 1-.745-1.389zm5.45 2.736a1.894 1.894 0 0 0 .216.318c.678.883-.854.68-1.17.626a4.9 4.9 0 0 1-1.635-.607 6.291 6.291 0 0 0 2.589-.337z"/>
</g></svg>