<svg xmlns="http://www.w3.org/2000/svg" data-laicon-version="5.5" viewBox="0 0 20 20" fill="black"><g transform="translate(-2 -2)">
  <path d="M21 2H3a1 1 0 0 0-1 1v18a1 1 0 0 0 1 1h18a1 1 0 0 0 1-1V3a1 1 0 0 0-1-1zm-8.719 14.743a4.29 4.29 0 0 1-.881 2.907 3.2 3.2 0 0 1-2.547 1.009 3.634 3.634 0 0 1-1.378-.259v-2a1.974 1.974 0 0 0 1.225.42q1.458 0 1.457-2.162v-5.617h2.124zm7.781 2.423a2.437 2.437 0 0 1-.815.87 3.5 3.5 0 0 1-1.2.477 6.893 6.893 0 0 1-1.44.146 8 8 0 0 1-1.48-.132 4.488 4.488 0 0 1-1.216-.395v-2.11a4.04 4.04 0 0 0 2.6.962 2.984 2.984 0 0 0 .7-.072 1.648 1.648 0 0 0 .5-.2.893.893 0 0 0 .3-.3.767.767 0 0 0 .1-.379.817.817 0 0 0-.158-.5 1.693 1.693 0 0 0-.431-.4 4.506 4.506 0 0 0-.65-.357c-.251-.114-.52-.23-.81-.349a4.134 4.134 0 0 1-1.643-1.127 2.465 2.465 0 0 1-.544-1.609 2.554 2.554 0 0 1 .3-1.268 2.513 2.513 0 0 1 .808-.874 3.607 3.607 0 0 1 1.182-.5 6.068 6.068 0 0 1 1.424-.162 8.613 8.613 0 0 1 1.309.089 5.156 5.156 0 0 1 1.052.274v1.971a3.2 3.2 0 0 0-.518-.29 4.176 4.176 0 0 0-.577-.208 4.483 4.483 0 0 0-.59-.122 4.232 4.232 0 0 0-.557-.04 2.9 2.9 0 0 0-.659.07 1.7 1.7 0 0 0-.5.194.961.961 0 0 0-.316.3.708.708 0 0 0-.113.392.75.75 0 0 0 .125.425 1.471 1.471 0 0 0 .357.357 3.88 3.88 0 0 0 .559.329c.22.107.469.219.746.333a8.254 8.254 0 0 1 1.018.5 3.62 3.62 0 0 1 .775.6 2.4 2.4 0 0 1 .495.768 2.742 2.742 0 0 1 .171 1.006 2.694 2.694 0 0 1-.304 1.331z"/>
</g></svg>