<svg xmlns="http://www.w3.org/2000/svg" data-laicon-version="5.5" viewBox="0 0 20 20" fill="black"><g transform="translate(-2 -2)">
  <path d="M20.544 11.85A2.6 2.6 0 0 0 18.6 9.342L21.094 2H8.755l2.5 7.365a2.591 2.591 0 0 0-.776 4.6 6.89 6.89 0 0 1-.9 1.035 6.774 6.774 0 0 1-2.125 1.372 1.744 1.744 0 0 1-.725-2.038 2.594 2.594 0 1 0-2.6-.654c-.04.081-.08.162-.121.249A10.047 10.047 0 0 0 3 16.65c-.336 2.027.214 3.653 1.541 4.574A4.237 4.237 0 0 0 7 22a10.908 10.908 0 0 0 4.562-1.506 16.69 16.69 0 0 1 3.249-1.343c.4-.1.816-.156 1.256-.22a7.062 7.062 0 0 0 2.64-.742 3.734 3.734 0 0 0 1.819-2.576 3.821 3.821 0 0 0-.37-2.391 2.589 2.589 0 0 0 .387-1.373zm-1.129 0a1.458 1.458 0 1 1-2.362-1.15v-.006c.047-.035.1-.07.15-.1 0 0 .007 0 .007-.006.023-.011.046-.029.069-.041h.021a.824.824 0 0 1 .081-.035c.029-.012.058-.023.081-.034.006 0 .011-.006.017-.006.023-.006.047-.018.07-.024.006 0 .017-.005.023-.005.029-.006.052-.012.081-.017h.006l.087-.018a.032.032 0 0 0 .023-.006c.023 0 .046-.006.069-.006h.029c.029 0 .059-.006.093-.006h.075a.228.228 0 0 1 .064.006h.012c.045.006.092.012.139.023a1.47 1.47 0 0 1 1.163 1.436zm-9.044-8.692h9.108l-2.091 6.167a2.34 2.34 0 0 0-.26.075l-2.2-4.488-2.206 4.459a2.121 2.121 0 0 0-.273-.064l-2.078-6.15zm4.14 8.188a2.562 2.562 0 0 0-.782-1.39l1.2-2.42 1.21 2.472a2.622 2.622 0 0 0-.724 1.338h-.9zm-2.9-.915c.028-.006.052-.012.081-.017h.017c.024-.007.046-.007.07-.012h.021c.023 0 .041-.006.063-.006h.226c.023 0 .041.006.058.006a.061.061 0 0 1 .03.005c.022.006.04.006.063.012a.046.046 0 0 1 .023.006l.081.017h.006a.282.282 0 0 1 .069.024c.006 0 .012.006.023.006a.232.232 0 0 1 .059.022c.006 0 .011.006.016.006.024.012.047.017.07.029h.013a.3.3 0 0 1 .075.041h.006c.023.012.047.028.07.04.006 0 .006.006.011.006.023.011.042.029.064.041l.006.005c.069.052.133.11.2.168v.006a1.461 1.461 0 1 1-1.418-.405zm-5.7-.041a1.459 1.459 0 1 1-1.459 1.46 1.459 1.459 0 0 1 1.459-1.46zm13.469 5.021a2.554 2.554 0 0 1-1.257 1.777 6.171 6.171 0 0 1-2.224.6q-.688.088-1.367.242a17.488 17.488 0 0 0-3.485 1.431A9.986 9.986 0 0 1 7 20.842a3.035 3.035 0 0 1-1.8-.574c-1.274-.88-1.211-2.53-1.06-3.433a8.918 8.918 0 0 1 .9-2.4c.024-.045.041-.086.065-.133a2.142 2.142 0 0 0 .4.105 2.946 2.946 0 0 0 1.623 3.123l.22.116.237-.087a7.9 7.9 0 0 0 2.78-1.726 7.64 7.64 0 0 0 1.2-1.43 2.327 2.327 0 0 0 .4.029 2.6 2.6 0 0 0 2.507-1.94h.972a2.586 2.586 0 0 0 3.149 1.858 2.62 2.62 0 0 0 .668-.277 2.637 2.637 0 0 1 .12 1.338z"/>
</g></svg>