<svg xmlns="http://www.w3.org/2000/svg" data-laicon-version="5.5" viewBox="0 0 20 20" fill="black"><g transform="translate(-2 -2)">
  <path d="M3.27 6.891a8.4 8.4 0 0 0-.2 8.561c.032.065.066.128.1.192.021.041.041.082.063.122.012.024.026.047.039.07.023.043.047.084.071.126q.063.111.129.222l.074.121c.048.079.1.157.15.235.021.033.041.066.063.1.071.1.143.21.217.313l.006.009c.012.016.025.032.037.049.065.089.131.176.2.263.025.031.049.063.074.1.083.1.168.206.253.308s.171.2.26.3l.009.011q.265.288.549.559c.029.027.057.055.085.08.094.089.19.176.287.262l.05.042c.084.073.17.146.257.217l.106.085c.071.057.143.113.215.168l.114.087c.08.058.16.116.241.172.03.022.058.042.088.062l.024.018c.077.052.155.1.234.154l.1.068c.12.076.243.151.366.224l.1.057c.091.052.182.1.275.154.05.027.1.052.152.078s.13.069.2.1l.046.022.08.039q.188.09.378.174c.12.052.241.1.363.151l.088.035c.128.049.257.1.386.142s.254.085.383.125l.092.028a3.911 3.911 0 0 0 .394.111c8.564 1.562 11.052-5.146 11.052-5.146-2.089 2.721-5.8 3.439-9.311 2.64-.133-.03-.263-.071-.393-.11-.159-.047-.318-.1-.475-.152l-.052-.019c-.111-.04-.222-.081-.333-.124l-.093-.036c-.121-.048-.24-.1-.359-.15l-.072-.031c-.131-.06-.261-.121-.391-.183-.079-.039-.157-.08-.235-.12-.052-.027-.1-.053-.156-.082-.095-.051-.188-.1-.281-.158l-.1-.052q-.185-.11-.366-.225c-.033-.021-.066-.044-.1-.066a9.0172 9.0172 0 0 1-.26-.173c-.029-.019-.056-.04-.085-.059-.082-.058-.164-.117-.246-.178l-.109-.082c-.108-.083-.215-.168-.321-.253s-.186-.154-.277-.234l-.031-.025c-.1-.087-.195-.175-.29-.265l-.082-.078c-.071-.067-.141-.136-.209-.2l-.082-.082c-.088-.089-.173-.18-.257-.271l-.013-.014c-.088-.1-.175-.2-.26-.3l-.068-.081c-.063-.076-.126-.153-.187-.231l-.069-.086q-.111-.143-.216-.288a9.025 9.025 0 0 1-1.089-9.354m4.115-.392a6.156 6.156 0 0 0-.212 6.259 8.142 8.142 0 0 0 .566.945 4.567 4.567 0 0 0 .659.824c.093.1.189.2.288.3l.075.075c.1.092.193.184.294.272l.012.011c.111.1.226.191.343.283l.077.061c.117.09.237.178.359.262l.01.008c.054.037.109.072.164.108.026.017.051.035.078.051.087.056.175.111.266.163l.037.022c.078.044.156.088.235.131l.084.043c.054.029.109.058.164.085l.025.012c.113.055.226.109.343.16.024.011.05.02.075.031.093.039.187.078.281.114l.121.044q.127.046.258.09l.116.037a2.81 2.81 0 0 0 .374.108C20.473 16.342 22 11.252 22 11.252a6.282 6.282 0 0 1-6.884 2.189 8.2455 8.2455 0 0 1-.487-.145 7.123 7.123 0 0 1-.38-.134 5.706 5.706 0 0 1-.282-.114l-.076-.032c-.116-.051-.231-.1-.345-.16l-.173-.088-.1-.052q-.11-.06-.219-.123l-.054-.03a7.2173 7.2173 0 0 1-.265-.162l-.08-.053a8.514 8.514 0 0 1-.172-.114q-.181-.126-.357-.261l-.081-.063a7.978 7.978 0 0 1-2.7-3.849 5.975 5.975 0 0 1 .466-4.79m3.577-.126a3.856 3.856 0 0 0-.306 3.718 5.237 5.237 0 0 0 3.008 2.808c.054.021.109.039.164.058l.072.022a1.928 1.928 0 0 0 .236.068c3.651.706 4.641-1.873 4.9-2.253-.867 1.249-2.325 1.549-4.113 1.115a4.335 4.335 0 0 1-.433-.134 5.2 5.2 0 0 1-1.415-.763c-1.6-1.214-2.6-3.531-1.55-5.418"/>
</g></svg>