<svg xmlns="http://www.w3.org/2000/svg" data-laicon-version="5.1" viewBox="0 0 20 20" fill="black"><g transform="translate(-2 -2)">
  <path d="M15.336 12.965a2.452 2.452 0 0 0-1.8.791l-1.117-.679a2.949 2.949 0 0 0 .051-2.032l1.174-.71a2.577 2.577 0 1 0-.669-1.114l-1.137.686a3.165 3.165 0 0 0-1.768-1.045V7.413a2.463 2.463 0 1 0-1.3 0v1.461a3.177 3.177 0 0 0 0 6.211v1.466a2.464 2.464 0 1 0 1.3 0V15.1a3.177 3.177 0 0 0 1.662-.916l1.2.728a2.463 2.463 0 1 0 2.406-1.944zm0-5.577a1.164 1.164 0 1 1-1.164 1.164 1.165 1.165 0 0 1 1.164-1.164zM8.259 5.047a1.164 1.164 0 1 1 1.163 1.164 1.165 1.165 0 0 1-1.163-1.164zm2.327 13.87a1.164 1.164 0 1 1-1.164-1.163 1.164 1.164 0 0 1 1.164 1.163zm-1.139-5.058a1.88 1.88 0 1 1 1.881-1.88 1.882 1.882 0 0 1-1.881 1.88zm5.889 2.733a1.163 1.163 0 1 1 1.164-1.163 1.165 1.165 0 0 1-1.164 1.163z"/>
</g></svg>