<svg xmlns="http://www.w3.org/2000/svg" data-laicon-version="5.7" viewBox="0 0 20 20" fill="black"><g transform="translate(-2 -2)">
  <path d="M21.116 16.253c-.337-1.145.742-2.089-.741-3.841-1.214-1.436 2.359-7.212-3.575-9.773a6.545 6.545 0 0 0-7.467 1.326 11.009 11.009 0 0 1 2.481 4.807 6.284 6.284 0 0 1 5.3-2.924v1.606a4.683 4.683 0 1 0 0 9.365v1.607a6.287 6.287 0 0 1-5.64-3.526A11.086 11.086 0 0 1 6.3 20.953a3.766 3.766 0 0 0 2.682-.117c1.348-.539 4.448 1.887 6.471.944s3.841-.024 5.257-1.617c1.619-1.82.703-2.899.406-3.91zm-10.623-5a9.379 9.379 0 0 0-2.322-6.181 7.584 7.584 0 0 1-1.344 1.206c-1.482.808-4.238.888-4.449 4.583C2.109 15.58 4.4 14.636 4.67 18.14a4.472 4.472 0 0 0 .407 1.64 9.432 9.432 0 0 0 5.416-8.525z"/>
</g></svg>