<svg xmlns="http://www.w3.org/2000/svg" data-laicon-version="5.5" viewBox="0 0 20 20" fill="black"><g transform="translate(-2 -2)">
  <path d="M6.639 2.326q.112-.036.228-.066A7.146 7.146 0 0 1 9 2.071a4.547 4.547 0 0 1 1.93.516c.124.066.246.138.364.215a4 4 0 0 1 1.73 2.298 5.005 5.005 0 0 1 .086 1.545 6.877 6.877 0 0 1-.353 1.609 8.132 8.132 0 0 1-.618 1.48c.244-.3.546-.552.794-.85.427-.515 4.9-5.251 5.885-6.162a2.211 2.211 0 0 1 .626-.379 1.974 1.974 0 0 1 .768-.136 1.307 1.307 0 0 1 1.223.947 1.613 1.613 0 0 1 0 .8 5.879 5.879 0 0 1-1.663 2.11c-1.04 1.1-4.314 4.548-4.909 5.178.047.1.1.207.143.311.091.286 2.458 6.722 2.508 6.823a1.394 1.394 0 0 0 1.154.566h1.9a2 2 0 0 1 .838.2 1.3 1.3 0 0 1 .427 1.8 1.793 1.793 0 0 1-.759.737 3.554 3.554 0 0 1-1.726.258c-.6 0-1.216.023-1.822-.011a3.187 3.187 0 0 1-1.67-.431 2.706 2.706 0 0 1-.729-.83c-.092-.183-.185-.365-.274-.549-.06-.154-3.17-8.63-3.308-8.952a3.29 3.29 0 0 1-.137.39s-2.438 6.087-2.487 6.19a2.02 2.02 0 0 1-2.207 1.221 1.3 1.3 0 0 1-.951-.911 1.619 1.619 0 0 1 .013-.761 11.515 11.515 0 0 1 .619-1.636l.8-1.99.905-2.257q.349-.869.7-1.737c.066-.165.128-.333.2-.5.054-.127.572-1.451.718-2.006a2.014 2.014 0 0 0 .012-1.243 1.75 1.75 0 0 0-1.111-.835 2.684 2.684 0 0 0-1.461.172c-.1.048-.206.1-.305.154A3.592 3.592 0 0 0 5.186 7.62a2.774 2.774 0 0 0-.027 1.158 1.876 1.876 0 0 0 1.067 1.256 4.153 4.153 0 0 1 .823.387 1.205 1.205 0 0 1 .24 1.681 1.655 1.655 0 0 1-.811.694 3.214 3.214 0 0 1-3.178-.881 6.12 6.12 0 0 1-.832-1.138c-.073-.184-.142-.37-.227-.548A6.29 6.29 0 0 1 2 8.046a7.01 7.01 0 0 1 .2-1.052 5.083 5.083 0 0 1 .317-.936 6.873 6.873 0 0 1 1.021-1.612 6.776 6.776 0 0 1 3.101-2.12z"/>
</g></svg>