<svg xmlns="http://www.w3.org/2000/svg" data-laicon-version="5.0" viewBox="0 0 20 20" fill="black"><g transform="translate(-2 -2)">
  <path d="M22 2.0003v19.9994H2V2.0003h20Zm-.7992.7989H2.7992v18.4006h18.4016V2.7992Zm-5.9644 7.0507c.3225 0 1.2081-.0116 1.8494.4042.6414.4158.8035 1.3138.8035 1.6482v3.9938c-.1225 0-1.3675.0119-1.455 0-.065-.1121-.0959-.526-.0959-.526-.2227.2646-.5388.4069-.6923.4777-.1534.0708-.6595.2072-.8181.2072-.625.018-1.2965-.0587-1.6719-.368-.3032-.2481-.3414-.4-.4807-.668-.1393-.268-.1393-1.0862.1174-1.5912.2566-.505.7313-.6897.9496-.7802.3631-.1657 1.5925-.3185 1.8127-.3536.1787-.0402.4564-.1068.5606-.1992.1043-.0925.1819-.2937.1819-.4235 0-.1259-.041-.251-.2155-.414-.1745-.163-.5634-.2136-.8289-.2136-.2655 0-.5133.0992-.6667.2136-.1535.1144-.3528.414-.3528.6642h-1.441c0-.7439.2393-1.2528.7736-1.6379.5343-.385 1.375-.4337 1.67-.4337Zm-7.4657-1.903v6.487h3.949v1.4622h-5.602V7.947h1.653Zm8.5558 5.0643c-.0962.0598-.1772.149-.3227.1922-.1456.0433-.3865.099-.5484.1284-.1619.0294-.3615.0632-.5326.1143-.1711.0512-.3743.1419-.5257.2478-.1514.106-.2528.3578-.2528.5677 0 .3107.1479.6542.6536.6774.2715 0 .6015-.0232.8828-.2061.2812-.183.522-.419.6194-.9082Z"/>
</g></svg>