<svg xmlns="http://www.w3.org/2000/svg" data-laicon-version="10.1" viewBox="0 0 20 20" fill="black"><g transform="translate(-2 -2)">
  <path d="M5.5 15.905V7.883c0-.123.062-.183.185-.183h1.793c.123 0 .185.061.185.183v6.182h3.723c.116 0 .174.058.174.172v1.668c0 .123-.058.183-.174.183H5.685c-.123 0-.185-.061-.185-.183Zm7.167-1.17c-.234-.47-.35-1.011-.35-1.622 0-.619.116-1.156.35-1.611.234-.462.558-.82.974-1.073.422-.262.912-.392 1.47-.392.352-.006.7.067 1.02.213.304.131.572.334.78.592l.023-.525c0-.112.061-.168.181-.168h1.427c.12 0 .18.056.18.168v5.592c0 .12-.061.18-.181.18h-1.426c-.121 0-.181-.06-.181-.18l-.022-.525c-.438.544-1.038.816-1.8.816-.559 0-1.049-.127-1.472-.38-.415-.261-.739-.623-.973-1.085Zm1.709-1.622c0 .388.113.705.34.95.226.247.524.37.894.37s.667-.123.894-.369c.226-.246.34-.563.34-.951s-.114-.701-.34-.939c-.226-.247-.524-.37-.894-.37s-.668.123-.894.369c-.227.24-.34.552-.34.94ZM22 2v20H2V2h20Zm-1.3 1.3H3.3v17.4h17.4V3.3Z"/>
</g></svg>