<svg xmlns="http://www.w3.org/2000/svg" data-laicon-version="5.5" viewBox="0 0 20 20" fill="black"><g transform="translate(-2 -2)">
  <path d="M12.7313 5.078 12 5.809l-.7313-.7309c-2.0347-2.0347-5.3338-2.0347-7.3686 0-2.0348 2.0348-2.0348 5.3339 0 7.3687l8.1 8.0998 8.0998-8.1c2.0348-2.0347 2.0348-5.3338 0-7.3686-2.0347-2.0348-5.3338-2.0348-7.3686 0zm-2.5232 1.0608L12 7.9306l1.7919-1.7919c1.449-1.449 3.7983-1.449 5.2473 0 1.449 1.449 1.449 3.7983 0 5.2473l-7.0403 7.039-7.0382-7.0389c-1.449-1.449-1.449-3.7983 0-5.2473 1.449-1.449 3.7983-1.449 5.2473 0z"/>
</g></svg>