<svg xmlns="http://www.w3.org/2000/svg" data-laicon-version="5.7" viewBox="0 0 20 20" fill="black"><g transform="translate(-2 -2)">
  <path d="M8.06 18c.8285 0 1.5.6716 1.5 1.5S8.8886 21 8.06 21c-.8284 0-1.5-.6716-1.5-1.5s.6716-1.5 1.5-1.5zm9.0401 0c.8284 0 1.5.6716 1.5 1.5s-.6716 1.5-1.5 1.5-1.5-.6716-1.5-1.5.6716-1.5 1.5-1.5zM4.2031 2.25c.3223 0 .6041.205.708.5021l.0278.1023.6151 3.1116h14.4709c.5933 0 1.168.3113 1.242.9086l.008.1323-.0131.1396-1.6248 8.5715-.001.03c-.0687.5545-.5691.8625-1.1153.9037l-.1267.0047H7.1867c-.6357 0-1.25-.3573-1.25-1.0408l.0053.1044v-.002L4.625 9 3.587 3.75H0v-1.5h4.2031zM19.674 7.466H5.854l.274 1.4.428 2.1603-.005.0007.809 4.129h10.857l1.457-7.69z"/>
</g></svg>