<svg xmlns="http://www.w3.org/2000/svg" data-laicon-version="5.5" viewBox="0 0 20 20" fill="black"><g transform="translate(-2 -2)">
  <path d="M10.0733 3.1747c3.8022 0 6.8844 3.0822 6.8844 6.8843 0 1.6312-.5673 3.13-1.5154 4.3096l5.3505 5.3492-1.0607 1.0607-5.3492-5.3505c-1.1797.9481-2.6784 1.5154-4.3096 1.5154-3.8021 0-6.8844-3.0822-6.8844-6.8844 0-3.8021 3.0823-6.8843 6.8844-6.8843zm0 1.5c-2.9737 0-5.3844 2.4106-5.3844 5.3843 0 2.9737 2.4107 5.3844 5.3844 5.3844 2.9737 0 5.3844-2.4107 5.3844-5.3844 0-2.9737-2.4107-5.3843-5.3844-5.3843z"/>
</g></svg>