<svg xmlns="http://www.w3.org/2000/svg" data-laicon-version="5.8" viewBox="0 0 20 20" fill="black"><g transform="translate(-2 -2)">
  <path d="M7.977 6.75c0-2.25 1.783-4.16 4.16-4.16 2.25 0 4.159 1.784 4.159 4.16v4.296c0 2.25-1.784 4.159-4.16 4.159-2.25 0-4.159-1.783-4.159-4.16V6.75zm4.16-2.523A2.502 2.502 0 0 0 9.613 6.75v4.296a2.502 2.502 0 0 0 2.522 2.522 2.502 2.502 0 0 0 2.523-2.522V6.75a2.502 2.502 0 0 0-2.523-2.523zm-.819 14.083c-3.379-.372-5.992-3.029-6.39-6.405l1.625-.191c.335 2.846 2.67 5.004 5.583 5.004 2.914 0 5.248-2.158 5.583-5.005l1.625.192c-.397 3.376-3.01 6.033-6.39 6.405v3.235h-1.636V18.31z"/>
</g></svg>