<svg xmlns="http://www.w3.org/2000/svg" data-laicon-version="5.5" viewBox="0 0 20 20" fill="black"><g transform="translate(-2 -2)">
  <path d="m8.761 7.865-5.8381.6042-.106.0182c-.5452.1333-.765.8234-.3578 1.2473L6.722 14.174l-.9933 5.751-.0108.1001c-.024.5593.5728.9617 1.0926.6946l5.1885-2.6677 5.1866 2.6667.0924.0403c.5263.1902 1.0888-.2588.9896-.8347l-.9916-5.7513 4.2649-4.4382.069-.0824c.33-.454.052-1.1228-.5328-1.1832L15.239 7.865l-2.5655-5.197c-.2751-.5573-1.0699-.5574-1.345 0L8.761 7.865zm3.24-3.172 2.076 4.2078.0555.0944a.75.75 0 0 0 .54.3197l4.7225.4881-3.4629 3.6053-.065.0777a.75.75 0 0 0-.1332.5693l.7991 4.6407-4.1901-2.1531-.1106-.0461a.75.75 0 0 0-.575.046L7.462 18.697l.8031-4.6414.0105-.1008a.75.75 0 0 0-.2086-.5464L4.604 9.803l4.7245-.4881a.75.75 0 0 0 .5954-.414L12.001 4.693z"/>
</g></svg>