<svg xmlns="http://www.w3.org/2000/svg" data-laicon-version="5.5" viewBox="0 0 20 20" fill="black"><g transform="translate(-2 -2)">
  <path d="M20.75 9.711 12 3.0579 3.25 9.7111v8.9818c0 1.1665.9763 2.1001 2.1619 2.1001h5.0423l-.0002-4.639h3.091l.0008 4.639h5.0423c1.1856 0 2.1619-.9336 2.1619-2.1001V9.7111zM12 4.942l7.25 5.513v8.2379l-.007.0867c-.0464.2841-.3169.5134-.6549.5134H15.045l.0008-4.6382H8.9542L8.954 19.293H5.4119l-.0992-.0067c-.323-.0441-.5627-.3-.5627-.5934V10.454L12 4.942z"/>
</g></svg>