<svg xmlns="http://www.w3.org/2000/svg" data-laicon-version="5.5" viewBox="0 0 20 20" fill="black"><g transform="translate(-2 -2)">
  <path d="M12.0002 2.8713c3.8901 0 7.0436 3.1536 7.0436 7.0436v4.6384c0 1.128.3368 2.2038.9574 3.1154.339.4979-.0176 1.172-.62 1.172l-6.6313-.0004L12.7502 21h-1.5l-.0003-2.1597-6.6308.0004c-.5668 0-.916-.597-.6726-1.0825l.0526-.0895c.6207-.9118.9575-1.9875.9575-3.1154V9.9149c0-3.89 3.1535-7.0436 7.0436-7.0436zm0 1.5c-3.0617 0-5.5436 2.482-5.5436 5.5436v4.6384a7.0293 7.0293 0 0 1-.5133 2.6441l-.0622.143h12.237l-.061-.1428a7.0188 7.0188 0 0 1-.5067-2.3386l-.0066-.3057V9.9149c0-3.0616-2.482-5.5436-5.5436-5.5436z"/>
</g></svg>