<svg xmlns="http://www.w3.org/2000/svg" data-laicon-version="5.5" viewBox="0 0 20 20" fill="black"><g transform="translate(-2 -2)">
  <path d="m8.2679 2.9-.0002 1.442h7.464l.0004-1.442h1.5l-.0004 1.442 2.2612.0002c.6784 0 1.2364.5156 1.3035 1.1763l.0068.134v13.8873c0 .7236-.5866 1.3102-1.3103 1.3102H4.507c-.7236 0-1.3103-.5866-1.3103-1.3102V5.6525c0-.7236.5866-1.3103 1.3103-1.3103l2.2607-.0002.0002-1.442h1.5zm11.0348 6.403H4.6957L4.696 19.35h14.607l-.0003-10.047zm-1.5303 7.2995v1.5h-1.3v-1.5h1.3zM19.303 5.842H4.696l-.0003 1.961h14.607l.0003-1.961z"/>
</g></svg>