<svg xmlns="http://www.w3.org/2000/svg" data-laicon-version="5.5" viewBox="0 0 20 20" fill="black"><g transform="translate(-2 -2)">
  <path d="M13.4823 2.4504c.5555 0 1.0268.411 1.1049.9614l.2718 1.9472.2874.1295a7.12 7.12 0 0 1 .92.5286l.2546.1819 1.84-.744a1.116 1.116 0 0 1 .276-.0729l.1432-.0093c.399 0 .769.214.9657.5575l1.436 2.4854c.2754.4804.1561 1.0946-.281 1.4345L19.148 11.061l.0287.2613.0194.3013.0064.3017c0 .2853-.018.5745-.0532.8612l.0037-.0405 1.567 1.223c.4037.3158.5353.8633.3351 1.3242l-.057.1133-1.4325 2.4814a1.1174 1.1174 0 0 1-.967.5588 1.1066 1.1066 0 0 1-.4166-.0817l-1.828-.739-.2533.185a7.0614 7.0614 0 0 1-.9177.5339l-.286.1291-.2742 1.9663a1.118 1.118 0 0 1-.9871.9537l-.1176.0061h-2.8657c-.556.0007-1.0276-.4104-1.1057-.961L9.274 18.491l-.2865-.1287a7.12 7.12 0 0 1-.9201-.5286l-.2554-.1827-1.8392.7447a1.116 1.116 0 0 1-.2759.073l-.1432.0093c-.399 0-.7691-.214-.9658-.5575L3.152 15.435c-.2752-.4803-.1561-1.0944.281-1.4345l1.551-1.2125-.027-.264a7.2805 7.2805 0 0 1-.0193-.301l-.0065-.2976c0-.2825.0177-.5714.0521-.8615l-.0043.0401-1.5619-1.2204C3.011 9.568 2.878 9.019 3.0787 8.558l.0571-.1132 1.4326-2.4821a1.1174 1.1174 0 0 1 .967-.5588c.1429 0 .2826.0276.419.0817l1.8236.7373.2547-.1827a7.0995 7.0995 0 0 1 .917-.5336l.2863-.1317.2752-1.9647a1.118 1.118 0 0 1 .987-.9537l.1177-.0062zM13.147 3.95H10.95l-.346 2.4736-.7444.3164a5.5917 5.5917 0 0 0-1.2014.6987l-.6474.497L5.7 7.001 4.601 8.905l1.9665 1.5363-.0946.7991a5.8305 5.8305 0 0 0-.0417.685c0 .232.0156.4716.046.714l.103.8068L4.619 14.976l1.1 1.904 2.3176-.9372.6462.4874c.3713.28.7782.5137 1.2074.6937l.7512.3143.3436 2.4618h2.198l.3471-2.4742.745-.3155a5.554 5.554 0 0 0 1.2007-.6984l.6472-.4968 2.31.9339 1.099-1.905-1.9686-1.5353.0969-.8035a5.5814 5.5814 0 0 0 .0422-.6799c0-.2374-.0152-.4752-.0457-.7105l-.1051-.8091L19.513 8.873 18.414 6.97l-2.3167.938-.6462-.4874a5.6138 5.6138 0 0 0-1.2075-.6937l-.7511-.3143L13.147 3.95zm-1.08 4.814c1.746 0 3.1615 1.4154 3.1615 3.1614S13.813 15.087 12.067 15.087c-1.746 0-3.1615-1.4154-3.1615-3.1615 0-1.746 1.4155-3.1614 3.1615-3.1614zm0 1.5c-.9176 0-1.6615.7438-1.6615 1.6614s.7439 1.6615 1.6615 1.6615 1.6615-.7439 1.6615-1.6615-.744-1.6614-1.6615-1.6614z"/>
</g></svg>