<svg xmlns="http://www.w3.org/2000/svg" data-laicon-version="5.5" viewBox="0 0 20 20" fill="black"><g transform="translate(-2 -2)">
  <path d="M16.2841 3.4948c1.5243 0 2.7599 1.2356 2.7599 2.7599s-1.2356 2.7599-2.7599 2.7599a2.7508 2.7508 0 0 1-1.9208-.7781l-5.027 2.9012c.0905.273.1395.565.1395.8685 0 .303-.0488.5947-.1391.8675l5.0266 2.9022a2.7508 2.7508 0 0 1 1.9208-.7781c1.5243 0 2.7599 1.2356 2.7599 2.7599s-1.2356 2.7599-2.7599 2.7599-2.7599-1.2356-2.7599-2.7599c0-.2363.0297-.4657.0856-.6846L8.492 14.1187a2.7488 2.7488 0 0 1-1.7762.6474c-1.5243 0-2.7599-1.2356-2.7599-2.7599s1.2356-2.7599 2.7599-2.7599c.676 0 1.2954.243 1.7752.6466l5.1184-2.9546a2.7652 2.7652 0 0 1-.0853-.6836c0-1.5243 1.2356-2.7599 2.7599-2.7599zm0 13.003c-.6958 0-1.2599.564-1.2599 1.2599 0 .6958.564 1.2599 1.2599 1.2599.6958 0 1.2599-.564 1.2599-1.2599 0-.6958-.564-1.2599-1.2599-1.2599zm-9.5682-5.7515c-.6958 0-1.2599.564-1.2599 1.2599 0 .6958.564 1.2599 1.2599 1.2599.6958 0 1.2599-.564 1.2599-1.2599 0-.6958-.564-1.2599-1.2599-1.2599zm9.5682-5.7515c-.6958 0-1.2599.564-1.2599 1.2599 0 .6958.564 1.2599 1.2599 1.2599.6958 0 1.2599-.564 1.2599-1.2599 0-.6958-.564-1.2599-1.2599-1.2599z"/>
</g></svg>