<svg xmlns="http://www.w3.org/2000/svg" data-laicon-version="5.5" viewBox="0 0 20 20" fill="black"><g transform="translate(-2 -2)">
  <path d="M12.0002 2.3985c1.9043 0 3.4572 1.5046 3.5554 3.3949l.005.1902-.0001.454 2.6498.0005a.7502.7502 0 0 1 .7291.5737l.0173.1022 1.049 10.5718c.2112 2.1273-1.4573 3.9728-3.593 3.9728h-8.825c-2.1357 0-3.8043-1.8455-3.5932-3.9728L5.0435 7.114a.75.75 0 0 1 .7464-.6759l2.6496-.0006.0004-.4539c0-1.9785 1.5926-3.585 3.5603-3.585zm5.5304 5.539h-1.9701v.7373a.75.75 0 0 1-1.4931.1017l-.0069-.1017v-.7373h-4.121l.0004.7373a.75.75 0 0 1-1.4931.1017l-.0069-.1017-.0004-.7373h-1.971l-.9813 9.8964c-.1184 1.1933.773 2.2345 1.946 2.3191l.1544.0056h8.825c1.2482 0 2.224-1.0794 2.1004-2.3247l-.9824-9.8964zm-5.5304-4.039c-1.087 0-1.9795.8528-2.055 1.936l-.0053.1491-.0004.454h4.121v-.454c0-1.153-.9239-2.085-2.0603-2.085z"/>
</g></svg>