<svg xmlns="http://www.w3.org/2000/svg" data-laicon-version="5.9" viewBox="0 0 20 20" fill="black"><g transform="translate(-2 -2)">
  <path d="M6.907 4.869c0 1.018-.776 1.843-1.989 1.843-1.166 0-1.941-.825-1.917-1.843C2.977 3.8 3.752 3 4.94 3c1.19 0 1.942.8 1.966 1.869zM3.098 20.034V8.168h3.688v11.865H3.098zm6.644-8.079c0-1.48-.05-2.742-.098-3.786h3.203l.17 1.626h.073c.486-.752 1.699-1.892 3.664-1.892C19.18 7.903 21 9.505 21 12.997v7.038h-3.688V13.46c0-1.53-.533-2.573-1.868-2.573-1.02 0-1.625.704-1.868 1.383-.097.243-.145.582-.145.922v6.843H9.743v-8.08h-.001z"/>
</g></svg>