<svg xmlns="http://www.w3.org/2000/svg" data-laicon-version="12.0" viewBox="0 0 20 20" fill="black"><g transform="translate(-2 -2)">
  <path d="M18.654 15.948c.495.19.636.626.727 1.086.075.377.211.712.478 1 .137.148.24.335.324.52.16.358.084.666-.22.914a3.027 3.027 0 0 1-.473.303c-.274.149-.556.281-.832.424-.385.199-.719.46-1.003.79-.354.412-.78.73-1.3.904-.944.315-1.81-.054-2.154-.948a.196.196 0 0 0-.136-.099c-.443-.046-.89-.064-1.33-.128-.647-.094-1.276.007-1.906.126-.046.008-.092.021-.138.025-.333.03-.593.124-.829.424-.386.49-.984.55-1.566.461a3.9 3.9 0 0 1-1.108-.322c-.604-.294-1.235-.436-1.894-.504a5.855 5.855 0 0 1-.832-.137c-.56-.142-.775-.466-.711-1.036.012-.11.025-.227.068-.327.16-.369.126-.743.066-1.125-.143-.918.06-1.258.945-1.564.295-.102.531-.261.708-.521.125-.184.332-.33.4-.529.069-.196-.003-.437.007-.658.04-.923.35-1.768.763-2.58.46-.905 1.045-1.726 1.68-2.514.701-.868 1.006-1.871.979-2.98-.017-.692-.059-1.385-.041-2.076.009-.358.09-.724.195-1.069.26-.859.844-1.404 1.706-1.65a4.178 4.178 0 0 1 1.832-.1c.99.16 1.63.75 1.974 1.68.25.675.325 1.38.344 2.093.01.34.02.682 0 1.022-.055.888.225 1.666.75 2.365.454.605.937 1.19 1.38 1.804.542.753.965 1.57 1.197 2.476.199.778.212 1.555-.022 2.33-.01.033-.016.067-.028.12Zm-9.256 2.663c.322.614.674.927 1.286 1.152.083.03.167.058.252.08 1.25.327 2.365-.008 3.405-.702a.201.201 0 0 0 .083-.108c.089-.388.189-.774.252-1.167.084-.526.112-1.061.213-1.584.079-.404.312-.73.706-.916.05-.023.092-.1.105-.16.097-.424.341-.607.774-.56.43.048.81.23 1.173.452.277.17.503.377.432.75.133.046.171-.018.184-.12a.677.677 0 0 0-.28-.65 7.47 7.47 0 0 0-.801-.505c-.101-.057-.15-.098-.122-.225.033-.147.047-.303.044-.454-.023-1.217-.575-2.191-1.406-3.035-.023-.023-.064-.029-.097-.042l-.029.033c.047.063.086.133.14.187.378.374.648.818.844 1.308.24.598.326 1.211.146 1.842-.018.063-.109.165-.132.156-.128-.048-.33.073-.38-.176a7.748 7.748 0 0 0-.749-2.1 20.541 20.541 0 0 1-1.563-3.899c-.007-.025-.02-.05-.035-.084-.11.098-.204.195-.312.271-.115.08-.242.144-.367.209-.233.121-.476.226-.702.36-.765.456-1.317.409-1.986-.172-.152-.132-.324-.241-.48-.357-.097.434-.17.843-.28 1.243-.25.903-.645 1.75-1.047 2.593-.364.763-.645 1.549-.747 2.392-.02.164-.033.328-.05.491l-.066.014c-.094-.237-.213-.467-.277-.712-.168-.647-.04-1.274.205-1.876.155-.38.354-.74.531-1.111.036-.075.06-.155.088-.233l-.04-.019c-.06.097-.123.193-.181.292-.403.686-.765 1.389-.912 2.182-.19 1.027.144 1.802 1.021 2.368.079.051.163.095.236.154.333.268.676.527.99.815.248.226.444.503.542.833.124.42-.046.689-.476.766l-.135.024Zm-.843 2.914c.134-.011.27-.014.403-.035.607-.096.979-.48 1.035-1.05.03-.317-.078-.594-.243-.847-.195-.299-.416-.582-.625-.872-.233-.323-.487-.634-.694-.973-.272-.445-.49-.923-.765-1.366a2.059 2.059 0 0 0-.522-.56c-.376-.275-.775-.21-1.083.139-.135.153-.257.32-.377.487a1.351 1.351 0 0 1-.685.499 3.997 3.997 0 0 0-.46.176c-.29.14-.448.376-.437.703.006.193.029.386.06.577.056.335.065.663-.064.987-.047.119-.07.249-.09.376-.064.427.085.665.504.77.243.06.495.096.746.12.718.068 1.41.21 2.058.555.38.202.803.294 1.239.314Zm7.09-5.885a.74.74 0 0 0-.412.453c-.102.34-.215.69-.233 1.04a9.297 9.297 0 0 1-.436 2.381 4.712 4.712 0 0 0-.154.758c-.037.252-.019.503.103.737.316.61.911.866 1.606.682.565-.15 1.01-.485 1.385-.922.27-.316.59-.57.956-.766.211-.114.43-.215.642-.328.218-.116.441-.224.643-.362.276-.19.33-.403.177-.703a2.884 2.884 0 0 0-.374-.55 1.682 1.682 0 0 1-.36-.715c-.052-.217-.098-.437-.172-.646a1.078 1.078 0 0 0-.217-.355c-.155-.17-.37-.206-.594-.218-.194-.01-.332.063-.488.177-.237.175-.502.33-.778.43-.481.173-.873-.007-1.09-.47-.088-.188-.132-.397-.204-.623ZM11.53 6.365c-.241 0 0 0 0 0a1.287 1.287 0 0 0-.843.307c-.274.22-.548.44-.822.662-.206.166-.258.366-.113.588.096.149.235.275.371.391.2.17.423.315.624.486.278.236.597.335.948.267.21-.04.412-.13.607-.22.28-.13.554-.278.827-.424.129-.068.261-.137.374-.228.527-.425.46-.886-.16-1.144-.039-.016-.078-.029-.115-.046-.314-.142-.624-.294-.943-.425-.241-.1-.515-.214-.755-.214Zm1.53.417c.137.056.258.115.386.152.045.013.127-.013.155-.049.4-.516.298-1.478-.196-1.902-.344-.296-.782-.3-1.118.003-.35.314-.456.725-.427 1.18.002.037.035.094.067.106.14.054.284.094.395.13.061-.224.101-.437.18-.634a.344.344 0 0 1 .346-.227c.159.009.257.113.316.247.152.339.15.668-.105.994Zm-2.292-.362c.103-.043.197-.076.285-.121.036-.019.077-.058.087-.096.092-.352-.18-.991-.495-1.174-.181-.106-.404-.106-.557.037a1.11 1.11 0 0 0-.276.375 1.51 1.51 0 0 0 .077 1.324c.138.26.19.264.402.056.004-.004.003-.01.008-.028a.878.878 0 0 1-.191-.764c.027-.15.073-.318.258-.335.185-.017.263.138.311.284.045.137.06.283.091.442Z"/>
  <path d="M13.363 7.44a.063.063 0 0 1 0 .093 3.686 3.686 0 0 1-1.609.915c-.439.12-.853.025-1.225-.226-.183-.124-.35-.275-.515-.424a20.938 20.938 0 0 1-.1-.091.07.07 0 1 1 .095-.103l.026.024c.21.184.402.393.63.55.342.237.73.283 1.13.158a3.41 3.41 0 0 0 1.48-.894.063.063 0 0 1 .088-.002Z"/>
</g></svg>