<svg xmlns="http://www.w3.org/2000/svg" data-laicon-version="5.5" viewBox="0 0 20 20" fill="black"><g transform="translate(-2 -2)">
  <path d="M3.865 15.263h7.372v1.525H2V2.89h1.865zm17.035-.085a4.467 4.467 0 0 1-3.3 1.78 5.187 5.187 0 0 1-3.813-.933 5.226 5.226 0 0 1-1.695-3.389 5.779 5.779 0 0 1 .847-4.068 4.269 4.269 0 0 1 3.39-2.034 4.7 4.7 0 0 1 3.644.932 4.513 4.513 0 0 1 1.78 3.39 6.373 6.373 0 0 1-.853 4.322zm-.847-4.068a4.264 4.264 0 0 0-1.017-2.373 3.293 3.293 0 0 0-2.458-.762 2.936 2.936 0 0 0-2.373 1.7 5.963 5.963 0 0 0-.339 3.221 3.5 3.5 0 0 0 1.272 2.034 2.907 2.907 0 0 0 2.372.593 2.946 2.946 0 0 0 2.119-1.61 5.268 5.268 0 0 0 .422-2.803zM2 21.11h20v-2.119H2z"/>
</g></svg>