<svg xmlns="http://www.w3.org/2000/svg" data-laicon-version="16.2" viewBox="0 0 20 20" fill="black"><g transform="translate(-2 -2)">
  <path d="M20.45 6.985c-.262-1.934-1.962-3.458-3.977-3.753-.34-.05-1.63-.232-4.613-.232h-.023c-2.985 0-3.626.181-3.966.232-1.96.287-3.75 1.656-4.184 3.613-.207.964-.23 2.033-.192 3.012.056 1.406.066 2.809.195 4.209.089.93.244 1.852.465 2.76.413 1.677 2.083 3.073 3.72 3.642 1.752.594 3.637.692 5.443.285a7.96 7.96 0 0 0 .589-.16c.439-.137.953-.292 1.33-.564a.043.043 0 0 0 .017-.032V18.64a.04.04 0 0 0-.049-.038 15.217 15.217 0 0 1-3.531.408c-2.048 0-2.598-.963-2.756-1.363a4.193 4.193 0 0 1-.24-1.075.04.04 0 0 1 .05-.04c1.138.272 2.304.409 3.474.409.282 0 .563 0 .844-.008 1.178-.032 2.418-.093 3.576-.316.029-.006.058-.011.082-.018 1.827-.348 3.565-1.44 3.742-4.203.006-.109.023-1.14.023-1.253.001-.384.125-2.722-.018-4.158Zm-2.81 6.896h-1.921V9.217c0-.981-.412-1.482-1.252-1.482-.923 0-1.385.593-1.385 1.763v2.552h-1.91V9.497c0-1.17-.462-1.762-1.386-1.762-.834 0-1.25.5-1.252 1.482v4.664H6.616V9.076c0-.982.253-1.762.758-2.34.522-.577 1.206-.873 2.055-.873.984 0 1.727.375 2.222 1.124l.479.795.478-.795c.495-.75 1.237-1.124 2.22-1.124.848 0 1.532.297 2.055.873.506.578.759 1.358.759 2.34l-.002 4.805Z"/>
</g></svg>