<svg xmlns="http://www.w3.org/2000/svg" data-laicon-version="5.5" viewBox="0 0 20 20" fill="black"><g transform="translate(-2 -2)">
  <path d="M21.84 15.15a.561.561 0 0 1-.72.048l-9.112-9.792 9.9 9.075a.528.528 0 0 1-.068.669zm-1.019-3.173-4.13-4.451 4.522 4.115a.239.239 0 0 1-.036.314.29.29 0 0 1-.356.022zm.675 5.906a.8.8 0 0 1-1.029.069L7.423 3.936 21.6 16.926a.754.754 0 0 1-.1.957zm-1.338 2.359a.8.8 0 0 1-1.03.068L2 2.227l18.261 17.058a.756.756 0 0 1-.103.957zm-2.472 1.3a.8.8 0 0 1-1.029.068L3.613 7.594l14.176 12.99a.756.756 0 0 1-.103.957zm-2.985.036a.561.561 0 0 1-.72.047l-9.112-9.792 9.9 9.075a.529.529 0 0 1-.069.669zm-3.066-.8a.288.288 0 0 1-.356.022l-4.13-4.451 4.522 4.115a.239.239 0 0 1-.036.31z"/>
</g></svg>