<svg xmlns="http://www.w3.org/2000/svg" data-laicon-version="5.0" viewBox="0 0 20 20" fill="black"><g transform="translate(-2 -2)">
  <path d="M20.1593 18.0992v1.3H3.9609v-1.3h16.1984Zm0-2.6997v1.3H3.9609v-1.3h16.1984Zm0-2.6997v1.3H3.9609v-1.3h16.1984Zm0-2.6997v1.3H13.41v-1.3h6.7493ZM5.1804 4.7491l.9714 4.4725h.0349l1.155-4.4725h1.0914l1.155 4.4725h.0349l.9755-4.4725h1.3397l-1.639 6.1753H9.0795L7.907 6.7053h-.039l-1.1725 4.219H5.4758L3.8407 4.7492h1.3397Zm14.9789 2.5513v1.3H13.41v-1.3h6.7493Zm0-2.6995v1.3H13.41v-1.3h6.7493Z"/>
</g></svg>