<svg xmlns="http://www.w3.org/2000/svg" data-laicon-version="5.0" viewBox="0 0 20 20" fill="black"><g transform="translate(-2 -2)">
  <path d="M19.5471 3.2501c.6648 0 1.2037.5389 1.2037 1.2036v15.0927c0 .6648-.539 1.2036-1.2037 1.2036H4.4529c-.6648 0-1.2037-.5389-1.2037-1.2036V4.4537c0-.6648.539-1.2036 1.2037-1.2036ZM4.549 19.45l2.0092-.0009v-11.59h-2.01L4.549 19.45ZM19.4492 7.8591H7.8582v11.59L19.45 19.45l-.0008-11.5909Zm-7.025 2.9211 1.4481 2.2396h.0378l1.4621-2.2396h1.594l-2.2331 3.0929v.0303l2.2051 3.094h-1.6276l-1.4946-2.1758h-.0378l-1.5054 2.1758h-1.5421l2.1672-3.1156v-.0346l-2.1532-3.067h1.6795Zm7.025-4.2211L19.45 4.55 7.8582 4.5491v2.01h11.591Zm-12.891-2.01L4.549 4.55l-.0008 2.0091h2.01v-2.01Z"/>
</g></svg>