<svg xmlns="http://www.w3.org/2000/svg" data-laicon-version="5.5" viewBox="0 0 20 20" fill="black"><g transform="translate(-2 -2)">
  <path d="M21.528 4.366a4.344 4.344 0 0 0-1.894-1.894C18.707 2 17.494 2 15.067 2H8.933c-2.427 0-3.64 0-4.567.472a4.344 4.344 0 0 0-1.894 1.894C2 5.293 2 6.506 2 8.933v6.134c0 2.427 0 3.64.472 4.567a4.344 4.344 0 0 0 1.894 1.894C5.293 22 6.506 22 8.933 22h6.134c2.427 0 3.64 0 4.567-.472a4.344 4.344 0 0 0 1.894-1.894c.472-.927.472-2.14.472-4.567V8.933c0-2.427 0-3.64-.472-4.567zm-5.9 14.967h-2.135l1.9-11.309-4.011 11.309H9.247l1.895-10.4-4.007 10.4H5l1.864-9.7L5 4.666h2.135l4.007 3.85-1.895-3.85h2.135L15.389 7.6l-1.9-2.938h2.135l4.043 2.248z"/>
</g></svg>