<svg xmlns="http://www.w3.org/2000/svg" data-laicon-version="5.1" viewBox="0 0 20 20" fill="black"><g transform="translate(-2 -2)">
  <path d="M12 21.2a9.118 9.118 0 0 1-5.359-1.723l-.723-.52 6.863-5.071v2.731a4.681 4.681 0 0 0 2.624-7.829l-.513-.543 3.735-2.65.386.455A9.2 9.2 0 0 1 12 21.2zm-3.833-2.292A7.9 7.9 0 0 0 18.389 7.357l-1.563 1.109a5.982 5.982 0 0 1-4.68 9.513l-.665.021v-1.539zm-3.131-.865-.377-.5a9.2 9.2 0 0 1 12.5-13.162l.764.518-6.573 4.826v-2.36A4.689 4.689 0 0 0 7.318 12a4.638 4.638 0 0 0 1 2.894l.42.535-.552.395c-1.2.857-2.639 1.861-2.639 1.861zM12 4.1A7.907 7.907 0 0 0 4.1 12a7.826 7.826 0 0 0 1.236 4.246c.4-.283.987-.692 1.569-1.105A5.918 5.918 0 0 1 6.019 12 5.988 5.988 0 0 1 12 6.02h.65v1.129l2.965-2.173A7.859 7.859 0 0 0 12 4.1z"/>
</g></svg>