<svg xmlns="http://www.w3.org/2000/svg" data-laicon-version="17.5" viewBox="0 0 20 20" fill="black"><g transform="translate(-2 -2)">
  <path d="M21.548 14.856c-1.465 1.889-2.607 2.833-3.429 2.833-.328 0-.5-.177-.514-.534 0-.11.01-.232.031-.37.02-.136.15-1.48.39-4.034.239-2.551.57-5.402.995-8.55a8.622 8.622 0 0 0-1.395-.102c-.52 0-.924.055-1.212.165v.102l-4.106 9.32-1.271-9.546h-.143c-.206-.027-.586-.041-1.14-.041-.555 0-.996.04-1.324.122-.07.458-.435 2.29-1.095 5.493-1.208-.038-3.342.353-4.658 3.25-1.773 3.9.206 7.272 2.825 6.91h.003c.042-.006.085-.011.129-.019.198-.03.39-.085.577-.166.271-.107.501-.258.702-.445l.092-.077c.527-.48.906-1.225 1.14-2.238l1.438-6.364 1.005 7.657h1.745l3.367-7.78c-.506 4.08-.777 6.297-.811 6.652a9.137 9.137 0 0 0-.052.718c0 .52.158.993.472 1.416.314.424.883.636 1.703.636.82 0 1.694-.332 2.617-.995.924-.663 1.714-1.516 2.371-2.556-.04-.247-.192-.732-.451-1.458l-.001.001ZM4.153 12.895c.823-1.83 2.142-2.284 3.013-2.367l-.707 3.404s-.55 3.857-2.282 3.208c-.749-.281-1.155-1.732-.024-4.245Z"/>
</g></svg>