<svg xmlns="http://www.w3.org/2000/svg" data-laicon-version="18.1" viewBox="0 0 20 20" fill="black"><g transform="translate(-2 -2)">
  <path d="M2.581 3.339c.541-1.331 2.441-.323 3.179.14.18.117.386.363.594.454.322.014.645.038.968.051.608.141 1.177.26 1.655.53 2.223 1.304 3.67 2.636 5 4.834.285.464.429.969.66 1.471a31.65 31.65 0 0 0 1.061 2.248c.169.337.299.71.53.995.092.13.348.168.502.246.426.22.946.386 1.346.645a17.327 17.327 0 0 1 2.132 1.591c.245.218.411.53.646.762v.116c-.207.063-.415.127-.622.18-.452.116-.853.09-1.292.207-.27.077-.608.182-.892.207.01.013.024.026.025.027.166.475 1.071.865 1.486 1.15.505.361.969.8 1.344 1.305.13.127.26.246.39.373.091.13.116.298.207.414v.04c-.182-.064-.273-.232-.414-.335-.284-.193-.57-.428-.854-.607-.491-.31-1.06-.489-1.562-.8a11.38 11.38 0 0 1-.83-.595c-.245-.18-.515-.527-.67-.787-.091-.143-.102-.312-.207-.414.027-.245.337-.246.53-.323.671-.284 1.472-.387 2.508-.362l-.009-.052c-.103-.25-.684-.544-.878-.689a23.641 23.641 0 0 0-1.293-.878c-.232-.143-.635-.245-.891-.36-.348-.142-1.124-.286-1.318-.556-.389-.506-.648-1.125-.919-1.732-.27-.619-.608-1.264-.879-1.9-.14-.309-.206-.582-.36-.877A11.489 11.489 0 0 0 9.42 5.636c-.558-.348-1.176-.674-1.86-.892-.39-.116-.854-.052-1.268-.14h-.27c-.233-.064-.427-.31-.609-.44-.4-.27-.8-.452-1.278-.645-.169-.078-.646-.257-.815-.117-.105.025-.157.066-.182.168-.102.155-.011.387.052.53.196.415.468.66.713 1.008.218.31.491.658.646.995.334.723.491 1.524.8 2.248.114.273.296.582.464.828.141.196.402.337.479.583.154.26-.232 1.113-.323 1.384-.337 1.06-.27 2.531.116 3.45.155.36.295.788.709.89.028-.024 0-.01.053-.024.09-.71.115-1.398.361-1.953.144-.348.429-.594.622-.878.13.077.13.31.207.464.169.4.348.84.555 1.24a16.57 16.57 0 0 0 1.447 2.353c.18.26.439.544.67.776.106.088.221.14.299.257h.025v.038c-.386-.144-.632-.54-.941-.776-.583-.439-1.281-1.099-1.682-1.731-.168-.362-.35-.71-.53-1.072v-.025c-.077.103-.053.205-.092.362-.168.646-.038 1.384-.621 1.616-.66.273-1.151-.44-1.358-.763-.66-1.074-.84-2.883-.376-4.343.104-.324.119-.712.298-.97-.038-.231-.218-.295-.323-.439a6.01 6.01 0 0 1-.477-.8c-.271-.53-.465-1.163-.672-1.732-.091-.232-.116-.464-.207-.685-.152-.336-.44-.671-.657-.97-.299-.425-1.163-1.253-.815-2.092Z"/>
  <path d="M6.906 5.938c.094.068.204.129.262.226.063.091.077.18.154.27 0 .313-.091.516-.273.646l-.025.026c-.105-.205-.193-.412-.297-.62-.13-.18-.31-.323-.415-.53h-.025v-.024a2.2 2.2 0 0 1 .53-.064l.09.07Z"/>
</g></svg>