<svg xmlns="http://www.w3.org/2000/svg" data-laicon-version="5.5" viewBox="0 0 20 20" fill="black"><g transform="translate(-2 -2)">
  <path d="M11.345 2.005c-.043 0-.18.018-.3.028a10.019 10.019 0 0 0-7.188 4.144 9.89 9.89 0 0 0-1.766 4.369A7.659 7.659 0 0 0 2 12a7.659 7.659 0 0 0 .09 1.456 10.042 10.042 0 0 0 6.84 8.079 10.58 10.58 0 0 0 2.111.438 18.553 18.553 0 0 0 1.916 0 10.075 10.075 0 0 0 3.6-1.054c.172-.087.206-.111.182-.131s-.748-.994-1.628-2.183l-1.6-2.16-2-2.965c-1.1-1.631-2.009-2.964-2.017-2.964s-.016 1.316-.02 2.925a22.4 22.4 0 0 1-.043 3 .348.348 0 0 1-.172.178c-.062.031-.117.037-.412.037h-.338l-.09-.056a.365.365 0 0 1-.131-.143l-.041-.088V12.45l.006-3.922.06-.076a.54.54 0 0 1 .145-.119c.08-.039.111-.043.45-.043.4 0 .465.016.568.129.03.031 1.115 1.665 2.412 3.634s3.073 4.656 3.945 5.975l1.584 2.4.08-.053a10.265 10.265 0 0 0 2.054-1.8 9.952 9.952 0 0 0 2.354-5.112A7.659 7.659 0 0 0 22 12a7.659 7.659 0 0 0-.09-1.456 10.042 10.042 0 0 0-6.84-8.079 10.445 10.445 0 0 0-2.082-.436c-.188-.02-1.48-.041-1.642-.026zm4.093 6.048a.4.4 0 0 1 .2.231c.015.051.019 1.138.015 3.587v3.515l-.62-.95-.622-.95v-2.555c0-1.652.008-2.581.02-2.625a.4.4 0 0 1 .193-.247c.081-.041.11-.045.417-.045.289 0 .34 0 .4.039z"/>
</g></svg>