<svg xmlns="http://www.w3.org/2000/svg" data-laicon-version="5.5" viewBox="0 0 20 20" fill="black"><g transform="translate(-2 -2)">
  <path d="M14.9 12.4a.04.04 0 0 1 .022.034v.512a.04.04 0 0 1-.022.034l-.466.256a.049.049 0 0 1-.041 0l-.465-.256a.04.04 0 0 1-.022-.034v-.512a.04.04 0 0 1 .022-.034l.465-.256a.045.045 0 0 1 .019-.005.051.051 0 0 1 .022.005zm6.351-4.931v9.056a.933.933 0 0 1-.5.818l-8.251 4.53a1.038 1.038 0 0 1-.994 0l-8.264-4.528a.933.933 0 0 1-.5-.818V7.471a.957.957 0 0 1 .5-.833L11.5 2.126a1.043 1.043 0 0 1 .994 0l8.261 4.512a.957.957 0 0 1 .5.833zM7.8 11.909a.154.154 0 0 0-.082-.135l-1.359-.745a.167.167 0 0 0-.073-.018h-.017a.167.167 0 0 0-.073.018l-1.359.745a.154.154 0 0 0-.082.135v2a.077.077 0 0 0 .041.068.085.085 0 0 0 .082 0l.806-.44a.157.157 0 0 0 .084-.134v-.934a.151.151 0 0 1 .082-.134l.343-.189a.166.166 0 0 1 .081-.021.17.17 0 0 1 .082.021l.343.189a.151.151 0 0 1 .082.134v.931a.158.158 0 0 0 .084.134l.806.44a.085.085 0 0 0 .082 0 .079.079 0 0 0 .041-.068zm4.073.012a.159.159 0 0 0-.081-.137l-1.359-.742a.178.178 0 0 0-.164 0l-1.358.742a.158.158 0 0 0-.082.137v1.49a.151.151 0 0 0 .082.134l1.358.745a.171.171 0 0 0 .164 0l1.359-.745a.152.152 0 0 0 .081-.134zm4.071-2.195a.157.157 0 0 0-.084-.137l-.809-.429a.084.084 0 0 0-.041-.008.086.086 0 0 0-.041.01.079.079 0 0 0-.041.068v1.978a.05.05 0 0 1-.027.046.058.058 0 0 1-.057 0l-.34-.186a.171.171 0 0 0-.164 0l-1.359.745a.158.158 0 0 0-.081.137v1.489a.155.155 0 0 0 .081.135l1.359.744a.171.171 0 0 0 .164 0l1.358-.744a.154.154 0 0 0 .082-.135zm4.049 2.2a.154.154 0 0 0-.082-.134l-1.35-.745a.17.17 0 0 0-.082-.021.172.172 0 0 0-.082.021l-1.358.745a.154.154 0 0 0-.082.134v1.49a.154.154 0 0 0 .084.134l1.348.729a.173.173 0 0 0 .161 0l.817-.432a.077.077 0 0 0 .043-.067.074.074 0 0 0-.04-.067L18 12.974a.083.083 0 0 1-.044-.07v-.465a.08.08 0 0 1 .044-.068l.424-.232a.085.085 0 0 1 .082 0l.425.232a.079.079 0 0 1 .041.068v.367a.075.075 0 0 0 .041.067.083.083 0 0 0 .081 0l.814-.45a.154.154 0 0 0 .082-.134zm-1.242.569-.261-.145a.032.032 0 0 0-.014 0 .044.044 0 0 0-.016 0l-.26.15a.03.03 0 0 0-.017.026v.284a.03.03 0 0 0 .017.026l.261.143a.032.032 0 0 0 .03 0l.261-.143a.03.03 0 0 0 .017-.026v-.284a.03.03 0 0 0-.018-.026z"/>
</g></svg>