<svg xmlns="http://www.w3.org/2000/svg" data-laicon-version="5.5" viewBox="0 0 20 20" fill="black"><g transform="translate(-2 -2)">
  <path d="M21.841 17.641 16.059 7.63a1.188 1.188 0 0 0-2.059 0l-.584 1.01-2-3.468a1.187 1.187 0 0 0-2.057 0l-7.2 12.469a1.188 1.188 0 0 0 1.028 1.781h17.626a1.187 1.187 0 0 0 1.028-1.781zm-13.62 0a1.194 1.194 0 0 0-.158.6H3.187l7.2-12.468 2.345 4.062zm1.028.593 4.169-7.219 4.168 7.219zm9.528 0a1.19 1.19 0 0 0-.159-.593L14.1 9.828l.926-1.6 5.78 10.011z"/>
</g></svg>