<svg xmlns="http://www.w3.org/2000/svg" data-laicon-version="16.4" viewBox="0 0 20 20" fill="black"><g transform="translate(-2 -2)">
  <path d="M15.151 6.708H11.99V9.87h3.162V6.708Z"/>
  <path d="M10.448 17.298a5.292 5.292 0 1 1 0-10.583l1.541-.007v-3.15h-1.54a8.448 8.448 0 1 0 8.39 9.425h-3.19a5.293 5.293 0 0 1-5.2 4.316Z"/>
  <path d="M22 9.82h-3.162v3.163H22V9.82Zm-3.687-6.275H15.15v3.163h3.162V3.545Z"/>
  <path d="M10.448 17.298a5.292 5.292 0 1 1 0-10.583l1.541-.007v-3.15h-1.54a8.448 8.448 0 1 0 8.39 9.425h-3.19a5.293 5.293 0 0 1-5.2 4.316Z"/>
</g></svg>