<svg xmlns="http://www.w3.org/2000/svg" data-laicon-version="16.4" viewBox="0 0 20 20" fill="black"><g transform="translate(-2 -2)">
  <path d="m12.903 3.12-.37 4.563a4.646 4.646 0 0 0-1.19.02l-.211-2.211a.121.121 0 0 1 .12-.13h.375l-.18-2.237c-.005-.07.05-.13.115-.13h1.226c.07 0 .125.06.115.13V3.12Zm-3.092.225c-.02-.065-.09-.105-.155-.08l-1.15.42a.117.117 0 0 0-.066.16l.936 2.042-.356.13a.117.117 0 0 0-.065.16l.956 2.006a4.29 4.29 0 0 1 1.116-.425L9.816 3.345h-.005ZM6.989 4.616l2.647 3.733c-.335.22-.64.48-.9.78L7.148 7.568a.12.12 0 0 1 .005-.175l.29-.24-1.576-1.596a.117.117 0 0 1 .01-.176l.936-.785a.116.116 0 0 1 .17.02h.005ZM4.768 6.777c-.055-.04-.135-.02-.17.04l-.61 1.061a.118.118 0 0 0 .05.165l2.03.961-.19.325c-.035.06-.01.14.055.165l2.022.926c.145-.375.34-.726.58-1.04L4.768 6.776ZM3.272 9.66c.01-.07.08-.11.145-.095l4.428 1.156a4.38 4.38 0 0 0-.19 1.181l-2.217-.18a.116.116 0 0 1-.105-.14l.065-.37L3.162 11c-.07-.006-.116-.07-.106-.14l.21-1.207.006.005Zm-.166 2.992c-.07.005-.115.07-.105.14l.216 1.206c.01.07.08.11.145.095l2.171-.565.065.37c.01.07.08.11.145.095l2.142-.59a4.336 4.336 0 0 1-.225-1.17l-4.559.42h.005Zm.71 3.173a.118.118 0 0 1 .051-.165L8 13.697c.155.37.365.716.615 1.026l-1.811 1.29a.118.118 0 0 1-.17-.034l-.19-.33-1.847 1.275c-.055.04-.135.02-.17-.04l-.615-1.06h.005Zm5.01-.861L5.607 18.22c-.05.05-.045.13.01.175l.94.786c.056.045.13.035.17-.02L8.03 17.33l.29.245a.118.118 0 0 0 .175-.025l1.261-1.831a4.498 4.498 0 0 1-.926-.756h-.005Zm-.636 5.229a.117.117 0 0 1-.065-.16l1.906-4.163c.35.18.73.315 1.126.39l-.56 2.151a.118.118 0 0 1-.156.08l-.355-.13-.595 2.167c-.02.065-.09.105-.155.08l-1.151-.42.005.005Zm3.282-3.878-.37 4.563c-.005.07.05.13.115.13h1.226c.07 0 .125-.06.115-.13l-.18-2.236h.375a.12.12 0 0 0 .12-.13l-.21-2.212a4.108 4.108 0 0 1-1.19.015Zm4.413-12.353a.116.116 0 0 0-.065-.16l-1.15-.42c-.066-.026-.136.014-.156.08l-.595 2.166-.355-.13a.119.119 0 0 0-.155.08l-.56 2.151c.4.08.775.215 1.125.39l1.911-4.157Zm2.512 1.816L15.18 9.034a4.38 4.38 0 0 0-.926-.756l1.26-1.83a.123.123 0 0 1 .176-.026l.29.245 1.301-1.83a.116.116 0 0 1 .17-.02l.94.785a.121.121 0 0 1 .01.175h-.004Zm1.741 2.562a.115.115 0 0 0 .05-.166l-.615-1.06a.123.123 0 0 0-.17-.04L17.556 8.35l-.19-.326c-.035-.06-.115-.08-.17-.035L15.385 9.28c.25.31.455.656.615 1.026l4.133-1.961.005-.005Zm.65 1.66.21 1.207a.12.12 0 0 1-.105.14l-4.558.425c-.02-.41-.1-.8-.225-1.17l2.142-.591a.115.115 0 0 1 .145.095l.065.37 2.171-.565c.065-.015.136.025.146.095l.01-.005Zm-.205 4.429c.065.015.135-.025.145-.095l.21-1.206a.12.12 0 0 0-.104-.14l-2.237-.21.065-.37a.12.12 0 0 0-.105-.14l-2.217-.18a4.38 4.38 0 0 1-.19 1.18l4.428 1.156.005.005Zm-1.18 2.752a.123.123 0 0 1-.17.04l-3.768-2.602c.24-.315.435-.666.58-1.04l2.022.925c.065.03.09.105.055.165l-.19.325 2.03.96c.061.03.086.106.05.166l-.61 1.06Zm-5.039-1.537 2.647 3.733c.04.055.12.065.17.02l.936-.786a.121.121 0 0 0 .01-.175L16.55 16.84l.29-.24c.055-.045.055-.125.005-.175l-1.586-1.561c-.265.3-.566.565-.9.78h.004Zm-.025 5.084c-.065.025-.135-.015-.155-.08l-1.21-4.413a4.3 4.3 0 0 0 1.115-.425l.956 2.006c.03.065 0 .14-.066.16l-.355.13.936 2.042c.03.065 0 .135-.065.16l-1.15.42h-.006Z"/>
</g></svg>