<svg xmlns="http://www.w3.org/2000/svg" data-laicon-version="14.0" viewBox="0 0 20 20" fill="black"><g transform="translate(-2 -2)">
  <path d="M20.828 9.477c-.37 0-.671.3-.671.672 0 5.527-4.481 10.008-10.009 10.008a.672.672 0 1 0 0 1.344c6.27 0 11.352-5.082 11.352-11.352 0-.37-.3-.672-.672-.672Z"/>
  <path d="M16.774 13.782c.646-1.054 1.27-2.459 1.148-4.426-.255-4.075-3.945-7.166-7.43-6.83-1.364.13-2.765 1.242-2.64 3.234.054.866.477 1.377 1.166 1.77.655.373 1.497.61 2.451.879 1.153.324 2.49.688 3.518 1.446 1.232.907 2.074 1.96 1.787 3.927ZM3.664 6.657c-.646 1.054-1.271 2.458-1.148 4.426.254 4.074 3.945 7.165 7.43 6.83 1.364-.131 2.765-1.243 2.64-3.235-.054-.866-.477-1.376-1.166-1.769-.655-.374-1.497-.61-2.451-.88-1.153-.323-2.49-.688-3.518-1.445-1.232-.908-2.074-1.96-1.787-3.927Z"/>
</g></svg>