<svg xmlns="http://www.w3.org/2000/svg" data-laicon-version="5.11" viewBox="0 0 20 20" fill="black"><g transform="translate(-2 -2)">
  <path d="M12 2.75A9.25 9.25 0 1 0 21.25 12 9.25 9.25 0 0 0 12 2.75zM4.05 12a7.941 7.941 0 0 1 13.088-6.056l-1.72 1.719a5.521 5.521 0 0 0-7.755 7.755l-1.72 1.719A7.911 7.911 0 0 1 4.05 12zm3.721 0A4.229 4.229 0 1 1 12 16.229 4.234 4.234 0 0 1 7.771 12zM12 19.95a7.906 7.906 0 0 1-5.137-1.894l1.719-1.719a5.521 5.521 0 0 0 7.755-7.755l1.719-1.72A7.941 7.941 0 0 1 12 19.95z"/>
</g></svg>