<svg xmlns="http://www.w3.org/2000/svg" data-laicon-version="5.9" viewBox="0 0 20 20" fill="black"><g transform="translate(-2 -2)">
  <path d="M12.055 3C7.075 3 3 7.154 3 12.23c0 3.808 2.264 7.04 5.433 8.424 0-.692 0-1.385.113-2.077.227-.808 1.132-5.077 1.132-5.077s-.34-.577-.34-1.5c0-1.385.793-2.423 1.699-2.423.792 0 1.245.577 1.245 1.384 0 .808-.566 2.078-.793 3.231-.226.923.453 1.731 1.472 1.731 1.698 0 2.83-2.192 2.83-4.962 0-2.076-1.359-3.576-3.736-3.576-2.716 0-4.414 2.077-4.414 4.384 0 .808.226 1.385.566 1.846.113.231.226.231.113.462 0 .115-.113.577-.226.692-.113.231-.227.346-.453.231-1.245-.577-1.811-1.961-1.811-3.577 0-2.654 2.15-5.77 6.452-5.77 3.509 0 5.773 2.54 5.773 5.308 0 3.578-1.925 6.347-4.868 6.347-1.018 0-1.924-.577-2.263-1.154 0 0-.566 2.077-.68 2.538a10.32 10.32 0 0 1-.905 1.962c.792.23 1.698.346 2.603.346 4.98 0 9.056-4.154 9.056-9.23C21.11 7.153 17.036 3 12.055 3z"/>
</g></svg>