<svg xmlns="http://www.w3.org/2000/svg" data-laicon-version="17.5" viewBox="0 0 20 20" fill="black"><g transform="translate(-2 -2)">
  <path d="M8.417 9.601c.38.19.79.3 1.21.34.1 0 .11.01.12.03.14.17.29.32.45.46.11.09.23.18.36.26l.09.05.59.58c.6.6.63.62.73.67.03.01.07.03.1.04.06.02.12.02.18.02s.12 0 .17-.02a.95.95 0 0 0 .21-.09c.03-.02.24-.23.58-.57l.54-.54.11-.06c.51-.28.93-.7 1.22-1.21.03-.05.03-.05.1-.09.3-.16.57-.36.8-.6.71-.71 1.06-1.7.96-2.7-.09-.93-.56-1.77-1.3-2.34l-.04-.03-.02-.09c-.09-.32-.26-.64-.47-.89-.49-.54-1.19-.85-1.93-.82-.39.02-.76.13-1.09.33-.2.12-.23.14-.35.25-.12.1-.3.3-.36.4l-.02.03-.02-.02-.09-.07c-.77-.59-1.87-.45-2.48.31a.341.341 0 0 1-.13.09 3.427 3.427 0 0 0-2.13 2.92c-.11 1.41.64 2.74 1.91 3.37v-.01Zm-1.33-2.45c-.19-.87.02-1.78.57-2.48.13-.16.28-.31.44-.44.07-.06.15-.12.23-.16v.1c0 .07-.01.14 0 .21 0 .05 0 .09.02.14.03.08.1.15.18.17.12.03.24-.03.29-.14.02-.03.02-.04.02-.19 0-.07 0-.14.01-.21.04-.17.12-.34.25-.5.03-.03.06-.07.08-.11a1.265 1.265 0 0 1 1.9-.07l.03.03-.02.06c-.04.14-.07.31-.07.47 0 .31.08.62.23.89.07.14.14.2.26.2.03 0 .07 0 .1-.02.07-.03.12-.09.14-.16.03-.08.02-.12-.05-.27-.13-.26-.17-.45-.16-.68 0-.23.08-.46.22-.65.18-.27.43-.49.72-.63.06-.03.14-.07.18-.08.15-.05.3-.09.46-.1.14 0 .28 0 .43.01.77.11 1.39.69 1.56 1.45.03.12.05.15.17.24.31.23.57.52.77.85.31.53.44 1.13.38 1.74-.07.63-.34 1.22-.79 1.67-.09.09-.24.23-.25.23v-.07c.01-.11-.01-.18-.08-.24a.18.18 0 0 0-.07-.05.26.26 0 0 0-.34.12l-.03.12c-.03.23-.19.63-.34.85-.44.66-1.14 1.1-1.92 1.2a2.694 2.694 0 0 1-2.17-.7c-.29-.26-.52-.62-.61-.95-.03-.09-.03-.13-.05-.24-.01-.1-.04-.16-.09-.2a.204.204 0 0 0-.15-.06.26.26 0 0 0-.27.19c-.01.04-.01.08 0 .13.02.17.06.34.12.5.02.04.03.07.03.07a2.926 2.926 0 0 1-2.34-2.24h.01Zm4.14 5.11.12.07c.12.07.15.24.07.36-.07.12-.23.14-.35.07l-.1-.06a.258.258 0 0 1-.09-.35c.07-.12.23-.16.35-.09Zm2.47-.4c.15-.09.28-.17.37-.26.14-.13.23-.26.33-.4.27-.38.29-.58.37-.7.12-.18.46-.1.46.15 0 .18-.31.74-.54 1.02-.12.15-.25.29-.4.41-.12.1-.26.18-.38.22-.31.1-.45-.32-.22-.45l.01.01Zm-.12.49c.07.12.03.28-.09.35l-.1.06c-.12.07-.28.05-.35-.07-.07-.12-.04-.29.07-.36l.12-.07c.12-.07.28-.03.35.09Zm-3.46-4.6a.439.439 0 0 1-.13-.31c0-.08.01-.12.04-.2.06-.12.16-.2.29-.24a.67.67 0 0 1 .2 0c.03 0 .07.02.1.04.05.02.07.04.11.09.17.17.17.45 0 .63-.11.11-.27.15-.42.11a.374.374 0 0 1-.2-.12h.01Zm3.09-.33c0-.13.04-.23.13-.32.05-.06.12-.1.2-.12.04-.01.07-.01.13-.01.12 0 .21.05.3.13.14.14.17.36.07.53a.52.52 0 0 1-.19.17c-.07.04-.15.05-.22.04a.432.432 0 0 1-.41-.44l-.01.02Zm-2.86 4.23c.1.09.22.17.37.26.23.13.09.55-.22.45-.14-.05-.27-.13-.38-.22-.15-.12-.28-.26-.4-.41-.22-.28-.54-.83-.54-1.02 0-.25.33-.33.46-.15.08.11.1.32.37.7.1.14.19.27.33.4l.01-.01Zm.62-3c-.03-.08-.04-.15-.06-.23h2.36c0 .04-.04.19-.08.29-.15.39-.47.68-.84.78-.17.04-.36.04-.52 0-.39-.1-.72-.42-.86-.84Zm6.49 8.2c-.04-.11-.09-.22-.16-.32-.1-.14-.23-.25-.38-.34a.18.18 0 0 1-.07-.05l.36-1.11c.13-.57-.23-1.15-.8-1.28h-.02c-.14-.02-.28-.02-.42 0-.14.03-.28.09-.38.16l-.05.03-.06-.11c-.07-.15-.18-.29-.31-.41-.54-.48-1.38-.43-1.86.11-.05.06-.1.13-.14.2 0 .01 0 .02-.01.02l-.05-.05a1.054 1.054 0 0 0-1.68-.01l-.03.05v-.02c-.28-.44-.79-.69-1.3-.62a1.3 1.3 0 0 0-1.06.84c0 .02-.01.02-.02.02l-.06-.04c-.11-.07-.24-.12-.36-.15-.07-.02-.15-.02-.22-.02s-.14 0-.21.02c-.43.09-.76.43-.83.86-.02.09-.01.3 0 .39 0 .04.09.29.18.57l.16.5c-.03 0-.06.02-.09.02-.31.06-.46.14-.54.32-.06.13-.07.21-.03.42l.07.39c.12.7.22 1.2.25 1.31.02.11.08.21.15.28l.06.06v.03c-.03.07-.03.15-.02.22.03.11.34 1.09.36 1.13.06.1.15.18.26.21.08.02.15.02.47-.03l.38-.05h.08l.16.48c.09.29.19.57.27.86.04.13.1.21.17.24l.04.02h2.55c2.49 0 2.55 0 2.58-.02.03-.01.05-.03.07-.05.06-.06.09-.13.16-.34.13-.41.26-.82.4-1.23.18.02.36.05.54.08.24.04.31.04.39.03.14-.04.26-.15.3-.29.01-.04.17-1.05.18-1.13v-.13l.03-.03c.13-.1.22-.24.26-.4a.61.61 0 0 0-.1-.49l-.02-.02.02-.02c.08-.06.19-.17.25-.27.17-.25.22-.57.14-.86l-.01.02Zm-1.98-.64s.06.09.05.2c-.02.15-.07.26-.13.25-.09-.01-.17-.02-.26-.04-.14-.03-.28-.05-.41-.07-.01.07-.03.14-.04.21-.02.15-.03.21-.03.21.08.01.17.03.25.04.14.02.25.04.26.04.03.02.04.05.05.11 0 .09-.02.18-.06.26-.02.03-.02.03-.06.03-.14-.01-.28-.04-.42-.07-.06-.01-.09-.01-.09 0-.02.13-.04.26-.05.39l.04.02c.14 0 .62.06.68.08.02 0 .03.01.04.03.01.02 0 .08 0 .17-.03.13-.06.21-.1.23-.02.02-.06.01-.22-.02-.16-.04-.33-.06-.5-.07-.07 0-.14-.01-.2-.02-.11-.01-.18-.06-.2-.14-.02-.07-.01-.17.07-.78l.07-.5c.04-.22.1-.57.12-.6.02-.03.07-.05.12-.06h.17v.01c.25.02.78.09.84.1l.01-.01Zm-1.96-1.93c.06-.34.32-.6.66-.66.1-.01.21 0 .31.01.29.07.52.3.6.59.02.06.02.13.02.19v.13l-.14.59c-.08.32-.14.59-.14.59-.04 0-.09 0-.13-.01-.23-.02-.33-.01-.44.03-.08.04-.16.09-.22.16l-.02.02-.03-.03a1.24 1.24 0 0 0-.53-.25l-.1-.02.16-1.34Zm-.89 2.47.04-.51c0-.09.02-.18.02-.19 0-.03.04-.04.08-.05h.32c.15 0 .21.02.32.04.14.03.24.09.35.18.22.18.28.52.14.82-.09.19-.24.34-.43.43-.12.06-.26.11-.4.12-.03 0-.03 0-.04.2 0 .19-.02.22-.09.26-.08.02-.17.02-.25 0a.159.159 0 0 1-.1-.08c-.02-.05-.02-.19.06-1.24l-.02.02Zm-1.07-.72s.11 0 .16.02c.19.03.34.1.45.21.08.08.13.18.16.29.02.06.02.23.01.29a1 1 0 0 1-.13.34c-.15.22-.38.38-.65.44-.02 0-.05.01-.07.02v.17c0 .2 0 .22-.04.26-.04.04-.07.05-.19.05-.09 0-.1 0-.13-.02a.159.159 0 0 1-.08-.1c-.01-.05-.02-.16-.02-.74v-.85l-.01-.31.02-.02s.03-.03.05-.03c.03-.01.38-.03.48-.02h-.01Zm-2.08-1.62c0-.07 0-.13.02-.2.08-.31.34-.55.66-.6h.25c.31.06.57.29.64.6.01.04.17 1.36.17 1.4 0 0 0 .01-.03.01-.05 0-.2.02-.24.04-.07.02-.14.06-.2.12-.06.05-.1.12-.12.19l-.02.05-.05-.04c-.14-.1-.3-.17-.46-.2-.07-.01-.13-.02-.2-.02h-.12l-.15-.61-.15-.61v-.13Zm.23 1.78.07-.02c.08 0 .17 0 .25.01.35.08.63.4.72.82.06.25.03.52-.08.76-.15.32-.4.49-.71.49-.21 0-.4-.09-.57-.27-.16-.17-.26-.38-.3-.61-.02-.12-.02-.24 0-.36.05-.4.3-.74.63-.82h-.01Zm-1.88 2.37c-.06-.03-.08-.07-.11-.21-.1-.52-.19-1.03-.29-1.55l-.03-.17c0-.03.03-.06.08-.08.05-.02.33-.08.43-.09.11-.01.23-.01.34 0 .08.01.16.04.23.08.16.09.28.24.32.42.02.08.02.26 0 .35-.03.13-.08.24-.15.35-.08.1-.17.19-.27.26-.08.05-.16.09-.24.13-.02 0-.02.01-.02.02.02.09.07.33.07.35 0 .03-.02.07-.04.1-.03.04-.15.07-.24.07-.05 0-.06 0-.09-.02l.01-.01Zm4.03 2.71s0 .05-.02.05c-.07.01-.15.03-.22.04-.11.02-.24.04-.28.04-.15.03-.22.04-.23.03-.05-.25-.11-.49-.17-.74l-.11-.48s.66-.04.87-.05h.06v.03l.05.4c.04.38.06.57.05.68Zm1.79-.61-.14.58c-.03.14-.05.21-.07.21-.04.01-.64-.09-.73-.13-.02 0-.02-.01-.02-.06 0-.03 0-.1.01-.15.01-.09.12-.92.12-.95 0-.01.01-.01.17 0 .09 0 .3.01.46.02.16 0 .29.01.3.02 0 0-.02.14-.1.47v-.01Zm2.67-.62s0 .01-.21-.02c-.97-.16-1.97-.26-3-.29-.36 0-1.31 0-1.65.01-.99.04-1.98.14-2.96.28l-.22.03c-.11-.34-.22-.68-.32-1.02 0 0 .47-.11.65-.15h.02v.38l.02.03c.04.06.12.08.18.04 0 0 .01 0 .02-.02.04-.04.04-.05.04-.28 0-.17 0-.22.01-.22.13-.03.26-.05.39-.06v.77c.02.05.07.08.12.08.04 0 .07-.02.1-.04.03-.04.03-.04.04-.46 0-.37 0-.4.02-.4l.21-.03.2-.03v.61l.02.03c.05.09.2.08.24-.02v-.66l.16-.02.19-.02h.04v.92c.02.05.05.08.1.09.06.01.12-.02.14-.07.01-.03.02-.04.02-.49v-.47s.07 0 .15-.01h.2l.06-.02v.36c0 .35 0 .36.01.39.02.05.06.07.12.07.05 0 .09-.02.11-.06l.02-.03v-.73h.37v1l.02.03c.06.08.17.07.23-.02.01-.02.01-.04.02-.52v-.5h.42v.37c0 .41 0 .4.05.44.02.02.04.02.07.02.05 0 .09-.02.12-.06l.02-.03v-.73h.06c.07 0 .33.01.39.02h.05v.93l.02.04s.06.07.1.07c.06 0 .11-.02.13-.07.01-.03.01-.04.01-.49v-.46h.03s.11 0 .33.03h.09v.66l.02.03c.04.06.12.08.18.04a.12.12 0 0 0 .05-.05c.01-.03.01-.05.01-.33v-.3h.03l.2.03.18.02v.8l.03.03c.05.09.18.09.23 0l.02-.03v-.75l.2.03c.1.02.2.03.22.04h.03v.24c0 .22 0 .23.02.26.04.07.16.08.21.01.03-.04.03-.08.03-.27v-.18h.03c.05.01.63.14.64.15 0 0-.15.98-.15 1.01l.05.02Zm.76-2.76c-.06.2-.2.36-.38.44-.1.05-.21.08-.32.11 0 0 .05.08.07.12.06.09.19.23.27.29l.06.06c.02.02.02.03.01.07 0 .12-.13.25-.23.25-.06 0-.16-.06-.25-.15s-.16-.2-.27-.4c-.01-.03-.03-.06-.05-.09l-.04.16c-.04.18-.05.2-.11.23-.04.02-.07.02-.16 0-.08-.02-.13-.04-.17-.08-.06-.07-.05-.11.13-.78.05-.2.11-.41.13-.48.07-.25.17-.63.18-.66 0-.02.02-.03.03-.04.03-.02.11 0 .32.04.22.05.26.07.38.13.14.06.25.17.33.29.09.15.12.31.08.48l-.01.01Zm-8.88.2a.51.51 0 0 1-.17.07l-.02-.06c-.02-.11-.12-.55-.12-.57 0 0 0-.01.06-.02.03 0 .06-.01.09-.02.05 0 .1 0 .14.01.08.02.15.07.19.15.02.03.02.05.02.12 0 .08 0 .08-.03.14-.04.07-.09.14-.16.18Zm8.41-.43s.02.06.02.1c0 .04 0 .07-.02.11-.06.1-.15.17-.27.19-.07.01-.14.01-.21 0-.01 0-.02 0-.02-.02l.07-.29.07-.29s0-.01.03-.01c.16.03.29.11.34.2l-.01.01Zm-7.03.5a.921.921 0 0 1-.08-.54c.04-.22.16-.39.32-.43.2-.06.43.12.53.41.09.28.04.59-.13.76-.19.19-.47.1-.63-.19l-.01-.01Zm3.49-.43h-.03v-.05c0-.1.01-.2.02-.31 0-.09 0-.19.01-.28v-.03h.07c.07 0 .14.02.21.05.07.03.12.09.15.15.05.13-.02.28-.17.37-.07.04-.19.08-.26.08v.02Zm-1.61-.06c0-.18-.02-.37-.03-.55 0-.02 0-.03.02-.03.07 0 .14 0 .21.01.17.05.26.18.23.32-.03.16-.2.29-.4.32h-.03v-.08.01Z"/>
</g></svg>