<svg xmlns="http://www.w3.org/2000/svg" data-laicon-version="5.5" viewBox="0 0 20 20" fill="black"><g transform="translate(-2 -2)">
  <path d="M13.611 9.938A19.119 19.119 0 0 0 12 8.81a18.893 18.893 0 0 0-1.612 1.128A18.293 18.293 0 0 0 8.156 12a18.271 18.271 0 0 0 2.233 2.06A19.119 19.119 0 0 0 12 15.19a18.893 18.893 0 0 0 1.612-1.128A18.293 18.293 0 0 0 15.844 12a18.271 18.271 0 0 0-2.233-2.062zM12 13.328A1.328 1.328 0 1 1 13.328 12 1.327 1.327 0 0 1 12 13.328zM12 2 3.34 7v10L12 22l8.66-5V7zm6.235 12.346-.571.255a9.472 9.472 0 0 0-1.406-2.132A18.9 18.9 0 0 1 14 14.555c-.46.359-.926.689-1.391.993a9.039 9.039 0 0 0 4.024 1.389 1.4 1.4 0 0 0 1.158-.416l.5.375-.034.038a1.984 1.984 0 0 1-1.625.628A9.933 9.933 0 0 1 12 15.924a11.741 11.741 0 0 1-3.786 1.557l-.109-.615a10.857 10.857 0 0 0 3.3-1.317c-.469-.306-.938-.632-1.4-.994a19.219 19.219 0 0 1-2.267-2.08 6.181 6.181 0 0 0-1.723 3.379 1.057 1.057 0 0 0 .2.667l-.492.386-.014-.02a1.65 1.65 0 0 1-.318-1.033A6.818 6.818 0 0 1 7.314 12a10.184 10.184 0 0 1-1.545-2.338l.571-.256a9.54 9.54 0 0 0 1.4 2.125A18.822 18.822 0 0 1 10 9.445c.46-.359.926-.689 1.391-.993a9.047 9.047 0 0 0-4.02-1.389 1.4 1.4 0 0 0-1.158.416l-.506-.368.011-.011a2 2 0 0 1 1.653-.66A9.933 9.933 0 0 1 12 8.076a11.77 11.77 0 0 1 3.776-1.556l.111.615a10.847 10.847 0 0 0-3.293 1.316c.469.306.939.632 1.4.994a19.062 19.062 0 0 1 2.267 2.08 6.181 6.181 0 0 0 1.723-3.379 1.057 1.057 0 0 0-.2-.667l.474-.408.037.05a1.638 1.638 0 0 1 .313 1.025A6.816 6.816 0 0 1 16.687 12a10.2 10.2 0 0 1 1.548 2.346z"/>
</g></svg>