<svg xmlns="http://www.w3.org/2000/svg" data-laicon-version="17.5" viewBox="0 0 20 20" fill="black"><g transform="translate(-2 -2)">
  <path d="M19.867 10.261V7.823a.634.634 0 0 0-.316-.547l-7.235-4.178a.635.635 0 0 0-.632 0L4.449 7.276a.635.635 0 0 0-.316.547v2.438H3v6h1.138c.026.193.14.366.311.464l7.235 4.176a.634.634 0 0 0 .632 0l7.235-4.176a.634.634 0 0 0 .31-.464H21v-6h-1.133ZM12 3.971l6.496 3.751-4.398 2.54H9.901l-4.398-2.54L12 3.972ZM5.047 8.514l3.027 1.747H5.047V8.513Zm-.914 6.747H4v-4h4v4H7v-3H6v3H4.133Zm7.41 4.505-6.07-3.505H8v1h3.543v2.504ZM13 15.26h-2v1H9v-4.999h4v4Zm7 0h-1v-3h-1v3h-1v-3h-1v3h-1.999v-4h6v4Zm-8-1h-1v-2h1v2Z"/>
</g></svg>