<svg xmlns="http://www.w3.org/2000/svg" data-laicon-version="17.5" viewBox="0 0 20 20" fill="black"><g transform="translate(-2 -2)">
  <path d="M5.541 3h12.926a2.537 2.537 0 0 1 2.537 2.537v12.926A2.537 2.537 0 0 1 18.467 21H5.54a2.537 2.537 0 0 1-2.537-2.537V5.537A2.537 2.537 0 0 1 5.54 3Zm2.852 14.468h4.571c.719 0 1.425-.508 1.425-1.416v-1.948c0-.51-.511-1.312-1.425-1.312H8.711c-.355 0-.49-.125-.49-.321v-.822c0-.18.135-.305.305-.305h6.9c.247 0 .293.18.293.354v5.748c.53 0 1.612-.745 1.612-1.888V8.554c0-1.2-.678-2.074-2.16-2.074h-4.414c-.96 0-1.852.753-1.852 1.811v1.435h-.944c-.737 0-1.313.607-1.313 1.316v2.113c0 .594.485 1.226 1.313 1.226h4.515s.258-.037.258.258v.92s.026.283-.283.283l-5.799.008c.038.74.91 1.618 1.741 1.618Zm2.364-9.397c-.194 0-.28.13-.28.29v1.051c0 .2.14.302.373.302h4.574c.137 0 .286-.096.286-.285V8.363c0-.18-.052-.291-.264-.291h-4.689Z"/>
</g></svg>