<svg xmlns="http://www.w3.org/2000/svg" data-laicon-version="5.5" viewBox="0 0 20 20" fill="black"><g transform="translate(-2 -2)">
  <path d="M13.783 12A1.783 1.783 0 1 1 12 10.213 1.783 1.783 0 0 1 13.783 12zm4.017 3.343c.643 2.58.416 4.612-.8 5.312a1.978 1.978 0 0 1-1.008.259 5.329 5.329 0 0 1-3.121-1.432c-.29-.236-.581-.5-.871-.785-.29.282-.581.549-.871.785a5.329 5.329 0 0 1-3.121 1.432A1.968 1.968 0 0 1 7 20.655c-1.213-.7-1.44-2.732-.8-5.312C3.646 14.609 2 13.4 2 12s1.644-2.617 4.2-3.35c-.1-.394-.186-.781-.245-1.152C5.616 5.4 5.988 3.919 7 3.335c1.214-.7 3.087.121 5 1.967 1.913-1.848 3.786-2.668 5-1.967 1.012.584 1.384 2.063 1.047 4.163-.059.371-.145.758-.245 1.152C20.356 9.383 22 10.6 22 12s-1.646 2.609-4.2 3.343zM16 3.949c-.843 0-2.068.693-3.389 1.972A20.462 20.462 0 0 1 14.3 8.016a20.556 20.556 0 0 1 2.664.417c.092-.367.173-.728.228-1.073.271-1.694.044-2.886-.624-3.272A1.125 1.125 0 0 0 16 3.949zM15.637 12a24.312 24.312 0 0 0-1.819-3.15c-.582-.05-1.188-.072-1.818-.072s-1.236.025-1.818.069q-.494.723-.968 1.54c-.316.546-.6 1.084-.851 1.61q.387.8.851 1.607t.966 1.54c.583.044 1.189.069 1.82.069s1.237-.025 1.82-.069q.5-.736.966-1.54T15.637 12zm-.1 2.042c-.2.34-.4.67-.608 1 .638-.081 1.234-.187 1.79-.312-.169-.545-.375-1.114-.625-1.707-.175.334-.358.677-.555 1.016zm-2.376 2.015c-.381.018-.768.029-1.163.029s-.782-.011-1.163-.029q.57.753 1.163 1.4.593-.649 1.165-1.403zm-4.7-2.015c-.2-.341-.38-.682-.557-1.024-.25.593-.456 1.162-.625 1.707.556.125 1.152.231 1.79.312-.208-.328-.412-.658-.608-.998zm0-4.087c.2-.342.4-.672.607-.995a18.87 18.87 0 0 0-1.792.313q.261.832.627 1.7c.176-.338.36-.679.558-1.021zm2.377-2.015c.381-.018.768-.029 1.162-.029s.781.011 1.162.029c-.387-.511-.777-.981-1.162-1.4-.385.416-.775.886-1.162 1.397zm5.262 3.034q.366-.87.627-1.7a18.87 18.87 0 0 0-1.792-.313c.206.323.41.653.607.995s.379.679.558 1.018zM7.039 8.433A20.556 20.556 0 0 1 9.7 8.016a20.61 20.61 0 0 1 1.69-2.1c-1.32-1.278-2.546-1.971-3.388-1.971a1.125 1.125 0 0 0-.57.139c-.668.386-.895 1.578-.624 3.272.058.349.139.71.231 1.077zm-.6 6.074A20.456 20.456 0 0 1 7.406 12a20.543 20.543 0 0 1-.972-2.51C4.213 10.12 2.87 11.087 2.87 12s1.343 1.872 3.566 2.507zm4.957 3.567a20.847 20.847 0 0 1-1.69-2.1 20.523 20.523 0 0 1-2.66-.416c-.561 2.242-.4 3.889.392 4.344.669.384 1.814-.014 3.145-1.1.268-.215.539-.465.81-.728zm5.564-2.515a20.523 20.523 0 0 1-2.66.416 20.847 20.847 0 0 1-1.69 2.1c.271.263.542.513.813.733 1.331 1.082 2.477 1.482 3.145 1.1.784-.46.95-2.108.389-4.349zM21.13 12c0-.908-1.343-1.875-3.564-2.51a20.543 20.543 0 0 1-.972 2.51 20.456 20.456 0 0 1 .97 2.512c2.223-.64 3.566-1.612 3.566-2.512z"/>
</g></svg>