<svg xmlns="http://www.w3.org/2000/svg" data-laicon-version="5.5" viewBox="0 0 20 20" fill="black"><g transform="translate(-2 -2)">
  <path d="m20.269 4.377.081.074c-.6-2.354-4.5-3.127-8.189-1.815A18.535 18.535 0 0 0 5.88 6.24c-2.034 1.9-2.357 3.554-2.223 4.246.471 2.439 3.814 4.035 5.188 5.218v.007c-.4.2-3.371 1.687-4.066 3.227-.745 1.622.116 2.782.678 2.929a4.183 4.183 0 0 0 4.485-1.819 4.578 4.578 0 0 0 .446-4.056 5.136 5.136 0 0 1 2.019-.114c2.318.264 2.781 1.721 2.681 2.316a1.588 1.588 0 0 1-.744 1.042c-.165.1-.215.132-.2.2.016.1.1.1.231.083a1.837 1.837 0 0 0 1.26-1.619c.05-1.423-1.308-3.01-3.723-2.978a5.958 5.958 0 0 0-2.069.282.389.389 0 0 0-.116-.116c-1.489-1.605-4.253-2.73-4.137-4.865.033-.778.314-2.829 5.3-5.312 4.088-2.036 7.35-1.473 7.912-.231.809 1.769-1.739 5.064-5.992 5.543a3.19 3.19 0 0 1-2.682-.679c-.23-.248-.264-.265-.346-.214-.133.066-.05.281 0 .414a2.545 2.545 0 0 0 1.54 1.208 8.136 8.136 0 0 0 4.965-.5c2.559-.993 4.561-3.758 3.982-6.075zM9.3 16.5l.119-.067a3.38 3.38 0 0 1-.027 1.977l-.071.2c-.027.068-.058.133-.086.195a3.719 3.719 0 0 1-.613.893c-.77.838-1.845 1.155-2.306.888-.5-.289-.249-1.473.645-2.416A9.005 9.005 0 0 1 9.3 16.5z"/>
</g></svg>