<svg xmlns="http://www.w3.org/2000/svg" data-laicon-version="15.4" viewBox="0 0 20 20" fill="black"><g transform="translate(-2 -2)">
  <path d="M15.95 9.085c-1.65-.602-3.361-.835-5.332-.854l-.255.013a33.27 33.27 0 0 0-.996.06 11.18 11.18 0 0 0-2.326.426c-.425.127-.652.532-.532.935.12.404.533.618.958.491a9.773 9.773 0 0 1 1.681-.335 14.712 14.712 0 0 1 3.313-.007c1.515.167 2.973.522 4.308 1.291.26.15.532.122.776-.053a.738.738 0 0 0-.045-1.235c-.49-.3-1.01-.535-1.55-.732Zm-.376 2.958c-1.556-.731-3.204-1.04-4.915-1.038h-.196a5.633 5.633 0 0 0-.411.002c-.873.04-1.729.177-2.566.43-.353.106-.54.438-.443.774.098.337.442.51.803.412.294-.08.59-.158.888-.214a10.627 10.627 0 0 1 3.566-.05c1.233.184 2.406.549 3.482 1.195a.617.617 0 0 0 .867-.205.612.612 0 0 0-.23-.852 10.9 10.9 0 0 0-.845-.454Zm-4.817 1.567c1.387-.012 2.724.234 3.982.835.25.12.494.257.735.396.262.152.34.445.193.689-.147.245-.445.313-.707.156-1.036-.625-2.162-.957-3.362-1.06-1.218-.105-2.415.029-3.601.295-.25.055-.456-.023-.577-.221a.465.465 0 0 1 .047-.563.6.6 0 0 1 .275-.169c.825-.199 1.663-.32 2.51-.356.114-.005.229-.004.343-.003l.161.002v-.001Z"/>
  <path d="M12 3.35a8.65 8.65 0 1 0 0 17.3 8.65 8.65 0 0 0 0-17.3ZM4.65 12a7.35 7.35 0 1 1 14.7 0 7.35 7.35 0 0 1-14.7 0Z"/>
</g></svg>