<svg xmlns="http://www.w3.org/2000/svg" data-laicon-version="16.1" viewBox="0 0 20 20" fill="black"><g transform="translate(-2 -2)">
  <path d="m12 12 6.835 2.523.412 2.373c.022.119-.108.216-.217.162l-7.019-2.621v-2.438h-.01Zm4.03-2.492h-.011c0 .682.206 1.332.542 1.874l-4.28-1.603V7.34l3.825 1.42a4.154 4.154 0 0 0-.076.747Zm3.564 2.156a2.156 2.156 0 1 0 0-4.312 2.156 2.156 0 0 0 0 4.312Z"/>
  <path d="m19.594 20.871-.022-.01a.15.15 0 0 1-.217.162L12.336 18.4c-.043-.021-.14 0-.14 0l-5.959 3.13c-.108.055-.238-.042-.216-.162l1.137-6.64c.01-.043-.043-.13-.043-.13l-4.82-4.701a.153.153 0 0 1 .086-.26l6.673-.953c.054-.011.119-.087.119-.087l2.979-6.044a.17.17 0 0 1 .14-.087v4.918c-.064-.022-.108 0-.14.065l-1.55 3.13c-.02.044-.118.087-.118.087l-3.456.498a.153.153 0 0 0-.087.26l2.503 2.438c.043.032.043.13.043.13l-.596 3.444a.15.15 0 0 0 .217.163l3.098-1.625c.043-.022.14 0 .14 0l6.836 2.524.412 2.372Z"/>
</g></svg>