<svg xmlns="http://www.w3.org/2000/svg" data-laicon-version="5.5" viewBox="0 0 20 20" fill="black"><g transform="translate(-2 -2)">
  <path d="M20.024 2.943A1 1 0 0 0 18.958 2l-1.1.069.081 2.308a.15.15 0 0 1-.145.155.152.152 0 0 1-.1-.032l-.744-.586-.88.668a.15.15 0 0 1-.21-.029.154.154 0 0 1-.031-.1l.1-2.266-11 .688a1.006 1.006 0 0 0-.943 1.041l.62 16.508a1.006 1.006 0 0 0 .96.967l13.422.6h.045a1 1 0 0 0 1-1.006V3.006c-.007-.021-.007-.042-.009-.063zm-7.647 15.266c-2.4 0-4.487-.969-4.251-4.328.093-.394 3.137-.3 3.137 0-.037 1.386.279 1.794 1.077 1.794a.8.8 0 0 0 .891-.906c0-2.026-5.012-2.1-5.012-5.812C8.219 6.825 9.685 5.4 12.3 5.4s4.05 1.4 4.05 4.067c-.354.275-2.989.463-2.989.071.056-1.493-.612-1.558-.984-1.558a.839.839 0 0 0-.947.906c0 1.973 5.087 1.866 5.087 5.847 0 2.239-1.817 3.476-4.14 3.476z"/>
</g></svg>