<svg xmlns="http://www.w3.org/2000/svg" data-laicon-version="17.5" viewBox="0 0 20 20" fill="black"><g transform="translate(-2 -2)">
  <path d="M11.118 3.241c2.55-1.624 6.077-.867 7.862 1.689a5.474 5.474 0 0 1 .935 4.14 5.15 5.15 0 0 1-.768 1.92 5.413 5.413 0 0 1 .533 3.474 5.139 5.139 0 0 1-2.32 3.44l-4.48 2.856c-2.549 1.624-6.075.867-7.861-1.689a5.475 5.475 0 0 1-.935-4.14 5.152 5.152 0 0 1 .768-1.92 5.41 5.41 0 0 1-.534-3.474 5.137 5.137 0 0 1 2.321-3.44l4.478-2.855ZM8.501 19.492a3.7 3.7 0 0 0 2.217.112c.335-.09.654-.23.946-.416l4.658-2.968a3.213 3.213 0 0 0 1.451-2.152 3.424 3.424 0 0 0-.585-2.59 3.7 3.7 0 0 0-3.97-1.472c-.335.09-.654.23-.946.415l-1.777 1.133a1.027 1.027 0 0 1-.286.126 1.115 1.115 0 0 1-1.363-.817 1.033 1.033 0 0 1-.01-.408.968.968 0 0 1 .438-.648l4.658-2.968a.99.99 0 0 1 .286-.126 1.114 1.114 0 0 1 1.195.444c.143.201.209.446.188.692l-.016.173.173.053a6.004 6.004 0 0 1 1.822.91l.239.175.088-.267c.046-.143.084-.288.11-.435a3.424 3.424 0 0 0-.584-2.59 3.7 3.7 0 0 0-3.971-1.472c-.335.09-.654.23-.947.416L7.858 7.78a3.212 3.212 0 0 0-1.452 2.152 3.424 3.424 0 0 0 .585 2.59 3.7 3.7 0 0 0 3.971 1.472c.335-.09.654-.23.946-.415l1.777-1.133c.089-.056.185-.099.286-.126a1.114 1.114 0 0 1 1.363.817c.03.134.033.272.01.408a.97.97 0 0 1-.438.648l-4.658 2.968a1.025 1.025 0 0 1-.286.126 1.114 1.114 0 0 1-1.196-.444 1.044 1.044 0 0 1-.187-.692l.016-.173-.174-.053a6.008 6.008 0 0 1-1.821-.91l-.24-.175-.087.267a3.25 3.25 0 0 0-.111.435 3.424 3.424 0 0 0 .585 2.59 3.7 3.7 0 0 0 1.754 1.36Z"/>
</g></svg>