<svg xmlns="http://www.w3.org/2000/svg" data-laicon-version="17.5" viewBox="0 0 20 20" fill="black"><g transform="translate(-2 -2)">
  <path d="M16.723 4.337a9 9 0 0 1-7.808 16.12l-.103-.038.167-.054.216-.07.106-.036.105-.036.207-.071.204-.072.2-.073.196-.073.097-.036.19-.074c.201-.079.396-.158.584-.239l.14-.06.172-.077.222-.102.11-.051.16-.078.078-.04.078-.038.152-.08c1.28-.67 2.15-1.4 2.613-2.2.978-1.696.124-3.507-2.33-5.354l-.2-.15-.12-.092-.119-.093-.114-.091-.11-.091-.055-.045-.053-.045-.104-.09-.075-.066-.074-.067-.095-.088-.092-.087-.088-.086-.043-.043-.042-.043-.081-.085c-.97-1.031-1.187-1.914-.746-2.676.224-.388.612-.77 1.165-1.142l.067-.044.105-.068.147-.09.076-.046.116-.067.12-.067.093-.05.095-.05.13-.066c.098-.05.2-.1.304-.149l.106-.049.144-.065.073-.032.15-.065.076-.033.155-.064.08-.032.16-.064.082-.032.166-.064.17-.063.086-.031.175-.063.18-.063.182-.062.092-.03.188-.062.192-.061.196-.061.199-.061.202-.06.259-.075.264-.074.325-.089.135-.036ZM12 3a8.98 8.98 0 0 1 3.114.553l.103.04-.066.019-.32.099-.105.033-.207.067-.203.067-.2.068-.196.068-.192.07-.094.034-.233.087-.226.088-.177.071-.087.036-.171.072c-1.75.746-2.898 1.582-3.446 2.532-.958 1.659-.09 3.446 2.364 5.293l.2.15.121.092.118.093.057.046.113.091.082.068.08.068.103.09.05.044.1.09c.053.048.105.097.155.146l.075.072.107.109.102.107c.966 1.038 1.172 1.938.713 2.733-.296.514-.864 1.02-1.7 1.512l-.076.045-.124.07-.128.07c-.072.04-.146.078-.222.117l-.114.058-.141.07-.145.069-.148.069-.076.034-.154.069-.158.068-.16.068-.083.034-.167.068-.085.034-.085.033-.174.068-.178.067-.182.066-.185.067-.19.066-.095.033-.195.065-.098.033-.2.065-.204.065-.26.08-.265.081-.217.064-.302.087A9 9 0 0 1 12 3Z"/>
</g></svg>