<svg xmlns="http://www.w3.org/2000/svg" data-laicon-version="5.5" viewBox="0 0 20 20" fill="black"><g transform="translate(-2 -2)">
  <path d="M11.712 2.145v1.836h-1.644v.483h1.644V6.3h.58V4.464h1.641v-.483h-1.641V2.145h-.58zm5.025 1.885v2.705h-2.466v.773h2.464v2.656h.865l.009-1.318.017-1.314 1.221-.016 1.216-.009v-.772h-2.46V4.03h-.87zM6.4 4.08v2.658H3.909v.771H6.4v2.658h.821V7.508h2.508v-.771H7.218V4.08H6.4zm5.071 4.392v2.994H8.717v.99h2.753v3h1.067v-3h2.757v-.99h-2.758V8.472h-1.067zm8.1 1.291v1.851h-1.678v.676h1.677v1.884h.739V12.29H22v-.676h-1.691v-1.85h-.739zm-15.927.109v1.812H2v.516h1.644v1.83H4.2V12.2h1.667v-.517H4.174V9.872h-.53zm13.091 3.764v2.711h-2.513v.773h2.513v2.68h.893v-2.68h2.489v-.773h-2.489v-2.711h-.893zm-10.386.006v2.705H3.885v.774h2.464v2.657h.918v-2.657h2.462v-.774H7.267v-2.705h-.918zm5.263 3.815v1.836h-1.64v.677h1.642v1.885h.774l.01-.932.014-.953h1.641v-.677h-1.667v-1.836h-.774z"/>
</g></svg>