<svg xmlns="http://www.w3.org/2000/svg" data-laicon-version="17.5" viewBox="0 0 20 20" fill="black"><g transform="translate(-2 -2)">
  <path d="m3.073 3 17.854 5.056L10.99 17.7 7.592 21 3.073 3Zm13.075 3.918-4.031-1.142 1.02 4.063 3.01-2.921Zm-2.924 3.27 1.018 4.066 3.014-2.924-4.032-1.142Zm.817 4.117-1.018-4.066-3.012 2.925 4.03 1.141Zm2.251-7.239-3.01 2.923 4.031 1.141-1.02-4.064Zm.201-.05 1.021 4.063 3.01-2.921-4.03-1.142Zm-9.1-2.577L3.361 3.297l1.02 4.066 3.01-2.924ZM4.525 7.512l4.032 1.142-1.021-4.067-3.011 2.925Zm3.212-2.975L8.758 8.6l3.013-2.922-4.033-1.141Zm4.178 1.29L8.9 8.75l4.037 1.14-1.021-4.064Zm-2.25 7.239L8.644 9.002l-3.011 2.922 4.031 1.142ZM4.468 7.712l1.02 4.063L8.5 8.853 4.47 7.712Zm1.108 4.411 1.02 4.064 3.011-2.922-4.03-1.142Zm3.268-3.172 1.021 4.064 3.014-2.925-4.035-1.139Zm1.928 8.526-1.02-4.063-3.01 2.921 4.03 1.142Zm-4.088-.943 1.02 4.067 3.01-2.925-4.03-1.142Zm4.29.892 3.01-2.921-4.031-1.142 1.02 4.063Z"/>
</g></svg>