<svg xmlns="http://www.w3.org/2000/svg" data-laicon-version="16.2" viewBox="0 0 20 20" fill="black"><g transform="translate(-2 -2)">
  <path d="M16.547 11.306a6.882 6.882 0 0 0-.25-.113c-.146-2.702-1.623-4.25-4.102-4.265h-.034c-1.483 0-2.716.633-3.475 1.785l1.363.935c.567-.86 1.457-1.044 2.113-1.044h.022c.817.005 1.433.243 1.832.706.29.336.484.803.58 1.39a10.427 10.427 0 0 0-2.344-.113c-2.356.136-3.872 1.51-3.77 3.42.051.97.534 1.803 1.36 2.348.696.46 1.594.686 2.528.635 1.233-.068 2.2-.538 2.874-1.398.513-.653.837-1.5.98-2.566.588.355 1.023.821 1.264 1.382.41.953.433 2.52-.846 3.797-1.12 1.12-2.467 1.603-4.501 1.618-2.257-.016-3.965-.74-5.075-2.15C6.026 16.35 5.49 14.442 5.47 12c.02-2.442.557-4.351 1.596-5.672 1.11-1.411 2.817-2.135 5.075-2.151 2.273.016 4.01.744 5.162 2.161.566.696.991 1.57 1.273 2.589l1.597-.426c-.34-1.255-.876-2.336-1.605-3.233C17.09 3.45 14.93 2.52 12.146 2.5h-.01c-2.78.019-4.915.954-6.35 2.779-1.278 1.623-1.937 3.883-1.96 6.715v.012c.023 2.833.682 5.091 1.959 6.715 1.435 1.825 3.572 2.76 6.35 2.779h.011c2.47-.017 4.211-.664 5.645-2.097 1.877-1.875 1.82-4.224 1.202-5.667-.444-1.035-1.29-1.875-2.446-2.43Zm-4.265 4.01c-1.033.058-2.106-.406-2.16-1.399-.04-.736.524-1.558 2.223-1.656.195-.012.386-.016.573-.016.618 0 1.194.059 1.719.174-.196 2.444-1.344 2.841-2.355 2.896Z"/>
</g></svg>