<svg xmlns="http://www.w3.org/2000/svg" data-laicon-version="15.4" viewBox="0 0 20 20" fill="black"><g transform="translate(-2 -2)">
  <path d="M10.044 20.33c-.27 0-1.68-.02-2.95-.89a6.03 6.03 0 0 1-1.27-1.2c-.45-.57-.71-1.23-.79-1.42-.12-.37-.37-1.2-.33-2.01.05-1.3.47-2.16.65-2.47.32-.58.74-1.1 1.25-1.54a5.432 5.432 0 0 1 3.91-1.26l.6.04v3.51l-.76-.12c-1.17-.18-2.28.76-2.28 1.96 0 1.09.88 1.98 1.97 1.98.34 0 .67-.09.96-.25.28-.16.52-.39.7-.66.17-.27.28-.59.3-.91V3.65h3.42l.06.97c.07.42.27 1.07.83 1.7a3.691 3.691 0 0 0 1.02.78c.63.31 1.17.37 1.31.38l.6.04v3.42l-.7-.06c-.39-.03-.95-.09-1.42-.22-.87-.23-1.47-.56-1.67-.68v4.99c0 .36-.1 1.2-.35 1.88-.23.6-.56 1.15-.98 1.63-.06.08-.71.84-1.81 1.36-.97.46-1.83.48-2.16.49h-.11Zm-.23-9.48c-.29.02-.58.07-.87.16-.55.16-1.06.43-1.5.8-.38.33-.71.74-.96 1.19-.14.24-.44.87-.49 1.88-.03.61.18 1.29.25 1.48.04.11.25.65.59 1.08.28.36.61.67.98.93.95.65 2.05.68 2.21.68h.11c.27-.01.91-.03 1.63-.37.85-.4 1.36-1.02 1.37-1.02.33-.39.59-.81.76-1.26.2-.54.27-1.22.27-1.41V7.67l1.44.87.51.33s.54.34 1.36.55c.15.04.32.07.49.1V8.7c-.4-.09-.82-.24-1.21-.43-.14-.07-.28-.15-.41-.24-.36-.24-.69-.52-.99-.84-.72-.82-1.01-1.65-1.12-2.24h-.92v10.24c-.05.55-.22 1.08-.51 1.53-.29.45-.69.83-1.15 1.1-.49.28-1.04.42-1.61.42a3.28 3.28 0 0 1-3.27-3.28c0-1.81 1.34-3.15 3.03-3.27v-.83l.01-.01Z"/>
</g></svg>