<svg xmlns="http://www.w3.org/2000/svg" data-laicon-version="5.5" viewBox="0 0 20 20" fill="black"><g transform="translate(-2 -2)">
  <path d="M10.305 17.78a.057.057 0 0 1 .026-.073.061.061 0 0 1 .08.025s.192.35.449.35a.569.569 0 0 0 .416-.225v-.464c-.1-.068-.452-.289-.452-.462s.225-.381.545-.381a.45.45 0 0 1 .481.349c0 .1-.279.388-.452.481v.436a.674.674 0 0 0 .48.224c.27-.019.452-.34.452-.34a.061.061 0 0 1 .08 0 .088.088 0 0 1 .032.016.057.057 0 0 1 0 .08.792.792 0 0 1-.548.4h-.044a.79.79 0 0 1-.51-.234.665.665 0 0 1-.48.231c-.327.001-.555-.393-.555-.413zm-1.82-1.563a.487.487 0 0 1 .487-.487h.007a.487.487 0 1 1-.494.487zm.481-.17a.135.135 0 0 0 .135.135.136.136 0 1 0-.138-.138zm4.306.167a.487.487 0 0 1 .49-.484.487.487 0 1 1-.49.484zm.5-.164a.135.135 0 0 0 .138.132.131.131 0 0 0 .128-.134.134.134 0 0 0-.138-.131.137.137 0 0 0-.131.137zm3.159-3.611v2.153a.829.829 0 0 1 .612.773v1.643a.878.878 0 0 1-.92.833H16.3a4.172 4.172 0 0 1-1.15 1.628l.416.381a.253.253 0 0 1 .029.356A5.336 5.336 0 0 1 11.385 22a5.4 5.4 0 0 1-4.207-1.794.251.251 0 0 1 .029-.353l.413-.375a4.174 4.174 0 0 1-1.15-1.637h-.291a.88.88 0 0 1-.923-.83v-1.646a.884.884 0 0 1 .923-.827h.214a4.816 4.816 0 0 1 1.738-2.588c-.154-.418-.359-1.01-.544-1.668a10.01 10.01 0 0 1-.258-1.051A9.363 9.363 0 0 1 7.13 7.8c-.016-.335-.025-.713-.024-1.111a11.567 11.567 0 0 1 .083-1.776 7.935 7.935 0 0 1 .392-1.93c.006-.023.011-.046.017-.069v.038c.217-.561.522-.93.944-.951 1.358-.067 1.118 3.358.9 5.584a28.762 28.762 0 0 0-.1 3.7 5.8 5.8 0 0 1 2.057-.362 5.972 5.972 0 0 1 1.433.172 16.133 16.133 0 0 1 .686-2.34 7.062 7.062 0 0 1 .764-1.6l.056-.079c.068-.108.137-.214.21-.315.37-.513.743-1.03 1.11-1.5a8.739 8.739 0 0 1 1.277-1.439c.549-.491 1.049-.719 1.458-.476.961.574-.259 2.624-1.109 3.691S14.961 9.7 14.47 10.559a6.293 6.293 0 0 0-.526.946 4.829 4.829 0 0 1 2.462 3.033h.064v-2.1a.794.794 0 0 1-.619-.733.849.849 0 0 1 1.689 0 .788.788 0 0 1-.612.734zm-3.7-1.23a5.175 5.175 0 0 1 .512.2 35.834 35.834 0 0 1 1.977-3.218c1.07-1.432 2.3-2.906 1.9-3.146s-1.689.942-2.647 2.512a29.072 29.072 0 0 0-1.746 3.652zM9.863 13.24a5.7 5.7 0 0 1 1.535-.221 5.111 5.111 0 0 1 1.538.231v-1.685a5.861 5.861 0 0 0-3.073 0zm-1.375-1.535a4.572 4.572 0 0 1 .473-.257c-.01-.939-.02-2.615.008-3.779.042-1.7.132-3.816-.436-3.794s-.961 1.65-.74 3.967a27.8 27.8 0 0 0 .695 3.863zm-1.236 4.944a2.578 2.578 0 0 0 .076.616.62.62 0 1 1 .587 1.073 4.848 4.848 0 0 0 3.485 1.211 4.866 4.866 0 0 0 3.479-1.2.62.62 0 1 1 .588-1.055 2.573 2.573 0 0 0 .079-.629c0-1.848-1.859-3.354-4.146-3.354V13.3c-2.3 0-4.148 1.517-4.148 3.349zm-1.519-.163h.6a2.847 2.847 0 0 1 0-.32 6.2 6.2 0 0 1 .122-1.215h-.32a.408.408 0 0 0-.4.414zm.763.945a5.431 5.431 0 0 1-.138-.692h-.644v.292a.431.431 0 0 0 .461.4zm8.654 2.615-.433-.388a5.676 5.676 0 0 1-3.332.961 5.726 5.726 0 0 1-3.332-.961l-.417.388a4.938 4.938 0 0 0 3.764 1.531 4.883 4.883 0 0 0 3.75-1.531zm1.925-3.307h-.641a5.041 5.041 0 0 1-.134.7h.34a.428.428 0 0 0 .435-.423zm-.468-1.8h-.262a5.979 5.979 0 0 1 .125 1.215v.32h.612l-.013-1.134a.434.434 0 0 0-.462-.405zm.475-3.229a.387.387 0 1 0-.385.346.368.368 0 0 0 .385-.35z"/>
</g></svg>