<svg xmlns="http://www.w3.org/2000/svg" data-laicon-version="15.4" viewBox="0 0 20 20" fill="black"><g transform="translate(-2 -2)">
  <path d="M10.037 3.75H13.4v4.07h3.17v3.69H13.4v3.78c0 .54.141.836.316 1.004.18.172.506.316 1.094.316h1.88v3.85h-3.9c-.754-.064-1.648-.294-2.43-.79-1.071-.68-1.84-1.87-1.84-3.77v-4.39H6.15V8.327l.475-.133C8.818 7.58 9.77 5.871 9.965 4.32l.072-.569Zm5.353 15.4v-1.24h-.58c-.782 0-1.486-.191-1.994-.679-.513-.492-.716-1.18-.716-1.941v-5.08h3.17V9.12H12.1V5.05h-.944C10.785 6.73 9.67 8.492 7.45 9.294v.916h2.37v5.69c0 1.49.571 2.25 1.237 2.672.716.454 1.637.578 2.383.578h1.95Z"/>
</g></svg>