<svg xmlns="http://www.w3.org/2000/svg" data-laicon-version="15.3" viewBox="0 0 20 20" fill="black"><g transform="translate(-2 -2)">
  <path d="M11.116 8.694A4.345 4.345 0 0 1 15.46 4.35c1.113 0 2.129.414 2.898 1.103a6.82 6.82 0 0 0 1.813-.744.65.65 0 0 1 .95.757c-.07.218-.155.429-.257.63a.65.65 0 0 1 .676.998 8.226 8.226 0 0 1-1.73 1.871l.001.15v.008c0 5.16-3.933 11.163-11.163 11.163a10.95 10.95 0 0 1-6.004-1.776.65.65 0 0 1 .441-1.189 6.785 6.785 0 0 0 3.7-.6 4.343 4.343 0 0 1-2.381-2.65.65.65 0 0 1 .135-.63l.001-.003a4.327 4.327 0 0 1-1.462-3.25v-.045a.651.651 0 0 1 .5-.634 4.357 4.357 0 0 1 .108-4.16.65.65 0 0 1 1.067-.085 9.839 9.839 0 0 0 6.365 3.553 4.657 4.657 0 0 1-.002-.123ZM4.53 11.142a3.057 3.057 0 0 0 2.293 2.033.65.65 0 0 1 .043 1.264 4.308 4.308 0 0 1-.76.137 3.039 3.039 0 0 0 2.378 1.215.65.65 0 0 1 .388 1.162 8.077 8.077 0 0 1-3.298 1.54c.965.32 2 .493 3.074.493 6.363 0 9.863-5.261 9.863-9.863 0-.164 0-.309-.007-.443a.65.65 0 0 1 .268-.559 7.44 7.44 0 0 0 .22-.166.65.65 0 0 1-.42-1.216c-.095.023-.19.044-.287.063a.65.65 0 0 1-.602-.193 3.027 3.027 0 0 0-2.223-.959 3.045 3.045 0 0 0-2.964 3.725.65.65 0 0 1-.662.81A11.116 11.116 0 0 1 4.469 6.89a3.042 3.042 0 0 0 1.288 3.17.65.65 0 0 1-.375 1.191 4.211 4.211 0 0 1-.852-.109Z"/>
</g></svg>