<svg xmlns="http://www.w3.org/2000/svg" data-laicon-version="5.5" viewBox="0 0 20 20" fill="black"><g transform="translate(-2 -2)">
  <path d="M21 2H3a1 1 0 0 0-1 1v18a1 1 0 0 0 1 1h18a1 1 0 0 0 1-1V3a1 1 0 0 0-1-1zm-7.941 10.775h-2.695v7.719H8.227v-7.719H5.545v-1.734h7.514zm6.985 6.391a2.446 2.446 0 0 1-.815.87 3.512 3.512 0 0 1-1.2.477 6.9 6.9 0 0 1-1.441.146 7.994 7.994 0 0 1-1.479-.132 4.488 4.488 0 0 1-1.216-.395v-2.11a4.04 4.04 0 0 0 2.6.962 2.984 2.984 0 0 0 .7-.072 1.648 1.648 0 0 0 .5-.2.893.893 0 0 0 .3-.3.767.767 0 0 0 .1-.379.823.823 0 0 0-.158-.5 1.682 1.682 0 0 0-.432-.4 4.439 4.439 0 0 0-.649-.357q-.377-.171-.811-.349A4.137 4.137 0 0 1 14.4 15.3a2.465 2.465 0 0 1-.544-1.609 2.561 2.561 0 0 1 .3-1.269 2.51 2.51 0 0 1 .808-.873 3.6 3.6 0 0 1 1.182-.5 6.062 6.062 0 0 1 1.424-.162 8.613 8.613 0 0 1 1.309.089 5.147 5.147 0 0 1 1.051.274v1.971a3.079 3.079 0 0 0-.517-.29 3.93 3.93 0 0 0-.577-.208 4.523 4.523 0 0 0-.59-.123 4.236 4.236 0 0 0-.557-.039 2.847 2.847 0 0 0-.659.07 1.668 1.668 0 0 0-.5.194.951.951 0 0 0-.316.3.7.7 0 0 0-.113.392.75.75 0 0 0 .125.425 1.453 1.453 0 0 0 .357.357 3.88 3.88 0 0 0 .559.329c.22.107.469.219.745.333a8.271 8.271 0 0 1 1.019.5 3.589 3.589 0 0 1 .774.6 2.371 2.371 0 0 1 .5.768 3.075 3.075 0 0 1-.128 2.334z"/>
</g></svg>