<svg xmlns="http://www.w3.org/2000/svg" data-laicon-version="7.3" viewBox="0 0 20 20" fill="black"><g transform="translate(-2 -2)">
  <path d="m16.3 15.71-2.441-2.435a.459.459 0 0 0-.147-.1.46.46 0 0 0-.347 0 .459.459 0 0 0-.147.1l-2.439 2.435a.446.446 0 0 1-.147.1.459.459 0 0 1-.175.035.451.451 0 0 1-.174-.035.44.44 0 0 1-.148-.1L7.7 13.275a.459.459 0 0 0-.147-.1.477.477 0 0 0-.174-.034.469.469 0 0 0-.174.034.459.459 0 0 0-.147.1L4.62 15.71a.449.449 0 0 1-.642 0l-1.846-1.843a.459.459 0 0 1 0-.644l4.935-4.935a.441.441 0 0 1 .147-.1.448.448 0 0 1 .347 0 .441.441 0 0 1 .147.1l2.436 2.436a.459.459 0 0 0 .644 0l2.435-2.436a.455.455 0 0 1 .148-.1.448.448 0 0 1 .347 0 .441.441 0 0 1 .147.1l2.435 2.436a.46.46 0 0 0 .645 0l2.435-2.436a.441.441 0 0 1 .147-.1.451.451 0 0 1 .174-.035.458.458 0 0 1 .174.035.441.441 0 0 1 .147.1l1.846 1.843a.46.46 0 0 1 0 .645l-4.935 4.934a.451.451 0 0 1-.636 0z"/>
</g></svg>