<svg xmlns="http://www.w3.org/2000/svg" data-laicon-version="16.7" viewBox="0 0 20 20" fill="black"><g transform="translate(-2 -2)">
  <path d="M18.54 5.46A9.187 9.187 0 0 0 12 2.75c-2.47 0-4.794.962-6.54 2.71A9.187 9.187 0 0 0 2.75 12c0 2.47.962 4.794 2.71 6.54A9.19 9.19 0 0 0 12 21.25c2.47 0 4.794-.962 6.54-2.71A9.19 9.19 0 0 0 21.25 12c0-2.47-.962-4.794-2.71-6.54Zm.442 10.895c-1.503.902-2.491.88-3.836.681a7.089 7.089 0 0 1-2.332-.79c4.365.213 6.823-2.084 7.256-2.616a8.176 8.176 0 0 1-1.088 2.725ZM12.45 20.22c-.595-.152-1.306-.93-1.859-2.034a9.571 9.571 0 0 1-.96-3.48 6.818 6.818 0 0 0 1.435 1.586c.752.615.944.768 2.546 1.412 1.602.645 3.559.356 4.088.231a8.203 8.203 0 0 1-5.25 2.285ZM12 3.769c4.133 0 7.564 3.062 8.144 7.036.007 2.293-2.382 3.415-3.341 3.794-2.346.924-6.247 1.152-6.762-1.39-.456-2.154 1.459-3.241 2.422-3.37 1.245-.099 2.397.663 2.627 1.028.343-.808-.14-1.871-.248-2.07-1.028-1.882-3.101-3.01-5.661-3.01a7.33 7.33 0 0 0-3.408.835A8.218 8.218 0 0 1 12 3.768v.001ZM4.29 9.115a6.306 6.306 0 0 1 4.892-2.31c1.213 0 2.327.294 3.219.85.565.352 1.119.874 1.463 1.4-1.21-.326-2.722-.236-4.201.356a9.47 9.47 0 0 0-3.6 2.544 8.444 8.444 0 0 0-1.72 3.067c-.504-1.317-.893-3.779-.053-5.907Zm.779 7.32c.418-2.988 2.557-4.967 4.563-5.901a4.609 4.609 0 0 0-.559.981h-.001l-.006.019c-.323.77-.487 1.674-.477 2.66.014 1.47.412 3.09 1.09 4.447a7.33 7.33 0 0 0 .953 1.476 8.25 8.25 0 0 1-5.564-3.681Z"/>
</g></svg>