<svg xmlns="http://www.w3.org/2000/svg" data-laicon-version="18.2" viewBox="0 0 20 20" fill="black"><g transform="translate(-2 -2)">
  <path d="M2.75 7.895s1.849-3.91 5.046-3.524c2.728.33 3.048 4.16 3.344 6.472.103.801.256 2.302.256 2.307l3.254-6.268h2.326l-1.12 2.082h2.41c-1.35 2.58-2.902 5.55-4.017 7.647-.607 1.141-1.602 3.045-3.368 3.045-2.855 0-2.92-4.596-3.028-6.141-.101-1.465-.215-2.934-.496-4.377-.16-.822-.629-1.645-1.52-1.796-1.182-.2-1.632.628-2.162 1.278l-.925-.725ZM16.98 6.88l1.36-2.52h2.91l-1.341 2.52h-2.928Z"/>
</g></svg>