<svg xmlns="http://www.w3.org/2000/svg" data-laicon-version="5.5" viewBox="0 0 20 20" fill="black"><g transform="translate(-2 -2)">
  <path d="m6.591 15.65 5.053 2.779V22l-8.106-4.586zm-.643-6.612L2.983 7.324v9.588L5.948 15.2zm.369-.656 5.327-2.931V2L3.331 6.7l2.944 1.7zm11.408.018 2.944-1.7L12.356 2v3.451l5.327 2.928zm.327.635V15.2l2.965 1.711V7.324zM6.66 14.875l4.984 2.741v-5.292L6.66 9.447zm5.7 2.741 4.984-2.739v-5.43l-4.984 2.877zm0 .813V22l8.106-4.586-3.06-1.764zM12 6.07 7 8.82l5 2.888 5-2.888z"/>
</g></svg>