<svg xmlns="http://www.w3.org/2000/svg" data-laicon-version="5.9" viewBox="0 0 20 20" fill="black"><g transform="translate(-2 -2)">
  <path d="m4.771 16.233.746-2.048a6.49 6.49 0 0 1-.621-.48A5.321 5.321 0 0 1 3 9.685a5.32 5.32 0 0 1 1.896-4.02A6.91 6.91 0 0 1 9.473 4a7.03 7.03 0 0 1 4.206 1.364 5.56 5.56 0 0 1 2.18 3.384 6.972 6.972 0 0 0-.387-.011c-3.22 0-5.842 2.267-5.842 5.052 0 .535.096 1.066.285 1.566a7.251 7.251 0 0 1-2.797-.373l-2.346 1.25v.001zm7.07-9.39a.947.947 0 1 0 0 1.894.947.947 0 0 0 0-1.895zm-4.736 0a.947.947 0 1 0 0 1.894.947.947 0 0 0 0-1.895z"/>
  <path d="m19.552 19.303-1.998-1.125a6.31 6.31 0 0 1-2.081.348 5.986 5.986 0 0 1-3.906-1.388 4.392 4.392 0 0 1-1.62-3.349 4.393 4.393 0 0 1 1.62-3.35 5.986 5.986 0 0 1 3.906-1.386 5.985 5.985 0 0 1 3.907 1.387A4.394 4.394 0 0 1 21 13.79c0 .762-.21 1.509-.608 2.16a5.062 5.062 0 0 1-1.622 1.64l.782 1.712v.001zm-2.184-7.725a.79.79 0 1 0 0 1.58.79.79 0 0 0 0-1.58zm-3.474 0a.79.79 0 1 0 0 1.58.79.79 0 0 0 0-1.58z"/>
</g></svg>