<svg xmlns="http://www.w3.org/2000/svg" data-laicon-version="5.9" viewBox="0 0 20 20" fill="black"><g transform="translate(-2 -2)">
  <path d="M16.124 13.787c-.224-.112-1.325-.651-1.53-.726-.206-.074-.355-.111-.504.112-.15.223-.579.725-.71.874-.13.149-.26.167-.485.056-.224-.112-.945-.347-1.8-1.107-.666-.59-1.116-1.32-1.246-1.543-.13-.223-.014-.344.098-.455.1-.1.224-.26.336-.39.112-.13.15-.224.224-.373.074-.148.037-.278-.019-.39-.056-.112-.504-1.208-.69-1.655-.182-.434-.367-.375-.504-.382a9.009 9.009 0 0 0-.43-.008.825.825 0 0 0-.597.279c-.205.223-.783.762-.783 1.859s.802 2.157.914 2.305c.112.15 1.58 2.4 3.826 3.366.534.23.951.366 1.276.47.537.169 1.025.145 1.41.087.43-.064 1.326-.539 1.512-1.06.187-.52.187-.966.13-1.06-.055-.092-.204-.148-.428-.26zm-4.086 5.552h-.003a7.464 7.464 0 0 1-3.792-1.033l-.272-.161-2.82.736.753-2.736-.177-.28a7.37 7.37 0 0 1-1.139-3.946c.002-4.087 3.344-7.413 7.453-7.413 1.99.001 3.86.773 5.266 2.175a7.351 7.351 0 0 1 2.18 5.244c-.002 4.088-3.344 7.414-7.45 7.414zm6.34-13.723A8.926 8.926 0 0 0 12.037 3c-4.94 0-8.96 4.001-8.963 8.919 0 1.572.412 3.106 1.196 4.459L3 21l4.751-1.24a8.99 8.99 0 0 0 4.283 1.085h.004c4.94 0 8.96-4.001 8.962-8.919 0-2.383-.93-4.624-2.623-6.31z"/>
</g></svg>