<svg xmlns="http://www.w3.org/2000/svg" data-laicon-version="16.2" viewBox="0 0 20 20" fill="black"><g transform="translate(-2 -2)">
  <path d="M8.55 4H7.31a.237.237 0 0 0-.24.233v11.438c0 .129.107.233.24.233h1.24a.237.237 0 0 0 .241-.233V4.233A.237.237 0 0 0 8.55 4Zm8.14 0h-1.24a.237.237 0 0 0-.24.233v11.438c0 .129.107.233.24.233h1.238a.237.237 0 0 0 .241-.233V4.233A.237.237 0 0 0 16.69 4Z"/>
  <path d="M20.759 4H19.52a.237.237 0 0 0-.24.233v11.671c0 1.507-1.437 2.735-3.209 2.735-1.771 0-3.212-1.228-3.212-2.735V4.234A.237.237 0 0 0 12.62 4h-1.24a.237.237 0 0 0-.24.233v11.671c0 1.507-1.437 2.735-3.209 2.735-1.771 0-3.212-1.228-3.212-2.735V4.234A.237.237 0 0 0 4.48 4H3.24a.237.237 0 0 0-.24.233v11.671C3 18.33 5.207 20.3 7.93 20.3c1.69 0 3.182-.761 4.07-1.918.888 1.157 2.38 1.918 4.07 1.918 2.723 0 4.93-1.972 4.93-4.396V4.234A.237.237 0 0 0 20.76 4h-.002Z"/>
</g></svg>