<svg xmlns="http://www.w3.org/2000/svg" data-laicon-version="5.5" viewBox="0 0 20 20" fill="black"><g transform="translate(-2 -2)">
  <path d="M17.884 15.6a4.5 4.5 0 0 0-1.7.78 10.148 10.148 0 0 1-2.5 1.132.7.7 0 0 1-.421.235 26.74 26.74 0 0 1-2.76.247c-.5 0-.8-.127-.888-.332a.673.673 0 0 1 .37-.888 1.619 1.619 0 0 1-.22-.162c-.073-.073-.15-.22-.174-.166-.1.236-.146.811-.405 1.069a1.3 1.3 0 0 1-1.425.031c-.436-.231.031-.776.031-.776a.312.312 0 0 1-.424-.146 2.073 2.073 0 0 1-.286-1.263 2.3 2.3 0 0 1 .749-1.239 3.987 3.987 0 0 1 .282-1.884 4.464 4.464 0 0 1 1.355-1.568s-.83-.919-.521-1.745c.2-.541.282-.537.347-.56A1.551 1.551 0 0 0 9.923 8a2.253 2.253 0 0 1 1.888-.726s.5-1.525.965-1.228a7.856 7.856 0 0 1 .656 1.236s.549-.32.61-.2a4.843 4.843 0 0 1 .224 2.618 5.984 5.984 0 0 1-1.112 2.316 4.7 4.7 0 0 1 1.12 1.664 4.882 4.882 0 0 1 .112 2.232l.016.027a2.792 2.792 0 0 0 1.451-.56 3.649 3.649 0 0 1 1.83-.687.463.463 0 0 1 .201.908zM22 12A10 10 0 1 1 12 2a10 10 0 0 1 10 10zm-3.2 3.031a1.067 1.067 0 0 0-1.127-.919 4.214 4.214 0 0 0-2.128.776 4.449 4.449 0 0 1-.5.274 4.1 4.1 0 0 0-.227-1.679 4.161 4.161 0 0 0-.931-1.522 5.443 5.443 0 0 0 .942-2.146 5.338 5.338 0 0 0-.278-3 .611.611 0 0 0-.386-.313.754.754 0 0 0-.459.016c-.39-.807-.526-.892-.63-.962a.786.786 0 0 0-.71-.081 1.7 1.7 0 0 0-.853.973c-.039.081-.074.158-.1.236a2.845 2.845 0 0 0-1.919.916 1.1 1.1 0 0 1-.4.217c-.34.119-.495.4-.684.9a2.161 2.161 0 0 0 .274 1.842A4.326 4.326 0 0 0 7.583 12a4.608 4.608 0 0 0-.34 1.88 2.538 2.538 0 0 0-.733 1.425 2.645 2.645 0 0 0 .378 1.622 1.211 1.211 0 0 0 .127.162.977.977 0 0 0 0 .332.9.9 0 0 0 .479.629 2.021 2.021 0 0 0 1.768.112 1.576 1.576 0 0 0 1.209.409h.039a25.4 25.4 0 0 0 2.888-.262 1.405 1.405 0 0 0 .586-.286 10.824 10.824 0 0 0 2.51-1.158 4.012 4.012 0 0 1 1.517-.7 1.024 1.024 0 0 0 .789-1.134z"/>
</g></svg>