<svg xmlns="http://www.w3.org/2000/svg" data-laicon-version="12.0" viewBox="0 0 20 20" fill="black"><g transform="translate(-2 -2)">
  <path d="m21.572 9.029-.005-.023h-.001c-.007-.019-.01-.04-.016-.059-.33-.911-1.054-1.648-2.092-2.133-1.312-.612-3.076-.781-4.955-.531-.366-1.09-.945-2.263-1.926-2.263l-.104.005c-.877.076-1.283 1.005-1.494 1.973-1.043-.784-1.83-.938-2.388-.546-.877.616-.52 1.975-.091 3.058-1.226.803-2.198 1.738-2.841 2.714l-2.855 1.043a.84.84 0 0 0-.347 1.344l1.52 1.752-.042 2.326a.847.847 0 0 0 .843.856.85.85 0 0 0 .289-.051l2.855-1.043a8.681 8.681 0 0 0 2.486.341c.46 0 .94-.04 1.425-.099.35 1.059.919 2.284 1.928 2.284l.104-.004c.839-.074 1.258-.944 1.484-1.95.665.512 1.213.758 1.687.758.262 0 .508-.075.71-.217.852-.6.544-1.912.113-3.021 2.878-1.823 4.428-4.373 3.713-6.513v-.001Zm-8.804 7.193c-.09-.36-.172-.741-.25-1.145.283.353.563.686.84 1.001-.197.052-.395.102-.59.144Zm-6.404-1.745c.298-.539 1.193-1.359 3.033-2.309.26-.134.529-.265.8-.392.218.353.447.707.688 1.066.034.321.068.641.11.951-2.76.786-4.112.799-4.63.684h-.001Zm4.34-4.401a21.48 21.48 0 0 1-.542-1.036c.177-.095.358-.188.543-.277-.011.422-.011.859-.001 1.313Zm1.595 2.545c-.055-.079-.104-.157-.158-.237-.01-.099-.023-.193-.032-.293a32.191 32.191 0 0 1-.072-1.088c3.202-1.215 6.592-1.852 8.1-1.458-.702.817-3.632 2.433-7.383 3.701-.152-.207-.305-.409-.455-.624v-.001Zm3.819-5.163c1.063 0 2.025.177 2.79.534.095.044.174.097.26.146-2.01-.044-4.738.614-7.174 1.499-.004-.495.002-.975.026-1.421 1.405-.5 2.824-.758 4.098-.758Zm-3.531-2.104c.102.092.335.381.62 1.168-.35.081-.7.176-1.051.285.147-.98.343-1.339.43-1.453ZM9.316 6.535c.083.01.464.102 1.297.836a14.73 14.73 0 0 0-.977.472c-.342-.926-.3-1.262-.32-1.308ZM9.045 9.72c.149.301.317.614.493.932-.256.12-.503.241-.737.362-.982.507-1.772 1.009-2.381 1.504a4.242 4.242 0 0 1 .23-.427l.049-.078c.513-.799 1.326-1.594 2.347-2.293h-.001Zm-5.171 3.54 1.027-.375c-.007.029-.007.056-.013.085a3.94 3.94 0 0 0-.088.563c-.006.067-.008.134-.01.201-.005.165.003.328.02.49.006.041 0 .083.006.123l-.941-1.086-.001-.001Zm1.373 3.785.026-1.437c.005.009.013.016.019.025.037.059.087.11.128.167.102.143.205.284.329.414.044.045.098.083.144.126.12.114.239.23.378.331l-1.024.375v-.001Zm2.51-1.036c-.054-.023-.105-.039-.16-.065-.058-.028-.106-.061-.162-.091-.026-.014-.052-.032-.078-.047 1.103-.046 2.454-.325 3.838-.717.085.471.18.914.282 1.335-1.423.146-2.726.011-3.72-.416v.001Zm6.028 2.667c-.06-.041-.32-.263-.656-1.207.349-.077.698-.166 1.05-.271-.17 1.122-.396 1.429-.395 1.478Zm3.25-1.194c-.04 0-.4-.035-1.306-.833.338-.142.669-.289.985-.449.306.85.306 1.24.322 1.283v-.001Zm-2.32-1.827c-.37-.397-.751-.852-1.135-1.33 1.637-.579 3.12-1.208 4.035-1.652 1.174-.57 2.01-1.067 2.608-1.503-.663 1.669-2.763 3.456-5.507 4.485Z"/>
</g></svg>