<svg xmlns="http://www.w3.org/2000/svg" data-laicon-version="5.5" viewBox="0 0 20 20" fill="black"><g transform="translate(-2 -2)">
  <path d="M15.635 2h-7.27A6.365 6.365 0 0 0 2 8.365v7.27A6.365 6.365 0 0 0 8.365 22h7.27A6.365 6.365 0 0 0 22 15.635v-7.27A6.365 6.365 0 0 0 15.635 2zm-.883 12.672a.733.733 0 0 1-.775.76H7.836a1.847 1.847 0 0 1-1.855-1.838V9.085c0-.3.2-.524.6-.524h6.079a2.215 2.215 0 0 1 2.092 2.275zm3.423.188a.515.515 0 0 1-.811.434l-1.9-1.815a.577.577 0 0 1-.237-.466V11a.576.576 0 0 1 .237-.466L17.371 8.7a.517.517 0 0 1 .8.449z"/>
</g></svg>