<svg width="24" height="24" viewBox="0 0 24 24" fill="none" xmlns="http://www.w3.org/2000/svg">
  <path d="M20.84 4.61C20.3292 4.09924 19.7228 3.69397 19.0554 3.41712C18.388 3.14027 17.6726 2.99758 16.95 2.99758C16.2274 2.99758 15.512 3.14027 14.8446 3.41712C14.1772 3.69397 13.5708 4.09924 13.06 4.61L12 5.67L10.94 4.61C9.90831 3.57831 8.50903 2.99758 7.05 2.99758C5.59096 2.99758 4.19169 3.57831 3.16 4.61C2.12831 5.64169 1.54758 7.04097 1.54758 8.5C1.54758 9.95903 2.12831 11.3583 3.16 12.39L4.22 13.45L12 21.23L19.78 13.45L20.84 12.39C21.3508 11.8792 21.756 11.2728 22.0329 10.6054C22.3097 9.93801 22.4524 9.22262 22.4524 8.5C22.4524 7.77738 22.3097 7.06199 22.0329 6.39462C21.756 5.72724 21.3508 5.12081 20.84 4.61Z" stroke="currentColor" stroke-width="2" stroke-linecap="round" stroke-linejoin="round"/>
</svg>
